<svg width="874" height="515" viewBox="0 0 874 515" fill="none" xmlns="http://www.w3.org/2000/svg">
<path d="M272.108 289.048C270.159 288.706 268.193 288.038 266.244 288.072C262.842 288.158 259.457 288.689 256.055 289.048H272.108ZM27.2812 234.46C26.868 234.498 26.4473 234.531 26.0381 234.573L26.3291 235.24C26.6466 234.98 26.9637 234.72 27.2812 234.46ZM435.192 224.021C432.713 230.314 432.559 232.555 434.371 234.471C436.047 231.016 435.466 227.475 435.192 224.021ZM406.829 226.347C404.966 227.578 404.196 228.604 405.854 230.485C406.835 229.425 407.16 228.045 406.829 226.347ZM415.309 200.435C413.941 201.871 412.915 202.505 412.607 203.377C411.872 205.566 411.104 207.858 411.001 210.149C410.762 214.853 410.453 219.471 408.453 223.85C408.111 224.585 408.573 225.679 408.658 226.603L408.676 226.62H409.872C415.565 219.06 416.488 210.491 415.309 200.435ZM93.3984 224.362C93.3279 224.475 93.2222 224.577 93.1875 224.686C93.2118 224.606 93.2375 224.528 93.2617 224.448C93.2959 224.431 93.3471 224.397 93.3984 224.362ZM209.702 222.525C209.618 221.992 209.534 221.458 209.449 220.925C209.62 220.908 209.809 220.891 209.979 220.891C209.885 221.437 209.794 221.983 209.702 222.525ZM840.328 221.403H840.79V219.71H840.328V221.403ZM357.787 216.308C357.61 215.06 357.46 213.994 357.317 212.92C357.574 212.903 357.847 212.903 358.104 212.903C358 214.021 357.895 215.139 357.787 216.308ZM446.425 208.85C446.698 208.952 446.955 209.038 447.229 209.123C446.711 211.49 446.202 213.857 445.717 216.123C445.754 214.399 445.792 212.675 445.843 210.953C445.877 210.252 446.22 209.551 446.425 208.85ZM197.124 215.714C196.896 215.216 196.668 214.717 196.439 214.22C196.764 214.151 197.106 214.083 197.431 214.015C197.329 214.581 197.226 215.148 197.124 215.714ZM825.42 208.764C824.24 210.628 824.668 211.552 825.968 212.236C826.378 212.681 826.788 213.108 827.198 213.553C827.42 213.433 827.643 213.314 827.848 213.194C827.625 212.51 827.404 211.808 827.182 211.124C826.652 210.406 826.104 209.687 825.42 208.764ZM50.8965 211.44C51.1694 211.595 51.3814 211.718 51.5635 211.877C51.5969 211.912 51.3915 212.255 50.8965 213.331V211.44ZM618.296 202.23C618.234 203.476 618.174 204.722 618.112 205.968C618.037 204.722 617.963 203.476 617.886 202.23H618.296ZM872.214 198.194L872.128 198.331C872.09 198.268 872.055 198.205 872.021 198.144C872.082 198.159 872.148 198.174 872.214 198.194ZM416.625 148.561C416.283 149.946 415.873 150.699 415.976 151.383C416.608 155.761 415.053 159.746 414.01 163.851C412.642 169.324 411.668 174.916 412.83 180.561C413.651 184.546 414.831 188.463 415.925 192.396C416.011 192.687 416.626 192.824 417.515 193.337C418.25 189.865 418.934 186.701 419.669 183.246C416.096 178.201 416.078 172.42 416.898 166.57C417.446 162.688 418.301 158.839 418.984 154.957C419.378 152.734 419.309 150.63 416.643 148.561H416.625ZM835.508 187.898C835.444 189.021 835.384 190.143 835.321 191.268C835.184 190.154 835.178 189.026 835.114 187.898H835.508ZM509.898 169.742C512.075 174.281 512.055 178.037 510.365 182.049C509.152 184.939 510.571 187.83 512.332 190.464C512.64 184.461 512.298 178.457 515.272 173.445C513.412 172.148 512.063 171.226 509.898 169.742ZM441.62 97.3867C440.611 100.636 439.91 103.049 440.475 105.819C441.723 111.908 442.732 118.048 443.843 124.223C445.963 122.735 448.014 121.212 448.698 118.236C447.57 117.518 446.561 116.868 445.535 116.218V116.201C442.201 110.318 443.449 103.954 441.62 97.3867ZM873 514.048H0V226.671C1.65831 227.475 0.153791 229.767 2.23926 230.708C4.51299 229.579 7.06067 228.296 9.52246 227.082C12.0698 228.741 14.3443 230.212 16.6523 231.717C20.3278 230.229 20.0885 226.158 22.5674 223.627V227.817C23.2854 228.04 23.9694 228.262 24.7217 228.519C24.3627 229.801 24.0207 231.084 23.4736 233.017C24.8753 232.555 25.7815 232.247 26.8242 231.905C27.0457 232.697 27.2678 233.473 27.4893 234.249C29.033 232.72 30.5116 231.125 32.1582 229.716C33.2353 228.792 34.5525 228.142 36.3477 226.996C36.6041 230.212 36.7914 232.555 37.0479 235.771C39.4585 233.615 40.6218 231.734 41.2715 229.527C43.135 223.199 46.058 217.35 49.084 211.535C49.9046 209.962 50.2468 208.131 50.8965 206.216V211.44C50.7594 211.363 50.6061 211.279 50.4346 211.176C48.2806 214.767 50.1271 219.608 46.5371 222.156C46.4004 225.046 48.2292 225.816 50.6396 227.048C53.4264 222.379 56.0769 217.949 58.043 214.665C57.7694 216.068 57.2223 218.77 56.6924 221.472C56.5043 222.31 56.2984 223.148 56.1104 223.986C56.401 224.123 56.6752 224.277 56.9658 224.414C57.4787 223.918 57.9744 223.404 58.4873 222.908C59.0514 222.823 59.6327 222.738 60.3848 222.618C60.7609 223.832 61.2059 225.269 61.7529 227.048C63.1546 227.407 64.6246 227.783 66.1289 228.177C66.5734 228.963 67.0529 229.835 67.9248 231.392C69.0701 228.98 69.9075 227.253 70.7451 225.509C73.6002 226.278 71.6684 228.981 73.1729 230.503C73.8738 230.263 74.6945 229.972 75.5664 229.664C75.669 231.015 75.7885 232.469 75.9766 234.915C77.4811 233.102 78.4219 231.973 79.499 230.69C80.4906 230.331 81.6872 229.904 82.7471 229.527C84.4054 229.835 85.9442 230.126 87.6367 230.451C87.9957 229.699 88.3207 229.015 88.6797 228.245C89.3464 228.878 90.0817 229.562 91.3125 230.725C92.0627 228.343 92.6257 226.521 93.1807 224.71C93.1774 224.725 93.1758 224.74 93.1758 224.756C93.2271 226.671 93.2954 228.587 93.3809 231.357C98.2534 227.424 96.7836 221.506 100.853 218.171C100.511 220.189 99.9293 222.19 99.9121 224.208C99.9121 226.363 100.442 228.536 100.75 230.64C104.887 232.333 105.589 231.922 108.871 225.714C108.307 223.097 107.657 220.086 107.024 217.076C107.178 217.025 107.315 216.974 107.469 216.923C108.187 218.325 108.888 219.745 109.999 221.951C111.264 218.171 112.239 215.315 113.299 212.15C113.795 213.057 114.274 213.895 115.077 215.332C115.487 213.519 115.795 212.202 116.188 210.475C117.351 212.168 118.359 213.639 119.778 215.708C120.103 213.553 120.326 212.151 120.548 210.731C120.77 210.68 120.993 210.628 121.215 210.594C123.472 217.794 125.745 224.978 128.002 232.179H128.891C129.916 229.408 130.959 226.637 132.139 223.473C133.062 225.611 133.9 227.561 134.721 229.477C136.892 229.032 138.567 228.673 140.79 228.211C140.944 225.714 141.098 222.977 141.252 220.224C141.508 220.207 141.765 220.172 142.038 220.155C142.277 221.66 142.534 223.165 142.739 224.533C144.757 226.432 145.868 224.072 147.629 223.781C148.056 225.218 148.5 226.705 149.064 228.569C149.988 229.544 151.168 230.776 152.467 232.127C154.279 230.896 155.92 229.784 158.074 228.33C158.399 226.62 158.809 224.516 159.254 222.241C159.852 222.275 160.605 222.344 161.528 222.396C162.007 221.78 162.554 221.078 163.237 220.206C163.425 223.439 163.614 226.518 163.819 229.802C165.324 229.699 166.366 229.648 167.443 229.579C168.281 230.674 169.136 231.768 170.384 233.393C172.213 232.195 173.94 231.067 175.615 229.973C175.803 228.331 175.992 226.825 176.146 225.405C177.103 227.15 178.06 228.912 179.12 230.861C184.249 229.544 182.266 225.576 182.882 222.908C183.207 223.866 183.497 225.064 183.993 226.176C184.54 227.356 185.275 228.467 186.335 230.331C187.241 227.424 187.84 225.457 188.523 223.233C189.276 224.465 189.959 225.594 190.66 226.723C190.899 226.637 191.122 226.569 191.361 226.483C190.951 221.575 190.524 216.666 190.113 211.774C190.404 211.723 190.695 211.671 190.985 211.62C192.25 215.639 193.515 219.659 194.78 223.679C195.088 223.679 195.379 223.678 195.687 223.695C196.166 221.03 196.645 218.375 197.124 215.714C199.165 220.159 201.185 224.592 203.106 228.775C205.226 228.468 206.629 228.261 208.8 227.937C209.066 226.31 209.377 224.444 209.702 222.525C210.298 226.283 210.883 230.032 211.467 233.701C212.988 234.437 214.066 234.966 214.887 235.377C216.681 234.796 216.801 234.419 216.921 230.485C217.878 229.083 218.784 227.749 219.554 226.62C220.682 228.809 221.844 231.101 223.041 233.427C226.067 232.554 229.094 231.683 232.103 230.811C232.068 230.52 232.051 230.246 232.017 229.955C232.82 230.297 233.607 230.657 234.718 231.136C235.641 230.298 236.65 229.374 237.864 228.279C238.565 228.741 239.403 229.289 240.497 230.007C241.01 229.374 241.454 228.809 241.83 228.33C243.403 232.606 243.626 232.983 246.19 235.531C247.216 232.949 248.156 230.588 249.489 227.185C250.105 229.63 250.447 231.05 250.857 232.657C252.909 231.99 251.832 229.887 252.67 228.844C253.661 230.913 254.653 233.017 255.576 234.949C257.132 236.181 258.551 237.292 260.277 238.644C260.568 237.31 260.859 236.01 261.149 234.728C262.859 236.01 264.586 237.292 266.449 238.678C267.868 236.796 269.151 235.103 270.382 233.479C273.117 234.231 274.536 237.361 277.921 236.608C280.964 233.376 281.477 228.723 283.922 223.969C284.127 227.372 284.298 229.955 284.469 232.812C285.324 233.855 286.265 235.018 287.615 236.677C287.957 235.343 288.128 234.658 288.504 233.119C289.461 235.308 290.146 236.882 291.154 239.226C292.043 236.711 292.693 234.829 293.633 232.161C294.812 233.94 295.53 235.018 296.437 236.369C297.89 234.471 299.189 232.777 300.643 230.861C301.173 232.024 301.652 233.034 302.387 234.642C305.122 231.17 307.532 228.142 309.994 225.029C310.319 225.457 310.661 225.902 311.071 226.432C311.704 226.261 312.388 226.09 313.413 225.833V233.119C316.422 232.384 315.602 230.194 316.047 228.569C316.491 226.979 317.38 225.508 318.389 223.302C319.141 226.397 319.757 228.912 320.372 231.392H326.39C329.621 228.587 328.561 224.636 328.458 221.096C328.817 223.165 329.194 225.218 329.689 228.04C331.809 227.27 333.416 226.671 335.536 225.901C336.613 226.192 338.443 226.689 341.059 227.407C341.691 228.262 342.888 229.853 344.58 232.145C345.144 230.297 345.504 229.1 345.948 227.629H349.692C349.385 220.925 345.983 215.11 345.914 208.97C347.983 213.981 348.581 219.864 351.847 224.756C355.146 223.644 354.034 221.078 354.53 219.437C355.146 219.693 355.967 220.053 357.386 220.651C357.532 219.082 357.662 217.66 357.787 216.308C357.844 216.708 357.904 217.128 357.967 217.572C362.155 215.4 361.694 211.227 363.523 208.405C365.472 205.412 365.678 202.042 365.985 198.707V213.45C365.985 214.391 365.849 215.52 366.293 216.238C368.806 220.326 368.481 224.961 369.028 229.425C369.216 230.896 368.978 232.589 371.098 233.77C371.491 232.418 371.816 231.341 372.175 230.109C374.329 230.28 376.671 230.469 379.201 230.674C382.022 227.305 380.774 222.806 382.467 218.89C383.031 219.044 383.698 219.198 384.501 219.42C384.997 218.513 385.527 217.573 386.245 216.256C386.724 222.823 386.433 229.22 389.391 235.463C391.545 232.47 393.426 229.818 395.357 227.133C396.229 227.424 396.93 227.646 397.836 227.937C397.939 227.321 398.212 226.722 398.127 226.158C397.135 219.231 397.118 212.39 399.443 205.651C399.871 204.42 399.683 202.83 399.375 201.513C397.853 195.082 396.024 188.787 393.015 182.801C391.203 179.175 390.006 175.292 386.74 172.812C387.082 170.983 387.339 169.615 387.63 168.127C386.382 165.373 385.937 162.534 387.339 159.558C387.783 158.617 387.596 157.385 387.801 156.308C388.656 151.519 389.732 146.781 390.382 141.958C391.049 137.015 391.323 132.004 391.818 126.548C389.818 126.633 388.553 126.685 386.826 126.771C386.194 121.811 384.535 117.158 386.672 111.754C384.432 112.609 382.672 113.293 380.347 114.199C381.236 116.816 382.432 119.33 382.877 121.981C383.304 124.547 382.98 127.266 382.979 130.67C382.979 130.67 382.314 131.285 382.381 131.218C381.355 135.493 380.398 138.948 379.731 142.454C378.723 147.705 378.004 152.99 377.013 158.24C376.568 160.583 376.961 163.303 374.26 165.441C372.294 155.556 373.867 146.251 375.252 137.819C374.038 134.57 373.132 132.124 372.226 129.678C372.379 129.609 372.533 129.541 372.704 129.473C371.73 128.07 370.772 126.651 369.9 125.402C369.764 120.631 374.38 117.005 372.414 112.079C367.439 111.566 366.515 118.235 361.455 117.894C363.045 113.037 368.225 111.942 370.396 108.863C371.456 106.144 372.294 104.006 373.114 101.851C373.439 100.978 373.935 100.072 373.952 99.1826C374.174 89.3311 377.03 79.9757 379.475 70.5518C381.56 62.479 383.697 54.4233 385.954 46.4189C386.963 42.8444 389.134 39.749 392.297 37.8848C398.212 34.3786 404.367 31.2822 411.291 27.5537C412.18 23.9108 409.581 20.4732 407.547 16.4883C407.41 15.1372 407.274 13.4095 407.034 11.6992C406.111 5.08021 410.471 -0.0513101 417.139 0C419.156 5.42814e-05 421.173 0.342103 423.19 0.598633C430.832 1.59063 433.67 9.86868 430.337 16.7441C428.661 20.1819 428.062 23.4834 428.165 27.2461C431.926 31.5219 436.337 35.0965 441.244 37.7988C448.356 41.7155 451.998 47.3598 452.716 55.4326C453.622 65.7629 455.024 76.0418 456.204 86.3379C456.307 87.2785 456.443 88.2195 456.46 89.1602C456.631 96.5659 457.743 103.801 460.119 110.848C460.358 111.566 460.427 112.353 460.632 113.379C459.11 114.268 457.674 115.089 455.776 116.184C456.426 119.878 459.212 123.658 456.631 127.421C457.161 129.2 457.605 130.688 458.187 132.62C456.836 135.186 455.81 138.316 453.827 140.642C450.938 144.045 450.305 147.876 450.356 151.964C450.391 154.871 450.186 157.608 448.186 160.242C446.852 154.735 448.989 149.655 449.126 144.318C448.305 143.737 447.468 143.156 446.698 142.608C447.04 139.684 451.212 139.05 450.169 135.373C448.887 136.04 447.604 136.673 446.015 137.494C445.502 136.194 445.108 135.185 444.595 133.868C442.612 135.527 443.005 137.614 443.142 139.308C444.167 152.751 442.732 166.04 441.057 179.329C439.621 190.72 438.235 202.128 437.021 213.553C436.645 217.042 437.124 220.48 440.731 222.566C442.133 221.455 443.433 220.429 445.074 219.129C445.282 218.154 445.497 217.149 445.717 216.123C445.63 220.204 445.56 224.288 445.416 228.364C445.313 231.152 445.689 233.667 448.254 235.771C449.878 234.83 451.605 233.804 453.605 232.641C454.187 233.154 454.973 233.855 455.879 234.676C457.4 233.821 458.991 232.931 460.7 231.974C461.743 232.675 462.615 233.273 463.025 233.547C466.017 233.068 468.599 232.658 471.728 232.145C472.138 231.443 472.787 230.297 473.625 228.826C475.865 230.554 477.9 232.127 480.122 233.854C481.37 231.854 482.396 230.212 483.473 228.484C484.071 228.57 484.704 228.655 485.388 228.758C486.567 227.03 487.679 225.389 488.995 223.456C489.781 224.414 490.312 225.047 490.91 225.782C491.611 225.149 492.278 224.551 493.475 223.456C493.321 226.278 493.2 228.518 493.063 230.896C495.012 231.905 496.893 232.88 498.791 233.854C501.219 232.88 500.809 230.742 500.467 229.015C499.321 223.336 499.612 217.35 496.825 212.014C496.329 211.073 496.329 209.892 496.158 208.798C495.047 201.974 493.628 195.166 492.944 188.291C492.483 183.656 493.132 178.919 493.2 174.232C493.251 170.162 493.32 166.091 493.115 162.021C493.064 160.892 492.123 159.745 491.474 158.702C490.636 157.368 489.696 156.102 488.772 154.837C486.123 151.143 484.704 147.123 484.943 142.488C485.114 139.29 484.858 136.074 484.311 132.842C482.396 135.955 483.353 139.41 482.806 143.139C482.139 144.045 481.216 145.294 480.378 146.439C473.591 144.951 472.377 142.574 471.812 135.459C471.06 125.625 472.754 116.047 473.438 106.366C474.378 92.7007 475.198 79.0351 476.344 65.3867C476.84 59.6229 478.07 53.9101 479.027 47.7529C483.045 46.0084 486.926 44.349 490.756 42.6387C493.03 41.6125 495.457 40.7574 497.475 39.3379C502.176 36.0369 503.014 31.5049 500.21 26.5449C499.218 24.7833 498.193 23.0383 496.928 20.8662C494.443 18.9963 493.07 17.0979 492.808 15.1709C494.38 14.692 495.988 14.1787 498.073 13.5459C498.62 12.0409 499.475 10.3479 499.817 8.56934C500.399 5.55915 502.125 3.89956 504.963 3.0957C510.331 1.57354 515.528 1.8816 520.315 4.22461C524.829 7.71359 521.752 13.2039 524.265 17.2402C525.855 17.6336 527.462 18.0446 529.394 18.5234C527.735 21.8239 524.18 21.2256 521.684 23.5C520.812 26.8864 519.786 30.8203 518.623 35.3184C524.385 41.0651 532.728 40.279 539.942 43.1182C542.712 47.89 544.165 53.2949 545.105 58.8877C546.576 67.5761 548.2 76.2306 549.619 84.9189C550.799 92.2049 551.534 99.5764 552.919 106.828C554.218 113.652 554.407 120.528 554.766 127.403C554.851 129.062 555.689 130.687 556.458 133.185C556.133 134.946 555.432 137.529 555.227 140.146C555.039 142.608 555.039 145.157 555.518 147.568C556.8 154.033 558.424 160.447 559.843 166.895C560.082 167.972 559.877 169.136 559.877 170.709C557.244 169.443 557.278 167.408 556.766 165.698C555.159 160.276 553.688 154.803 551.995 149.398C551.397 147.483 550.354 145.721 549.089 142.968C549.003 142.267 548.781 140.556 548.576 138.828C546.73 136.263 542.935 134.399 545.687 130.414C544.592 129.456 543.789 128.754 542.935 128.002C541.191 120.613 539.618 113.173 536.421 106.161C535.464 110.676 535.959 115.123 536.455 119.536C537.669 130.003 539.036 140.454 540.25 150.921C540.934 156.89 540.421 162.808 539.088 168.264C536.558 169.752 534.437 170.983 532.146 172.334C533.942 178.508 532.403 183.759 529.787 189.01C526.573 195.475 523.855 202.197 520.966 208.747C522.077 216.255 522.265 223.524 517.7 230.554C518.863 232.401 520.162 234.47 521.615 236.779C522.726 235.274 523.804 233.855 524.915 232.367C526.659 232.897 528.129 233.341 529.685 233.82C530.026 235.103 530.351 236.301 530.778 237.874C533.377 236.694 535.822 235.582 538.558 234.351C539.259 235.12 540.147 236.078 541.601 237.635V231.7C543.618 230.332 545.071 229.374 546.627 228.313C546.764 229.288 546.952 230.571 547.123 231.837C547.414 232.042 547.721 232.247 548.012 232.436C548.644 231.461 549.277 230.485 550.234 229.031V236.488C551.653 235.53 552.543 234.915 553.894 233.991C556.988 233.906 559.262 232.075 559.895 228.569C560.39 225.816 560.766 223.028 561.792 220.172C561.946 220.907 562.305 221.677 562.22 222.378C561.861 225.183 561.313 227.954 560.92 230.759C560.578 233.239 561.228 235.326 563.57 237.036C565.502 234.796 565.177 232.52 564.835 230.023C565.536 229.356 566.374 228.519 567.314 227.612C569.827 229.219 570.956 225.971 573.041 226.192C573.947 223.439 574.717 221.079 575.469 218.719C575.691 218.736 575.914 218.753 576.136 218.787C576.512 223.867 576.871 228.946 577.315 234.949C578.803 233.342 579.555 232.52 580.547 231.46C581.077 232.794 581.453 233.769 581.897 234.915C582.376 234.522 582.923 234.316 582.975 233.991C583.248 232.606 583.402 231.203 583.658 229.356C584.393 230.383 584.941 231.153 585.744 232.299C586.513 230.999 587.094 230.023 588.052 228.433C588.53 230.023 588.821 230.982 589.061 231.803C591.232 232.812 593.301 233.77 595.729 234.898C596.327 234.556 597.25 234.025 598.361 233.393C599.148 233.94 600.02 234.522 600.823 235.086C602.396 234.949 602.995 232.315 605.166 233.854C605.713 232.948 606.26 232.076 606.909 230.999C608.294 230.76 609.816 230.485 611.525 230.194C611.901 226.996 612.158 223.867 611.304 220.515C610.62 217.864 611.166 214.904 611.525 211.979C611.884 214.237 612.244 216.512 612.654 218.992H617.476C617.688 214.577 617.9 210.265 618.112 205.968C618.539 213.021 618.953 220.083 619.476 227.133C619.698 230.245 620.347 233.324 623.065 235.753C624.143 235 625.118 234.334 626.144 233.633C627.272 234.009 628.417 234.385 630.144 234.949C630.691 232.367 631.187 230.075 631.443 228.878C631.563 229.101 632.213 230.333 633.256 232.299C634.983 229.699 636.162 227.903 637.461 225.953C638.435 228.04 639.376 230.04 640.316 232.024C640.727 231.973 641.137 231.922 641.547 231.871C641.991 229.562 642.436 227.253 642.778 225.457C643.445 226.74 642.95 229.254 645.839 230.503C646.642 229.049 647.343 227.8 648.317 226.073C648.899 228.314 649.377 230.178 649.839 232.042C650.129 232.076 650.42 232.11 650.711 232.161C651.07 230.383 651.446 228.621 651.941 226.192C652.608 228.022 653.071 229.288 653.669 230.93C654.849 231.203 656.148 231.495 657.498 231.803C658.353 230.588 659.037 229.613 659.823 228.501C661.379 229.698 662.73 230.725 664.132 231.803C665.482 231.358 666.782 230.93 668.081 230.52C668.167 231.512 668.252 232.521 668.354 233.513C669.192 232.863 669.329 232.264 669.158 231.785C668.97 231.289 668.491 230.913 668.132 230.485C668.286 229.442 668.44 228.399 668.714 226.518C669.842 228.296 670.543 229.408 671.449 230.811C672.304 229.887 672.988 229.168 673.809 228.296C674.578 229.647 675.244 230.844 675.911 232.024C677.364 231.648 678.681 231.306 680.441 230.845C679.911 228.673 679.365 226.483 678.767 224.089C679.912 225.029 680.835 225.816 681.792 226.586C682.476 226.295 683.041 226.073 683.896 225.714C685.4 227.065 686.99 228.519 689.007 230.349C689.913 229.476 690.819 228.604 691.708 227.731C691.93 228.005 692.478 228.69 693.401 229.836C696.462 223.354 693.897 217.094 694.82 210.868C696.308 216.888 697.795 222.926 699.282 228.946C699.522 228.946 699.744 228.929 699.983 228.912C700.24 227.51 700.496 226.09 700.838 224.243C701.915 224.979 702.736 225.543 703.642 226.176C704.001 225.338 704.377 224.533 704.702 223.764C707.472 224.14 710.122 224.517 713.438 224.979C713.148 222.858 712.942 221.267 712.669 219.266C711.848 219.933 711.524 220.206 711.079 220.565V206.644H711.267V213.639C712.292 214.938 713.25 216.135 714.207 217.35C716.874 216.614 716.293 214.408 716.908 212.321C718.396 217.23 719.781 221.78 721.183 226.363C722.636 226.449 723.508 226.5 724.653 226.586C724.841 224.38 725.029 222.396 725.2 220.429C725.388 220.395 725.56 220.36 725.748 220.326C726.193 222.105 726.619 223.867 727.115 225.816C728.876 227.971 730.774 230.263 732.757 232.675C733.68 232.316 734.655 231.939 735.646 231.546C735.988 230.451 736.296 229.442 736.638 228.364C737.663 228.467 738.553 228.553 739.151 228.604C740.245 230.007 741.152 231.375 742.314 232.504C742.537 232.725 743.733 231.922 744.52 231.58C745.317 232.754 746.629 233.558 748.452 233.991C749.871 231.768 748.759 229.476 748.571 227.219C748.383 225.03 748.076 222.858 748.179 220.583C748.897 222.327 749.58 224.089 750.332 225.816C751.153 227.715 752.607 228.758 754.932 228.844C755.342 227.937 755.752 226.997 756.128 226.142C757.188 228.04 758.282 229.973 759.77 232.606C762.796 226.791 761.479 222.687 757.923 218.753C758.829 219.215 759.736 219.693 760.744 220.206C761.394 219.693 762.043 219.18 762.812 218.564C764.71 221.438 765.172 225.149 769.019 226.432C770.113 222.977 766.113 221.13 766.267 217.59C770.045 220.224 770.062 225.029 773.413 227.988C773.755 227.167 774.011 226.671 774.182 226.158C774.353 225.645 774.455 225.132 774.746 223.952C776.37 226.261 777.55 227.954 778.747 229.647C778.969 229.562 779.192 229.46 779.414 229.374C779.363 228.211 779.293 227.047 779.208 225.371C780.952 227.526 782.422 229.339 784.166 231.494C785.038 230.485 785.517 229.938 786.081 229.271C786.115 229.271 786.44 229.203 786.594 229.322C789.551 231.751 789.74 231.716 791.125 228.467C793.006 229.168 794.869 229.87 796.903 230.64C797.638 229.802 798.219 229.117 799.006 228.193C800.459 230.827 803.281 230.862 805.726 231.58C808.734 228.878 808.837 228.347 807.35 224.482C808.204 224.192 809.076 223.884 810.102 223.524C810.751 224.448 811.778 225.902 813.248 227.972C815.761 223.747 817.915 220.087 820.548 215.64C819.026 210.03 817.334 203.718 815.692 197.612C816.086 195.475 816.461 193.423 816.786 191.593C819.351 194.192 821.984 200.11 824.36 209.226C825.437 207.704 826.224 206.575 826.993 205.48C826.446 203.052 825.967 200.913 825.454 198.639C826.241 198.143 827.113 197.595 828.31 196.843C828.84 198.861 829.301 200.64 829.797 202.419C830.258 204.01 830.789 205.583 831.473 207.772C832.857 206.302 833.764 205.326 834.602 204.437C834.846 199.944 835.082 195.591 835.321 191.268C835.332 191.353 835.341 191.438 835.354 191.523C836.379 198.792 837.456 206.045 838.602 213.946C839.593 212.852 840.226 212.15 841.303 210.953C841.422 212.698 841.491 214.015 841.61 215.314C841.747 216.717 842.021 218.102 842.038 219.505C842.038 220.839 841.798 222.173 841.645 223.798C842.345 224.448 843.27 225.303 844.312 223.61C844.466 225.714 844.62 227.852 844.773 229.989L846.005 230.178C846.877 227.8 847.731 225.423 848.757 222.618C849.184 224.876 849.544 226.757 849.954 228.895C850.843 228.826 851.561 228.793 852.245 228.741C853.493 230.007 854.741 231.255 856.741 233.273C858.639 226.654 858.69 220.736 859.647 215.007C860.605 209.312 861.425 203.599 862.212 198.52C862.417 201.17 862.656 204.437 862.896 207.687C863.255 207.704 863.614 207.721 863.956 207.738C866.589 203.257 864.162 197.921 865.632 192.893C867.324 193.867 866.828 195.098 866.691 196.21C866.555 197.459 866.315 198.708 866.315 199.956C866.315 201.136 866.589 202.316 866.794 203.872C868.64 201.272 870.743 192.088 870.948 186.581C871.666 187.334 872.384 188.086 873.103 188.839V195.458C871.425 195.898 871.331 196.896 872.021 198.144C870.581 197.788 870.295 198.791 870.213 199.938C870.042 202.128 869.991 204.335 869.752 206.507C869.273 211.039 868.658 215.537 868.196 220.069C868.128 220.77 868.589 221.54 868.794 222.275C870.35 219.385 870.983 216.529 871.752 213.689C871.974 212.903 872.641 212.253 873.103 211.535V289.048H873V514.048Z" fill="#270F11"/>
</svg>
