<svg width="256" height="136" viewBox="0 0 256 136" fill="none" xmlns="http://www.w3.org/2000/svg">
<path fill-rule="evenodd" clip-rule="evenodd" d="M126.021 0.537925C126.679 0.521212 129.32 0.521213 129.979 0.537925C153.87 0.806278 176.756 5.92355 198.03 15.7862C218.871 25.4479 237.482 39.5967 251.849 56.7022C257.384 63.2917 257.384 72.4949 251.849 79.0853C237.48 96.1911 218.871 110.34 198.03 120.001C176.756 129.864 153.869 134.981 129.979 135.25C129.32 135.266 126.679 135.266 126.021 135.25C102.129 134.981 79.2429 129.864 57.9689 120.001C37.1285 110.34 18.5187 96.1907 4.15124 79.0853C-1.3405 72.5474 -1.38342 63.4351 4.02255 56.857L4.15124 56.7022C18.5192 39.5962 37.1285 25.4479 57.9689 15.7862C79.2429 5.92355 102.13 0.806752 126.021 0.537925ZM158.411 10.0838C175.768 18.1015 189.131 32.7721 194.42 50.7154H187.34C179.486 27.3685 156.058 10.3463 128.402 10.183L128 10.1819C100.169 10.1819 76.5519 27.2556 68.6593 50.7154H61.5806C66.8686 32.7721 80.2329 18.1015 97.5888 10.0838C84.8772 12.4924 72.5804 16.4379 60.8026 21.8982C40.8323 31.1565 23.0243 44.707 9.30984 61.035L9.30968 61.0351C5.87918 65.1193 5.8792 70.6682 9.30968 74.7524L9.30984 74.7526C23.0238 91.0799 40.8323 104.631 60.8026 113.889C72.5818 119.35 84.8801 123.296 97.5932 125.705C80.3081 117.721 66.9815 103.139 61.6477 85.2964H68.7356C76.6652 108.527 100.031 125.441 127.599 125.604L128 125.605C155.742 125.605 179.298 108.64 187.265 85.2964H194.352C189.019 103.138 175.692 117.72 158.408 125.704C171.12 123.295 183.418 119.35 195.197 113.889L195.665 113.672C215.29 104.492 232.805 91.1647 246.368 75.1348L246.689 74.7526C250.121 70.6673 250.121 65.119 246.691 61.0351L246.689 61.035C233.084 44.8352 215.446 31.3683 195.665 22.116L195.197 21.8982C183.418 16.438 171.122 12.4924 158.411 10.0838Z" fill="#FAFAFA"/>
<path d="M30.3378 57.8516H34.6551V79.3981H30.3378V70.7634H22.5986V79.3981H18.2812V57.8516H22.5986V66.4728H30.3378V57.8516Z" fill="#FAFAFA"/>
<path d="M38.7188 79.3981V57.8516H43.0494V79.3981H38.7188Z" fill="#FAFAFA"/>
<path d="M53.345 57.8516C60.309 57.8381 64.5596 61.9284 64.5596 68.6516C64.5596 75.3348 60.309 79.3982 53.345 79.3982H47.0762V68.6316V57.8649L53.345 57.8516ZM53.3718 75.0808C57.6089 75.0808 60.1887 72.6482 60.1887 68.6382C60.1887 64.6016 57.5956 62.1422 53.3317 62.1422H51.3935V75.0808H53.3718Z" fill="#FAFAFA"/>
<path d="M73.9114 57.8516C80.8754 57.8381 85.1258 61.9284 85.1258 68.6516C85.1258 75.3348 80.8754 79.3982 73.9114 79.3982H67.6426V57.8649L73.9114 57.8516ZM73.9382 75.0808C78.1753 75.0808 80.755 72.6482 80.755 68.6382C80.755 64.6016 78.162 62.1422 73.8981 62.1422H71.9599V75.0808H73.9382Z" fill="#FAFAFA"/>
<path d="M101.211 62.1154H92.5494V66.3258H99.9812V70.6431H92.5494V75.0942H101.211V79.3981H88.2188V57.8516H101.211V62.1154Z" fill="#FAFAFA"/>
<path d="M117.643 57.787H121.987V79.7881H121.786L108.995 67.344V79.4138H104.664V57.4395H104.878L117.643 69.8569V57.787Z" fill="#FAFAFA"/>
<path d="M155.201 57.3086H155.442V79.3898H151.111V70.0066L144.909 79.0289H144.882L138.667 70.0066V79.3898H134.336V57.3086H134.577L144.895 71.5438L155.201 57.3086Z" fill="#FAFAFA"/>
<path d="M169.035 79.8083C162.887 79.8083 157.848 74.7825 157.848 68.6474C157.848 62.4588 162.887 57.4062 169.048 57.4062C175.21 57.4062 180.263 62.4588 180.263 68.6474C180.263 74.7825 175.21 79.8083 169.035 79.8083ZM169.035 75.4241C172.804 75.4241 175.879 72.3631 175.879 68.6206C175.879 64.8512 172.804 61.7771 169.035 61.7771C165.28 61.7771 162.219 64.8512 162.219 68.6206C162.219 72.3631 165.28 75.4241 169.035 75.4241Z" fill="#FAFAFA"/>
<path d="M194.756 57.8516H199.394L189.316 79.9328H189.155L179.117 57.8516H183.702L189.223 70.3625L194.756 57.8516Z" fill="#FAFAFA"/>
<path d="M201.141 79.3981V57.8516H205.471V79.3981H201.141Z" fill="#FAFAFA"/>
<path d="M221.785 62.1154H213.124V66.3258H220.556V70.6431H213.124V75.0942H221.785V79.3981H208.793V57.8516H221.785V62.1154Z" fill="#FAFAFA"/>
<path d="M231.035 79.8254C227.507 79.8254 224.901 78.3551 223.457 75.6817L226.92 73.249C227.868 74.7729 229.245 75.4679 231.103 75.4679C233.134 75.4679 234.498 74.6391 234.498 73.4896C234.498 71.9124 231.918 70.6694 229.658 69.5466C227.24 68.3435 224.579 67.0204 224.579 63.5851C224.579 59.8559 227.735 57.3965 231.692 57.3965C234.631 57.3965 237.064 58.6128 238.041 61.2194L234.846 63.4515C234.204 62.1684 232.96 61.647 231.757 61.647C230.141 61.647 228.938 62.5828 228.938 63.6921C228.938 64.9754 230.568 65.4165 233.041 66.5793C236.61 68.2635 238.855 70.0812 238.855 73.3961C238.855 77.3258 235.648 79.8254 231.035 79.8254Z" fill="#FAFAFA"/>
<path d="M131.264 68.2006C131.264 69.8701 129.911 71.2234 128.242 71.2234C126.572 71.2234 125.219 69.8701 125.219 68.2006C125.219 66.5311 126.572 65.1777 128.242 65.1777C129.911 65.1777 131.264 66.5311 131.264 68.2006Z" fill="#CC2229"/>
<path d="M155.152 93.0469C155.153 93.0469 155.154 93.0482 155.153 93.0493L145.599 120.012C145.569 120.096 145.501 120.162 145.415 120.187C135.394 123.182 124.536 123.361 114.3 121.203C114.058 121.152 113.997 120.836 114.203 120.697L155.151 93.0472C155.151 93.047 155.151 93.0469 155.152 93.0469Z" fill="#FAFAFA"/>
<path d="M133.051 103.016C133.33 103.016 133.44 103.377 133.208 103.533L109.113 119.69C109.041 119.738 108.951 119.751 108.869 119.724C99.0145 116.503 89.9085 110.981 83.2893 103.479C83.1294 103.298 83.2591 103.016 83.5005 103.016H133.051Z" fill="#FAFAFA"/>
<path d="M175.263 100.497C175.294 100.588 175.278 100.69 175.217 100.766C168.955 108.606 160.332 114.737 150.631 118.495C150.408 118.581 150.188 118.367 150.266 118.141L161.658 85.1875H169.877L175.263 100.497Z" fill="#FAFAFA"/>
<path d="M110.058 99.0726C110.289 99.2284 110.179 99.5894 109.901 99.5894H94.9086H79.9164C79.9144 99.5894 79.9126 99.5884 79.9115 99.5869C76.5694 95.1769 73.8963 90.3088 72.0449 85.1875H89.4307L110.058 99.0726Z" fill="#FAFAFA"/>
<path d="M183.998 85.1875C182.501 89.2543 180.533 93.188 178.297 96.9669C178.297 96.9675 178.295 96.968 178.295 96.968C178.294 96.968 178.294 96.9675 178.292 96.9666L174.086 85.1875H183.998Z" fill="#FAFAFA"/>
<path d="M77.7224 39.1733C77.8831 38.9398 77.7275 38.7446 78.1933 38.8095C78.2927 38.8233 78.3734 38.8955 78.4061 38.9905L82.3975 50.5698H72.0332C73.4571 46.4706 75.3719 42.5603 77.7224 39.1733Z" fill="#FAFAFA"/>
<path d="M105.475 17.3164C105.697 17.2303 105.917 17.4438 105.84 17.6696L94.5641 50.5723H86.2865L80.8426 35.3157C80.8099 35.2238 80.8266 35.1216 80.8875 35.0455C87.1498 27.205 95.7734 21.074 105.475 17.3164Z" fill="#FAFAFA"/>
<path d="M176.169 36.2305C176.172 36.2305 176.174 36.2315 176.174 36.2329C179.505 40.6284 182.172 45.4789 184.023 50.5817H166.58L146.028 36.7472C145.796 36.5915 145.907 36.2305 146.185 36.2305H161.177H176.169Z" fill="#FAFAFA"/>
<path d="M110.701 15.6222C120.931 12.5655 132.033 12.4426 142.455 14.7442C142.455 14.7443 142.455 14.7448 142.455 14.7448L101.672 42.2829C101.446 42.4353 101.157 42.2113 101.248 41.9545L110.516 15.798C110.546 15.7133 110.615 15.6479 110.701 15.6222Z" fill="#FAFAFA"/>
<path d="M146.993 16.1494C147.065 16.1012 147.156 16.0885 147.238 16.1155C157.092 19.3362 166.198 24.8585 172.818 32.3599C172.977 32.5409 172.848 32.8235 172.606 32.8235H147.831H123.056C122.777 32.8235 122.667 32.462 122.899 32.3068L146.993 16.1494Z" fill="#FAFAFA"/>
</svg>
