<?xml version="1.0" standalone="no"?>
<!DOCTYPE svg PUBLIC "-//W3C//DTD SVG 20010904//EN"
 "http://www.w3.org/TR/2001/REC-SVG-20010904/DTD/svg10.dtd">
<svg version="1.0" xmlns="http://www.w3.org/2000/svg"
 width="1280.000000pt" height="640.000000pt" viewBox="0 0 1280.000000 640.000000"
 preserveAspectRatio="xMidYMid meet">
<metadata>
Created by potrace 1.15, written by Peter Selinger 2001-2017
</metadata>
<g transform="translate(0.000000,640.000000) scale(0.100000,-0.100000)"
fill="#000000" stroke="none">
<path d="M10195 4333 c-87 -46 -189 -164 -297 -339 -123 -199 -168 -329 -168
-482 0 -30 -3 -52 -7 -50 -406 180 -838 225 -1447 151 l-138 -17 -59 66 c-109
121 -252 216 -424 280 l-90 33 -205 0 c-162 0 -235 -5 -350 -23 -608 -94
-1456 -338 -1546 -444 -18 -22 -33 -26 -105 -32 -205 -17 -746 -89 -1048 -141
-80 -13 -146 -23 -147 -22 -1 1 -23 76 -49 167 -109 378 -190 567 -284 661
-82 82 -139 96 -227 55 -155 -72 -334 -369 -535 -891 -52 -136 -60 -150 -84
-153 -14 -2 -161 6 -328 17 -1183 80 -1935 115 -2353 110 -211 -3 -275 -7
-287 -18 -25 -20 -21 -30 17 -46 228 -96 1307 -249 2959 -420 236 -25 433 -47
438 -50 15 -10 232 -61 463 -110 721 -152 1537 -256 2391 -305 567 -32 865
-36 1885 -25 747 8 923 20 1160 80 39 10 179 18 471 25 l415 12 229 -154 c336
-225 494 -297 503 -231 5 37 -45 103 -194 252 -79 79 -144 144 -144 146 0 1
111 5 248 9 868 24 1805 78 1902 109 42 14 50 40 17 62 -96 62 -948 119 -2420
161 l-238 7 53 29 c209 114 176 272 -76 360 -45 15 -82 32 -84 38 -2 6 24 54
59 107 97 150 155 268 188 383 101 352 113 596 31 640 -27 14 -60 12 -95 -7z"/>
</g>
</svg>
