<svg width="600" height="96" viewBox="0 0 600 96" fill="none" xmlns="http://www.w3.org/2000/svg">
<path d="M328.561 0.00118371C329.441 0.00506203 329.441 0.00506203 330.339 0.00901871C338.817 0.128007 347.521 1.60661 355.352 4.97448C356.799 5.499 357.937 5.54909 359.472 5.52524C359.951 5.52185 360.43 5.51846 360.923 5.51497C362.413 5.45565 362.413 5.45565 363.871 5.16586C375.239 3.40282 387.271 4.98059 398.076 8.60581C398.548 8.76369 399.021 8.92157 399.508 9.08423C405.074 10.9666 410.564 13.047 416.055 15.1325C417.9 15.8327 419.747 16.5294 421.594 17.225C430.544 20.5953 430.544 20.5953 434.813 22.2174C442.813 25.2541 450.684 28.0159 459.107 29.6272C459.501 29.7111 459.896 29.7949 460.302 29.8813C466.539 31.1967 472.736 31.3549 479.087 31.3699C479.673 31.3728 479.673 31.3728 480.271 31.3758C484.99 31.388 489.527 31.1046 494.205 30.4147C497.759 29.9229 501.339 29.7424 504.918 29.5163C511.236 29.0793 515.321 27.8734 520.763 24.5635C521.892 23.892 523.021 23.2207 524.15 22.5495C524.689 22.2264 525.228 21.9032 525.783 21.5703C528.172 20.1449 530.591 18.7782 533.017 17.418C534.146 16.7724 535.262 16.1039 536.365 15.4164C540.085 13.1478 543.754 11.529 547.876 10.1286C548.35 9.9648 548.824 9.80098 549.312 9.6322C551.797 8.82986 553.773 8.20363 556.331 9.10931C558.584 10.9019 559.533 13.2241 560.694 15.778C560.9 16.2218 561.105 16.6655 561.317 17.1226C561.75 18.0595 562.181 18.9975 562.609 19.9364C563.262 21.366 563.923 22.7918 564.585 24.2172C565.006 25.1305 565.426 26.044 565.846 26.9577C566.042 27.3809 566.238 27.8041 566.44 28.2401C567.514 30.6032 568.366 32.9005 569.012 35.4143C570.158 34.7641 571.303 34.1136 572.448 33.4625C573.446 32.8959 574.444 32.3305 575.443 31.7661C577.96 30.3402 580.461 28.8977 582.932 27.3934C583.374 27.1274 583.817 26.8614 584.273 26.5874C585.109 26.0831 585.941 25.5716 586.768 25.052C589.461 23.4417 591.231 22.9841 594.375 23.314C596.105 24.0477 597.202 24.5833 597.937 26.372C598.239 27.6275 598.423 28.8749 598.602 30.1533C598.747 30.839 598.747 30.839 598.895 31.5385C601.15 43.0702 600.172 54.7256 593.935 64.8143C591.011 69.0009 587.371 72.8399 583.279 75.9241C582.93 75.9241 582.581 75.9241 582.222 75.9241C582.222 76.2713 582.222 76.6186 582.222 76.9763C574.704 77.365 567.192 77.637 559.666 77.7983C558.915 77.8153 558.915 77.8153 558.148 77.8326C551.409 77.9844 544.675 78.0867 537.935 78.0091C537.19 78.0024 537.19 78.0024 536.429 77.9956C535.796 77.9865 535.796 77.9865 535.15 77.9771C534.093 77.9633 534.093 77.9633 533.081 78.5546C532.313 78.6265 531.541 78.6681 530.769 78.6942C530.04 78.7207 530.04 78.7207 529.296 78.7478C528.76 78.7647 528.225 78.7817 527.673 78.7992C527.11 78.8189 526.547 78.8387 525.967 78.859C524.093 78.9243 522.219 78.986 520.344 79.0478C519.036 79.0928 517.728 79.1379 516.42 79.1833C513.313 79.2907 510.206 79.3959 507.1 79.5C501.913 79.674 496.727 79.8522 491.54 80.0303C488.969 80.1186 486.398 80.2058 483.827 80.2921C477.596 80.5026 471.368 80.7316 465.141 81.0203C461.652 81.1792 458.174 81.237 454.681 81.1851C450.726 81.1276 450.726 81.1276 446.787 81.4379C443.58 81.8352 440.373 81.8495 437.146 81.8756C436.532 81.8909 435.919 81.9061 435.287 81.9219C430.683 81.9547 426.587 81.1451 422.194 79.9175C420.207 79.3716 418.206 78.8816 416.206 78.384C415.383 78.1777 414.561 77.9712 413.738 77.7644C413.33 77.662 412.922 77.5595 412.501 77.454C411.661 77.243 410.822 77.0313 409.982 76.819C408.744 76.5059 407.505 76.1953 406.266 75.8851C405.71 75.7437 405.71 75.7437 405.143 75.5994C393.826 72.7814 384.401 74.6374 374.366 80.1329C367.5 83.8779 360.404 86.062 352.545 86.0824C351.585 86.0956 350.624 86.109 349.664 86.1225C348.18 86.1375 346.696 86.1502 345.213 86.1601C334.903 86.2421 323.645 87.2641 315.842 94.9179C313.848 96.2319 312.312 96.0711 310.03 95.8522C309.597 95.8201 309.164 95.7879 308.717 95.7548C307.758 95.6823 306.799 95.6045 305.841 95.5223C304.219 95.3839 302.597 95.2608 300.974 95.1409C296.726 94.8248 292.478 94.4968 288.231 94.1556C286.397 94.0089 284.562 93.8678 282.727 93.7273C282.192 93.6829 281.657 93.6385 281.105 93.5928C270.688 92.8099 260.153 93.326 249.719 93.4806C248.193 93.5031 246.667 93.5251 245.142 93.5471C241.521 93.5994 237.901 93.6525 234.281 93.7061C231.015 93.7544 227.75 93.8019 224.485 93.8484C201.638 94.1692 201.638 94.1692 178.794 94.6837C169.406 94.935 160.016 95.0521 150.626 95.1597C149.944 95.1675 149.944 95.1675 149.248 95.1755C145.114 95.2225 140.979 95.2684 136.845 95.3107C132.427 95.356 128.01 95.4073 123.593 95.4731C121.495 95.5024 119.397 95.5231 117.298 95.5404C116.399 95.5494 115.5 95.562 114.601 95.5788C101.102 95.8241 91.5956 90.0917 80.94 82.4099C80.6335 82.1918 80.327 81.9737 80.0112 81.749C79.1834 81.159 78.3608 80.562 77.5385 79.9644C75.8337 78.97 74.8319 78.5719 72.8532 78.5546C71.4 79.0485 70.0982 79.7543 68.7581 80.4946C68.0026 80.8884 67.2465 81.2809 66.4898 81.6722C66.1278 81.8618 65.7659 82.0514 65.393 82.2468C54.1269 88.1015 37.6048 87.5055 25.6061 83.9649C16.4223 81.0703 8.00346 76.6099 3.23769 67.8476C-0.377697 60.2207 -0.992545 50.6975 1.53074 42.5825C1.7017 42.1267 1.87266 41.671 2.04881 41.2015C2.24701 40.6698 2.44522 40.1381 2.64944 39.5903C6.21925 30.6203 10.3106 25.6893 19.0708 21.6525C23.7509 19.4552 26.9897 16.1101 30.3177 12.233C35.0688 6.81606 35.0688 6.81606 37.5088 6.1952C39.8326 6.09952 41.4744 6.62227 43.2633 8.0571C45.1593 10.1218 46.5684 12.5113 48.0188 14.8964C50.6505 14.4314 53.1751 13.9309 55.6805 12.9893C59.2976 11.7614 62.5154 11.7325 66.0501 13.2523C69.8341 15.3402 72.0924 18.8016 74.2072 22.4591C75.4877 24.5517 76.8447 25.7004 79.1938 26.4706C82.073 27.15 84.1285 26.5331 86.6574 25.0896C87.5094 24.557 88.3608 24.0231 89.2059 23.4797C96.2143 19.0076 103.299 14.6238 110.897 11.2137C111.514 10.9357 112.131 10.6576 112.767 10.3711C120.629 7.04557 130.589 3.465 139.232 3.81542C140.002 3.84323 140.773 3.85935 141.544 3.8483C141.718 3.67468 141.893 3.50107 142.072 3.3222C142.812 3.26459 143.555 3.24376 144.297 3.23742C144.786 3.23244 145.274 3.22745 145.777 3.22231C146.326 3.22001 146.875 3.2177 147.441 3.21533C148.03 3.21174 148.619 3.20814 149.226 3.20444C151.256 3.19515 153.285 3.19208 155.315 3.19067C155.843 3.18986 155.843 3.18986 156.382 3.18903C173.194 3.16486 189.996 3.61925 206.8 4.07847C207.453 4.09623 208.106 4.114 208.779 4.13231C213.211 4.25319 217.642 4.37737 222.074 4.50387C222.643 4.51995 223.212 4.53604 223.798 4.55261C230.323 4.73829 236.845 4.95731 243.366 5.24869C248.921 5.49249 254.475 5.5772 260.036 5.59101C260.581 5.59238 261.126 5.59376 261.687 5.59518C270.766 5.59761 279.601 4.97247 288.592 3.77551C293.404 3.13995 298.236 2.68165 303.066 2.20423C304.72 2.03968 306.373 1.87376 308.026 1.7069C308.617 1.64775 308.617 1.64775 309.22 1.58741C311.573 1.34856 313.919 1.07626 316.265 0.782604C320.37 0.273037 324.421 -0.021123 328.561 0.00118371Z" fill="#020202"/>
</svg>
