<svg width="432" height="579" viewBox="0 0 432 579" fill="none" xmlns="http://www.w3.org/2000/svg">
<path d="M215.312 0.31844C216.562 0.281057 217.812 0.243674 219.1 0.205158C220.3 0.193557 221.501 0.181955 222.738 0.170002C223.842 0.150183 224.946 0.130364 226.083 0.109944C229 0.69344 229 0.69344 231.266 2.85115C235.468 9.7405 235.267 16.0086 235.195 23.8731C235.192 25.041 235.19 26.2089 235.187 27.4122C235.176 31.1311 235.15 34.8497 235.125 38.5684C235.115 41.0945 235.106 43.6205 235.098 46.1466C235.076 52.3289 235.042 58.5112 235 64.6934C236.596 64.9084 236.596 64.9084 238.224 65.1278C242.62 65.7863 246.783 66.8318 251.062 68.0059C251.839 68.2064 252.616 68.4068 253.416 68.6134C259.49 70.2745 264.383 72.2675 268 77.6934C268.241 79.7246 268.241 79.7246 268.227 82.0731C268.227 82.9538 268.227 83.8345 268.227 84.7418C268.216 85.6888 268.206 86.6358 268.195 87.6114C268.191 89.07 268.191 89.07 268.187 90.558C268.176 93.6658 268.15 96.7733 268.125 99.8809C268.115 101.987 268.106 104.093 268.098 106.199C268.076 111.364 268.041 116.529 268 121.693C268.604 121.818 269.209 121.943 269.831 122.071C273.04 122.992 275.104 124.981 277.688 127.068C282.655 130.915 286.921 133.198 293 134.693C313.119 139.872 313.119 139.872 319 148.693C319.278 150.876 319.278 150.876 319.319 153.44C319.349 154.881 319.349 154.881 319.379 156.352C319.396 157.903 319.396 157.903 319.414 159.486C319.443 161.078 319.443 161.078 319.473 162.702C319.533 166.095 319.579 169.488 319.625 172.881C319.663 175.18 319.702 177.479 319.742 179.777C319.838 185.416 319.923 191.055 320 196.693C321.738 197.189 323.477 197.679 325.218 198.166C326.186 198.44 327.155 198.713 328.152 198.995C332.079 199.958 335.785 200.187 339.812 200.131C340.577 200.126 341.341 200.122 342.128 200.117C349.529 199.927 356.023 198.17 363 195.693C365 195.025 366.999 194.358 369 193.693C374.501 198.271 379.173 202.911 383.441 208.658C385.415 211.235 387.677 213.433 390 215.693C394 220.234 394 220.234 394 223.693C394.66 223.693 395.32 223.693 396 223.693C397.638 225.766 399.143 227.826 400.625 230.006C401.045 230.601 401.465 231.196 401.898 231.809C405 236.315 405 236.315 405 239.693C405.66 239.693 406.32 239.693 407 239.693C429.628 281.153 429.628 281.153 432 302.693C430.577 303.374 430.577 303.374 429.125 304.068C415.697 311.804 408.566 325.442 404 339.693C403.332 342.397 403.071 344.913 403 347.693C402.961 348.68 402.923 349.666 402.883 350.682C402.502 368.698 408.199 385.525 420.352 399.092C423.803 402.445 427.686 405.536 432 407.693C429.326 420.288 425.035 431.862 420 443.693C419.578 444.711 419.157 445.728 418.723 446.775C413.607 458.627 406.891 469.922 400 480.818C399.626 481.416 399.253 482.014 398.868 482.63C397.968 484.023 396.991 485.365 396 486.693C395.34 486.693 394.68 486.693 394 486.693C393.725 487.276 393.451 487.859 393.168 488.459C389.282 495.892 383.007 502.118 377.438 508.318C376.482 509.422 376.482 509.422 375.507 510.548C373.752 512.465 372.106 514.169 370 515.693C365.857 515.811 362.767 514.233 359 512.631C352.927 510.546 347.232 510.282 340.875 510.256C339.957 510.246 339.039 510.236 338.094 510.226C331.622 510.306 326.083 511.527 320 513.693C319.002 514.044 318.005 514.395 316.977 514.756C316.201 515.065 315.425 515.375 314.625 515.693C313.834 516.003 313.042 516.312 312.227 516.631C309.922 517.641 309.922 517.641 307.836 519.318C306 520.693 306 520.693 304 520.693C304 521.353 304 522.013 304 522.693C302.496 523.885 302.496 523.885 300.438 525.256C293.898 529.998 289.216 536.315 286 543.693C285.34 543.693 284.68 543.693 284 543.693C283.897 544.642 283.794 545.591 283.688 546.568C283.123 550.609 281.917 554.364 280.699 558.248C279.799 561.396 279.353 564.442 279 567.693C246.352 581.147 201.936 581.131 168 572.693C167.204 572.501 166.409 572.309 165.589 572.111C161.359 571.076 157.17 569.95 153 568.693C152.83 567.654 152.66 566.615 152.484 565.545C149.702 549.235 144.6 535.099 131 524.693C130.234 524.036 129.469 523.379 128.68 522.701C114.505 511.214 97.727 508.975 80 510.693C75.3288 511.478 71.0974 512.487 66.9766 514.857C65 515.693 65 515.693 63.0156 515.565C60.3544 514.414 58.771 512.826 56.75 510.756C55.6904 509.691 55.6904 509.691 54.6094 508.604C53 506.693 53 506.693 53 504.693C52.4264 504.463 51.8527 504.232 51.2617 503.994C35.1752 494.742 22.0133 465.544 14.25 449.131C13.9148 448.423 13.5795 447.715 13.2341 446.985C11.8926 444.049 11 441.96 11 438.693C10.34 438.693 9.68 438.693 9 438.693C5.41489 428.467 2.48041 418.239 0 407.693C3.75 404.693 3.75 404.693 6 404.693C6 404.033 6 403.373 6 402.693C7.14577 401.646 8.34394 400.655 9.5625 399.693C21.0858 389.883 28.1114 374.703 29.3203 359.725C29.5551 350.923 28.5163 342.358 27 333.693C26.34 333.693 25.68 333.693 25 333.693C24.7319 332.943 24.4638 332.193 24.1875 331.42C19.6772 319.64 11.8257 308.135 0 302.693C1.03839 293.072 4.54548 284.576 8.17773 275.704C9.1813 273.25 10.1529 270.785 11.125 268.318C11.4331 267.562 11.7412 266.805 12.0586 266.025C12.7376 264.343 13.3937 262.652 14.0352 260.955C23.9534 235.571 42.7164 212.583 62 193.693C66.6572 194.982 71.2258 196.42 75.7891 198.01C80.5115 199.47 84.9342 199.88 89.875 199.943C91.048 199.969 92.2211 199.995 93.4297 200.022C100.03 199.81 106.563 198.085 113 196.693C112.99 195.827 112.99 195.827 112.98 194.943C112.913 188.924 112.868 182.906 112.835 176.888C112.82 174.642 112.8 172.397 112.774 170.151C112.737 166.922 112.72 163.693 112.707 160.463C112.692 159.461 112.676 158.458 112.66 157.426C112.658 148.738 112.658 148.738 116 144.693C122.701 137.992 130.586 135.85 139.75 134.256C145.715 133.172 148.864 132.065 153 127.693C153.66 127.693 154.32 127.693 155 127.693C155 127.033 155 126.373 155 125.693C160.294 121.693 160.294 121.693 164 121.693C163.989 121.141 163.978 120.588 163.966 120.019C163.856 114.26 163.78 108.502 163.725 102.742C163.7 100.593 163.666 98.445 163.623 96.2967C163.562 93.2061 163.534 90.1166 163.512 87.0255C163.486 86.067 163.46 85.1084 163.434 84.1209C163.432 79.5189 163.457 77.4033 166.324 73.6524C171.715 69.7056 177.733 68.0587 184.125 66.5059C184.815 66.3287 185.504 66.1515 186.215 65.9688C189.906 65.0548 193.211 64.613 197 64.6934C196.991 64.0222 196.982 63.3509 196.973 62.6593C196.884 55.651 196.824 48.643 196.78 41.6344C196.76 39.0213 196.733 36.4084 196.698 33.7955C196.65 30.0322 196.627 26.2695 196.609 22.5059C196.589 21.3442 196.568 20.1824 196.547 18.9854C196.545 12.0619 197.311 7.59697 201 1.69344C203.724 -1.03021 211.651 0.359605 215.312 0.31844Z" fill="#0B0A08"/>
<path d="M256.45 156.242C268.236 165.548 279.239 179.821 281.79 195.043C283.325 214.338 281.135 233.798 268.751 249.507C267.198 251.264 265.615 252.994 264.001 254.695C263.263 255.486 262.524 256.278 261.763 257.093C248.534 270.122 231.692 274.996 213.605 275.01C194.132 274.739 179.81 266.66 166.346 253.09C160.525 247.05 157.075 240.466 154.001 232.695C153.408 231.264 153.408 231.264 152.802 229.804C147.492 215.273 148.115 196.843 154.545 182.8C162.957 165.414 175.973 152.918 194.001 145.695C215.681 138.78 238.32 142.551 256.45 156.242Z" fill="#0B0B09"/>
<path d="M241.998 123.695C243.783 124.22 243.783 124.22 245.604 124.757C266.409 131.407 284.163 147.194 294.748 166.132C301.743 179.708 305.537 193.398 305.373 208.695C305.385 209.78 305.397 210.865 305.409 211.984C305.325 235.459 293.764 256.508 277.936 273.195C259.911 290.801 236.341 298.406 211.501 298.161C191.885 297.605 172.561 289.996 157.998 276.695C157.405 276.241 156.813 275.787 156.202 275.32C141.413 263.923 132.124 244.927 128.655 227.011C128.178 223.833 128.178 223.833 126.998 221.695C124.849 195.746 130.366 172.947 146.67 152.429C170.433 124.519 206.682 112.358 241.998 123.695ZM166.53 164.327C153.058 180.09 148.883 196.758 149.768 217.11C151.355 234.879 162.135 250.238 175.315 261.593C190.796 273.716 207.828 276.395 226.998 274.695C245.644 271.573 260.685 260.331 271.717 245.363C281.397 230.472 283.942 211.955 281.573 194.57C277.148 176.329 265.384 161.217 249.522 151.53C221.975 135.463 188.277 141.135 166.53 164.327Z" fill="#F9F9F7"/>
<path d="M256.45 156.242C268.236 165.548 279.239 179.821 281.79 195.043C283.325 214.338 281.135 233.798 268.751 249.507C267.198 251.264 265.615 252.994 264.001 254.695C263.263 255.486 262.524 256.278 261.763 257.093C248.534 270.122 231.692 274.996 213.605 275.01C194.132 274.739 179.81 266.66 166.346 253.09C160.525 247.05 157.075 240.466 154.001 232.695C153.408 231.264 153.408 231.264 152.802 229.804C147.492 215.273 148.115 196.843 154.545 182.8C162.957 165.414 175.973 152.918 194.001 145.695C215.681 138.78 238.32 142.551 256.45 156.242ZM177.622 174.714C168.134 186.306 164.058 199.337 164.552 214.316C166.212 226.8 173.614 240.718 183.501 248.632C195.725 257.458 208.992 261.711 224.001 259.695C237.699 256.5 250.925 248.989 258.728 237.054C264.098 227.584 266.572 219.282 266.501 208.382C266.493 206.858 266.493 206.858 266.484 205.304C266.299 197.542 265.138 191.381 261.001 184.695C260.205 183.365 260.205 183.365 259.392 182.007C252.524 171.423 242.252 163.142 230.001 159.695C210.578 155.628 191.415 159.731 177.622 174.714Z" fill="#10100E"/>
<path d="M242.91 160.304C245.402 161.983 247.697 163.766 250 165.695C251.168 166.605 251.168 166.605 252.359 167.534C262.146 175.564 269.926 188.086 271.224 200.914C272.049 217.666 269.99 230.716 258.73 243.816C258.159 244.436 257.588 245.056 257 245.695C256.48 246.304 255.961 246.914 255.426 247.542C247.714 256.039 235.366 262.94 223.83 263.869C203.879 264.71 190.194 260.195 175.25 246.57C164.59 235.49 160.492 220.409 160.575 205.399C160.787 198.65 162.183 192.857 165 186.695C165.35 185.91 165.701 185.125 166.062 184.316C170.739 174.979 178.322 167.378 187 161.695C187.562 161.317 188.124 160.939 188.703 160.55C193.472 157.575 198.595 156.116 204 154.695C204.914 154.418 204.914 154.418 205.847 154.136C218.449 151.552 231.757 154.136 242.91 160.304ZM177.621 174.714C168.133 186.305 164.056 199.336 164.551 214.316C166.21 226.8 173.612 240.718 183.5 248.632C195.724 257.458 208.99 261.71 224 259.695C237.698 256.5 250.923 248.988 258.726 237.054C264.096 227.584 266.571 219.282 266.5 208.382C266.491 206.858 266.491 206.858 266.482 205.303C266.298 197.541 265.137 191.381 261 184.695C260.203 183.364 260.203 183.364 259.39 182.007C252.523 171.423 242.251 163.142 230 159.695C210.577 155.628 191.414 159.73 177.621 174.714Z" fill="#E8E8E6"/>
<path d="M255.309 454.47C265.368 462.782 273.112 475.649 275 488.697C276.443 506.544 273.219 521.978 261.969 536.279C252.639 547.234 238.632 556.56 223.856 557.889C207.798 558.449 193.962 557.239 181 546.697C180.169 546.026 179.337 545.356 178.481 544.665C166.774 534.696 158.338 521.069 156.779 505.488C155.898 488.079 159.659 473.014 171.188 459.509C194.925 434.46 228.565 433.926 255.309 454.47Z" fill="#DB3D37"/>
<path d="M255.309 454.47C265.368 462.782 273.112 475.649 275 488.697C276.443 506.544 273.219 521.978 261.969 536.279C252.639 547.234 238.632 556.56 223.856 557.889C207.798 558.449 193.962 557.239 181 546.697C180.169 546.026 179.337 545.356 178.481 544.665C166.774 534.696 158.338 521.069 156.779 505.488C155.898 488.079 159.659 473.014 171.188 459.509C194.925 434.46 228.565 433.926 255.309 454.47ZM178 458.697C178 460.017 178 461.337 178 462.697C179.87 464.43 179.87 464.43 182.313 465.822C183.113 466.319 183.914 466.817 184.738 467.329C185.485 467.781 186.231 468.232 187 468.697C187.99 469.357 188.98 470.017 190 470.697C188.587 473.721 186.891 476.307 184.938 479.009C182.2 483.033 181.206 485.863 181 490.697C179.228 489.74 177.458 488.781 175.688 487.822C174.701 487.288 173.715 486.754 172.699 486.204C170 484.697 170 484.697 167 482.697C165.68 482.697 164.36 482.697 163 482.697C161.974 485.775 161.871 487.909 161.867 491.134C161.866 492.194 161.865 493.253 161.863 494.345C161.867 495.451 161.871 496.557 161.875 497.697C161.871 498.803 161.867 499.909 161.863 501.048C161.865 502.108 161.866 503.167 161.867 504.259C161.868 505.23 161.87 506.2 161.871 507.2C161.896 509.828 161.896 509.828 163 512.697C167.233 512.076 170.523 510.591 174.313 508.634C175.916 507.812 175.916 507.812 177.551 506.974C178.763 506.342 178.763 506.342 180 505.697C180.147 506.326 180.294 506.955 180.445 507.603C181.952 513.351 183.87 517.447 187.695 522.005C189 523.697 189 523.697 190 526.697C189.196 526.923 188.391 527.15 187.563 527.384C183.087 529.033 179.113 531.302 175 533.697C177.964 541.192 186.89 546.517 193.856 550.04C197.132 551.043 200.6 551.272 204 551.697C204 545.757 204 539.817 204 533.697C206.97 534.687 206.97 534.687 210 535.697C212.996 536.009 212.996 536.009 216 535.947C216.99 535.952 217.98 535.957 219 535.962C222.574 535.762 222.574 535.762 228 533.697C228 539.637 228 545.577 228 551.697C238.987 550.323 247.117 545.401 255 537.697C255 537.037 255 536.377 255 535.697C253.35 535.037 251.7 534.377 250 533.697C250 533.037 250 532.377 250 531.697C248.711 531.025 247.419 530.359 246.125 529.697C245.046 529.14 245.046 529.14 243.945 528.572C242.052 527.56 242.052 527.56 240 527.697C240.531 527.091 241.062 526.485 241.609 525.861C246.447 520.122 249.689 514.843 252 507.697C256.103 509.648 259.843 512.101 263.66 514.552C266.062 516.065 266.062 516.065 269 514.697C269.807 511.154 270.129 507.878 270.133 504.247C270.134 503.235 270.136 502.222 270.137 501.179C270.133 500.133 270.129 499.087 270.125 498.009C270.129 496.951 270.133 495.894 270.137 494.804C270.136 493.795 270.134 492.787 270.133 491.747C270.131 490.365 270.131 490.365 270.13 488.956C270.147 486.662 270.147 486.662 269 484.697C264.767 485.317 261.477 486.802 257.688 488.759C256.619 489.307 255.55 489.855 254.449 490.419C253.237 491.052 253.237 491.052 252 491.697C251.844 490.37 251.844 490.37 251.684 489.017C250.977 485.583 249.942 483.503 248.063 480.572C246.2 477.633 244.563 474.822 243 471.697C249.93 467.737 249.93 467.737 257 463.697C254.989 459.674 253.596 458.213 250 455.697C249.34 455.697 248.68 455.697 248 455.697C248 455.037 248 454.377 248 453.697C242.352 449.145 235.278 445.697 228 445.697C228 451.637 228 457.577 228 463.697C226.68 463.367 225.36 463.037 224 462.697C221.322 462.602 218.677 462.557 216 462.572C215.289 462.568 214.577 462.564 213.844 462.56C210.321 462.566 207.444 462.835 204 463.697C204 457.757 204 451.817 204 445.697C194.122 445.697 184.898 451.964 178 458.697Z" fill="#FAF9F7"/>
<path d="M207 441.695C206.67 442.355 206.34 443.015 206 443.695C205.767 446.574 205.58 449.436 205.438 452.32C205.373 453.523 205.373 453.523 205.307 454.75C205.201 456.731 205.1 458.713 205 460.695C210.28 461.025 215.56 461.355 221 461.695C221 462.025 221 462.355 221 462.695C212.585 463.19 212.585 463.19 204 463.695C204 457.755 204 451.815 204 445.695C193.558 448.932 186.376 452.654 178 459.695C179.831 464.579 183.466 465.83 187.883 468.133C188.931 468.906 188.931 468.906 190 469.695C190 474.031 189.815 474.333 187.188 477.383C183.886 481.527 182.342 485.61 181 490.695C176.529 489.867 173.226 487.472 169.438 485.07C166.854 483.471 166.854 483.471 163 482.695C163 492.595 163 502.495 163 512.695C167.849 510.396 167.849 510.396 172.693 508.088C177.778 505.695 177.778 505.695 180 505.695C180.303 506.492 180.606 507.288 180.918 508.109C183.331 514.212 185.636 518.832 190 523.695C190 524.685 190 525.675 190 526.695C185.38 529.005 180.76 531.315 176 533.695C179.777 541.249 188.078 546.827 196 549.695C198.64 550.355 201.28 551.015 204 551.695C204 545.755 204 539.815 204 533.695C204.99 534.025 205.98 534.355 207 534.695C206.34 534.695 205.68 534.695 205 534.695C205.012 535.971 205.023 537.247 205.035 538.562C205.045 540.231 205.054 541.901 205.063 543.57C205.071 544.412 205.079 545.254 205.088 546.121C205.091 546.926 205.094 547.732 205.098 548.562C205.103 549.306 205.108 550.049 205.114 550.816C205 552.695 205 552.695 204 554.695C206.35 555.87 207.951 555.895 210.57 556.011C211.466 556.053 212.362 556.095 213.285 556.138C214.222 556.178 215.16 556.217 216.125 556.258C217.542 556.322 217.542 556.322 218.988 556.388C221.325 556.495 223.663 556.597 226 556.695C226 557.025 226 557.355 226 557.695C209.204 558.484 194.617 557.77 181 546.695C180.169 546.025 179.337 545.354 178.481 544.664C166.774 534.695 158.338 521.068 156.779 505.486C155.898 488.078 159.659 473.013 171.188 459.508C178.985 451.28 194.574 437.553 207 441.695Z" fill="#F8F8F6"/>
<path d="M212 524.695C214.64 524.695 217.28 524.695 220 524.695C219.67 525.685 219.34 526.675 219 527.695C217.02 527.695 215.04 527.695 213 527.695C212.67 526.705 212.34 525.715 212 524.695Z" fill="#F6B1A7"/>
<path d="M240 508.695C240.66 508.695 241.32 508.695 242 508.695C241.75 511.07 241.75 511.07 241 513.695C238.938 515.008 238.938 515.008 237 515.695C237.613 512.734 238.254 511.315 240 508.695Z" fill="#F5B8AA"/>
<path d="M241.858 495.608C242.487 495.408 243.116 495.207 243.764 495.001C244.247 497.34 244.247 497.34 244.33 500.068C242.763 501.945 242.763 501.945 241.126 503.189C240.81 500.181 240.99 498.634 241.858 495.608Z" fill="#F5B8AA"/>
<path d="M226 472.695C229.27 473.259 230.826 474.195 233 476.695C230 477.695 230 477.695 227.812 476.758C227.214 476.407 226.616 476.057 226 475.695C226 474.705 226 473.715 226 472.695Z" fill="#F4B5AA"/>
<path d="M206 472.695C206 473.685 206 474.675 206 475.695C203.353 477.156 202.106 477.695 199 477.695C200.353 473.636 201.725 472.695 206 472.695Z" fill="#F6B0A3"/>
<path d="M220.402 472.759C220.012 473.669 219.622 474.578 219.22 475.516C216.211 475.815 214.852 475.819 211.998 474.595C214.841 471.398 216.473 471.074 220.402 472.759Z" fill="#F6B0A3"/>
<path d="M233 519.695C232.312 521.633 232.312 521.633 231 523.695C228.375 524.445 228.375 524.445 226 524.695C227 521.695 227 521.695 228.938 520.508C231 519.695 231 519.695 233 519.695Z" fill="#F6BBAF"/>
<path d="M193 481.695C193.66 481.695 194.32 481.695 195 481.695C194.188 484.633 194.188 484.633 193 487.695C192.01 488.025 191.02 488.355 190 488.695C190.75 483.945 190.75 483.945 193 481.695Z" fill="#F6B8B1"/>
<path d="M189.622 495.972C190.199 495.651 190.775 495.33 191.37 494.999C192.087 497.961 192.087 497.961 192.538 501.215C191.833 501.985 191.129 502.754 190.402 503.547C188.749 499.031 188.749 499.031 189.622 495.972Z" fill="#F6B8B1"/>
<path d="M191.467 510.549C191.801 509.98 192.135 509.41 192.479 508.824C194.602 511.011 194.602 511.011 196.642 513.585C196.426 514.606 196.21 515.627 195.987 516.678C192.269 513.628 192.269 513.628 191.467 510.549Z" fill="#F6B8B1"/>
<path d="M199 519.695C203.75 521.57 203.75 521.57 206 522.695C206 523.355 206 524.015 206 524.695C201.25 523.82 201.25 523.82 199 522.695C199 521.705 199 520.715 199 519.695Z" fill="#FAB6AD"/>
<path d="M237 481.695C240 482.695 240 482.695 242 485.695C242 486.685 242 487.675 242 488.695C241.01 488.365 240.02 488.035 239 487.695C237.812 484.633 237.812 484.633 237 481.695Z" fill="#F6BCAE"/>
<path d="M130.652 381.642C140.712 389.954 148.456 402.821 150.344 415.868C151.787 433.716 148.563 449.15 137.313 463.45C127.983 474.406 113.975 483.732 99.2001 485.061C83.142 485.621 69.3059 484.411 56.3439 473.868C55.5124 473.198 54.681 472.528 53.8243 471.837C42.1179 461.868 33.6814 448.241 32.1229 432.659C31.2416 415.251 35.0026 400.186 46.5314 386.681C70.2684 361.632 103.909 361.098 130.652 381.642Z" fill="#DB3D37"/>
<path d="M130.652 381.642C140.712 389.954 148.456 402.821 150.344 415.868C151.787 433.716 148.563 449.15 137.313 463.45C127.983 474.406 113.975 483.732 99.2001 485.061C83.142 485.621 69.3059 484.411 56.3439 473.868C55.5124 473.198 54.681 472.528 53.8243 471.837C42.1179 461.868 33.6814 448.241 32.1229 432.659C31.2416 415.251 35.0026 400.186 46.5314 386.681C70.2684 361.632 103.909 361.098 130.652 381.642ZM53.3439 385.868C53.3439 387.188 53.3439 388.508 53.3439 389.868C55.214 391.601 55.214 391.601 57.6564 392.993C58.4569 393.491 59.2574 393.989 60.0822 394.501C60.8285 394.952 61.5749 395.404 62.3439 395.868C63.3339 396.528 64.3239 397.188 65.3439 397.868C63.9305 400.893 62.2349 403.479 60.2814 406.181C57.5434 410.205 56.5496 413.035 56.3439 417.868C54.5721 416.912 52.8015 415.953 51.0314 414.993C50.0452 414.46 49.0591 413.926 48.0431 413.376C45.3439 411.868 45.3439 411.868 42.3439 409.868C41.0239 409.868 39.7039 409.868 38.3439 409.868C37.3176 412.947 37.2148 415.081 37.2111 418.306C37.2098 419.366 37.2085 420.425 37.2072 421.517C37.211 422.623 37.2149 423.729 37.2189 424.868C37.215 425.974 37.2111 427.08 37.2072 428.22C37.2084 429.28 37.2097 430.339 37.2111 431.431C37.2122 432.402 37.2133 433.372 37.2145 434.372C37.2394 437 37.2394 437 38.3439 439.868C42.5771 439.248 45.8668 437.763 49.6564 435.806C51.2593 434.984 51.2593 434.984 52.8947 434.146C54.107 433.513 54.107 433.513 55.3439 432.868C55.4908 433.498 55.6378 434.127 55.7892 434.775C57.2956 440.523 59.2139 444.619 63.0392 449.177C64.3439 450.868 64.3439 450.868 65.3439 453.868C64.5395 454.095 63.7351 454.322 62.9064 454.556C58.431 456.205 54.4567 458.474 50.3439 460.868C53.3081 468.364 62.2334 473.688 69.1993 477.212C72.4757 478.215 75.944 478.443 79.3439 478.868C79.3439 472.928 79.3439 466.988 79.3439 460.868C82.3139 461.858 82.3139 461.858 85.3439 462.868C88.34 463.181 88.34 463.181 91.3439 463.118C92.3339 463.124 93.3239 463.129 94.3439 463.134C97.9177 462.934 97.9177 462.934 103.344 460.868C103.344 466.808 103.344 472.748 103.344 478.868C114.33 477.495 122.461 472.573 130.344 464.868C130.344 464.208 130.344 463.548 130.344 462.868C128.694 462.208 127.044 461.548 125.344 460.868C125.344 460.208 125.344 459.548 125.344 458.868C124.055 458.197 122.762 457.531 121.469 456.868C120.39 456.312 120.39 456.312 119.289 455.743C117.395 454.732 117.395 454.732 115.344 454.868C115.875 454.263 116.406 453.657 116.953 453.033C121.791 447.294 125.033 442.015 127.344 434.868C131.446 436.82 135.186 439.273 139.004 441.724C141.405 443.237 141.405 443.237 144.344 441.868C145.151 438.325 145.472 435.05 145.477 431.419C145.478 430.407 145.479 429.394 145.481 428.351C145.477 427.305 145.473 426.259 145.469 425.181C145.473 424.123 145.477 423.066 145.481 421.976C145.479 420.967 145.478 419.958 145.477 418.919C145.475 417.537 145.475 417.537 145.473 416.127C145.491 413.834 145.491 413.834 144.344 411.868C140.111 412.489 136.821 413.974 133.031 415.931C131.963 416.479 130.894 417.027 129.793 417.591C128.581 418.223 128.581 418.223 127.344 418.868C127.187 417.542 127.187 417.542 127.027 416.189C126.32 412.755 125.285 410.674 123.406 407.743C121.543 404.805 119.907 401.994 118.344 398.868C125.274 394.908 125.274 394.908 132.344 390.868C130.333 386.846 128.939 385.385 125.344 382.868C124.684 382.868 124.024 382.868 123.344 382.868C123.344 382.208 123.344 381.548 123.344 380.868C117.696 376.317 110.621 372.868 103.344 372.868C103.344 378.808 103.344 384.748 103.344 390.868C102.024 390.538 100.704 390.208 99.3439 389.868C96.666 389.774 94.0207 389.729 91.3439 389.743C90.6323 389.74 89.9207 389.736 89.1876 389.732C85.6646 389.738 82.7881 390.007 79.3439 390.868C79.3439 384.928 79.3439 378.988 79.3439 372.868C69.4658 372.868 60.2422 379.136 53.3439 385.868Z" fill="#FAF9F7"/>
<path d="M82.3439 368.867C82.0139 369.527 81.6839 370.187 81.3439 370.867C81.1111 373.746 80.9241 376.608 80.7814 379.492C80.7166 380.695 80.7166 380.695 80.6505 381.922C80.5444 383.903 80.4436 385.885 80.3439 387.867C85.6239 388.197 90.9039 388.527 96.3439 388.867C96.3439 389.197 96.3439 389.527 96.3439 389.867C87.9289 390.362 87.9289 390.362 79.3439 390.867C79.3439 384.927 79.3439 378.987 79.3439 372.867C68.9021 376.104 61.7195 379.826 53.3439 386.867C55.1752 391.751 58.8098 393.002 63.2267 395.304C64.2747 396.078 64.2747 396.078 65.3439 396.867C65.3439 401.203 65.1592 401.505 62.5314 404.554C59.2301 408.699 57.6856 412.782 56.3439 417.867C51.8727 417.039 48.5694 414.644 44.7814 412.242C42.1979 410.642 42.1979 410.642 38.3439 409.867C38.3439 419.767 38.3439 429.667 38.3439 439.867C43.1923 437.567 43.1923 437.567 48.0367 435.259C53.1216 432.867 53.1216 432.867 55.3439 432.867C55.6468 433.664 55.9497 434.46 56.2618 435.281C58.6749 441.384 60.9793 446.003 65.3439 450.867C65.3439 451.857 65.3439 452.847 65.3439 453.867C60.7239 456.177 56.1039 458.487 51.3439 460.867C55.121 468.421 63.4221 473.999 71.3439 476.867C73.9839 477.527 76.6239 478.187 79.3439 478.867C79.3439 472.927 79.3439 466.987 79.3439 460.867C80.3339 461.197 81.3239 461.527 82.3439 461.867C81.6839 461.867 81.0239 461.867 80.3439 461.867C80.3555 463.143 80.3671 464.419 80.379 465.734C80.3884 467.403 80.3975 469.073 80.4064 470.742C80.4148 471.584 80.4231 472.425 80.4318 473.293C80.435 474.098 80.4382 474.904 80.4415 475.734C80.4468 476.478 80.452 477.221 80.4574 477.987C80.3439 479.867 80.3439 479.867 79.3439 481.867C81.6933 483.042 83.2946 483.067 85.9142 483.183C86.8101 483.225 87.706 483.267 88.629 483.31C89.5662 483.35 90.5033 483.389 91.4689 483.429C92.8862 483.494 92.8862 483.494 94.3322 483.56C96.6692 483.666 99.0064 483.769 101.344 483.867C101.344 484.197 101.344 484.527 101.344 484.867C84.5476 485.656 69.9612 484.942 56.3439 473.867C55.5124 473.197 54.681 472.526 53.8243 471.836C42.1179 461.867 33.6814 448.24 32.1229 432.658C31.2416 415.249 35.0026 400.185 46.5314 386.679C54.3283 378.451 69.9175 364.725 82.3439 368.867Z" fill="#F8F8F6"/>
<path d="M87.3438 451.867C89.9838 451.867 92.6237 451.867 95.3438 451.867C95.0137 452.857 94.6838 453.847 94.3438 454.867C92.3637 454.867 90.3837 454.867 88.3438 454.867C88.0137 453.877 87.6838 452.887 87.3438 451.867Z" fill="#F6B1A7"/>
<path d="M115.344 435.867C116.004 435.867 116.664 435.867 117.344 435.867C117.094 438.242 117.094 438.242 116.344 440.867C114.281 442.18 114.281 442.18 112.344 442.867C112.957 439.905 113.597 438.487 115.344 435.867Z" fill="#F5B8AA"/>
<path d="M117.202 422.78C117.831 422.58 118.46 422.379 119.108 422.173C119.591 424.511 119.591 424.511 119.673 427.24C118.107 429.117 118.107 429.117 116.47 430.361C116.154 427.353 116.334 425.806 117.202 422.78Z" fill="#F5B8AA"/>
<path d="M101.344 399.867C104.613 400.431 106.17 401.367 108.344 403.867C105.344 404.867 105.344 404.867 103.156 403.93C102.558 403.579 101.96 403.228 101.344 402.867C101.344 401.877 101.344 400.887 101.344 399.867Z" fill="#F4B5AA"/>
<path d="M81.3438 399.867C81.3438 400.857 81.3438 401.847 81.3438 402.867C78.6964 404.328 77.4493 404.867 74.3438 404.867C75.6967 400.808 77.069 399.867 81.3438 399.867Z" fill="#F6B0A3"/>
<path d="M95.746 399.931C95.3558 400.84 94.9656 401.75 94.5637 402.688C91.5549 402.987 90.1962 402.991 87.342 401.767C90.1851 398.57 91.8171 398.246 95.746 399.931Z" fill="#F6B0A3"/>
<path d="M108.344 446.867C107.656 448.805 107.656 448.805 106.344 450.867C103.719 451.617 103.719 451.617 101.344 451.867C102.344 448.867 102.344 448.867 104.281 447.68C106.344 446.867 106.344 446.867 108.344 446.867Z" fill="#F6BBAF"/>
<path d="M68.3438 408.867C69.0038 408.867 69.6637 408.867 70.3438 408.867C69.5312 411.805 69.5312 411.805 68.3438 414.867C67.3537 415.197 66.3637 415.527 65.3438 415.867C66.0938 411.117 66.0938 411.117 68.3438 408.867Z" fill="#F6B8B1"/>
<path d="M64.9655 423.143C65.5423 422.823 66.1191 422.502 66.7134 422.171C67.4311 425.133 67.4311 425.133 67.8819 428.387C67.1771 429.157 66.4723 429.926 65.7462 430.719C64.0928 426.203 64.0928 426.203 64.9655 423.143Z" fill="#F6B8B1"/>
<path d="M66.8109 437.721C67.1448 437.152 67.4787 436.582 67.8228 435.996C69.9455 438.183 69.9455 438.183 71.9862 440.757C71.7699 441.778 71.5537 442.799 71.3308 443.85C67.6132 440.8 67.6132 440.8 66.8109 437.721Z" fill="#F6B8B1"/>
<path d="M74.3438 446.867C79.0938 448.742 79.0938 448.742 81.3438 449.867C81.3438 450.527 81.3438 451.187 81.3438 451.867C76.5938 450.992 76.5938 450.992 74.3438 449.867C74.3438 448.877 74.3438 447.887 74.3438 446.867Z" fill="#FAB6AD"/>
<path d="M112.344 408.867C115.344 409.867 115.344 409.867 117.344 412.867C117.344 413.857 117.344 414.847 117.344 415.867C116.354 415.537 115.364 415.207 114.344 414.867C113.156 411.805 113.156 411.805 112.344 408.867Z" fill="#F6BCAE"/>
<path d="M378.652 382.642C388.712 390.954 396.456 403.821 398.344 416.868C399.787 434.716 396.563 450.15 385.313 464.45C375.983 475.406 361.975 484.732 347.2 486.061C331.142 486.621 317.306 485.411 304.344 474.868C303.512 474.198 302.681 473.528 301.824 472.837C290.118 462.868 281.681 449.241 280.123 433.659C279.242 416.251 283.003 401.186 294.531 387.681C318.268 362.632 351.909 362.098 378.652 382.642Z" fill="#DB3D37"/>
<path d="M378.652 382.642C388.712 390.954 396.456 403.821 398.344 416.868C399.787 434.716 396.563 450.15 385.313 464.45C375.983 475.406 361.975 484.732 347.2 486.061C331.142 486.621 317.306 485.411 304.344 474.868C303.512 474.198 302.681 473.528 301.824 472.837C290.118 462.868 281.681 449.241 280.123 433.659C279.242 416.251 283.003 401.186 294.531 387.681C318.268 362.632 351.909 362.098 378.652 382.642ZM301.344 386.868C301.344 388.188 301.344 389.508 301.344 390.868C303.214 392.601 303.214 392.601 305.656 393.993C306.457 394.491 307.257 394.989 308.082 395.501C308.829 395.952 309.575 396.404 310.344 396.868C311.334 397.528 312.324 398.188 313.344 398.868C311.93 401.893 310.235 404.479 308.281 407.181C305.543 411.205 304.55 414.035 304.344 418.868C302.572 417.912 300.801 416.953 299.031 415.993C298.045 415.46 297.059 414.926 296.043 414.376C293.344 412.868 293.344 412.868 290.344 410.868C289.024 410.868 287.704 410.868 286.344 410.868C285.318 413.947 285.215 416.081 285.211 419.306C285.21 420.366 285.208 421.425 285.207 422.517C285.211 423.623 285.215 424.729 285.219 425.868C285.215 426.974 285.211 428.08 285.207 429.22C285.208 430.28 285.21 431.339 285.211 432.431C285.212 433.402 285.213 434.372 285.214 435.372C285.239 438 285.239 438 286.344 440.868C290.577 440.248 293.867 438.763 297.656 436.806C299.259 435.984 299.259 435.984 300.895 435.146C302.107 434.513 302.107 434.513 303.344 433.868C303.491 434.498 303.638 435.127 303.789 435.775C305.296 441.523 307.214 445.619 311.039 450.177C312.344 451.868 312.344 451.868 313.344 454.868C312.539 455.095 311.735 455.322 310.906 455.556C306.431 457.205 302.457 459.474 298.344 461.868C301.308 469.364 310.233 474.688 317.199 478.212C320.476 479.215 323.944 479.443 327.344 479.868C327.344 473.928 327.344 467.988 327.344 461.868C330.314 462.858 330.314 462.858 333.344 463.868C336.34 464.181 336.34 464.181 339.344 464.118C340.334 464.124 341.324 464.129 342.344 464.134C345.918 463.934 345.918 463.934 351.344 461.868C351.344 467.808 351.344 473.748 351.344 479.868C362.33 478.495 370.461 473.573 378.344 465.868C378.344 465.208 378.344 464.548 378.344 463.868C376.694 463.208 375.044 462.548 373.344 461.868C373.344 461.208 373.344 460.548 373.344 459.868C372.055 459.197 370.762 458.531 369.469 457.868C368.39 457.312 368.39 457.312 367.289 456.743C365.395 455.732 365.395 455.732 363.344 455.868C363.875 455.263 364.406 454.657 364.953 454.033C369.791 448.294 373.033 443.015 375.344 435.868C379.446 437.82 383.186 440.273 387.004 442.724C389.405 444.237 389.405 444.237 392.344 442.868C393.151 439.325 393.472 436.05 393.477 432.419C393.478 431.407 393.479 430.394 393.481 429.351C393.477 428.305 393.473 427.259 393.469 426.181C393.473 425.123 393.477 424.066 393.481 422.976C393.479 421.967 393.478 420.958 393.477 419.919C393.475 418.537 393.475 418.537 393.473 417.127C393.491 414.834 393.491 414.834 392.344 412.868C388.111 413.489 384.821 414.974 381.031 416.931C379.963 417.479 378.894 418.027 377.793 418.591C376.581 419.223 376.581 419.223 375.344 419.868C375.187 418.542 375.187 418.542 375.027 417.189C374.32 413.755 373.285 411.674 371.406 408.743C369.543 405.805 367.907 402.994 366.344 399.868C373.274 395.908 373.274 395.908 380.344 391.868C378.333 387.846 376.939 386.385 373.344 383.868C372.684 383.868 372.024 383.868 371.344 383.868C371.344 383.208 371.344 382.548 371.344 381.868C365.696 377.317 358.621 373.868 351.344 373.868C351.344 379.808 351.344 385.748 351.344 391.868C350.024 391.538 348.704 391.208 347.344 390.868C344.666 390.774 342.021 390.729 339.344 390.743C338.632 390.74 337.921 390.736 337.188 390.732C333.665 390.738 330.788 391.007 327.344 391.868C327.344 385.928 327.344 379.988 327.344 373.868C317.466 373.868 308.242 380.136 301.344 386.868Z" fill="#FAF9F7"/>
<path d="M330.344 369.867C330.014 370.527 329.684 371.187 329.344 371.867C329.111 374.746 328.924 377.608 328.781 380.492C328.717 381.695 328.717 381.695 328.651 382.922C328.544 384.903 328.444 386.885 328.344 388.867C333.624 389.197 338.904 389.527 344.344 389.867C344.344 390.197 344.344 390.527 344.344 390.867C335.929 391.362 335.929 391.362 327.344 391.867C327.344 385.927 327.344 379.987 327.344 373.867C316.902 377.104 309.72 380.826 301.344 387.867C303.175 392.751 306.81 394.002 311.227 396.304C312.275 397.078 312.275 397.078 313.344 397.867C313.344 402.203 313.159 402.505 310.531 405.554C307.23 409.699 305.686 413.782 304.344 418.867C299.873 418.039 296.569 415.644 292.781 413.242C290.198 411.642 290.198 411.642 286.344 410.867C286.344 420.767 286.344 430.667 286.344 440.867C291.192 438.567 291.192 438.567 296.037 436.259C301.122 433.867 301.122 433.867 303.344 433.867C303.647 434.664 303.95 435.46 304.262 436.281C306.675 442.384 308.979 447.003 313.344 451.867C313.344 452.857 313.344 453.847 313.344 454.867C308.724 457.177 304.104 459.487 299.344 461.867C303.121 469.421 311.422 474.999 319.344 477.867C321.984 478.527 324.624 479.187 327.344 479.867C327.344 473.927 327.344 467.987 327.344 461.867C328.334 462.197 329.324 462.527 330.344 462.867C329.684 462.867 329.024 462.867 328.344 462.867C328.355 464.143 328.367 465.419 328.379 466.734C328.388 468.403 328.398 470.073 328.406 471.742C328.415 472.584 328.423 473.425 328.432 474.293C328.435 475.098 328.438 475.904 328.442 476.734C328.447 477.478 328.452 478.221 328.457 478.987C328.344 480.867 328.344 480.867 327.344 482.867C329.693 484.042 331.295 484.067 333.914 484.183C334.81 484.225 335.706 484.267 336.629 484.31C337.566 484.35 338.503 484.389 339.469 484.429C340.886 484.494 340.886 484.494 342.332 484.56C344.669 484.666 347.006 484.769 349.344 484.867C349.344 485.197 349.344 485.527 349.344 485.867C332.548 486.656 317.961 485.942 304.344 474.867C303.512 474.197 302.681 473.526 301.824 472.836C290.118 462.867 281.681 449.24 280.123 433.658C279.242 416.249 283.003 401.185 294.531 387.679C302.328 379.451 317.918 365.725 330.344 369.867Z" fill="#F8F8F6"/>
<path d="M335.344 452.867C337.984 452.867 340.624 452.867 343.344 452.867C343.014 453.857 342.684 454.847 342.344 455.867C340.364 455.867 338.384 455.867 336.344 455.867C336.014 454.877 335.684 453.887 335.344 452.867Z" fill="#F6B1A7"/>
<path d="M363.344 436.867C364.004 436.867 364.664 436.867 365.344 436.867C365.094 439.242 365.094 439.242 364.344 441.867C362.281 443.18 362.281 443.18 360.344 443.867C360.957 440.905 361.597 439.487 363.344 436.867Z" fill="#F5B8AA"/>
<path d="M365.202 423.78C365.831 423.58 366.46 423.379 367.108 423.173C367.591 425.511 367.591 425.511 367.673 428.24C366.107 430.117 366.107 430.117 364.47 431.361C364.154 428.353 364.334 426.806 365.202 423.78Z" fill="#F5B8AA"/>
<path d="M349.344 400.867C352.613 401.431 354.17 402.367 356.344 404.867C353.344 405.867 353.344 405.867 351.156 404.93C350.558 404.579 349.96 404.228 349.344 403.867C349.344 402.877 349.344 401.887 349.344 400.867Z" fill="#F4B5AA"/>
<path d="M329.344 400.867C329.344 401.857 329.344 402.847 329.344 403.867C326.696 405.328 325.449 405.867 322.344 405.867C323.697 401.808 325.069 400.867 329.344 400.867Z" fill="#F6B0A3"/>
<path d="M343.746 400.931C343.356 401.84 342.966 402.75 342.564 403.688C339.555 403.987 338.196 403.991 335.342 402.767C338.185 399.57 339.817 399.246 343.746 400.931Z" fill="#F6B0A3"/>
<path d="M356.344 447.867C355.656 449.805 355.656 449.805 354.344 451.867C351.719 452.617 351.719 452.617 349.344 452.867C350.344 449.867 350.344 449.867 352.281 448.68C354.344 447.867 354.344 447.867 356.344 447.867Z" fill="#F6BBAF"/>
<path d="M316.344 409.867C317.004 409.867 317.664 409.867 318.344 409.867C317.531 412.805 317.531 412.805 316.344 415.867C315.354 416.197 314.364 416.527 313.344 416.867C314.094 412.117 314.094 412.117 316.344 409.867Z" fill="#F6B8B1"/>
<path d="M312.966 424.143C313.542 423.823 314.119 423.502 314.713 423.171C315.431 426.133 315.431 426.133 315.882 429.387C315.177 430.157 314.472 430.926 313.746 431.719C312.093 427.203 312.093 427.203 312.966 424.143Z" fill="#F6B8B1"/>
<path d="M314.811 438.721C315.145 438.152 315.479 437.582 315.823 436.996C317.945 439.183 317.945 439.183 319.986 441.757C319.77 442.778 319.554 443.799 319.331 444.85C315.613 441.8 315.613 441.8 314.811 438.721Z" fill="#F6B8B1"/>
<path d="M322.344 447.867C327.094 449.742 327.094 449.742 329.344 450.867C329.344 451.527 329.344 452.187 329.344 452.867C324.594 451.992 324.594 451.992 322.344 450.867C322.344 449.877 322.344 448.887 322.344 447.867Z" fill="#FAB6AD"/>
<path d="M360.344 409.867C363.344 410.867 363.344 410.867 365.344 413.867C365.344 414.857 365.344 415.847 365.344 416.867C364.354 416.537 363.364 416.207 362.344 415.867C361.156 412.805 361.156 412.805 360.344 409.867Z" fill="#F6BCAE"/>
<path d="M115.999 228.695C117.382 231.75 117.382 231.75 118.124 235.57C118.426 236.94 118.735 238.309 119.05 239.676C119.203 240.357 119.355 241.038 119.513 241.74C122.57 254.045 129.657 265.335 137.999 274.695C137.999 275.355 137.999 276.015 137.999 276.695C138.659 276.695 139.319 276.695 139.999 276.695C141.479 278.269 141.479 278.269 143.186 280.383C145.581 283.225 147.857 285.486 150.936 287.57C151.947 288.271 152.958 288.973 153.999 289.695C153.999 290.355 153.999 291.015 153.999 291.695C155.649 292.355 157.299 293.015 158.999 293.695C159.657 306.129 152.496 316.877 144.811 326.133C137.545 333.679 128.015 339.654 117.999 342.695C117.155 343.039 116.31 343.384 115.44 343.738C100.578 347.871 84.1927 344.7 70.8739 337.633C56.8969 328.929 46.9658 315.397 42.6278 299.504C39.6582 281.521 41.9884 266.17 52.3153 250.957C54.3454 248.23 56.4421 245.94 58.9989 243.695C59.5364 243.167 60.0739 242.638 60.6278 242.094C73.93 229.486 98.0803 220.599 115.999 228.695Z" fill="#D93E37"/>
<path d="M115.999 228.697C115.999 230.347 115.999 231.997 115.999 233.697C115.339 233.697 114.679 233.697 113.999 233.697C113.669 239.307 113.339 244.917 112.999 250.697C105.079 250.697 97.1589 250.697 88.9989 250.697C88.9989 244.757 88.9989 238.817 88.9989 232.697C80.289 235.185 68.5928 238.644 63.6629 246.947C63.4438 247.524 63.2246 248.102 62.9989 248.697C64.4135 249.658 65.8307 250.615 67.2489 251.572C68.0378 252.105 68.8267 252.639 69.6395 253.189C71.7144 254.515 73.775 255.646 75.9989 256.697C75.4155 259.937 74.4699 261.543 72.1864 263.884C68.7128 267.734 66.8502 271.894 64.9989 276.697C60.5756 276.114 57.4833 274.429 53.6864 272.134C52.0834 271.173 52.0834 271.173 50.4481 270.193C49.6398 269.699 48.8316 269.205 47.9989 268.697C47.0932 275.593 46.8766 282.309 46.9364 289.259C46.9409 290.268 46.9454 291.276 46.95 292.316C46.9617 294.776 46.9781 297.236 46.9989 299.697C48.0469 299.191 49.0949 298.686 50.1746 298.165C51.5534 297.509 52.9323 296.853 54.3114 296.197C55.0017 295.863 55.6919 295.529 56.4032 295.185C61.659 292.697 61.659 292.697 64.9989 292.697C65.3495 293.769 65.7001 294.842 66.0614 295.947C68.2776 301.928 71.6951 307.266 74.9989 312.697C70.1132 315.541 65.4782 318.151 59.9989 319.697C64.4812 328.661 73.0969 332.927 81.9989 336.697C84.3089 337.357 86.6189 338.017 88.9989 338.697C88.9989 332.757 88.9989 326.817 88.9989 320.697C96.9189 320.697 104.839 320.697 112.999 320.697C112.999 326.637 112.999 332.577 112.999 338.697C121.113 335.793 128.109 332.875 134.999 327.697C135.719 327.204 136.44 326.712 137.182 326.204C139.28 324.733 139.28 324.733 139.999 321.697C139.457 321.595 138.916 321.493 138.358 321.388C135.393 320.519 132.944 319.142 130.249 317.634C129.264 317.086 128.279 316.538 127.264 315.974C126.517 315.552 125.769 315.131 124.999 314.697C126.398 311.725 128.042 309.126 129.936 306.447C132.731 302.326 134.453 298.419 135.999 293.697C140.971 295.461 145.433 298.091 149.999 300.697C149.999 300.017 149.999 301.357 149.999 300.697C149.999 300.697 151.98 302 153 302C153.144 300.907 153.288 300.51 153.436 299.384C153.999 295.697 153.999 295.697 154.999 292.697C156.979 293.192 156.979 293.192 158.999 293.697C159.657 306.131 152.496 316.878 144.811 326.134C137.545 333.681 128.015 339.656 117.999 342.697C117.155 343.041 116.31 343.385 115.44 343.74C100.578 347.873 84.1927 344.701 70.8739 337.634C56.8969 328.931 46.9658 315.398 42.6278 299.505C39.6582 281.522 41.9884 266.171 52.3153 250.958C54.3454 248.231 56.4421 245.942 58.9989 243.697C59.5364 243.168 60.0739 242.64 60.6278 242.095C75.2205 228.264 96.6883 222.361 115.999 228.697Z" fill="#F9F7F5"/>
<path d="M97 310.695C99.64 310.695 102.28 310.695 105 310.695C105 312.015 105 313.335 105 314.695C102.36 314.695 99.72 314.695 97 314.695C97 313.375 97 312.055 97 310.695Z" fill="#E89695"/>
<path d="M127 281.695C127.99 282.025 128.98 282.355 130 282.695C130 285.005 130 287.315 130 289.695C128.68 289.695 127.36 289.695 126 289.695C125.958 287.362 125.959 285.028 126 282.695C126.33 282.365 126.66 282.035 127 281.695Z" fill="#E69E8F"/>
<path d="M73 281.695C73.66 281.695 74.32 281.695 75 281.695C75 284.335 75 286.975 75 289.695C74.01 289.695 73.02 289.695 72 289.695C71.9576 287.362 71.9591 285.028 72 282.695C72.33 282.365 72.66 282.035 73 281.695Z" fill="#F6AFA5"/>
<path d="M118 306.695C117.312 308.633 117.312 308.633 116 310.695C113.375 311.445 113.375 311.445 111 311.695C111 310.705 111 309.715 111 308.695C113.647 307.235 114.894 306.695 118 306.695Z" fill="#F8B2B0"/>
<path d="M91.0175 311.857C89.0199 312.343 89.0199 312.343 86.5754 312.374C84.5102 310.589 84.5102 310.589 83.0002 308.739C83.8285 308.196 84.6568 307.654 85.5103 307.095C88.1823 308.51 89.3166 309.258 91.0175 311.857Z" fill="#F8B2B0"/>
<path d="M124 295.695C124.99 295.695 125.98 295.695 127 295.695C126.387 298.657 125.746 300.076 124 302.695C123.34 302.695 122.68 302.695 122 302.695C122.875 297.945 122.875 297.945 124 295.695Z" fill="#F3B4AB"/>
<path d="M89 262C89 262.99 89 263.98 89 265C86.69 265.66 84.38 266.32 82 267C83.7732 263.074 84.4798 262 89 262Z" fill="#F3B9A9"/>
<path d="M122 268.695C122.99 269.025 123.98 269.355 125 269.695C126.188 272.758 126.188 272.758 127 275.695C126.01 275.695 125.02 275.695 124 275.695C122.539 273.048 122 271.801 122 268.695Z" fill="#F6BEB1"/>
<path d="M94 261.672C94.6613 260.865 95.3227 260.057 96.004 259.226C99.2887 259.208 99.2887 259.208 102.323 259.497C101.97 260.422 101.617 261.347 101.253 262.299C98.2588 262.72 96.9014 262.779 94 261.672Z" fill="#F6BEB1"/>
<path d="M75 295.695C75.66 295.695 76.32 295.695 77 295.695C80 300.08 80 300.08 80 302.695C79.01 302.695 78.02 302.695 77 302.695C75.5394 300.048 75 298.801 75 295.695Z" fill="#F7BCAE"/>
<path d="M78.0859 269.098C78.5261 269.589 78.9663 270.081 79.4199 270.588C78.1539 275.747 78.1539 275.747 76.2052 277.492C75.5449 276.754 74.8846 276.017 74.2043 275.257C75.2026 272.403 75.7721 271.169 78.0859 269.098Z" fill="#F7BCAE"/>
<path d="M109.074 262.633C111.754 262.312 111.754 262.312 114.717 262.236C115.465 262.886 116.212 263.535 116.982 264.204C116.333 264.951 115.683 265.699 115.014 266.469C113.054 265.203 111.094 263.937 109.074 262.633Z" fill="#E6B2AC"/>
<circle cx="220.5" cy="363.5" r="22.5" fill="white"/>
<path d="M270.737 293.878C273.04 291.441 273.04 291.441 276.295 289.308C277.448 288.509 278.598 287.705 279.744 286.896C280.317 286.497 280.889 286.097 281.479 285.686C291.71 278.197 299.477 267.363 304.981 256.098C305.591 255.848 306.202 255.598 306.832 255.34C306.582 254.729 306.332 254.119 306.074 253.489C306.971 251.523 306.971 251.523 308.28 249.143C310.004 245.85 311.235 242.887 311.998 239.248C312.264 238.047 312.531 236.846 312.805 235.609C313.416 235.359 314.027 235.109 314.656 234.852C314.642 233.075 314.628 231.298 314.614 229.467C325.873 224.149 338.532 226.707 350.008 230.315C359.744 234.182 368.883 240.74 375.49 248.859C376.128 249.51 376.767 250.161 377.424 250.832C386.878 263.023 390.147 279.389 388.649 294.392C385.887 310.624 377.122 324.939 364.055 334.973C348.536 344.531 333.446 348.187 315.455 344.389C312.162 343.543 309.249 342.47 306.203 340.953C305.511 340.656 304.818 340.359 304.104 340.052C287.398 332.515 270.029 313.528 270.737 293.878Z" fill="#D93E37"/>
<path d="M270.737 293.877C272.264 293.252 273.791 292.627 275.365 291.984C275.615 292.594 275.865 293.205 276.122 293.835C281.439 292.016 286.757 290.197 292.235 288.323C295.234 295.653 298.233 302.983 301.323 310.536C295.825 312.785 290.327 315.034 284.663 317.352C290.264 324.471 297.894 333.986 307.446 335.405C308.063 335.389 308.681 335.373 309.317 335.357C309.671 333.684 310.021 332.009 310.369 330.335C310.564 329.403 310.759 328.47 310.96 327.51C311.402 325.087 311.668 322.752 311.799 320.296C315.018 319.609 316.863 319.876 319.895 321.103C324.773 322.86 329.329 323.008 334.475 322.903C335.61 327.218 335.222 330.718 334.535 335.101C334.253 336.949 334.253 336.949 333.965 338.833C333.814 339.768 333.663 340.703 333.508 341.667C340.233 339.894 346.531 337.551 352.941 334.864C353.873 334.478 354.805 334.092 355.765 333.694C358.038 332.751 360.309 331.805 362.578 330.854C361.713 330.075 360.849 329.296 359.958 328.494C358.828 327.467 357.699 326.439 356.569 325.411C355.999 324.899 355.429 324.386 354.841 323.858C350.548 319.936 350.548 319.936 349.283 316.845C350.143 316.114 351.003 315.383 351.889 314.631C356.586 310.314 360.232 305.13 364.007 300.016C368.49 303.461 372.661 306.762 376.166 311.248C382.766 303.705 383.451 294.116 383.569 284.449C383.306 282.062 383.042 279.674 382.77 277.213C377.272 279.463 371.774 281.712 366.11 284.029C363.111 276.699 360.112 269.369 357.022 261.816C362.52 259.567 368.018 257.318 373.682 255.001C367.922 248.59 362.572 243.22 355.17 238.804C354.442 238.324 353.713 237.843 352.962 237.348C350.807 235.964 350.807 235.964 347.724 236.448C347.835 236.988 347.945 237.528 348.06 238.084C348.378 241.157 348.031 243.946 347.656 247.011C347.522 248.13 347.388 249.249 347.249 250.401C347.142 251.253 347.035 252.105 346.925 252.982C343.645 252.813 340.617 252.275 337.42 251.536C332.547 250.51 328.279 250.395 323.324 250.753C323.074 245.483 323.818 240.357 324.501 235.145C323.872 235.402 325.112 234.895 324.501 235.145C324.501 235.145 324.957 232.818 324.571 231.874C323.505 232.154 323.083 232.172 321.985 232.46C318.359 233.336 318.359 233.336 315.203 233.547C314.912 231.527 314.912 231.527 314.614 229.466C325.873 224.148 338.532 226.707 350.009 230.314C359.745 234.181 368.884 240.739 375.491 248.858C376.129 249.509 376.767 250.16 377.425 250.831C386.878 263.022 390.147 279.388 388.65 294.391C385.887 310.623 377.123 324.939 364.056 334.972C348.536 344.53 333.446 348.186 315.456 344.389C312.163 343.542 309.25 342.469 306.204 340.952C305.511 340.655 304.819 340.358 304.105 340.051C285.778 331.783 272.185 314.149 270.737 293.877Z" fill="#F9F7F5"/>
<path d="M353.824 280.41C352.825 277.967 351.825 275.523 350.795 273.006C352.017 272.506 353.238 272.006 354.497 271.491C355.497 273.935 356.496 276.378 357.526 278.896C356.305 279.395 355.083 279.895 353.824 280.41Z" fill="#E89695"/>
<path d="M315.625 263.624C315.556 262.582 315.486 261.541 315.415 260.468C317.553 259.594 319.691 258.719 321.893 257.818C322.393 259.039 322.893 260.261 323.408 261.52C321.265 262.443 319.104 263.325 316.929 264.171C316.499 263.99 316.069 263.81 315.625 263.624Z" fill="#E69E8F"/>
<path d="M336.07 313.604C335.821 312.993 335.571 312.382 335.313 311.753C337.757 310.753 340.2 309.754 342.717 308.724C343.092 309.64 343.467 310.556 343.853 311.5C341.71 312.423 339.549 313.305 337.375 314.151C336.944 313.971 336.514 313.79 336.07 313.604Z" fill="#F6AFA5"/>
<path d="M342.17 262.49C344.223 262.393 344.223 262.393 346.629 262.826C348.317 264.972 348.317 264.972 349.448 267.075C348.532 267.45 347.615 267.825 346.671 268.211C344.317 266.314 343.346 265.364 342.17 262.49Z" fill="#F8B2B0"/>
<path d="M357.164 285.507C358.37 287.172 358.37 287.172 359.325 289.423C358.455 292.01 358.455 292.01 357.314 294.108C356.498 293.547 355.683 292.986 354.843 292.407C355.141 289.398 355.403 288.065 357.164 285.507Z" fill="#F8B2B0"/>
<path d="M329.715 261.102C329.34 260.186 328.966 259.269 328.579 258.325C331.553 257.771 333.108 257.827 336.194 258.451C336.444 259.062 336.694 259.673 336.951 260.302C332.224 261.291 332.224 261.291 329.715 261.102Z" fill="#F3B4AB"/>
<path d="M311.783 306.252C312.699 305.877 313.616 305.502 314.56 305.116C316.045 307.004 317.531 308.892 319.061 310.837C314.756 310.683 313.495 310.435 311.783 306.252Z" fill="#F3B9A9"/>
<path d="M305.484 273.176C305.415 272.135 305.345 271.093 305.274 270.021C307.659 267.762 307.659 267.762 310.07 265.897C310.445 266.814 310.82 267.73 311.206 268.674C309.309 271.028 308.359 272 305.484 273.176Z" fill="#F6BEB1"/>
<path d="M309.586 301.75C308.588 301.444 307.591 301.137 306.563 300.821C305.303 297.788 305.303 297.788 304.421 294.871C305.411 294.847 306.401 294.824 307.42 294.799C308.943 297.411 309.512 298.645 309.586 301.75Z" fill="#F6BEB1"/>
<path d="M348.273 306.453C348.024 305.842 347.774 305.231 347.516 304.602C350.438 300.165 350.438 300.165 352.859 299.175C353.234 300.091 353.609 301.007 353.995 301.951C352.098 304.306 351.148 305.277 348.273 306.453Z" fill="#F7BCAE"/>
<path d="M322.484 313.668C322.773 313.074 323.061 312.481 323.358 311.869C328.613 311.087 328.613 311.087 330.966 312.23C330.533 313.121 330.1 314.011 329.655 314.928C326.635 315.085 325.278 315.025 322.484 313.668Z" fill="#F7BCAE"/>
<path d="M304.77 287.434C303.458 285.075 303.458 285.075 302.266 282.361C302.584 281.423 302.902 280.486 303.229 279.52C304.167 279.838 305.104 280.156 306.07 280.483C305.641 282.777 305.212 285.07 304.77 287.434Z" fill="#E6B2AC"/>
</svg>
