<svg width="214" height="1192" viewBox="0 0 214 1192" fill="none" xmlns="http://www.w3.org/2000/svg">
<path d="M41.2211 709.157L13.0974 666.176L11.3535 659.01L11.6784 462.475L20.0898 447.202L33.9551 438.547L37.5625 437.538L37.7506 448.638L40.9134 458.216L65.806 492.081L58.4545 499.059L50.5388 635.698L54.3513 648.389L63.2244 660.532L66.6608 663.799L69.6185 658.394L76.269 653.16L127.901 648.115L139.817 654.939L122.891 675.754L107.624 676.352L98.5116 681.757L74.0123 722.07L71.3623 730.998L60.4205 874.085L62.3695 884.09L80.2525 914.602L83.3812 913.405L80.6799 915.321L93.8101 939.933L100.512 945.389L118.361 950.656L122.105 944.619L144.433 966.99L138.398 979.92L84.3386 979.219L72.542 972.891L28.8091 906.838L25.9711 896.661L29.4074 735.633L41.2211 709.157Z" fill="#270F11"/>
<path d="M128.653 468.752L106.923 466.631L96.6138 449.083L91.7755 427.67L92.3055 421.017L131.354 421.495L141.663 425.241L193.055 472.737L194.731 515.53L196.098 523.107L200.407 664.073L196.988 672.881L134.842 737.292L126.892 740.781L95.2632 741.294L87.2107 738.164L79.0898 730.861L107.419 688.616L114.24 687.983L129.251 680.766L156.452 648.252L159.649 639.187L154.451 508.021L150.382 496.374L128.653 468.752Z" fill="#270F11"/>
<path d="M130.635 11.3395H112.889L105.725 0H184.198L209.706 27.6048L213.98 39.6627L203.894 220.462L198.047 233.82L159.699 276.356L159.614 275.689L144.483 278.922L89.3298 278.973L88.9707 253.404L102.015 224.602L140.739 227.509L150.347 224.773L162.964 215.674L166.469 207.926L162.383 50.7286L160.297 44.674L133.046 13.409L130.635 11.3395Z" fill="#270F11"/>
<path d="M161.152 1191.59L135.73 1134.65L163.597 1093.25L166.418 1083.02L165.05 978.654L161.631 970.239L126.566 934.613L121.386 931.791L104.836 930.85L73.0195 888.109L85.2094 878.531L91.9796 877.368L126.258 880.532L135.063 884.688L202.97 944.55L208.304 956.642L212.134 1080.28L207.056 1102.35L163.101 1189.03L161.152 1191.59Z" fill="#270F11"/>
<path d="M157.614 207.823L152.075 211.757L139.047 215.759L125.113 215.708L108.923 208.524H99.5199L96.6134 212.339L80.2692 246.374L79.004 253.216L80.7137 441.199L83.0217 449.169L100.922 476.055L119.779 476.945L140.09 498.204L133.217 508.398L128.174 511.476L95.1432 511.134L87.7062 507.081L52.9831 457.738L47.7687 441.199L44.9648 250.855L47.3242 240.935L79.5682 181.176L86.4752 177.088L132.277 177.003L139.833 180.902L155.921 204.197L157.614 207.823Z" fill="#270F11"/>
<path d="M31.7654 0.102539H92.082L102.118 14.076L112.341 19.5149L121.009 19.4807L141.713 42.9294L98.2538 45.6488L87.7053 41.6295L76.1993 31.6069L49.3407 50.0444L57.7009 187.727L60.9663 192.601L31.0645 244.954L29.0813 244.493L13.2841 233.324L8.53125 224.242L9.40316 32.9068L19.3192 11.1342L31.7654 0.102539Z" fill="#270F11"/>
<path d="M79.4988 1134.79L73.5664 1184.99L71.8396 1189.15L9.06116 1144.15L0 1126.31L1.69257 968.136L5.26573 957.156L28.2264 928.422L30.3292 926.644L55.6663 972.925L48.2977 980.382L44.9126 987.805L39.4417 1095.28L43.8013 1105.19L79.4988 1134.79Z" fill="#270F11"/>
<path d="M183.088 907.334L150.912 879.627L156.417 754.772L152.28 743.381L151.015 741.312L174.198 716.768L176.779 716.016L181.293 725.645L186.661 746.699L183.088 907.334Z" fill="#270F11"/>
<path d="M136.67 290.295L153.339 290.381L167.563 284.651L172.812 279.914L174.795 279.691L173.957 437.402L140.978 406.821L136.67 290.295Z" fill="#270F11"/>
</svg>
