<svg width="1480" height="960" viewBox="0 0 1480 960" fill="none" xmlns="http://www.w3.org/2000/svg">
<path d="M191.006 1.36442C236.873 8.16442 245.006 10.1644 251.273 16.4311C255.54 20.6978 255.673 21.0978 255.673 32.0311C255.673 52.8311 263.006 72.9645 277.14 91.7645C287.406 105.231 298.606 114.298 316.206 123.098C323.14 126.698 330.34 133.364 330.34 136.431C330.34 136.964 333.006 141.098 336.206 145.631C346.473 159.898 359.673 170.431 377.006 178.031C382.473 180.431 387.006 183.098 387.006 184.031C387.006 186.164 365.54 197.098 361.406 197.098C358.606 197.098 358.473 196.698 359.273 188.431C359.94 181.098 359.673 179.764 357.806 178.964C356.206 178.298 353.673 179.764 349.54 183.898C346.34 187.098 343.673 190.298 343.673 191.098C343.673 193.498 360.34 220.564 368.073 230.964C375.273 240.431 391.006 257.764 390.073 255.098C389.806 254.298 386.74 248.031 383.406 241.098C371.273 216.298 373.94 213.898 388.34 236.698C417.14 282.031 424.34 293.098 425.14 293.098C425.673 293.098 425.006 289.364 423.54 284.698C422.206 280.164 421.006 275.631 421.006 274.698C421.006 271.631 423.406 273.098 425.406 277.364C426.473 279.764 429.94 286.964 432.873 293.364C435.94 299.898 440.74 310.298 443.806 316.698C446.873 323.231 449.806 329.898 450.473 331.631C451.273 333.631 452.206 334.431 453.006 333.631C455.806 330.831 449.006 309.098 439.006 289.098C431.806 274.698 428.606 263.231 428.473 251.231C428.34 239.764 429.94 234.031 435.273 226.831L438.34 222.698L433.806 219.898C427.806 216.164 427.14 216.298 425.273 221.631C422.873 228.031 411.673 239.764 407.806 239.764C401.673 239.764 398.873 224.431 403.54 215.764C406.34 210.431 414.606 205.098 420.073 205.098C425.806 205.098 432.873 208.564 437.673 213.764L441.94 218.564L450.473 217.231C455.14 216.431 461.273 215.764 463.94 215.764C468.473 215.764 469.006 216.164 469.006 219.098C469.006 224.298 463.806 226.831 455.673 225.764C448.873 224.831 447.273 225.898 451.006 229.098C454.34 231.764 453.406 235.364 449.006 236.831C439.94 240.031 437.14 253.364 442.34 268.564C445.406 277.498 448.073 280.298 451.806 278.298C453.806 277.231 454.873 278.031 457.94 282.698C461.006 287.764 484.74 335.764 488.74 345.364C490.473 349.631 489.14 350.964 484.606 349.231C482.74 348.564 480.873 348.298 480.473 348.698C480.073 349.231 479.673 367.231 479.673 388.698C479.673 430.431 478.873 437.498 473.673 442.431C467.406 448.298 467.14 446.431 468.073 402.564C468.606 380.164 469.406 356.164 469.806 349.364C470.606 338.431 470.473 337.098 468.473 337.098C467.273 337.098 465.14 339.098 463.673 341.364C461.14 345.498 461.006 348.298 461.006 388.431C461.006 428.564 460.873 431.364 458.34 435.364C455.673 439.898 452.073 440.964 449.273 438.164C448.073 436.964 447.673 425.231 447.673 393.364C447.673 354.564 447.406 350.164 445.54 350.964C444.34 351.364 443.273 351.764 442.873 351.764C442.606 351.764 441.14 354.298 439.54 357.364C436.873 362.564 436.74 364.298 437.406 380.431C437.94 389.898 438.606 403.631 439.14 410.698L440.073 423.764H436.74C433.273 423.764 430.473 421.364 427.806 416.031C426.873 414.431 426.073 406.698 425.94 399.098C425.673 387.898 425.273 384.698 423.406 382.831C422.073 381.631 420.74 380.831 420.473 381.231C420.206 381.498 419.406 397.231 418.873 416.031L417.94 450.298L413.94 451.764C409.006 453.364 409.406 453.898 421.673 460.431C435.14 467.764 455.006 478.698 475.273 490.031C485.006 495.364 495.406 501.098 498.34 502.564C504.606 505.764 505.006 508.964 499.406 510.964C496.74 511.898 492.74 511.231 482.073 507.898C459.94 500.831 435.673 490.964 425.14 484.431C419.673 481.098 415.006 478.698 414.606 479.098C413.273 480.431 419.006 485.498 430.74 493.364C445.673 503.364 449.673 509.098 449.673 520.298C449.673 539.364 436.473 552.031 403.006 565.098C374.073 576.431 350.606 596.164 336.74 620.698C331.54 629.898 329.673 631.098 330.873 624.298C331.273 621.498 332.34 614.831 333.006 609.764C333.806 604.564 334.74 599.364 335.14 598.031C335.54 596.698 335.14 595.764 334.206 595.764C333.273 595.764 322.473 602.431 309.94 610.564C297.54 618.564 286.74 624.964 285.94 624.698C285.14 624.431 289.14 619.231 294.873 613.231C300.606 607.231 305.006 602.031 304.74 601.631C304.34 601.364 297.273 604.298 288.873 608.431C274.073 615.498 268.873 616.964 265.273 614.564C261.273 612.031 264.606 608.831 277.673 602.964C285.006 599.498 291.54 596.298 292.206 595.631C293.006 594.964 290.206 594.431 285.406 594.431C280.606 594.431 276.74 593.764 276.206 592.831C273.54 588.564 291.006 581.498 307.94 579.898C326.74 578.164 330.34 572.031 325.673 549.364C324.606 544.298 325.14 544.164 331.273 547.898C345.54 556.698 366.873 556.298 387.94 546.698C400.073 541.231 420.74 528.031 423.14 524.431C425.94 520.031 424.74 515.364 417.14 499.764C408.606 482.698 401.273 470.964 391.006 457.631C379.673 443.231 379.406 441.098 389.94 447.098C393.006 448.964 395.673 450.164 395.673 449.764C395.673 449.364 394.34 446.431 392.873 443.498C382.606 423.364 378.606 394.964 382.873 372.831C385.14 361.098 387.273 358.031 396.606 354.431C407.673 350.031 417.406 343.231 421.673 336.964C429.273 326.164 426.74 309.898 416.606 303.764C409.94 299.631 407.94 300.298 406.34 306.698C404.473 314.831 396.873 340.298 396.206 340.964C395.94 341.231 394.74 340.698 393.54 339.631C391.806 338.164 391.54 336.298 392.206 329.764C394.74 305.631 394.606 300.564 391.806 296.031C388.073 290.164 383.54 288.564 377.673 290.964C372.073 293.364 368.606 299.898 366.34 312.431C363.806 326.831 356.873 337.098 353.006 332.431C351.006 330.031 352.206 322.298 356.74 309.098C362.606 291.631 360.473 276.564 351.54 272.164C347.006 269.898 346.206 270.964 338.74 290.164C335.14 299.231 331.673 306.564 331.006 306.564C327.94 306.164 328.073 298.964 331.14 284.031C332.873 275.498 334.34 266.964 334.34 265.098C334.34 254.031 325.806 241.898 318.74 242.698C316.206 242.964 315.14 243.764 315.406 245.098C316.473 249.764 318.34 270.431 318.34 277.764C318.34 286.031 316.873 290.698 315.14 287.898C312.473 283.631 305.006 250.164 303.006 233.498C301.94 225.364 299.94 223.231 293.273 223.364C289.806 223.498 287.54 224.564 285.406 227.098C281.14 232.031 281.406 240.431 286.34 254.831C290.34 266.431 291.14 271.764 289.406 273.498C288.206 274.831 286.74 272.298 275.673 251.098C270.34 240.831 265.406 231.764 264.74 231.098C263.94 230.298 263.806 233.498 264.473 239.364C265.806 253.098 262.473 252.164 254.606 236.431C249.006 225.231 247.406 218.298 247.406 204.964C247.406 191.764 248.473 187.364 256.073 172.164L261.406 161.231L257.14 157.098C253.273 153.098 253.006 152.298 253.006 142.564C253.006 128.698 249.673 124.298 237.006 121.898C229.673 120.564 222.473 112.031 225.806 108.698C226.34 108.298 228.74 109.364 231.14 111.364C236.206 115.098 237.94 115.098 248.606 110.298C255.273 107.498 255.54 107.364 259.006 109.631C261.406 111.231 262.34 112.698 261.673 114.164C261.14 115.364 260.74 116.964 260.606 117.631C260.206 119.764 270.473 122.564 274.873 121.631L278.873 120.831L266.606 109.231C253.673 97.0978 252.34 94.4311 256.873 88.9645C260.473 84.4311 257.806 76.5644 249.406 67.4978C246.073 64.0311 246.073 63.8978 248.206 57.6311C251.406 48.2978 250.606 34.4311 247.006 34.4311C245.406 34.4311 242.873 39.3644 242.073 44.2978C241.806 45.7644 240.873 47.0978 240.073 47.3644C238.073 48.0311 236.473 44.1644 235.14 36.2978C234.206 31.3644 234.606 30.4311 238.206 26.9644C240.473 24.8311 242.34 22.4311 242.34 21.6311C242.34 18.8311 228.74 13.8978 219.54 13.3644C208.873 12.6978 201.006 16.0311 197.54 22.6978C193.273 31.0978 192.873 64.5644 197.006 78.4311C198.873 84.8311 196.873 86.2978 191.14 82.2978C186.206 78.9644 179.673 69.8978 179.673 66.4311C179.673 60.4311 170.74 59.0978 166.473 64.5644C165.006 66.4311 163.406 69.0978 163.006 70.5644C161.673 74.5644 159.006 73.6311 153.806 67.4978C146.339 58.8311 143.406 49.3644 143.939 35.7644C144.206 26.5644 145.006 22.9644 148.206 16.6978C150.206 12.4311 151.673 8.56442 151.273 8.16442C150.873 7.76442 147.539 10.2978 143.939 13.6311C140.339 16.9644 136.739 19.7644 136.073 19.7644C135.273 19.7644 132.206 17.8978 129.139 15.7644L123.539 11.6311L114.606 13.7644C101.406 16.9644 100.206 17.6311 97.5395 24.2978C94.6062 31.3644 91.8062 32.1644 87.8062 26.6978L85.1395 23.0978L72.0728 29.6311C57.8062 36.9644 47.4062 46.0311 43.0062 55.0978C39.5395 62.5644 38.8728 74.2978 41.5395 81.0978C44.2062 87.7644 44.2062 90.4311 41.6728 90.4311C39.0062 90.4311 33.2728 78.5644 31.1395 68.6978L29.5395 60.4311L25.2728 67.0978C21.1395 73.6311 21.2728 77.0978 25.6728 77.0978C26.6062 77.0978 28.0728 77.8978 28.8728 78.9644C30.2062 80.5644 29.8062 82.0311 27.0062 86.1645C19.8062 97.0978 17.6728 113.764 21.6728 127.364C25.6728 140.964 30.8728 143.631 43.5395 138.698C51.1395 135.764 52.2062 133.098 45.6728 133.098C35.5395 133.098 25.9395 124.031 25.8062 114.164C25.6728 111.098 26.2062 108.564 27.0062 108.298C27.6728 108.031 31.5395 112.698 35.5395 118.431C39.5395 124.298 43.0062 129.098 43.4062 129.098C43.6728 129.098 45.6728 127.631 47.9395 125.764C51.2728 122.964 53.1395 122.431 61.1395 122.431C67.9395 122.431 71.9395 121.631 75.9395 119.631C80.8728 117.098 83.0062 116.831 94.8728 117.498C102.339 117.898 112.473 118.831 117.673 119.631C127.273 121.231 139.673 120.431 139.673 118.298C139.673 117.631 138.606 117.098 137.273 117.098C131.406 116.964 84.7395 111.898 84.0728 111.231C82.8728 110.164 85.0062 107.764 89.2728 105.631C95.5395 102.431 107.673 102.698 113.673 106.298C116.473 107.898 119.006 108.831 119.406 108.431C120.873 107.098 117.006 100.964 113.673 99.4978C109.539 97.6311 109.539 96.6978 113.139 93.2311C119.806 87.0978 134.473 82.4311 147.673 82.4311C159.806 82.4311 177.14 86.9645 189.673 93.2311C220.073 108.698 250.34 142.031 250.34 160.431C250.34 163.498 249.94 166.298 249.54 166.831C247.14 169.098 229.006 156.164 229.006 152.164C229.006 151.098 230.873 150.031 233.006 149.498C235.273 149.098 237.406 148.164 237.806 147.631C238.74 145.898 232.34 143.764 226.473 143.764C221.806 143.764 221.273 143.364 218.873 138.031C214.206 127.631 201.806 114.031 190.073 106.298C183.94 102.298 181.006 102.164 181.006 105.631C181.006 108.431 175.406 112.698 166.073 116.964C159.673 119.764 156.206 122.298 154.34 125.364C151.139 130.698 151.139 130.964 153.806 133.631C155.406 135.364 159.14 135.764 171.673 135.764C180.34 135.764 187.806 135.231 188.206 134.698C188.606 134.031 188.206 129.498 187.54 124.564C185.54 111.631 187.273 110.564 195.673 119.631C201.806 126.164 211.673 143.231 211.673 147.231C211.673 150.431 209.406 149.231 205.14 144.164C202.873 141.498 200.873 139.498 200.606 139.898C200.473 140.164 198.606 142.964 196.606 146.031C190.073 156.431 173.94 162.964 162.74 159.898C158.073 158.698 157.406 157.898 155.94 152.564C152.739 140.564 140.606 137.498 121.673 143.764C89.6728 154.164 61.4062 166.164 56.0728 171.498C49.6728 177.764 49.1395 181.631 53.8062 186.698C58.6062 191.764 69.5395 197.098 75.5395 197.098C79.5395 197.098 79.9395 197.364 79.2728 200.564C78.7395 203.898 78.7395 203.898 84.8728 203.231C88.2062 202.831 102.073 201.898 115.673 201.098C147.539 199.098 146.873 199.231 145.539 194.698C144.073 189.764 144.339 183.898 146.073 182.164C147.006 181.231 149.139 183.231 153.006 188.698C160.873 199.364 160.74 199.231 162.473 195.231C164.606 190.698 169.806 187.898 180.34 185.764C192.74 183.098 200.873 178.698 209.406 170.031C213.806 165.631 217.94 162.564 219.006 162.831C221.273 163.764 222.74 170.698 221.673 175.764C220.74 180.298 213.673 186.831 207.006 189.764C200.34 192.431 201.273 193.631 209.273 192.698C218.34 191.764 223.406 189.098 230.206 181.764C240.34 170.831 244.873 174.698 241.54 191.364C239.406 201.631 239.806 208.298 243.14 220.698C244.473 225.764 241.273 224.164 237.406 218.031C235.406 214.964 232.473 209.231 230.873 205.364C229.406 201.498 227.673 198.031 227.273 197.631C226.873 197.231 219.406 197.764 210.74 198.964C202.073 200.031 187.94 201.898 179.273 203.098C170.74 204.164 156.74 206.031 148.339 207.098C139.939 208.164 125.939 210.031 117.273 211.231C95.6728 214.164 68.0728 214.164 57.1395 211.231C44.7395 207.898 34.3395 202.298 28.0728 195.364C14.3395 180.564 15.5395 165.498 30.6062 159.231C36.7395 156.698 37.0062 156.698 42.3395 159.098L47.6728 161.498L51.4062 158.164C58.8728 151.098 66.8728 148.298 84.8728 146.431C91.8062 145.631 98.2062 144.431 99.2728 143.631C100.206 142.831 101.006 139.898 101.006 137.098C101.006 132.964 100.206 131.231 96.7395 128.431C93.1395 125.364 91.5395 124.964 86.2062 125.364C79.8062 126.031 74.7395 128.698 59.9395 139.098C49.9395 146.164 37.5395 150.298 23.0062 151.364C10.2062 152.298 5.00616 150.298 1.53949 143.098C-2.99384 133.498 3.00616 97.4978 12.8728 74.4311C30.0728 34.4311 63.9395 10.0311 111.006 3.89775C117.539 2.96442 126.606 1.63109 131.139 0.96442C141.006 -0.502246 179.94 -0.23558 191.006 1.36442ZM183.273 11.3644C181.806 12.6978 186.74 15.6311 190.606 15.7644C194.473 15.7644 195.94 12.5644 192.606 11.3644C190.206 10.2978 184.206 10.2978 183.273 11.3644ZM181.54 49.8978C181.94 50.9644 182.873 51.7644 183.673 51.7644C185.54 51.7644 185.406 47.3644 183.273 45.2311C181.94 43.8978 181.54 44.0311 181.273 45.7644C181.006 46.9644 181.14 48.8311 181.54 49.8978ZM135.806 92.2978C133.806 93.3645 131.273 95.2311 130.339 96.5645C128.606 98.5645 128.873 98.6978 135.273 97.7645C142.606 96.8311 147.673 98.4311 147.673 101.764C147.673 103.231 146.073 103.764 142.339 103.764C139.406 103.764 137.006 104.431 137.006 105.098C137.006 107.364 140.473 108.031 145.406 106.698C148.606 105.764 151.406 105.898 155.14 107.231C157.94 108.298 162.073 109.098 164.34 108.964C168.073 108.964 168.206 108.831 165.673 107.364C164.206 106.431 160.34 102.964 157.006 99.6311C147.539 90.0311 143.273 88.5645 135.806 92.2978ZM291.94 120.031C289.673 122.298 289.94 133.898 292.473 138.831C293.673 141.231 298.206 147.764 302.473 153.498C306.873 159.231 310.606 165.498 311.14 167.498C312.473 174.164 315.673 179.898 321.406 186.164C329.54 194.964 332.34 199.364 335.006 207.764C337.54 216.031 340.473 221.098 342.34 221.098C344.74 221.098 343.673 215.898 338.34 201.764C331.806 184.564 331.54 179.098 337.006 169.231C339.273 165.231 341.006 161.498 341.006 160.831C341.006 159.098 337.806 159.498 333.006 162.031C327.273 164.831 322.073 164.831 317.806 161.898C313.54 159.098 313.273 154.431 317.006 144.964C320.473 136.298 319.806 133.364 315.14 136.431C307.006 141.764 297.406 137.098 298.74 128.431C299.94 120.831 296.073 115.898 291.94 120.031ZM8.20616 137.898C8.60616 138.964 9.67283 139.764 10.4728 139.764C11.9395 139.764 11.1395 131.231 9.27283 128.431C8.07283 126.831 7.27283 135.364 8.20616 137.898ZM272.206 137.231C271.14 139.098 272.873 140.698 276.873 141.364C281.14 141.898 281.94 139.231 278.073 137.364C274.073 135.498 273.406 135.498 272.206 137.231ZM181.673 146.564C181.673 148.831 187.94 149.098 188.606 146.831C188.873 146.031 188.073 145.098 186.74 144.698C183.273 143.764 181.673 144.431 181.673 146.564ZM161.673 145.631C159.273 147.364 159.406 147.498 163.54 149.631C168.206 152.031 174.473 152.031 175.273 149.631C175.806 148.164 168.473 143.898 165.54 143.764C164.873 143.764 163.006 144.564 161.673 145.631ZM285.673 159.231C283.14 163.098 284.073 165.098 287.406 162.964C289.806 161.364 291.273 155.764 289.273 155.764C288.606 155.764 287.006 157.364 285.673 159.231ZM295.406 166.031C294.073 167.231 293.006 169.231 293.006 170.698C293.006 172.564 294.073 173.098 298.34 173.098C304.073 173.098 305.006 171.364 302.34 166.298C300.606 163.231 298.606 163.098 295.406 166.031ZM27.2728 168.698C26.7395 168.964 26.3395 169.898 26.3395 170.698C26.3395 171.631 28.0728 171.764 31.1395 171.364C36.7395 170.431 37.6728 169.898 36.3395 167.898C35.6728 166.564 30.2062 167.098 27.2728 168.698ZM33.0062 182.298C33.0062 183.764 49.0062 198.431 50.6062 198.431C53.2728 198.431 51.1395 195.498 43.4062 188.564C35.4062 181.231 33.0062 179.898 33.0062 182.298ZM257.673 185.764C253.673 189.631 253.406 193.898 257.006 194.831C260.74 195.764 263.673 193.098 264.606 187.364C265.273 183.364 265.006 182.431 263.14 182.431C261.94 182.431 259.406 183.898 257.673 185.764ZM300.473 188.564C297.806 191.098 297.673 193.098 300.206 193.098C302.606 193.098 305.406 189.498 304.34 187.764C303.273 186.031 302.873 186.031 300.473 188.564ZM269.006 200.431C265.14 202.431 263.54 206.431 266.473 206.431C268.873 206.431 275.806 200.964 275.006 199.631C273.94 198.031 273.54 198.031 269.006 200.431ZM319.94 202.698C320.74 205.098 323.673 205.498 323.673 203.231C323.673 202.031 322.74 201.098 321.54 201.098C320.34 201.098 319.673 201.764 319.94 202.698ZM349.006 256.431C349.006 257.498 349.94 258.431 351.006 258.431C352.073 258.431 353.006 257.498 353.006 256.431C353.006 255.364 352.073 254.431 351.006 254.431C349.94 254.431 349.006 255.364 349.006 256.431ZM381.006 266.164C381.006 268.298 387.406 273.364 388.206 271.898C388.74 271.231 387.673 269.364 386.073 267.898C383.006 264.964 381.006 264.298 381.006 266.164ZM410.34 370.298C411.94 373.364 414.34 374.031 414.34 371.498C414.34 369.364 409.806 364.564 409.273 366.298C409.006 366.964 409.54 368.831 410.34 370.298ZM395.406 371.231C395.94 374.298 397.94 376.564 399.14 375.364C399.673 374.964 399.54 372.964 399.14 371.098C398.073 367.098 394.74 367.364 395.406 371.231ZM401.006 396.298C401.806 399.098 403.406 401.098 404.606 401.098C405.94 401.098 406.34 400.298 405.806 398.964C405.406 397.764 405.006 396.431 405.006 395.764C405.006 394.164 400.873 390.164 400.073 390.964C399.673 391.231 400.073 393.764 401.006 396.298ZM395.14 419.231C391.94 420.431 392.606 421.764 397.673 424.564C401.006 426.298 403.006 428.698 404.473 432.698C407.006 439.364 409.673 438.964 408.34 432.031C407.273 426.298 404.74 422.431 400.74 420.164C397.006 418.164 397.673 418.298 395.14 419.231ZM369.273 569.364C366.34 572.298 367.673 573.231 371.673 571.098C373.806 569.898 375.673 568.698 375.673 568.431C375.673 567.098 370.873 567.764 369.273 569.364ZM343.94 580.564C340.34 581.631 340.206 583.898 343.673 587.098C346.34 589.498 346.473 589.498 349.273 586.831C353.94 582.031 351.14 578.698 343.94 580.564ZM309.006 591.764C309.006 592.431 309.54 593.098 310.34 593.098C311.006 593.098 311.673 592.431 311.673 591.764C311.673 590.964 311.006 590.431 310.34 590.431C309.54 590.431 309.006 590.964 309.006 591.764Z" fill="#EDDFBB"/>
<path d="M327.138 175.096C329.538 178.83 328.872 182.43 325.805 182.43C323.138 182.43 319.138 176.296 320.205 173.763C321.272 170.696 324.738 171.363 327.138 175.096Z" fill="#EDDFBB"/>
<path d="M221.537 22.43C229.403 31.8966 233.937 64.1633 230.203 84.5633C229.403 88.83 228.337 92.9633 227.67 93.63C225.937 95.4966 213.537 87.8966 208.87 82.1633C199.27 70.1633 196.87 51.23 202.47 33.7633C207.537 18.6966 214.737 14.43 221.537 22.43ZM213.403 42.03C214.87 50.5633 221.003 56.9633 221.003 49.8966C221.003 46.6966 218.07 38.5633 216.203 36.83C214.203 34.83 212.737 37.63 213.403 42.03Z" fill="#EDDFBB"/>
<path d="M124.74 20.563C128.606 23.2297 128.473 25.8964 124.34 28.563C121.14 30.6964 114.34 30.2964 114.34 28.0297C114.34 26.4297 119.54 18.4297 120.74 18.4297C121.273 18.4297 123.14 19.363 124.74 20.563Z" fill="#EDDFBB"/>
<path d="M831.94 30.4306C834.34 31.8972 835.273 36.8306 839.673 70.4306C841.273 81.7639 842.74 93.0972 843.14 95.3639C843.806 98.8306 843.54 99.7639 841.94 99.7639C839.006 99.7639 838.606 98.8306 836.34 87.0972C835.273 81.3639 833.94 76.2972 833.54 75.8972C832.206 74.6972 833.94 99.3639 835.806 107.764C836.74 111.897 837.006 116.831 836.473 118.964C835.673 121.897 835.006 122.564 831.94 122.164L828.34 121.764L827.54 99.0972C826.74 80.0306 825.94 73.7639 822.473 59.6306C820.206 50.4306 818.34 41.8972 818.34 40.6972C818.34 36.8306 821.273 32.0306 824.606 30.5639C828.473 28.8306 829.006 28.8306 831.94 30.4306ZM826.34 45.7639C831.006 57.3639 833.54 56.5639 830.206 44.4306C828.34 37.7639 826.34 35.2306 824.606 36.9639C823.806 37.7639 824.34 40.8306 826.34 45.7639Z" fill="#EDDFBB"/>
<path d="M110.338 33.7647C112.871 35.6314 115.938 37.098 117.271 37.098C123.005 37.098 120.338 41.3647 112.071 45.6314C105.538 48.8314 103.671 48.4314 103.671 43.6314C103.671 39.7647 103.405 39.498 99.6712 40.0314C94.2045 40.8314 93.5378 39.2314 97.0045 34.4314C100.471 29.6314 104.071 29.3647 110.338 33.7647Z" fill="#EDDFBB"/>
<path d="M855.673 33.0958C856.74 33.7625 862.34 34.4291 868.073 34.4291C874.606 34.4291 879.54 35.0958 881.406 36.2958C883.006 37.3625 889.673 38.5625 896.34 38.9625C914.073 40.2958 943.406 45.2291 944.206 47.0958C944.473 47.8958 944.206 49.4958 943.54 50.5625C942.606 52.1625 941.94 52.1625 939.54 50.6958C934.74 47.6291 933.673 50.8291 937.54 56.9625C941.14 62.5625 941.94 66.4291 939.806 66.4291C937.14 66.4291 931.273 60.0291 929.806 55.7625C928.206 50.8291 923.673 48.9625 910.206 47.3625C899.806 46.1625 899.273 46.6958 901.806 58.5625C903.406 65.6291 903.806 72.6958 903.273 83.7625C902.606 100.696 901.673 104.162 898.473 103.496C895.273 102.829 893.14 92.5625 894.473 83.7625C897.54 61.4958 894.473 50.2958 884.073 47.2291C881.14 46.2958 881.006 46.5625 881.806 52.1625C882.74 58.4291 880.873 63.7625 877.806 63.7625C876.606 63.7625 875.806 60.6958 875.273 52.9625C874.873 47.0958 874.34 41.8958 873.94 41.4958C872.873 40.5625 865.94 44.4291 863.14 47.6291C859.54 51.6291 857.94 51.0958 855.406 44.9625C854.073 41.8958 852.473 39.8958 851.673 40.4291C849.54 41.7625 850.073 57.2291 853.006 72.0291C855.94 86.9625 856.473 104.429 854.206 105.762C853.406 106.296 852.606 106.429 852.206 106.029C851.806 105.762 849.406 90.6958 846.873 72.5625C842.873 44.2958 842.473 39.0958 843.94 36.0291C845.806 32.1625 851.94 30.5625 855.673 33.0958Z" fill="#EDDFBB"/>
<path d="M87.4061 37.8985C86.8728 40.5651 82.8728 43.3652 81.4061 42.0318C80.0728 40.5651 82.8728 36.5651 85.5395 36.0318C87.1395 35.6318 87.8061 36.2985 87.4061 37.8985Z" fill="#EDDFBB"/>
<path d="M73.6734 37.0979C74.0734 37.8979 73.54 38.8313 72.34 39.2313C69.8067 40.2979 68.34 39.2313 69.6734 37.2313C70.74 35.3646 72.6067 35.3646 73.6734 37.0979Z" fill="#EDDFBB"/>
<path d="M811.003 40.297C813.803 44.4303 815.27 54.5637 817.003 82.4303C817.803 95.2303 818.737 109.23 819.137 113.364C819.803 119.497 819.537 121.097 818.07 121.097C817.003 121.097 815.537 120.43 814.603 119.497C813.403 118.297 813.003 118.564 813.003 120.697C813.003 124.297 817.937 131.364 829.403 144.03C861.403 179.23 878.87 221.097 881.937 269.097C882.87 284.83 881.537 299.764 879.003 299.764C878.07 299.764 877.003 298.164 876.737 296.03C876.337 294.03 874.203 283.364 871.937 272.43C868.07 253.897 865.003 235.364 862.87 216.697C862.07 209.23 860.337 206.964 858.737 211.364C858.203 212.564 858.87 223.23 860.203 234.964C864.203 271.23 868.603 314.43 871.67 345.097C879.27 422.697 879.67 425.097 881.937 425.097C887.67 425.097 898.603 415.097 903.403 405.497C906.47 399.497 910.337 388.697 914.87 373.097C916.603 366.83 919.67 356.697 921.537 350.43C927.27 330.964 928.337 323.23 926.47 314.83C924.337 305.897 918.737 299.764 906.603 293.23C901.937 290.83 895.937 286.964 893.403 284.697C886.603 278.697 882.337 267.764 886.87 267.764C889.403 267.764 906.203 280.43 921.403 293.764C927.937 299.364 933.403 303.764 933.803 303.364C935.137 302.164 928.737 287.897 924.603 282.564C919.403 276.03 910.47 269.23 903.937 267.097L899.003 265.364L898.07 248.164C896.47 217.897 888.203 193.364 870.603 167.364C859.27 150.43 855.803 143.497 855.67 137.63C855.67 132.164 854.737 131.497 850.203 133.764C848.203 134.83 845.137 135.764 843.67 135.764C841.27 135.764 842.07 137.23 849.137 145.364C874.603 174.83 890.07 211.897 892.603 248.697C893.27 259.364 893.137 261.097 891.403 261.097C886.737 261.097 884.603 255.097 880.337 229.097C874.07 191.63 854.737 159.23 823.27 133.364C819.67 130.43 819.403 127.764 822.87 127.764C823.803 127.764 830.47 125.23 837.803 122.297C853.937 115.63 863.67 114.83 872.603 119.497C879.67 123.23 882.203 126.83 883.537 135.897C885.27 146.564 890.603 150.03 903.67 149.23C905.537 149.097 912.47 146.564 919.137 143.63C933.27 137.63 941.67 136.83 948.737 141.097C957.137 146.297 957.67 154.297 949.537 155.764C938.47 157.764 929.67 188.697 934.337 208.564C936.337 216.83 942.737 225.097 949.003 227.764C955.003 230.297 955.537 228.297 950.07 223.364C943.537 217.364 940.737 210.297 940.737 199.764C940.737 190.164 943.003 183.63 948.47 177.23C957.937 165.897 971.27 166.297 980.737 178.03L984.737 183.097L990.203 171.764C993.137 165.497 997.003 156.564 998.737 151.897C1002.07 142.164 1005 139.764 1005 146.564C1005 148.964 1005.94 153.497 1007.14 156.43L1009.14 162.03L999.803 176.43C989.803 191.764 983.27 205.764 980.87 217.23C979.403 224.03 979.803 238.83 981.803 255.497C982.603 262.297 982.337 263.097 973.27 280.83C954.737 316.83 942.737 352.43 936.337 389.764C933.803 404.43 931.137 433.764 932.07 436.164C932.47 437.097 940.337 442.297 949.537 447.63C958.737 453.097 966.337 458.164 966.337 459.097C966.337 460.164 964.07 462.297 961.27 464.03C956.603 466.964 955.403 467.097 934.337 466.697C910.87 466.297 903.403 467.364 892.07 472.564C886.87 474.83 884.87 476.564 884.203 479.23C881.67 489.364 887.537 570.697 891.67 582.43C893.27 587.23 893.403 574.83 891.67 554.164C887.937 504.83 887.537 493.897 889.27 488.564C891.403 482.297 894.603 479.764 897.937 481.897C901.27 483.897 901.803 489.23 899.003 491.23C896.87 492.83 896.87 493.23 899.537 496.964C904.203 503.497 908.07 513.097 909.803 523.097C911.003 529.764 911.537 550.297 911.537 594.164C911.67 634.964 912.07 655.63 913.003 655.097C913.67 654.697 914.337 651.63 914.337 648.43C914.337 641.764 916.203 639.764 919.403 642.964C921.403 644.964 921.67 649.23 921.67 677.497V709.764L926.07 721.764C931.67 736.964 932.87 749.497 929.803 757.63C927.67 763.23 921.003 770.697 916.737 772.03C913.937 772.964 917.937 777.097 921.67 777.097C926.337 777.097 930.47 771.23 938.737 752.697C957.137 712.03 957.27 685.497 939.137 661.764C928.737 648.164 923.27 632.297 921.537 610.164C920.603 597.364 921.67 595.364 925.937 602.43C927.937 605.764 930.337 607.764 930.337 605.897C930.337 602.697 926.07 569.63 925.537 568.83C925.137 568.164 923.67 568.03 922.203 568.43C918.87 569.497 919.003 567.364 922.603 559.897C925.27 554.697 925.67 551.764 925.537 539.764C925.537 525.097 924.337 521.097 917.937 511.764L914.737 507.23L919.403 502.83C923.403 498.964 923.937 498.03 923.137 493.764C922.07 488.697 922.203 488.564 930.603 489.897C936.737 490.964 936.87 492.43 931.67 500.83C929.403 504.43 927.67 507.764 927.67 508.297C927.67 510.03 930.203 508.964 934.203 505.63C939.67 501.097 941.937 493.364 939.67 487.764C937.003 481.23 939.803 479.764 944.87 484.83C951.403 491.23 950.737 497.097 942.07 509.897C935.27 519.897 935.003 520.564 935.003 529.23C935.003 538.164 935.137 538.697 953.003 573.897C973.803 615.097 972.337 611.764 970.203 611.764C969.137 611.764 965.27 608.43 961.537 604.297C954.337 596.43 950.737 595.63 952.337 602.297C953.67 607.497 958.07 611.497 967.803 616.43C978.603 621.897 987.803 631.764 991.537 641.897C994.07 648.43 994.337 652.164 994.337 680.297C994.337 724.697 989.137 767.097 981.937 781.097C977.27 790.03 967.803 795.764 960.337 793.897C957.003 793.097 955.67 788.697 958.337 787.097C959.137 786.697 959.67 785.097 959.67 783.63C959.67 780.43 959.003 780.564 943.67 786.697C930.737 791.764 926.737 794.43 919.27 802.297C907.403 815.097 905.803 825.764 912.737 846.164C918.47 863.097 918.337 868.564 912.203 876.03C905.937 883.364 904.203 887.497 900.203 905.497C892.737 938.43 888.337 942.43 850.337 950.297C839.67 952.564 826.47 955.23 821.003 956.564C803.537 960.43 801.27 960.43 797.537 956.964C792.337 952.03 793.403 948.83 801.937 943.097C821.537 930.164 847.537 904.964 850.47 896.03C851.937 891.63 851.403 887.764 849.27 887.764C848.603 887.764 845.803 891.097 843.003 895.23C837.137 903.764 828.603 911.63 820.07 916.43C810.87 921.497 807.937 920.564 812.47 913.897C813.937 911.364 814.07 910.43 812.87 909.63C810.87 908.43 806.337 913.764 806.337 917.23C806.337 920.697 801.537 920.564 799.67 916.964C797.403 912.83 799.003 908.564 804.603 903.497C830.337 880.297 841.27 866.564 850.337 845.364C859.803 823.497 861.403 813.764 861.803 779.097C862.07 744.964 862.87 739.897 869.67 722.164C872.337 715.364 876.203 705.364 878.337 700.03C884.87 683.23 885.67 678.03 885.537 653.764C885.403 632.964 880.203 568.697 877.003 548.697C875.537 539.364 870.87 528.697 865.537 522.43C860.07 516.03 858.337 511.497 858.337 504.03C858.337 497.764 862.07 487.63 864.87 485.897C868.47 483.63 865.67 482.43 857.003 482.43C836.603 482.43 829.67 471.364 837.27 450.964C840.603 441.764 841.27 421.497 838.603 405.097C837.67 399.63 836.337 391.497 835.67 387.097C825.67 323.764 814.07 263.497 805.537 230.43C803.003 220.697 803.137 219.897 807.003 218.964C810.203 218.164 810.07 217.897 800.87 207.23C795.67 201.364 784.203 187.364 775.403 176.43C766.603 165.364 758.603 155.897 757.67 155.23C756.737 154.564 755.003 154.43 753.803 154.83C751.937 155.63 753.003 157.63 760.07 166.964C794.737 212.297 814.737 266.03 819.803 327.097C821.137 342.83 821.137 350.964 819.803 366.964C818.07 388.164 816.07 399.764 814.47 399.764C813.803 399.764 812.737 380.964 811.803 358.03C808.603 274.43 808.87 276.164 798.07 270.164L792.337 266.964L792.737 257.364C793.27 247.897 793.137 247.764 790.07 248.03C787.67 248.297 786.47 247.364 784.737 243.764C783.537 241.23 782.07 237.364 781.537 235.364C780.737 232.03 781.003 231.63 783.137 232.03C784.47 232.297 787.003 234.83 788.737 237.764L791.937 243.097L791.27 237.497C790.47 230.564 784.203 216.697 779.003 210.697C775.937 207.097 774.603 206.43 771.67 207.097C768.47 207.764 767.403 207.097 763.137 201.23C756.203 191.364 749.937 184.83 741.67 178.43C733.403 172.03 730.47 172.297 736.603 178.83C738.87 181.097 743.937 187.63 747.937 193.097C790.737 252.164 811.003 327.097 803.537 398.697C800.603 427.097 797.003 430.83 797.003 405.364C797.003 387.63 794.07 347.364 791.67 330.697C787.937 304.43 781.937 281.23 771.403 251.764C766.337 237.497 765.27 236.164 762.737 239.764C759.537 244.164 757.937 242.297 757.67 233.764C757.403 222.964 753.137 215.097 739.537 200.297C726.737 186.297 720.603 177.364 718.603 169.23C717.003 162.564 717.537 160.164 721.003 159.097C722.47 158.697 725.137 156.43 727.003 154.297C732.337 147.897 731.67 138.564 724.203 116.83C714.737 89.3637 711.67 79.3637 711.67 76.697C711.67 69.497 719.803 62.8303 724.737 65.897C727.27 67.6303 741.803 111.23 743.67 123.097C745.27 133.097 744.603 141.097 741.537 148.43C739.137 154.164 741.137 154.564 745.937 149.364C752.203 142.564 754.603 136.03 754.603 125.897C754.47 114.564 751.937 106.43 742.47 88.5637C734.203 72.8303 733.537 66.9637 739.537 60.9637C745.403 55.2303 751.67 55.897 755.137 62.5637C756.203 64.697 758.603 72.9637 760.337 80.8303C768.203 114.964 771.67 130.564 771.67 132.43C771.67 133.497 770.203 134.697 768.337 135.23C765.27 136.03 761.403 139.364 762.47 140.297C762.737 140.564 767.537 139.764 773.003 138.43C778.47 137.23 786.603 135.364 790.87 134.297C795.27 133.364 800.203 131.364 802.07 129.764C805.537 126.83 805.67 130.697 801.003 85.7637C800.337 79.097 799.27 67.097 798.87 58.8303C798.07 46.1637 798.337 43.3637 800.203 40.4303C803.003 36.1637 808.203 36.0303 811.003 40.297ZM805.67 58.0303C807.137 72.297 807.937 75.7637 809.137 74.9637C810.737 74.0303 810.603 65.3637 808.87 57.097C806.87 47.7637 804.603 48.4303 805.67 58.0303ZM746.337 69.7637C746.337 72.1637 748.87 82.0303 751.803 91.3637C757.137 107.63 759.67 113.364 759.67 108.964C759.67 107.23 751.137 71.3637 749.67 66.697C748.47 63.3637 746.337 65.2303 746.337 69.7637ZM719.67 75.2303C719.67 84.1637 737.67 140.964 739.803 138.83C740.87 137.764 725.137 77.897 723.003 74.4303C721.67 72.4303 719.67 72.8303 719.67 75.2303ZM865.67 130.297C864.737 131.897 868.603 135.764 871.003 135.764C874.07 135.764 874.87 132.83 872.337 130.83C869.403 128.83 866.87 128.564 865.67 130.297ZM783.003 162.83C805.003 186.43 819.137 213.897 827.803 249.764C832.337 268.964 834.203 282.83 838.337 330.03C839.67 345.63 841.937 357.097 843.67 357.097C845.403 357.097 846.737 335.23 845.803 321.364C844.203 299.897 840.203 277.497 832.07 246.43C829.537 236.564 826.47 224.964 825.403 220.697C823.937 214.964 823.67 211.63 824.737 207.764C825.803 203.497 825.537 201.897 823.537 198.43C817.537 188.564 774.337 147.23 773.27 150.43C773.003 151.097 777.403 156.697 783.003 162.83ZM801.803 152.03C802.337 152.964 806.337 157.764 810.47 162.697C825.803 180.564 836.603 198.83 842.737 217.097C849.803 238.43 852.47 259.23 853.67 305.097C854.603 340.164 856.603 367.764 858.337 372.564C860.203 377.497 862.07 375.364 861.537 368.83C861.27 365.63 860.47 346.83 859.67 327.097C856.47 246.564 854.47 229.497 845.537 208.83C841.137 198.697 839.67 191.364 841.137 186.564C841.537 185.364 840.203 184.297 837.403 183.764C831.537 182.43 830.07 180.964 822.203 169.63C818.47 164.297 812.737 157.764 809.403 155.23C803.137 150.297 800.07 149.097 801.803 152.03ZM820.337 154.43C819.537 155.764 830.07 161.764 831.27 160.564C832.737 159.097 826.203 154.164 821.403 153.097C821.27 153.097 820.87 153.63 820.337 154.43ZM895.67 159.764C885.67 162.564 885.537 162.83 890.737 178.43C895.937 194.03 900.337 213.23 901.537 226.43C902.603 236.697 904.603 243.764 906.603 243.764C908.603 243.764 907.003 215.364 904.337 202.43C903.137 196.964 900.337 187.364 898.203 181.097C895.937 174.83 893.803 168.697 893.403 167.364C892.737 165.23 893.403 165.097 899.803 165.897C905.937 166.564 907.537 166.297 910.337 163.897C913.137 161.63 913.403 160.964 911.67 159.764C909.137 158.164 901.67 158.03 895.67 159.764ZM953.003 183.097C953.003 184.564 963.803 198.43 964.87 198.43C965.403 198.43 966.203 198.03 966.737 197.63C967.67 196.697 964.203 186.697 962.203 184.164C960.737 182.564 953.003 181.63 953.003 183.097ZM919.803 201.63C916.07 205.63 912.737 214.697 914.47 216.297C916.47 218.564 922.203 214.964 921.403 211.897C921.003 210.297 921.67 208.83 923.27 207.897C925.27 206.964 925.803 205.497 925.27 202.564C924.603 197.63 923.67 197.497 919.803 201.63ZM925.67 233.097C926.87 238.03 928.203 238.697 932.203 236.964C935.27 235.497 936.07 235.764 939.137 238.564C941.003 240.297 943.803 244.164 945.27 247.097C949.003 254.564 952.87 258.43 956.603 258.43C959.003 258.43 959.67 257.63 959.67 255.097C959.67 252.564 956.203 248.83 943.937 238.43C929.67 226.164 928.203 225.23 926.603 227.364C925.67 228.697 925.27 231.23 925.67 233.097ZM919.67 255.63C919.67 260.164 938.07 285.364 941.003 284.83C942.07 284.564 944.47 281.63 946.203 278.297C949.403 272.297 949.403 272.03 947.137 268.43C945.67 266.164 940.603 262.83 933.937 259.63C922.603 254.43 919.67 253.497 919.67 255.63ZM957.403 280.564C958.603 281.764 961.137 279.764 960.203 278.164C959.67 277.364 958.87 277.364 957.937 278.297C957.137 279.097 956.87 280.03 957.403 280.564ZM947.137 297.364C947.67 298.164 949.137 297.63 950.603 296.03C952.203 294.43 952.87 292.697 952.337 291.63C951.537 290.43 950.603 290.83 948.737 292.964C947.403 294.697 946.737 296.697 947.137 297.364ZM842.337 376.297C842.337 376.697 842.87 377.364 843.67 377.764C844.337 378.164 845.003 377.897 845.003 377.23C845.003 376.43 844.337 375.764 843.67 375.764C842.87 375.764 842.337 376.03 842.337 376.297ZM917.137 405.497C914.203 412.964 910.337 426.964 910.337 430.43C910.337 434.564 907.803 435.497 903.003 433.23C897.803 430.83 897.403 429.63 900.47 426.297C901.67 424.964 902.337 423.23 902.07 422.43C901.537 420.697 887.803 430.43 887.67 432.697C887.67 435.23 897.003 439.497 904.737 440.564C910.737 441.364 911.537 441.097 912.87 438.564C914.603 435.497 923.67 400.43 923.67 397.23C923.67 393.764 920.07 398.297 917.137 405.497ZM866.337 412.564C869.27 425.23 869.403 435.097 866.87 445.764L865.937 449.764L870.07 445.897C874.87 441.364 879.137 441.897 877.537 446.697C876.203 451.23 874.47 453.097 866.737 458.03C859.403 462.697 857.137 466.697 859.67 469.764C861.937 472.43 864.737 472.297 871.403 469.097C876.603 466.564 877.003 465.897 877.003 461.23C877.003 458.43 877.803 455.364 878.87 454.43C880.47 453.097 881.537 454.164 885.003 460.297C888.603 466.564 889.803 467.764 893.003 467.764C898.87 467.764 899.137 465.364 893.803 460.164C888.737 454.964 882.337 443.097 882.337 438.564C882.337 437.097 880.603 433.897 878.47 431.497C873.537 425.63 872.203 422.964 871.003 415.764C869.67 407.63 864.603 394.43 863.937 397.497C863.67 398.697 864.737 405.63 866.337 412.564ZM946.603 458.03C946.337 459.097 947.27 459.764 948.87 459.764C950.47 459.764 951.67 458.964 951.67 457.63C951.67 455.23 947.537 455.63 946.603 458.03ZM864.337 497.097C863.67 499.364 865.537 505.097 867.003 505.097C867.403 505.097 867.67 502.697 867.67 499.764C867.67 494.164 865.803 492.564 864.337 497.097ZM937.803 576.03C941.403 579.897 945.403 584.564 946.603 586.43C948.603 589.497 948.87 589.497 948.87 587.097C949.003 583.23 943.537 574.697 938.87 571.764C931.67 566.964 931.27 568.964 937.803 576.03ZM953.67 658.43C953.27 659.097 954.737 662.164 956.87 665.097C960.87 670.564 965.403 682.697 967.137 692.03C967.537 694.83 968.47 697.097 969.137 697.097C971.003 697.097 970.603 689.23 968.07 679.497C966.203 672.43 966.07 670.03 967.403 667.23C969.403 662.83 974.87 660.564 978.603 662.564C980.87 663.764 981.137 664.697 980.337 668.83C979.803 671.63 978.87 693.23 978.47 717.097L977.67 760.43L973.27 766.964C971.003 770.564 969.003 774.697 969.003 776.164C969.003 784.297 979.803 767.897 982.337 755.897C983.27 751.23 983.803 743.497 983.403 737.497C982.87 729.764 983.137 726.43 984.603 724.164C986.07 722.03 986.337 719.364 985.803 714.83C983.937 700.697 983.403 672.83 984.87 666.83C985.803 663.497 986.07 660.43 985.67 659.897C985.137 659.497 979.003 658.697 971.937 658.297C964.87 657.897 957.937 657.497 956.737 657.364C955.537 657.23 954.203 657.63 953.67 658.43ZM879.27 723.63C879.537 729.63 885.803 751.63 887.803 753.764C891.403 757.497 891.937 747.23 888.737 734.43C884.737 718.564 878.737 711.63 879.27 723.63ZM914.203 734.564C914.203 749.097 916.47 759.097 919.803 759.097C920.87 759.097 921.803 757.897 922.07 756.297C922.603 752.697 918.737 721.497 917.537 719.63C915.403 716.164 914.203 721.63 914.203 734.564ZM960.203 748.564C957.537 750.43 957.003 751.764 957.003 757.097C957.003 763.23 956.603 763.897 949.937 769.764C946.203 773.097 939.27 777.63 934.87 779.897C922.737 785.897 916.337 785.497 892.203 777.23C870.87 769.897 866.47 768.964 871.27 772.964C872.87 774.297 878.337 776.164 883.27 777.097C898.337 779.897 904.87 785.63 903.137 794.697C900.87 805.497 900.87 807.23 902.87 809.764C904.87 812.297 904.87 812.164 905.003 806.697C905.003 799.497 908.07 792.697 912.07 790.697C913.67 790.03 919.137 788.43 924.203 787.23C936.87 784.297 946.337 779.764 953.803 772.83C964.337 763.23 969.803 747.764 966.203 737.497L964.337 732.43L963.937 739.497C963.67 745.23 962.87 746.83 960.203 748.564ZM945.003 760.83C945.003 762.564 946.603 763.764 947.937 762.964C949.27 762.164 948.07 759.764 946.203 759.764C945.537 759.764 945.003 760.297 945.003 760.83ZM879.27 814.697C878.737 825.23 877.937 837.097 877.537 841.097C876.47 850.564 878.737 848.83 881.67 837.764C885.803 822.164 885.937 795.764 881.803 795.764C880.47 795.764 879.803 800.564 879.27 814.697ZM857.67 847.364C855.403 852.83 856.203 855.097 859.137 851.23C860.87 848.697 861.803 842.43 860.337 842.43C859.937 842.43 858.737 844.564 857.67 847.364ZM901.003 848.564C898.737 854.297 899.403 861.764 902.47 865.63C906.203 870.43 909.537 870.297 908.603 865.364C908.07 863.364 907.137 858.03 906.203 853.364C904.603 844.564 903.003 843.097 901.003 848.564ZM887.937 855.63C887.537 856.697 888.07 857.23 889.137 856.83C890.07 856.564 891.137 855.497 891.403 854.564C891.803 853.497 891.27 852.964 890.203 853.364C889.27 853.63 888.203 854.697 887.937 855.63ZM874.07 863.364C873.803 868.43 874.337 876.03 875.137 878.43C876.603 882.43 877.67 877.23 877.27 868.564C876.737 859.897 874.603 856.297 874.07 863.364ZM890.87 879.497C894.07 885.63 893.67 897.23 890.203 901.63C886.87 905.897 888.47 909.364 892.07 905.764C897.27 900.697 900.203 881.63 896.337 878.43C895.27 877.497 894.337 875.23 894.337 873.364V869.897L891.537 872.564C888.87 875.23 888.87 875.63 890.87 879.497ZM859.403 882.03C860.87 887.097 869.537 896.964 871.137 895.497C871.537 894.964 869.403 890.03 866.203 884.43C862.337 877.364 860.203 874.697 859.27 875.63C858.337 876.564 858.337 878.564 859.403 882.03ZM840.47 877.897C839.937 879.097 839.937 880.43 840.337 880.83C841.137 881.63 845.003 878.43 845.003 876.964C845.003 874.83 841.27 875.63 840.47 877.897ZM823.67 899.097C821.937 900.964 820.87 902.83 821.27 903.23C822.47 904.43 827.403 901.364 829.003 898.43C831.137 894.43 827.537 894.964 823.67 899.097ZM850.337 912.697C843.937 921.364 841.137 926.164 841.803 927.63C842.337 928.83 843.003 931.364 843.403 933.364C844.203 938.164 840.87 938.43 837.803 933.764C836.603 931.897 835.003 930.43 834.337 930.43C833.67 930.43 826.737 934.964 818.87 940.43C807.937 948.03 805.137 950.564 807.003 951.23C809.137 952.164 834.603 944.297 842.603 940.297C847.403 937.764 850.337 933.364 850.337 928.43C850.337 925.364 851.403 923.497 854.07 921.497C856.737 919.497 858.203 916.697 859.403 911.764C861.003 904.83 861.403 899.764 860.47 899.764C860.07 899.764 855.67 905.497 850.337 912.697ZM871.137 908.964C866.47 914.164 860.07 936.697 863.67 935.497C866.47 934.564 877.003 912.964 877.003 908.03C877.003 905.63 873.67 906.164 871.137 908.964ZM884.47 915.63C883.27 917.497 885.003 921.097 887.137 921.097C888.203 921.097 889.003 920.03 889.003 918.697C889.003 914.83 886.07 912.964 884.47 915.63ZM876.337 930.43C873.937 935.097 873.803 935.764 875.937 935.764C878.47 935.764 882.337 931.63 882.337 928.83C882.337 925.097 878.603 926.03 876.337 930.43Z" fill="#EDDFBB"/>
<path d="M135.005 42.4287C136.872 45.3621 137.138 65.7621 135.405 69.0954C132.605 74.1621 128.472 74.1621 126.205 68.9621C123.672 62.5621 124.072 56.6954 127.405 52.4287C129.005 50.4287 129.938 48.2954 129.538 47.6287C129.138 46.9621 129.272 45.2287 129.672 43.7621C130.605 40.9621 133.672 40.1621 135.005 42.4287Z" fill="#EDDFBB"/>
<path d="M965.271 46.5617C969.405 48.9617 968.205 51.7617 963.005 51.7617C960.071 51.7617 957.938 52.5617 957.538 53.7617C956.205 57.2284 951.671 56.1617 951.671 52.5617C951.671 46.8284 959.671 43.2284 965.271 46.5617Z" fill="#EDDFBB"/>
<path d="M101.004 50.4315C101.004 52.6982 100.337 53.2315 97.2706 52.8315C95.1372 52.5648 93.6706 51.6315 93.6706 50.4315C93.6706 49.2315 95.1372 48.2982 97.2706 48.0315C100.337 47.6315 101.004 48.1648 101.004 50.4315Z" fill="#EDDFBB"/>
<path d="M986.073 51.231C989.539 53.631 989.939 55.7643 986.739 55.7643C985.539 55.7643 982.739 57.3643 980.739 59.3643C977.539 62.431 976.739 62.6976 975.673 61.0976C973.939 58.431 975.273 54.2976 978.606 51.3643C981.939 48.5643 982.339 48.5643 986.073 51.231Z" fill="#EDDFBB"/>
<path d="M779.537 51.364C782.87 54.164 788.204 72.6973 793.804 101.097C797.27 118.964 797.804 125.764 795.67 127.097C793.67 128.297 792.337 124.031 785.004 91.0973C776.204 51.764 777.137 54.964 774.604 57.4973C772.737 59.364 773.404 62.964 781.27 94.0306C787.937 119.897 789.67 128.831 788.47 130.031C785.537 133.231 783.537 129.497 780.337 115.231C778.604 107.231 774.604 93.8973 771.537 85.364C768.47 76.6973 765.67 66.6973 765.403 63.0973C764.87 57.364 765.27 56.0306 767.937 53.6306C772.47 49.364 776.204 48.6973 779.537 51.364Z" fill="#EDDFBB"/>
<path d="M69.1395 54.2977C74.3395 59.4977 76.0728 65.0977 72.3395 65.0977C71.2728 65.0977 69.1395 63.231 67.4061 61.0977C65.1395 57.8977 63.5395 57.0977 59.4061 57.0977C53.1395 57.0977 52.6061 54.031 58.3395 51.0977C63.5395 48.431 63.2728 48.2977 69.1395 54.2977Z" fill="#EDDFBB"/>
<path d="M1009.67 60.5651C1013.54 64.6984 1013.67 65.8984 1011.01 72.1651C1009.94 74.8318 1009.01 79.3651 1009.01 82.1651C1009.01 88.0318 1005.27 92.6984 1001.54 91.2318C998.473 90.0318 999.673 80.4318 1003.94 71.7651C1007.67 64.2984 1006.61 61.8984 1001.67 66.4318C996.073 71.6318 993.539 66.8318 998.473 60.5651C1001.94 56.1651 1005.54 56.1651 1009.67 60.5651Z" fill="#EDDFBB"/>
<path d="M926.738 61.8951C932.205 67.0951 932.605 69.7617 927.672 69.7617C925.538 69.7617 923.405 68.2951 921.405 65.2284C915.805 56.9617 919.272 54.8284 926.738 61.8951Z" fill="#EDDFBB"/>
<path d="M859.671 59.7641C863.937 67.6308 869.004 89.2308 869.004 99.2308C869.004 103.364 864.071 111.364 862.604 109.764C862.071 109.364 861.671 104.297 861.537 98.6974C861.537 92.2974 860.337 84.8308 858.471 78.6974C855.004 67.4974 854.204 58.2974 856.604 57.4974C857.404 57.2308 858.871 58.1641 859.671 59.7641Z" fill="#EDDFBB"/>
<path d="M965.004 61.6315C965.004 62.6982 964.471 63.8982 963.804 64.2982C962.337 65.2315 959.404 61.8982 960.604 60.6982C962.204 59.0982 965.004 59.7649 965.004 61.6315Z" fill="#EDDFBB"/>
<path d="M890.74 63.3643C893.407 66.031 889.807 77.0977 886.207 77.0977C884.607 77.0977 884.607 68.2977 886.34 64.9643C887.807 62.2977 889.274 61.7643 890.74 63.3643Z" fill="#EDDFBB"/>
<path d="M61.0042 66.1633C70.8709 76.0299 64.0709 93.6299 49.2709 96.5633C43.1376 97.7633 41.9376 93.8966 47.1376 89.7633L51.0042 86.6966L47.9376 80.5633C44.2042 72.6966 44.0709 65.7633 47.5376 63.7633C52.2042 61.3633 57.0042 62.2966 61.0042 66.1633Z" fill="#EDDFBB"/>
<path d="M244.604 71.2295C246.471 74.0295 247.004 77.6295 247.004 86.0295C247.004 92.2961 246.471 97.2295 245.671 97.3628C244.871 97.4961 242.871 94.5628 241.004 90.9628C236.871 82.8295 236.204 68.8295 239.937 68.0295C241.271 67.7628 243.137 69.0961 244.604 71.2295Z" fill="#EDDFBB"/>
<path d="M917.27 70.5632C922.47 73.4965 918.07 78.4299 912.87 75.6299C909.803 74.0299 909.937 70.0299 913.003 69.4965C914.07 69.2299 916.07 69.7632 917.27 70.5632Z" fill="#EDDFBB"/>
<path d="M120.337 71.23C123.537 74.43 122.337 77.8967 118.07 77.3634C115.537 77.0967 113.67 78.1634 111.137 81.23C109.003 83.7634 106.87 85.0967 105.67 84.5634C102.737 83.4967 103.27 80.83 107.803 74.6967C112.203 68.5634 116.47 67.4967 120.337 71.23Z" fill="#EDDFBB"/>
<path d="M90.604 70.8285C96.604 75.4951 93.804 85.7618 85.404 89.7618C81.804 91.4951 81.1374 92.4285 81.804 94.9618C82.7374 98.9618 77.004 103.762 71.5374 103.762C69.404 103.762 67.6707 104.295 67.6707 105.095C67.6707 105.762 69.1374 106.428 71.004 106.428C75.404 106.428 75.404 110.162 70.8707 111.762C69.004 112.562 65.1374 113.095 62.3374 113.095C58.0707 113.095 56.204 114.028 52.3374 117.762C47.5374 122.695 45.004 122.828 45.004 118.428C45.004 115.095 53.6707 106.428 57.004 106.428C60.4707 106.428 61.5374 104.162 58.8707 102.695C55.9374 101.095 57.404 97.0951 60.8707 97.0951C65.404 97.0951 67.6707 95.4951 67.6707 92.4285C67.6707 87.6285 72.3374 82.9618 79.004 81.2285C85.5374 79.6285 87.5374 76.4285 81.2707 77.3618C79.2707 77.7618 76.604 78.5618 75.404 79.0951C71.5374 80.6951 70.8707 76.1618 74.3374 72.2951C77.804 68.6951 86.604 67.8951 90.604 70.8285Z" fill="#EDDFBB"/>
<path d="M1031.27 75.6284C1030.74 77.8951 1031.27 80.4284 1032.34 81.8951C1034.61 84.9617 1034.87 89.6284 1033.01 93.2284C1031.94 95.2284 1030.21 95.7617 1025.27 95.7617C1016.21 95.7617 1015.14 94.6951 1018.34 88.4284C1019.81 85.4951 1021.01 82.1617 1021.01 80.9617C1021.01 77.6284 1026.21 71.7617 1029.27 71.7617C1031.54 71.7617 1031.94 72.4284 1031.27 75.6284Z" fill="#EDDFBB"/>
<path d="M702.205 75.2284C703.672 77.095 705.138 79.6284 705.538 80.8284C705.938 82.0284 709.538 94.1617 713.538 107.762C717.538 121.362 721.805 135.628 723.005 139.495C725.405 147.228 725.005 149.095 721.538 146.428C717.672 143.095 712.205 129.895 709.138 116.428C704.872 97.6284 701.272 86.295 698.338 82.4284L695.672 79.095V82.4284C695.672 84.295 700.205 99.6284 705.672 116.562C715.405 146.695 717.672 158.295 714.205 160.428C713.405 160.962 713.138 163.362 713.672 166.562C714.472 171.095 714.205 171.762 711.938 171.762C710.472 171.762 707.938 170.695 706.205 169.362L703.272 166.828L706.338 160.562C710.472 151.895 709.672 146.962 697.672 112.162C692.205 96.295 687.672 82.0284 687.672 80.4284C687.672 72.1617 697.138 68.8284 702.205 75.2284Z" fill="#EDDFBB"/>
<path d="M176.738 75.7623C181.804 77.8957 179.938 81.629 173.671 82.1623C167.671 82.5623 162.071 79.629 164.338 77.229C166.471 75.0957 173.271 74.2957 176.738 75.7623Z" fill="#EDDFBB"/>
<path d="M878.871 80.0319C883.938 87.7652 886.605 96.1652 885.938 102.165C885.271 108.565 882.738 111.365 880.071 108.699C879.271 107.765 877.938 102.299 877.138 96.4319C876.338 90.5652 875.271 83.7652 874.871 81.3652C873.938 76.2986 875.938 75.6319 878.871 80.0319Z" fill="#EDDFBB"/>
<path d="M679.407 83.3617C680.073 84.695 682.473 92.0284 684.74 99.7617C687.007 107.495 691.273 122.162 694.34 132.428C697.407 142.695 700.34 152.162 700.607 153.362C701.673 156.962 698.873 156.162 695.94 152.028C692.073 146.695 685.673 133.228 683.807 126.428C681.007 116.828 680.473 116.028 679.94 120.695C679.673 123.495 681.14 128.162 684.34 134.828C690.073 147.095 691.407 155.095 688.607 160.695C683.273 170.828 678.74 169.495 681.14 158.295C684.873 140.828 675.94 115.095 661.14 100.562C656.74 96.1617 652.74 92.9617 652.207 93.3617C651.807 93.895 655.14 108.162 659.673 125.362C664.207 142.428 668.473 158.828 669.273 161.762C671.273 170.562 672.873 171.362 687.407 172.028C698.873 172.428 701.273 172.962 707.007 176.428C725.94 187.495 741.007 209.495 757.14 249.895C772.473 288.295 780.207 325.095 781.807 367.762C782.607 386.562 781.14 416.562 778.873 427.495C777.807 432.828 774.473 432.828 771.807 427.228C770.34 424.162 770.34 419.228 771.407 399.895C773.407 365.762 770.873 330.562 763.673 295.895C762.207 288.962 760.74 283.095 760.34 282.695C760.073 282.428 758.073 282.562 756.073 283.228C754.073 283.762 751.807 284.295 751.14 284.295C750.34 284.428 749.673 278.828 749.54 272.028C749.273 260.028 747.007 246.428 745.273 246.428C744.74 246.428 743.407 249.228 742.34 252.695C741.14 256.295 739.273 259.228 738.207 259.495C736.207 259.895 734.74 252.695 732.207 228.962C731.007 217.895 729.807 216.828 725.407 222.295L721.54 226.695L716.74 218.828C704.34 198.695 683.807 185.628 661.14 183.228C657.14 182.828 653.407 182.028 652.74 181.362C652.073 180.695 646.873 168.695 641.14 154.828C630.607 129.495 627.807 123.228 627.673 125.762C627.673 126.562 631.007 140.295 635.007 156.295C639.007 172.295 642.34 185.628 642.34 185.895C642.34 186.162 644.34 186.428 646.74 186.428C668.207 186.428 693.54 198.295 709.407 215.895C721.807 229.495 733.007 255.762 745.007 299.362C756.34 340.828 762.34 377.895 762.34 407.095C762.34 429.895 758.607 455.495 754.74 458.695C753.007 460.028 752.873 457.495 753.673 439.628C754.74 418.162 753.14 389.495 749.54 363.095C747.673 348.428 741.94 318.695 739.807 311.095C739.14 308.828 738.207 305.495 737.807 303.362C736.473 297.895 734.74 299.095 733.807 306.028C731.94 318.828 731.407 321.095 729.673 321.095C726.073 321.095 724.873 312.162 725.273 289.495C725.54 272.828 725.14 266.028 723.807 262.695C722.873 260.428 721.54 258.428 721.007 258.428C720.473 258.428 719.673 262.162 719.273 266.695C718.473 276.295 716.207 283.495 714.34 281.628C713.273 280.428 710.873 267.495 707.673 245.095C705.407 228.828 705.673 229.228 699.673 235.095L694.473 240.162L692.073 235.762C687.273 227.095 678.473 216.295 672.073 211.628C664.873 206.028 655.407 200.828 654.607 201.762C654.207 202.162 656.34 204.962 659.14 208.028C674.34 224.695 691.14 248.695 703.407 271.495C733.14 326.962 746.873 385.895 744.473 447.628C743.94 459.762 743.14 470.162 742.74 470.828C741.14 473.362 739.673 467.762 737.673 452.562C735.407 435.495 732.34 411.228 730.207 395.762C727.14 372.562 723.407 343.628 722.073 332.428C721.407 325.762 720.073 319.762 719.407 319.095C717.007 316.428 714.34 322.695 714.34 331.228C714.34 340.295 711.007 346.428 706.207 346.428C703.14 346.428 703.14 346.028 706.34 352.828C707.807 355.762 709.94 361.762 711.14 366.028C713.273 374.162 715.54 404.828 715.673 426.562C715.673 438.295 716.073 440.295 719.94 448.562C723.54 456.162 724.207 459.362 724.34 467.228C724.34 473.762 723.673 477.495 722.34 479.095C721.273 480.428 720.607 482.828 720.74 484.428C721.14 487.228 718.073 491.762 715.94 491.762C711.94 491.628 711.407 488.028 707.673 438.428C702.873 372.162 699.14 350.162 688.473 325.095C685.807 318.962 683.673 313.362 683.673 312.828C683.673 312.295 685.54 311.762 687.807 311.762C691.94 311.762 691.94 311.762 691.007 306.162C690.473 303.095 688.873 296.962 687.407 292.695C686.073 288.295 685.14 284.562 685.54 284.162C687.007 282.562 691.54 286.828 693.54 291.762C695.807 297.628 696.473 310.428 694.473 312.562C692.607 314.428 700.073 343.762 702.473 343.762C704.34 343.762 706.34 330.162 706.34 317.362C706.34 302.562 703.273 288.695 697.14 275.095C693.407 266.828 690.34 264.695 690.34 270.295C690.34 271.495 689.54 273.762 688.473 275.228C686.607 277.628 686.473 277.495 684.473 272.828C683.273 270.162 681.673 263.628 680.873 258.428L679.273 248.695L675.807 252.962C672.207 257.362 670.34 258.162 670.34 255.362C670.34 245.495 661.273 234.428 643.673 223.095C631.407 215.095 618.34 202.695 618.34 198.962C618.34 196.695 618.74 196.695 624.873 198.562C628.873 199.762 630.74 199.628 635.007 197.762L640.34 195.362L636.34 194.428C629.94 192.962 624.34 189.628 619.94 184.428C614.207 178.028 611.407 172.162 606.34 156.428C601.673 142.028 597.54 133.095 593.273 127.762C588.473 121.762 588.873 125.762 594.34 137.362C605.007 160.162 611.54 184.428 611.673 201.495C611.673 209.228 609.54 210.562 603.407 206.562C591.807 199.362 581.94 176.962 580.74 154.828C580.207 145.228 582.34 146.428 586.073 157.762C590.073 170.162 599.807 194.828 601.273 196.428C604.073 199.628 602.073 180.695 598.473 169.362C590.34 144.828 580.473 130.428 571.673 130.428C566.607 130.428 566.473 132.562 571.14 143.895C577.673 159.762 586.34 193.095 586.34 202.028C586.34 208.962 584.74 206.562 579.007 191.095C576.34 183.762 572.34 172.962 570.073 167.095C557.54 134.028 557.54 133.895 560.207 129.895C565.407 121.895 586.473 116.295 596.073 120.162C601.14 122.295 602.207 124.028 607.54 138.428C623.273 181.762 624.873 184.828 629.94 181.628C635.007 178.428 633.673 170.828 623.807 146.162C618.74 133.362 614.207 120.828 613.673 118.295C612.74 113.095 614.607 107.095 618.607 102.695C626.607 94.295 633.14 103.628 643.007 137.628C646.34 149.095 650.207 160.828 651.54 163.628C654.873 170.028 660.873 177.362 662.207 176.428C664.207 175.362 653.673 129.628 646.073 106.028C643.54 98.295 642.34 92.5617 643.14 91.895C643.807 91.2284 650.34 88.8284 657.673 86.695C677.54 80.5617 677.94 80.4284 679.407 83.3617ZM669.273 93.895C668.873 96.695 673.94 105.228 676.607 106.162C679.007 106.828 678.74 99.2284 676.207 94.295C673.94 89.7617 669.94 89.495 669.273 93.895Z" fill="#EDDFBB"/>
<path d="M1051.01 85.0963C1051.94 88.0296 1050.47 91.3629 1046.61 94.8296C1043.94 97.2296 1043.81 97.2296 1042.47 94.6963C1040.87 91.7629 1041.67 88.4296 1044.74 84.6963C1047.41 81.6296 1049.94 81.7629 1051.01 85.0963Z" fill="#EDDFBB"/>
<path d="M917.405 87.3643C917.939 87.7643 917.939 92.031 917.539 96.5643C916.205 109.498 916.339 109.498 929.139 104.964C935.139 102.831 940.205 101.231 940.339 101.364C940.472 101.631 941.672 104.031 943.005 106.698C945.405 111.898 948.472 113.231 949.805 109.764C951.405 105.764 961.405 101.364 972.072 99.8977C987.272 97.7643 1019.81 98.1643 1031.01 100.431C1051.54 104.698 1071.14 118.698 1078.34 134.031C1082.34 142.431 1084.34 142.831 1091.54 136.431C1094.34 133.898 1097.41 131.764 1098.21 131.764C1101.41 131.764 1099.41 137.631 1094.61 142.431C1090.74 146.431 1087.01 148.298 1077.94 151.098C1064.21 155.231 1060.61 158.564 1061.27 166.964L1061.67 172.431L1073.67 176.431C1089.27 181.764 1095.94 185.364 1102.34 192.031C1105.81 195.498 1107.81 196.831 1108.21 195.631C1113.94 174.831 1125.81 144.964 1128.61 144.031C1132.47 142.831 1130.74 149.631 1120.47 177.764C1116.34 189.231 1116.07 198.564 1119.67 205.764C1123.01 212.164 1123.01 212.964 1119.81 216.298C1116.87 219.498 1114.74 226.431 1116.74 226.431C1117.41 226.431 1118.74 225.498 1119.81 224.298C1125.01 218.031 1137.41 216.564 1146.34 221.098C1149.27 222.564 1151.67 224.431 1151.67 225.098C1151.67 225.898 1152.47 226.431 1153.54 226.431C1154.61 226.431 1158.21 221.764 1161.81 216.031C1169.27 203.898 1171.67 200.964 1173.14 201.898C1175.54 203.364 1174.21 209.898 1170.21 217.498C1165.67 226.031 1165.27 233.364 1169.27 234.164C1171.01 234.431 1174.07 230.831 1180.34 221.231C1185.27 213.898 1189.67 207.498 1190.47 207.098C1192.87 205.631 1191.67 211.498 1187.67 221.231C1185.41 226.564 1183.81 231.764 1183.94 232.698C1184.21 233.631 1188.61 228.831 1193.67 222.164C1202.87 210.031 1206.07 207.764 1205.27 214.431C1203.67 226.431 1188.34 245.231 1175.14 251.231C1167.94 254.431 1162.34 260.431 1164.61 262.431C1165.94 263.764 1182.07 269.098 1184.47 269.098C1186.34 269.098 1189.67 264.031 1188.61 262.831C1188.21 262.564 1186.61 262.964 1185.01 263.764C1175.14 269.098 1184.34 253.631 1202.21 235.098C1215.01 221.764 1217.41 221.764 1210.87 234.831C1209.01 238.698 1205.94 243.764 1204.07 246.164C1197.27 255.231 1205.54 251.898 1213.01 242.564C1219.67 234.431 1228.74 231.898 1232.21 237.498C1233.41 239.498 1232.07 241.364 1222.87 250.164C1213.01 259.498 1205.81 270.431 1208.07 272.564C1208.47 272.964 1211.14 270.964 1213.94 268.164C1216.87 265.231 1221.94 261.364 1225.14 259.631C1228.87 257.631 1231.14 255.364 1231.41 253.498C1232.07 249.364 1235.54 246.698 1237.14 249.231C1238.34 250.964 1238.21 251.898 1236.21 258.164C1235.67 260.164 1236.74 261.231 1241.94 263.364C1245.41 264.831 1251.14 266.564 1254.74 266.964C1260.07 267.764 1261.14 267.631 1261.81 265.498C1263.14 261.098 1265.67 256.698 1267.14 256.164C1268.07 255.898 1269.14 257.764 1269.54 260.431C1270.61 265.631 1271.14 265.898 1274.87 263.098C1280.07 259.098 1286.87 262.164 1289.54 269.631C1290.34 271.764 1290.87 271.498 1295.67 267.231C1298.61 264.564 1301.67 262.431 1302.34 262.431C1303.14 262.431 1303.67 264.831 1303.67 267.898C1303.67 272.431 1304.07 273.231 1305.94 272.564C1314.61 270.164 1319.94 269.098 1320.87 269.764C1323.54 271.364 1343.94 274.431 1357.94 275.498C1374.21 276.564 1397.94 275.498 1411.67 272.964C1430.21 269.764 1454.87 261.631 1470.34 253.764C1477.81 250.031 1479.67 249.631 1479.67 252.164C1479.67 260.164 1432.21 280.698 1394.34 289.098C1390.34 290.031 1385.81 291.764 1384.34 293.098C1380.07 296.831 1376.07 297.498 1371.41 295.231C1366.21 292.564 1366.61 292.564 1366.07 296.031C1365.54 300.431 1362.21 299.764 1359.01 294.831C1355.81 289.631 1354.34 289.364 1354.34 293.631C1354.34 298.031 1352.07 299.231 1348.87 296.298C1346.47 294.164 1346.34 294.164 1346.34 297.498C1346.34 302.164 1345.41 302.031 1340.21 296.964C1336.07 292.964 1335.81 292.964 1334.47 295.498C1332.87 298.564 1325.27 302.431 1320.61 302.431C1318.74 302.431 1315.41 300.964 1313.27 299.098C1308.61 295.231 1307.67 294.964 1307.67 297.764C1307.67 298.964 1306.07 301.498 1304.07 303.364L1300.61 306.964L1296.74 302.431L1293.01 297.898L1290.87 300.831C1288.07 304.831 1286.87 304.564 1285.14 299.631C1283.67 295.498 1281.01 295.364 1281.01 299.498C1281.01 300.698 1280.34 302.698 1279.67 303.764C1278.47 305.498 1278.07 305.498 1276.61 303.631C1274.21 300.564 1269.67 298.431 1265.27 298.431C1261.67 298.431 1261.27 298.831 1260.61 304.564C1259.67 313.898 1257.81 314.431 1253.94 306.831C1252.07 303.231 1249.67 299.498 1248.61 298.698C1247.01 297.364 1246.47 297.764 1245.81 301.231C1245.41 303.764 1244.07 305.631 1242.47 306.031C1240.34 306.564 1239.94 307.764 1240.07 313.898C1240.34 326.831 1236.61 324.831 1231.67 309.364C1229.94 304.164 1227.94 299.764 1227.27 299.764C1226.61 299.764 1226.34 301.098 1226.74 302.698C1228.34 309.231 1229.27 322.431 1228.21 322.431C1227.54 322.431 1225.27 318.298 1223.14 313.098C1217.67 299.631 1213.81 297.231 1216.87 309.098C1219.54 319.231 1219.81 323.764 1218.07 323.764C1217.14 323.764 1215.27 322.164 1213.94 320.031C1211.67 316.431 1211.67 316.431 1210.87 319.364C1209.67 323.764 1207.81 323.098 1205.54 317.764C1203.14 312.031 1199.67 295.631 1199.67 290.298C1199.67 288.164 1199.14 286.431 1198.34 286.431C1195.94 286.431 1195.67 295.098 1197.54 306.431C1199.01 315.764 1199.01 318.564 1197.67 321.898C1195.27 327.631 1193.54 328.431 1191.14 324.831C1188.21 320.298 1182.74 302.698 1180.87 292.298C1179.01 281.498 1177.81 279.764 1175.67 283.764C1173.14 288.431 1173.81 296.031 1177.67 307.364C1179.81 313.898 1180.74 318.964 1180.34 321.364C1178.47 329.364 1167.01 333.498 1163.14 327.364C1162.07 325.764 1158.34 315.098 1155.01 303.764C1147.54 278.431 1147.54 278.564 1146.74 280.831C1146.34 281.764 1147.67 291.498 1149.67 302.564C1153.14 321.231 1153.27 326.031 1150.47 322.964C1149.01 321.364 1141.94 299.898 1137.67 283.764L1134.34 271.098L1135.01 281.764C1135.41 287.631 1136.74 298.298 1138.21 305.364C1142.21 327.098 1137.54 320.431 1129.81 293.631C1127.27 284.831 1124.61 273.231 1123.67 267.498C1121.67 255.364 1122.07 254.564 1134.74 244.431C1146.87 234.564 1146.87 226.831 1134.74 235.631C1125.27 242.431 1119.67 254.831 1119.67 268.964C1119.67 273.898 1121.27 284.298 1123.54 293.631C1130.61 322.964 1131.27 328.031 1127.41 325.631C1123.27 322.964 1113.67 294.431 1112.07 279.631C1110.34 263.098 1116.47 243.231 1126.47 232.964C1130.07 229.231 1133.01 226.031 1133.01 225.764C1133.01 224.164 1125.14 228.431 1121.27 232.164C1112.61 240.431 1109.01 250.298 1109.01 266.031C1109.01 272.031 1109.54 279.898 1110.21 283.364C1113.54 300.698 1115.94 317.364 1115.14 318.031C1113.67 319.631 1111.81 316.431 1108.47 306.964C1101.94 288.431 1100.47 278.964 1100.47 257.764C1100.47 238.564 1102.21 226.164 1106.34 215.098C1107.54 211.898 1107.41 211.631 1104.74 212.031C1097.67 213.098 1093.01 235.098 1093.01 267.098C1093.01 284.431 1095.14 305.098 1097.67 313.231C1099.41 318.698 1089.81 319.231 1083.94 313.898C1076.87 307.631 1077.01 308.298 1073.01 239.098C1072.21 225.231 1071.27 213.498 1070.87 213.231C1070.61 212.964 1069.14 213.764 1067.67 215.098C1065.14 217.498 1064.74 217.364 1055.27 213.764C1037.14 206.698 1028.07 199.231 1024.21 187.898C1021.81 180.964 1018.47 181.498 1014.61 189.364C1011.27 196.564 1007.67 197.898 1007.67 191.898C1007.67 187.098 1012.47 180.031 1018.21 176.164C1021.67 173.764 1024.61 173.098 1031.01 173.098C1037.54 173.098 1039.81 172.564 1041.67 170.431C1044.61 167.231 1043.81 166.164 1036.61 164.431C1029.54 162.698 1028.87 159.498 1034.34 152.831C1039.94 146.164 1048.07 142.431 1057.54 142.431C1065.67 142.431 1070.34 140.831 1070.34 137.898C1070.34 134.964 1067.14 134.431 1050.87 134.431H1035.54L1036.47 139.098C1037.14 142.698 1036.87 143.764 1035.41 143.764C1032.07 143.764 1029.01 140.564 1027.14 135.098C1025.41 130.298 1024.34 129.498 1016.74 126.298C980.339 111.364 962.472 109.498 951.539 119.364C948.739 121.898 946.339 124.964 946.339 125.898C946.339 129.231 942.472 127.898 938.872 123.098C934.472 117.231 933.005 117.231 933.005 122.964C933.005 125.498 932.339 128.031 931.539 128.431C929.272 129.898 925.005 124.964 925.005 121.098C925.005 117.498 924.605 117.364 914.739 115.898C909.005 115.098 903.805 113.764 903.139 113.098C902.472 112.431 904.205 107.498 907.672 100.831C913.805 88.831 915.939 85.8977 917.405 87.3643ZM1001.01 108.298C1001.01 109.364 1002.87 110.431 1005.27 110.831C1010.34 111.498 1011.01 111.231 1009.94 108.431C1008.87 105.898 1001.01 105.631 1001.01 108.298ZM1016.61 113.098C1014.61 114.031 1013.01 115.364 1013.01 116.031C1013.01 117.498 1023.14 117.364 1032.47 115.631C1043.14 113.631 1043.94 113.364 1042.87 111.631C1041.67 109.631 1021.54 110.831 1016.61 113.098ZM1049.01 125.098C1049.01 125.764 1049.54 126.431 1050.21 126.431C1051.01 126.431 1051.94 125.764 1052.34 125.098C1052.74 124.298 1052.21 123.764 1051.14 123.764C1049.94 123.764 1049.01 124.298 1049.01 125.098ZM1050.21 153.231C1048.07 157.364 1050.47 159.364 1055.14 157.231C1058.61 155.764 1058.61 155.631 1056.34 153.098C1053.27 149.764 1052.07 149.764 1050.21 153.231ZM1047.81 176.298C1045.27 178.831 1041.67 181.631 1039.67 182.431C1036.87 183.631 1035.81 185.098 1035.14 188.831C1034.21 194.964 1035.67 196.564 1041.14 194.964C1047.14 193.231 1052.74 185.764 1053.81 178.031C1054.34 174.431 1054.21 171.764 1053.41 171.764C1052.74 171.764 1050.21 173.764 1047.81 176.298ZM1064.21 187.231C1062.87 189.098 1061.54 192.831 1061.14 195.498C1060.47 199.231 1059.54 200.564 1057.27 200.831C1053.54 201.364 1053.41 203.764 1057.14 203.764C1061.01 203.764 1068.47 195.631 1069.54 190.431C1070.87 183.231 1067.94 181.364 1064.21 187.231ZM1076.34 194.431C1074.34 196.564 1074.07 197.898 1075.14 200.698C1076.47 204.564 1079.67 206.431 1079.67 203.231C1079.67 202.164 1080.87 199.098 1082.47 196.564L1085.27 191.764H1082.07C1080.21 191.764 1077.67 192.964 1076.34 194.431ZM1088.87 203.364C1088.21 205.098 1088.47 207.098 1089.67 208.698C1091.94 211.764 1093.94 210.031 1095.14 203.898C1095.94 199.898 1095.81 199.631 1093.01 200.031C1091.27 200.164 1089.54 201.764 1088.87 203.364ZM1081.01 233.364C1079.54 243.898 1080.21 257.098 1082.34 257.098C1083.54 257.098 1084.47 248.964 1085.67 229.764C1086.34 219.231 1086.21 218.031 1084.61 220.164C1083.54 221.498 1081.94 227.364 1081.01 233.364ZM1146.61 241.498C1143.27 244.564 1142.74 247.764 1145.54 247.764C1147.81 247.764 1154.47 239.764 1153.54 238.164C1152.74 236.831 1150.74 237.764 1146.61 241.498ZM1154.21 248.964C1150.07 253.098 1148.87 259.764 1152.21 259.764C1153.81 259.764 1163.67 247.764 1163.67 245.764C1163.67 243.631 1157.54 245.631 1154.21 248.964ZM1196.47 265.231C1192.74 268.164 1191.81 273.098 1194.87 273.098C1196.47 273.098 1203.67 265.098 1203.67 263.231C1203.67 261.498 1199.81 262.564 1196.47 265.231ZM1279.67 266.964C1279.67 267.364 1280.21 268.031 1281.01 268.431C1281.67 268.831 1282.34 268.564 1282.34 267.898C1282.34 267.098 1281.67 266.431 1281.01 266.431C1280.21 266.431 1279.67 266.698 1279.67 266.964ZM1217.94 273.898C1214.61 280.698 1215.01 282.164 1220.61 283.364C1226.47 284.564 1237.94 284.431 1242.87 283.231C1247.54 282.031 1247.27 279.898 1241.81 273.631L1237.41 268.564L1232.61 272.164C1229.94 274.164 1227.54 275.764 1227.01 275.764C1226.61 275.764 1225.54 274.031 1224.87 271.898C1223.14 266.964 1220.87 267.631 1217.94 273.898ZM1155.67 270.164C1155.67 271.898 1166.21 301.231 1167.81 303.498C1169.41 306.164 1168.34 289.898 1166.21 282.164C1164.47 275.231 1155.67 265.364 1155.67 270.164ZM1251.67 276.831C1251.67 279.764 1257.14 282.298 1266.34 283.764C1288.07 287.098 1343.54 287.098 1340.21 283.764C1339.54 283.098 1325.54 281.898 1309.01 281.098C1292.47 280.298 1274.21 278.831 1268.34 277.898C1255.27 275.631 1251.67 275.364 1251.67 276.831ZM1185.94 283.898C1188.21 286.164 1190.87 284.031 1188.87 281.631C1187.81 280.298 1186.87 280.031 1185.81 281.098C1184.87 282.031 1184.87 282.831 1185.94 283.898ZM1376.21 291.231C1376.74 292.831 1377.54 293.098 1378.47 292.164C1379.14 291.498 1379.41 289.898 1378.87 288.564C1378.34 286.964 1377.54 286.698 1376.61 287.631C1375.94 288.298 1375.67 289.898 1376.21 291.231Z" fill="#EDDFBB"/>
<path d="M935.937 89.2316C938.87 90.965 939.003 93.4983 936.203 95.8983C934.337 97.365 933.803 97.2316 932.203 95.0983C928.203 89.765 930.603 86.0316 935.937 89.2316Z" fill="#EDDFBB"/>
<path d="M1067.14 97.6288C1068.6 101.495 1067 105.762 1063.94 106.162C1061.54 106.562 1061 106.029 1061 102.829C1061 97.0955 1065.54 93.3621 1067.14 97.6288Z" fill="#EDDFBB"/>
<path d="M951.404 100.031C950.471 102.564 946.337 102.964 946.337 100.564C946.337 99.2309 947.537 98.4309 949.137 98.4309C950.737 98.4309 951.671 99.0976 951.404 100.031Z" fill="#EDDFBB"/>
<path d="M1085.54 113.363C1085 117.229 1084.07 121.896 1083.4 123.763C1082.2 126.963 1082.07 126.963 1080.2 124.563C1076.34 119.229 1078.74 106.429 1083.67 106.429C1086.2 106.429 1086.34 106.963 1085.54 113.363Z" fill="#EDDFBB"/>
<path d="M665.937 115.365C669.804 124.299 675.137 144.699 673.937 145.899C671.937 147.899 669.137 142.965 665.271 131.365C659.271 113.365 658.204 107.765 660.604 107.765C661.671 107.765 664.071 111.232 665.937 115.365Z" fill="#EDDFBB"/>
<path d="M894.34 114.432C898.474 116.965 889.407 126.565 884.474 124.698C880.874 123.232 882.074 118.565 886.607 115.765C891.674 112.698 891.674 112.698 894.34 114.432Z" fill="#EDDFBB"/>
<path d="M977.273 115.895C981.54 118.295 979.94 120.695 973.273 121.628C969.807 122.028 966.073 123.095 965.007 123.762C961.807 125.762 965.14 129.628 970.473 130.162C973.007 130.428 975.54 131.095 976.073 131.762C977.14 132.695 967.673 143.762 965.807 143.762C965.407 143.762 963.54 141.362 961.673 138.562C955.94 130.028 957.007 121.628 964.207 117.095C969.007 114.162 973.673 113.762 977.273 115.895Z" fill="#EDDFBB"/>
<path d="M1101 118.297C1101 121.363 1097.27 125.497 1095.54 124.43C1093.8 123.23 1094.07 119.23 1095.94 117.363C1098.34 114.963 1101 115.497 1101 118.297Z" fill="#EDDFBB"/>
<path d="M914.207 124.562C917.007 128.028 918.074 135.762 915.807 135.762C913.807 135.762 907.407 125.228 908.207 123.095C909.274 120.162 911.14 120.562 914.207 124.562Z" fill="#EDDFBB"/>
<path d="M1116.74 129.362C1119.54 132.162 1118.47 139.362 1113.54 152.828C1105.27 174.962 1100.87 183.895 1098.47 183.495C1093.67 182.562 1094.87 177.762 1109.67 136.562C1112.74 128.162 1114.07 126.695 1116.74 129.362Z" fill="#EDDFBB"/>
<path d="M901.537 133.762C903.404 135.495 905.004 137.762 905.004 138.829C905.004 141.362 901.537 144.162 899.671 143.095C897.404 141.629 894.071 134.295 894.871 132.295C895.937 129.629 897.404 130.029 901.537 133.762Z" fill="#EDDFBB"/>
<path d="M545.538 144.03C546.605 145.763 552.072 158.697 557.805 172.963C573.405 212.163 576.872 216.163 593.138 213.097C620.605 207.897 645.138 223.097 661.538 255.497C667.538 267.363 665.672 268.03 654.338 258.163C642.472 247.763 614.338 226.43 612.472 226.43C611.672 226.43 613.805 229.23 617.138 232.697C627.005 242.963 638.205 256.83 644.605 266.697C649.405 274.163 650.205 276.297 649.005 277.763C646.605 280.563 625.538 298.43 624.472 298.43C624.072 298.43 623.672 297.363 623.672 295.897C623.672 294.563 622.738 292.697 621.672 291.763C619.938 290.43 619.672 290.563 619.672 292.963C619.672 294.563 620.338 296.83 621.138 298.163C622.338 300.03 618.072 304.963 592.472 330.43C571.805 351.363 562.205 361.763 561.538 364.43C560.072 370.697 558.738 371.897 554.605 370.163C548.472 367.497 547.138 365.763 549.005 362.43C552.338 356.163 554.205 339.63 552.872 329.097C550.605 313.23 549.938 313.897 544.872 337.363C539.938 360.163 539.938 366.297 544.472 371.63C550.472 378.83 560.472 376.963 571.805 366.83C577.538 361.63 579.138 361.763 577.805 366.963C574.872 378.963 552.338 390.43 542.338 385.097C535.938 381.763 534.472 396.03 539.938 408.03C541.805 411.897 547.805 420.43 553.405 427.097C563.672 439.097 571.138 451.763 569.805 455.097C569.538 456.03 567.405 457.23 565.138 457.763C562.872 458.297 559.138 460.83 556.738 463.63C552.338 468.697 552.338 468.697 539.405 469.497C532.205 470.03 525.538 470.03 524.472 469.63C523.005 469.097 522.738 467.23 523.272 461.763C523.805 456.697 523.405 453.497 521.805 450.43C518.872 444.563 519.005 444.43 524.605 441.497C527.272 440.03 529.805 438.163 530.072 437.097C530.738 435.363 528.205 435.497 520.205 437.897C517.805 438.563 517.005 437.897 515.672 433.63C513.272 426.697 514.605 417.097 520.205 400.697C528.738 375.497 530.605 366.963 533.672 339.097C535.938 319.097 536.205 309.097 534.472 309.097C533.272 309.097 529.005 319.097 526.472 327.763C525.805 330.297 524.472 338.43 523.672 345.763C522.872 353.097 521.672 364.83 520.872 371.763C519.272 387.23 517.005 395.23 511.005 408.43C508.472 413.897 506.338 420.43 506.338 422.83C506.338 425.23 508.338 432.297 510.872 438.563C517.005 453.763 517.672 458.03 514.738 463.63C511.005 470.83 508.472 471.63 503.805 467.23C501.672 465.097 498.472 460.43 496.738 456.563C493.805 450.163 493.672 448.297 493.672 420.43C493.672 404.297 494.205 376.83 494.872 359.363L495.938 327.763H492.072C486.605 327.763 484.338 325.497 481.805 317.097C480.472 313.097 475.272 301.897 470.338 292.43C456.338 265.897 453.672 250.963 460.338 237.497C465.672 226.83 479.805 219.23 488.338 222.43C493.272 224.297 494.072 224.163 495.005 221.097C496.338 217.097 498.205 217.897 500.472 223.363C502.738 228.563 502.338 235.897 499.538 239.23C497.005 242.43 495.672 241.363 495.672 236.03V230.963H489.138C481.405 230.963 481.005 231.497 481.005 245.763C481.005 264.297 485.405 281.497 494.338 298.163C501.672 311.63 514.338 327.63 514.338 323.23C514.338 322.963 510.072 313.897 504.872 302.963C482.872 256.963 482.738 256.297 487.672 250.03C489.672 247.63 491.805 246.43 494.472 246.43C497.272 246.43 500.472 244.563 506.338 239.097C515.805 230.43 518.472 230.03 528.205 235.897C552.338 250.697 573.938 276.163 585.805 303.63C589.805 312.83 590.605 313.763 594.472 314.163C601.938 314.963 603.005 313.763 599.538 308.163C590.472 292.963 564.338 258.563 546.872 238.83C543.538 234.963 541.138 231.23 541.672 230.43C542.072 229.763 544.472 229.097 546.872 229.097C550.205 229.097 552.872 230.563 557.538 234.563C569.405 244.963 592.072 274.697 605.805 297.897C606.738 299.23 607.672 300.163 608.072 299.763C608.338 299.363 609.138 293.763 609.672 287.23L610.605 275.363L606.872 276.43C598.472 278.697 597.672 278.297 597.672 271.763C597.672 265.897 597.405 265.497 585.672 254.963C569.805 240.697 556.472 225.63 557.538 223.097C558.605 220.297 567.138 220.563 574.205 223.763C583.538 228.03 611.938 257.23 625.805 276.963C627.938 279.897 630.472 282.43 631.272 282.43C633.805 282.43 634.738 276.83 633.005 272.43C629.805 264.03 624.872 258.83 599.005 237.497C584.338 225.363 571.272 214.163 569.938 212.563C568.605 210.963 565.938 206.563 564.205 202.697C562.338 198.963 560.605 195.763 560.205 195.763C559.938 195.763 559.805 198.563 560.072 201.897C560.205 205.363 559.672 208.297 559.005 208.563C558.205 208.83 555.138 204.163 551.938 198.03C548.738 192.03 542.605 180.297 538.205 172.03C529.272 154.83 528.338 149.63 533.672 144.43C537.805 140.297 543.005 140.163 545.538 144.03ZM538.338 151.63C538.338 157.363 540.738 163.23 549.005 177.097C553.138 184.03 556.872 190.963 557.405 192.297C557.938 193.63 558.738 194.563 559.005 194.163C560.072 193.23 540.872 147.763 539.405 147.763C538.872 147.763 538.338 149.497 538.338 151.63ZM474.338 239.497C474.338 241.23 475.938 242.43 477.272 241.63C478.605 240.83 477.405 238.43 475.538 238.43C474.872 238.43 474.338 238.963 474.338 239.497ZM519.672 249.097C519.672 249.763 522.338 253.897 525.538 258.03C541.005 278.43 553.672 302.43 561.672 326.03C564.605 334.697 567.538 341.097 568.472 341.097C571.272 341.097 577.938 331.897 579.672 325.897C581.538 319.363 579.938 311.363 575.805 306.297L573.272 303.097L572.338 313.763C571.272 327.097 570.472 331.763 569.005 331.763C568.472 331.763 566.072 323.497 563.538 313.363C559.272 295.23 559.138 294.963 546.072 274.163C538.738 262.563 531.272 252.03 529.272 250.563C525.538 247.763 519.672 246.83 519.672 249.097ZM507.005 260.697C503.138 265.23 502.872 266.43 506.072 266.43C509.405 266.43 511.672 263.897 511.672 260.163C511.672 256.163 510.872 256.297 507.005 260.697ZM467.672 262.43C467.672 263.097 468.605 263.763 469.672 263.763C470.738 263.763 471.672 263.097 471.672 262.43C471.672 261.63 470.738 261.097 469.672 261.097C468.605 261.097 467.672 261.63 467.672 262.43ZM511.938 285.363C509.672 287.63 510.072 292.697 512.872 299.763C517.538 311.23 523.672 310.03 523.672 297.763C523.672 287.363 517.005 280.297 511.938 285.363ZM486.338 310.43C486.338 311.097 486.872 311.763 487.672 311.763C488.338 311.763 489.005 311.097 489.005 310.43C489.005 309.63 488.338 309.097 487.672 309.097C486.872 309.097 486.338 309.63 486.338 310.43ZM508.472 338.697C507.805 341.097 503.672 382.297 503.672 386.697C503.672 387.363 504.205 387.763 504.738 387.763C506.472 387.763 510.205 366.163 512.338 344.03C513.005 337.363 512.738 335.763 511.272 335.763C510.205 335.763 509.005 337.097 508.472 338.697Z" fill="#EDDFBB"/>
<path d="M136.87 148.565C138.604 149.898 138.604 150.432 137.004 152.432C135.537 154.165 133.937 154.432 129.937 153.898C124.07 152.965 119.67 150.965 119.67 149.232C119.67 147.365 134.47 146.832 136.87 148.565Z" fill="#EDDFBB"/>
<path d="M1092.21 150.164C1092.61 150.831 1092.34 153.364 1091.67 155.897C1091.01 158.431 1089.81 163.097 1089.01 166.431C1086.21 176.964 1083.27 178.564 1080.87 170.564C1079.41 165.897 1079.67 164.564 1082.47 158.964C1085.67 152.564 1090.74 147.897 1092.21 150.164Z" fill="#EDDFBB"/>
<path d="M990.605 153.231C994.472 156.965 994.605 157.498 992.605 159.498C990.472 161.498 990.072 161.365 985.672 157.098C983.138 154.565 981.005 151.765 981.005 150.831C981.005 147.631 986.472 148.965 990.605 153.231Z" fill="#EDDFBB"/>
<path d="M975.539 152.298C977.406 154.164 978.339 156.698 978.072 158.564C977.806 161.098 976.339 162.031 970.072 163.498C960.072 165.898 957.806 165.098 958.872 159.498C960.739 149.898 969.672 146.031 975.539 152.298Z" fill="#EDDFBB"/>
<path d="M520.739 152.031C523.006 154.298 522.739 155.764 519.673 159.098C517.139 161.898 517.006 162.298 519.006 167.898C520.206 171.098 524.339 179.898 528.473 187.498C539.939 209.364 544.206 225.098 538.606 225.098C537.006 225.098 535.539 223.364 534.473 220.031C528.606 203.364 520.206 182.698 518.606 180.698C516.073 177.764 513.939 177.764 511.273 180.831C508.206 184.164 508.473 190.564 512.339 210.031C515.806 226.698 515.806 229.098 512.339 229.098C509.406 229.098 506.873 223.098 504.339 210.431C503.139 204.164 501.806 198.564 501.406 197.898C499.939 195.631 498.339 200.564 499.139 204.698C500.206 210.564 496.606 210.698 493.539 204.964C490.339 198.564 492.073 193.764 502.473 180.031C511.539 168.031 511.806 167.498 510.339 163.098C507.539 154.831 515.273 146.564 520.739 152.031Z" fill="#EDDFBB"/>
<path d="M1139 153.098C1140.07 154.832 1136.34 160.965 1133.54 162.032C1129.67 163.498 1129 160.432 1132.07 156.032C1135.14 151.765 1137.54 150.698 1139 153.098Z" fill="#EDDFBB"/>
<path d="M126.606 159.629C134.473 161.496 141.673 163.763 142.473 164.696C145.139 167.363 141.406 170.429 135.406 170.429C131.139 170.429 129.273 171.229 126.206 174.563C121.139 180.029 118.339 179.229 116.339 171.496C115.539 168.163 113.806 163.763 112.473 161.763C111.139 159.763 110.606 157.763 111.273 157.229C111.806 156.696 118.739 157.763 126.606 159.629Z" fill="#EDDFBB"/>
<path d="M1073 163.762C1073 167.228 1067.94 170.028 1066.87 167.095C1065.67 164.028 1067.27 161.095 1070.34 161.095C1072.07 161.095 1073 162.028 1073 163.762Z" fill="#EDDFBB"/>
<path d="M1144.21 163.363C1146.47 165.763 1144.34 170.296 1138.47 175.763C1132.87 180.963 1131.81 182.696 1131.01 188.429C1129.41 201.096 1124.87 206.963 1122.87 199.229C1120.61 189.763 1139.27 158.429 1144.21 163.363Z" fill="#EDDFBB"/>
<path d="M529.138 168.029C534.471 175.496 543.804 195.096 548.204 208.296C551.671 218.696 551.804 220.829 549.138 219.096C547.538 218.163 523.938 170.163 522.871 165.496C521.538 160.696 524.604 161.896 529.138 168.029Z" fill="#EDDFBB"/>
<path d="M178.34 168.962C178.34 172.162 176.607 173.362 173.673 172.296C170.607 171.096 171.807 167.229 175.407 166.696C177.54 166.296 178.34 166.962 178.34 168.962Z" fill="#EDDFBB"/>
<path d="M69.4065 171.896C70.2065 174.83 70.2065 174.83 79.2732 172.296C81.9398 171.496 82.3398 171.896 82.3398 175.363C82.3398 178.563 81.0065 180.163 74.2065 184.83C69.8065 187.896 65.4065 190.43 64.4732 190.43C63.5398 190.43 61.5398 189.23 59.9398 187.763L57.0065 184.963L59.8065 179.363C62.8732 173.363 66.0732 169.096 67.6732 169.096C68.2065 169.096 69.0065 170.43 69.4065 171.896Z" fill="#EDDFBB"/>
<path d="M944.338 171.764C945.538 173.631 941.271 181.098 939.005 181.098C936.338 181.098 936.471 179.098 939.271 174.298C941.671 170.298 943.005 169.631 944.338 171.764Z" fill="#EDDFBB"/>
<path d="M136.207 178.163C137.407 180.03 133.407 182.83 130.873 181.897C129.807 181.497 129.007 180.297 129.273 179.363C130.073 177.363 135.14 176.43 136.207 178.163Z" fill="#EDDFBB"/>
<path d="M1144.47 183.098C1144.87 184.165 1144.07 187.098 1142.47 189.498C1139.54 194.298 1138.74 199.765 1141.01 199.765C1141.67 199.765 1143.41 197.232 1144.74 194.032C1147.81 187.232 1151.67 183.365 1151.67 187.232C1151.67 188.565 1149.81 195.232 1147.54 202.032C1142.87 215.765 1140.74 217.365 1137.41 209.365C1134.47 202.165 1134.74 193.498 1138.21 186.698C1141.14 180.832 1143.27 179.632 1144.47 183.098Z" fill="#EDDFBB"/>
<path d="M95.94 183.362C98.34 184.029 99.14 188.562 97.2733 191.229C96.74 192.029 93.14 193.495 89.14 194.429C82.4733 196.029 81.8067 195.895 80.0733 193.629C77.6733 190.295 77.94 188.162 81.0067 185.095C83.54 182.562 89.94 181.762 95.94 183.362Z" fill="#EDDFBB"/>
<path d="M521.939 203.365C531.405 228.432 532.072 230.432 531.139 231.365C528.072 234.432 520.072 221.098 516.472 206.832C514.205 197.765 513.672 189.098 515.405 189.098C516.072 189.098 519.005 195.498 521.939 203.365Z" fill="#EDDFBB"/>
<path d="M409.006 191.097C411.006 193.497 409.539 198.03 406.073 199.897C403.806 201.097 403.006 200.963 402.073 199.23C399.273 194.297 395.406 196.83 384.606 210.963C380.606 216.03 377.006 217.097 374.339 213.763C372.873 212.03 373.406 210.43 377.806 204.163C384.473 194.43 392.739 189.097 401.139 189.097C404.873 189.097 407.939 189.897 409.006 191.097Z" fill="#EDDFBB"/>
<path d="M1161.54 191.363C1164.74 194.696 1156.34 219.896 1152.74 217.629C1150.6 216.296 1152.34 203.629 1155.54 197.363C1158.47 191.629 1160.07 190.029 1161.54 191.363Z" fill="#EDDFBB"/>
<path d="M117.004 195.632C117.004 198.698 112.071 200.698 109.937 198.565C109.004 197.632 109.137 196.565 110.337 195.098C112.737 192.165 117.004 192.565 117.004 195.632Z" fill="#EDDFBB"/>
<path d="M371.005 199.762C372.338 202.028 367.938 207.762 365.005 207.762C363.005 207.762 362.338 206.828 362.338 204.428C362.338 200.028 369.005 196.428 371.005 199.762Z" fill="#EDDFBB"/>
<path d="M1024.47 209.763C1025.54 217.497 1022.74 226.297 1014.47 241.097C1011 247.363 1007.27 254.43 1006.34 256.697C1003.8 263.23 1004.34 273.097 1007.4 279.23C1011.67 287.497 1016.6 303.363 1019.14 317.097C1021.14 327.363 1021.67 336.563 1021.67 365.763V401.763L1018.07 407.897C1012.07 418.03 1000.07 421.63 993.804 415.363C990.071 411.63 969.671 350.43 970.738 345.897C971.004 344.43 971.538 342.163 971.804 341.097C972.338 339.097 971.804 339.097 965.804 340.83C963.404 341.497 963.271 340.963 964.204 332.963C965.138 323.363 967.004 316.697 972.471 303.097C977.271 291.097 987.004 272.697 988.738 272.03C991.138 271.23 993.538 281.497 991.804 284.963C990.604 286.963 990.604 288.43 991.671 290.563C993.938 294.563 996.338 292.963 996.738 287.097C997.404 279.23 995.804 273.097 992.471 269.897L989.271 267.097L994.471 246.563C997.271 235.363 999.804 225.897 1000.2 225.497C1000.6 225.097 1001.94 225.097 1003.14 225.63C1005 226.297 1005.27 227.763 1004.47 234.563C1003.94 238.963 1003.14 243.497 1002.74 244.563C1001.27 248.563 1005.14 246.163 1008.34 241.097C1014.2 231.763 1016.07 225.63 1015.4 217.363C1014.6 208.963 1016.87 203.763 1021.14 203.763C1022.87 203.763 1023.67 205.23 1024.47 209.763ZM1003.67 304.297C1004.87 309.63 1008.2 314.297 1009.8 312.697C1010.34 312.297 1010.07 310.163 1009.27 308.163C1008.47 306.163 1007.14 302.697 1006.34 300.563C1004.34 294.963 1002.2 297.897 1003.67 304.297ZM983.804 298.43C979.671 300.563 977.671 307.763 977.671 319.763C977.671 332.563 979.671 340.83 985.271 352.297C990.871 363.497 1003.8 382.563 1005.54 382.03C1008.07 381.23 1010.6 364.963 1009.94 353.097C1009 339.097 1006.34 328.563 1000.34 316.43C996.338 308.163 988.604 297.097 986.871 297.097C986.471 297.097 985.138 297.63 983.804 298.43ZM989.938 382.563C991.671 387.763 993.538 394.963 993.938 398.563C994.871 406.297 996.338 406.963 997.404 400.03C998.738 391.63 995.938 381.497 990.604 375.363C986.871 371.23 986.738 372.963 989.938 382.563ZM1008.07 398.563C1007 403.097 1007 406.297 1007.8 406.963C1010.07 409.363 1012.07 405.497 1012.74 397.63C1013.54 387.63 1010.34 388.297 1008.07 398.563Z" fill="#EDDFBB"/>
<path d="M487.938 206.964C491.538 209.631 490.738 212.698 486.205 214.298C480.072 216.431 479.405 216.164 479.938 212.298C480.472 207.498 484.872 204.698 487.938 206.964Z" fill="#EDDFBB"/>
<path d="M390.739 216.696C391.272 217.096 391.672 219.496 391.672 222.03C391.672 225.496 391.139 226.43 389.005 226.43C385.939 226.43 382.872 221.096 384.072 217.896C384.872 215.763 389.139 214.963 390.739 216.696Z" fill="#EDDFBB"/>
<path d="M1059.94 218.562C1063 220.295 1064.6 226.828 1066.2 245.095C1067 253.495 1068.6 269.762 1069.67 281.095C1072.34 309.362 1072.34 311.762 1069 311.762C1067.4 311.762 1065.54 310.162 1064.34 307.762C1061.14 301.628 1057.14 280.962 1055.54 262.428C1054.2 246.562 1055 218.962 1056.87 217.895C1057.27 217.495 1058.74 217.895 1059.94 218.562Z" fill="#EDDFBB"/>
<path d="M993.406 218.03C994.473 218.963 991.94 222.43 990.206 222.43C989.54 222.43 989.006 221.23 989.006 219.763C989.006 217.23 991.673 216.163 993.406 218.03Z" fill="#EDDFBB"/>
<path d="M989.137 233.631C991.004 237.498 989.137 244.298 986.07 244.831C983.404 245.364 982.337 242.298 983.27 236.564C984.204 230.831 987.27 229.364 989.137 233.631Z" fill="#EDDFBB"/>
<path d="M1251.54 254.295C1254.07 255.895 1252.34 259.762 1249.01 259.762C1245.67 259.762 1243.94 255.895 1246.47 254.295C1247.54 253.628 1248.61 253.095 1249.01 253.095C1249.41 253.095 1250.47 253.628 1251.54 254.295Z" fill="#EDDFBB"/>
<path d="M658.606 270.962C661.939 273.495 661.539 275.762 657.806 275.762C654.339 275.762 651.006 272.562 652.339 270.428C653.406 268.562 655.806 268.828 658.606 270.962Z" fill="#EDDFBB"/>
<path d="M655.005 286.43C658.071 296.03 654.605 318.43 650.071 318.43C647.805 318.43 645.005 306.696 645.005 297.63C645.005 287.496 652.605 278.963 655.005 286.43Z" fill="#EDDFBB"/>
<path d="M1250.07 313.363C1249.14 315.896 1245.01 316.296 1245.01 313.896C1245.01 312.563 1246.21 311.763 1247.81 311.763C1249.41 311.763 1250.34 312.43 1250.07 313.363Z" fill="#EDDFBB"/>
<path d="M680.737 314.695C681.67 315.629 682.337 320.429 682.337 326.695C682.337 335.095 681.937 337.095 680.337 337.095C678.07 337.095 677.937 336.695 675.67 328.029C674.87 324.695 673.404 322.429 672.337 322.429C669.537 322.429 669.67 323.362 675.804 342.962C689.67 387.629 690.337 389.762 690.337 398.429C690.337 403.362 691.137 406.962 692.604 409.095C694.47 411.762 695.004 415.495 695.27 427.229C695.27 435.362 696.07 445.495 697.004 449.629C698.87 458.962 697.937 463.362 693.67 465.362C690.87 466.562 689.937 466.429 687.67 464.429C685.404 462.295 685.004 460.295 685.004 448.562C685.004 416.962 676.204 367.762 664.47 332.429C661.27 322.962 659.804 325.229 660.604 338.295C661.137 346.962 660.87 350.962 659.67 352.429C657.27 355.362 656.204 354.029 655.137 346.962C653.937 337.762 651.804 330.429 650.337 330.429C647.804 330.429 649.137 340.162 654.87 365.495C663.67 403.629 666.47 418.962 666.07 426.029C665.67 432.162 665.537 432.429 661.67 432.429H657.67L656.737 419.762C655.67 406.162 653.404 394.829 649.004 381.229C647.27 375.762 646.337 369.095 646.337 362.562C646.337 356.162 645.27 349.229 643.537 343.762C640.47 334.029 641.004 328.029 645.004 324.429C646.337 323.229 654.604 320.162 663.27 317.629C681.67 312.295 678.87 312.829 680.737 314.695Z" fill="#EDDFBB"/>
<path d="M637.404 350.428C637.137 371.362 636.604 377.628 634.47 385.762C630.604 399.495 630.87 408.828 635.004 417.095C640.07 427.095 638.87 435.762 632.604 435.762C628.07 435.762 626.47 431.762 625.004 417.495C619.27 359.362 619.137 355.762 622.337 355.762C623.537 355.762 624.47 359.095 625.67 368.428C627.004 378.028 627.67 380.295 629.27 378.695C630.87 377.095 628.204 346.428 626.337 344.562C624.337 342.562 616.47 350.828 611.67 360.028C607.67 367.495 607.404 368.962 607.137 383.228C606.87 398.028 605.67 402.428 602.47 400.562C600.337 399.095 597.004 386.695 597.004 379.628C597.004 366.562 601.137 359.362 618.737 341.362C627.67 332.428 635.537 325.095 636.204 325.095C637.27 325.095 637.537 333.495 637.404 350.428Z" fill="#EDDFBB"/>
<path d="M610.34 340.964C610.34 343.764 607.94 346.698 602.873 350.031C596.607 354.031 594.607 347.231 600.473 341.764C604.873 337.631 610.34 337.231 610.34 340.964Z" fill="#EDDFBB"/>
<path d="M964.339 347.897C966.073 350.697 965.673 366.964 963.806 371.364C960.473 379.497 958.206 376.031 958.473 362.697C958.606 357.764 959.006 352.297 959.539 350.564C960.473 346.831 963.006 345.497 964.339 347.897Z" fill="#EDDFBB"/>
<path d="M589.405 364.562C591.271 366.429 590.338 369.229 587.938 368.829C586.738 368.562 585.671 367.495 585.671 366.562C585.671 364.429 588.071 363.229 589.405 364.562Z" fill="#EDDFBB"/>
<path d="M585.407 378.03C587.14 379.763 586.34 387.63 584.207 389.763C582.74 391.097 580.34 391.763 577.14 391.497C572.874 391.097 572.34 390.697 572.74 387.763C573.274 382.43 582.607 375.23 585.407 378.03Z" fill="#EDDFBB"/>
<path d="M594.472 400.028C600.606 408.428 609.806 427.628 610.739 433.762C611.806 440.428 609.806 456.962 607.672 458.962C606.606 460.028 605.272 459.495 602.872 456.695C599.272 452.562 598.872 448.028 601.139 438.962C603.406 429.895 601.272 426.028 591.006 421.228C582.606 417.228 578.339 413.095 578.339 408.962C578.339 407.762 576.872 405.762 575.006 404.562C573.139 403.362 571.672 401.495 571.672 400.428C571.672 397.628 578.739 394.428 584.872 394.428C589.672 394.428 590.739 395.095 594.472 400.028Z" fill="#EDDFBB"/>
<path d="M559.272 396.564C561.538 397.497 561.405 401.497 559.138 407.097C557.272 411.364 557.405 411.63 560.472 413.764C564.738 416.564 567.272 422.03 565.405 423.897C563.405 425.897 549.272 417.63 546.205 412.564C542.872 407.097 543.005 403.497 546.738 400.03C549.938 397.097 556.338 395.364 559.272 396.564Z" fill="#EDDFBB"/>
<path d="M612.87 404.296C614.337 406.163 613.537 410.43 611.67 410.43C609.67 410.43 607.403 406.43 608.203 404.43C609.137 401.896 610.87 401.896 612.87 404.296Z" fill="#EDDFBB"/>
<path d="M970.871 418.563C971.804 424.696 970.471 427.229 967.004 425.896C964.071 424.829 964.737 414.029 967.804 413.363C969.404 413.096 970.204 414.429 970.871 418.563Z" fill="#EDDFBB"/>
<path d="M575.27 414.695C578.737 418.962 581.27 425.895 581.404 431.228C581.404 434.428 581.804 437.095 582.337 437.095C582.737 437.095 584.87 435.228 587.004 433.095C592.87 426.962 594.204 427.762 593.404 436.695C592.07 452.428 597.004 467.095 614.204 498.162C619.404 507.628 625.804 520.562 628.337 526.828C635.27 544.028 636.337 555.895 629.937 545.095C626.604 539.495 625.004 540.162 625.004 547.095C625.004 551.362 625.804 553.895 627.67 555.762C630.47 558.562 636.337 559.362 637.67 557.095C640.204 552.962 647.67 559.495 651.27 568.828C654.204 576.562 653.137 584.962 646.47 604.828C633.404 644.295 628.604 672.828 628.604 713.362C628.604 726.428 628.204 737.095 627.804 737.095C627.404 736.962 625.004 734.295 622.604 731.095C620.204 727.762 617.67 725.095 617.004 725.095C616.204 725.095 615.67 728.562 615.67 732.695C615.67 742.828 612.737 758.162 608.204 770.428C602.337 786.962 599.67 787.762 599.67 772.695C599.67 762.962 598.737 762.428 595.67 770.428C592.737 778.028 583.537 791.762 581.404 791.762C580.204 791.762 579.804 790.962 580.204 789.362C586.337 768.028 588.337 759.762 587.27 759.762C587.004 759.762 585.004 763.095 582.87 767.228C576.337 779.628 565.004 792.828 565.004 787.895C565.004 787.362 567.804 780.828 571.137 773.628C577.27 760.562 587.804 732.162 589.537 724.295L590.47 720.162L581.27 720.295C574.604 720.295 571.004 719.628 567.67 717.628C560.87 713.762 561.404 712.295 570.204 710.562C576.87 709.228 578.204 708.562 578.604 706.028C578.87 704.162 580.07 702.962 582.07 702.695C584.737 702.295 585.137 702.695 584.337 704.962C583.804 706.962 584.07 707.762 585.537 707.762C590.07 707.762 591.804 705.762 594.204 697.228C606.604 654.295 615.537 598.028 615.67 562.295C615.67 540.162 614.737 537.228 601.404 518.695C586.737 498.162 577.804 478.028 573.137 454.562C569.804 438.295 569.27 416.962 572.204 414.562C573.537 413.495 574.337 413.495 575.27 414.695ZM588.337 469.895C589.27 477.495 592.07 485.495 597.27 495.095C600.47 500.962 614.87 520.428 617.004 521.762C620.337 523.895 617.67 517.895 610.47 507.495C600.604 493.228 597.804 487.762 595.004 477.362C590.87 461.228 586.604 456.562 588.337 469.895ZM621.004 614.295C621.004 616.295 620.47 621.228 619.67 625.228C615.404 648.562 611.537 674.562 611.937 676.028C612.604 678.028 617.537 665.628 620.337 655.095C623.27 644.295 625.137 624.695 624.07 616.162C623.27 608.962 621.004 607.628 621.004 614.295ZM618.87 682.695C616.737 687.628 615.67 688.428 612.337 688.428C609.67 688.562 608.204 689.228 607.937 690.695C607.404 693.628 615.937 695.362 620.47 693.228C623.27 692.028 623.67 690.962 623.67 684.428C623.67 680.428 623.137 677.095 622.604 677.095C621.937 677.095 620.337 679.628 618.87 682.695ZM607.004 704.028C605.004 705.628 602.47 708.828 601.537 711.228C599.404 716.428 599.004 725.095 601.004 725.095C601.67 725.095 602.337 724.162 602.337 723.095C602.337 718.828 605.404 714.428 608.47 714.428C612.604 714.428 613.804 712.028 610.87 709.895C608.737 708.295 608.737 708.028 612.07 705.762C614.07 704.562 615.67 702.962 615.67 702.295C615.67 700.028 610.737 701.095 607.004 704.028Z" fill="#EDDFBB"/>
<path d="M954.34 418.164C954.34 422.164 949.673 428.297 947.54 427.097C945.807 425.897 946.073 422.83 948.34 418.43C951.007 413.23 954.34 413.23 954.34 418.164Z" fill="#EDDFBB"/>
<path d="M973.004 439.095C973.004 446.295 970.737 451.762 967.537 451.762C964.471 451.762 963.671 449.095 965.671 445.095C966.604 443.228 967.804 439.762 968.337 437.362C969.671 430.695 973.004 431.895 973.004 439.095Z" fill="#EDDFBB"/>
<path d="M926.739 473.364C929.139 474.164 930.339 475.497 930.073 476.964C929.406 480.297 913.806 481.897 909.539 479.097C907.806 478.031 906.339 475.897 906.339 474.431C906.339 472.031 907.273 471.764 914.606 471.897C919.273 471.897 924.739 472.564 926.739 473.364Z" fill="#EDDFBB"/>
<path d="M912.739 493.362C915.673 496.295 913.806 503.762 910.206 503.762C908.739 503.762 905.939 495.895 906.873 493.762C907.806 491.362 910.473 491.095 912.739 493.362Z" fill="#EDDFBB"/>
<path d="M922.34 540.43C922.34 542.564 918.74 544.697 917.407 543.23C916.473 542.297 919.54 538.43 921.14 538.43C921.807 538.43 922.34 539.364 922.34 540.43Z" fill="#EDDFBB"/>
<path d="M920.471 577.762C921.671 580.828 920.071 583.762 917.004 583.762C913.404 583.762 913.404 578.962 917.004 577.095C919.138 575.895 919.938 576.028 920.471 577.762Z" fill="#EDDFBB"/>
</svg>
