<svg width="874" height="1722" viewBox="0 0 874 1722" fill="none" xmlns="http://www.w3.org/2000/svg">
<path d="M395.836 709.157L367.713 666.176L365.969 659.01L366.294 462.475L374.705 447.202L388.57 438.547L392.178 437.538L392.366 448.638L395.529 458.216L420.421 492.081L413.07 499.059L405.154 635.698L408.967 648.389L417.84 660.532L421.276 663.799L424.234 658.394L430.884 653.16L482.516 648.115L494.432 654.939L477.506 675.754L462.239 676.352L453.127 681.757L428.628 722.07L425.978 730.998L415.036 874.085L416.985 884.09L434.868 914.602L437.996 913.405L435.295 915.321L448.425 939.933L455.127 945.389L472.976 950.656L476.72 944.619L499.048 966.99L493.013 979.92L438.954 979.219L427.157 972.891L383.424 906.838L380.586 896.661L384.023 735.633L395.836 709.157Z" fill="#270F11"/>
<path d="M483.268 468.752L461.538 466.631L451.229 449.083L446.391 427.67L446.921 421.017L485.969 421.495L496.278 425.241L547.671 472.737L549.346 515.53L550.714 523.107L555.022 664.073L551.603 672.881L489.457 737.292L481.507 740.781L449.878 741.294L441.826 738.164L433.705 730.861L462.034 688.616L468.856 687.983L483.866 680.766L511.067 648.252L514.264 639.187L509.067 508.021L504.998 496.374L483.268 468.752Z" fill="#270F11"/>
<path d="M485.25 11.3395H467.504L460.341 0H538.814L564.322 27.6048L568.596 39.6627L558.509 220.462L552.662 233.82L514.314 276.356L514.229 275.689L499.098 278.922L443.945 278.973L443.586 253.404L456.631 224.602L495.354 227.509L504.962 224.773L517.58 215.674L521.085 207.926L516.998 50.7286L514.913 44.674L487.661 13.409L485.25 11.3395Z" fill="#270F11"/>
<path d="M515.767 1191.59L490.345 1134.65L518.212 1093.25L521.033 1083.02L519.665 978.654L516.246 970.239L481.181 934.613L476.001 931.791L459.451 930.85L427.635 888.109L439.825 878.531L446.595 877.368L480.873 880.532L489.678 884.688L557.585 944.55L562.92 956.642L566.749 1080.28L561.672 1102.35L517.716 1189.03L515.767 1191.59Z" fill="#270F11"/>
<path d="M512.229 207.823L506.69 211.757L493.662 215.759L479.729 215.708L463.538 208.524H454.135L451.229 212.339L434.884 246.374L433.619 253.216L435.329 441.199L437.637 449.169L455.537 476.055L474.395 476.945L494.705 498.204L487.832 508.398L482.789 511.476L449.758 511.134L442.321 507.081L407.598 457.738L402.384 441.199L399.58 250.855L401.939 240.935L434.183 181.176L441.09 177.088L486.892 177.003L494.449 180.902L510.537 204.197L512.229 207.823Z" fill="#270F11"/>
<path d="M386.381 0.102539H446.697L456.733 14.076L466.957 19.5149L475.625 19.4807L496.328 42.9294L452.869 45.6488L442.32 41.6295L430.815 31.6069L403.956 50.0444L412.316 187.727L415.582 192.601L385.68 244.954L383.696 244.493L367.899 233.324L363.146 224.242L364.018 32.9068L373.934 11.1342L386.381 0.102539Z" fill="#270F11"/>
<path d="M434.114 1134.79L428.182 1184.99L426.455 1189.15L363.676 1144.15L354.615 1126.31L356.308 968.136L359.881 957.156L382.842 928.422L384.944 926.644L410.282 972.925L402.913 980.382L399.528 987.805L394.057 1095.28L398.417 1105.19L434.114 1134.79Z" fill="#270F11"/>
<path d="M537.703 907.334L505.527 879.627L511.032 754.772L506.895 743.381L505.63 741.312L528.813 716.768L531.394 716.016L535.908 725.645L541.276 746.699L537.703 907.334Z" fill="#270F11"/>
<path d="M491.285 290.295L507.954 290.381L522.179 284.651L527.427 279.914L529.41 279.691L528.573 437.402L495.594 406.821L491.285 290.295Z" fill="#270F11"/>
<path d="M27.457 1441.28C29.0128 1439.74 30.5002 1438.14 32.1586 1436.72C33.2356 1435.79 34.5521 1435.14 36.3472 1434C36.6037 1437.21 36.7917 1439.55 37.0482 1442.77C39.4588 1440.62 40.6213 1438.73 41.271 1436.53C43.1345 1430.2 46.058 1424.35 49.0841 1418.53C49.9048 1416.96 50.2467 1415.13 50.8964 1413.22V1420.33C51.3922 1419.25 51.5973 1418.91 51.5631 1418.88C51.2896 1418.64 50.9477 1418.48 50.4348 1418.18C48.2806 1421.77 50.127 1426.61 46.5367 1429.16C46.4 1432.05 48.2293 1432.82 50.6399 1434.05C53.4267 1429.38 56.0766 1424.95 58.0427 1421.66C57.7692 1423.07 57.2221 1425.77 56.6921 1428.47C56.504 1429.31 56.2989 1430.15 56.1108 1430.99C56.4014 1431.12 56.675 1431.28 56.9656 1431.41C57.4785 1430.92 57.9743 1430.4 58.4872 1429.91C59.0514 1429.82 59.6327 1429.74 60.3849 1429.62C60.7611 1430.83 61.2056 1432.27 61.7527 1434.05C63.1546 1434.41 64.6249 1434.78 66.1294 1435.18C66.5739 1435.96 67.0526 1436.84 67.9245 1438.39C69.07 1435.98 69.9077 1434.25 70.7454 1432.51C73.6006 1433.28 71.6686 1435.98 73.1731 1437.5C73.8741 1437.26 74.6947 1436.97 75.5667 1436.66C75.6692 1438.02 75.7889 1439.47 75.977 1441.92C77.4815 1440.1 78.4218 1438.97 79.4989 1437.69C80.4905 1437.33 81.6872 1436.9 82.7472 1436.53C84.4056 1436.84 85.9442 1437.13 87.6368 1437.45C87.9958 1436.7 88.3207 1436.01 88.6797 1435.24C89.3465 1435.88 90.0816 1436.56 91.3126 1437.72C92.099 1435.23 92.6803 1433.35 93.2616 1431.45C93.2958 1431.43 93.347 1431.4 93.3983 1431.36C93.3129 1431.5 93.1761 1431.62 93.1761 1431.76C93.2274 1433.67 93.2958 1435.59 93.3812 1438.36C98.2537 1434.42 96.7834 1428.51 100.852 1425.17C100.51 1427.19 99.9292 1429.19 99.9121 1431.21C99.9121 1433.36 100.442 1435.54 100.75 1437.64C104.887 1439.33 105.588 1438.92 108.871 1432.71C108.307 1430.1 107.657 1427.09 107.024 1424.08C107.178 1424.03 107.315 1423.97 107.469 1423.92C108.187 1425.32 108.888 1426.74 109.999 1428.95C111.264 1425.17 112.239 1422.31 113.299 1419.15C113.794 1420.06 114.273 1420.9 115.077 1422.33C115.487 1420.52 115.795 1419.2 116.188 1417.47C117.351 1419.17 118.359 1420.64 119.778 1422.71C120.103 1420.55 120.325 1419.15 120.548 1417.73C120.77 1417.68 120.992 1417.63 121.214 1417.59C123.471 1424.79 125.745 1431.98 128.002 1439.18H128.891C129.917 1436.41 130.959 1433.64 132.139 1430.47C133.062 1432.61 133.9 1434.56 134.721 1436.48C136.892 1436.03 138.567 1435.67 140.79 1435.21C140.944 1432.71 141.098 1429.98 141.252 1427.22C141.508 1427.21 141.764 1427.17 142.038 1427.15C142.277 1428.66 142.534 1430.17 142.739 1431.53C144.756 1433.43 145.868 1431.07 147.629 1430.78C148.056 1432.22 148.5 1433.71 149.065 1435.57C149.988 1436.54 151.167 1437.78 152.467 1439.13C154.279 1437.9 155.92 1436.78 158.074 1435.33C158.399 1433.62 158.81 1431.52 159.254 1429.24C159.853 1429.28 160.605 1429.34 161.528 1429.4C162.007 1428.78 162.554 1428.08 163.238 1427.21C163.426 1430.44 163.614 1433.52 163.819 1436.8C165.323 1436.7 166.366 1436.65 167.443 1436.58C168.281 1437.67 169.136 1438.77 170.384 1440.39C172.213 1439.2 173.94 1438.07 175.616 1436.97C175.804 1435.33 175.992 1433.83 176.146 1432.41C177.103 1434.15 178.06 1435.91 179.12 1437.86C184.249 1436.54 182.266 1432.58 182.882 1429.91C183.206 1430.87 183.497 1432.06 183.993 1433.18C184.54 1434.36 185.275 1435.47 186.335 1437.33C187.241 1434.42 187.84 1432.46 188.523 1430.23C189.276 1431.46 189.96 1432.59 190.66 1433.72C190.9 1433.64 191.122 1433.57 191.361 1433.48C190.951 1428.57 190.524 1423.67 190.113 1418.77C190.404 1418.72 190.695 1418.67 190.985 1418.62C192.25 1422.64 193.516 1426.66 194.781 1430.68C195.088 1430.68 195.379 1430.68 195.687 1430.7C196.268 1427.46 196.849 1424.25 197.431 1421.01C197.106 1421.08 196.764 1421.15 196.439 1421.22C198.713 1426.16 200.97 1431.12 203.107 1435.78C205.227 1435.47 206.629 1435.26 208.8 1434.94C209.142 1432.85 209.552 1430.37 209.98 1427.89C209.809 1427.89 209.621 1427.91 209.45 1427.92C210.133 1432.22 210.8 1436.51 211.467 1440.7C212.989 1441.44 214.066 1441.97 214.886 1442.38C216.681 1441.8 216.801 1441.42 216.921 1437.49C217.878 1436.08 218.784 1434.75 219.554 1433.62C220.682 1435.81 221.845 1438.1 223.041 1440.43C226.067 1439.55 229.093 1438.68 232.102 1437.81C232.068 1437.52 232.051 1437.25 232.017 1436.96C232.821 1437.3 233.607 1437.66 234.718 1438.14C235.641 1437.3 236.65 1436.37 237.864 1435.28C238.565 1435.74 239.403 1436.29 240.497 1437.01C241.01 1436.37 241.454 1435.81 241.83 1435.33C243.403 1439.61 243.626 1439.98 246.19 1442.53C247.216 1439.95 248.156 1437.59 249.49 1434.18C250.105 1436.63 250.447 1438.05 250.857 1439.66C252.909 1438.99 251.832 1436.89 252.67 1435.84C253.661 1437.91 254.653 1440.02 255.576 1441.95C257.132 1443.18 258.551 1444.29 260.278 1445.64C260.568 1444.31 260.859 1443.01 261.149 1441.73C262.859 1443.01 264.586 1444.29 266.449 1445.68C267.868 1443.8 269.151 1442.1 270.382 1440.48C273.117 1441.23 274.536 1444.36 277.921 1443.61C280.964 1440.38 281.477 1435.72 283.922 1430.97C284.127 1434.37 284.298 1436.96 284.469 1439.81C285.324 1440.85 286.264 1442.02 287.615 1443.68C287.957 1442.34 288.128 1441.66 288.504 1440.12C289.461 1442.31 290.145 1443.88 291.154 1446.23C292.043 1443.71 292.693 1441.83 293.633 1439.16C294.813 1440.94 295.531 1442.02 296.437 1443.37C297.89 1441.47 299.189 1439.78 300.642 1437.86C301.172 1439.02 301.651 1440.03 302.386 1441.64C305.122 1438.17 307.532 1435.14 309.994 1432.03C310.319 1432.46 310.661 1432.9 311.071 1433.43C311.704 1433.26 312.388 1433.09 313.414 1432.83V1440.12C316.423 1439.38 315.602 1437.19 316.046 1435.57C316.491 1433.98 317.38 1432.51 318.389 1430.3C319.141 1433.4 319.756 1435.91 320.372 1438.39H326.39C329.621 1435.59 328.561 1431.64 328.458 1428.1C328.818 1430.17 329.194 1432.22 329.689 1435.04C331.809 1434.27 333.416 1433.67 335.536 1432.9C336.614 1433.19 338.443 1433.69 341.059 1434.41C341.691 1435.26 342.888 1436.85 344.581 1439.14C345.145 1437.3 345.504 1436.1 345.948 1434.63H349.692C349.385 1427.92 345.982 1422.11 345.914 1415.97C347.983 1420.98 348.581 1426.86 351.847 1431.76C355.146 1430.64 354.035 1428.08 354.531 1426.44C355.146 1426.69 355.967 1427.05 357.386 1427.65C357.659 1424.73 357.882 1422.31 358.104 1419.9C357.847 1419.9 357.574 1419.9 357.317 1419.92C357.505 1421.34 357.711 1422.74 357.967 1424.57C362.156 1422.4 361.694 1418.23 363.523 1415.4C365.472 1412.41 365.678 1409.04 365.985 1405.71C365.985 1410.62 365.985 1415.54 365.985 1420.45C365.985 1421.39 365.849 1422.52 366.293 1423.24C368.806 1427.33 368.481 1431.96 369.029 1436.42C369.217 1437.9 368.977 1439.59 371.097 1440.77C371.49 1439.42 371.815 1438.34 372.174 1437.11C374.328 1437.28 376.671 1437.47 379.201 1437.67C382.022 1434.3 380.774 1429.81 382.466 1425.89C383.031 1426.04 383.697 1426.2 384.501 1426.42C384.997 1425.51 385.527 1424.57 386.245 1423.26C386.723 1429.82 386.433 1436.22 389.391 1442.46C391.545 1439.47 393.425 1436.82 395.357 1434.13C396.229 1434.42 396.93 1434.65 397.836 1434.94C397.939 1434.32 398.212 1433.72 398.127 1433.16C397.135 1426.23 397.118 1419.39 399.443 1412.65C399.871 1411.42 399.683 1409.83 399.375 1408.51C397.853 1402.08 396.024 1395.79 393.015 1389.8C391.203 1386.18 390.006 1382.29 386.741 1379.81C387.082 1377.98 387.339 1376.61 387.63 1375.13C386.382 1372.37 385.937 1369.53 387.339 1366.56C387.783 1365.62 387.595 1364.39 387.801 1363.31C388.655 1358.52 389.732 1353.78 390.382 1348.96C391.049 1344.02 391.322 1339 391.818 1333.55C389.818 1333.63 388.553 1333.69 386.826 1333.77C386.193 1328.81 384.535 1324.16 386.672 1318.75C384.433 1319.61 382.672 1320.29 380.346 1321.2C381.235 1323.82 382.432 1326.33 382.877 1328.98C383.304 1331.55 382.979 1334.27 382.979 1337.67C382.979 1337.67 382.313 1338.29 382.381 1338.22C381.355 1342.49 380.398 1345.95 379.731 1349.45C378.722 1354.71 378.004 1359.99 377.013 1365.24C376.568 1367.58 376.961 1370.3 374.26 1372.44C372.294 1362.56 373.867 1353.25 375.252 1344.82C374.038 1341.57 373.132 1339.12 372.226 1336.68C372.379 1336.61 372.533 1336.54 372.704 1336.47C371.73 1335.07 370.772 1333.65 369.9 1332.4C369.764 1327.63 374.38 1324 372.414 1319.08C367.439 1318.57 366.515 1325.24 361.455 1324.89C363.045 1320.04 368.225 1318.94 370.396 1315.86C371.456 1313.14 372.294 1311.01 373.115 1308.85C373.439 1307.98 373.935 1307.07 373.952 1306.18C374.175 1296.33 377.03 1286.98 379.475 1277.55C381.56 1269.48 383.697 1261.42 385.954 1253.42C386.963 1249.84 389.134 1246.75 392.297 1244.88C398.212 1241.38 404.367 1238.28 411.291 1234.55C412.18 1230.91 409.582 1227.47 407.547 1223.49C407.41 1222.14 407.273 1220.41 407.034 1218.7C406.111 1212.08 410.471 1206.95 417.138 1207C419.156 1207 421.173 1207.34 423.19 1207.6C430.832 1208.59 433.671 1216.87 430.337 1223.74C428.661 1227.18 428.063 1230.48 428.165 1234.25C431.927 1238.52 436.338 1242.1 441.244 1244.8C448.356 1248.72 451.998 1254.36 452.716 1262.43C453.622 1272.76 455.024 1283.04 456.204 1293.34C456.306 1294.28 456.443 1295.22 456.46 1296.16C456.631 1303.57 457.742 1310.8 460.119 1317.85C460.358 1318.57 460.427 1319.35 460.632 1320.38C459.11 1321.27 457.674 1322.09 455.776 1323.18C456.426 1326.88 459.213 1330.66 456.631 1334.42C457.161 1336.2 457.606 1337.69 458.187 1339.62C456.836 1342.19 455.811 1345.32 453.827 1347.64C450.938 1351.04 450.305 1354.88 450.357 1358.96C450.391 1361.87 450.186 1364.61 448.185 1367.24C446.852 1361.73 448.989 1356.65 449.126 1351.32C448.305 1350.74 447.467 1350.16 446.698 1349.61C447.04 1346.68 451.212 1346.05 450.169 1342.37C448.886 1343.04 447.604 1343.67 446.014 1344.49C445.501 1343.19 445.108 1342.19 444.595 1340.87C442.612 1342.53 443.005 1344.61 443.142 1346.31C444.168 1359.75 442.732 1373.04 441.056 1386.33C439.62 1397.72 438.235 1409.13 437.021 1420.55C436.645 1424.04 437.124 1427.48 440.731 1429.57C442.133 1428.45 443.433 1427.43 445.074 1426.13C445.741 1423 446.476 1419.56 447.228 1416.12C446.955 1416.04 446.698 1415.95 446.425 1415.85C446.219 1416.55 445.877 1417.25 445.843 1417.95C445.672 1423.75 445.621 1429.57 445.416 1435.36C445.313 1438.15 445.689 1440.67 448.254 1442.77C449.878 1441.83 451.605 1440.8 453.605 1439.64C454.186 1440.15 454.973 1440.85 455.879 1441.68C457.4 1440.82 458.99 1439.93 460.7 1438.97C461.743 1439.67 462.615 1440.27 463.025 1440.55C466.017 1440.07 468.599 1439.66 471.727 1439.14C472.138 1438.44 472.787 1437.3 473.625 1435.83C475.865 1437.55 477.899 1439.13 480.122 1440.85C481.37 1438.85 482.396 1437.21 483.473 1435.48C484.071 1435.57 484.704 1435.66 485.388 1435.76C486.567 1434.03 487.678 1432.39 488.995 1430.46C489.781 1431.41 490.311 1432.05 490.91 1432.78C491.611 1432.15 492.277 1431.55 493.474 1430.46C493.32 1433.28 493.201 1435.52 493.064 1437.9C495.013 1438.91 496.893 1439.88 498.791 1440.85C501.219 1439.88 500.809 1437.74 500.467 1436.01C499.321 1430.34 499.612 1424.35 496.825 1419.01C496.329 1418.07 496.329 1416.89 496.158 1415.8C495.047 1408.97 493.628 1402.17 492.944 1395.29C492.483 1390.66 493.132 1385.92 493.201 1381.23C493.252 1377.16 493.32 1373.09 493.115 1369.02C493.064 1367.89 492.124 1366.75 491.474 1365.7C490.636 1364.37 489.696 1363.1 488.773 1361.84C486.123 1358.14 484.704 1354.12 484.943 1349.49C485.114 1346.29 484.858 1343.07 484.31 1339.84C482.396 1342.96 483.353 1346.41 482.806 1350.14C482.139 1351.04 481.216 1352.29 480.378 1353.44C473.591 1351.95 472.377 1349.57 471.813 1342.46C471.061 1332.62 472.753 1323.05 473.437 1313.37C474.377 1299.7 475.198 1286.04 476.343 1272.39C476.839 1266.62 478.07 1260.91 479.028 1254.75C483.045 1253.01 486.926 1251.35 490.756 1249.64C493.03 1248.61 495.457 1247.76 497.475 1246.34C502.176 1243.04 503.014 1238.5 500.21 1233.54C499.219 1231.78 498.193 1230.04 496.928 1227.87C494.443 1226 493.07 1224.1 492.807 1222.17C494.38 1221.69 495.987 1221.18 498.073 1220.55C498.62 1219.04 499.475 1217.35 499.817 1215.57C500.398 1212.56 502.125 1210.9 504.963 1210.1C510.331 1208.57 515.529 1208.88 520.316 1211.22C524.829 1214.71 521.752 1220.2 524.265 1224.24C525.855 1224.63 527.462 1225.04 529.394 1225.52C527.736 1228.82 524.18 1228.23 521.683 1230.5C520.812 1233.89 519.786 1237.82 518.623 1242.32C524.385 1248.07 532.728 1247.28 539.943 1250.12C542.712 1254.89 544.165 1260.29 545.106 1265.89C546.576 1274.58 548.2 1283.23 549.619 1291.92C550.799 1299.2 551.534 1306.58 552.919 1313.83C554.218 1320.65 554.406 1327.53 554.765 1334.4C554.851 1336.06 555.688 1337.69 556.458 1340.18C556.133 1341.95 555.432 1344.53 555.227 1347.15C555.039 1349.61 555.039 1352.16 555.517 1354.57C556.8 1361.03 558.424 1367.45 559.843 1373.9C560.082 1374.97 559.877 1376.14 559.877 1377.71C557.244 1376.44 557.278 1374.41 556.766 1372.7C555.158 1367.28 553.688 1361.8 551.996 1356.4C551.397 1354.48 550.354 1352.72 549.089 1349.97C549.004 1349.27 548.781 1347.56 548.576 1345.83C546.73 1343.26 542.934 1341.4 545.687 1337.41C544.593 1336.46 543.789 1335.75 542.934 1335C541.191 1327.61 539.618 1320.17 536.421 1313.16C535.463 1317.68 535.959 1322.12 536.455 1326.54C537.669 1337 539.036 1347.45 540.25 1357.92C540.934 1363.89 540.421 1369.81 539.088 1375.26C536.557 1376.75 534.437 1377.98 532.147 1379.33C533.942 1385.51 532.403 1390.76 529.787 1396.01C526.573 1402.47 523.855 1409.2 520.965 1415.75C522.077 1423.26 522.265 1430.52 517.7 1437.55C518.863 1439.4 520.162 1441.47 521.615 1443.78C522.726 1442.27 523.803 1440.85 524.915 1439.37C526.659 1439.9 528.129 1440.34 529.685 1440.82C530.027 1442.1 530.351 1443.3 530.779 1444.87C533.377 1443.69 535.822 1442.58 538.558 1441.35C539.259 1442.12 540.148 1443.08 541.601 1444.63V1438.7C543.618 1437.33 545.072 1436.37 546.627 1435.31C546.764 1436.29 546.952 1437.57 547.123 1438.84C547.414 1439.04 547.721 1439.25 548.012 1439.44C548.645 1438.46 549.277 1437.49 550.235 1436.03V1443.49C551.654 1442.53 552.543 1441.92 553.893 1440.99C556.988 1440.91 559.262 1439.08 559.894 1435.57C560.39 1432.82 560.766 1430.03 561.792 1427.17C561.946 1427.91 562.305 1428.68 562.219 1429.38C561.86 1432.18 561.313 1434.95 560.92 1437.76C560.578 1440.24 561.228 1442.33 563.57 1444.04C565.502 1441.8 565.177 1439.52 564.835 1437.02C565.536 1436.36 566.374 1435.52 567.314 1434.61C569.827 1436.22 570.956 1432.97 573.041 1433.19C573.948 1430.44 574.717 1428.08 575.469 1425.72C575.691 1425.74 575.914 1425.75 576.136 1425.79C576.512 1430.87 576.871 1435.95 577.316 1441.95C578.803 1440.34 579.555 1439.52 580.547 1438.46C581.077 1439.79 581.453 1440.77 581.897 1441.92C582.376 1441.52 582.923 1441.32 582.974 1440.99C583.248 1439.61 583.402 1438.2 583.658 1436.36C584.394 1437.38 584.941 1438.15 585.744 1439.3C586.513 1438 587.095 1437.02 588.052 1435.43C588.531 1437.02 588.821 1437.98 589.061 1438.8C591.232 1439.81 593.301 1440.77 595.729 1441.9C596.327 1441.56 597.25 1441.03 598.361 1440.39C599.148 1440.94 600.02 1441.52 600.823 1442.09C602.396 1441.95 602.995 1439.32 605.166 1440.85C605.713 1439.95 606.26 1439.08 606.91 1438C608.294 1437.76 609.816 1437.49 611.526 1437.19C611.902 1434 612.158 1430.87 611.303 1427.51C610.62 1424.86 611.167 1421.9 611.526 1418.98C611.885 1421.24 612.244 1423.51 612.654 1425.99H617.475C617.749 1420.3 618.022 1414.77 618.296 1409.23C618.159 1409.23 618.022 1409.23 617.886 1409.23C618.399 1417.53 618.86 1425.84 619.476 1434.13C619.698 1437.25 620.348 1440.32 623.066 1442.75C624.143 1442 625.117 1441.33 626.143 1440.63C627.272 1441.01 628.417 1441.39 630.144 1441.95C630.691 1439.37 631.187 1437.07 631.443 1435.88C631.563 1436.1 632.212 1437.33 633.255 1439.3C634.982 1436.7 636.162 1434.9 637.461 1432.95C638.436 1435.04 639.376 1437.04 640.316 1439.02C640.727 1438.97 641.137 1438.92 641.547 1438.87C641.992 1436.56 642.436 1434.25 642.778 1432.46C643.445 1433.74 642.949 1436.25 645.838 1437.5C646.642 1436.05 647.343 1434.8 648.317 1433.07C648.899 1435.31 649.377 1437.18 649.839 1439.04C650.13 1439.08 650.42 1439.11 650.711 1439.16C651.07 1437.38 651.446 1435.62 651.942 1433.19C652.609 1435.02 653.07 1436.29 653.669 1437.93C654.848 1438.2 656.148 1438.49 657.498 1438.8C658.353 1437.59 659.037 1436.61 659.823 1435.5C661.379 1436.7 662.73 1437.72 664.132 1438.8C665.482 1438.36 666.782 1437.93 668.081 1437.52C668.166 1438.51 668.252 1439.52 668.355 1440.51C669.192 1439.86 669.329 1439.26 669.158 1438.79C668.97 1438.29 668.491 1437.91 668.132 1437.49C668.286 1436.44 668.44 1435.4 668.714 1433.52C669.842 1435.3 670.543 1436.41 671.449 1437.81C672.304 1436.89 672.988 1436.17 673.808 1435.3C674.578 1436.65 675.244 1437.84 675.911 1439.02C677.364 1438.65 678.681 1438.31 680.442 1437.84C679.912 1435.67 679.365 1433.48 678.766 1431.09C679.912 1432.03 680.835 1432.82 681.792 1433.59C682.476 1433.3 683.04 1433.07 683.895 1432.71C685.4 1434.06 686.99 1435.52 689.007 1437.35C689.913 1436.48 690.819 1435.6 691.708 1434.73C691.931 1435.01 692.478 1435.69 693.401 1436.84C696.461 1430.35 693.897 1424.09 694.82 1417.87C696.307 1423.89 697.795 1429.93 699.282 1435.95C699.522 1435.95 699.744 1435.93 699.983 1435.91C700.24 1434.51 700.496 1433.09 700.838 1431.24C701.915 1431.98 702.736 1432.54 703.642 1433.18C704.001 1432.34 704.377 1431.53 704.702 1430.76C707.471 1431.14 710.121 1431.52 713.438 1431.98C713.147 1429.86 712.942 1428.27 712.669 1426.27C711.848 1426.93 711.523 1427.21 711.079 1427.57V1413.64C711.079 1413.64 711.198 1413.64 711.267 1413.64V1420.64C712.293 1421.94 713.25 1423.14 714.207 1424.35C716.875 1423.61 716.293 1421.41 716.909 1419.32C718.396 1424.23 719.781 1428.78 721.183 1433.36C722.636 1433.45 723.508 1433.5 724.653 1433.59C724.841 1431.38 725.03 1429.4 725.201 1427.43C725.389 1427.39 725.56 1427.36 725.748 1427.33C726.192 1429.1 726.62 1430.87 727.115 1432.82C728.876 1434.97 730.774 1437.26 732.757 1439.67C733.68 1439.32 734.655 1438.94 735.647 1438.55C735.988 1437.45 736.296 1436.44 736.638 1435.36C737.664 1435.47 738.553 1435.55 739.151 1435.6C740.245 1437.01 741.152 1438.37 742.314 1439.5C742.536 1439.73 743.733 1438.92 744.52 1438.58C745.317 1439.75 746.628 1440.56 748.452 1440.99C749.871 1438.77 748.76 1436.48 748.571 1434.22C748.383 1432.03 748.076 1429.86 748.178 1427.58C748.896 1429.33 749.58 1431.09 750.332 1432.82C751.153 1434.71 752.606 1435.76 754.931 1435.84C755.342 1434.94 755.752 1434 756.128 1433.14C757.188 1435.04 758.282 1436.97 759.77 1439.61C762.796 1433.79 761.479 1429.69 757.923 1425.75C758.829 1426.21 759.736 1426.69 760.744 1427.21C761.394 1426.69 762.044 1426.18 762.813 1425.56C764.711 1428.44 765.172 1432.15 769.019 1433.43C770.113 1429.98 766.113 1428.13 766.266 1424.59C770.045 1427.22 770.062 1432.03 773.413 1434.99C773.755 1434.17 774.011 1433.67 774.182 1433.16C774.353 1432.65 774.456 1432.13 774.746 1430.95C776.37 1433.26 777.55 1434.95 778.747 1436.65C778.969 1436.56 779.191 1436.46 779.414 1436.37C779.362 1435.21 779.294 1434.05 779.208 1432.37C780.952 1434.53 782.423 1436.34 784.166 1438.49C785.038 1437.49 785.517 1436.94 786.081 1436.27C786.115 1436.27 786.44 1436.2 786.594 1436.32C789.552 1438.75 789.74 1438.72 791.125 1435.47C793.005 1436.17 794.869 1436.87 796.903 1437.64C797.638 1436.8 798.22 1436.12 799.006 1435.19C800.459 1437.83 803.28 1437.86 805.725 1438.58C808.734 1435.88 808.837 1435.35 807.349 1431.48C808.204 1431.19 809.076 1430.88 810.102 1430.52C810.752 1431.45 811.777 1432.9 813.248 1434.97C815.761 1430.75 817.915 1427.09 820.548 1422.64C819.026 1417.03 817.334 1410.72 815.692 1404.61C816.086 1402.47 816.462 1400.42 816.787 1398.59C819.351 1401.19 821.984 1407.11 824.36 1416.23C825.437 1414.7 826.224 1413.57 826.993 1412.48C826.446 1410.05 825.967 1407.91 825.455 1405.64C826.241 1405.14 827.113 1404.6 828.31 1403.84C828.84 1405.86 829.301 1407.64 829.797 1409.42C830.259 1411.01 830.789 1412.58 831.473 1414.77C832.857 1413.3 833.763 1412.33 834.601 1411.44C834.909 1405.78 835.2 1400.34 835.507 1394.9C835.371 1394.9 835.234 1394.9 835.114 1394.9C835.182 1396.11 835.182 1397.33 835.353 1398.52C836.379 1405.79 837.456 1413.04 838.602 1420.95C839.593 1419.85 840.226 1419.15 841.303 1417.95C841.423 1419.7 841.491 1421.01 841.611 1422.31C841.748 1423.72 842.021 1425.1 842.038 1426.51C842.038 1427.84 841.799 1429.17 841.645 1430.8C842.346 1431.45 843.269 1432.3 844.312 1430.61C844.466 1432.71 844.62 1434.85 844.774 1436.99L846.005 1437.18C846.876 1434.8 847.731 1432.42 848.757 1429.62C849.185 1431.88 849.544 1433.76 849.954 1435.89C850.843 1435.83 851.561 1435.79 852.245 1435.74C853.493 1437.01 854.741 1438.26 856.741 1440.27C858.639 1433.65 858.69 1427.74 859.648 1422.01C860.605 1416.31 861.426 1410.6 862.212 1405.52C862.417 1408.17 862.657 1411.44 862.896 1414.69C863.255 1414.7 863.614 1414.72 863.956 1414.74C866.589 1410.26 864.161 1404.92 865.631 1399.89C867.324 1400.87 866.828 1402.1 866.691 1403.21C866.555 1404.46 866.315 1405.71 866.315 1406.96C866.315 1408.14 866.589 1409.32 866.794 1410.87C868.64 1408.27 870.743 1399.09 870.948 1393.58C871.666 1394.33 872.385 1395.09 873.103 1395.84V1402.46C871.342 1402.92 871.325 1404 872.128 1405.33L872.214 1405.19C870.607 1404.7 870.299 1405.74 870.213 1406.94C870.042 1409.13 869.991 1411.33 869.752 1413.51C869.273 1418.04 868.657 1422.54 868.196 1427.07C868.128 1427.77 868.589 1428.54 868.794 1429.28C870.35 1426.39 870.983 1423.53 871.752 1420.69C871.974 1419.9 872.641 1419.25 873.103 1418.53V1496.05H272.108C270.159 1495.71 268.193 1495.04 266.244 1495.07C262.842 1495.16 259.457 1495.69 256.055 1496.05H0C0 1475.25 0 1454.45 0 1433.67C1.65836 1434.48 0.153869 1436.77 2.23965 1437.71C4.51348 1436.58 7.06087 1435.3 9.52277 1434.08C12.0701 1435.74 14.344 1437.21 16.652 1438.72C20.3278 1437.23 20.0884 1433.16 22.5674 1430.63V1434.82C23.2855 1435.04 23.9693 1435.26 24.7216 1435.52C24.3626 1436.8 24.0206 1438.08 23.4735 1440.02C24.8754 1439.55 25.7816 1439.25 26.8245 1438.9C27.0638 1439.76 27.3032 1440.6 27.5425 1441.44C27.0467 1441.49 26.5338 1441.52 26.038 1441.57L26.3287 1442.24C26.7048 1441.93 27.0809 1441.62 27.457 1441.32V1441.28ZM825.967 1419.24C826.378 1419.68 826.788 1420.11 827.198 1420.55C827.421 1420.43 827.643 1420.31 827.848 1420.19C827.626 1419.51 827.404 1418.81 827.181 1418.12C826.651 1417.41 826.104 1416.69 825.42 1415.76C824.241 1417.63 824.668 1418.55 825.967 1419.24ZM416.625 1355.56C416.283 1356.95 415.873 1357.7 415.976 1358.38C416.608 1362.76 415.052 1366.75 414.01 1370.85C412.642 1376.32 411.667 1381.92 412.83 1387.56C413.65 1391.55 414.83 1395.46 415.924 1399.4C416.01 1399.69 416.625 1399.82 417.514 1400.34C418.249 1396.86 418.933 1393.7 419.668 1390.25C416.095 1385.2 416.078 1379.42 416.899 1373.57C417.446 1369.69 418.301 1365.84 418.985 1361.96C419.378 1359.73 419.309 1357.63 416.642 1355.56H416.625ZM408.675 1433.62C409.069 1433.62 409.479 1433.62 409.872 1433.62C415.565 1426.06 416.489 1417.49 415.309 1407.43C413.941 1408.87 412.915 1409.5 412.608 1410.38C411.872 1412.57 411.103 1414.86 411.001 1417.15C410.761 1421.85 410.453 1426.47 408.453 1430.85C408.111 1431.58 408.573 1432.68 408.658 1433.6L408.675 1433.62ZM445.536 1323.2C442.202 1317.32 443.45 1310.95 441.62 1304.39C440.612 1307.64 439.911 1310.05 440.475 1312.82C441.723 1318.91 442.732 1325.05 443.843 1331.22C445.963 1329.73 448.015 1328.21 448.698 1325.24C447.57 1324.52 446.561 1323.87 445.536 1323.22V1323.2ZM509.887 1376.72C512.075 1381.27 512.058 1385.03 510.366 1389.05C509.152 1391.94 510.571 1394.83 512.332 1397.46C512.639 1391.46 512.297 1385.46 515.272 1380.45C513.409 1379.15 512.058 1378.22 509.887 1376.73V1376.72ZM435.192 1431.02C432.713 1437.31 432.559 1439.55 434.371 1441.47C436.047 1438.02 435.466 1434.48 435.192 1431.02ZM405.854 1437.49C406.835 1436.43 407.16 1435.05 406.829 1433.35C404.965 1434.58 404.196 1435.6 405.854 1437.49ZM840.79 1426.71C840.636 1426.71 840.482 1426.71 840.329 1426.71V1428.4H840.79V1426.71Z" fill="#270F11"/>
<rect y="1496.05" width="873" height="225" fill="#270F11"/>
</svg>
