<?xml version="1.0" standalone="no"?>
<!DOCTYPE svg PUBLIC "-//W3C//DTD SVG 20010904//EN"
 "http://www.w3.org/TR/2001/REC-SVG-20010904/DTD/svg10.dtd">
<svg version="1.0" xmlns="http://www.w3.org/2000/svg"
 width="570.000000pt" height="459.000000pt" viewBox="0 0 570.000000 459.000000"
 preserveAspectRatio="xMidYMid meet">

<g transform="translate(0.000000,459.000000) scale(0.100000,-0.100000)"
fill="#000000" stroke="none">
<path d="M3940 4422 c-19 -10 -55 -32 -78 -49 -24 -18 -109 -58 -189 -89 -234
-91 -338 -173 -387 -303 -57 -149 -71 -233 -69 -411 1 -91 8 -221 16 -290 16
-139 11 -161 -29 -135 -13 8 -30 15 -39 15 -9 0 -32 8 -53 19 -20 10 -62 22
-92 26 -30 4 -62 11 -71 16 -21 11 -84 105 -93 139 -4 14 -20 54 -36 90 -16
36 -32 81 -35 101 -6 34 -4 39 29 64 34 26 36 30 36 89 0 34 5 67 11 73 7 7 4
20 -10 44 -12 19 -21 48 -21 64 0 17 -4 45 -9 63 -6 21 -6 43 -1 58 8 20 5 33
-14 62 -40 63 -49 67 -155 66 -167 -2 -292 -36 -326 -88 -21 -32 -65 -198 -65
-248 0 -33 -4 -38 -42 -56 -24 -11 -81 -30 -128 -43 l-85 -22 -250 -248 c-251
-249 -280 -272 -370 -293 -16 -4 -64 -20 -105 -35 -41 -16 -101 -34 -133 -41
-44 -9 -69 -22 -110 -56 -29 -25 -71 -50 -94 -57 -31 -8 -60 -28 -104 -73 -60
-61 -62 -64 -47 -86 26 -38 207 -247 294 -338 53 -56 94 -109 117 -155 30 -60
58 -91 187 -213 158 -149 214 -188 318 -223 47 -16 66 -28 77 -49 16 -31 92
-71 208 -110 55 -19 72 -21 93 -11 24 10 25 14 18 69 -7 68 0 78 70 91 44 8
73 0 41 -13 -18 -7 -20 -40 -2 -54 7 -5 21 -6 32 -1 55 22 61 -11 13 -65 -167
-182 -223 -242 -226 -236 -1 4 13 31 33 61 19 29 35 57 35 61 0 19 -38 5 -57
-21 -12 -15 -47 -50 -78 -76 l-56 -48 -49 27 c-144 79 -336 107 -493 72 -320
-72 -550 -360 -549 -691 0 -124 21 -215 74 -324 33 -69 57 -102 132 -177 78
-79 104 -98 186 -137 122 -59 232 -82 348 -73 117 9 162 21 272 73 177 85 320
262 370 459 11 43 20 92 20 110 0 41 -14 37 249 64 120 12 217 27 236 36 46
21 82 63 119 135 31 60 35 64 90 82 57 19 60 19 118 1 l59 -18 22 27 22 27 75
-35 c83 -40 146 -43 194 -11 43 27 34 60 -31 125 -105 102 -141 148 -190 239
-17 33 -17 33 13 62 78 77 488 398 502 393 11 -5 13 -18 9 -61 -6 -53 -5 -56
30 -88 l36 -34 -85 -88 c-136 -143 -198 -298 -198 -491 0 -123 19 -203 77
-321 38 -79 60 -108 132 -180 142 -142 304 -209 507 -210 266 0 505 144 628
380 95 182 109 378 41 573 -35 102 -81 172 -170 263 -66 67 -97 89 -175 127
-114 56 -178 73 -304 83 l-94 7 -10 56 c-34 194 -64 401 -60 412 3 8 110 47
243 89 131 41 246 81 255 90 13 11 21 43 29 112 16 144 15 157 -35 325 l-47
155 42 80 c28 55 41 92 41 120 0 28 7 49 26 71 19 23 24 36 18 56 -3 14 -12
56 -18 92 -13 75 -36 116 -72 129 -43 17 -175 12 -195 -6 -29 -26 -43 -11 -58
62 -23 116 -23 116 37 138 101 36 131 128 83 251 -11 27 -21 59 -23 70 -2 11
-20 31 -41 44 -29 19 -37 31 -37 53 0 17 -10 39 -25 53 -22 23 -32 25 -110 25
-91 0 -91 0 -143 64 -17 21 -50 20 -92 -2z m588 -885 c6 -6 13 -26 17 -42 5
-27 4 -28 -7 -11 -7 11 -21 28 -30 38 -10 10 -18 20 -18 23 0 10 28 5 38 -8z
m-91 -109 c25 -32 56 -167 43 -188 -5 -9 -18 19 -39 84 -17 53 -31 101 -31
106 0 14 16 12 27 -2z m-1418 -434 c62 -4 105 -2 130 6 28 9 47 9 79 1 35 -10
43 -17 50 -44 10 -37 52 -66 105 -69 20 -2 37 -4 37 -6 0 -1 -7 -13 -16 -26
-8 -13 -14 -37 -12 -52 3 -24 -1 -29 -28 -34 -17 -4 -51 -21 -75 -37 -42 -29
-46 -30 -73 -16 -18 9 -40 13 -60 8 -88 -18 -201 -27 -239 -19 l-41 9 -13 75
c-7 41 -16 108 -19 149 l-7 73 44 -6 c24 -3 86 -9 138 -12z m473 -246 c-13
-13 -26 8 -17 30 6 16 7 16 17 -1 7 -13 7 -22 0 -29z m72 -183 c29 -72 45
-175 28 -175 -6 0 -14 5 -17 10 -8 12 -45 13 -45 1 0 -5 -3 -22 -6 -39 -5 -25
-2 -31 15 -37 27 -8 28 -63 2 -120 -32 -69 -28 -68 -324 -159 -81 -25 -152
-46 -157 -46 -6 0 -10 36 -10 83 0 102 -20 191 -51 224 -33 35 -88 65 -196
108 -72 29 -93 41 -93 56 0 29 47 25 76 -6 20 -22 30 -25 61 -19 22 3 47 16
58 30 20 23 29 25 135 27 79 2 124 8 145 19 49 25 124 32 144 14 12 -11 35
-15 81 -13 61 2 64 3 72 32 29 96 47 98 82 10z m379 -267 c12 -46 77 -410 77
-426 0 -12 -23 -25 -75 -45 -41 -16 -79 -25 -85 -22 -5 3 -17 30 -25 60 -9 29
-24 64 -34 77 -25 32 -127 286 -118 294 10 10 218 83 238 83 9 1 19 -9 22 -21z
m-355 -116 c3 -17 -2 -22 -17 -22 -14 0 -21 6 -21 18 0 38 33 41 38 4z m2
-167 c0 -31 -26 -43 -47 -22 -21 21 -9 47 22 47 20 0 25 -5 25 -25z m-137 -18
l27 -22 -27 -79 -28 -78 -162 -134 c-89 -74 -165 -134 -169 -134 -13 0 -44 32
-44 46 0 7 14 15 31 19 37 8 47 30 25 54 -9 10 -16 29 -16 43 0 14 -9 36 -19
49 -16 21 -18 36 -14 92 l6 67 111 34 c249 77 239 76 279 43z m-923 -137 c11
-7 3 -14 -32 -29 -26 -11 -63 -23 -82 -26 -32 -6 -37 -4 -55 26 -15 25 -17 35
-8 42 14 9 155 -1 177 -13z m1721 -232 c0 -35 3 -90 5 -123 5 -52 2 -63 -14
-79 -25 -22 -24 -22 -47 114 -8 52 -18 107 -21 123 -5 26 -4 27 35 27 l41 0 1
-62z m89 36 c0 -52 -25 -156 -41 -170 -18 -17 -19 -14 -19 84 l0 102 30 0 c20
0 30 -5 30 -16z m-1995 -4 c4 -6 1 -18 -6 -26 -24 -29 -130 -106 -137 -100 -6
7 117 136 130 136 4 0 10 -5 13 -10z m421 -24 c-21 -34 -21 -35 15 -48 25 -9
29 -14 25 -37 -3 -14 -8 -75 -11 -136 -4 -60 -12 -116 -17 -122 -8 -10 -17 -7
-42 11 -41 30 -89 46 -141 46 -48 0 -55 9 -55 69 0 23 9 51 23 71 21 30 208
181 216 174 2 -2 -4 -15 -13 -28z m1288 18 c3 -9 6 -34 6 -57 0 -23 9 -66 20
-95 29 -77 27 -92 -10 -57 -28 27 -120 164 -120 179 0 7 78 45 91 46 4 0 10
-7 13 -16z m350 0 c24 -9 20 -22 -20 -67 l-37 -40 8 49 c10 67 13 72 49 58z
m84 -43 l24 -18 -89 -82 c-84 -78 -88 -81 -91 -56 -2 15 4 38 14 53 21 32 104
122 113 122 3 0 17 -9 29 -19z m66 -50 c22 -24 24 -20 -80 -147 -64 -78 -93
-105 -125 -118 -23 -9 -43 -15 -45 -13 -2 2 0 26 5 53 8 45 17 56 113 146 56
54 106 98 109 98 3 0 14 -9 23 -19z m-654 -102 c34 -50 59 -93 56 -96 -14 -14
-69 24 -116 79 l-51 61 22 23 c13 13 23 24 25 24 1 0 30 -41 64 -91z m734 10
c-7 -11 -142 -121 -177 -144 -15 -10 -30 -16 -32 -13 -3 2 34 51 81 107 l86
103 24 -23 c13 -12 21 -26 18 -30z m-2456 8 c2 -10 -3 -17 -12 -17 -10 0 -16
9 -16 21 0 24 23 21 28 -4z m1632 -29 c47 -52 38 -57 -43 -24 -26 10 -27 12
-12 34 9 12 18 22 21 22 2 0 18 -15 34 -32z m490 -24 c-11 -47 -20 -55 -20
-18 0 24 15 54 26 54 1 0 -2 -16 -6 -36z m-2315 -4 c-10 -11 -23 -20 -28 -20
-6 0 0 11 13 25 27 29 42 25 15 -5z m2689 -6 c9 -20 16 -37 14 -39 -7 -5 -173
-44 -176 -41 -3 4 130 115 139 115 3 1 13 -15 23 -35z m-863 -25 c46 -15 73
-31 96 -57 36 -41 40 -52 18 -52 -22 0 -208 52 -218 60 -9 8 19 70 31 70 5 0
37 -9 73 -21z m439 -16 c0 -19 -3 -24 -10 -17 -6 6 -8 18 -4 27 9 24 14 21 14
-10z m-2774 -60 c-3 -42 -6 -87 -6 -100 0 -12 -4 -23 -8 -23 -9 0 -34 179 -26
192 3 4 15 8 26 8 20 0 21 -4 14 -77z m97 -70 c-5 -124 -9 -152 -25 -175 -24
-35 -30 -35 -52 2 -16 28 -17 41 -7 143 18 183 17 177 55 177 l34 0 -5 -147z
m98 128 c4 -3 2 -44 -3 -91 -8 -65 -17 -94 -37 -122 -14 -21 -30 -38 -35 -38
-5 0 -6 27 -2 61 3 34 6 95 6 135 l0 74 33 -7 c17 -3 35 -8 38 -12z m-252 -91
c6 -47 14 -100 17 -119 5 -31 4 -33 -10 -22 -44 37 -158 183 -149 192 15 15
117 48 125 41 4 -4 11 -45 17 -92z m326 66 c21 -15 18 -21 -34 -86 l-21 -25 0
31 c0 49 11 94 24 94 7 0 21 -6 31 -14z m2966 -12 c5 -15 8 -28 6 -30 -2 -2
-61 -6 -133 -9 -71 -3 -122 -2 -114 2 15 7 209 61 223 62 4 1 12 -11 18 -25z
m-751 -16 c0 -6 -7 -5 -15 2 -8 7 -15 17 -15 22 0 6 7 5 15 -2 8 -7 15 -17 15
-22z m327 10 c-3 -8 -6 -5 -6 6 -1 11 2 17 5 13 3 -3 4 -12 1 -19z m-2477 -21
c0 -18 -129 -155 -130 -138 0 20 100 151 116 151 8 0 14 -6 14 -13z m2024 -23
c72 -20 136 -39 143 -43 15 -8 65 -81 55 -81 -6 0 -200 50 -309 79 -31 9 -43
17 -43 31 0 22 10 50 18 50 3 0 64 -16 136 -36z m-2506 -66 c44 -51 91 -111
106 -132 14 -22 36 -46 47 -54 l22 -15 -24 -13 c-35 -19 -56 -17 -138 15 -69
27 -80 35 -143 111 -37 45 -68 86 -68 90 0 10 99 90 110 90 5 0 44 -42 88 -92z
m1366 63 c16 -9 31 -22 34 -29 6 -18 -56 -72 -84 -72 -43 0 -88 108 -51 123
18 8 68 -3 101 -22z m1556 13 c0 -8 -5 -12 -10 -9 -6 4 -8 11 -5 16 9 14 15
11 15 -7z m481 -54 c4 -19 5 -38 1 -42 -4 -4 -72 -18 -152 -32 -138 -24 -146
-24 -174 -8 -52 30 -56 49 -16 80 41 33 82 40 225 38 l109 -1 7 -35z m-2196
-56 c3 -20 3 -40 -2 -44 -16 -14 -94 -40 -104 -35 -13 9 -11 76 4 105 7 13 24
30 37 37 22 11 27 10 41 -7 9 -10 20 -36 24 -56z m1820 51 c-38 -31 -45 -31
-45 0 0 22 4 25 38 25 l37 -1 -30 -24z m-2419 -40 c15 -20 25 -37 23 -39 -7
-8 -174 -54 -178 -50 -6 5 110 124 121 124 4 0 19 -16 34 -35z m1873 4 c64
-17 133 -35 154 -40 32 -8 36 -13 27 -25 -17 -19 -51 -18 -196 8 l-124 22 0
33 c0 18 5 33 12 33 6 0 63 -14 127 -31z m-875 -8 c3 -4 -13 -13 -35 -20 -31
-9 -44 -9 -55 0 -7 6 -11 15 -8 20 7 11 91 12 98 0z m-1759 -66 c31 -36 52
-65 46 -65 -14 0 -143 51 -155 61 -9 8 29 69 43 69 5 0 34 -29 66 -65z m3563
13 l-3 -33 -101 -3 c-92 -2 -166 10 -151 25 8 8 182 40 225 42 32 1 33 -1 30
-31z m-835 -36 c13 -5 -9 -21 -92 -65 l-110 -58 -15 52 c-9 29 -16 67 -16 85
l0 31 108 -18 c59 -11 115 -23 125 -27z m472 38 c3 -5 0 -10 -9 -10 -8 0 -21
-3 -30 -6 -11 -4 -16 -1 -16 10 0 18 45 23 55 6z m-2735 -25 c-7 -9 -15 -13
-18 -10 -3 2 1 11 8 20 7 9 15 13 18 10 3 -2 -1 -11 -8 -20z m2408 3 c-5 -16
-48 -24 -48 -10 0 11 17 20 38 21 8 1 12 -5 10 -11z m-2053 -29 c9 -17 14 -36
12 -43 -4 -10 -145 -56 -171 -56 -15 0 -4 18 14 23 22 6 28 37 6 37 -7 0 -19
-7 -26 -15 -14 -17 -40 -20 -40 -6 0 16 56 51 112 71 71 25 75 25 93 -11z
m2415 21 c0 -5 -4 -10 -9 -10 -6 0 -13 5 -16 10 -3 6 1 10 9 10 9 0 16 -4 16
-10z m-325 -10 c3 -5 1 -10 -4 -10 -6 0 -11 5 -11 10 0 6 2 10 4 10 3 0 8 -4
11 -10z m-2932 -35 c79 -31 100 -44 150 -96 31 -32 57 -64 57 -69 0 -5 -18
-15 -40 -21 -34 -10 -47 -9 -102 11 -155 56 -218 82 -218 91 0 20 42 119 51
119 5 0 51 -16 102 -35z m2872 15 c3 -5 0 -22 -7 -36 -10 -21 -41 -39 -138
-80 -69 -30 -130 -54 -136 -54 -10 0 -39 49 -32 55 2 1 55 30 118 63 113 60
179 78 195 52z m533 -71 c61 -45 112 -87 112 -94 0 -7 -8 -23 -18 -35 l-19
-23 -128 69 c-106 57 -130 74 -142 101 -23 55 -18 63 35 63 43 0 57 -7 160
-81z m84 15 c65 -33 67 -35 56 -59 -7 -15 -16 -22 -23 -17 -40 24 -175 127
-175 133 0 9 50 -11 142 -57z m24 56 c67 0 70 -3 54 -44 l-9 -25 -70 32 c-39
18 -70 36 -71 41 0 4 7 5 16 2 9 -3 45 -6 80 -6z m-597 -26 c-14 -18 -24 -11
-15 11 3 9 11 13 16 10 8 -5 7 -11 -1 -21z m248 14 c15 -20 23 -48 14 -48 -18
0 -54 37 -47 48 9 15 21 15 33 0z m-1537 -16 c0 -21 -47 -92 -61 -92 -12 0
-50 62 -46 75 3 9 67 33 95 34 6 1 12 -7 12 -17z m-1029 -22 c-21 -18 -71 -28
-71 -15 0 8 62 34 80 34 10 0 8 -6 -9 -19z m2389 11 c0 -10 -50 -45 -56 -39
-2 2 3 14 12 26 15 22 44 30 44 13z m-1593 -21 c14 -11 34 -20 44 -20 10 0 25
-13 33 -29 20 -37 6 -51 -52 -51 -37 0 -50 6 -78 34 -41 41 -42 51 -6 70 34
19 29 19 59 -4z m1675 -22 c-9 -9 -12 -7 -12 12 0 19 3 21 12 12 9 -9 9 -15 0
-24z m-167 0 c-8 -28 -38 -54 -43 -38 -5 14 25 60 39 60 6 0 8 -9 4 -22z m103
-14 c1 -10 -26 -84 -61 -164 -48 -108 -69 -145 -82 -145 -41 0 -40 28 5 154
36 102 49 127 79 151 39 33 55 34 59 4z m-2365 1 c1 -5 -11 -12 -27 -13 -27
-3 -28 -2 -16 13 14 17 40 17 43 0z m2536 -149 c34 -82 61 -152 61 -156 0 -5
-13 -13 -29 -18 l-29 -10 -51 144 c-28 79 -48 151 -46 159 3 8 7 23 10 32 9
27 20 7 84 -151z m22 147 c13 -15 12 -15 -8 -4 -24 12 -29 21 -14 21 5 0 15
-7 22 -17z m-2644 -9 c5 -15 -28 -27 -40 -15 -5 5 -6 14 -2 21 8 13 37 9 42
-6z m2283 6 c0 -31 -36 -70 -103 -113 -41 -26 -79 -47 -83 -47 -10 0 -55 62
-50 67 5 6 220 101 229 102 4 1 7 -4 7 -9z m-2592 -24 c2 -10 -1 -23 -8 -30
-9 -8 -16 -5 -31 13 -26 32 -24 43 8 39 18 -2 29 -10 31 -22z m2958 -18 c22
-24 57 -83 78 -132 l40 -89 -23 -18 c-13 -11 -27 -17 -31 -14 -7 4 -60 133
-115 278 -12 30 11 19 51 -25z m-2036 -16 c19 -17 32 -33 29 -36 -3 -4 -30 -7
-60 -9 l-54 -2 -3 33 c-4 41 13 65 37 52 9 -5 32 -22 51 -38z m1883 7 c-8 -29
-13 -23 -13 14 0 22 3 28 9 18 5 -7 6 -22 4 -32z m306 -25 c58 -31 108 -58
110 -61 3 -2 -8 -17 -25 -33 l-29 -29 -78 71 c-72 65 -108 108 -91 108 4 0 55
-25 113 -56z m-3390 5 c64 -23 120 -46 126 -50 13 -13 -61 -11 -166 3 l-89 12
0 38 c0 21 3 38 6 38 4 0 59 -19 123 -41z m919 -17 c4 -38 -17 -51 -57 -35
-18 7 -61 5 -136 -4 -132 -15 -162 -2 -49 22 44 9 111 25 149 34 39 10 75 17
80 16 6 -1 11 -16 13 -33z m1982 11 c-24 -77 -63 -189 -69 -196 -4 -4 -15 -1
-24 5 -16 12 -15 19 19 98 34 81 58 120 75 120 4 0 4 -12 -1 -27z m133 -154
c-24 -87 -30 -99 -49 -99 -54 0 -55 6 -7 113 24 56 49 113 55 127 l11 25 9
-33 c7 -26 3 -55 -19 -133z m-2763 106 c0 -21 -17 -27 -41 -14 l-22 12 24 12
c26 15 39 11 39 -10z m2539 -26 c-36 -94 -35 -93 -69 -69 -16 12 -32 25 -35
30 -5 8 100 88 117 89 4 1 -1 -22 -13 -50z m336 -60 c39 -116 38 -134 -6 -127
-21 3 -25 11 -36 73 -14 85 -16 165 -4 165 5 0 26 -50 46 -111z m-3172 75 c37
-3 67 -10 67 -14 0 -7 -134 -50 -156 -50 -12 0 -25 66 -15 75 2 3 12 3 20 1 9
-3 46 -8 84 -12z m3430 -52 l29 -30 -23 -16 c-13 -9 -26 -16 -30 -16 -6 0 -59
114 -59 126 0 9 53 -32 83 -64z m-3298 28 c-3 -5 -51 -35 -106 -66 -101 -57
-125 -61 -117 -18 2 14 31 29 113 56 126 43 118 41 110 28z m121 -10 c31 0 30
-11 -2 -59 -24 -36 -36 -43 -160 -87 -79 -27 -139 -43 -143 -38 -5 5 -12 18
-15 29 -5 18 11 31 116 92 95 56 129 71 152 67 16 -2 39 -4 52 -4z m701 -19
c-9 -44 -35 -103 -44 -98 -53 28 -133 82 -133 89 0 5 6 11 13 14 11 4 108 18
156 23 10 1 12 -7 8 -28z m-617 -21 c0 -10 -9 -22 -21 -25 -27 -9 -32 -3 -20
28 12 30 41 27 41 -3z m426 -76 c57 -41 104 -80 104 -85 0 -17 -32 -59 -44
-59 -17 0 -238 138 -258 162 -30 34 -22 47 30 51 26 2 51 4 56 5 4 1 55 -32
112 -74z m67 25 c42 -27 77 -54 77 -60 0 -28 -37 -16 -112 36 -107 74 -108 75
-72 75 18 0 59 -20 107 -51z m2281 -31 l7 -48 -30 0 c-36 0 -36 -3 -14 73 18
65 24 61 37 -25z m-2674 67 c0 -11 -24 -55 -31 -55 -4 0 -10 7 -13 16 -12 31
-6 44 19 44 14 0 25 -2 25 -5z m85 -6 c11 -17 0 -20 -21 -4 -17 13 -17 14 -2
15 9 0 20 -5 23 -11z m-20 -28 c30 -18 31 -22 58 -186 29 -179 29 -185 -19
-185 -18 0 -28 20 -73 148 -28 81 -51 152 -51 159 0 15 40 83 48 83 4 0 21 -8
37 -19z m-150 -26 c3 -14 7 -36 10 -49 3 -17 -14 -59 -61 -142 -37 -66 -68
-121 -70 -123 -5 -5 -64 20 -63 28 0 3 21 64 47 136 41 112 52 132 81 152 43
29 49 29 56 -2z m-156 -29 c-8 -8 -54 -39 -104 -70 l-90 -55 -17 22 c-10 12
-16 26 -15 31 3 10 229 95 236 89 3 -2 -2 -10 -10 -17z m-3 -117 c-46 -126
-47 -129 -55 -129 -3 0 -14 7 -25 15 -18 14 -18 16 9 62 52 89 96 155 101 151
2 -3 -11 -47 -30 -99z m562 14 c46 -30 51 -36 41 -54 -16 -31 -36 -20 -108 60
-73 83 -74 83 67 -6z m-633 -23 l-46 -72 -30 28 c-16 15 -26 31 -22 35 13 13
138 87 141 84 2 -2 -18 -35 -43 -75z m328 -60 l46 -135 -26 -3 c-13 -2 -26 -2
-28 0 -2 2 -13 56 -24 120 -20 111 -26 166 -17 157 2 -2 24 -65 49 -139z m259
37 l41 -48 -21 -22 c-12 -11 -23 -19 -25 -16 -10 12 -97 178 -97 185 0 11 54
-41 102 -99z m-32 -94 c0 -13 -38 -43 -56 -43 -10 0 -44 170 -44 217 0 19 99
-154 100 -174z m-285 55 c9 -51 19 -103 22 -115 4 -20 1 -23 -25 -23 -45 0
-132 20 -132 31 0 13 104 199 111 199 4 0 14 -42 24 -92z"/>
</g>
</svg>
