<svg width="982" height="492" viewBox="0 0 982 492" fill="none" xmlns="http://www.w3.org/2000/svg">
<path d="M264.4 1.19412C260.4 2.79412 258.267 7.4608 259.067 12.6608C259.733 16.6608 259.333 17.4608 255.2 19.9941C252.533 21.5941 247.867 23.0608 244.667 23.1941C239.467 23.5941 238 24.5274 231.467 31.4608C225.467 37.8608 224 40.2608 223.333 45.4608C222.533 50.6608 222.933 52.6608 225.333 56.6608C227.867 60.5275 228.133 61.9941 226.8 64.6608C224 70.9275 231.067 89.4608 239.467 97.8608C241.2 99.5941 242.667 101.594 242.667 102.127C242.667 102.794 238.933 104.127 234.4 105.061C229.733 106.127 225.2 107.594 224.133 108.394C223.2 109.194 219.6 110.127 216.133 110.527L210 111.194L210.4 119.594C211.333 136.794 219.867 146.927 220.933 131.994C221.067 129.461 221.467 126.661 221.867 125.727C222.933 123.061 230.667 120.261 240.133 119.194C244.8 118.794 249.733 117.994 251.067 117.727C253.067 117.061 253.333 118.394 253.333 131.727V146.527H234.933C215.333 146.527 216.4 146.661 156.667 133.194C147.2 131.061 128.533 126.927 115.333 123.994C102.133 121.061 79.6 115.994 65.3333 112.794C41.2 107.461 38.8 107.194 32.6667 108.661C28.9333 109.594 20.1333 111.594 13.0667 113.194L0 116.127V303.994V491.861H490.667H981.333V317.861V143.861H932.4C889.867 143.861 881.2 144.261 867.333 146.527C851.067 149.194 828.8 153.727 824.8 155.327C823.2 155.994 822.667 155.327 822.667 152.927C822.667 151.061 822.267 145.861 821.867 141.327L820.933 133.194H826.667C831.067 133.194 832.133 132.794 831.467 131.194C830.933 129.461 832.533 129.194 842 129.194C851.2 129.194 853.333 128.794 853.333 127.194C853.333 125.594 851.067 125.194 840.667 125.194C828.267 125.194 828 125.061 827.2 121.861C826.267 118.127 824 118.661 824 122.527C824 125.861 821.467 126.527 807.733 126.527C797.6 126.527 795.867 126.261 796.533 124.527C796.933 123.461 797.733 121.727 798.133 120.661C798.667 119.194 797.333 118.261 793.067 117.194C790 116.261 786.8 115.327 786.133 114.927C785.467 114.527 785.2 114.927 785.6 115.994C785.867 116.927 788.4 118.394 791.067 118.927C796.267 120.127 797.467 122.127 793.867 123.461C790.933 124.527 775.333 122.127 775.6 120.527C775.733 119.727 776.267 118.127 776.667 116.794C777.333 115.327 776.933 114.527 775.6 114.527C774.533 114.527 773.333 113.994 773.067 113.327C772.8 112.661 768.533 112.394 763.6 112.794C754 113.594 750.8 115.994 755.067 119.194C758.4 121.594 757.867 121.994 752.667 121.461C749.067 121.061 748 121.327 748 123.061C748 124.261 746.933 125.194 745.333 125.194C743.6 125.194 742.667 124.261 742.667 122.527C742.667 121.061 743.333 119.861 744 119.861C744.8 119.861 745.333 118.661 745.333 117.194C745.333 115.861 746.133 114.127 747.067 113.594C750.133 111.594 751.733 108.527 752.667 103.061C753.467 97.8608 753.333 97.4608 750 96.9275C747.2 96.2608 746.667 96.6608 747.333 98.6608C748.4 101.994 747.867 101.861 740.4 97.1941C731.333 91.3274 726.267 91.7275 719.6 98.6608C715.333 103.327 714.533 104.927 715.2 108.127L716 112.127L707.333 111.194C700.533 110.394 698 110.661 696.267 112.127C695.067 113.327 692.267 114.527 690.267 115.061C686 116.127 676.933 121.461 672.4 125.594C670.667 127.061 669.067 130.527 668.533 133.994C667.733 139.461 667.2 139.994 659.2 144.527C654.4 147.061 649.467 149.194 648.133 149.194C646.8 149.194 643.467 150.127 640.8 151.194C636.533 153.061 635.467 153.061 631.2 151.194C628.533 150.127 623.467 149.194 619.867 149.194C615.067 149.194 613.333 148.661 613.333 147.194C613.333 142.261 605.6 142.394 600.933 147.461C598.667 150.127 598.4 149.994 578.667 145.327C556.933 140.127 556.667 140.127 511.067 143.194L497.467 144.127L500.133 134.927C501.6 129.994 503.2 123.861 503.6 121.461C504.267 117.727 504.8 117.194 508.8 117.194C513.733 117.194 519.333 112.394 526.133 102.394C529.2 97.9941 531.467 95.9941 534.533 95.4608C541.733 93.9941 551.067 96.1274 560.8 101.327C566 104.261 571.067 106.527 572 106.527C575.333 106.527 571.067 103.461 560.933 98.5275C552.933 94.6608 551.333 93.3275 551.2 90.5275C550.933 85.1941 550.8 85.0608 547.6 87.1941C544.667 89.0608 544.267 89.0608 542 86.5275C540.667 85.0608 538.8 83.8608 537.867 83.8608C534.667 83.8608 521.333 76.6608 521.333 74.9275C521.333 73.9941 518.533 71.7274 515.2 69.7274C510 66.6608 508.533 66.3941 506.4 67.7274C504.4 68.9274 502.8 68.9274 499.2 67.5941C495.333 66.2608 494.667 65.4608 494.667 61.5941C494.667 59.1941 495.333 55.9941 496.133 54.6608C498.8 50.5275 496.533 45.8608 490.267 42.5275C480.667 37.4608 472.133 41.5941 470.8 51.9941L470 57.8608L463.2 58.2608C457.6 58.5274 455.733 59.3275 452.267 62.9275C447.6 67.8608 441.733 78.2608 439.467 85.7274C438.533 89.1941 436.667 91.7275 434.133 93.0608C431.733 94.3941 429.333 97.8608 427.2 102.527C423.2 111.994 423.2 115.327 427.333 117.994C429.6 119.461 430.667 121.327 430.667 123.994C430.667 125.994 431.333 128.127 432 128.527C434 129.727 433.6 133.194 431.467 132.394C429.6 131.594 425.467 135.061 425.2 137.594C424.267 146.661 423.467 147.461 412.933 148.394C398.4 149.727 281.867 147.727 274 145.994L267.333 144.394L267.467 135.861C267.467 125.327 268.533 118.394 271.333 110.661C274.133 102.661 273.867 99.0608 270.133 94.1274C266.667 89.4608 261.333 79.3274 261.333 77.3274C261.333 75.7274 267.6 74.2608 270.533 75.1941C271.867 75.5941 273.6 77.4608 274.4 79.1941C275.2 81.0608 276.8 82.5275 278 82.5275C279.067 82.5275 280 83.4608 280 84.6608C280 86.5275 280.933 86.7941 285.333 86.1274C290.533 85.4608 290.533 85.5941 292.8 91.3274C294.933 97.0608 297.867 98.9274 298.933 95.5941C299.333 94.6608 301.2 96.5274 303.2 99.5941C308 107.194 309.333 105.861 304.933 97.9941C301.867 92.5274 301.733 91.5941 303.467 89.8608C305.333 88.1274 305.333 87.7275 303.333 87.0608C299.333 85.4608 293.867 71.8608 297.333 71.8608C299.6 71.8608 298.667 68.7941 294.933 63.1941C292.933 60.2608 290.267 57.8608 288.933 57.8608C286.4 57.8608 276.933 42.9274 278.8 41.8608C279.467 41.3274 280 40.1275 280 39.0608C280 37.7275 279.067 37.3274 276.667 37.9941C273.333 38.7941 272 36.7941 274.667 35.1941C275.467 34.6608 275.733 33.1941 275.333 31.7274C274.8 30.1274 275.067 29.1941 276.267 29.1941C277.2 29.1941 279.2 26.9274 280.533 24.1274C281.867 21.4608 283.467 18.1275 284.133 16.9275C287.2 10.9275 284.533 4.52745 278 1.72745C272.933 -0.405887 268.8 -0.539212 264.4 1.19412ZM783.333 135.861C783.733 136.661 790 137.194 797.467 137.194C805.333 137.194 810.667 136.661 810.667 135.861C810.667 135.061 812.133 134.527 813.867 134.527C816.533 134.527 817.067 135.327 817.867 140.661C819.067 149.594 818.8 155.594 817.333 156.527C815.867 157.461 794.267 159.194 768.133 160.661C747.867 161.727 747.867 161.727 758.533 150.794C761.6 147.727 764 144.527 764 143.861C764 140.927 769.067 142.661 769.867 145.861C770.4 147.861 772.267 149.861 774.267 150.661C779.6 152.661 781.733 149.194 780.667 140.794C779.867 134.927 781.2 132.394 783.333 135.861Z" fill="black"/>
<path d="M479.601 306.527C478.135 309.861 474.668 325.727 474.668 328.794C474.668 331.461 475.335 331.861 479.868 331.861C482.801 331.861 485.468 331.327 485.868 330.794C486.135 330.261 485.068 324.127 483.468 317.194C481.735 310.127 480.001 305.461 479.601 306.527Z" fill="black"/>
<path d="M659.198 318.529C657.732 325.196 656.798 330.796 657.065 331.196C658.265 332.396 669.332 331.863 669.332 330.663C669.332 330.129 668.798 327.863 668.132 325.729C667.465 323.596 666.265 318.396 665.332 314.129C664.532 309.996 663.332 306.529 662.798 306.529C662.265 306.529 660.665 311.996 659.198 318.529Z" fill="black"/>
<path d="M809.601 300.661L798.668 319.994L809.601 341.861C815.735 353.994 821.068 363.861 821.735 363.861C822.268 363.861 822.668 345.194 822.668 322.527C822.668 299.727 822.268 281.194 821.735 281.194C821.068 281.327 815.735 289.994 809.601 300.661Z" fill="black"/>
</svg>
