<svg width="283" height="587" viewBox="0 0 283 587" fill="none" xmlns="http://www.w3.org/2000/svg">
<path d="M94.1875 103.449C95.8375 103.449 97.4875 103.449 99.1875 103.449C100.218 106.482 101.237 109.518 102.25 112.56C102.545 113.423 102.839 114.286 103.143 115.175C103.883 117.414 104.541 119.695 105.188 121.979C104.857 122.794 104.528 123.609 104.188 124.449C102.207 124.042 100.227 123.634 98.1875 123.214C98.0057 122.161 98.0057 122.161 97.8203 121.086C96.7743 115.132 95.5955 109.288 94.1875 103.449Z" fill="#0B0907"/>
<path d="M140.219 20.0265C143.918 23.0444 145.171 25.8887 147 30.1984C149.848 36.4103 152.67 40.5343 158.16 44.7765C160.209 46.4664 161.405 48.0271 162.812 50.2609C165.621 54.0299 167.897 54.7323 172.188 56.4484C176.927 60.9171 179.702 67.5795 180.508 74.0031C180.632 79.6828 179.667 84.9807 178.188 90.4484C178.992 90.4277 179.796 90.4071 180.625 90.3859C183.188 90.4484 183.188 90.4484 184.188 91.4484C184.5 94.3234 184.5 94.3234 184.188 97.4484C182.312 99.3234 182.312 99.3234 180.188 100.448C179.527 100.448 178.868 100.448 178.188 100.448C178.139 101.28 178.09 102.111 178.039 102.968C177.927 104.598 177.927 104.598 177.812 106.261C177.743 107.34 177.673 108.419 177.602 109.53C177.188 112.448 177.188 112.448 175.188 115.448C175.128 118.812 175.128 118.812 175.5 122.573C175.553 123.25 175.607 123.926 175.662 124.623C175.948 128.138 176.312 131.637 176.75 135.136C177.915 145.506 176.962 153.787 173.312 163.573C170.221 172.055 170.221 172.055 168.117 180.816C166.458 189.756 160.921 196.029 155.545 203.109C151.362 208.683 147.659 214.406 144.188 220.448C141.591 217.941 139.354 215.422 137.238 212.503C132.215 205.958 126.253 200.337 120.375 194.573C118.657 192.883 116.941 191.192 115.228 189.498C114.17 188.452 113.11 187.409 112.046 186.369C107.884 182.264 105.948 179.861 105.869 173.967C105.849 172.846 105.829 171.725 105.808 170.57C105.797 169.361 105.785 168.152 105.773 166.905C105.754 165.667 105.735 164.428 105.715 163.152C105.665 159.862 105.624 156.573 105.587 153.283C105.547 149.925 105.495 146.566 105.445 143.208C105.349 136.622 105.264 130.035 105.188 123.448C104.527 123.118 103.868 122.788 103.188 122.448C102.238 120.334 101.375 118.181 100.562 116.011C100.116 114.837 99.6705 113.662 99.2109 112.452C98.1875 109.448 98.1875 109.448 98.1875 107.448C97.0428 107.077 97.0428 107.077 95.875 106.698C92.81 105.273 91.7264 104.445 90.1875 101.448C90 97.6984 90 97.6984 90.1875 94.4484C91.8375 95.7684 93.4875 97.0884 95.1875 98.4484C94.8988 97.372 94.61 96.2956 94.3125 95.1867C91.7154 85.1212 89.1817 74.7364 92.1875 64.4484C93.3631 64.6134 94.5388 64.7784 95.75 64.9484C99.3874 64.8706 101.441 64.1027 104.188 61.6984C108.415 56.4159 107.644 50.2763 107.193 43.8595C106.764 36.6177 108.332 31.8485 113.012 26.2765C121.377 19.1916 129.698 14.5492 140.219 20.0265Z" fill="#CBA695"/>
<path d="M9.18945 342.449C12.1678 343.599 14.9654 344.835 17.752 346.387C27.3242 351.182 37.6422 351.997 48.1895 352.449C49.1074 360.977 49.21 369.262 48.8145 377.824C48.7641 379.012 48.7137 380.199 48.6619 381.422C48.5153 384.765 48.3562 388.107 48.1895 391.449C48.1506 392.238 48.1118 393.027 48.0718 393.84C47.4544 405.693 46.0068 417.175 42.1895 428.449C41.502 431.324 39.0269 437.901 39.0269 437.901C38.7789 438.92 38.5309 439.939 38.2754 440.988C37.9906 442.118 37.7058 443.247 37.4124 444.411C37.1325 445.62 36.8527 446.829 36.5645 448.074C36.1167 449.926 36.1167 449.926 35.6599 451.815C34.8144 455.355 34.0005 458.901 33.1895 462.449C32.8194 463.962 32.4485 465.476 32.0762 466.988C31.2297 470.799 30.6241 474.575 30.1895 478.449C30.0783 479.336 29.9671 480.223 29.8525 481.136C28.2954 492.708 28.2954 492.708 31.48 503.551C34.745 507.234 38.6446 510.066 42.5444 513.037C49.4025 518.924 50.7883 528.576 52.3418 536.977C53.4853 541.661 55.4887 545.612 57.7871 549.828C60.5211 554.938 61.5275 558.591 61.1895 564.449C60.1895 565.449 60.1895 565.449 57.4395 565.762C53.3417 565.368 52.0473 564.382 49.1895 561.449C45.264 555.561 42.8132 548.998 40.1895 542.449C37.2195 544.429 37.2195 544.429 34.1895 546.449C33.6901 554.602 33.6901 554.602 37.0254 561.73C42.642 565.875 48.7985 567.878 55.502 569.625C58.1895 570.449 58.1895 570.449 60.1895 572.449C60.1895 573.769 60.1895 575.089 60.1895 576.449C56.2295 576.449 52.2695 576.449 48.1895 576.449C48.1895 577.109 48.1895 577.769 48.1895 578.449C48.8082 578.738 49.427 579.027 50.0645 579.324C52.1895 580.449 52.1895 580.449 54.1895 582.449C53.8145 584.574 53.8145 584.574 53.1895 586.449C51.5172 586.145 49.8519 585.803 48.1895 585.449C47.1582 585.243 46.127 585.037 45.0645 584.824C38.315 582.862 30.9769 578.436 27.1895 572.449C26.5088 570.748 26.5088 570.748 25.8145 569.012C23.0364 562.921 18.4099 559.747 12.959 556.172C9.09779 552.413 8.91123 547.031 8.66211 541.898C8.59186 540.641 8.5216 539.383 8.44922 538.088C8.31986 535.497 8.19219 532.906 8.06641 530.314C7.6792 523.432 6.98219 516.894 5.6582 510.141C4.0489 501.789 3.72754 493.613 3.65015 485.124C3.61041 480.97 3.52392 476.817 3.43555 472.664C3.41882 471.858 3.40209 471.051 3.38486 470.22C3.1849 461.649 2.43257 453.172 1.44263 444.659C0.401068 435.569 -0.00289829 426.6 0.00195312 417.449C0.0013086 416.181 0.00066406 414.912 0 413.605C0.0494981 404.732 0.592072 396.061 1.75195 387.27C2.30595 382.432 2.68945 373.949 2.68945 373.949V372.449L2.6875 371.449C2.6875 371.449 3.18945 370.129 3.18945 369.449H3.1875C3.5175 368.129 2.84945 365.809 3.18945 364.449C2.16945 364.449 4.17945 364.449 3.18945 364.449C3.43695 363.232 3.68445 362.015 3.93945 360.762C5.30982 354.545 7.25961 348.51 9.18945 342.449Z" fill="#CAA695"/>
<path d="M272.186 337.449C278.408 343.111 279.795 350.916 280.233 358.969C280.294 359.856 280.355 360.744 280.418 361.658C280.61 364.525 280.775 367.393 280.936 370.262C281.058 372.263 281.18 374.265 281.302 376.266C282.598 398.282 282.462 419.795 280.541 441.762C279.34 455.59 278.741 469.386 278.436 483.262C278.413 484.201 278.39 485.14 278.367 486.107C278.089 497.953 278.337 509.633 279.186 521.449C279.986 534.218 279.184 542.917 273.186 554.449C272.799 555.52 272.413 556.592 272.014 557.695C268.927 565.725 264.708 568.482 257.16 571.845C255.782 572.439 254.403 573.03 253.021 573.616C250.659 574.688 248.567 576.04 246.436 577.512C243.186 579.449 243.186 579.449 240.983 579.07C240.093 578.763 240.093 578.763 239.186 578.449C239.186 577.789 239.186 577.129 239.186 576.449C237.866 576.119 236.546 575.789 235.186 575.449C235.499 573.074 235.499 573.074 236.186 570.449C237.671 569.459 237.671 569.459 239.186 568.449C238.526 567.789 237.866 567.129 237.186 566.449C237.561 563.824 237.561 563.824 238.186 561.449C240.166 561.119 242.146 560.789 244.186 560.449C244.33 559.81 244.475 559.17 244.624 558.512C245.186 556.449 245.186 556.449 246.186 555.449C248.857 555.308 251.51 555.407 254.186 555.449C254.165 554.645 254.145 553.84 254.124 553.012C254.186 550.449 254.186 550.449 255.186 549.449C255.395 547.641 255.554 545.827 255.686 544.012C256.076 538.669 256.076 538.669 257.186 536.449C254.546 536.119 251.906 535.789 249.186 535.449C249.165 536.358 249.165 536.358 249.143 537.285C248.72 544.709 246.906 552.1 241.186 557.25C239.186 558.449 239.186 558.449 236.499 558.199C234.186 557.449 234.186 557.449 233.186 556.449C233.225 554.056 233.332 551.71 233.499 549.324C233.577 548.022 233.656 546.72 233.737 545.379C234.186 541.449 234.186 541.449 235.174 538.043C236.395 533.708 236.71 529.547 237.061 525.074C238.192 513.275 241.866 506.42 249.163 497.148C254.891 489.507 253.948 480.542 252.686 471.422C251.994 467.068 251.118 462.758 250.186 458.449C250.009 457.631 249.832 456.814 249.65 455.971C247.514 446.282 245.045 436.743 242.124 427.262C234.483 402.141 231.102 375.746 232.186 349.449C232.95 349.507 233.715 349.565 234.502 349.625C248.097 350.198 259.746 345.594 271.186 338.449C271.516 338.119 271.846 337.789 272.186 337.449Z" fill="#CAA795"/>
<path d="M120.669 0.0789561C122.655 0.0746349 124.641 0.0377679 126.626 0.000342836C139.016 -0.036827 149.378 2.94858 160.189 8.88706C160.899 9.25638 161.609 9.62569 162.341 10.0062C167.506 12.7814 172.252 15.6385 174.189 21.4496C175.674 21.9446 175.674 21.9446 177.189 22.4496C177.189 23.1096 177.189 23.7696 177.189 24.4496C177.849 24.4496 178.509 24.4496 179.189 24.4496C179.353 25.571 179.353 25.571 179.521 26.7152C179.679 27.7 179.838 28.6849 180.001 29.6996C180.152 30.6741 180.303 31.6486 180.458 32.6527C181.24 35.6463 182.29 37.0537 184.189 39.4496C192.004 55.5322 194.257 73.1997 189.876 90.4496C189.663 91.2879 189.451 92.1263 189.232 92.9901C189.015 93.7811 188.798 94.5721 188.575 95.3871C188.382 96.0973 188.188 96.8076 187.988 97.5394C187.063 99.7504 186.045 100.946 184.189 102.45C183.529 102.45 182.869 102.45 182.189 102.45C181.923 103.57 181.657 104.69 181.384 105.844C181.027 107.317 180.671 108.789 180.314 110.262C180.14 111 179.966 111.738 179.786 112.498C178.944 115.947 178.176 118.469 176.189 121.45C175.529 121.45 174.869 121.45 174.189 121.45C173.939 115.825 173.939 115.825 176.189 112.45C176.685 109.394 177.012 106.341 177.333 103.262C178.438 99.631 179.949 99.2036 183.189 97.4496C183.606 94.3232 183.606 94.3232 183.189 91.4496C181.539 91.1196 179.889 90.7896 178.189 90.4496C178.354 89.1708 178.519 87.8921 178.689 86.5746C179.822 75.7667 179.208 67.9634 173.376 58.5121C171.049 56.3179 168.991 55.617 166.04 54.5121C162.855 52.6842 161.108 49.6996 159.005 46.7542C157.219 44.4884 155.491 43.0369 153.189 41.3246C149.165 38.0512 147.638 34.4296 145.689 29.7621C143.19 23.6606 143.19 23.6606 138.314 19.4496C132.735 17.5829 127.854 18.2203 122.571 20.6566C115.809 24.459 110.431 28.7438 108.189 36.4496C108.157 38.8275 108.285 41.1724 108.421 43.5465C109.134 56.8053 109.134 56.8053 104.689 62.2621C102.72 64.2816 102.72 64.2816 100.189 65.4496C97.4061 65.4042 94.9434 64.9675 92.1886 64.4496C91.7333 74.7822 92.266 83.5818 95.4112 93.473C96.1886 96.4496 96.1886 96.4496 95.1886 99.4496C93.8686 98.1296 92.5486 96.8096 91.1886 95.4496C90.8586 97.7596 90.5286 100.07 90.1886 102.45C87.1886 101.45 87.1886 101.45 85.6534 98.5199C85.1253 97.2123 84.6175 95.8964 84.1261 94.5746C83.8622 93.8744 83.5984 93.1742 83.3265 92.4527C80.7919 85.2065 80.0692 77.9528 79.5128 70.3363C79.3503 66.541 79.3503 66.541 78.1886 63.4496C77.5342 58.1863 77.399 54.0081 80.6261 49.6371C83.8918 45.1489 83.6747 40.8983 83.88 35.4925C84.1778 32.556 84.6025 31.121 86.1886 28.6996C88.7047 24.6109 88.9747 21.1642 89.1886 16.4496C89.8486 16.4496 90.5086 16.4496 91.1886 16.4496C91.2504 15.8927 91.3123 15.3358 91.3761 14.7621C92.9702 10.2249 97.2428 7.03473 101.189 4.44956C101.849 4.44956 102.509 4.44956 103.189 4.44956C103.189 3.78956 103.189 3.12956 103.189 2.44956C108.91 -0.233384 114.451 0.0774468 120.669 0.0789561Z" fill="#030204"/>
<path d="M140.5 103.137C141.796 103.099 143.091 103.062 144.426 103.023C148.943 103.535 150.678 104.69 154.188 107.449C153.375 109.387 153.375 109.387 152.188 111.449C151.197 111.779 151.207 112.609 150.188 112.949C150.188 113.609 149.188 113.769 149.188 114.449C145.42 117.715 141.757 118.002 136.969 117.887C131.963 117.099 127.626 114.812 123.188 112.449C124.893 108.699 126.801 106.844 130.188 104.449C133.752 103.261 136.742 103.207 140.5 103.137Z" fill="#A16B6D"/>
</svg>
