<svg width="160" height="324" viewBox="0 0 160 324" fill="none" xmlns="http://www.w3.org/2000/svg">
<path d="M92 5.625C89.6448 2.9074 88.1432 0.925842 84.625 0C78.3935 1.48369 74.4622 5.60198 71.6411 11.0947L70.6875 13.125C68.1491 18.3316 66.456 23.091 65.625 28.875C65.3706 31.7392 65.2947 34.0237 64.0273 36.6094C63 38.625 63 38.625 62.4648 41.5C61.9172 44.745 61.2714 47.5856 60 50.625C58.1694 52.1845 58.1694 52.1845 55.875 53C47.586 55.7316 41.7935 60.0616 36.6914 67.1523L35 69.625C27.6702 79.8061 24.5607 89.9699 22.375 102.188C21.8336 105.494 21.3962 108.702 20.0664 111.801C19.2869 113.134 18.5414 114.488 17.8164 115.852L16.5625 118.25C14.8654 121.453 13.6685 124.595 12.6602 128.062C11.0698 133.545 9.16487 138.892 7.23047 144.262C6.3184 146.777 5.40638 149.293 4.49609 151.809L3.17969 155.461C1.95874 158.829 0.787716 162.128 0 165.625C5.23258 168.574 9.31706 170.101 15.3125 170.547L17 170.625L16.9648 172.559L16.9375 175.062C16.9161 176.583 16.9282 178.106 17 179.625C18 180.625 18 180.625 20.0664 180.941L22.5625 181.188L25.0664 181.441L27 181.625C28.2635 187.816 29.0594 194.705 32.6016 200.035C34.0701 201.563 35.5353 203.094 37 204.625C37.2304 207.613 37.0305 210.359 36.6896 213.332L36.2498 216.108L35.7546 219.283C35.388 221.579 35.0265 223.876 34.6696 226.174C34.0965 229.867 33.5182 233.559 32.9375 237.25C32.3521 240.948 31.7682 244.647 31.1947 248.347L30.6523 251.852L30.1064 255.245L29.6208 258.401C29.0794 261.832 28.9301 264.302 30 267.625H34L35 262.625L43 261.625C41.6293 273.888 41.2757 286.517 42.5 298.812L43 302.625C43.3095 303.583 43.1996 304.696 43.5 305.625C43.8918 306.899 43.6197 307.889 44 309.125C45.2203 312.793 43.2828 312.856 44 316.625L43 323.625H128C128 319.625 128 319.625 126 316.625L122.438 316.5L119 316.625L118 315.625C117.415 309.126 116.468 301.784 119.375 295.789C120.516 294.157 121.632 292.506 122.723 290.84C126.093 282.357 124.096 270.682 121.938 261.98L121 258.625C123.194 259.722 123.194 259.722 127.875 261.062L128.024 261.105C133.008 262.525 136.129 263.415 139.25 267.75L141 270.625L145 269.625C145.214 263.441 144.659 257.79 143.577 251.703C141.112 238.147 139.045 224.535 137.096 210.896C136.773 208.618 136.449 206.34 136.125 204.062C135.643 200.741 135.161 197.419 134.692 194.095L134.258 190.996L133.826 188.048L133.45 185.306C132.954 181.807 133.177 179.067 134 175.625C140.557 174.784 140.557 174.784 160 167.625C160 164.625 160 164.625 159.532 162.561L158.855 160.129L158.07 157.301L157.188 154.188C153.022 139.4 148.531 124.708 143.982 110.034C143.089 107.155 142.196 104.277 141.328 101.391C140.885 99.9136 140.44 98.437 139.993 96.9612L139.352 94.8477C137.353 88.0609 133.515 82.0743 129 76.625C127.934 74.5996 127.934 74.5996 127.168 72.2344C126.174 69.3366 125.119 66.4767 124 63.625C120.541 56.4417 120.541 56.4417 106.375 51.3125L104 50.625C105.335 40.1122 105.312 32.6851 101.264 22.8516L100.188 20.25L100.123 20.091C98.3441 15.6843 96.6851 11.5752 93.8906 7.69922L92 5.625Z" fill="#16151A"/>
</svg>
