<svg width="282" height="193" viewBox="0 0 282 193" fill="none" xmlns="http://www.w3.org/2000/svg">
<path d="M160.62 34.2174C162.584 34.7469 164.554 35.2503 166.525 35.7523C176.823 38.5063 186.112 42.06 193.696 49.8127C194.441 50.5607 195.185 51.3086 195.952 52.0793C196.746 52.9106 196.746 52.9106 197.557 53.7588C198.132 52.8879 198.707 52.0171 199.299 51.1198C205.93 49.3137 211.29 49.9598 217.721 51.9148C218.69 51.8436 219.659 51.7724 220.658 51.6989C229.889 51.2532 238.782 54.7122 245.77 60.5952C246.224 61.0159 246.679 61.4366 247.147 61.8701C246.976 62.5076 246.805 63.1451 246.629 63.8019C247.414 64.4605 247.414 64.4605 248.214 65.1324C249.975 66.7691 249.975 66.7691 251.39 69.2186C253.476 70.0694 253.476 70.0694 255.929 70.6291C257.229 70.9572 257.229 70.9572 258.554 71.292C261.197 71.8975 261.197 71.8975 264.547 72.0324C267.103 72.3937 267.103 72.3937 268.575 74.1468C269.225 76.068 269.225 76.068 268.707 77.9998C269.578 78.5748 270.449 79.1498 271.346 79.7422C271.152 81.7402 270.958 83.7381 270.759 85.7966C271.715 86.0528 272.671 86.309 273.657 86.573C273.262 98.5411 273.262 98.5411 269.507 102.543C264.615 105.066 259.15 106.768 253.663 107.098C252.963 107.956 252.263 108.815 251.542 109.7C248.247 111.858 248.247 111.858 245.387 111.318C243.189 110.62 240.992 109.919 238.796 109.216C234.886 108.306 233.045 108.882 229.542 110.607C226.175 112.203 222.515 112.642 218.871 113.304C217.606 113.563 216.341 113.822 215.038 114.089C214.134 114.274 213.23 114.459 212.299 114.649C211.874 116.131 211.456 117.615 211.042 119.1C210.692 120.34 210.692 120.34 210.335 121.604C209.602 124.323 209.602 124.323 209.704 127.247C208.864 131.76 206.459 133.892 203.206 136.995C202.586 137.592 201.966 138.19 201.327 138.806C191.189 148.166 177.331 157.041 163.291 158.458C162.42 157.883 161.549 157.308 160.652 156.715C161.993 155.537 161.993 155.537 163.36 154.335C160.774 154.232 158.189 154.146 155.603 154.068C154.881 154.038 154.16 154.007 153.417 153.976C148.248 153.838 143.998 154.493 139.073 156.11C138.584 156.662 138.094 157.214 137.59 157.783C142.021 158.458 142.021 158.458 146.542 159.146C136.639 162.496 120.559 159.229 111.44 154.917C103.49 150.345 95.9192 145.088 88.6558 139.495C88.0085 139.002 87.3613 138.509 86.6944 138.001C85.0882 136.63 85.0882 136.63 82.9296 133.819C82.7404 130.193 82.7404 130.193 83.4175 126.444C83.6262 125.192 83.8349 123.94 84.0499 122.65C84.2384 121.703 84.4269 120.755 84.6212 119.779C83.0897 119.592 83.0897 119.592 81.5272 119.402C73.6421 118.383 65.9606 117.05 58.2769 114.984C57.2029 114.697 57.2029 114.697 56.1073 114.405C53.044 113.551 50.187 112.601 47.3007 111.259C44.7114 110.112 43.2031 109.899 40.4116 109.938C35.2061 109.728 30.4164 108.598 25.4019 107.275C24.2484 106.98 24.2484 106.98 23.0716 106.679C19.313 105.652 17.4432 105.099 14.8157 102.109C14.9866 101.472 15.1574 100.834 15.3334 100.178C14.4625 99.6026 13.5917 99.0276 12.6944 98.4352C12.7831 97.6262 12.8717 96.8172 12.9631 95.9837C12.9827 95.1135 13.0023 94.2433 13.0226 93.3468C12.4705 92.8572 11.9184 92.3676 11.3495 91.8632C11.4091 89.2263 11.4091 89.2263 11.6777 86.7748C12.3152 86.9456 12.9527 87.1164 13.6096 87.2924C13.8658 86.3361 14.122 85.3799 14.386 84.3946C13.5152 83.8196 12.6443 83.2447 11.7471 82.6523C12.4075 81.4626 13.0679 80.273 13.7483 79.0474C15.442 79.1809 15.442 79.1809 17.17 79.3172C19.0794 79.1242 19.0794 79.1242 21.0274 78.9272C23.063 76.4184 23.063 76.4184 24.5122 73.6493C27.9677 72.4804 29.1643 72.4927 32.6171 73.1034C33.8172 73.3089 33.8172 73.3089 35.0415 73.5185C35.6481 73.6303 36.2547 73.7422 36.8797 73.8574C37.1626 73.1952 37.4455 72.533 37.7369 71.8507C39.3281 68.9423 41.0865 67.0896 43.5052 64.827C44.2689 64.0934 45.0327 63.3599 45.8195 62.6041C52.5189 57.7294 60.0568 56.0089 68.1561 54.9324C69.0473 54.811 69.9385 54.6896 70.8568 54.5645C77.3392 53.8016 83.0828 53.8505 89.0769 56.7853C89.629 57.2749 90.1811 57.7644 90.7499 58.2688C91.1577 57.6735 91.5654 57.0781 91.9855 56.4647C94.392 53.4325 97.1386 50.9001 100.014 48.3277C100.543 47.8451 101.073 47.3624 101.619 46.8652C110.256 39.0704 110.256 39.0704 113.834 38.7664C114.408 38.8561 114.982 38.9458 115.573 39.0383C115.744 38.4008 115.915 37.7632 116.091 37.1064C117.85 36.7341 119.61 36.3651 121.37 35.9975C122.35 35.7917 123.33 35.5859 124.34 35.3738C127.044 34.865 127.044 34.865 130.201 34.6755C130.371 34.038 130.542 33.4005 130.718 32.7437C141.285 29.4019 150.114 31.3658 160.62 34.2174Z" fill="#591D15"/>
<path d="M154.989 46.4945C164.458 48.5578 164.458 48.5578 168.298 51.1604C170.187 54.4329 170 57.0986 169.788 60.8125C170.596 60.3458 171.404 59.8791 172.237 59.3982C182.24 58.7714 194.727 60.9398 203.923 64.7827C205.079 68.1981 205.079 68.1981 204.302 71.0959C204.861 71.251 205.42 71.4061 205.996 71.5659C208.62 72.5549 210.375 73.4821 212.478 75.3571C215.452 82.5948 215.728 89.9516 213.804 97.4533C213.639 98.2579 213.474 99.0624 213.305 99.8914C212.297 104.39 212.297 104.39 211.475 106.147C210.348 106.528 209.221 106.909 208.059 107.302C208.011 109.859 207.975 112.414 207.946 114.971C207.931 115.699 207.916 116.427 207.9 117.177C207.883 119.061 207.956 120.945 208.041 122.826C208.593 123.316 209.145 123.805 209.714 124.31C209.983 128.332 209.222 130.634 206.64 133.608C205.517 134.758 204.372 135.887 203.209 136.996C202.591 137.591 201.973 138.186 201.336 138.8C196.484 143.277 191.32 146.964 185.656 150.345C184.923 150.795 184.19 151.244 183.434 151.707C177.711 154.921 172.771 155.407 166.261 155.113C166.027 154.709 165.794 154.305 165.554 153.888C163.311 153.245 161.057 152.639 158.792 152.076C159.918 147.875 160.166 147.61 163.603 145.471C166.482 143.665 166.482 143.665 168.918 141.331C169.556 141.502 170.193 141.673 170.85 141.849C171.841 140.064 171.841 140.064 172.851 138.244C173.489 138.415 174.126 138.585 174.783 138.761C175.152 138.262 175.52 137.763 175.9 137.249C179.02 134.157 182.933 133.077 187.031 131.69C187.539 130.908 188.048 130.127 188.571 129.321C191 125.687 193.71 123.616 197.157 120.945C196.605 120.456 196.053 119.966 195.484 119.462C195.655 118.824 195.825 118.186 196.001 117.53C195.484 117.071 194.966 116.612 194.433 116.139C193.283 115.119 192.133 114.099 190.982 113.079C191.153 112.441 191.324 111.804 191.5 111.147C190.862 110.976 190.225 110.805 189.568 110.629C190.143 109.759 190.718 108.888 191.31 107.991C192.756 107.695 194.202 107.399 195.692 107.094C192.248 107.196 188.804 107.298 185.256 107.404C188.312 111.297 191.369 115.191 194.518 119.203C193.772 120.711 193.026 122.219 192.258 123.774C191.62 123.603 190.983 123.432 190.326 123.256C190.07 124.212 189.814 125.168 189.55 126.154C187.466 126.279 185.383 126.404 183.236 126.533C183.2 127.227 183.163 127.922 183.125 128.638C181.526 132.32 179.451 133.014 175.981 134.836C171.906 137.139 168.247 139.984 164.505 142.785C161.829 144.608 161.829 144.608 159.272 145.621C156.907 146.356 156.907 146.356 155.446 149.109C152.782 149.378 152.782 149.378 149.636 149.3C148.594 149.28 147.551 149.261 146.477 149.242C145.674 149.215 144.872 149.188 144.044 149.16C143.811 148.756 143.578 148.352 143.337 147.935C142.08 147.389 140.8 146.896 139.511 146.429C138.318 145.99 138.318 145.99 137.101 145.542C135.826 145.077 135.826 145.077 134.524 144.603C127.659 142.062 120.951 139.395 114.429 136.048C114.6 135.411 114.771 134.773 114.947 134.116C113.937 134.059 112.927 134.002 111.887 133.944C107.489 133.442 104.455 131.569 100.717 129.268C102.06 127.077 103.409 124.89 104.774 122.712C105.876 120.917 106.902 119.074 107.893 117.215C109.687 115.107 109.687 115.107 113.062 114.588C114.516 114.658 114.516 114.658 116 114.728C116.257 113.772 116.513 112.816 116.777 111.831C107.882 109.918 99.9141 111.099 91.0897 113.036C88.3675 113.536 88.3675 113.536 84.5038 112.501C84.5103 111.52 84.5168 110.54 84.5235 109.529C84.0577 105.624 83.6686 105.557 80.7788 103.22C76.2128 97.0458 75.7689 92.0424 76.4854 84.4702C77.2051 79.8881 78.3498 75.72 81.7819 72.4308C84.0448 72.196 84.0448 72.196 85.9044 72.5001C86.0753 71.8626 86.2461 71.2251 86.4221 70.5683C90.8258 69.3499 94.9998 68.2767 99.5661 67.8786C99.7369 67.241 99.9078 66.6035 100.084 65.9467C102.167 65.4833 104.252 65.0302 106.338 64.5813C107.499 64.3279 108.66 64.0744 109.856 63.8133C112.862 63.3173 115.307 63.2337 118.316 63.5851C118.622 64.9585 118.921 66.3333 119.217 67.7088C119.468 68.857 119.468 68.857 119.724 70.0284C120.092 72.2419 120.154 74.2349 120.04 76.4703C121.445 72.1494 122.236 69.5741 121.551 65.0343C120.909 60.3682 120.77 56.5874 123.354 52.5117C126.669 50.3932 130.051 49.0508 133.859 48.0796C134.496 48.2504 135.134 48.4212 135.791 48.5972C136.328 51.7781 136.852 54.9611 137.374 58.1447C137.603 59.5003 137.603 59.5003 137.837 60.8833C138.048 62.1861 138.048 62.1861 138.264 63.5152C138.397 64.3151 138.529 65.1151 138.666 65.9393C138.859 68.0544 138.859 68.0544 138.083 70.9522C139.914 71.1243 141.746 71.2905 143.578 71.454C144.598 71.5471 145.618 71.6402 146.669 71.7362C149.092 72.0928 149.092 72.0928 150.451 71.1602C152.238 65.7162 152.821 60.5871 153.202 54.8842C153.466 51.9636 154.079 49.2808 154.989 46.4945Z" fill="#792A1F"/>
<path d="M154.989 46.4937C156.68 46.8621 158.365 47.2539 160.048 47.6552C160.988 47.8708 161.927 48.0864 162.894 48.3086C166.248 49.5811 167.65 50.547 169.668 53.5326C170.215 56.4095 170.193 59.2158 170.144 62.1367C170.148 62.8936 170.151 63.6505 170.155 64.4304C170.161 67.4761 170.126 70.5147 170.008 73.5583C169.814 78.0865 169.814 78.0865 171.489 82.232C173.211 87.4112 170.642 91.8856 168.456 96.6896C167.881 97.5605 167.306 98.4314 166.714 99.3286C165.989 101.569 165.326 103.83 164.705 106.102C164.368 107.305 164.031 108.508 163.684 109.747C162.739 112.858 162.739 112.858 164.505 115.301C163.458 118.826 162.283 119.847 159.179 121.897C155.16 123.882 153.647 123.909 149.447 122.719C148.66 122.499 147.873 122.279 147.062 122.052C146.46 121.878 145.857 121.705 145.237 121.526C145.066 122.164 144.895 122.801 144.719 123.458C141.691 124.078 139.562 123.21 136.596 122.382C135.54 122.089 134.484 121.797 133.396 121.496C132.179 121.152 132.179 121.152 130.938 120.801C131.108 120.163 131.279 119.526 131.455 118.869C130.885 118.576 130.315 118.283 129.728 117.981C127.448 116.678 125.48 115.412 123.538 113.642C122.975 110.191 122.975 110.191 123.418 106.363C123.454 104.837 123.475 103.311 123.48 101.785C123.505 100.575 123.531 99.3644 123.557 98.1175C122.049 97.3717 120.54 96.6259 118.986 95.8574C119.245 94.8365 119.504 93.8155 119.771 92.7637C122.32 82.0604 123.258 72.1197 121.025 61.2042C121.184 57.9668 121.746 55.3412 123.354 52.5109C126.655 50.3706 130.052 49.0498 133.859 48.0788C134.496 48.2496 135.134 48.4204 135.791 48.5964C136.328 51.7773 136.852 54.9603 137.374 58.1439C137.527 59.0477 137.679 59.9514 137.837 60.8825C137.978 61.751 138.119 62.6196 138.264 63.5144C138.397 64.3144 138.529 65.1143 138.666 65.9386C138.859 68.0536 138.859 68.0536 138.083 70.9514C139.914 71.1235 141.746 71.2897 143.578 71.4532C144.598 71.5463 145.618 71.6395 146.669 71.7354C149.092 72.092 149.092 72.092 150.451 71.1595C152.238 65.7155 152.821 60.5863 153.202 54.8835C153.466 51.9629 154.079 49.28 154.989 46.4937Z" fill="#DFCB90"/>
<path d="M119.697 39.1092C120.399 42.5399 118.936 45.4675 117.882 48.7531C117.093 53.0427 117.464 57.0729 117.867 61.3949C117.275 61.5227 116.683 61.6505 116.073 61.7823C113.347 62.3743 110.624 62.9757 107.9 63.5771C106.969 63.778 106.038 63.9788 105.078 64.1858C100.703 65.1581 96.5129 66.2069 92.3334 67.8378C88.8708 69.1545 88.8708 69.1545 86.9389 68.6368C86.7681 69.2743 86.5973 69.9119 86.4213 70.5687C85.465 70.3125 84.5087 70.0562 83.5235 69.7922C83.814 66.7953 83.814 66.7953 84.1105 63.7379C86.0459 62.8899 87.9813 62.0419 89.9754 61.1682C87.1514 61.0864 84.3887 61.1433 81.5729 61.3756C80.8635 61.4284 80.154 61.4812 79.4231 61.5356C76.0744 62.1661 74.1451 63.5388 71.8527 66.018C68.7466 68.7476 65.4171 70.0851 61.4273 71.1185C60.7898 70.9477 60.1523 70.7769 59.4955 70.6009C53.6841 79.2818 52.9192 88.3575 51.9897 98.6127C52.8606 99.1877 53.7314 99.7627 54.6287 100.355C54.7766 101.078 54.9245 101.801 55.077 102.546C59.9223 106.397 64.9285 109.139 70.554 111.675C71.2862 112.023 72.0185 112.37 72.7729 112.729C77.2708 114.875 77.2708 114.875 82.0535 113.915C81.8827 114.553 81.7119 115.19 81.5359 115.847C82.1734 116.018 82.8109 116.189 83.4677 116.365C83.9573 115.813 84.4469 115.261 84.9513 114.692C84.843 116.371 84.7347 118.05 84.6231 119.78C75.6967 118.695 66.9722 117.323 58.2788 114.986C57.2049 114.699 57.2049 114.699 56.1092 114.407C53.0459 113.553 50.1889 112.603 47.3027 111.26C44.7133 110.113 43.205 109.9 40.4135 109.94C35.208 109.73 30.4183 108.6 25.4038 107.277C24.2503 106.982 24.2503 106.982 23.0735 106.681C19.315 105.653 17.4451 105.101 14.8177 102.111C14.9885 101.474 15.1593 100.836 15.3353 100.179C14.4644 99.6042 13.5936 99.0293 12.6963 98.4369C12.785 97.6279 12.8736 96.8189 12.965 95.9854C12.9846 95.1152 13.0043 94.245 13.0245 93.3484C12.4724 92.8588 11.9203 92.3693 11.3515 91.8648C11.411 89.2279 11.411 89.2279 11.6796 86.7764C12.3172 86.9472 12.9547 87.118 13.6115 87.294C13.8677 86.3378 14.124 85.3815 14.388 84.3963C13.5171 83.8213 12.6462 83.2463 11.749 82.6539C12.4094 81.4643 13.0698 80.2746 13.7502 79.049C15.444 79.1825 15.444 79.1825 17.172 79.3188C19.0814 79.1258 19.0814 79.1258 21.0293 78.9289C23.0649 76.42 23.0649 76.42 24.5141 73.651C27.9696 72.482 29.1662 72.4944 32.619 73.1051C33.4191 73.242 34.2191 73.379 35.0434 73.5201C35.65 73.632 36.2567 73.7438 36.8816 73.859C37.1645 73.1968 37.4474 72.5346 37.7388 71.8523C39.33 68.9439 41.0884 67.0912 43.5071 64.8286C44.2709 64.0951 45.0346 63.3615 45.8215 62.6058C52.5208 57.7311 60.0587 56.0105 68.158 54.9341C69.0492 54.8126 69.9405 54.6912 70.8587 54.5661C77.3412 53.8032 83.0847 53.8521 89.0788 56.7869C89.6309 57.2765 90.183 57.7661 90.7518 58.2705C91.2414 57.7184 91.731 57.1663 92.2354 56.5974C91.9792 57.5537 91.7229 58.51 91.4589 59.4952C94.6677 58.8386 95.2979 56.6682 97.0577 54.1003C99.9716 50.3569 104.155 45.4851 108.934 44.5073C109.104 43.8698 109.275 43.2322 109.451 42.5754C110.089 42.7462 110.726 42.9171 111.383 43.0931C111.99 42.2628 111.99 42.2628 112.609 41.4157C114.35 39.747 114.35 39.747 116.52 39.6167C117.165 39.6826 117.809 39.7485 118.473 39.8163C118.877 39.583 119.281 39.3496 119.697 39.1092Z" fill="#772A20"/>
<path d="M245.77 60.5969C246.225 61.0176 246.679 61.4383 247.147 61.8717C246.976 62.5093 246.806 63.1468 246.63 63.8036C247.153 64.2426 247.675 64.6817 248.214 65.1341C249.976 66.7707 249.976 66.7707 251.39 69.2202C253.476 70.071 253.476 70.071 255.93 70.6307C257.229 70.9588 257.229 70.9588 258.554 71.2936C261.198 71.8992 261.198 71.8992 264.547 72.034C267.104 72.3954 267.104 72.3954 268.575 74.1485C269.225 76.0696 269.225 76.0696 268.707 78.0015C269.578 78.5765 270.449 79.1514 271.346 79.7439C271.056 82.7408 271.056 82.7408 270.759 85.7982C271.715 86.0545 272.672 86.3107 273.657 86.5747C273.263 98.5428 273.263 98.5428 269.507 102.545C264.616 105.067 259.15 106.77 253.664 107.099C252.964 107.958 252.264 108.817 251.543 109.702C248.247 111.86 248.247 111.86 245.387 111.32C243.189 110.622 240.992 109.921 238.796 109.218C234.887 108.308 233.045 108.884 229.543 110.609C227.419 111.615 225.465 112.071 223.16 112.514C222.436 112.658 221.711 112.801 220.965 112.949C219.059 113.274 217.135 113.485 215.212 113.684C211.943 114.4 211.943 114.4 210.5 117.986C210.177 119.031 209.854 120.077 209.522 121.154C209.203 121.068 208.884 120.983 208.556 120.895C210.118 113.659 210.118 113.659 212.199 111.647C214.301 111.046 214.301 111.046 217.469 111.054C219.026 110.862 219.026 110.862 220.614 110.667C221.836 108.949 222.988 107.181 224.099 105.389C225.925 103.938 227.813 102.687 229.78 101.436C230.416 101.022 231.051 100.607 231.706 100.181C232.392 99.7638 233.077 99.3469 233.783 98.9174C236.441 96.3049 236.841 93.7291 237.697 90.1389C237.997 88.9117 238.298 87.6844 238.608 86.42C238.824 85.4796 239.04 84.5393 239.263 83.5704C238.625 83.3996 237.988 83.2288 237.331 83.0528C237.163 81.4065 237.163 81.4065 236.992 79.7269C236.326 75.0507 234.928 70.1628 231.295 66.9416C228.223 65.871 225.127 64.8928 222.024 63.9156C218.997 62.611 218.997 62.611 217.083 60.4848C214.08 57.5852 210.811 57.2162 206.833 56.5696C206.102 56.437 205.371 56.3045 204.618 56.168C202.824 55.8451 201.027 55.5425 199.23 55.244C199.253 53.8835 199.276 52.5231 199.299 51.1215C209.451 49.3943 209.451 49.3943 214.131 50.8252C217.567 52.1051 217.567 52.1051 220.658 51.7006C229.889 51.2548 238.782 54.7139 245.77 60.5969Z" fill="#782A20"/>
<path d="M90.94 61.4259C90.0044 61.7303 89.0687 62.0348 88.1047 62.3485C84.7983 63.7171 84.7983 63.7171 83.9321 67.0539C83.7969 67.9571 83.6616 68.8604 83.5222 69.791C84.4785 70.0473 85.4348 70.3035 86.42 70.5675C86.2492 71.205 86.0784 71.8425 85.9024 72.4994C84.5419 72.4765 83.1815 72.4536 81.7798 72.43C77.682 79.8117 76.31 87.7846 77.5 96.1299C78.7934 99.272 80.4903 101.938 82.4498 104.703C84.2219 107.507 84.2219 107.507 85.2782 109.602C85.022 110.558 84.7658 111.515 84.5018 112.5C91.662 111.718 91.662 111.718 98.7561 110.496C105.433 109.13 110.366 109.835 116.775 111.83C116.519 112.786 116.262 113.742 115.998 114.728C113.915 114.853 111.832 114.978 109.685 115.107C109.372 115.877 109.059 116.647 108.736 117.441C106.9 121.186 104.685 124.249 102.198 127.594C101.974 123.856 102.742 122.876 104.74 119.799C105.506 118.605 105.506 118.605 106.288 117.387C106.885 116.48 106.885 116.48 107.495 115.555C105.448 115.301 103.4 115.056 101.352 114.815C100.211 114.677 99.0712 114.54 97.8964 114.399C94.5609 114.133 91.4359 114.216 88.1066 114.501C87.5942 116.414 87.0817 118.326 86.5537 120.297C85.9162 120.126 85.2787 119.955 84.6219 119.779C84.2406 118.652 83.8593 117.525 83.4665 116.364C80.748 115.494 80.748 115.494 78.5772 115.615C76.1025 115.502 74.6362 114.859 72.4319 113.747C71.6865 113.371 70.9411 112.995 70.1732 112.607C69.4044 112.209 68.6356 111.811 67.8436 111.401C67.0783 111.02 66.313 110.638 65.5245 110.246C60.1976 107.523 54.2971 104.464 51.9884 98.6115C50.89 89.9755 52.4056 80.9536 56.5681 73.3097C60.175 69.9692 63.5456 68.8971 68.2121 67.5247C71.3127 66.2878 72.8561 64.7526 75.1571 62.3732C77.7942 60.5433 79.9019 59.8939 83.0876 59.5806C83.8019 59.4998 84.5161 59.4189 85.2521 59.3356C87.6591 59.4385 88.9474 60.116 90.94 61.4259Z" fill="#5A1B14"/>
<path d="M108.373 135.463C108.202 136.1 108.032 136.738 107.856 137.394C108.552 137.564 109.247 137.734 109.964 137.909C117.42 139.808 124.467 142.279 131.588 145.177C132.614 145.583 133.64 145.988 134.698 146.407C139.302 148.262 143.233 149.969 147.13 153.094C146.134 153.468 146.134 153.468 145.117 153.849C142.461 154.969 140.059 156.302 137.591 157.785C142.023 158.46 142.023 158.46 146.543 159.149C136.628 162.503 120.576 159.222 111.442 154.92C107.221 152.527 103.171 149.922 99.1397 147.224C98.1208 146.542 97.1019 145.86 96.0521 145.158C88.8786 140.141 88.8786 140.141 87.8661 137.195C87.7607 135.116 87.7607 135.116 88.7171 133.237C95.6466 128.181 101.747 131.773 108.373 135.463Z" fill="#782A20"/>
<path d="M262.654 77.4136C263.292 77.5844 263.929 77.7552 264.586 77.9312C264.415 78.5687 264.244 79.2063 264.068 79.8631C264.706 80.0339 265.343 80.2047 266 80.3807C266.171 79.7432 266.342 79.1057 266.518 78.4489C269.776 81.2629 269.776 81.2629 270.571 82.6407C270.093 84.5828 269.577 86.5159 269.018 88.4363C269.974 88.6925 270.931 88.9488 271.916 89.2128C271.745 89.8503 271.574 90.4878 271.398 91.1446C272.036 91.3154 272.673 91.4862 273.33 91.6622C273.478 94.9232 273.241 97.5894 271.967 100.614C267.631 104.045 262.6 106.062 257.1 106.595C253.468 106.782 253.468 106.782 251.029 109.692C248.248 111.859 248.248 111.859 246.057 111.781C240.13 110.376 240.13 110.376 238.236 107.587C237.971 107.015 237.706 106.444 237.434 105.855C238.118 105.326 238.118 105.326 238.816 104.786C239.414 104.311 240.013 103.836 240.629 103.347C241.222 102.881 241.816 102.416 242.427 101.936C244.129 100.337 245.062 98.8717 246.076 96.7829C246.714 96.9537 247.351 97.1245 248.008 97.3005C249.802 90.6067 251.595 83.9128 253.443 77.0161C254.742 80.2521 255.621 82.7057 256.202 86.0376C259.769 83.6768 261.099 81.3649 262.654 77.4136Z" fill="#772A21"/>
<path d="M160.284 34.4557C173.756 37.6359 185.009 41.1812 195.178 51.0524C193.817 51.0295 192.457 51.0066 191.055 50.983C190.884 51.6205 190.714 52.258 190.538 52.9149C191.749 53.1754 191.749 53.1754 192.985 53.4412C196.926 54.6496 199.993 56.3856 203.543 58.4702C203.38 60.989 203.38 60.989 203.215 63.5586C202 63.284 200.786 63.0093 199.535 62.7264C190.858 60.8012 182.378 58.9982 173.46 58.6918C173.322 57.736 173.322 57.736 173.181 56.7608C172.492 52.168 171.621 47.8215 170.322 43.3571C170.493 42.7196 170.664 42.0821 170.84 41.4253C168.375 40.4232 165.911 39.4212 163.371 38.3888C163.542 37.7513 163.713 37.1138 163.889 36.4569C162.7 35.7966 161.51 35.1362 160.284 34.4557Z" fill="#772A1F"/>
<path d="M120.538 90.0625C121.176 90.2333 121.813 90.4041 122.47 90.5801C123.474 92.5412 124.391 94.5474 125.265 96.5701C127.003 100.552 128.761 104.496 130.706 108.381C132.3 111.849 132.3 111.849 131.783 113.781C133.434 114.929 133.434 114.929 135.387 115.782C136.196 115.315 137.004 114.849 137.837 114.368C140.783 114.144 143.673 114.004 146.622 113.94C147.426 113.909 148.229 113.878 149.057 113.846C150.222 113.817 150.222 113.817 151.411 113.787C152.118 113.768 152.826 113.748 153.555 113.728C155.552 113.938 155.552 113.938 159.157 115.939C160.5 112.2 161.844 108.46 163.228 104.607C163.547 104.693 163.866 104.778 164.194 104.866C163.861 106.866 163.527 108.866 163.193 110.866C162.899 113.036 162.899 113.036 164.504 115.302C163.457 118.826 162.282 119.848 159.178 121.898C155.159 123.883 153.646 123.91 149.446 122.72C148.265 122.389 148.265 122.389 147.061 122.052C146.459 121.879 145.857 121.706 145.236 121.527C145.065 122.164 144.895 122.802 144.719 123.459C141.69 124.078 139.561 123.211 136.595 122.382C135.539 122.09 134.483 121.798 133.395 121.496C132.178 121.152 132.178 121.152 130.937 120.801C131.108 120.164 131.278 119.526 131.454 118.869C130.884 118.577 130.314 118.284 129.727 117.982C127.447 116.679 125.48 115.413 123.538 113.642C122.974 110.191 122.974 110.191 123.417 106.363C123.453 104.838 123.474 103.312 123.479 101.786C123.505 100.575 123.53 99.3651 123.556 98.1181C122.048 97.3723 120.539 96.6265 118.985 95.8581C119.498 93.9455 120.01 92.033 120.538 90.0625Z" fill="#6B3D23"/>
<path d="M114.358 140.169C124.212 142.387 133.456 146.155 142.818 149.866C135.422 156.349 135.422 156.349 131.537 157.195C128.558 156.737 128.558 156.737 125.254 155.771C123.484 155.257 123.484 155.257 121.678 154.732C116.308 153.032 110.997 151.197 105.715 149.241C105.526 146.085 105.526 146.085 107.268 143.446C108.862 143.873 110.456 144.3 112.098 144.74C112.844 143.232 113.59 141.723 114.358 140.169Z" fill="#792A20"/>
<path d="M107.494 115.556C101.484 128.243 101.484 128.243 96.3721 130.499C92.9168 131.321 92.9168 131.321 89.0531 130.285C88.7572 128.839 88.4613 127.394 88.1565 125.904C87.1545 128.369 86.1524 130.833 85.12 133.373C85.6721 133.862 86.2242 134.352 86.7931 134.856C86.0701 135.004 85.3472 135.152 84.6024 135.304C84.0503 134.815 83.4982 134.325 82.9294 133.821C83.0822 131.442 83.3466 129.069 83.6706 126.708C83.8427 125.418 84.0148 124.128 84.1921 122.799C84.3336 121.803 84.4752 120.807 84.621 119.78C85.2585 119.951 85.896 120.122 86.5528 120.298C87.0653 118.385 87.5778 116.473 88.1057 114.502C95.2817 112.791 100.535 113.12 107.494 115.556Z" fill="#772B20"/>
<path d="M169.769 76.3359C172.031 77.4546 172.031 77.4546 174.339 78.596C175.095 85.4451 174.446 91.0208 173.01 97.7442C172.528 100.761 172.559 103.203 172.889 106.225C173.12 108.486 173.12 108.486 173.078 110.351C171.267 112.519 171.267 112.519 169.145 113.439C168.507 113.268 167.869 113.097 167.213 112.921C166.615 115.152 166.017 117.384 165.401 119.682C162.993 117.547 162.736 115.733 162.124 112.593C163.231 105.204 165.841 98.5001 169.324 91.9401C170.74 88.9218 171.105 86.2187 171.114 82.9079C170.133 80.8539 170.133 80.8539 168.992 79.2337C169.248 78.2774 169.505 77.3212 169.769 76.3359Z" fill="#592215"/>
<path d="M161.865 113.559C162.736 114.134 163.607 114.709 164.504 115.302C162.852 119.867 160.392 121.298 156.121 123.408C153.486 123.947 152.02 123.449 149.446 122.72C148.266 122.389 148.266 122.389 147.061 122.052C146.158 121.792 146.158 121.792 145.237 121.527C145.066 122.165 144.895 122.802 144.719 123.459C141.233 124.172 138.045 123.117 134.801 121.837C132.742 119.861 132.742 119.861 131.714 117.904C131.884 117.266 132.055 116.629 132.231 115.972C134.494 117.09 134.494 117.09 136.802 118.232C136.973 117.594 137.144 116.957 137.32 116.3C139.99 116.142 142.66 115.996 145.332 115.859C146.082 115.813 146.833 115.767 147.606 115.72C152.02 115.504 155.612 115.733 159.864 117.164C160.525 115.975 161.185 114.785 161.865 113.559Z" fill="#E0C592"/>
<path d="M268.779 73.8777C268.714 74.522 268.648 75.1663 268.58 75.8301C268.644 76.9043 268.644 76.9043 268.71 78.0002C269.581 78.5752 270.452 79.1502 271.349 79.7426C271.155 81.7406 270.962 83.7385 270.762 85.797C271.718 86.0532 272.675 86.3095 273.66 86.5735C273.552 88.2526 273.443 89.9318 273.332 91.6619C272.694 91.4911 272.057 91.3203 271.4 91.1443C271.571 90.5067 271.741 89.8692 271.917 89.2124C270.961 88.9562 270.005 88.6999 269.02 88.436C269.049 87.2908 269.078 86.1456 269.108 84.9657C269.286 81.0344 269.286 81.0344 266.519 78.4485C266.349 79.086 266.178 79.7235 266.002 80.3804C265.364 80.2096 264.727 80.0387 264.07 79.8627C260.232 82.0788 258.035 87.4387 255.876 91.1257C255.557 91.0403 255.238 90.9549 254.91 90.8669C254.812 89.3746 254.716 87.8821 254.621 86.3896C254.568 85.5585 254.514 84.7274 254.459 83.8712C254.354 81.6611 254.345 79.4853 254.411 77.2745C253.773 77.1037 253.136 76.9329 252.479 76.7569C252.568 75.9479 252.656 75.1389 252.747 74.3054C252.777 73.0001 252.777 73.0001 252.807 71.6685C252.255 71.1789 251.703 70.6893 251.134 70.1849C252.17 70.3684 252.17 70.3684 253.227 70.5555C254.127 70.7101 255.028 70.8648 255.956 71.024C256.851 71.1798 257.746 71.3356 258.669 71.4961C265.819 72.4293 265.819 72.4293 268.779 73.8777Z" fill="#732820"/>
<path d="M253.441 77.0159C256.059 83.5377 256.598 87.0663 254.13 93.7648C250.595 100.693 250.595 100.693 246.712 102.13C246.075 101.959 245.437 101.788 244.78 101.612C244.672 103.291 244.564 104.971 244.452 106.701C246.365 107.213 248.277 107.726 250.248 108.254C250.418 107.616 250.589 106.979 250.765 106.322C251.403 106.493 252.04 106.663 252.697 106.839C250.472 109.349 250.472 109.349 248.246 111.859C246.838 111.565 245.434 111.249 244.032 110.923C242.859 110.663 242.859 110.663 241.662 110.398C239.107 109.345 238.537 108.332 237.432 105.855C237.888 105.502 238.344 105.149 238.814 104.786C239.413 104.311 240.011 103.836 240.627 103.347C241.221 102.881 241.814 102.415 242.425 101.936C244.127 100.337 245.06 98.8715 246.074 96.7827C246.712 96.9535 247.349 97.1243 248.006 97.3003C249.8 90.6064 251.593 83.9126 253.441 77.0159Z" fill="#601C14"/>
<path d="M146.423 151.868C146.645 152.952 146.645 152.952 146.871 154.059C144.889 154.539 142.907 155.019 140.925 155.498C138.936 155.985 138.936 155.985 137.591 157.784C142.022 158.459 142.022 158.459 146.543 159.147C142.734 160.436 139.691 160.316 135.764 160.012C135.056 159.958 134.348 159.904 133.618 159.848C115.086 158.15 115.086 158.15 109.768 153.435C109.939 152.797 110.11 152.16 110.286 151.503C109.415 150.928 108.544 150.353 107.647 149.76C113.703 151.383 119.76 153.006 126 154.678C126.085 154.359 126.17 154.04 126.258 153.712C129.617 153.929 132.975 154.145 136.435 154.368C137.01 153.497 137.585 152.627 138.178 151.729C141.853 150.486 142.885 150.712 146.423 151.868Z" fill="#68362C"/>
<path d="M37.1387 72.8932C38.8383 77.4851 36.9184 80.5235 34.9988 84.7431C34.5321 83.9348 34.0654 83.1264 33.5846 82.2936C30.4407 85.839 30.0153 90.777 30.0905 95.3336C30.1957 96.2159 30.301 97.0982 30.4094 98.0072C31.3657 98.2635 32.3219 98.5197 33.3072 98.7837C33.7194 99.5561 34.1317 100.328 34.5564 101.124C36.5354 104.33 38.143 105.015 41.6723 106.202C42.3632 106.173 43.0541 106.145 43.7659 106.115C47.0121 106.364 48.5777 108.516 50.8139 110.722C43.1634 111.181 35.3846 108.787 28.08 106.701C28.1654 106.382 28.2508 106.063 28.3388 105.735C30.4222 105.61 32.5055 105.485 34.652 105.356C34.2197 104.827 33.7874 104.299 33.342 103.755C32.498 102.706 32.498 102.706 31.637 101.636C31.0773 100.946 30.5177 100.255 29.941 99.5438C28.4775 97.4896 28.4775 97.4896 27.3221 94.0742C27.8236 91.4456 28.4011 88.9702 29.1189 86.4028C29.2946 85.7172 29.4702 85.0316 29.6513 84.3253C30.7277 80.3669 31.9747 77.3978 34.6892 74.3074C35.3267 74.4782 35.9642 74.649 36.621 74.825C36.7919 74.1875 36.9627 73.55 37.1387 72.8932Z" fill="#691E15"/>
<path d="M239.107 107.34C236.016 108.648 233.012 109.631 229.747 110.397C225.564 111.406 221.479 112.596 217.388 113.928C215.458 114.462 215.458 114.462 212.301 114.651C211.384 116.797 210.468 118.943 209.523 121.154C209.205 121.069 208.886 120.983 208.557 120.895C210.12 113.659 210.12 113.659 212.2 111.648C214.302 111.046 214.302 111.046 217.471 111.054C218.508 110.927 219.546 110.799 220.615 110.668C222.505 108.189 222.505 108.189 224.1 105.39C229.07 100.402 233.91 104.422 239.107 107.34Z" fill="#6E2F23"/>
<path d="M12.5265 79.7559C13.4828 80.0121 14.439 80.2683 15.4243 80.5323C15.168 81.4886 14.9118 82.4448 14.6478 83.4301C15.2853 83.6009 15.9228 83.7717 16.5797 83.9477C16.3963 85.0303 16.213 86.1129 16.0242 87.2282C15.732 90.9919 15.8081 91.7398 17.8552 94.6423C17.9177 95.6839 17.9802 96.7256 18.0446 97.7989C19.6803 99.0999 19.6803 99.0999 21.6495 99.8001C22.3724 99.6521 23.0954 99.5042 23.8402 99.3518C23.9027 100.393 23.9652 101.435 24.0297 102.508C22.9026 102.89 21.7755 103.271 20.6142 103.664C25.3102 105.264 30.0061 106.864 34.8443 108.512C34.7589 108.831 34.6735 109.149 34.5855 109.478C31.7339 108.77 28.8869 108.048 26.0409 107.318C25.2316 107.118 24.4223 106.919 23.5884 106.713C22.8117 106.512 22.0349 106.31 21.2346 106.103C20.1607 105.831 20.1607 105.831 19.0651 105.554C17.1988 104.819 17.1988 104.819 14.8187 102.111C14.9895 101.473 15.1603 100.836 15.3363 100.179C14.4655 99.604 13.5946 99.029 12.6974 98.4366C12.786 97.6276 12.8747 96.8186 12.966 95.9851C12.9857 95.1149 13.0053 94.2447 13.0255 93.3482C12.4734 92.8586 11.9213 92.369 11.3525 91.8646C11.412 89.2277 11.412 89.2277 11.6807 86.7762C12.3182 86.947 12.9557 87.1178 13.6125 87.2938C13.8688 86.3375 14.125 85.3813 14.389 84.396C13.5181 83.821 12.6473 83.246 11.75 82.6536C12.0063 81.6974 12.2625 80.7411 12.5265 79.7559Z" fill="#5E302A"/>
<path d="M89.0795 56.7862C89.5462 57.5945 90.0129 58.4029 90.4938 59.2357C87.6388 59.407 85.8679 58.9915 83.1156 58.0352C78.0674 56.5809 73.285 57.5099 68.1526 58.171C64.2126 58.6281 60.5019 58.6174 56.5477 58.4221C56.3768 59.0596 56.206 59.6971 56.03 60.3539C55.3925 60.1831 54.755 60.0123 54.0982 59.8363C53.9273 60.4738 53.7565 61.1113 53.5805 61.7681C52.6243 61.5119 51.668 61.2557 50.6827 60.9917C50.116 61.6726 50.116 61.6726 49.5377 62.3672C47.7156 64.3377 47.7156 64.3377 45.0235 66.6575C42.6469 68.7864 40.8679 70.7926 39.0731 73.41C38.4355 73.2392 37.798 73.0684 37.1412 72.8924C39.5547 68.8952 42.0787 66.0866 45.704 63.1517C46.5748 62.4321 47.4455 61.7126 48.3427 60.9713C58.1107 54.4377 78.4065 50.9076 89.0795 56.7862Z" fill="#5B342C"/>
<path d="M163.361 154.336C161.619 156.975 161.619 156.975 157.781 158.018C150.972 159.226 144.262 159.828 137.591 157.784C139.384 155.131 140.348 154.488 143.522 153.732C145.208 153.549 145.208 153.549 146.928 153.363C148.05 153.232 149.171 153.101 150.326 152.967C155.146 152.576 158.697 152.972 163.361 154.336Z" fill="#F1E9E3"/>
<path d="M145.237 121.527C148.425 122.381 151.613 123.236 154.897 124.116C154.297 125.81 153.691 127.503 153.083 129.194C152.746 130.137 152.41 131.08 152.063 132.051C151.084 134.482 151.084 134.482 149.6 136.155C147.387 135.238 147.387 135.238 145.029 133.895C143.463 129.264 144.39 126.317 145.237 121.527Z" fill="#5C1F15"/>
<path d="M124.856 35.3137C125.408 35.8032 125.96 36.2928 126.529 36.7972C121.869 39.5977 118.34 41.5554 112.867 41.4188C112.378 41.9709 111.888 42.523 111.384 43.0918C110.746 42.921 110.109 42.7502 109.452 42.5742C109.019 43.1948 108.586 43.8154 108.139 44.4548C105.431 47.8966 102.195 50.6098 98.921 53.5022C96.7812 55.5435 95.0804 57.5922 93.3916 60.0116C92.754 59.8408 92.1165 59.67 91.4597 59.494C92.2147 55.615 93.1935 53.83 96.2362 51.327C96.9599 50.7281 97.6835 50.1293 98.4291 49.5124C99.2374 48.8562 100.046 48.2 100.879 47.5239C102.237 46.3545 102.237 46.3545 103.623 45.1615C104.545 44.3809 105.466 43.6003 106.416 42.796C107.707 41.7005 107.707 41.7005 109.023 40.5828C111.569 38.8925 112.611 38.5737 115.576 39.0387C115.746 38.4011 115.917 37.7636 116.093 37.1068C117.516 36.7664 118.943 36.4391 120.37 36.1175C121.164 35.9339 121.958 35.7502 122.776 35.561C123.805 35.4386 123.805 35.4386 124.856 35.3137Z" fill="#562821"/>
<path d="M247.147 61.8724C246.891 62.8287 246.635 63.7849 246.371 64.7702C244.236 63.1733 244.236 63.1733 242.059 61.5442C242.23 60.9067 242.401 60.2692 242.577 59.6124C239.083 58.6462 235.586 57.6908 232.088 56.7374C231.093 56.462 230.098 56.1867 229.073 55.903C228.121 55.6447 227.169 55.3863 226.189 55.1202C225.31 54.8793 224.431 54.6384 223.526 54.3902C221.329 53.765 221.329 53.765 219.135 54.3667C217.659 54.1796 216.187 53.9531 214.72 53.7011C211.971 53.2298 209.84 53.0238 207.027 53.1927C206.964 52.151 206.902 51.1093 206.837 50.0361C207.871 50.1635 208.904 50.291 209.969 50.4223C215.825 51.2028 215.825 51.2028 221.716 51.4225C231.319 51.9019 240.124 55.3706 247.147 61.8724Z" fill="#68332C"/>
<path d="M170.405 81.684C171.546 83.2193 171.546 83.2193 172.526 85.3582C172.012 88.0027 172.012 88.0027 171.232 90.1879C170.128 89.2087 169.024 88.2296 167.886 87.2207C166.736 88.9625 165.586 90.7042 164.401 92.4987C163.555 92.2293 162.709 91.9599 161.838 91.6823C158.632 90.9518 156.462 91.007 153.258 91.5835C153.515 90.6272 153.771 89.671 154.035 88.6857C160.148 86.1827 160.148 86.1827 162.798 86.8926C162.968 86.2551 163.139 85.6176 163.315 84.9607C164.162 84.9099 165.008 84.8591 165.88 84.8068C166.798 84.6471 167.716 84.4875 168.663 84.323C169.238 83.4521 169.813 82.5813 170.405 81.684Z" fill="#DAC08C"/>
<path d="M154.478 148.85C155.938 149.497 155.938 149.497 157.428 150.158C160.785 151.637 160.785 151.637 163.637 152.339C165.811 152.922 165.811 152.922 168.45 154.664C171.1 154.966 171.1 154.966 173.538 154.992C170.175 156.411 166.866 157.689 163.292 158.458C162.421 157.883 161.55 157.308 160.653 156.716C161.547 155.93 162.44 155.145 163.361 154.336C162.51 154.344 161.659 154.352 160.782 154.361C159.667 154.359 158.552 154.358 157.403 154.357C156.297 154.361 155.191 154.365 154.051 154.369C151.152 154.14 149.727 153.771 147.389 152.127C147.559 151.489 147.73 150.851 147.906 150.195C149.904 150.388 151.902 150.582 153.961 150.782C154.131 150.144 154.302 149.507 154.478 148.85Z" fill="#582521"/>
<path d="M242.851 101.096C243.944 102.812 243.944 102.812 244.972 104.77C244.802 105.408 244.631 106.045 244.455 106.702C246.367 107.214 248.28 107.727 250.25 108.255C250.421 107.617 250.592 106.98 250.768 106.323C251.406 106.494 252.043 106.665 252.7 106.841C251.216 108.514 249.733 110.187 248.249 111.86C246.841 111.566 245.437 111.25 244.035 110.925C242.862 110.664 242.862 110.664 241.665 110.399C239.11 109.347 238.539 108.333 237.435 105.856C239.222 104.285 241.009 102.714 242.851 101.096Z" fill="#5B2118"/>
<path d="M118.573 62.6193C115.846 64.1941 114.069 64.393 110.958 64.7198C109.595 64.8671 109.595 64.8671 108.205 65.0174C107.289 65.1137 106.373 65.2099 105.429 65.309C103.647 65.519 101.864 65.7309 100.082 65.9468C99.9112 66.5843 99.7404 67.2218 99.5644 67.8786C97.3744 68.8528 97.3744 68.8528 94.5901 69.781C93.6774 70.0943 92.7647 70.4075 91.8243 70.7303C89.3182 71.3448 89.3182 71.3448 86.4204 70.5683C86.5912 69.9308 86.762 69.2933 86.938 68.6365C89.7236 67.621 92.4663 66.728 95.3073 65.8968C96.1261 65.6533 96.945 65.4099 97.7886 65.1591C114.858 60.1659 114.858 60.1659 118.573 62.6193Z" fill="#661B13"/>
<path d="M32.5336 101.681C33.0142 101.959 33.4949 102.237 33.99 102.524C38.6256 105.244 38.6256 105.244 43.7689 106.115C47.015 106.363 48.5806 108.515 50.8169 110.721C43.1663 111.18 35.3875 108.786 28.0829 106.7C28.1684 106.381 28.2538 106.062 28.3418 105.734C30.4251 105.609 32.5085 105.484 34.655 105.355C33.9549 104.142 33.2549 102.93 32.5336 101.681Z" fill="#551F1A"/>
<path d="M133.859 48.0801C134.496 48.2509 135.134 48.4217 135.79 48.5977C136.346 51.8035 136.884 55.0122 137.417 58.2218C137.576 59.1358 137.735 60.0498 137.899 60.9915C138.042 61.8639 138.185 62.7364 138.333 63.6353C138.469 64.4417 138.605 65.2481 138.746 66.0789C138.859 68.0549 138.859 68.0549 137.375 69.728C136.1 69.3863 134.825 69.0447 133.512 68.6927C134.038 67.3282 134.038 67.3282 134.574 65.9362C135.757 61.6941 134.635 58.3741 133.333 54.2681C132.823 51.9438 132.823 51.9438 133.859 48.0801Z" fill="#D9BA8D"/>
<path d="M87.3294 117.4C87.8815 117.89 88.4336 118.38 89.0025 118.884C88.7796 124.319 87.2964 128.479 85.1202 133.373C85.6723 133.862 86.2244 134.352 86.7932 134.856C86.0703 135.004 85.3474 135.152 84.6025 135.305C84.0504 134.815 83.4983 134.326 82.9295 133.821C83.0824 131.442 83.3468 129.07 83.6707 126.708C83.8428 125.418 84.0149 124.129 84.1923 122.8C84.3338 121.803 84.4753 120.807 84.6211 119.781C85.2586 119.951 85.8961 120.122 86.553 120.298C86.8092 119.342 87.0654 118.386 87.3294 117.4Z" fill="#642C25"/>
<path d="M146.423 151.869C146.571 152.592 146.718 153.315 146.871 154.06C144.889 154.54 142.907 155.02 140.925 155.5C138.936 155.986 138.936 155.986 137.591 157.785C142.022 158.46 142.022 158.46 146.543 159.149C142.895 160.382 142.083 160.263 138.567 159.211C137.791 158.985 137.015 158.758 136.216 158.525C135.334 158.252 135.334 158.252 134.434 157.975C134.371 156.933 134.309 155.891 134.244 154.818C135.469 154.111 136.694 153.404 137.919 152.697C138.501 152.276 139.084 151.856 139.684 151.422C142.304 150.26 143.791 150.931 146.423 151.869Z" fill="#603228"/>
<path d="M179.216 149.267C180.172 149.523 181.128 149.779 182.114 150.043C179.889 152.945 178.048 154.286 174.506 155.252C171.189 155.075 171.189 155.075 168.452 154.665C169.518 152.135 170.26 151.172 172.673 149.778C175.093 149.198 175.093 149.198 177.186 150.082C177.934 150.635 177.934 150.635 178.698 151.199C178.869 150.561 179.04 149.924 179.216 149.267Z" fill="#732B22"/>
<path d="M223.323 108.286C225.235 108.798 227.148 109.311 229.118 109.839C227.271 111.922 226.273 111.934 223.571 112.429C222.788 112.585 222.004 112.74 221.197 112.901C219.214 113.245 217.213 113.476 215.212 113.683C211.943 114.399 211.943 114.399 210.5 117.985C210.178 119.03 209.855 120.076 209.522 121.152C209.204 121.067 208.885 120.982 208.556 120.894C210.123 113.639 210.123 113.639 212.183 111.707C219.653 109.373 219.653 109.373 222.805 110.218C222.976 109.58 223.147 108.943 223.323 108.286Z" fill="#6B322F"/>
<path d="M270.81 97.1986C271.191 98.3257 271.573 99.4528 271.965 100.614C260.725 106.92 260.725 106.92 255.147 105.425C255.722 104.554 256.297 103.683 256.89 102.786C258.083 102.636 259.276 102.486 260.505 102.332C264.8 101.64 265.825 100.799 268.619 97.6469C269.342 97.499 270.065 97.351 270.81 97.1986Z" fill="#4C271E"/>
<path d="M83.9527 55.1548C84.8829 55.3987 85.8131 55.6426 86.7715 55.8939C89.0799 56.7874 89.0799 56.7874 90.4941 59.2369C87.5971 59.4108 85.6723 58.9546 82.842 58.0924C78.2211 56.7605 73.9066 57.1471 69.1744 57.6654C74.5407 54.3154 77.7998 53.4705 83.9527 55.1548Z" fill="#62362A"/>
<path d="M88.2101 137.305C91.2736 138.679 93.9651 140.344 96.7231 142.239C99.6086 144.183 102.041 145.504 105.527 146.086C105.59 147.128 105.652 148.169 105.717 149.243C107.979 150.361 107.979 150.361 110.288 151.503C106.687 151.751 104.899 150.913 101.949 148.892C100.787 148.099 100.787 148.099 99.6016 147.291C98.8032 146.732 98.0047 146.173 97.1821 145.597C96.3695 145.046 95.5568 144.495 94.7196 143.928C88.7179 139.786 88.7179 139.786 88.2101 137.305Z" fill="#552A24"/>
<path d="M181.276 41.1152C186.667 43.8731 190.761 46.9071 195.178 51.0519C195.093 51.3706 195.008 51.6894 194.92 52.0178C189.203 50.9855 185.174 48.8681 181.466 44.2718C181.403 43.2302 181.341 42.1885 181.276 41.1152Z" fill="#683C34"/>
<path d="M12.5265 79.7559C13.4828 80.0121 14.439 80.2683 15.4243 80.5323C15.168 81.4886 14.9118 82.4448 14.6478 83.4301C15.2853 83.6009 15.9228 83.7717 16.5797 83.9477C16.4109 85.0556 16.2422 86.1634 16.0684 87.3048C15.3844 90.9065 15.3844 90.9065 17.1481 93.4175C15.2355 92.9051 13.323 92.3926 11.3525 91.8646C11.4608 90.1854 11.5691 88.5062 11.6807 86.7762C12.3182 86.947 12.9557 87.1178 13.6125 87.2938C13.8688 86.3375 14.125 85.3813 14.389 84.396C13.5181 83.821 12.6473 83.246 11.75 82.6536C12.0063 81.6974 12.2625 80.7411 12.5265 79.7559Z" fill="#552922"/>
<path d="M126.663 86.5273C130.807 87.6377 134.951 88.748 139.22 89.892C138.964 90.8483 138.708 91.8045 138.444 92.7898C134.619 91.7648 130.794 90.7399 126.853 89.6839C126.79 88.6423 126.728 87.6006 126.663 86.5273Z" fill="#7C4923"/>
<path d="M169.769 76.3359C172.031 77.4546 172.031 77.4546 174.339 78.596C174.801 84.4567 173.903 88.0126 171.423 93.3437C171.104 93.2583 170.786 93.1728 170.457 93.0848C170.529 92.3928 170.601 91.7008 170.675 90.9878C170.755 90.0764 170.835 89.165 170.918 88.226C171.003 87.3241 171.089 86.4222 171.177 85.493C171.108 82.6649 170.425 81.5918 168.992 79.2337C169.248 78.2774 169.505 77.3212 169.769 76.3359Z" fill="#59250D"/>
<path d="M268.779 73.8777C268.757 75.2381 268.734 76.5986 268.71 78.0002C267.435 77.6586 266.16 77.317 264.846 76.965C264.38 76.1566 263.913 75.3483 263.432 74.5155C262.391 74.578 261.349 74.6405 260.276 74.7049C258.623 74.1746 256.991 73.5804 255.378 72.9397C254.534 72.6081 253.69 72.2766 252.821 71.9349C252.179 71.6762 251.537 71.4174 250.875 71.1508C250.961 70.8321 251.046 70.5133 251.134 70.1849C252.17 70.3684 252.17 70.3684 253.227 70.5555C254.127 70.7101 255.028 70.8648 255.956 71.024C256.851 71.1798 257.746 71.3356 258.669 71.4961C265.819 72.4293 265.819 72.4293 268.779 73.8777Z" fill="#673B39"/>
<path d="M124.857 35.3139C125.409 35.8034 125.961 36.293 126.53 36.7974C120.445 40.4543 117.16 41.8467 109.971 40.6426C111.687 39.5495 111.687 39.5495 113.645 38.5212C114.282 38.6921 114.92 38.8629 115.577 39.0389C115.747 38.4014 115.918 37.7638 116.094 37.107C117.517 36.7666 118.944 36.4393 120.371 36.1177C121.165 35.9341 121.959 35.7504 122.777 35.5612C123.463 35.4796 124.15 35.398 124.857 35.3139Z" fill="#5D3329"/>
<path d="M227.901 52.5719C227.73 53.2094 227.559 53.8469 227.383 54.5038C222.171 54.527 217.296 54.1856 212.163 53.2765C209.996 52.9091 209.996 52.9091 207.029 53.1911C206.967 52.1494 206.904 51.1077 206.84 50.0345C207.873 50.1619 208.907 50.2894 209.972 50.4207C216.026 51.1799 216.026 51.1799 222.113 51.4739C224.037 51.5366 224.037 51.5366 227.901 52.5719Z" fill="#6B3C34"/>
<path d="M156.423 33.4197C151.949 34.5342 148.568 33.9498 144.055 33.2116C143.884 33.8491 143.714 34.4866 143.538 35.1435C140.728 34.5201 140.728 34.5201 137.742 33.5906C137.275 32.7822 136.809 31.9739 136.328 31.1411C143.528 30.8351 149.546 31.2096 156.423 33.4197Z" fill="#4F2A23"/>
<path d="M81.0887 113.655C81.2367 114.378 81.3846 115.101 81.537 115.846C82.1745 116.017 82.8121 116.188 83.4689 116.364C83.9585 115.812 84.448 115.26 84.9524 114.691C84.8442 116.37 84.7359 118.049 84.6243 119.779C78.7586 118.72 78.7586 118.72 72.7744 117.639C75.571 116.025 78.1008 114.797 81.0887 113.655Z" fill="#5D2926"/>
<path d="M208.746 124.051C209.901 127.466 209.901 127.466 209.198 129.607C207.15 132.804 204.71 135.14 201.966 137.763C201.647 137.678 201.328 137.593 201 137.505C201.598 135.273 202.195 133.042 202.811 130.743C203.768 130.999 204.724 131.255 205.709 131.519C205.983 130.418 206.257 129.317 206.538 128.183C207.521 124.758 207.521 124.758 208.746 124.051Z" fill="#67332D"/>
<path d="M163.316 84.9612C163.954 85.132 164.591 85.3028 165.248 85.4788C164.23 87.7803 163.599 88.8917 161.357 90.1141C160.65 90.357 159.943 90.6 159.215 90.8503C158.508 91.1039 157.801 91.3575 157.072 91.6187C155.191 92.1016 155.191 92.1016 153.26 91.584C153.516 90.6277 153.772 89.6714 154.036 88.6862C160.149 86.1831 160.149 86.1831 162.799 86.893C162.97 86.2555 163.14 85.618 163.316 84.9612Z" fill="#784821"/>
<path d="M154.987 46.4941C158.494 47.4337 162 48.3732 165.613 49.3412C165.908 50.787 166.204 52.2328 166.509 53.7225C165.872 53.5517 165.234 53.3809 164.577 53.2049C164.748 52.5673 164.919 51.9298 165.095 51.273C164.471 51.1806 163.847 51.0882 163.205 50.9929C161.984 50.8101 161.984 50.8101 160.74 50.6236C159.527 50.4428 159.527 50.4428 158.29 50.2584C156.143 49.9096 156.143 49.9096 154.211 49.3919C154.467 48.4357 154.723 47.4794 154.987 46.4941Z" fill="#D3B488"/>
<path d="M72.585 114.483C74.464 115.439 74.464 115.439 76.1899 116.484C68.5793 119.059 61.5748 115.481 54.4219 112.722C54.5073 112.403 54.5927 112.084 54.6807 111.756C56.4655 112.14 56.4655 112.14 58.2863 112.532C59.8388 112.861 61.3914 113.189 62.944 113.517C63.7292 113.687 64.5145 113.857 65.3236 114.032C69.0354 115.183 69.0354 115.183 72.585 114.483Z" fill="#70322C"/>
<path d="M268.71 78.002C269.581 78.5769 270.452 79.1519 271.349 79.7443C271.155 81.7423 270.962 83.7402 270.762 85.7987C271.718 86.0549 272.675 86.3112 273.66 86.5752C273.552 88.2544 273.443 89.9335 273.332 91.6636C272.694 91.4928 272.057 91.322 271.4 91.146C271.571 90.5085 271.741 89.871 271.917 89.2141C270.961 88.9579 270.005 88.7017 269.02 88.4377C269.004 87.3017 268.988 86.1658 268.971 84.9954C268.928 82.663 268.85 80.3305 268.71 78.002Z" fill="#663A32"/>
<path d="M134.135 31.59C134.687 32.0796 135.239 32.5692 135.808 33.0736C133.949 36.099 132.984 37.2421 129.577 38.4569C128.718 38.6326 127.86 38.8083 126.976 38.9893C126.998 37.6288 127.021 36.2684 127.045 34.8667C128.087 34.8042 129.128 34.7417 130.201 34.6773C130.372 34.0398 130.543 33.4022 130.719 32.7454C131.846 32.3641 132.973 31.9829 134.135 31.59Z" fill="#522B27"/>
<path d="M160.284 34.4551C166.022 35.9925 171.759 37.5298 177.671 39.1138C177.586 39.4326 177.5 39.7513 177.412 40.0797C172.779 39.5215 168.145 38.9633 163.372 38.3881C163.542 37.7506 163.713 37.1131 163.889 36.4563C162.7 35.7959 161.51 35.1355 160.284 34.4551Z" fill="#612D2D"/>
<path d="M132.23 115.973C134.805 116.663 137.381 117.353 139.957 118.043C140.02 119.085 140.082 120.127 140.146 121.2C137.666 121.764 137.666 121.764 134.799 121.838C132.889 120.032 132.889 120.032 131.712 117.905C131.883 117.267 132.054 116.629 132.23 115.973Z" fill="#DFC090"/>
<path d="M121.681 51.0274C123.095 53.4769 123.095 53.4769 122.833 55.3477C122.637 56.0213 122.442 56.695 122.241 57.3891C122.053 58.0648 121.866 58.7405 121.672 59.4367C121.025 61.2043 121.025 61.2043 119.541 62.8773C118.904 62.7065 118.266 62.5357 117.609 62.3597C117.528 60.0084 117.528 60.0084 117.937 57.2712C119.924 55.4096 119.924 55.4096 121.87 54.184C121.318 53.6944 120.766 53.2048 120.197 52.7004C120.687 52.1483 121.177 51.5962 121.681 51.0274Z" fill="#5F291D"/>
<path d="M196.658 107.352C188.885 110.207 188.885 110.207 185.704 109.593C185.238 108.785 184.771 107.977 184.29 107.144C185.854 106.839 187.421 106.55 188.99 106.268C190.298 106.024 190.298 106.024 191.633 105.775C194.019 105.609 194.019 105.609 196.658 107.352Z" fill="#711E18"/>
<path d="M173.28 155.959C171.675 156.425 170.064 156.875 168.452 157.318C167.107 157.696 167.107 157.696 165.735 158.082C163.293 158.459 163.293 158.459 160.654 156.717C161.699 154.991 161.699 154.991 163.621 153.37C167.585 153.488 169.952 153.761 173.28 155.959Z" fill="#5B352F"/>
<path d="M204.649 50.4835C204.712 51.5252 204.774 52.5669 204.839 53.6401C205.391 54.1297 205.943 54.6193 206.512 55.1237C203.096 56.2791 203.096 56.2791 199.232 55.2438C199.255 53.8834 199.278 52.523 199.302 51.1213C201.066 50.9108 202.831 50.7004 204.649 50.4835Z" fill="#712D2A"/>
<path d="M195.395 139.109C196.351 139.365 197.308 139.621 198.293 139.885C195.613 144.355 192.647 145.562 187.977 147.474C190.192 144.354 192.432 141.548 195.395 139.109Z" fill="#68332C"/>
<path d="M126.259 153.713C127.809 154.043 129.354 154.397 130.896 154.761C132.187 155.053 132.187 155.053 133.504 155.351C136.337 156.466 137.355 157.723 139.006 160.234C137.456 159.903 135.911 159.549 134.369 159.186C133.508 158.991 132.648 158.796 131.761 158.596C128.928 157.481 127.91 156.223 126.259 153.713Z" fill="#722F2D"/>
<path d="M127.589 117.834C131.881 119.667 136.172 121.5 140.594 123.389C135.582 124.415 134.165 123.711 129.71 121.508C128.839 120.933 127.969 120.358 127.071 119.766C127.242 119.128 127.413 118.491 127.589 117.834Z" fill="#743722"/>
<path d="M128.437 110.814C130.585 111.972 130.585 111.972 132.749 114.04C133.078 117.882 133.078 117.882 132.869 121.32C132.231 121.149 131.594 120.978 130.937 120.802C131.108 120.164 131.279 119.527 131.455 118.87C130.584 118.295 129.713 117.72 128.816 117.128C128.461 113.862 128.461 113.862 128.437 110.814Z" fill="#54200E"/>
<path d="M172.18 105.97C172.476 107.416 172.772 108.862 173.077 110.351C171.231 111.927 171.231 111.927 169.144 113.438C168.506 113.268 167.869 113.097 167.212 112.921C167.041 113.558 166.87 114.196 166.694 114.853C166.057 114.682 165.419 114.511 164.763 114.335C165.019 113.379 165.275 112.423 165.539 111.437C166.899 111.46 168.26 111.483 169.661 111.507C169.85 110.724 170.038 109.942 170.232 109.136C170.956 106.677 170.956 106.677 172.18 105.97Z" fill="#601A14"/>
<path d="M233.053 106.751C232.392 107.941 231.732 109.13 231.052 110.356C229.139 109.844 227.226 109.331 225.256 108.803C225.512 107.847 225.768 106.891 226.032 105.905C228.73 105.353 230.443 105.978 233.053 106.751Z" fill="#792A26"/>
<path d="M165.424 46.1858C166.062 46.3567 166.699 46.5275 167.356 46.7035C167.971 48.2347 168.585 49.766 169.218 51.3436C164.522 49.7437 159.827 48.1438 154.988 46.4954C155.074 46.1767 155.159 45.8579 155.247 45.5295C156.195 45.6894 156.195 45.6894 157.162 45.8526C158.392 46.052 158.392 46.052 159.647 46.2554C160.463 46.3902 161.28 46.5249 162.121 46.6638C164.132 47.093 164.132 47.093 165.424 46.1858Z" fill="#4E1C09"/>
<path d="M138.367 154.887C138.111 155.843 137.854 156.799 137.59 157.785C142.022 158.46 142.022 158.46 146.542 159.148C142.895 160.382 142.082 160.263 138.567 159.211C137.791 158.984 137.015 158.758 136.215 158.524C135.333 158.252 135.333 158.252 134.434 157.974C134.371 156.932 134.309 155.891 134.244 154.817C136.435 154.369 136.435 154.369 138.367 154.887Z" fill="#552A2A"/>
<path d="M157.566 152.783C159.478 153.296 161.391 153.808 163.361 154.336C162.786 155.207 162.211 156.078 161.619 156.975C158.836 157.459 158.836 157.459 156.271 157.613C156.699 156.019 157.126 154.425 157.566 152.783Z" fill="#E7D8D4"/>
<path d="M179.214 149.266C180.171 149.522 181.127 149.778 182.112 150.042C180.421 152.303 179.537 153.28 176.769 154.046C176.107 154.125 175.445 154.204 174.764 154.285C174.701 153.243 174.639 152.201 174.574 151.128C175.935 151.151 177.295 151.174 178.697 151.198C178.868 150.56 179.038 149.923 179.214 149.266Z" fill="#703633"/>
<path d="M37.1419 72.8926C38.8416 77.4846 36.9216 80.523 35.002 84.7426C34.6833 84.6572 34.3645 84.5717 34.0361 84.4837C34.1792 83.1128 34.1792 83.1128 34.3253 81.7142C34.5511 79.223 34.6954 76.8042 34.6924 74.3069C35.33 74.4777 35.9675 74.6485 36.6243 74.8245C36.7951 74.187 36.9659 73.5495 37.1419 72.8926Z" fill="#5B1D12"/>
<path d="M214.301 111.045C215.406 112.024 216.51 113.003 217.647 114.012C215.883 114.223 214.118 114.433 212.3 114.65C211.384 116.796 210.467 118.942 209.523 121.153C209.204 121.067 208.885 120.982 208.557 120.894C210.143 113.546 210.143 113.546 212.594 111.623C213.157 111.432 213.721 111.241 214.301 111.045Z" fill="#53312D"/>
<path d="M25.7389 72.9445C26.291 73.4341 26.8431 73.9236 27.412 74.428C25.8578 76.4031 24.3037 78.3782 22.7024 80.4131C21.5128 79.7527 20.3232 79.0923 19.0976 78.4119C19.7351 78.5827 20.3726 78.7535 21.0294 78.9295C21.5791 78.0732 22.1289 77.217 22.6953 76.3347C24.5142 73.6516 24.5142 73.6516 25.7389 72.9445Z" fill="#562923"/>
<path d="M78.4525 53.9387C80.1968 54.3502 81.9375 54.7764 83.6767 55.2091C84.6464 55.4449 85.6162 55.6807 86.6153 55.9237C89.0777 56.7857 89.0777 56.7857 90.4919 59.2352C88.4748 59.277 88.4748 59.277 86.3694 59.1658C86.136 58.7616 85.9027 58.3575 85.6623 57.9411C84.4204 57.3694 83.1571 56.8438 81.8838 56.3463C80.666 55.8705 79.4483 55.3948 78.1937 54.9046C78.2791 54.5858 78.3645 54.2671 78.4525 53.9387Z" fill="#6F483E"/>
<path d="M170.425 66.1602C172.351 68.72 172.548 69.8011 172.385 73.0912C172.245 74.0144 172.104 74.9376 171.959 75.8888C171.088 75.3138 170.218 74.7388 169.32 74.1464C169.685 71.5109 170.049 68.8755 170.425 66.1602Z" fill="#59210E"/>
<path d="M178.12 41.3047C181.318 42.8293 183.494 44.7966 185.778 47.4978C185.607 48.1353 185.437 48.7728 185.261 49.4296C181.354 47.1805 179.378 45.7032 178.12 41.3047Z" fill="#692117"/>
<path d="M37.2413 95.6953C37.8788 95.8661 38.5164 96.037 39.1732 96.213C39.0024 96.8505 38.8315 97.488 38.6555 98.1448C39.1984 98.5892 39.7413 99.0336 40.3006 99.4914C42.0016 101.112 42.0016 101.112 42.4499 103.303C40.2043 102.507 40.2043 102.507 37.8791 101.043C37.2745 98.2277 37.2745 98.2277 37.2413 95.6953Z" fill="#6E2014"/>
<path d="M44.0386 66.4591C44.5907 66.9487 45.1428 67.4383 45.7117 67.9427C45.5408 68.5802 45.37 69.2177 45.194 69.8745C44.1096 70.0964 44.1096 70.0964 43.0033 70.3228C41.789 72.0461 40.6228 73.8049 39.5186 75.6007C38.8811 75.4299 38.2436 75.2591 37.5867 75.0831C38.4292 73.7763 39.2756 72.472 40.1238 71.1688C40.5947 70.4423 41.0656 69.7157 41.5508 68.9671C42.8139 67.1662 42.8139 67.1662 44.0386 66.4591Z" fill="#6B2C23"/>
<path d="M158.864 89.9796C158.841 91.3401 158.818 92.7005 158.795 94.1022C157.115 93.9939 155.436 93.8856 153.706 93.774C153.558 93.0511 153.41 92.3282 153.258 91.5833C155.108 91.0541 156.958 90.5249 158.864 89.9796Z" fill="#E4C08E"/>
<path d="M250.769 106.322C251.407 106.493 252.044 106.664 252.701 106.84C251.217 108.513 249.734 110.186 248.25 111.859C247.294 111.603 246.338 111.347 245.352 111.083C245.694 109.808 246.036 108.533 246.388 107.219C247.663 107.561 248.938 107.902 250.251 108.254C250.422 107.617 250.593 106.979 250.769 106.322Z" fill="#532B22"/>
<path d="M151.997 123.338C152.954 123.594 153.91 123.85 154.895 124.114C154.149 125.623 153.404 127.131 152.635 128.685C151.446 128.025 150.256 127.364 149.03 126.684C150.009 125.58 150.989 124.476 151.997 123.338Z" fill="#501E0D"/>
<path d="M196.45 119.72C197.321 120.295 198.192 120.87 199.089 121.462C194.973 123.434 194.973 123.434 190.774 125.446C190.626 124.723 190.479 124 190.326 123.255C190.964 123.426 191.601 123.597 192.258 123.773C192.543 123.187 192.828 122.602 193.122 121.999C193.497 121.395 193.872 120.791 194.259 120.168C194.982 120.02 195.705 119.872 196.45 119.72Z" fill="#6A2018"/>
</svg>
