<svg width="206" height="389" viewBox="0 0 206 389" fill="none" xmlns="http://www.w3.org/2000/svg">
<path d="M65.7196 0.976207C62.7406 2.2225 58.3938 4.65429 55.962 6.47813C51.7368 9.63946 49.7914 14.5334 47.238 28.3338C46.8428 30.4616 46.2045 33.1062 45.8701 34.1701C44.9582 36.8451 45.1102 37.605 46.6908 38.4866C47.4204 38.8817 48.8186 39.2769 49.8825 39.3985L51.7976 39.6113L53.0135 42.043C54.0166 44.0493 54.3814 44.5052 55.0197 44.566C55.7188 44.6572 55.8708 44.87 56.1748 46.2379C56.3572 47.1194 57.1475 49.0344 57.8771 50.5543C59.0929 53.0165 59.2449 53.5028 59.2449 55.4179C59.2449 59.2176 59.0929 59.6431 57.1475 60.9806C56.2052 61.6493 54.7765 62.5309 53.9254 62.9564C53.1047 63.382 51.8584 64.0811 51.22 64.5371C50.1257 65.2666 49.7306 65.3578 46.5084 65.4794C44.563 65.5402 42.344 65.601 41.5841 65.601C40.4898 65.601 39.9426 65.7834 39.2435 66.3609C38.6963 66.8169 36.9333 67.5464 34.927 68.1544C31.9481 69.0663 30.0635 70.0694 30.0635 70.7686C30.0635 70.8901 30.6714 71.4069 31.4313 71.954C32.1913 72.5012 32.7992 73.018 32.7992 73.1395C32.7992 73.2611 31.9177 73.8387 30.8842 74.4162C29.6683 75.085 27.6621 76.7872 25.3215 79.1278C22.069 82.3803 20.5187 84.0826 14.6216 90.922C13.7097 91.9555 12.3722 93.8402 11.6427 95.0864C10.0316 97.7918 6.96147 105.482 6.04955 109.069C4.52968 114.997 2.70584 123.265 2.70584 124.177C2.70584 124.937 2.46266 125.332 1.67233 125.94C1.09478 126.365 0.486833 127.156 0.304449 127.672C-0.0907166 128.767 -0.0907166 133.357 0.243654 139.223C0.456436 142.658 0.63882 143.631 1.27716 145.06C2.88823 148.555 4.83366 150.774 7.35664 151.99C9.57564 153.085 11.5211 153.267 14.2568 152.689C15.5031 152.416 16.9014 152.142 17.327 152.051C18.0869 151.869 18.1781 151.99 18.8164 153.936C19.7892 156.884 20.6707 158.526 23.5888 162.964C25.6862 166.155 26.2638 166.824 26.7198 166.672C27.2061 166.52 27.4797 166.824 28.2092 168.283C28.6956 169.256 29.4859 170.502 29.9115 171.049C30.6106 171.87 30.9146 171.992 32.1913 171.992H33.6504L34.0759 173.724L34.5015 175.487L38.058 175.579C40.6417 175.639 41.6145 175.761 41.6145 176.035C41.6145 176.247 40.2466 177.676 38.6051 179.226C36.9333 180.777 34.9574 182.965 34.1975 184.12L32.7992 186.218V192.692C32.7992 201.872 32.2521 210.9 31.401 215.46C30.2155 221.904 29.9115 225.4 30.3066 228.47C30.641 231.358 31.0058 232.3 32.6168 234.823C33.62 236.404 35.0486 241.298 36.7509 249.019C37.8148 253.761 37.3588 258.199 35.079 265.22C34.1975 267.895 34.0151 268.929 34.0151 271.118C34.0151 272.881 33.7112 275.221 33.0728 278.261C31.8569 284.097 31.7353 286.529 32.3433 290.693C32.6472 292.669 32.86 296.347 32.8904 299.661C32.9512 304.707 33.0424 305.467 33.6504 306.956C34.1367 308.172 34.3191 309.236 34.3191 310.938C34.3191 312.184 34.5927 315.133 34.8966 317.474C35.5958 322.55 36.0517 327.322 36.4165 333.919C36.7509 339.451 37.0853 340.454 38.7875 341.062C39.3043 341.244 39.821 341.7 39.9122 342.035C40.277 343.402 40.4594 352.765 40.1554 354.923C39.7906 357.446 38.3012 360.851 36.5077 363.313C35.8998 364.164 34.0151 366.535 32.3433 368.602C28.3612 373.557 28.1484 373.921 28.0876 375.836C28.0572 376.718 27.8749 377.63 27.6925 377.873C27.0541 378.633 26.4158 380.487 26.4158 381.49C26.4462 382.889 27.3581 384.804 28.5132 385.776C30.0027 387.023 31.5833 387.327 36.4469 387.296C42.648 387.296 45.3533 386.597 48.2107 384.257C50.0345 382.797 51.1592 380.791 51.068 379.119L51.0376 377.782H52.3143C54.5941 377.782 61.1296 373.526 61.5855 371.763C62.0111 370.122 61.8287 366.717 61.2208 365.167C60.6736 363.769 60.6128 362.918 60.6736 354.832C60.704 349.391 60.856 344.922 61.1296 343.129L61.5247 340.272L64.9292 339.177C66.7835 338.6 68.3945 338.022 68.4857 337.931C68.5769 337.84 68.2426 336.138 67.6954 334.131C65.8108 326.897 64.4733 321.972 63.9869 320.331C63.683 319.328 63.4094 317.018 63.3182 314.555C63.1358 310.665 63.1966 310.3 63.9869 307.716C64.4429 306.196 64.8684 304.281 64.9596 303.4C65.1116 301.485 63.8957 296.408 62.4063 292.639C60.9168 288.809 60.9776 287.836 63.0142 284.462C65.6892 280.054 66.0235 278.808 66.1147 272.82C66.2059 268.473 66.2971 267.561 66.8443 266.558C67.209 265.798 67.6042 263.974 67.9082 261.451C68.1818 259.323 68.5161 257.165 68.6681 256.679C68.8505 256.192 68.9721 255.493 68.9721 255.129C68.9721 254.764 69.3977 254.095 69.9144 253.578C72.559 251.055 73.7141 246.465 74.1396 236.495C74.322 232.908 74.5348 229.868 74.626 229.716C74.7172 229.564 75.2947 229.23 75.9027 228.956C76.5106 228.713 77.3314 228.227 77.6657 227.893C78.3041 227.285 78.3953 227.285 79.4288 227.771C80.8271 228.44 80.9487 228.622 81.5566 231.115C81.8606 232.27 82.6205 234.367 83.2589 235.765C84.9307 239.292 87.6969 249.9 88.2136 254.581C88.5784 258.016 88.548 258.29 88.0312 258.989C87.4841 259.749 87.4841 259.81 88.9432 265.312L90.4022 270.905L91.3749 271.148C92.1957 271.361 92.3781 271.574 92.53 272.546C92.9252 275.221 93.7155 278.383 94.5363 280.48C95.6914 283.55 95.5394 284.432 92.7732 290.238C90.5542 294.858 90.5238 295.01 90.3718 297.837C90.2806 299.418 90.3718 302.913 90.5542 305.588C90.7366 308.263 91.0102 312.914 91.1318 315.923C91.4053 321.577 91.4661 322.216 92.2869 326.167C92.7428 328.477 92.7428 328.569 92.0741 330.423C91.7093 331.487 90.9798 333.067 90.5238 333.979C89.5207 335.834 89.4599 336.593 90.0679 338.113C90.5846 339.36 92.8036 341.822 93.6244 342.065C94.2019 342.247 94.2323 342.491 94.0499 349.756C93.9283 353.89 93.9891 360.547 94.1411 364.589C94.5059 374.013 94.7187 374.529 98.6703 376.536C99.3999 376.9 100.585 377.265 101.345 377.387L102.713 377.569L102.531 380.791C102.379 383.557 102.44 384.165 102.926 385.077C104.902 388.877 118.489 390.366 125.116 387.509C127.639 386.445 127.761 386.202 127.031 383.466C126.727 382.19 126.302 380.882 126.119 380.548C125.967 380.214 125.815 378.876 125.815 377.569C125.785 376.262 125.602 374.712 125.39 374.134C124.842 372.584 123.079 370 119.553 365.593C117.851 363.465 116.088 360.942 115.602 359.969L114.72 358.176L114.811 349.816C114.903 342.369 114.963 341.427 115.419 341.092C116.666 340.18 116.696 340.12 116.696 336.441C116.696 333.311 116.878 331.973 118.185 325.742C119.827 317.899 120.678 314.464 121.438 312.428C122.684 309.053 122.502 301.515 121.043 296.743C120.283 294.189 120.252 293.703 120.283 288.535C120.313 285.252 120.526 282 120.8 280.48C121.56 276.164 121.195 263.609 120.252 262.181C119.766 261.451 119.28 257.378 118.945 251.602L118.733 248.046L119.857 247.529C120.465 247.225 121.134 246.708 121.347 246.344C121.803 245.553 121.772 233.668 121.286 226.555C120.465 214.974 120.556 198.285 121.468 188.619C121.681 186.187 120.526 183.756 117.638 180.716C116.453 179.47 115.48 178.193 115.48 177.889C115.48 177.554 115.267 176.947 115.054 176.46C114.659 175.761 114.659 175.396 115.024 174.028C115.784 171.08 116.574 169.408 117.213 169.438C118.094 169.438 122.593 172.235 124.447 173.907C126.879 176.065 127.639 176.187 130.162 174.88C133.354 173.208 136.059 171.505 139.038 169.226C143.78 165.639 143.81 165.639 143.993 163.845C144.054 162.964 144.175 162.265 144.266 162.265C144.327 162.265 149.069 165.943 154.814 170.472L165.241 178.649L166.943 178.558C167.885 178.527 168.858 178.314 169.101 178.102C169.466 177.798 169.891 177.98 171.533 179.318C172.627 180.199 173.539 180.989 173.539 181.111C173.539 181.202 173.205 181.749 172.779 182.327C172.354 182.904 172.019 183.512 172.019 183.725C172.019 184.181 173.478 185.154 173.843 184.911C173.995 184.819 174.39 184.911 174.755 185.123C175.576 185.64 176.427 185.093 176.427 184.06C176.396 183.117 175.272 182.296 186.367 191.233C192.537 196.188 195.425 198.681 195.486 199.137C195.547 199.501 195.759 199.775 195.972 199.714C196.155 199.684 196.337 199.836 196.337 200.079C196.337 200.565 197.158 200.96 197.583 200.687C197.735 200.596 197.857 200.808 197.857 201.143C197.857 201.538 198.07 201.781 198.404 201.781C198.678 201.781 199.863 202.541 201.018 203.483C202.143 204.426 203.207 205.064 203.328 204.912C204.18 204.031 205.76 201.994 205.76 201.781C205.76 201.66 204.818 200.839 203.663 199.957C202.508 199.076 201.474 198.103 201.413 197.799C201.322 197.404 201.079 197.282 200.775 197.404C200.441 197.526 200.289 197.434 200.289 197.1C200.289 196.826 200.046 196.492 199.772 196.401C199.468 196.279 199.073 196.006 198.89 195.732C198.708 195.489 198.343 195.367 198.1 195.459C197.796 195.58 195.425 193.847 191.443 190.656C188.039 187.89 183.722 184.455 181.838 182.996C179.467 181.172 178.433 180.169 178.403 179.713C178.403 179.378 179.862 177.281 181.716 174.971C183.509 172.691 185.09 170.593 185.212 170.29C185.485 169.621 184.695 168.77 183.57 168.526C182.537 168.344 173.934 170.016 173.326 170.533C173.022 170.776 172.931 170.715 172.931 170.259C172.931 169.438 170.773 167.402 161.137 159.073C154.814 153.601 153.203 152.051 153.325 151.595C153.416 151.291 153.507 150.318 153.477 149.437C153.446 148.555 153.446 146.914 153.477 145.759C153.568 142.263 152.413 139.345 149.252 134.998C148.431 133.873 147.063 131.654 146.242 130.135L144.722 127.308L145.969 126.609L147.245 125.909L147.185 123.082C147.124 120.255 147.124 120.225 145.148 116.182C142.777 111.258 142.108 110.285 138.825 106.789C137.397 105.27 136.302 103.871 136.393 103.658C136.576 103.051 132.047 95.3296 129.554 92.0467C128.369 90.466 126.545 88.1862 125.481 87.0311C122.198 83.3227 114.963 78.3679 111.164 77.2128C108.732 76.4833 108.489 75.9665 108.489 71.5589V68.0328L107.364 67.4552C105.267 66.3913 103.108 65.9658 98.2448 65.5706C93.4724 65.2058 93.442 65.2058 92.3781 64.2331C89.6727 61.7709 87.1193 59.7951 86.7545 59.9471C86.5418 60.0079 86.2682 59.7951 86.177 59.4303C85.7818 57.9409 86.025 56.2082 86.8761 54.3236C87.9096 52.0134 89.9463 45.8123 89.9463 44.9308C89.9463 44.5964 90.0983 44.3228 90.2502 44.3228C90.4326 44.3228 90.5542 44.4748 90.5542 44.6268C90.5542 44.8092 90.8886 45.0828 91.2838 45.2652C92.834 45.9947 93.594 44.8092 94.0499 40.9791C94.2931 38.6081 94.3843 38.5473 96.2689 38.9121C97.4544 39.1553 98.2144 39.1553 99.1263 38.8817L100.373 38.4866L100.16 36.9363C100.038 36.0548 99.8254 34.1093 99.6734 32.6199C99.3391 29.0938 96.5425 19.5794 94.4451 14.8374C92.3477 10.0346 90.1591 6.29575 88.7304 4.98866C86.3898 2.89124 84.2316 2.10091 79.1552 1.46256C77.6657 1.28018 75.1428 0.854617 73.5621 0.550644C69.6408 -0.270085 68.6377 -0.209291 65.7196 0.976207ZM127.943 149.346C130.74 151.504 131.013 151.778 130.223 151.504C128.824 150.987 126.757 150.774 125.724 151.018C124.599 151.261 124.599 151.261 124.599 150.288C124.599 148.495 124.964 147.036 125.329 147.309C125.511 147.461 126.697 148.373 127.943 149.346ZM136.454 156.216C136.454 156.337 136.272 156.489 136.029 156.58C135.755 156.702 135.147 156.124 134.357 155.06L133.08 153.389L134.782 154.726C135.694 155.425 136.454 156.124 136.454 156.216ZM180.804 170.897C181.078 171.232 180.986 171.505 180.378 172.235C179.71 173.025 179.679 173.177 180.074 173.512C180.318 173.724 180.53 173.968 180.53 174.089C180.53 174.363 178.707 176.247 178.433 176.247C178.068 176.247 174.117 172.873 173.934 172.387C173.691 171.718 174.542 171.293 176.883 170.897C179.679 170.411 180.409 170.411 180.804 170.897ZM174.816 176.004C175.667 176.703 176.214 177.342 176.032 177.403C175.667 177.524 172.627 175.335 172.627 174.971C172.627 174.424 173.387 174.788 174.816 176.004Z" fill="black"/>
</svg>
