<svg width="571" height="571" viewBox="0 0 571 571" fill="none" xmlns="http://www.w3.org/2000/svg">
<path d="M277.867 3.32104C269.867 7.98771 267.6 11.0544 264.533 21.4544C262.933 27.0544 262.533 31.5877 263.2 37.5877C263.867 44.7877 263.733 46.1211 261.733 47.4544C259.867 48.5211 259.733 49.1877 261.067 49.7211C262 50.1211 263.867 51.4544 265.067 52.6544C266.267 53.9878 268.4 55.321 269.6 55.8544C272.667 56.921 271.2 61.4544 267.067 63.3211C265.333 64.1211 259.467 67.7211 254 71.1877C248.667 74.6544 242.4 78.5211 240.133 79.7211C234.133 83.0544 229.6 93.7211 227.867 108.388C227.2 114.788 225.2 127.321 223.333 136.121C219.333 156.654 217.467 179.188 217.2 210.121C217.067 235.588 217.6 239.588 222.533 243.988C227.6 248.654 226 262.921 217.867 283.854C214.533 292.521 212.133 296.788 210.8 296.921C207.867 296.921 194.4 305.188 180.4 315.188L168.8 323.721L164.4 321.588C158.4 318.654 146 318.921 139.333 321.988C133.333 324.654 126.667 330.921 126.667 333.721C126.667 334.654 124.8 338.921 122.667 343.054C118.267 351.321 117.733 356.921 120.533 364.388C121.6 367.188 123.067 374.654 123.867 380.921C124.533 387.321 126.4 396.121 127.867 400.521C129.467 405.054 130.667 410.654 130.667 413.188V417.721L113.067 417.054C103.333 416.788 76.6667 417.454 53.8667 418.654C31.0667 419.854 9.73333 420.788 6.26667 420.788H0V495.454V570.121H285.333H570.667L570.533 499.054C570.533 460.121 570 426.921 569.333 425.454C568.267 423.054 568.133 423.054 568 426.121C567.867 429.454 567.867 429.454 566.667 426.388C565.067 422.521 564 422.521 564.933 426.388L565.733 429.454L562.8 426.254L560 423.054L559.2 427.188C558.267 431.854 556 431.721 556 427.054C556 425.454 554.533 421.854 552.8 419.188L549.733 414.121L549.867 421.854C550 428.654 548.133 433.054 546.933 428.521C546.667 427.321 546.933 427.454 547.867 428.788C548.667 429.854 549.333 430.121 549.333 429.321C549.333 428.388 548 426.788 546.267 425.721C543.333 423.854 543.067 423.854 541.067 427.188L538.933 430.788L538 427.054C537.467 425.054 536.4 423.454 535.733 423.454C534.933 423.454 534.8 424.388 535.2 425.588C535.733 427.054 535.467 427.588 534.133 427.054C533.067 426.654 531.867 426.921 531.467 427.854C531.067 428.788 531.067 427.854 531.467 425.988C531.867 423.988 531.6 421.988 530.8 421.588C529.867 420.921 529.733 421.454 530.267 422.921C530.8 424.521 530.667 424.921 529.467 424.254C528.4 423.588 528 424.121 528.4 426.388C528.667 427.988 528.667 428.654 528.4 427.721C528 426.788 527.2 426.388 526.533 426.788C525.867 427.321 525.333 426.254 525.2 424.521C525.067 421.721 525.067 421.721 523.733 425.054C522 430.121 517.333 430.121 517.2 425.054C517.067 422.254 516.933 422.121 516.4 424.121C515.333 428.121 513.067 428.921 510.933 425.988C508.4 422.388 510 414.654 514.133 409.721C517.067 406.121 518.267 403.454 516.667 403.454C516.267 403.454 514.8 405.454 513.333 407.721C510.4 412.521 510.4 412.254 510.4 399.454C510.4 390.921 510.133 391.588 508.533 403.454C507.733 409.188 507.6 409.321 506.133 406.121C505.333 404.254 503.6 402.654 502.133 402.388C499.333 401.854 500.4 404.388 504.267 407.188C505.6 408.121 506.667 410.254 506.8 411.854C506.8 414.654 506.933 414.654 508 412.121C509.067 409.454 509.2 409.454 509.2 412.254C509.333 416.788 508.133 416.654 503.467 411.988C500.133 408.654 498.267 407.721 496.4 408.388C494.267 409.321 494.267 409.454 496.267 409.854C499.333 410.521 502.667 415.854 501.333 418.121C500.667 419.188 500.533 421.721 500.933 423.721C501.733 428.121 501.2 428.254 496.267 425.188C493.333 423.321 492.933 423.188 494.267 424.921C495.6 426.654 495.6 427.054 494 427.054C492.533 427.054 492.133 421.588 492 394.388C492 376.388 491.6 361.188 491.067 360.388C490.667 359.721 490.267 357.321 490.4 355.321C490.533 351.854 490.133 351.454 485.867 351.454C482 351.454 481.333 351.054 481.333 348.254C481.333 345.854 480 344.388 476.4 342.521C472.667 340.788 470.267 338.121 467.067 332.121C464.8 327.721 462.267 323.454 461.467 322.521C460.667 321.588 459.6 315.454 459.067 308.921L458.267 296.921L464.8 296.521C470.933 296.121 471.333 295.854 471.733 292.254C472.667 284.254 471.333 282.654 464.4 282.654L458 282.788L458.267 276.521C458.533 269.454 456.533 267.854 448.8 269.321L444.4 270.121L445.067 277.054L445.733 283.854L438.933 283.188L432 282.521L431.2 286.921C429.733 294.654 431.333 296.788 438.667 296.788H445.2L444.533 304.388C443.467 317.188 442.8 321.188 441.6 321.988C440.933 322.388 438.933 326.121 437.067 330.121C433.333 337.988 429.067 342.654 424.4 344.121C422.267 344.654 421.333 345.988 421.333 348.254C421.333 351.054 420.667 351.454 416.8 351.454H412.267L412 388.388C411.867 425.721 411.067 433.454 408.133 424.521C407.333 421.988 405.733 419.854 404.667 419.854C403.733 419.854 402.933 420.254 403.067 420.654C403.067 421.054 402.133 423.188 400.933 425.454C398.933 428.654 398.667 428.921 399.067 426.388C399.467 424.788 399.2 423.721 398.533 424.254C397.867 424.654 397.333 425.721 397.333 426.788C397.333 427.721 396 429.054 394.4 429.588C390.533 430.788 309.867 431.054 308.667 429.854C308.133 429.321 308.933 426.788 310.533 424.121C313.867 418.521 314.133 413.188 311.333 410.121C309.733 408.254 309.867 406.921 312.667 399.054C314.533 394.121 316 387.721 316 384.921C316 381.988 317.2 373.854 318.8 366.521C322.4 349.854 322.267 350.521 324 326.121C324.8 314.788 326.267 300.921 327.333 295.454C328.4 289.988 329.6 280.654 330 274.788C330.533 268.921 331.733 259.588 332.8 254.121C333.867 248.654 334.667 242.521 334.667 240.388C334.667 234.121 338.133 236.388 341.6 245.054C345.867 255.721 348 262.388 348 265.054C348 266.254 348.933 267.588 350 267.988C353.333 269.188 354.667 263.321 354.667 248.388C354.667 238.921 355.333 233.588 356.667 230.921C359.067 226.254 359.467 182.521 357.2 164.788C356.4 158.521 355.733 152.254 355.733 150.788C355.733 149.321 355.2 145.454 354.533 142.121C353.867 138.788 352.8 128.654 352 119.454C350.533 100.121 349.6 96.6544 342.267 84.5211C336.267 74.6544 337.2 75.3211 316.8 67.1877C308.667 63.8544 302 60.6544 301.6 59.7211C301.333 58.9211 302.4 57.1877 303.867 55.8544C305.467 54.6544 307.6 50.5211 308.8 46.7877C310 43.1877 311.6 39.3211 312.4 38.3878C316.133 33.7211 305.6 6.38772 298.533 2.78772C291.067 -1.07895 285.2 -0.945622 277.867 3.32104ZM340.533 182.788C343.2 189.854 345.333 197.854 345.333 200.788C345.333 206.654 337.6 225.054 335.467 224.388C334.133 223.988 333.467 170.121 334.8 170.121C335.333 170.121 337.867 175.854 340.533 182.788ZM242 199.988C241.733 223.054 241.2 226.121 238.267 226.121C236.667 225.988 229.333 210.921 229.333 207.588C229.333 205.988 235.2 187.988 238.8 178.388C241.467 171.588 242.267 177.854 242 199.988ZM237.2 232.921C242.667 234.788 242 231.321 245.2 282.788C245.733 291.588 246.4 299.321 246.667 300.121C246.933 300.788 246.8 303.321 246.267 305.454C245.733 307.721 246.133 325.188 247.333 344.254C249.333 378.654 250.667 386.788 256 396.788C257.2 398.921 257.333 403.854 256.667 413.721L255.733 427.454L240.933 426.654C221.733 425.721 199.867 423.721 199.2 423.054C198.933 422.788 200.133 416.921 202 409.988C203.733 403.054 205.333 394.921 205.333 391.988C205.333 388.921 206.267 384.254 207.333 381.721C208.667 378.521 209.333 372.388 209.333 363.454C209.333 348.121 208.933 348.654 222.667 346.788C231.6 345.588 240.667 341.854 241.867 338.788C242.267 337.588 242.667 333.988 242.667 330.788C242.667 325.054 242.4 324.788 236.667 322.254C232 320.121 230.667 318.921 230.667 316.388C230.667 312.121 226.4 306.921 220 303.321C217.067 301.588 214.667 299.454 214.667 298.521C214.667 297.588 216.8 291.321 219.333 284.788C224 272.788 226.267 264.121 226.933 255.454C227.333 251.588 227.733 250.788 230.267 251.188C234.267 251.721 235.067 249.588 232.667 244.788C231.2 242.121 230.8 239.188 231.467 236.121C231.867 233.588 232.4 231.454 232.667 231.454C232.8 231.454 234.8 232.121 237.2 232.921ZM287.867 284.121C290.8 297.054 290.667 330.788 287.467 352.788C285.2 369.321 285.6 367.454 284.133 367.454C283.467 367.454 282.533 357.054 282 344.388C281.6 331.854 280.533 319.588 279.733 317.321C278.533 313.854 278.8 312.254 281.333 306.921C284.133 301.454 284.267 300.121 282.933 296.388C282 293.588 281.6 287.988 282.133 280.788C282.933 268.254 284.267 263.054 284.933 269.454C285.2 271.588 286.533 278.254 287.867 284.121ZM148.533 378.921C148.933 380.121 149.733 384.254 150.133 388.121C150.933 394.121 150.533 396.121 148 400.388C146.4 403.054 144.8 408.521 144.4 412.388C144 416.254 143.2 419.454 142.667 419.454C142.133 419.454 140.8 415.721 139.733 411.054C137.6 402.121 137.867 383.588 140.133 379.321C141.733 376.254 147.467 375.988 148.533 378.921ZM189.6 391.454C189.467 393.988 189.2 401.988 189.067 409.054L188.933 422.121H180.533C168.8 422.121 168 421.054 168 405.454V392.921L175.067 389.588C178.8 387.721 183.867 386.388 186 386.521C189.733 386.788 190 387.054 189.6 391.454ZM283.6 401.588C283.2 409.454 282.4 416.121 282 416.521C278.667 419.988 277.467 400.521 280.667 396.254C281.733 394.788 282.667 392.254 282.667 390.521C282.667 388.788 283.067 387.454 283.6 387.454C284 387.454 284 393.854 283.6 401.588ZM157.6 415.454C158 418.921 157.467 419.454 154 419.454C151.6 419.454 151.467 416.388 153.467 412.521C155.2 409.454 156.933 410.654 157.6 415.454ZM508 423.454L507.867 426.788L505.867 422.921C504.133 419.988 503.467 419.454 502.533 420.921C501.2 423.054 500.933 421.988 502.133 418.921C503.333 415.721 508 419.321 508 423.454ZM406.267 425.054C405.867 426.121 405.467 425.721 405.467 424.254C405.333 422.788 405.733 421.988 406.133 422.521C406.533 422.921 406.667 424.121 406.267 425.054ZM403.6 426.388C403.2 427.454 402.8 427.054 402.8 425.588C402.667 424.121 403.067 423.321 403.467 423.854C403.867 424.254 404 425.454 403.6 426.388Z" fill="white"/>
</svg>
