<svg width="721" height="546" viewBox="0 0 721 546" fill="none" xmlns="http://www.w3.org/2000/svg">
<path fill-rule="evenodd" clip-rule="evenodd" d="M359.734 0.836163C359.379 1.19016 356.267 1.54316 352.817 1.62016C344.806 1.80016 341.441 3.88719 340.033 9.55119C339.466 11.8292 338.046 15.7172 336.875 18.1922C335.705 20.6672 333.73 25.5602 332.485 29.0652C330.25 35.3612 330.245 35.4762 332.104 38.5652C334.962 43.3162 337.044 48.2322 337.044 50.2322C337.044 53.0572 338.137 55.1922 339.584 55.1922C341.46 55.1922 342.442 59.0072 341.01 60.7332C340.351 61.5272 338.105 62.6372 336.02 63.1992C333.935 63.7602 329.872 65.8412 326.991 67.8222C324.111 69.8042 318.563 73.0602 314.664 75.0582C309.264 77.8262 306.578 80.0032 303.392 84.1922C301.092 87.2172 297.857 91.0842 296.203 92.7862C294.549 94.4882 291.175 98.7632 288.705 102.286C286.236 105.809 280.127 112.464 275.13 117.074C270.133 121.684 266.044 126.077 266.044 126.837C266.044 128.661 264.104 132.059 261.168 135.378C259.861 136.856 258.286 138.948 257.668 140.027C257.05 141.106 252.831 146.508 248.294 152.03C243.757 157.552 240.044 162.341 240.044 162.671C240.044 163.943 226.735 176.119 225.906 175.607C224.184 174.543 223.922 178.077 225.54 180.545L227.188 183.06L213.642 192.126C206.192 197.112 199.83 201.192 199.504 201.192C199.177 201.192 197.478 202.263 195.727 203.573C191.379 206.824 170.354 218.822 153.044 227.929C147.269 230.967 138.719 235.546 134.044 238.105C129.369 240.663 124.307 243.38 122.794 244.143C120.116 245.494 119.103 247.192 120.974 247.192C121.486 247.192 122.1 248.205 122.338 249.442C122.763 251.646 122.774 251.648 122.908 249.532C123.012 247.884 125.002 246.371 131.294 243.155C135.831 240.836 139.994 238.611 140.544 238.21C141.094 237.809 146.944 234.638 153.544 231.164C173.757 220.523 197.795 206.479 213.535 196.114L228.526 186.242L231.065 189.217C234.398 193.122 235.433 192.974 234.738 188.692C234.113 184.845 235.448 184.045 237.659 186.942C238.9 188.569 239.154 188.489 241.269 185.809C245.561 180.369 248.062 178.085 249.054 178.698C249.601 179.036 250.483 178.167 251.015 176.767C251.905 174.428 252.339 174.271 256.364 174.822C262.23 175.626 264.101 174.441 270.457 165.89C276.567 157.67 279.169 155.122 283.881 152.738C285.717 151.81 287.931 149.845 288.803 148.371C290.582 145.363 299.722 137.74 302.641 136.831C306.837 135.523 307.483 137.451 310.084 159.057C311.536 171.114 309.921 178.015 303.149 188.687C301.053 191.99 296.717 198.967 293.512 204.192C290.308 209.417 285.404 216.222 282.615 219.313C275.545 227.15 272.044 232.175 272.044 234.486C272.044 235.57 271.235 237.185 270.247 238.075C269.258 238.964 267.357 241.267 266.023 243.192C262.313 248.543 252.126 258.509 246.544 262.248C236.85 268.741 217.004 290.272 208.574 303.442C207.606 304.955 206.381 306.192 205.852 306.192C205.266 306.192 205.017 300.925 205.217 292.757C205.397 285.368 205.261 279.855 204.916 280.507C204.57 281.159 203.821 288.076 203.251 295.878C202.681 303.681 201.74 310.881 201.16 311.878C200.58 312.876 200.057 313.242 199.998 312.692C199.94 312.142 199.364 313.122 198.718 314.87C197.644 317.778 197.381 317.928 195.63 316.64C193.747 315.255 193.75 315.103 195.791 307.462C196.933 303.188 197.738 299.561 197.581 299.4C197.423 299.24 196.338 301.04 195.17 303.4L193.046 307.692L192.913 304.192L192.781 300.692L192.147 304.192C191.518 307.665 191.5 307.643 189.694 301.325C188.386 296.747 188.04 293.235 188.463 288.825C188.929 283.965 188.83 283.211 187.985 285.192C187.399 286.567 186.473 292.819 185.928 299.085C185.192 307.541 184.346 311.641 182.646 314.986L180.355 319.494L179.671 313.676C178.85 306.689 174.183 297.192 172.792 299.677C172.307 300.545 172.052 302.479 172.227 303.974C172.47 306.055 172.134 306.659 170.794 306.553C168.77 306.392 168.69 306.663 170.029 309.165C170.757 310.525 170.561 311.566 169.279 313.15L167.544 315.293V312.838C167.544 311.488 167.9 310.603 168.334 310.871C168.769 311.14 168.831 310.191 168.472 308.763C168.095 307.26 168.325 305.558 169.018 304.723C169.677 303.929 169.926 302.811 169.572 302.238C169.218 301.664 169.629 300.195 170.486 298.971C173.126 295.203 172.208 294.733 169.119 298.271C167.511 300.113 166.232 300.961 166.277 300.156C166.322 299.351 166.251 295.092 166.12 290.692L165.881 282.692L164.399 289.605C162.755 297.273 158.171 307.328 158.091 303.442C158.065 302.205 157.594 301.192 157.044 301.192C156.494 301.192 156.044 300.586 156.044 299.846C156.044 298.247 153.131 292.192 152.362 292.192C152.068 292.192 152.069 293.205 152.365 294.442C152.686 295.786 151.943 298.504 150.519 301.192L148.134 305.692L148.089 299.42L148.044 293.148L154.199 289.17C157.584 286.982 160.761 285.192 161.258 285.192C161.755 285.192 161.892 284.755 161.562 284.221C160.882 283.121 149.959 286.85 148.848 288.563C148.134 289.663 147.606 288.704 146.719 284.692C146.475 283.592 146.224 284.349 146.16 286.374C146.07 289.224 145.388 290.523 143.14 292.124C138.455 295.46 138.422 295.375 140.577 285.559C141.057 283.369 140.954 283.046 140.14 284.192C139.347 285.309 139.071 283.799 139.059 278.275C139.051 274.196 138.829 271.074 138.566 271.337C138.303 271.6 137.555 275.387 136.903 279.753C136.252 284.12 135.53 287.13 135.298 286.442C134.515 284.115 133.173 285.175 132.767 288.442C132.546 290.23 132.258 288.317 132.129 284.192C132 280.067 131.322 273.092 130.623 268.692L129.353 260.692L128.57 265.942C127.846 270.794 126.044 273.35 126.044 269.525C126.044 268.609 125.751 268.151 125.394 268.509C125.036 268.867 124.698 271.529 124.644 274.426C124.557 278.992 124.278 279.692 122.544 279.692C120.245 279.692 120.235 279.551 121.385 262.73C121.797 256.701 121.914 251.989 121.645 252.258C121.375 252.527 120.414 258.585 119.51 265.72C118.605 272.855 117.342 279.195 116.704 279.811C116.066 280.426 114.081 281.415 112.294 282.009C108.473 283.278 108.2 282.278 110.573 275.692C112.498 270.349 112.289 269.82 110.104 274.504C109.125 276.601 107.924 278.401 107.435 278.504C106.945 278.607 106.672 279.076 106.829 279.546C107.283 280.908 105.996 284.192 105.008 284.192C104.512 284.192 104.366 283.517 104.682 282.692C104.999 281.867 104.76 281.192 104.151 281.192C103.542 281.192 103.044 281.957 103.044 282.892C103.044 283.927 102.698 284.221 102.158 283.642C101.671 283.12 101.586 280.364 101.969 277.518C102.59 272.908 102.469 272.36 100.855 272.481C99.8142 272.56 99.0443 273.398 99.0443 274.454C99.0443 276.56 96.4263 281.952 94.4403 283.939C93.3143 285.065 93.1042 283.982 93.1482 277.27C93.1922 270.443 93.5553 268.77 95.5973 265.974C96.9153 264.169 98.4812 261.567 99.0772 260.192C99.6732 258.817 102.047 255.744 104.352 253.363L108.544 249.034L101.044 253.028C96.9193 255.225 91.4483 258.861 88.8863 261.107C86.3243 263.354 83.7363 265.192 83.1363 265.192C81.7673 265.192 81.6903 260.529 83.0443 259.692C83.5943 259.352 84.0152 256.513 83.9812 253.383C83.9342 249.195 83.6912 248.252 83.0612 249.813C82.5892 250.98 82.0443 253.455 81.8483 255.313C81.5163 258.474 79.1712 263.015 76.3422 265.978C75.6672 266.686 74.3263 268.598 73.3633 270.228C70.8443 274.494 69.8473 273.886 70.4323 268.442L70.9423 263.692L69.8173 267.442C68.4923 271.857 67.7773 272.095 66.2053 268.645C64.6973 265.337 64.7313 263.235 66.2943 263.021C67.6093 262.841 70.3583 262.571 73.2943 262.334C74.2573 262.256 75.0443 261.832 75.0443 261.392C75.0443 260.952 72.7952 260.615 70.0472 260.642C67.2982 260.67 65.0482 261.067 65.0472 261.525C65.0452 261.984 64.4823 262.157 63.7943 261.91C63.1073 261.664 61.7563 261.867 60.7943 262.362C58.2283 263.682 58.6463 262.127 62.1313 257.389C65.3603 252.997 66.5083 252.359 67.4323 254.442C67.7453 255.149 67.8903 254.972 67.7653 254.036C67.6423 253.115 72.1993 247.415 78.0443 241.18C88.6473 229.87 92.3903 225.174 85.3603 232.001C78.4433 238.72 55.6053 259.905 52.4333 262.546C48.9433 265.451 44.0443 267.615 44.0443 266.251C44.0443 265.76 44.3813 265.209 44.7943 265.025C45.6483 264.646 54.2483 254.428 55.5293 252.271C56.0473 251.399 55.3562 251.593 53.7402 252.771C52.2922 253.828 51.0753 255.142 51.0353 255.692C50.9963 256.242 48.2183 258.717 44.8613 261.192C41.5053 263.667 37.7072 266.803 36.4212 268.161C34.5822 270.103 33.8223 270.37 32.8633 269.411C31.9043 268.452 32.1492 268.192 34.0112 268.192C35.3122 268.192 36.0883 267.903 35.7353 267.55C34.8343 266.648 41.8833 259.824 45.7943 257.813C47.5823 256.893 49.0443 255.927 49.0443 255.666C49.0443 254.838 46.6433 255.645 45.2463 256.942C43.7443 258.338 41.0443 258.627 41.0443 257.392C41.0443 256.952 41.6073 255.986 42.2943 255.245C43.3033 254.158 43.2793 254.05 42.1673 254.683C41.4103 255.114 39.2103 257.217 37.2773 259.356C35.3453 261.495 33.5662 263.047 33.3242 262.805C32.5072 261.989 36.2623 257.192 37.7183 257.192C38.5123 257.192 38.8953 256.76 38.5693 256.232C37.8153 255.012 44.8143 247.192 46.6603 247.192C47.4213 247.192 48.0443 246.768 48.0443 246.25C48.0443 245.732 50.8573 243.714 54.2943 241.765C62.3763 237.185 60.9383 237.158 52.1133 241.726C47.8963 243.908 43.1352 247.512 39.6642 251.151C36.5732 254.392 34.0443 256.72 34.0443 256.324C34.0443 255.928 37.3073 251.595 41.2943 246.695C47.8783 238.604 49.0753 237.608 54.3213 235.849C57.4993 234.784 59.9092 233.724 59.6792 233.493C59.3182 233.133 50.6273 235.366 46.0443 236.997C44.9663 237.381 45.1033 236.85 46.5283 235.112C48.3013 232.95 48.1953 232.977 45.5283 235.37C42.0773 238.466 30.8953 243.282 32.9753 240.776C33.6673 239.942 34.0522 238.717 33.8312 238.053C33.6102 237.39 32.8643 238.211 32.1743 239.878C31.3013 241.986 29.4163 243.613 25.9843 245.22C23.2703 246.491 20.8603 247.341 20.6283 247.11C20.3963 246.878 19.9203 245.544 19.5693 244.147C18.8443 241.261 21.8863 236.605 25.4323 235.172C27.3493 234.398 27.3683 234.313 25.6393 234.255C23.9043 234.198 23.8723 234.036 25.2783 232.442C26.1273 231.48 28.5043 227.317 30.5603 223.192C32.6173 219.067 34.5792 215.467 34.9212 215.192C35.2642 214.917 35.6392 214.242 35.7552 213.692C35.8712 213.142 37.3423 209.363 39.0233 205.294C40.7053 201.224 41.9552 197.77 41.8022 197.616C41.6482 197.463 39.3502 201.772 36.6932 207.192C31.5942 217.595 31.2623 217.931 18.2273 225.883L12.9093 229.127L15.4773 224.534C18.6453 218.865 18.8073 216.953 15.7943 220.783C14.5573 222.356 13.5413 223.879 13.5383 224.168C13.5173 226.088 8.30725 232.517 5.69725 233.843L2.54425 235.446L5.04425 232.642L7.54425 229.837L4.04425 232.191C2.11925 233.485 0.332252 234.715 0.0732517 234.923C-0.185748 235.131 0.264252 235.719 1.07325 236.231C1.88225 236.743 2.04025 237.168 1.42525 237.177C0.737252 237.186 0.252252 239.569 0.166252 243.355C0.0352517 249.147 0.132252 249.427 1.78525 248.007C2.75325 247.176 4.21925 246.116 5.04425 245.652C6.37725 244.902 6.37725 245.025 5.04625 246.75C4.22225 247.818 2.75925 249.42 1.79625 250.309C0.142252 251.836 0.0442517 260.131 0.0442517 398.561V545.195L360.294 544.943L720.544 544.692L720.779 392.776C720.921 300.543 720.649 240.421 720.086 239.743C717.959 237.18 706.078 211.929 702.536 202.443C700.431 196.806 698.554 192.349 698.365 192.537C698.176 192.726 700.052 198.807 702.533 206.051C705.014 213.294 707.044 220.255 707.044 221.519C707.044 222.783 708.394 227.811 710.044 232.692C714.937 247.168 713.445 249.716 707.142 237.647C700.905 225.705 696.037 217.305 694.968 216.645C694.403 216.296 694.679 217.739 695.58 219.851C699.721 229.56 699.881 231.58 696.085 226.25C691.907 220.382 692.179 223.256 696.595 231.627C699.042 236.266 701.028 241.104 701.009 242.377L700.973 244.692L699.719 242.433C699.029 241.191 697.532 239.522 696.392 238.723C695.252 237.925 693.753 235.791 693.059 233.982C692.366 232.172 690.121 226.642 688.069 221.692C686.017 216.742 684.025 211.401 683.643 209.824C683.26 208.247 682.775 207.127 682.566 207.336C681.948 207.955 684.73 221.171 686.957 228.192C690.275 238.654 689.52 238.142 682.904 225.442C680.469 220.769 678.504 219.641 680.097 223.831C682.529 230.228 679.953 226.123 674.027 214.157C670.495 207.026 667.315 201.192 666.96 201.192C666.605 201.192 667.993 205.917 670.044 211.692C672.095 217.467 673.673 222.192 673.55 222.192C673.427 222.192 671.612 219.609 669.516 216.452C664.976 209.614 663.85 210.903 667.465 218.8C670.939 226.389 670.716 226.679 666.408 220.179C664.408 217.161 661.929 213.76 660.901 212.62C659.872 211.481 657.87 206.081 656.451 200.62C655.033 195.16 653.646 190.467 653.369 190.192C652.525 189.354 654.02 197.054 657.198 209.928C658.86 216.658 660.019 222.733 659.773 223.428C659.527 224.123 660.644 227.33 662.255 230.553C663.867 233.777 665.587 238.883 666.078 241.9C666.569 244.917 667.233 248.354 667.553 249.539C668.007 251.217 667.464 250.929 665.09 248.23C663.415 246.326 662.044 244.448 662.044 244.057C662.044 243.666 659.874 238.699 657.223 233.019C654.571 227.339 650.429 217.342 648.019 210.803C645.609 204.264 643.494 199.343 643.319 199.867C642.963 200.934 649.178 220.318 653.922 232.942C655.628 237.48 656.608 241.192 656.101 241.192C655.594 241.192 654.924 240.404 654.613 239.442C654.302 238.48 652.898 236.342 651.493 234.692C649.471 232.318 649.175 232.179 650.072 234.028C650.696 235.312 650.94 236.629 650.616 236.953C650.291 237.278 650.898 238.477 651.963 239.618C653.208 240.95 654.443 244.806 655.415 250.401C656.248 255.19 657.45 260.082 658.086 261.271C660.217 265.253 657.257 262.264 654.779 257.933C649.819 249.263 639.044 231.96 639.044 232.666C639.044 233.069 641.294 237.892 644.044 243.385C646.794 248.879 649.044 253.6 649.044 253.877C649.044 254.833 641.776 245.688 640.75 243.442C638.784 239.135 638.128 241.223 640.044 245.692C642.21 250.744 641.816 251.213 638.154 247.942C636.769 246.705 637.517 247.991 639.815 250.801C643.952 255.859 648.405 264.609 647.786 266.466C647.32 267.865 638.854 259.485 635.135 253.942C633.382 251.329 631.726 249.192 631.454 249.192C630.832 249.192 635.243 256.89 640.234 264.513C642.329 267.714 644.03 271.539 644.014 273.013C643.985 275.523 643.911 275.565 642.849 273.692C642.225 272.592 641.45 271.467 641.127 271.192C640.803 270.917 639.248 268.79 637.671 266.465C631.311 257.089 631.419 259.686 637.902 272.039C640.637 277.249 640.011 278.826 637.102 274.055C635.974 272.205 635.05 271.121 635.048 271.645C635.039 273.89 627.199 264.69 625.984 261.01C624.949 257.875 624.506 257.375 624.011 258.787C623.492 260.265 622.852 259.721 620.613 255.9C619.096 253.311 617.666 251.192 617.436 251.192C616.231 251.192 621.714 261.776 626.761 269.192C627.696 270.567 621.055 264.111 612.003 254.845C597.366 239.863 592.044 235.004 592.044 236.623C592.044 236.899 593.957 239.316 596.294 241.994C598.631 244.671 601.654 248.174 603.011 249.777C604.368 251.38 607.882 255.522 610.819 258.98C615.804 264.849 619.814 272.755 618.482 274.087C618.161 274.408 615.681 272.347 612.971 269.506C610.261 266.665 608.044 264.57 608.044 264.85C608.044 265.131 606.244 263.934 604.044 262.192C599.121 258.293 598.957 259.46 603.534 265.833C608.588 272.87 612.044 279.738 612.044 282.742C612.044 284.181 611.648 285.209 611.165 285.025C609.423 284.365 602.044 277.173 602.044 276.136C602.044 275.552 601.651 275.317 601.17 275.614C599.595 276.588 595.049 271.398 594.928 268.49C594.858 266.799 594.631 266.384 594.355 267.442C594.103 268.404 593.334 269.192 592.645 269.192C590.47 269.192 587.049 264.681 586.908 261.628C586.798 259.269 586.686 259.135 586.338 260.942C585.775 263.867 585.285 263.796 579.991 260.02L575.544 256.847L580.044 261.564C584.43 266.161 584.536 266.425 584.231 271.986C583.832 279.284 583.117 281.927 582.021 280.155C581.513 279.333 580.955 280.663 580.503 283.773C579.601 289.992 579.046 290.916 577.493 288.792C576.749 287.775 576.44 285.399 576.726 282.89C577.073 279.837 576.924 279.093 576.178 280.163C574.951 281.924 574.829 281.802 572.702 276.692L571.038 272.692L571.595 278.692C572.254 285.789 572.3 287.051 572.155 293.942C572.036 299.571 570.085 301.367 569.983 295.942C569.949 294.154 569.296 289.542 568.531 285.692L567.142 278.692L567.697 286.942C568.08 292.629 567.909 295.192 567.148 295.192C566.541 295.192 566.018 293.73 565.986 291.942C565.955 290.154 565.596 286.892 565.19 284.692L564.452 280.692L562.24 288.192L560.029 295.692L560.488 289.711C560.75 286.302 560.588 284.311 560.112 285.081C559.439 286.17 559.092 286.101 558.321 284.723C557.651 283.525 557.468 284.762 557.71 288.853C557.957 293.025 557.788 294.121 557.12 292.692C556.265 290.863 556.179 290.917 556.114 293.32C556.076 294.765 555.439 296.449 554.7 297.062C553.634 297.947 553.118 297.381 552.2 294.319C551.564 292.196 551.032 289.612 551.018 288.576C551.003 287.54 550.17 284.892 549.166 282.692L547.34 278.692L547.692 284.192L548.044 289.692L546.386 285.218C544.985 281.438 544.608 281.05 543.956 282.718C543.532 283.803 543.153 284.119 543.114 283.419C543.015 281.63 536.833 267.07 536.369 267.534C536.16 267.743 536.481 269.212 537.085 270.799C537.688 272.385 538.335 275.485 538.524 277.687C538.713 279.89 539.29 284.054 539.806 286.942C540.744 292.184 539.643 294.425 538.455 289.692C538.11 288.317 537.478 287.192 537.052 287.192C536.626 287.192 535.96 286.179 535.572 284.942L534.866 282.692L534.055 285.192C533.547 286.757 533.206 287.06 533.144 286.001C533.089 285.071 532.524 283.989 531.889 283.597C531.176 283.156 531.006 283.322 531.445 284.032C532.375 285.536 530.079 301.192 528.929 301.192C528.442 301.192 528.024 300.179 528 298.942C527.976 297.705 527.373 294.479 526.66 291.775C525.541 287.526 525.277 287.186 524.718 289.275C524.362 290.604 524.065 293.181 524.058 295.001C524.05 296.95 523.633 298.056 523.044 297.692C522.494 297.352 522.044 296.227 522.044 295.192C522.044 294.157 521.546 293.002 520.937 292.626C520.192 292.165 520.025 292.719 520.427 294.317C520.866 296.062 520.641 295.897 519.579 293.692C517.857 290.116 517.469 292.837 519.17 296.568C519.869 298.103 520.002 300.489 519.52 302.865C518.783 306.504 518.678 306.278 517.38 298.261C516.63 293.624 515.797 289.611 515.53 289.344C515.263 289.077 515.044 291.885 515.044 295.584C515.044 302.505 513.761 303.732 512.505 298.013C511.927 295.383 511.654 295.138 510.869 296.54C510.297 297.563 510.264 301.121 510.785 305.602C511.716 313.595 510.793 319.342 509.517 313.506C509.133 311.754 508.134 310.057 507.297 309.735C506.004 309.239 505.876 307.53 506.45 298.422C506.822 292.52 507.394 285.442 507.721 282.692C508.048 279.942 508.002 277.981 507.62 278.335C506.6 279.278 504.124 297.653 504.002 305.192C503.943 308.767 503.56 313.717 503.15 316.192C502.41 320.657 502.398 320.632 501.607 312.942C501.036 307.397 500.416 305.192 499.427 305.192C498.666 305.192 498.044 305.953 498.044 306.883C498.044 308.364 497.851 308.332 496.497 306.633C495.037 304.802 494.985 304.876 495.576 307.942C496.533 312.905 494.663 311.81 493.092 306.487C491.959 302.652 491.919 300.287 492.873 293.686C494.262 284.08 494.293 280.325 492.948 284.692C491.401 289.715 489.173 300.932 488.446 307.356C487.744 313.559 486.886 313.555 485.557 307.34C485.163 305.497 483.986 303.134 482.942 302.09C480.601 299.749 480.601 299.842 482.964 307.483C484.02 310.898 485.086 315.942 485.332 318.692L485.779 323.692L483.937 319.692C482.925 317.492 482.032 314.567 481.954 313.192C481.855 311.454 481.672 311.229 481.352 312.454C481.099 313.423 480.411 313.919 479.822 313.555C479.121 313.122 478.959 313.721 479.35 315.293C479.679 316.612 480.189 319.717 480.483 322.192C480.861 325.373 480.385 324.35 478.86 318.704C476.352 309.418 475.109 310.13 477.461 319.506C478.331 322.979 479.012 326.241 478.974 326.756C478.841 328.517 475.966 319.7 474.388 312.692C471.886 301.582 471.127 301.864 471.704 313.692C472.265 325.189 471.508 327.153 470.031 318.035C469.555 315.096 468.659 310.442 468.039 307.692C467.342 304.594 466.937 292.075 466.975 274.786C467.011 258.436 466.607 245.284 465.999 243.026C465.202 240.063 461.728 235.878 450.985 224.932C443.298 217.1 436.81 209.792 436.569 208.692C434.579 199.641 430.26 175.643 430.565 175.338C431.091 174.811 433.145 177.016 436.018 181.192C437.343 183.117 442.17 188.517 446.745 193.192C455.844 202.489 455.85 202.847 446.903 203.092C443.506 203.185 443.235 203.427 442.851 206.716C442.559 209.221 442.959 210.71 444.236 211.866C445.895 213.367 447.107 213.358 460.084 211.757C470.904 210.422 474.462 210.294 475.552 211.198C476.858 212.282 481.297 212.232 492.788 211.005C494.573 210.814 496.225 211.116 496.459 211.675C496.694 212.234 496.922 210.87 496.965 208.644L497.044 204.595L506.794 202.812C517.399 200.873 546.05 195.168 558.044 192.607C567.039 190.686 605.707 180.92 615.254 178.157C618.989 177.076 625.165 175.288 628.979 174.183C634.521 172.578 636.529 171.427 638.979 168.455C640.665 166.41 642.044 164.419 642.044 164.031C642.044 163.643 638.107 164.427 633.294 165.772C603.914 173.987 568.068 183.301 553.044 186.625C538.575 189.826 508.152 195.821 501.544 196.773C498.794 197.17 496.341 197.539 496.092 197.593C495.843 197.647 495.062 195.667 494.357 193.192L493.074 188.692L493.464 192.942C493.916 197.872 493.303 198.164 489.968 194.605C488.635 193.182 486.104 191.414 484.344 190.677C480.821 189.201 471.799 180.596 467.374 174.491C465.817 172.344 461.438 167.132 457.642 162.908C453.846 158.685 449.904 153.361 448.881 151.077C447.859 148.793 444.941 145.093 442.396 142.853C436.136 137.343 434.665 133.653 432.366 117.692C432.049 115.492 430.999 112.685 430.032 111.454C429.066 110.223 427.968 107.168 427.592 104.665C427.217 102.163 426.265 98.5722 425.477 96.6862C424.689 94.8002 424.044 91.8482 424.044 90.1262C424.044 86.0522 416.355 78.7702 407.109 74.0862C403.498 72.2572 400.319 70.4912 400.044 70.1612C398.767 68.6272 389.705 62.9702 387.032 62.0382C385.389 61.4652 384.044 60.6352 384.044 60.1932C384.044 59.7522 385.165 56.9832 386.534 54.0412C387.904 51.0992 389.029 49.1082 389.034 49.6162C389.04 50.1252 390.123 49.5272 391.442 48.2882C394.597 45.3232 394.871 37.2362 392.005 31.6152C390.926 29.5002 390.044 26.5972 390.044 25.1642C390.044 21.8682 384.867 11.6602 381.316 7.9542C376.175 2.5882 362.494 -1.92384 359.734 0.836163ZM1.04425 185.192C-0.128748 185.95 0.130252 186.165 2.23525 186.177C3.71525 186.185 5.20425 185.742 5.54425 185.192C6.33325 183.915 3.02025 183.915 1.04425 185.192ZM15.1293 206.845C2.08725 213.462 0.0442517 214.819 0.0442517 216.866V219.233L3.94925 217.24C6.28225 216.05 10.7773 215.035 15.1173 214.719C19.1113 214.428 22.6043 213.965 22.8783 213.691C23.3923 213.177 14.4913 212.741 10.0443 213.061C7.34225 213.256 12.2583 210.19 25.2943 203.549C31.7193 200.276 33.1713 199.192 31.1293 199.192C30.6263 199.192 23.4263 202.636 15.1293 206.845ZM712.044 204.041C712.044 204.657 713.394 207.947 715.044 211.353C716.694 214.76 718.027 217.804 718.006 218.119C717.986 218.434 716.417 216.892 714.521 214.692C712.625 212.492 711.067 211.341 711.059 212.134C711.041 213.851 719.026 227.543 719.67 226.899C719.916 226.654 720.146 223.935 720.183 220.857C720.233 216.712 719.657 214.281 717.963 211.477C714.693 206.068 712.044 202.739 712.044 204.041ZM22.3183 225.063C18.8933 227.609 14.2633 230.938 12.0283 232.461C9.79325 233.983 8.09525 235.871 8.25425 236.655C8.41425 237.439 7.64425 238.766 6.54425 239.604C4.88825 240.866 4.82425 241.134 6.17225 241.16C8.11425 241.198 10.4493 238.656 9.65425 237.369C9.34425 236.869 10.0403 235.612 11.2003 234.576C13.2943 232.707 13.3043 232.711 12.5403 235.192C12.1163 236.567 11.5393 238.305 11.2573 239.055C10.9313 239.92 12.3493 239.526 15.1443 237.975C18.1703 236.295 21.0793 233.293 24.4603 228.361C27.1633 224.417 29.1883 221.02 28.9603 220.811C28.7313 220.603 25.7423 222.516 22.3183 225.063ZM663.094 220.913C663.02 222.734 667.651 232.831 668.921 233.616C670.237 234.43 669.947 233.622 666.074 225.692C664.462 222.392 663.121 220.242 663.094 220.913ZM8.91625 226.015C7.47125 226.937 4.88425 228.577 3.16625 229.658C1.44925 230.739 0.0442517 231.993 0.0442517 232.445C0.0442517 232.897 2.74425 231.433 6.04425 229.192C9.34425 226.951 12.0443 224.909 12.0443 224.655C12.0443 224.038 11.9533 224.077 8.91625 226.015ZM36.4142 245.442C32.9182 248.88 30.2403 252.188 30.4633 252.795C30.6863 253.402 29.9103 254.719 28.7383 255.722C27.3493 256.911 27.0303 257.687 27.8213 257.951C28.4893 258.174 30.2673 256.856 31.7723 255.024C33.2773 253.191 37.1752 248.88 40.4352 245.442C44.6832 240.962 45.8523 239.192 44.5653 239.192C43.5773 239.192 39.9092 242.005 36.4142 245.442ZM0.316252 245.192C0.316252 247.667 0.511252 248.679 0.750252 247.442C0.988252 246.205 0.988252 244.179 0.750252 242.942C0.511252 241.705 0.316252 242.717 0.316252 245.192ZM9.85425 243.442C8.98925 244.13 7.45725 245.997 6.45025 247.591C4.64825 250.443 4.65125 250.473 6.59325 249.434C9.70025 247.77 14.0923 242.192 12.2943 242.192C11.8173 242.192 10.7193 242.755 9.85425 243.442ZM32.1523 245.25C30.8373 246.346 29.9983 247.479 30.2873 247.768C30.5763 248.058 32.1032 247.161 33.6792 245.775C37.0492 242.811 35.6563 242.332 32.1523 245.25ZM26.0443 249.192C26.0443 249.742 25.7073 250.103 25.2943 249.994C23.9293 249.633 20.0443 251.31 20.0443 252.259C20.0443 253.693 21.6543 253.367 23.0833 251.645C23.8683 250.7 24.6103 250.49 24.9903 251.105C25.3473 251.682 26.1363 251.275 26.8373 250.152C27.5713 248.977 27.6573 248.192 27.0523 248.192C26.4983 248.192 26.0443 248.642 26.0443 249.192ZM0.531252 398.192C0.531252 479.317 0.649252 512.504 0.794252 471.942C0.939252 431.379 0.939252 365.004 0.794252 324.442C0.649252 283.879 0.531252 317.067 0.531252 398.192ZM15.0793 256.126C13.4693 259.136 13.7363 260.692 15.5993 259.147C18.2253 256.967 19.3543 254.192 17.6143 254.192C16.7893 254.192 15.6493 255.062 15.0793 256.126ZM95.1083 257.997C93.2603 259.54 91.9322 261.357 92.1582 262.033C92.4042 262.771 94.1452 261.649 96.5092 259.228C101.019 254.609 100.117 253.816 95.1083 257.997ZM87.8753 263.942C86.5163 265.551 86.4342 269.192 87.7572 269.192C88.0692 269.192 88.9213 268.404 89.6523 267.442C91.1463 265.474 91.4882 262.192 90.1992 262.192C89.7342 262.192 88.6893 262.98 87.8753 263.942ZM59.0353 264.274C56.1913 265.321 50.9002 273.341 51.9422 275.026C52.4402 275.832 53.6553 275.817 56.4123 274.971C59.2663 274.095 60.6902 272.847 62.1912 269.904C64.0532 266.255 64.1172 263.09 62.3252 263.271C61.8962 263.314 60.4153 263.766 59.0353 264.274ZM77.1582 268.507C74.7752 272.364 74.5873 273.192 76.0953 273.192C77.2093 273.192 80.4732 266.288 79.7172 265.531C79.4722 265.287 78.3212 266.626 77.1582 268.507ZM64.4922 269.569C64.8152 270.601 64.5663 272.063 63.9393 272.819C63.0553 273.883 63.1503 274.192 64.3633 274.192C66.7143 274.192 67.0333 272.943 65.3873 270.179C64.5373 268.752 64.1562 268.492 64.4922 269.569ZM82.6992 270.021C81.7892 271.027 81.0443 272.612 81.0443 273.544C81.0443 275.121 81.2163 275.125 83.5443 273.6C84.9193 272.699 86.0443 271.114 86.0443 270.077C86.0443 267.695 84.8222 267.674 82.6992 270.021ZM586.123 277.787C586.166 283.235 586.429 287.13 586.706 286.442C587.574 284.291 589.044 285.077 589.044 287.692C589.044 289.067 589.381 290.193 589.794 290.194C590.207 290.195 590.402 285.963 590.228 280.789C589.966 273.014 589.576 271.078 587.978 269.632C586.078 267.913 586.045 268.057 586.123 277.787ZM655.745 271.692C656.663 273.617 657.766 275.192 658.195 275.192C658.625 275.192 658.047 273.617 656.911 271.692C655.776 269.767 654.673 268.192 654.461 268.192C654.25 268.192 654.827 269.767 655.745 271.692ZM621.198 271.692C621.424 272.242 622.12 273.817 622.745 275.192C623.37 276.567 624.167 278.579 624.516 279.664C625.028 281.251 625.322 281.361 626.022 280.228C626.768 279.021 627.139 279.025 628.632 280.256C630.215 281.563 630.274 281.513 629.29 279.692C628.132 277.55 620.512 270.017 621.198 271.692ZM63.5133 276.692C63.2553 277.517 62.8332 278.867 62.5752 279.692C62.3182 280.517 62.5693 281.192 63.1343 281.192C63.7003 281.192 63.8873 281.637 63.5513 282.181C63.2013 282.747 63.6022 282.915 64.4922 282.574C65.3462 282.246 66.0443 281.163 66.0443 280.167C66.0443 279.171 66.3173 277.644 66.6513 276.774C67.0523 275.728 66.7032 275.192 65.6202 275.192C64.7182 275.192 63.7703 275.867 63.5133 276.692ZM648.665 281.942C649.445 285.196 651.7 289.861 652.829 290.559C654.659 291.69 653.755 286.695 651.477 283.086C648.579 278.495 647.759 278.161 648.665 281.942ZM273.362 288.721C266.762 296.718 266.283 297.632 265.683 303.368C264.373 315.906 265.414 341.192 267.24 341.192C268.044 341.192 267.658 333.17 266.519 326.192C266.237 324.464 266.696 324.927 268.003 327.692L269.896 331.692L269.97 328.483C270.011 326.718 269.535 321.85 268.912 317.665C268.07 312.001 268.07 309.766 268.912 308.924C269.755 308.081 270.044 308.467 270.044 310.433C270.044 311.886 270.494 313.352 271.044 313.692C271.667 314.077 272.076 311.933 272.13 308.001C272.201 302.785 272.366 302.195 273.085 304.599C273.564 306.197 274.212 311.147 274.527 315.599C274.842 320.05 275.686 325.942 276.404 328.692L277.709 333.692L278.437 325.541C279.608 312.422 280.857 310.113 280.958 320.883C281.005 325.938 281.494 330.352 282.044 330.692C282.612 331.043 283.095 330.096 283.162 328.501L283.281 325.692L283.967 328.692C284.61 331.502 284.701 331.552 285.401 329.491C285.812 328.281 285.645 325.423 285.03 323.14C284.415 320.858 284.138 318.765 284.414 318.489C284.689 318.213 285.219 319.609 285.591 321.59C285.962 323.571 286.612 325.192 287.034 325.192C287.456 325.192 288.375 326.576 289.075 328.268L290.35 331.344L291.689 327.518C292.426 325.414 293.528 320.881 294.138 317.446C294.748 314.011 295.54 311.381 295.896 311.603C296.252 311.824 296.434 309.46 296.301 306.349C295.97 298.673 297.255 302.044 299.577 314.945C300.592 320.585 301.749 324.669 302.15 324.021C302.606 323.283 303.034 323.749 303.296 325.268C303.527 326.601 303.538 324.992 303.321 321.692C302.888 315.091 304.301 315.755 305.45 322.692C307.124 332.803 307.024 332.59 309.078 330.386C312.79 326.402 313.821 311.017 311.505 294.192L311.023 290.692L312.607 294.692C313.478 296.892 314.79 301.617 315.523 305.192C316.483 309.873 316.882 310.766 316.95 308.383C317.004 306.478 317.463 305.333 318.032 305.685C318.653 306.068 318.851 304.51 318.564 301.494C318.29 298.606 318.878 300.279 320.039 305.692C321.1 310.642 321.986 316.154 322.006 317.942C322.054 322.023 323.668 322.182 324.544 318.192C324.906 316.542 325.587 315.192 326.056 315.192C326.525 315.192 327.206 314.258 327.568 313.117C327.93 311.975 328.441 311.255 328.703 311.517C328.964 311.779 328.079 314.175 326.734 316.843C323.104 324.046 322.759 327.046 324.621 335.232C326.17 342.042 326.398 342.434 327.76 340.633C329.187 338.748 329.091 330.708 327.534 321.692C327.248 320.04 328.078 321.341 329.381 324.588C330.681 327.831 331.963 330.081 332.23 329.588C332.854 328.432 331.538 313.31 330.586 310.692C329.991 309.057 330.251 309.149 332.012 311.192L334.166 313.692L333.78 303.192C333.263 289.125 332.945 288.64 323.703 287.803C319.62 287.433 312.972 286.213 308.928 285.093C303.946 283.712 299.906 283.219 296.394 283.564C292.217 283.974 290.779 283.697 288.975 282.132C287.745 281.065 285.312 280.192 283.57 280.192C280.81 280.192 279.494 281.292 273.362 288.721ZM82.6592 283.657C80.6062 286.79 80.5372 289.217 82.5752 286.633C84.0852 284.718 84.1022 284.719 83.8412 286.692C83.6962 287.792 84.0192 288.917 84.5602 289.192C85.1092 289.471 85.6802 287.813 85.8512 285.442C86.1982 280.652 85.0492 280.01 82.6592 283.657ZM121.656 282.723C120.506 283.873 120.247 285.666 120.616 289.922C121.26 297.337 122.019 297.929 122.14 291.109L122.236 285.692L123.45 290.692L124.664 295.692L125.153 291.942C125.758 287.303 125.106 281.192 124.006 281.192C123.555 281.192 122.498 281.881 121.656 282.723ZM581.651 284.299C580.623 287.552 580.114 297.117 580.941 297.628C581.928 298.238 583.621 284.435 582.675 283.49C582.354 283.168 581.893 283.533 581.651 284.299ZM602.044 284.918C602.044 285.408 602.732 286.683 603.573 287.751C605.054 289.631 605.094 289.615 604.823 287.27C604.566 285.036 602.044 282.901 602.044 284.918ZM105.651 287.774C104.558 290.623 105.077 291.733 106.576 289.751C107.383 288.683 108.044 287.446 108.044 287.001C108.044 285.569 106.278 286.14 105.651 287.774ZM114.398 287.657C113.248 288.462 112.023 288.912 111.675 288.657C111.328 288.401 111.253 288.476 111.509 288.823C111.764 289.171 111.552 290.242 111.038 291.204C110.362 292.466 110.614 293.543 111.94 295.072C114.501 298.025 116.044 297.716 116.044 294.251C116.044 292.633 116.494 291.032 117.044 290.692C118.217 289.967 118.404 286.192 117.267 286.192C116.839 286.192 115.548 286.851 114.398 287.657ZM334.472 291.192C336.824 301.666 337.214 305.669 336.687 313.942C336.193 321.689 336.337 323.192 337.571 323.192C338.381 323.192 339.044 323.642 339.044 324.192C339.044 326.669 341.282 324.806 342.947 320.942C346.45 312.813 349.303 307.117 349.681 307.496C349.891 307.705 348.305 311.66 346.157 316.284C341.963 325.315 340.033 331.935 341.937 330.758C343.119 330.027 343.654 337.191 343.146 346.942C342.845 352.719 343.888 353.7 345.782 349.421C346.642 347.478 346.727 345.61 346.064 343.171C345.544 341.257 345.292 338.792 345.505 337.692C345.717 336.592 345.925 335.355 345.967 334.942C346.161 333.043 348.044 334.456 348.044 336.501C348.044 337.771 348.682 339.683 349.463 340.75C350.818 342.603 350.911 342.556 351.545 339.691C351.91 338.041 352.622 335.387 353.127 333.793C355.028 327.784 353.305 307.694 350.736 305.911C349.957 305.371 350.207 305.19 351.455 305.388C353.72 305.748 355.858 311.015 355.968 316.501C356.068 321.525 357.748 320.349 358.602 314.656C359.539 308.404 361.346 307.679 360.649 313.835C360.151 318.227 360.191 318.357 361.061 315.192C361.59 313.267 361.862 308.992 361.664 305.692C361.466 302.392 361.501 300.712 361.742 301.959C361.983 303.206 362.545 304 362.992 303.724C363.438 303.449 363.832 306.317 363.868 310.099C363.928 316.521 365.676 324.355 368.35 330.192C369.397 332.476 369.544 332.174 370.053 326.692L370.611 320.692L371.406 324.692C371.842 326.892 372.454 329.367 372.765 330.192C373.076 331.017 373.283 333.042 373.225 334.692C373.147 336.921 373.486 336.408 374.546 332.692C376.603 325.482 377.585 302.039 376.123 295.038L374.942 289.385L367.993 288.687C364.17 288.303 354.938 288.147 347.477 288.34L333.911 288.692L334.472 291.192ZM562.552 291.154C562.195 292.783 562.37 294.92 562.943 295.904C563.77 297.326 563.989 296.72 564.014 292.942C564.048 287.519 563.499 286.846 562.552 291.154ZM376.506 290.787C376.943 291.835 377.521 293.705 377.789 294.942C378.058 296.179 378.695 297.192 379.206 297.192C379.739 297.192 380.077 303.047 379.999 310.942C379.924 318.505 380.289 326.042 380.81 327.692L381.758 330.692L383.538 327.043C385.269 323.495 385.256 323.143 383.058 314.249C381.815 309.22 381.008 304.895 381.264 304.638C381.52 304.382 382.712 307.552 383.912 311.682C385.112 315.813 386.42 319.17 386.819 319.143C388.013 319.061 392.014 310.276 391.484 308.897C390.568 306.51 395.239 307.559 396.911 310.117C398.241 312.149 398.544 315.439 398.544 327.818C398.544 343.216 399.304 349.136 399.832 337.847C399.99 334.462 400.648 328.767 401.295 325.192C401.942 321.617 402.485 316.573 402.501 313.983C402.531 309.317 402.544 309.299 403.933 311.983C404.704 313.473 405.694 314.928 406.134 315.217C406.573 315.505 407.368 317.678 407.9 320.044C409.013 324.999 409.828 326.159 410.937 324.366C412.001 322.644 413.272 324.387 415.04 329.992C416.693 335.23 418.243 336.54 417.407 331.992C416.819 328.793 416.852 328.753 418.493 330.692C420.121 332.616 420.16 332.541 419.515 328.692C419.147 326.492 418.705 321.042 418.532 316.581C418.148 306.656 414.896 299.205 409.789 296.553C405.416 294.281 390.033 290.392 382.127 289.558C376.079 288.921 375.757 288.991 376.506 290.787ZM543.233 293.692C543.259 294.792 543.624 297.042 544.044 298.692L544.807 301.692L544.855 298.692C544.882 297.042 544.517 294.792 544.044 293.692L543.185 291.692L543.233 293.692ZM141.794 298.764C141.382 299.183 141.044 300.763 141.044 302.275C141.044 303.788 140.526 305.198 139.894 305.409C139.262 305.62 138.964 306.445 139.233 307.242C139.92 309.281 143.255 302.641 142.855 300.029C142.684 298.914 142.206 298.345 141.794 298.764ZM173.61 304.574C173.938 307.259 174.627 310.409 175.14 311.574C175.8 313.07 175.9 312.258 175.478 308.81C175.15 306.125 174.461 302.975 173.948 301.81C173.288 300.314 173.188 301.126 173.61 304.574ZM263.035 300.942C263.03 301.355 260.747 304.354 257.962 307.609C254.123 312.094 253.055 314.029 253.547 315.609C253.904 316.754 254.549 319.042 254.98 320.692C255.883 324.148 256.798 322.74 257.255 317.192L257.544 313.692L259.232 318.692L260.921 323.692L261.098 314.692C261.196 309.742 261.482 306.48 261.733 307.442C262.62 310.834 264.044 309.138 264.044 304.692C264.044 302.217 263.819 300.192 263.544 300.192C263.269 300.192 263.04 300.529 263.035 300.942ZM419.695 307.084C422.532 312.514 423.404 315.49 423.806 321.11C424.087 325.033 424.705 328.483 425.18 328.776C425.655 329.07 426.051 328.721 426.059 328.001C426.071 327.036 426.272 327.002 426.825 327.873C427.378 328.741 428.183 328.595 429.87 327.323L432.164 325.593L429.604 317.966C425.987 307.19 426.472 306.392 430.989 315.692C433.126 320.092 434.912 323.402 434.959 323.047C435.006 322.693 434.117 319.4 432.983 315.73C431.85 312.06 431.139 308.525 431.404 307.875C431.669 307.224 431.922 307.48 431.965 308.442C432.008 309.404 432.466 310.192 432.981 310.192C433.814 310.192 433.51 304.767 432.49 301.442C432.225 300.578 429.634 300.192 424.101 300.192H416.095L419.695 307.084ZM566.794 306.769C566.381 307.185 566.044 308.44 566.044 309.559C566.044 311.03 566.346 311.29 567.138 310.498C567.739 309.897 568.077 308.641 567.888 307.709C567.699 306.776 567.207 306.353 566.794 306.769ZM152.256 311.091C150.571 315.818 150.752 317.275 152.588 313.756C153.43 312.141 153.972 310.116 153.793 309.256C153.603 308.342 152.964 309.105 152.256 311.091ZM393.079 309.942C393.099 310.355 393.805 311.817 394.649 313.192C395.492 314.567 395.926 314.868 395.613 313.86C395.3 312.853 395.044 311.39 395.044 310.61C395.044 309.83 394.594 309.192 394.044 309.192C393.494 309.192 393.06 309.529 393.079 309.942ZM296.02 316.442C296.006 318.23 295.557 321.591 295.021 323.912C294.244 327.281 294.387 328.843 295.731 331.662C298.044 336.513 298.989 336.083 298.413 330.442C298.147 327.83 297.984 322.88 298.051 319.442C298.127 315.61 297.762 313.192 297.109 313.192C296.523 313.192 296.033 314.654 296.02 316.442ZM317.804 314.692C316.222 319.614 317.093 329.192 319.123 329.192C320.191 329.192 320.213 323.663 319.172 317.192C318.636 313.864 318.28 313.213 317.804 314.692ZM390.205 315.739C388.827 318.763 388.666 322.544 389.949 321.751C390.457 321.437 390.648 322.838 390.386 324.942C390.097 327.258 390.679 330.795 391.908 334.192L393.898 339.692L393.971 329.567C394.078 314.691 392.808 310.026 390.205 315.739ZM166.596 319.753C165.673 321.162 165.136 322.849 165.402 323.503C165.668 324.157 165.922 323.904 165.965 322.942C166.008 321.98 166.719 321.192 167.544 321.192C168.377 321.192 169.044 320.303 169.044 319.192C169.044 316.57 168.617 316.668 166.596 319.753ZM247.794 319.434C245.837 322.439 245.328 329.753 247.154 328.624C247.825 328.209 248.034 326.503 247.683 324.315C247.298 321.919 247.411 321.19 248.018 322.163C249.307 324.23 250.255 322.897 249.869 319.56L249.544 316.746L247.794 319.434ZM403.344 324.192C403.344 327.217 403.531 328.455 403.76 326.942C403.989 325.429 403.989 322.955 403.76 321.442C403.531 319.929 403.344 321.167 403.344 324.192ZM253.316 324.192C253.316 326.667 253.511 327.679 253.75 326.442C253.988 325.205 253.988 323.179 253.75 321.942C253.511 320.705 253.316 321.717 253.316 324.192ZM358.805 323.692C358.399 325.892 358.106 329.267 358.155 331.192L358.245 334.692L359.185 330.692C359.703 328.492 359.995 325.117 359.835 323.192L359.544 319.692L358.805 323.692ZM336.044 329.133C336.044 331.915 336.494 334.192 337.044 334.192C337.594 334.192 338.044 332.194 338.044 329.751C338.044 327.308 337.594 325.032 337.044 324.692C336.428 324.311 336.044 326.015 336.044 329.133ZM410.089 328.442C410.114 329.679 410.752 332.042 411.508 333.692L412.882 336.692L412.949 333.692C413.036 329.83 412.056 326.192 410.927 326.192C410.442 326.192 410.064 327.205 410.089 328.442ZM241.678 333.014C241.225 334.84 241.122 336.603 241.449 336.93C242.579 338.06 243.184 336.373 242.844 333.038L242.503 329.692L241.678 333.014ZM382.715 331.607C382.416 332.386 382.554 334.298 383.022 335.857C383.81 338.485 383.878 338.381 383.958 334.442C384.047 330.05 383.655 329.157 382.715 331.607ZM309.256 333.224C307.844 335.486 307.643 339.192 308.933 339.192C309.802 339.192 311.516 332.331 310.821 331.635C310.627 331.442 309.923 332.156 309.256 333.224ZM428.059 332.442C428.068 333.13 428.511 334.367 429.044 335.192C429.799 336.361 430.017 336.085 430.029 333.942C430.037 332.429 429.594 331.192 429.044 331.192C428.494 331.192 428.051 331.755 428.059 332.442ZM363.316 341.192C363.316 343.667 363.511 344.679 363.75 343.442C363.988 342.205 363.988 340.179 363.75 338.942C363.511 337.705 363.316 338.717 363.316 341.192ZM316.059 343.942C316.051 345.73 316.494 347.192 317.044 347.192C318.314 347.192 318.314 344.157 317.044 342.192C316.308 341.054 316.071 341.476 316.059 343.942Z" fill="#131010"/>
</svg>
