<svg width="476" height="324" viewBox="0 0 476 324" fill="none" xmlns="http://www.w3.org/2000/svg">
<path d="M133.576 142.418C133.617 143.676 133.658 144.934 133.701 146.23C134.818 155.978 141.29 165.087 148.576 171.418C151.283 172.914 153.542 173.609 156.576 174.418C157.245 174.597 157.914 174.776 158.603 174.961C169.182 177.412 181.153 173.321 190.138 167.793C195.612 163.868 198.733 159.463 201.576 153.418C201.906 152.758 202.236 152.098 202.576 151.418C203.236 151.418 203.896 151.418 204.576 151.418C205.775 153.151 206.975 154.885 208.169 156.621C210.23 159.255 212.738 160.672 215.576 162.418C221.756 166.931 227.421 171.887 232.951 177.168C233.69 177.868 234.43 178.567 235.192 179.288C239.302 183.191 243.314 187.165 247.263 191.23C251.126 195.146 255.164 198.572 259.513 201.918C279.266 217.156 279.266 217.156 284.576 229.418C284.955 230.246 285.333 231.073 285.724 231.926C286.631 234.579 286.735 236.635 286.576 239.418C293.697 238.508 300.124 237.644 306.576 234.418C308.061 233.923 308.061 233.923 309.576 233.418C309.893 234.094 310.211 234.77 310.538 235.466C311.983 238.535 313.435 241.602 314.888 244.668C315.388 245.731 315.887 246.795 316.402 247.891C317.132 249.428 317.132 249.428 317.876 250.996C318.321 251.939 318.767 252.881 319.225 253.853C320.5 256.441 320.5 256.441 322.244 258.632C323.576 260.418 323.576 260.418 323.576 262.418C329.561 262.03 333.305 259.303 338.076 255.98C338.869 255.44 339.662 254.899 340.479 254.342C345.861 250.657 351.183 246.887 356.465 243.06C359.912 240.571 363.41 238.194 366.973 235.875C375.837 230.101 384.194 223.74 392.418 217.088C394.576 215.418 394.576 215.418 396.834 213.962C404.507 208.805 407.731 201.558 411.576 193.418C416.253 193.318 420.929 193.246 425.608 193.198C427.195 193.178 428.783 193.151 430.37 193.116C447.198 192.756 447.198 192.756 454.576 197.418C455.188 197.774 455.8 198.129 456.431 198.496C458.138 199.543 458.138 199.543 460.576 201.418C460.576 203.418 460.576 203.418 459.236 204.77C458.688 205.314 458.14 205.858 457.576 206.418C456.672 207.845 455.821 209.305 455.009 210.785C454.528 211.66 454.047 212.535 453.551 213.436C451.41 217.414 449.283 221.399 447.179 225.396C446.148 227.34 445.102 229.276 444.039 231.202C434.542 248.413 434.394 260.644 437.126 279.773C437.835 285.906 437.766 292.065 437.763 298.23C437.764 299.364 437.764 300.497 437.765 301.664C437.72 308.692 437.218 315.356 436.576 322.418C392.026 322.418 347.476 322.418 301.576 322.418C300.916 311.528 300.256 300.638 299.576 289.418C294.224 285.837 294.224 285.837 288.576 283.418C288.864 285.981 289.156 288.543 289.451 291.105C289.539 291.877 289.628 292.648 289.72 293.443C290.384 299.091 291.219 304.692 292.208 310.293C292.68 314.309 292.576 318.374 292.576 322.418C199.846 322.418 107.116 322.418 11.5755 322.418C11.5755 321.758 11.5755 321.098 11.5755 320.418C10.833 320.356 10.0905 320.294 9.32553 320.23C5.66821 319.15 4.65027 317.566 2.57553 314.418C0.336262 310.007 0.207911 305.735 0.134122 300.883C0.11754 300.056 0.100958 299.228 0.0838744 298.376C0.0417589 295.702 0.022888 293.03 0.0130278 290.355C0.00873768 289.448 0.00444752 288.541 2.7347e-05 287.606C-0.00546461 274.572 0.811622 263.281 6.62631 251.398C7.89473 248.752 8.91917 246.034 9.96029 243.292C12.1688 237.514 14.6609 231.865 17.3021 226.273C18.4161 223.775 19.4105 221.269 20.3958 218.719C22.5093 213.403 25.0564 208.418 27.8255 203.418C28.3086 202.544 28.7917 201.671 29.2894 200.771C32.8414 194.469 36.6518 188.745 41.5755 183.418C42.1118 182.791 42.648 182.165 43.2005 181.52C51.1937 172.719 61.5976 168.816 72.7044 165.594C77.0807 164.309 81.1953 162.552 85.3763 160.738C89.9941 158.833 94.7045 157.221 99.4232 155.585C104.114 153.953 108.717 152.181 113.306 150.281C115.782 149.339 118.273 148.625 120.826 147.918C124.951 146.744 129.679 142.418 133.576 142.418Z" fill="#070609"/>
<path d="M308.574 114.418C310.324 114.752 312.074 115.086 313.824 115.418C317.661 116.441 318.011 116.842 320.574 119.418C322.543 120.263 322.543 120.263 324.637 120.856C328.421 122.166 328.421 122.166 329.824 124.481C330.072 125.12 330.319 125.76 330.574 126.418C332.407 127.544 332.407 127.544 334.574 128.418C337.694 130.168 340.061 131.906 342.574 134.418C344.059 134.913 344.059 134.913 345.574 135.418C346.241 136.752 346.907 138.085 347.574 139.418C349.059 139.913 349.059 139.913 350.574 140.418C353.574 144.752 353.574 144.752 353.574 147.418C354.131 147.48 354.688 147.542 355.262 147.606C358.525 148.752 360.215 150.938 362.574 153.418C363.564 154.078 364.554 154.738 365.574 155.418C368.221 160.156 369.185 165.025 368.574 170.418C367.262 173.293 367.262 173.293 365.574 175.418C364.584 175.748 363.594 176.078 362.574 176.418C361.841 178.433 361.841 178.433 361.574 180.418C375.467 193.198 392.668 192.472 410.574 193.418C408.15 206.202 400.467 212.681 390.465 220.027C388.742 221.294 387.043 222.586 385.351 223.895C379.532 228.357 373.551 232.503 367.426 236.532C364.863 238.227 362.337 239.962 359.824 241.731C353.413 246.243 346.969 250.707 340.487 255.116C339.27 255.944 338.056 256.776 336.845 257.612C335.347 258.643 333.836 259.657 332.324 260.668C331.494 261.23 330.664 261.792 329.808 262.371C327.574 263.418 327.574 263.418 325.519 263.481C322.496 261.829 321.268 259.112 319.699 256.168C319.357 255.547 319.015 254.926 318.662 254.287C309.574 237.558 309.574 237.558 309.574 233.418C309.038 233.872 308.502 234.326 307.949 234.793C303.218 238.03 298.329 238.699 292.699 239.043C290.97 239.156 290.97 239.156 289.207 239.27C288.338 239.319 287.469 239.368 286.574 239.418C286.371 238.544 286.371 238.544 286.164 237.653C281.775 220.939 271.13 211.737 258.027 201.395C250.62 195.427 243.831 188.823 237.211 182.006C234.361 179.092 231.613 176.674 228.199 174.418C225.054 170.823 225.233 169.913 225.512 165.293C225.828 162.996 226.183 160.704 226.574 158.418C226.729 157.294 226.883 156.17 227.043 155.012C228.216 146.955 228.216 146.955 230.574 143.418C231.234 143.418 231.894 143.418 232.574 143.418C232.677 142.779 232.78 142.14 232.887 141.481C233.113 140.8 233.34 140.12 233.574 139.418C234.564 139.088 235.554 138.758 236.574 138.418C236.931 137.091 237.257 135.756 237.574 134.418C238.817 132.024 240.192 129.737 241.574 127.418C242.894 127.418 244.214 127.418 245.574 127.418C245.574 126.098 245.574 124.778 245.574 123.418C247.894 122.057 250.225 120.728 252.574 119.418C253.311 118.998 254.049 118.578 254.808 118.145C271.872 108.944 290.301 110.04 308.574 114.418Z" fill="#F9F1C9"/>
<path d="M184.576 14.418C184.927 15.5111 185.277 16.6043 185.638 17.7305C187.056 21.0558 187.546 21.4013 190.951 23.293C197.42 25.3007 205.399 27.2485 211.885 24.4063C212.722 23.9171 212.722 23.9171 213.576 23.418C214.851 24.9773 216.121 26.5406 217.388 28.1055C218.096 28.9756 218.804 29.8457 219.533 30.7422C224.844 37.6977 225.7 43.4165 225.709 52.1211C225.71 53.3483 225.711 54.5755 225.713 55.8399C225.709 57.1032 225.705 58.3665 225.701 59.668C225.705 60.9468 225.709 62.2255 225.713 63.543C225.711 64.765 225.71 65.9871 225.709 67.2461C225.708 68.3589 225.707 69.4717 225.705 70.6182C225.576 73.418 225.576 73.418 224.576 76.418C224.509 77.8124 224.491 79.2097 224.513 80.6055C224.534 81.8636 224.555 83.1218 224.576 84.418C224.906 83.758 225.236 83.098 225.576 82.418C227.576 82.3755 229.576 82.3772 231.576 82.418C232.576 83.418 232.576 83.418 232.631 85.1758C231.829 95.735 229.047 106.669 221.576 114.418C220.091 114.913 220.091 114.913 218.576 115.418C217.472 117.239 217.472 117.239 216.638 119.481C215.442 122.427 214.153 125.258 212.689 128.078C210.283 132.838 208.52 137.786 206.701 142.793C201.283 157.203 196.339 165.893 182.013 172.731C172.395 176.676 163.006 177.787 153.033 174.523C146.207 171.452 141.424 165.677 137.576 159.418C137.183 158.86 136.79 158.302 136.385 157.727C130.242 147.817 133.766 134.404 135.501 123.577C136.926 114.18 136.851 104.897 136.576 95.418C134.926 95.418 133.276 95.418 131.576 95.418C127.008 89.1376 127.095 84.015 127.576 76.418C127.631 75.3906 127.687 74.3632 127.744 73.3047C128.265 65.8848 128.265 65.8848 130.576 62.418C133.013 61.9805 133.013 61.9805 135.576 62.418C139.319 65.6261 139.19 69.7848 139.576 74.418C140.236 74.418 140.896 74.418 141.576 74.418C141.705 73.5479 141.834 72.6778 141.967 71.7813C142.543 68.6017 143.343 65.6803 144.326 62.6055C145.526 58.8231 146.693 55.0423 147.74 51.2149C151.214 38.5948 154.769 25.6949 166.576 18.418C172.458 15.9621 178.157 14.1327 184.576 14.418Z" fill="#F9EEC4"/>
<path d="M308.574 114.418C310.324 114.752 312.074 115.086 313.824 115.418C317.661 116.441 318.011 116.842 320.574 119.418C322.543 120.263 322.543 120.263 324.637 120.856C328.421 122.166 328.421 122.166 329.824 124.481C330.072 125.12 330.319 125.76 330.574 126.418C332.407 127.544 332.407 127.544 334.574 128.418C337.694 130.168 340.061 131.906 342.574 134.418C344.059 134.913 344.059 134.913 345.574 135.418C346.241 136.752 346.907 138.085 347.574 139.418C349.059 139.913 349.059 139.913 350.574 140.418C353.574 144.752 353.574 144.752 353.574 147.418C354.131 147.48 354.688 147.542 355.262 147.606C358.525 148.752 360.215 150.938 362.574 153.418C363.564 154.078 364.554 154.738 365.574 155.418C368.221 160.156 369.185 165.025 368.574 170.418C367.262 173.293 367.262 173.293 365.574 175.418C364.584 175.748 363.594 176.078 362.574 176.418C361.646 177.594 361.646 177.594 360.699 178.793C358.458 181.562 356.625 182.645 353.574 184.418C351.182 186.352 348.871 188.373 346.574 190.418C346.41 189.548 346.41 189.548 346.242 188.661C343.352 174.422 334.602 167.14 323.574 158.418C322.747 157.713 321.919 157.008 321.066 156.282C313.114 149.569 304.27 143.613 293.574 143.418C292.089 143.913 292.089 143.913 290.574 144.418C290.574 145.078 290.574 145.738 290.574 146.418C289.914 146.418 289.254 146.418 288.574 146.418C288.285 146.996 287.997 147.573 287.699 148.168C286.657 150.252 285.616 152.335 284.574 154.418C283.914 154.418 283.254 154.418 282.574 154.418C282.341 155.09 282.107 155.762 281.867 156.454C280.237 160.191 278.101 163.443 275.887 166.856C272.528 172.146 269.313 177.467 266.449 183.043C265.89 184.129 265.33 185.214 264.754 186.332C263.485 189.65 263.143 191.9 263.574 195.418C265.993 197.687 265.993 197.687 268.574 199.418C268.574 200.078 268.574 200.738 268.574 201.418C269.337 201.521 270.1 201.625 270.887 201.731C273.905 202.503 274.442 203.281 276.574 205.418C290.227 213.826 307.739 217.498 323.574 218.418C323.574 219.078 323.574 219.738 323.574 220.418C322.914 220.418 322.254 220.418 321.574 220.418C321.079 221.903 321.079 221.903 320.574 223.418C312.767 232.233 304.671 238.31 292.699 239.043C290.97 239.156 290.97 239.156 289.207 239.27C288.338 239.319 287.469 239.368 286.574 239.418C286.371 238.544 286.371 238.544 286.164 237.653C281.775 220.939 271.13 211.737 258.027 201.395C250.62 195.427 243.831 188.823 237.211 182.006C234.361 179.092 231.613 176.674 228.199 174.418C225.054 170.823 225.233 169.913 225.512 165.293C225.828 162.996 226.183 160.704 226.574 158.418C226.729 157.294 226.883 156.17 227.043 155.012C228.216 146.955 228.216 146.955 230.574 143.418C231.234 143.418 231.894 143.418 232.574 143.418C232.677 142.779 232.78 142.14 232.887 141.481C233.113 140.8 233.34 140.12 233.574 139.418C234.564 139.088 235.554 138.758 236.574 138.418C236.931 137.091 237.257 135.756 237.574 134.418C238.817 132.024 240.192 129.737 241.574 127.418C242.894 127.418 244.214 127.418 245.574 127.418C245.574 126.098 245.574 124.778 245.574 123.418C247.894 122.057 250.225 120.728 252.574 119.418C253.311 118.998 254.049 118.578 254.808 118.145C271.872 108.944 290.301 110.04 308.574 114.418Z" fill="#FCA2DF"/>
<path d="M458.573 203.418C462.359 203.959 464.127 205.535 466.573 208.418C466.573 209.078 466.573 209.738 466.573 210.418C467.233 210.418 467.893 210.418 468.573 210.418C470.481 218.073 472.057 225.536 472.573 233.418C471.893 233.418 473.233 233.418 472.573 233.418C473.979 236.229 472.782 239.623 474.5 241.918C474.503 242.564 474.497 244.253 474.5 244.918C474.51 247.062 474.5 248.418 475.741 250.102C474.5 251.418 475.748 253.092 475.751 254.588C475.757 257.731 475.759 260.874 475.759 264.017C475.758 268.018 475.772 272.019 475.789 276.02C475.801 279.115 475.802 282.209 475.802 285.304C475.803 286.777 475.807 288.25 475.815 289.723C475.917 310.903 475.917 310.903 471.573 317.418C470.913 317.418 470.253 317.418 469.573 317.418C469.573 318.078 469.573 318.738 469.573 319.418C462.431 322.715 455.869 322.956 448.073 323.105C446.869 323.14 445.665 323.174 444.425 323.209C441.474 323.291 438.524 323.36 435.573 323.418C435.643 322.705 435.713 321.993 435.785 321.259C436.492 313.549 436.765 305.908 436.761 298.168C436.761 296.981 436.762 295.795 436.763 294.572C436.725 288.262 436.465 282.164 435.573 275.918C433.361 260.32 433.404 248.696 441.237 234.792C442.742 232.118 444.19 229.417 445.636 226.711C449.839 218.884 454.143 211.118 458.573 203.418Z" fill="#F9F0C9"/>
<path d="M190.262 0.0424805C190.975 0.0284619 191.688 0.0144434 192.423 0C197.488 0.0459174 201.036 1.16926 205.574 3.41748C205.574 4.07748 205.574 4.73748 205.574 5.41748C206.3 5.66627 207.026 5.91506 207.773 6.17139C218.32 10.8635 226.734 22.428 231.012 32.855C231.566 34.3639 232.091 35.8844 232.574 37.4175C232.838 38.2239 232.838 38.2239 233.107 39.0466C233.794 42.5312 233.737 46.0047 233.742 49.5425C233.747 50.7183 233.747 50.7183 233.752 51.918C233.757 53.5721 233.76 55.2262 233.76 56.8804C233.762 59.4085 233.78 61.9363 233.799 64.4644C233.802 66.0737 233.804 67.6831 233.805 69.2925C233.812 70.0467 233.819 70.801 233.826 71.5781C233.796 78.5215 233.796 78.5215 231.574 81.4175C228.449 82.1675 228.449 82.1675 225.574 82.4175C225.079 83.9025 225.079 83.9025 224.574 85.4175C224.244 85.4175 223.914 85.4175 223.574 85.4175C223.547 83.9801 223.528 82.5425 223.512 81.105C223.5 80.3045 223.489 79.504 223.477 78.6792C223.574 76.4175 223.574 76.4175 224.574 73.4175C224.812 68.8797 224.759 64.3358 224.762 59.7925C224.774 58.546 224.786 57.2994 224.799 56.0151C225.041 43.2578 225.041 43.2578 219.637 32.105C219.133 31.4901 218.629 30.8752 218.109 30.2417C217.603 29.6397 217.096 29.0377 216.574 28.4175C215.567 27.0895 214.565 25.7575 213.574 24.4175C212.727 24.9028 212.727 24.9028 211.863 25.3979C205.539 28.2147 198.023 26.4461 191.711 24.3354C188.95 23.1493 187.295 21.8865 185.574 19.4175C185.207 18.093 184.869 16.76 184.574 15.4175C175.273 15.8059 167.129 18.001 160.191 24.5073C153.121 32.8582 150.828 43.863 148.031 54.1675C146.165 61.0165 143.902 67.713 141.574 74.4175C140.914 74.4175 140.254 74.4175 139.574 74.4175C139.416 73.7188 139.257 73.0201 139.094 72.3003C137.886 66.5946 137.886 66.5946 133.887 62.7925C132.742 62.6069 132.742 62.6069 131.574 62.4175C133.038 49.5378 136.553 37.2112 144.082 26.5737C145.493 24.5343 146.68 22.4565 147.887 20.2925C154.214 10.2012 167.49 3.93482 178.668 0.88623C182.541 0.261556 186.343 0.0955362 190.262 0.0424805Z" fill="#4B371D"/>
<path d="M137.574 180.418C138.515 180.984 139.456 181.55 140.426 182.133C141.683 182.874 142.941 183.615 144.199 184.355C144.817 184.729 145.434 185.102 146.07 185.486C154.628 190.486 164.958 190.671 174.512 188.418C175.515 188.14 175.515 188.14 176.539 187.855C178.924 187.343 181.142 187.35 183.574 187.418C181.453 193.018 179.105 198.457 176.512 203.855C169.227 219.198 162.603 235.1 157.588 251.335C156.332 255.364 154.831 259.189 153.148 263.062C150.376 269.615 148.525 276.285 146.762 283.168C146.45 284.354 146.139 285.54 145.818 286.762C145.063 289.645 144.315 292.531 143.574 295.418C142.914 295.418 142.254 295.418 141.574 295.418C141.566 294.636 141.558 293.853 141.55 293.047C141.471 285.577 141.383 278.108 141.287 270.638C141.237 266.801 141.191 262.963 141.152 259.125C140.997 243.901 140.815 228.8 139.038 213.661C138.265 207.015 138.119 200.353 137.949 193.668C137.911 192.375 137.872 191.082 137.832 189.75C137.74 186.639 137.654 183.529 137.574 180.418Z" fill="#F7FA64"/>
<path d="M288.576 283.418C293.554 284.589 296.915 285.609 300.576 289.418C301.129 292.193 301.366 294.386 301.388 297.168C301.413 297.907 301.437 298.646 301.462 299.408C301.53 301.745 301.558 304.08 301.576 306.418C301.584 307.196 301.593 307.974 301.601 308.776C301.643 313.324 301.631 317.87 301.576 322.418C298.606 322.418 295.636 322.418 292.576 322.418C291.894 318.17 291.233 313.92 290.576 309.668C290.385 308.481 290.194 307.294 289.998 306.07C288.832 298.453 288.321 291.122 288.576 283.418Z" fill="#F0EAC8"/>
<path d="M301.574 141.418C304.272 142.349 306.914 143.381 309.574 144.418C310.903 144.77 312.235 145.108 313.574 145.418C313.574 146.078 313.574 146.738 313.574 147.418C314.564 147.748 315.554 148.078 316.574 148.418C318.264 150.061 319.926 151.733 321.574 153.418C325.248 156.835 329.013 159.746 333.262 162.418C337.943 165.465 340.608 168.358 342.324 173.793C342.407 174.33 342.489 174.866 342.574 175.418C341.646 174.459 341.646 174.459 340.699 173.481C320.195 152.586 320.195 152.586 293.574 143.418C292.584 143.748 291.594 144.078 290.574 144.418C290.574 145.078 290.574 145.738 290.574 146.418C289.914 146.418 289.254 146.418 288.574 146.418C287.914 147.738 287.254 149.058 286.574 150.418C286.244 149.758 285.914 149.098 285.574 148.418C286.214 147.655 286.853 146.892 287.512 146.106C289.717 143.536 289.717 143.536 290.574 140.418C294.098 138.657 297.911 140.408 301.574 141.418Z" fill="#EFA9CE"/>
<path d="M130.576 62.418C131.896 62.748 133.216 63.078 134.576 63.418C133.256 63.748 131.936 64.078 130.576 64.418C130.517 67.7512 130.482 71.0843 130.451 74.418C130.434 75.3525 130.417 76.2871 130.4 77.25C130.36 83.0101 130.922 87.8954 132.576 93.418C134.226 93.748 135.876 94.078 137.576 94.418C137.576 99.368 137.576 104.318 137.576 109.418C137.246 109.418 136.916 109.418 136.576 109.418C136.576 104.798 136.576 100.178 136.576 95.418C134.926 95.418 133.276 95.418 131.576 95.418C127.008 89.1375 127.095 84.0149 127.576 76.418C127.631 75.3906 127.687 74.3632 127.744 73.3047C128.265 65.8847 128.265 65.8847 130.576 62.418Z" fill="#F9EEC4"/>
<path d="M255.574 122.359C253.093 123 250.611 123.641 248.054 124.301V132.065H240.532C240.377 133.066 240.222 134.067 240.063 135.098C238.048 141.857 234.637 147.346 231.131 153.418C228.836 147.817 229.218 145.744 231.366 139.951C236.416 131.435 242.411 123.765 251.814 120.418C253.055 121.059 254.296 121.699 255.574 122.359Z" fill="#FCA2DF"/>
<path d="M362.574 174.418C361.824 176.855 361.824 176.855 360.574 179.418C358.449 180.23 358.449 180.23 356.574 180.418C356.949 177.98 356.949 177.98 357.574 175.418C359.574 174.418 359.574 174.418 362.574 174.418Z" fill="#FCA2DF"/>
<path d="M330.574 161.418C334.039 163.398 334.039 163.398 337.574 165.418C336.584 166.078 335.594 166.738 334.574 167.418C332.924 165.768 331.274 164.118 329.574 162.418C329.904 162.088 330.234 161.758 330.574 161.418Z" fill="#F7A6D3"/>
</svg>
