<svg width="65" height="155" viewBox="0 0 65 155" fill="none" xmlns="http://www.w3.org/2000/svg">
<path d="M30.4039 0C30.4039 0.66 30.4039 1.32 30.4039 2C31.3939 2.33 32.3839 2.66 33.4039 3C34.3939 8.28 35.3839 13.56 36.4039 19C38.3839 19.33 40.3639 19.66 42.4039 20C42.4039 20.99 42.4039 21.98 42.4039 23C43.332 22.9381 44.2602 22.8762 45.2164 22.8125C48.4039 23 48.4039 23 50.2789 24.3125C51.4039 26 51.4039 26 51.4039 29C52.0639 29 52.7239 29 53.4039 29C53.8989 31.475 53.8989 31.475 54.4039 34C55.0639 34 55.7239 34 56.4039 34C56.4039 34.99 56.4039 35.98 56.4039 37C57.0639 37 57.7239 37 58.4039 37C58.4039 37.99 58.4039 38.98 58.4039 40C59.0639 40 59.7239 40 60.4039 40C66.366 51.9241 64.7507 69.0904 64.4039 82C62.7539 82 61.1039 82 59.4039 82C58.0258 79.2438 58.4247 76.9074 58.5641 73.875C58.5856 71.7521 58.5856 71.7521 56.4039 70C53.8529 64.7916 52.499 59.6817 51.4039 54C50.7439 54 50.0839 54 49.4039 54C49.5666 54.5427 49.7292 55.0854 49.8968 55.6446C50.4872 58.3868 50.5236 60.8805 50.5174 63.6865C50.5174 64.8274 50.5173 65.9683 50.5172 67.1437C50.512 68.3699 50.5069 69.5961 50.5016 70.8594C50.5001 72.1189 50.4987 73.3784 50.4973 74.6761C50.4926 78.0167 50.4836 81.3571 50.4726 84.6977C50.4623 88.1097 50.4578 91.5216 50.4527 94.9336C50.4417 101.622 50.425 108.311 50.4039 115C49.4139 115.495 49.4139 115.495 48.4039 116C47.935 117.817 47.935 117.817 47.7711 120.016C47.6873 120.849 47.6035 121.682 47.5172 122.541C47.4385 123.435 47.3599 124.329 47.2789 125.25C47.1925 126.154 47.1062 127.059 47.0172 127.99C46.4613 134.189 46.267 140.248 46.5289 146.469C46.3956 149.168 45.7884 150.707 44.4039 153C40.4039 153 40.4039 153 38.7242 151.891C36.8793 149.249 36.686 146.933 36.2789 143.75C36.0469 141.998 36.0469 141.998 35.8102 140.211C35.6761 139.151 35.542 138.092 35.4039 137C35.1977 135.804 34.9914 134.607 34.7789 133.375C34.3312 129.345 34.377 125.405 34.4664 121.355C34.5696 118.979 34.5696 118.979 33.4039 117C33.4039 127.56 33.4039 138.12 33.4039 149C32.4139 149 31.4239 149 30.4039 149C30.4039 150.98 30.4039 152.96 30.4039 155C27.1039 155 23.8039 155 20.4039 155C19.5942 152.085 19.1854 150.539 20.3414 147.688C20.692 147.131 21.0426 146.574 21.4039 146C20.7439 146 20.0839 146 19.4039 146C18.3792 135.643 18.2989 125.397 18.4039 115C17.4139 115 16.4239 115 15.4039 115C14.6236 110.886 14.2947 107.036 14.3414 102.852C14.3498 101.688 14.3582 100.524 14.3668 99.3252C14.379 98.1041 14.3913 96.8831 14.4039 95.625C14.4622 85.3651 14.2929 75.2233 13.4039 65C12.7439 65 12.0839 65 11.4039 65C11.4451 65.7425 11.4864 66.485 11.5289 67.25C11.4039 70 11.4039 70 10.4039 71.75C9.03661 74.8264 9.21192 77.4009 9.2789 80.75C9.30597 82.5057 9.30597 82.5057 9.33359 84.2969C9.35679 85.1889 9.37999 86.0809 9.4039 87C8.4139 87.495 8.4139 87.495 7.4039 88C7.0739 88.99 6.7439 89.98 6.4039 91C5.4139 90.67 4.4239 90.34 3.4039 90C3.4039 89.01 3.4039 88.02 3.4039 87C2.7439 87 2.0839 87 1.4039 87C0.670906 77.8638 0.240386 68.7267 0.0913989 59.5625C0.0617504 58.6523 0.032102 57.742 0.00155511 56.8042C-0.0556742 50.2717 1.46767 45.7744 4.4039 40C4.99912 38.3867 5.57199 36.7643 6.0914 35.125C6.32214 34.4057 6.55288 33.6864 6.79062 32.9453C6.993 32.3034 7.19538 31.6614 7.4039 31C7.7339 30.01 8.0639 29.02 8.4039 28C11.2995 26.5522 13.1458 26 16.4039 26C16.4039 25.34 16.4039 24.68 16.4039 24C17.3939 23.34 18.3839 22.68 19.4039 22C20.8858 17.3262 20.0635 13.7248 18.7789 9.14844C18.351 6.697 18.471 5.30305 19.4039 3C22.9894 0.609634 26.1124 0 30.4039 0Z" fill="#24252A"/>
</svg>
