<?xml version="1.0" standalone="no"?>
<!DOCTYPE svg PUBLIC "-//W3C//DTD SVG 20010904//EN"
 "http://www.w3.org/TR/2001/REC-SVG-20010904/DTD/svg10.dtd">
<svg version="1.0" xmlns="http://www.w3.org/2000/svg"
 width="1280.000000pt" height="1220.000000pt" viewBox="0 0 1280.000000 1220.000000"
 preserveAspectRatio="xMidYMid meet">
<metadata>
Created by potrace 1.15, written by Peter Selinger 2001-2017
</metadata>
<g transform="translate(0.000000,1220.000000) scale(0.100000,-0.100000)"
fill="#000000" stroke="none">
<path d="M6125 12189 c-316 -28 -764 -143 -1012 -260 -218 -104 -415 -279
-562 -498 -180 -270 -374 -749 -522 -1286 -95 -347 -180 -745 -328 -1535 -240
-1278 -393 -1818 -664 -2350 -43 -85 -92 -197 -107 -248 -98 -314 -382 -1446
-414 -1650 -79 -499 -156 -1133 -267 -2197 l-41 -400 -39 -80 c-106 -219 -293
-375 -524 -436 -118 -32 -343 -31 -435 0 -195 67 -329 188 -435 393 -69 133
-126 306 -199 600 -31 125 -67 257 -80 293 -57 150 -171 255 -278 255 -44 0
-117 -31 -143 -61 -60 -73 -89 -281 -66 -488 52 -479 271 -971 571 -1284 198
-207 405 -326 648 -373 85 -16 283 -19 392 -5 41 6 128 15 192 21 183 17 328
55 757 195 162 52 184 57 295 62 324 15 714 -77 1461 -345 509 -183 727 -256
944 -317 280 -78 486 -118 710 -135 69 -6 164 -20 211 -32 124 -32 371 -32
483 0 99 28 167 63 211 107 59 59 71 89 71 188 l0 87 28 0 c15 0 137 -5 270
-11 393 -17 656 8 787 73 51 26 69 41 84 71 17 37 17 40 1 83 -35 91 -140 160
-286 189 -41 8 -171 19 -289 25 -118 6 -239 13 -268 16 l-52 5 2 432 c2 319
-1 463 -11 552 -17 150 -18 880 -2 1205 80 1565 344 2522 753 2731 31 16 39
17 44 6 2 -7 -13 -83 -36 -168 -22 -85 -40 -159 -40 -164 0 -15 191 -55 196
-41 2 6 19 71 38 144 19 74 36 136 38 138 2 2 35 -19 74 -47 146 -107 189
-114 282 -44 112 84 125 137 77 305 -31 107 -36 209 -15 303 11 46 17 57 29
53 142 -47 244 -58 325 -34 61 18 147 108 175 183 45 119 47 151 17 241 -30
92 -138 316 -220 456 -31 54 -56 102 -56 107 0 6 51 65 113 133 244 265 601
560 997 828 l153 102 -41 -54 c-147 -194 -168 -489 -52 -737 70 -150 171 -255
309 -324 l84 -42 121 0 c118 0 124 1 190 34 260 128 368 491 243 821 l-24 65
91 0 c50 0 116 4 146 8 l55 8 0 -108 c1 -185 56 -314 190 -449 66 -67 97 -89
175 -127 284 -139 614 -84 835 138 134 134 194 264 203 436 19 391 -306 706
-710 687 -57 -2 -77 0 -74 9 3 6 8 27 11 45 l6 34 72 -19 c105 -27 275 -20
375 16 248 87 415 298 429 542 14 222 -112 433 -317 534 -93 45 -193 71 -282
71 -148 0 -319 -62 -434 -158 -52 -43 -152 -171 -166 -212 -3 -9 -23 -2 -61
20 -31 17 -57 34 -57 36 0 3 11 26 24 53 63 124 80 314 39 446 -125 401 -598
504 -903 196 -85 -86 -129 -156 -168 -263 -24 -66 -27 -86 -27 -213 1 -155 11
-194 78 -306 l33 -56 -58 -62 c-33 -35 -60 -61 -62 -59 -80 114 -106 146 -149
180 -78 62 -179 106 -273 119 -155 22 -314 -32 -428 -145 -177 -175 -215 -450
-94 -679 103 -193 337 -317 543 -288 33 5 61 8 62 7 2 -2 -75 -55 -170 -118
-394 -265 -651 -472 -945 -763 l-203 -201 -53 75 c-29 42 -74 108 -101 146
-27 39 -92 122 -146 186 -54 64 -118 145 -144 180 -25 35 -68 96 -96 134 -146
201 -289 586 -349 938 -83 491 -2 971 189 1111 73 54 216 207 268 288 107 165
148 306 141 481 -4 96 -9 122 -35 184 -83 196 -225 335 -453 445 -292 139
-349 171 -434 238 -115 92 -260 187 -362 239 -239 120 -664 175 -1079 140z
m4199 -3595 c3 -8 2 -12 -4 -9 -6 3 -10 10 -10 16 0 14 7 11 14 -7z m86 -183
c0 -8 -61 -22 -68 -16 -2 2 9 10 25 18 27 15 43 14 43 -2z"/>
</g>
</svg>
