<svg width="682" height="514" viewBox="0 0 682 514" fill="none" xmlns="http://www.w3.org/2000/svg">
<path d="M615 513.806C410.12 513.806 205.241 513.806 0 513.806C0 470.786 -2.98023e-08 427.765 0.368969 384.226C9.63099 379.822 18.5241 375.936 27.8037 372.032C36.104 370.521 44.0176 369.029 52.3748 367.632C55.4559 367.987 58.2451 367.786 60.7028 368.593C68.2222 371.064 75.6141 373.922 83.3398 376.828C87.2639 379.054 90.9038 381.083 94.7027 383.415C99.9103 387.074 104.959 390.427 110.217 394.041C113.143 395.906 115.859 397.511 118.803 399.377C123.147 401.664 127.075 404.693 131.418 405.508C140.803 407.27 150.403 407.897 160.076 409.044C160.238 409.1 160.577 409.052 160.76 409.339C162.944 410.707 164.945 411.789 167.156 413.13C168.976 415.022 170.862 416.465 172.142 418.325C175.379 423.032 179.932 424.868 185.327 424.519C189.23 424.267 193.089 423.331 197.382 422.738C206.524 420.432 215.251 418.088 224.412 415.754C236.446 414.116 248.049 412.675 259.907 415.689C262.132 416.711 264.098 417.664 266.173 418.179C266.956 418.374 267.991 417.555 268.911 417.199C268.254 416.439 267.734 415.283 266.913 414.999C265.047 414.354 263.032 414.137 260.858 413.528C259.515 412.433 258.392 411.557 257.209 410.397C256.613 409.332 256.076 408.55 255.45 407.397C254.936 405.607 254.51 404.188 254.082 402.441C253.718 401.344 253.358 400.575 252.995 399.436C252.811 398.353 252.632 397.639 252.545 396.563C252.595 395.705 252.554 395.21 252.653 394.324C252.87 392.555 252.946 391.177 253.179 389.42C253.448 384.931 253.559 380.823 253.742 376.328C253.714 374.902 253.612 373.863 253.607 372.481C253.502 371.013 253.301 369.888 253.139 368.376C252.924 366.236 252.669 364.483 252.41 362.397C252.282 361.641 252.159 361.217 252.06 360.403C251.686 358.267 251.288 356.523 250.922 354.457C250.887 353.712 250.819 353.288 250.808 352.505C250.494 351.012 250.125 349.877 249.797 348.402C249.539 346.982 249.239 345.903 248.948 344.438C248.255 341.626 247.552 339.198 246.864 336.381C245.994 332.574 245.111 329.156 244.27 325.326C243.841 322.552 243.369 320.19 242.926 317.409C242.102 311.887 241.25 306.785 240.371 301.232C239.877 296.121 239.411 291.461 239.012 286.336C239.276 279.863 239.474 273.853 239.802 267.518C239.938 266.728 239.943 266.263 240.137 265.482C240.861 261.048 241.396 256.932 241.966 252.383C241.761 249.98 241.421 248.015 241.301 246.037C240.549 233.649 239.829 221.259 239.135 208.867C238.778 202.484 238.496 196.097 238.227 189.253C238.861 179.801 239.448 170.806 240.205 161.498C242.164 157.379 243.952 153.574 246.019 149.58C247.992 148.105 249.688 146.819 251.686 145.382C253.056 144.451 254.125 143.671 255.535 142.912C257.571 142.042 259.266 141.152 261.326 140.177C267.46 136.644 273.228 133.197 279.348 129.717C285.255 126.342 290.667 122.722 296.406 119.73C303.096 116.243 305.698 110.701 304.902 103.696C303.805 94.0318 302.079 84.4391 300.621 74.8064C294.673 75.9494 292.733 74.9945 291.995 69.4281C291.235 63.6942 291.156 57.8433 291.163 52.044C291.168 48.3349 292.329 45.0645 296.815 46.0221C297.471 40.1825 297.943 34.7381 298.74 29.3418C299.242 25.9452 300.233 22.6209 301.314 19.0891C302.419 17.5469 303.214 16.1797 304.24 14.5743C306.307 12.4905 308.142 10.645 309.99 8.80348C310.004 8.80745 309.993 8.78133 310.307 8.69173C312.484 7.19411 314.346 5.78612 316.455 4.34652C316.702 4.3149 316.993 3.91121 317.388 3.90563C324.366 2.49968 330.932 0.122394 337.538 0.00276503C342.993 -0.09602 348.497 2.47542 354.303 3.98156C360.583 8.88033 366.353 13.828 369.826 21.2998C374.829 33.4598 373.815 45.4444 370.84 57.9314C375.596 58.3817 375.462 61.8564 374.737 64.9187C373.519 70.0579 371.764 75.0769 370.092 80.0992C368.567 84.684 365.707 87.3646 361.033 85.8807C358.163 91.4456 355.761 96.7549 352.775 101.713C349.665 106.877 350.461 111.955 355.682 114.722C359.632 116.815 363.772 118.55 367.971 120.679C368.773 121.211 369.432 121.508 370.236 122.106C377.594 126.459 384.808 130.512 392.273 134.84C400.043 136.147 406.021 140.056 411.439 145.536C413.501 149.304 415.467 152.729 417.486 156.492C417.756 157.484 417.974 158.137 418.198 159.163C418.819 161.957 419.434 164.378 419.986 167.236C419.931 176.222 419.847 184.774 419.973 193.322C420.065 199.553 420.435 205.78 420.717 212.396C421.035 214.528 421.318 216.272 421.663 218.456C422.159 223.533 422.593 228.168 422.968 233.231C422.986 235.379 423.062 237.099 423.064 239.229C423.031 241.027 423.073 242.414 423.042 244.132C422.994 244.912 423.02 245.361 422.97 246.259C423.129 250.439 423.363 254.168 423.68 258.287C424.635 261.042 425.506 263.408 426.355 266.097C427.173 267.345 428.013 268.269 428.42 269.301C427.943 270.815 427.9 272.222 427.701 273.873C427.705 275.011 427.864 275.905 428.017 277.237C428.248 281.693 428.486 285.711 428.57 290.153C428.399 292.673 428.381 294.769 428.225 297.261C427.86 300.348 427.632 303.039 427.291 306.145C426.699 309.93 426.219 313.301 425.551 316.946C425.261 318.086 425.158 318.953 424.813 320.127C424.024 324.219 423.478 328.004 422.86 332.125C422.833 332.917 422.876 333.372 422.877 334.225C422.898 335.688 422.962 336.752 422.955 338.211C422.93 339.67 422.977 340.735 422.955 342.048C422.913 342.465 422.94 342.635 422.91 343.203C422.802 344.937 422.752 346.272 422.458 347.943C422.111 351.114 422.008 353.95 421.683 357.062C417.59 364.413 417.166 371.566 420.967 379.197C421.277 381.317 421.592 383.054 421.881 385.249C421.808 388.182 421.674 390.66 421.733 393.134C421.834 397.354 422.057 401.571 422.219 406.051C422.808 406.481 423.406 406.648 424.371 406.813C425.469 406.729 426.198 406.647 427.381 406.621C430.539 406.537 433.242 406.397 436.359 406.373C438.186 406.563 439.6 406.638 441.289 406.956C445.053 408.035 448.544 408.87 452.359 409.847C454.472 410.528 456.261 411.066 458.261 411.886C461.61 413.448 464.748 414.728 468.146 416.211C469.456 416.674 470.505 416.935 471.717 417.502C476.238 419.827 480.597 421.846 485.228 424.084C488.205 425.213 490.911 426.123 493.826 427.338C502.962 431.845 510.381 428.166 517.855 423.155C518.774 423.027 519.381 422.891 520.337 422.749C522.552 421.526 524.418 420.31 526.617 419.043C528.298 418.254 529.646 417.516 531.301 416.775C532.163 416.237 532.716 415.702 533.31 415.172C533.351 415.176 533.424 415.138 533.775 415.119C536.577 413.433 539.028 411.766 541.781 410.034C543.091 409.296 544.1 408.623 545.449 407.877C547.667 406.564 549.546 405.322 551.75 404.008C560.222 398.583 568.369 393.231 576.86 387.891C581.141 385.881 585.078 383.859 589.386 381.726C596.857 380.919 603.956 380.226 611.449 379.632C619.212 381.122 626.581 382.511 634.225 384.127C650.334 389.171 666.167 393.989 682 398.806C682 437.032 682 475.257 682 513.806C668.648 513.806 655.292 513.806 641.129 513.574C631.881 513.496 623.44 513.651 615 513.806ZM284.585 277.463C284.348 276.859 284.111 276.255 283.901 274.94C283.816 274.236 283.731 273.532 283.929 272.076C281.942 249.039 281.304 225.771 272.584 203.781C271.37 205.729 270.996 207.61 270.916 209.503C270.326 223.44 269.358 237.381 269.416 251.317C269.449 259.168 271.204 267.012 272.111 275.624C272.439 277.677 272.768 279.73 273.01 282.65C273.326 285.376 273.643 288.102 273.861 291.671C273.871 293.368 273.881 295.065 273.581 297.511C273.002 303.616 272.29 309.712 271.879 315.828C271.368 323.421 271.107 331.03 270.738 338.633C271.288 338.66 271.837 338.687 272.387 338.714C274.863 325.41 277.344 312.107 279.802 298.8C279.92 298.158 279.835 297.48 280.051 296.196C280.082 295.763 280.113 295.329 280.493 294.279C280.933 292.459 281.373 290.64 282.007 288.337C282.01 288.163 282.014 287.99 282.445 287.291C282.925 285.782 283.405 284.273 284.363 282.216C284.37 280.791 284.378 279.366 284.585 277.463ZM395.915 260.301C394.288 240.971 392.661 221.641 391.034 202.311C390.523 202.279 390.012 202.246 389.501 202.213C389.012 203.7 388.179 205.166 388.09 206.677C387.393 218.445 386.681 230.216 386.291 241.997C385.99 251.093 386.133 260.204 386.115 269.308C386.112 270.757 385.849 272.456 386.483 273.614C390.187 280.384 394.122 287.028 397.691 293.214C397.121 283.21 396.498 272.255 395.915 260.301Z" fill="#051626"/>
</svg>
