<svg width="148" height="406" viewBox="0 0 148 406" fill="none" xmlns="http://www.w3.org/2000/svg">
<path d="M83.7459 1.75705C93.9711 8.21809 96.8759 23.8715 100.037 34.8286C100.778 38.3377 101.034 41.3515 100.772 44.9249C99.9155 46.0507 99.9155 46.0507 99.0422 47.1992C97.1764 49.2612 97.1764 49.2612 97.4512 52.0923C100.325 59.2511 110.48 63.4229 117.028 67.0473C127.366 73.0717 131.777 80.0116 135.116 91.204C137.418 100.079 138.128 109.298 139.095 118.39C139.333 120.535 139.571 122.68 139.809 124.825C141.457 140.003 142.603 155.179 143.237 170.432C143.604 178.773 144.389 186.723 146.15 194.888C147.512 202.077 149.524 213.529 146.15 220.25C143.314 220.939 143.314 220.939 140.616 221.352C140.454 222.164 140.291 222.976 140.124 223.812C138.437 231.121 137.047 234.891 130.655 238.995C130.708 241.067 130.708 241.067 131.762 243.406C132.835 244.02 133.908 244.634 135.013 245.267C139.719 248.806 139.73 252.136 140.616 257.74C141.028 260.984 141.296 264.223 141.52 267.484C141.621 268.849 141.621 268.849 141.725 270.241C141.941 273.195 142.144 276.15 142.346 279.105C142.417 280.118 142.489 281.132 142.563 282.176C143.69 298.179 144.415 314.167 144.722 330.206C144.864 337.482 145.16 344.674 145.894 351.916C146.342 356.909 146.442 361.894 146.496 366.905C146.528 367.927 146.561 368.949 146.594 370.002C146.603 370.981 146.612 371.961 146.622 372.97C146.646 374.283 146.646 374.283 146.671 375.623C146.15 377.932 146.15 377.932 144.042 379.85C140.086 382.221 136.396 382.554 131.831 382.687C130.908 382.728 129.985 382.769 129.034 382.812C125.134 382.159 123.41 380.768 120.694 377.932C119.708 374.744 119.708 374.744 119.311 371.04C119.084 369.014 119.084 369.014 118.852 366.948C118.205 359.592 117.739 352.227 117.374 344.852C116.506 345.579 115.639 346.307 114.745 347.057C111.84 349.262 111.84 349.262 109.626 349.262C109.672 350.536 109.717 351.809 109.764 353.122C109.773 358.303 109.229 363.357 108.588 368.49C108.492 369.273 108.396 370.056 108.297 370.863C107.556 376.544 107.556 376.544 106.306 379.034C106.007 381.606 105.813 384.176 105.618 386.757C105.48 387.484 105.341 388.21 105.199 388.958C104.468 389.322 103.738 389.686 102.985 390.061C103.35 394.428 103.716 398.794 104.092 403.293C98.5435 405.49 93.7146 405.902 87.8358 405.912C86.9962 405.939 86.1566 405.966 85.2915 405.994C79.2362 406.026 79.2362 406.026 76.4176 403.552C74.6346 399.567 75.034 396.608 75.3151 392.266C75.6804 391.539 76.0456 390.811 76.4219 390.061C75.6872 390.459 74.9524 390.857 74.1954 391.267C73.2181 391.779 72.2407 392.291 71.2338 392.818C70.2708 393.329 69.3077 393.841 68.3155 394.368C65.2235 395.628 63.1223 395.812 59.8199 395.574C58.8044 392.539 58.5709 390.721 58.5661 387.593C58.564 386.236 58.564 386.236 58.5618 384.851C58.5661 383.91 58.5704 382.968 58.5748 381.998C58.5684 380.604 58.5684 380.604 58.5618 379.183C58.5679 375.325 58.6189 371.783 59.3833 367.99C60.0183 363.205 59.0737 358.985 58.0905 354.293C57.93 353.388 57.7695 352.484 57.6042 351.552C56.3618 345.517 55.3401 342.379 55.3401 342.379L53.6799 338.52C54.0451 337.428 51.696 334.95 52.0723 333.825C51.3197 333.45 52.8028 334.189 52.0723 333.825C51.6029 332.979 51.1335 332.133 50.6499 331.262C45.7873 322.095 42.2562 312.867 39.1341 302.975C38.831 302.019 38.528 301.062 38.2157 300.077C37.8202 298.795 37.8202 298.795 37.4167 297.488C36.5692 294.944 36.5692 294.944 34.3635 291.923C33.6631 288.727 33.6631 288.727 33.1183 284.894C32.9329 283.657 32.7474 282.421 32.5563 281.146C31.5881 272.17 32.0712 263.071 32.5087 254.075C32.5737 252.738 32.6386 251.401 32.7055 250.024C32.8448 247.264 32.995 244.504 33.1551 241.745C33.2157 240.424 33.2764 239.103 33.3388 237.742C33.4026 236.551 33.4664 235.36 33.532 234.133C33.4412 233.191 33.3503 232.248 33.2567 231.276C29.684 228.903 28.5151 228.85 24.4023 229.071C24.7904 230.117 24.903 232.664 24.903 232.664C24.903 232.664 24.0481 234.584 23.2955 234.584C23.2955 235.709 23.2955 233.493 23.2955 234.584C22.371 234.96 22.371 234.96 21.4277 235.342C18.8683 235.687 18.8683 235.687 16.1013 234.584C13.4408 232.464 12.581 231.286 11.0515 228.382C10.3438 227.154 9.63616 225.926 8.90706 224.66C7.43655 224.273 5.96121 223.902 4.47985 223.558C3.2347 220.387 3.2347 220.387 2.26625 216.942C1.53576 215.85 0.80527 214.758 0.0526445 213.634C-0.307898 207.863 1.24931 202.124 2.71372 196.589C5.73572 185.056 6.54365 173.634 7.32468 161.765C7.71051 156.01 8.46215 150.418 9.46046 144.738C10.2677 139.077 10.6732 133.393 11.1207 127.694C14.4512 86.5001 14.4512 86.5001 27.7227 73.5944C30.4266 71.7087 32.5237 70.5007 35.4703 69.1837C36.6616 68.6137 37.8529 68.0437 39.0804 67.4564C49.4297 62.5676 49.4297 62.5676 52.0723 62.5676C53.9043 58.7026 54.6267 56.6892 53.1791 52.6436C51.7126 50.355 51.7126 50.355 49.9279 48.164C44.5202 41.2674 43.5178 37.1312 44.3247 28.3848C44.9708 25.9888 45.7818 23.8434 46.7934 21.5793C47.8299 19.317 47.8299 19.317 48.406 15.7041C50.6957 9.62123 55.3062 5.31863 60.676 1.70105C67.4213 -0.715858 76.9974 -0.43053 83.7459 1.75705Z" fill="black"/>
</svg>
