<svg width="115" height="269" viewBox="0 0 115 269" fill="none" xmlns="http://www.w3.org/2000/svg">
<path d="M41.9922 1.13965C49.4424 -1.64563 55.3927 1.0434 61.2129 5.2334C61.6528 5.97813 61.9677 6.4627 62.2656 7.30762C62.5023 8.78947 62.7564 9.91062 63.0439 11.3535C63.1669 12.0969 63.2558 12.5187 63.3057 13.333C63.6232 15.8083 63.9802 17.8916 64.2725 20.334C62.8882 26.5174 61.5689 32.3414 60.1572 38.5713C69.3195 43.1703 81.7056 43.3418 84.9805 56.5254C85.8376 66.31 86.6412 75.6422 87.4268 85.3525C88.8568 92.0881 90.3053 98.4451 91.6387 105.018C91.7128 105.817 91.9022 106.402 92.0762 107.322C92.1315 108.101 92.2025 108.543 92.2549 109.217C92.2367 109.448 92.3729 109.892 92.3359 110.175C92.4425 110.996 92.5851 111.535 92.7988 112.483C93.6984 116.919 94.5278 120.945 95.2988 125.436C95.3187 132.264 95.397 138.628 95.4297 145.367C96.7228 150.823 96.008 157.022 102.203 159.561C104.828 160.636 107.737 161.062 110.549 161.623C114.7 162.451 115.406 164.528 113.044 167.888C112.782 168.683 112.519 169.477 112.159 170.898C111.69 172.302 111.318 173.079 110.945 173.856C109.738 173.363 108.301 173.134 107.365 172.326C104.099 169.507 100.688 168.935 96.417 171.249C100.55 173.618 104.585 175.639 108.262 178.18C109.753 179.21 110.465 181.372 111.525 183.362C109.846 186.895 108.173 190.084 105.932 193.553C101.488 192.133 97.3644 190.834 93.791 188.641C87.7748 184.947 82.1071 180.686 75.5889 176.176C73.948 185.133 72.5009 193.032 70.9062 201.384C70.8477 206.762 70.9307 211.706 71.0166 216.641C71.0724 216.746 71.1296 216.849 71.1807 216.955C71.2398 226.442 71.1413 235.932 70.8477 245.284C70.1185 252.366 69.5365 259.125 69.2881 265.896V268.587H39.1836C39.0512 268.539 38.928 268.496 38.8145 268.455H23.5938V262.955C22.9847 257.607 23.7649 252.447 23.6367 247.165C23.6214 247.157 23.6062 247.149 23.5908 247.142C23.2399 243.923 23.197 240.777 23.1875 237.081C23.1689 235.531 23.1548 234.115 23.1416 232.424C22.4268 218.63 21.7119 205.3 21.0586 191.69C20.973 190.863 20.8259 190.316 20.6455 189.455C20.4663 188.746 20.3205 188.352 20.2041 187.623C19.9961 186.445 19.7584 185.601 19.5088 184.348C18.7481 180.276 17.9985 176.614 17.292 172.507C16.7087 168.962 16.6634 163.486 15.3594 163.167C9.2895 161.686 7.34513 157.198 5.40527 152.184C4.5319 152.302 3.65951 152.314 3.18359 151.955C2.44218 143.825 0.915732 135.607 0.248047 127.491C0.164768 124.986 0.0463597 122.923 0 120.405C0.195252 113.947 0.318848 107.943 0.500977 101.523C0.538716 99.4334 0.517311 97.759 0.538086 95.7676C0.551847 95.2394 0.524125 95.0277 0.574219 94.4004C0.616791 92.291 0.581756 90.5976 0.772461 88.6113C1.76876 80.9701 2.59232 73.6271 3.29395 66.2725C4.10992 57.7198 5.64775 49.524 13.5586 43.9473C17.7433 42.2959 21.557 40.6671 25.6826 39.0449C26.7716 38.8031 27.5483 38.5555 28.6738 38.2314C31.9887 35.9452 34.9548 33.7343 37.9355 31.5127C36.2494 28.304 34.8172 25.5803 33.3838 22.626C33.3818 22.3957 33.2819 21.9461 33.3125 21.5176C33.3321 13.294 34.8575 6.13616 41.9922 1.13965ZM46.0029 177.703C45.5422 185.333 45.0809 192.963 44.3672 201.377C44.1669 203.835 44.1621 206.328 43.7334 208.746C41.8545 219.342 41.4996 229.938 43.1758 241.376C42.8531 248.932 42.3982 256.488 42.3721 264.045C42.3687 265.005 44.6338 266.774 45.8008 266.735C47.2789 266.686 49.8688 265.293 49.9775 264.269C50.9129 255.411 51.3975 246.505 52.1084 236.792C52.2815 233.519 52.8443 230.211 52.5527 226.979C51.7769 218.382 50.566 209.824 49.6689 201.235C49.3133 197.83 49.3293 194.386 49.2705 190.068C48.7105 185.919 48.1509 181.769 47.5908 177.62C47.0616 177.648 46.5322 177.675 46.0029 177.703ZM72.2227 94.9502C72.2227 100.048 72.2228 104.002 71.833 107.972C72.2885 108.361 72.3539 108.765 72.4414 109.478C72.4176 109.657 72.3921 109.836 72.3682 110.014C72.381 110.056 72.3946 110.101 72.4082 110.147C72.4269 110.027 72.4452 109.906 72.4639 109.785C72.5947 110.447 72.7224 111.109 72.8535 111.776C73.7766 115.307 75.2564 121.55 75.5908 122.471C75.6886 123.539 75.7466 124.252 75.4883 125.067C68.946 131.592 74.8885 138.066 75.0693 144.731C75.0796 144.732 75.0903 144.732 75.1006 144.732C75.0908 144.732 75.081 144.731 75.0713 144.73C74.8904 138.065 68.9473 131.592 75.4902 125.066C76.8617 131.265 78.0957 138.435 79.1357 145.149C79.1403 145.15 79.1449 145.152 79.1494 145.152C79.365 145.42 79.4642 145.56 79.3662 145.763C81.0666 146.218 82.394 146.975 83.5889 147.528C81.5594 138.769 79.6175 130.388 77.7236 121.605C76.2262 112.788 77.6254 103.753 72.2227 94.9502ZM9.85645 104.929C8.73725 106.858 6.99738 108.48 7.0332 110.061C7.13449 114.521 7.96528 118.964 8.5957 124.128C8.59654 124.127 8.59682 124.126 8.59766 124.125C7.96726 118.962 7.1374 114.519 7.03613 110.06C7.00048 108.479 8.73823 106.858 9.85742 104.93L9.85645 104.929ZM11.9521 87.6572C13.2798 94.0925 14.6082 100.528 15.9932 107.341C15.932 109.122 15.7621 111.715 15.4082 113.511C15.6296 114.817 15.6192 115.943 15.5547 117.026C15.5975 117 15.6404 116.977 15.6826 116.955C16.038 118.818 16.2253 121.589 16.8828 123.349C17.3485 121.289 18.3963 118.582 19.127 116.606C19.0978 116.55 19.0672 116.494 19.0381 116.437C19.1718 111.661 19.1461 106.34 19.6748 102.018C19.1711 99.458 19.0625 97.2549 19.1455 94.9453C18.9286 95.0645 18.8671 94.7124 18.8672 94.5352C19.0895 94.1538 19.3119 93.9487 19.5342 93.7441L19.5352 93.7422C19.3121 93.9475 19.0887 94.1528 18.5137 94.3809C17.4194 98.5904 16.6777 102.777 15.9355 106.964C14.6079 100.529 13.2798 94.0925 11.9521 87.6572ZM37.0527 76.4883C36.0828 77.2229 35.1376 78.2706 35.1357 78.9268C35.1315 80.4426 37.1252 81.9523 38.2285 83.4863C39.3075 84.9866 40.1757 86.6856 41.458 87.9785C42.6128 89.1428 44.2031 89.8752 45.6016 90.7979V90.7959C44.2035 89.8738 42.6134 89.1422 41.459 87.9785C40.1766 86.6856 39.3086 84.9857 38.2295 83.4854C37.1262 81.9513 35.1324 80.4416 35.1367 78.9258C35.1388 78.2695 36.0838 77.2218 37.0537 76.4873L37.0527 76.4883ZM38.3281 75.7383C38.1743 75.7948 38.0064 75.8771 37.8291 75.9766C38.0064 75.8771 38.1743 75.7949 38.3281 75.7383Z" fill="#1C1F2A"/>
</svg>
