<svg width="676" height="875" viewBox="0 0 676 875" fill="none" xmlns="http://www.w3.org/2000/svg">
<path d="M373.585 49.4888C371.105 51.6947 370.786 51.7601 367.243 50.8863C359.612 48.9171 358.121 49.1221 354.79 52.5348C353.114 54.2764 351.81 56.0419 351.927 56.451C352.115 56.8789 353.585 57.877 355.271 58.6311C356.977 59.3147 358.987 60.8352 359.676 61.9264L360.971 63.8596L358.215 69.919C356.726 73.2212 355.401 76.1899 355.345 76.4013C355.288 76.6127 357.58 78.2088 360.384 79.8665L365.518 82.9794L362.829 91.3231C360.734 98.0131 360.384 99.8832 361.027 100.584C362.14 101.789 367.445 103.135 371.496 103.238C375.158 103.389 376.313 104.151 373.351 104.491C372.27 104.579 369.515 105.276 367.15 105.926C362.97 107.148 362.932 107.289 363.555 109.193C363.874 110.26 364.14 111.238 364.084 111.449C364.046 111.59 361.703 109.905 358.89 107.716C352.879 103.084 342.907 97.1641 333.248 92.6122C328.104 90.1009 323.176 88.4781 312.11 85.513C304.145 83.3789 296.669 81.6778 295.396 81.6387L293.111 81.7064L295.962 83.7543C297.535 84.9312 300.099 87.2044 301.681 88.9123L304.549 92.0224L301.423 92.6954C299.735 93.074 297.012 93.9307 295.409 94.5586L292.451 95.7299L275.516 91.2678C259.799 87.0563 249.428 84.8817 248.355 85.5007C248.087 85.6555 248.103 87.8503 248.415 90.351C248.708 92.9222 249.071 96.6449 249.214 98.6472L249.576 102.37L255.638 103.994L261.77 105.637L257.787 106.685C253.824 107.662 253.824 107.662 255.811 108.422C256.972 108.884 261.831 109.355 266.677 109.596C278.526 110.202 279.282 110.481 273.87 112.354C266.624 114.869 266.44 115.273 272.551 115.022C283.461 114.622 283.287 114.424 276.024 118.974C271.462 121.906 269.791 123.347 270.242 123.921C270.66 124.335 273.333 125.353 276.152 126.109C278.901 126.845 281.151 127.75 281.057 128.103C280.963 128.455 278.433 129.439 275.461 130.38C272.419 131.302 270.049 132.253 270.222 132.451C270.48 132.898 287.359 133.341 291.683 132.989C294.767 132.758 294.908 132.796 294.568 134.064C294.039 136.038 294.66 135.977 300.265 134.231C302.917 133.356 305.62 132.569 306.208 132.349C307.026 132.115 306.789 133.562 305.208 139.181L303.212 146.351L301.351 145.399C300.28 144.886 294.018 142.603 287.365 140.367C265.508 132.849 242.363 129.291 223.668 130.551C213.745 131.216 186.289 136.7 176.288 139.912C171.642 141.462 168.27 143.051 167.385 144.098C165.686 146.211 157.22 159.2 157.501 159.276C157.642 159.313 158.739 158.323 160.052 157.089C164.028 153.244 170.972 147.627 171.23 148.074C171.314 148.323 169.596 150.506 167.361 152.929C165.106 155.422 163.068 157.67 162.814 158.056C161.854 159.384 166.539 156.561 172.433 152.324C175.801 149.903 178.252 148.369 177.889 148.876C174.132 154.441 171.565 158.663 171.772 159.021C171.875 159.199 175.253 156.177 179.319 152.281C183.385 148.385 186.801 145.221 187.012 145.278C187.787 145.486 184.754 151.169 175.989 166.118C175.57 166.836 179.122 164.011 184.025 159.811C191.802 153.058 198.887 147.478 197.513 149.225C197.207 149.52 195.851 151.197 194.514 152.802C192.382 155.403 187.998 162.462 187.583 164.012C187.507 164.294 188.725 163.412 190.325 161.953C191.836 160.544 194.272 158.78 195.683 158.025L198.237 156.67L196.572 162.04L194.906 167.41L201.556 160.354C211.448 149.937 212.093 149.506 208.009 156.569C203.488 164.422 203.445 164.864 207.429 162.683C211.055 160.709 220.855 156.839 220.116 157.623C216.181 162.158 212.674 166.506 211.944 167.821C210.852 169.643 211.835 169.076 223.609 161.504C228.618 158.315 229.117 158.146 227.135 160.183C225.874 161.507 223.78 163.967 222.546 165.752L220.192 168.898L224.073 166.539C226.236 165.23 230.352 162.556 233.198 160.675L238.443 157.171L235.077 161.556C233.302 163.951 231.16 167.154 230.463 168.628L229.233 171.245L232.567 169.797C236.31 168.231 249.617 164.243 249.875 164.69C250.03 164.958 246.225 174.363 244.576 177.698C243.695 179.576 243.855 179.544 248.06 176.818C250.53 175.214 255.863 172.791 259.991 171.48C267.519 169.04 269.879 168.691 267.25 170.328C265.872 171.243 260.778 178.413 260.324 180.104C260.192 180.598 262.478 179.397 265.465 177.554C268.381 175.692 273.15 173.117 276.127 171.876C282.189 169.27 282.302 168.847 275.019 178.83C272.519 182.239 270.561 185.038 270.701 185.075C270.772 185.094 275.132 182.637 280.423 179.523C287.483 175.447 289.355 174.665 287.539 176.368C286.207 177.673 283.703 180.251 282.099 182.011L279.176 185.307L288.051 180.66C292.89 178.105 297.161 175.699 297.486 175.333C297.811 174.966 297.697 175.389 297.221 176.319C296.746 177.249 295.356 179.898 294.183 182.303C292.939 184.689 291.285 188.325 290.437 190.363L288.834 194.088L292.457 191.282C296.672 187.955 305.237 182.773 308.534 181.465L310.814 180.566L307.966 184.712L305.136 188.788L312.9 186.034C317.155 184.531 320.997 183.445 321.349 183.54C322.336 183.804 320.456 187.153 318.721 188.274C317.432 189.137 317.465 189.297 318.804 189.656C319.861 189.939 320.203 190.635 320.121 192.35C320.067 194.526 319.564 194.996 315.185 197.523C311.163 199.845 308.46 200.631 297.774 202.451C266.764 207.663 246.062 213.597 215.411 225.929C193.474 234.78 172.085 248.915 155.666 265.363C149.652 271.456 147.105 275.608 145.386 282.021L144.38 286.057L147.157 283.024L150.004 280.01L150.01 282.807C150.056 284.329 150.261 285.819 150.416 286.088C150.57 286.356 153.103 283.106 156.079 278.767C159.035 274.499 162.317 269.864 163.437 268.503L165.391 266.005L164.328 270.252C162.675 276.985 163.375 277.475 168.283 272.973L172.579 269.064L173.053 273.496C173.294 275.978 173.55 278.69 173.624 279.541C173.745 280.782 174.121 280.505 175.205 278.152C177.019 274.483 181.779 267.148 182.597 266.914C182.936 266.778 183.441 269.406 183.775 272.668L184.436 278.661L186.96 270.651C189.616 262.148 189.846 262.134 190.086 269.978C190.111 272.704 190.471 274.462 190.833 273.955C191.126 273.429 192.472 271.222 193.8 269.085C195.986 265.441 196.164 265.337 196.364 267.128C196.523 268.228 196.378 271.588 196.027 274.591L195.527 280.122L197.674 276.619C198.945 274.694 200.137 272.218 200.44 271.091C201.176 268.342 202.369 268.964 201.915 271.788C201.716 273.094 202.889 270.689 204.624 266.471L207.744 258.772L209.113 265.786L210.412 272.781L212.37 265.752C214.575 257.807 215.421 258.034 214.626 266.356L214.15 271.516L217.327 267.835C219.007 265.793 221.45 262.595 222.632 260.722C223.795 258.918 224.953 257.416 225.235 257.491C225.447 257.548 225.688 260.03 225.638 263.038C225.57 269.213 226.585 268.806 228.506 261.918C229.162 259.752 229.935 257.995 230.217 258.071C230.569 258.165 230.6 260.59 230.375 263.401L229.951 268.65L221.941 273.453C217.524 276.122 212.063 279.87 209.71 281.883C205.955 285.183 205.593 285.69 206.226 286.993C207.989 290.562 207.405 291.614 197.135 303.44C191.736 309.774 186.803 315.779 186.2 316.901C185.141 318.883 185.141 318.883 189.303 316.6L193.465 314.316L190.328 324.05L187.262 333.803L189.219 332.137C191.266 330.42 195.64 328.192 196.645 328.386C196.927 328.462 196.497 330.915 195.722 333.804C194.344 338.949 194.699 341.008 196.451 337.852C197.638 335.677 203.882 329.57 204.658 329.778C205.292 329.948 201.607 341.726 199.666 345.587C198.823 347.325 198.883 347.945 199.996 349.15C203.16 352.566 203.921 352.543 206.703 349.21C208.129 347.552 209.691 346.234 210.114 346.347C210.537 346.46 211.457 347.538 212.057 348.68L213.206 350.877L217.75 348.015C221.49 345.618 222.736 345.197 225.527 345.492L228.902 345.867L229.749 340.731L230.667 335.614L231.744 338.924C232.245 340.72 232.694 342.427 232.619 342.709C232.543 342.99 232.947 343.174 233.568 343.114C234.418 343.04 234.484 343.359 233.938 344.271C233.024 345.99 233.878 346.747 236.764 346.69L239.119 346.641L237.382 353.125C235.834 358.903 235.842 359.435 237.033 358.092C239.447 355.566 241.315 353.952 241.738 354.065C242.02 354.141 241.178 358.976 239.892 364.901C238.626 370.755 237.765 375.661 238.065 375.666C238.277 375.723 240.337 374.235 242.652 372.363C246.886 368.965 248.579 368.286 247.284 370.583C246.554 371.898 245.6 383.35 246.012 385.197C246.162 385.766 248.129 383.499 250.436 379.963C252.706 376.567 255.365 373.126 256.405 372.347L258.127 370.995L257.582 375.004C256.937 379.665 257.72 385.766 258.718 384.297C259.08 383.789 261.098 378.514 263.267 372.675L267.11 361.997L268.467 367.648C269.3 370.741 270.883 375.546 272.041 378.274L274.22 383.39L277.646 372.298C279.59 366.171 281.179 361.083 281.288 360.961C281.344 360.75 282.072 361.7 282.935 362.989C284.727 365.886 291.42 374.176 292.055 374.346C292.336 374.421 294.513 370.246 296.883 365.065C299.254 359.884 301.218 355.651 301.359 355.689C301.5 355.727 301.987 357.293 302.54 359.178C303.443 362.29 303.401 362.732 301.923 364.3C300.732 365.643 291.011 378.522 290.898 378.945C290.879 379.016 292.466 380.423 294.438 382.084L297.946 385.064L291.473 388.919C284.663 392.91 283.618 393.99 285.944 394.613C286.719 394.821 288.349 395.786 289.608 396.728C291.669 398.338 291.721 398.427 290.505 401.274C289.77 402.89 287.528 406.745 285.494 409.826C281.388 416.128 281.369 416.199 284.776 420.964C285.864 422.54 285.816 423.282 283.89 430.47L281.813 438.223L285.06 438.791C288.289 439.429 288.359 439.448 288.328 442.385C288.335 444.049 287.848 446.713 287.254 448.367C286.659 450.02 286.442 451.397 286.794 451.492C288.133 451.851 293.719 450.175 296.08 448.693C298.62 447.107 304.544 446.428 307.786 447.297C309.125 447.656 309.628 447.186 311.259 443.922C312.337 441.87 313.38 438.825 313.532 437.129L313.973 434.074L318.076 434.268C322.038 434.423 322.287 434.338 324.801 431.16C326.933 428.559 328.311 427.644 332.44 426.333L337.405 424.718L342.064 416.071C348.221 404.653 352.743 395.668 356.603 387.185L359.746 380.247L360.034 387.349C360.75 405.82 365.082 431.378 373.333 465.993C379.386 491.333 381.601 501.671 385.511 522.886C387.674 534.267 392.056 556.817 395.252 573.083C415.747 676.467 422.149 732.642 418.864 780.708C417.682 798.369 414.96 815.012 410.97 830.183L408.176 840.614L415.435 846.789C421.037 851.538 440.034 864.937 441.866 865.428C442.078 865.484 441.984 861.607 441.604 856.822C440.531 841.654 440.343 825.44 440.808 797.767C441.444 756.771 440.736 734.601 437.672 702.056C432.495 647.795 425.645 613.026 395.258 487.353C390.323 467.147 385.954 449.056 385.472 447.19L384.574 443.777L388.912 443.655C391.338 443.625 393.712 443.506 394.172 443.478C394.793 443.418 394.439 444.456 393.106 446.894C391.995 448.787 390.665 452.056 390.08 454.241L389.041 458.117L390.923 456.733C397.001 452.092 408.326 438.584 414.928 428.041L418.201 422.876L416.338 428.419C415.22 431.745 414.799 433.596 415.322 433.057C416.94 431.526 426.531 413.777 429.952 406.083L433.209 398.723L435.818 402.519C438.929 406.978 438.75 407.081 445.608 399.25C447.989 396.565 449.862 394.649 449.768 395.002C449.673 395.354 447.723 398.684 445.519 402.399C443.245 406.095 441.558 409.571 441.656 410.05C441.975 411.117 446.689 414.949 448.221 415.435C448.926 415.624 450.643 414.573 452.28 412.972C453.847 411.353 455.098 410.631 455.018 411.213C454.937 411.796 454.69 413.845 454.411 415.734C454.126 417.924 454.247 419.164 454.868 419.104C458.976 418.996 460.329 419.586 460.651 421.485C461.057 423.633 463.026 424.463 467.576 424.398C472.356 424.319 472.356 424.319 472.467 417.702C472.504 414.464 472.62 411.775 472.798 411.672C472.888 411.621 474.748 412.572 476.904 413.83C479.497 415.431 481.117 416.998 481.885 418.639C482.551 420.102 483.846 422.035 484.856 423.061L486.56 424.877L492.267 420.212C497.202 416.172 498.087 415.125 498.588 412.691C499.623 407.983 500.193 406.7 501.25 406.984C502.378 407.286 505.379 413 505.04 414.268C504.907 414.762 505.208 414.767 505.801 414.246C507.349 412.697 512.038 402.245 513.779 396.594C515.374 391.205 516.221 390.299 516.047 394.331C515.916 397.922 516.992 398.134 517.495 394.568C520.176 373.003 518.142 343.378 512.793 327.82L511.205 323.315L513.458 321.955C514.709 321.233 516.778 320.276 518.076 319.944L520.46 319.224L519.598 324.129C518.524 330.111 518.647 337.546 519.852 336.434C523.593 332.904 530.669 306.777 530.799 295.859C530.982 283.898 527.014 265.16 521.974 254.368C520.591 251.353 520.394 250.394 521.216 250.992C521.916 251.482 524.701 253.21 527.383 254.76C530.065 256.309 532.71 258 533.32 258.541C533.911 259.153 535.307 259.3 537.098 259.1C538.678 258.843 541.898 258.951 544.299 259.292L548.698 259.791L549.779 263.933C550.378 266.208 551.446 268.987 552.117 270.149L553.445 272.242L555.378 266.717C558.133 258.693 558.866 258.21 560.529 263.565C561.718 267.585 568.152 283.887 569.85 287.137C570.399 288.191 570.866 286.729 572.893 277.755L575.373 267.09L576.566 271.941C578.625 280.046 585.3 298.83 586.146 299.057C586.499 299.151 585.963 295.231 584.478 286.676C583.885 282.967 583.443 279.827 583.692 279.742C583.979 279.517 586.715 287.35 591.829 303.223C596.859 318.847 596.91 318.936 602.749 322.238C609.095 325.902 620.158 331.133 620.783 330.772C621.588 330.307 617.373 312.485 614.572 304.332C606.52 281.1 579.886 246.016 561.531 234.451C556.224 231.141 543.343 224.517 534.981 220.766C513.3 211.179 488.064 203.587 461.56 198.751L456.16 197.757L461.632 197.637C466.943 197.55 467.192 197.465 468.276 195.112C469.063 193.585 469.399 191.485 469.237 189.553L468.935 186.451L475.349 188.17C478.802 189.095 483.882 190.154 486.566 190.571L491.458 191.202L494.79 187.789L498.14 184.306L504.143 184.177C507.4 184.143 510.169 183.677 510.283 183.254C510.325 182.812 510.544 180.303 510.66 177.615C511.051 169.108 511.14 169.057 517.222 173.708C519.354 175.336 521.261 176.678 521.472 176.735C522.741 177.075 519.186 166.378 516.788 162.639C513.772 157.827 508.386 152.834 505.496 152.06C504.298 151.739 503.777 151.146 503.947 150.512C504.382 148.891 506.904 146.243 509.081 145.165L510.92 144.223L509.584 141.598C507.454 137.704 503.036 134.179 496.59 131.168C490.953 128.524 490.652 128.519 488.903 129.41C487.849 129.958 482.903 131.503 477.834 132.94C472.695 134.358 467.321 136.09 465.82 136.897L463.125 138.214L459.425 135.108C455.429 131.695 449.326 129.38 448.469 130.888C448.196 131.343 447.188 133.415 446.198 135.416C445.209 137.417 442.642 141.639 440.519 144.771L436.531 150.349L434.318 149.303C433.036 148.733 431.035 147.744 429.823 147.192C426.609 145.651 425.424 146.693 421.848 154.119C420.142 157.666 418.625 160.507 418.484 160.47C417.85 160.3 416.342 150.983 414.505 135.006C412.62 118.638 411.239 110.262 410.217 107.873C409.842 107.017 409.188 106.918 407.078 107.183C403.796 107.588 403.896 106.935 407.362 104.993L410.024 103.516L406.586 97.4582C404.677 94.1519 402.936 91.344 402.655 91.2684C402.443 91.2118 400.975 92.1781 399.554 93.5347C398.082 94.8018 396.774 95.7355 396.6 95.5379C396.516 95.2887 397.651 93.0248 399.163 90.484C400.675 87.9432 402.046 85.3647 402.216 84.7304C402.669 83.039 396.167 71.7796 390.639 64.7842C381.731 53.4843 376.807 47.3308 376.525 47.2553C376.314 47.1986 375.058 48.2217 373.585 49.4888ZM376.424 121.781C376.33 122.133 375.878 122.692 375.374 123.161C374.565 123.926 374.283 123.851 373.523 122.741C372.641 121.522 372.678 121.381 374.06 121.298C375.941 121.047 376.575 121.217 376.424 121.781ZM307.085 146.558C306.99 146.91 306.21 147.003 305.434 146.796C304.166 146.456 304.133 146.296 305.083 145.568C306.212 144.738 307.424 145.289 307.085 146.558ZM322.911 153.744C324.823 154.785 324.734 154.837 322.056 154.119C320.505 153.704 318.659 152.983 317.978 152.422C316.912 151.608 317.09 151.505 318.834 152.048C320.032 152.369 321.859 153.16 322.911 153.744ZM330.01 156.855C329.783 157.701 329.304 157.799 328.27 157.144C327.411 156.687 326.481 156.212 326.199 156.136C325.846 156.042 325.941 155.689 326.247 155.394C327.273 154.384 330.35 155.587 330.01 156.855ZM339.613 160.486C339.33 161.543 338.742 161.763 337.332 161.385C336.205 161.083 335.012 160.461 334.542 159.958C333.256 158.556 334.916 157.716 337.594 158.434C339.497 158.944 339.915 159.358 339.613 160.486ZM343.748 161.971C343.408 163.24 342.923 163.639 341.866 163.355C340.245 162.921 340.25 162.62 341.746 160.982C343.314 159.362 344.314 159.857 343.748 161.971ZM349.838 162.923C350.416 163.305 350.645 164.424 350.38 165.41C350.022 166.749 349.645 167.026 348.894 166.447C348.316 166.066 347.104 165.514 346.188 165.269C344.849 164.91 344.591 164.463 344.968 163.054C345.346 161.644 345.793 161.386 347.132 161.745C348.048 161.991 349.26 162.542 349.838 162.923ZM359.507 166.874C359.577 166.893 359.651 167.743 359.636 168.646C359.714 170.328 359.484 170.342 356.524 169.549C352.577 168.491 351.318 167.55 351.715 166.07C352.243 164.097 353.094 164.022 356.345 165.422C358.102 166.195 359.526 166.803 359.507 166.874ZM366.915 170.52C366.647 170.675 365.993 170.576 365.557 170.232C365.05 169.87 365.318 169.715 366.093 169.923C366.887 170.06 367.253 170.385 366.915 170.52ZM453.411 229.727C451.92 234.162 452.08 234.129 447.206 230.33L445.022 228.612L448.092 228.151C449.761 227.842 452.004 227.084 452.935 226.427C453.918 225.86 454.723 225.395 454.774 225.485C454.737 225.626 454.156 227.509 453.411 229.727ZM475.702 255.641C475.093 258.197 474.614 258.295 473.088 256.376C472.135 255.138 472.192 254.927 473.726 253.148C474.663 252.19 475.642 250.791 475.831 250.086C476.463 248.291 476.279 252.925 475.702 255.641ZM433.318 257.351C439.309 270.514 445.121 284.912 450.26 299.281C455.887 315.215 455.985 315.695 450.678 303.925C448.803 299.646 444.105 289.549 440.152 281.465C436.289 273.33 432.06 263.737 430.847 260.088C429.563 256.421 426.845 249.65 424.815 245.103C422.443 239.859 421.314 236.46 421.818 235.991C422.716 235.174 425.821 241.067 433.318 257.351ZM449.059 245.405C449.002 245.616 448.442 246.297 447.882 246.978C446.818 248.128 446.677 248.09 445.377 246.458C443.453 244.054 443.816 243.547 446.705 244.321C448.045 244.68 449.116 245.194 449.059 245.405ZM351.172 232.093C350.772 232.741 350.782 232.139 351.141 230.8C351.499 229.461 351.791 228.935 351.833 229.626C351.785 230.368 351.483 231.496 351.172 232.093ZM491.126 269.971C490.015 271.864 489.006 273.935 488.818 274.64C488.496 275.838 488.356 275.8 487.018 274.308C486.201 273.41 485.652 272.356 485.747 272.004C485.879 271.511 492.531 266.419 492.954 266.533C492.954 266.533 492.167 268.059 491.126 269.971ZM412.447 267.017C411.642 267.481 411.582 266.861 412.294 264.484L413.196 261.402L413.348 263.935C413.388 265.759 413.162 266.604 412.447 267.017ZM495.477 286.999C494.852 287.36 494.481 287.336 494.594 286.913C494.858 285.927 495.931 285.308 496.292 285.933C496.376 286.182 496.014 286.689 495.477 286.999ZM501.05 296.65C500.956 297.002 500.579 297.279 500.157 297.166C499.804 297.071 499.546 296.625 499.641 296.272C499.754 295.849 500.182 295.662 500.534 295.756C500.957 295.87 501.163 296.227 501.05 296.65ZM395.529 272.077C394.188 272.851 394.156 272.691 395.606 270.662C396.731 269 397.089 268.793 397.036 269.837C396.988 270.579 396.333 271.612 395.529 272.077ZM507.932 304.234C506.951 306.767 506.014 308.857 505.835 308.96C505.656 309.063 505.107 308.01 504.564 306.655L503.561 304.196L506.219 301.887C507.762 300.639 509.159 299.654 509.39 299.64C509.601 299.696 508.964 301.792 507.932 304.234ZM257.646 247.896C256.803 252.732 256.417 253.61 255.406 253.717C254.306 253.875 254.411 252.921 256.351 245.963C258.744 237.314 259.349 238.156 257.646 247.896ZM512.717 312.315C512.03 313.188 511.238 315.015 510.879 316.354C510.142 319.103 509.433 319.215 508.641 316.812C508.257 315.425 508.568 314.829 510.761 312.848C513.814 310.192 514.313 310.023 512.717 312.315ZM240.682 259.893C239.399 260.456 238.312 260.844 238.209 260.666C238.158 260.576 239.209 258.063 240.603 255.113C241.909 252.215 243.728 248.246 244.52 246.419C245.882 243.309 245.877 243.61 244.514 250.949L243.001 258.853L240.682 259.893ZM262.535 250.793C262.422 251.216 262.008 251.633 261.528 251.732C261.119 251.849 260.843 251.472 260.994 250.908C261.164 250.274 261.648 249.875 262.001 249.97C262.423 250.083 262.63 250.44 262.535 250.793ZM238.339 253.978C236.977 261.317 236.774 261.792 235.006 262.753L233.219 263.785L235.133 258.331C236.157 255.357 237.52 251.115 238.087 249C239.748 242.799 239.863 245.473 238.339 253.978ZM387.282 294.114C385.532 296.137 383.964 297.757 383.683 297.681C383.471 297.624 384.094 295.299 385.131 292.555C386.15 289.882 387.187 287.139 387.338 286.575C387.598 285.889 388.086 286.322 389.085 287.95L390.478 290.362L387.282 294.114ZM406.821 294.213C405.777 295.292 403.328 298.791 401.327 302.031C396.981 308.949 396.986 308.648 401.109 299.178C404.126 292.433 404.418 291.907 406.331 291.815C407.412 291.727 408.385 291.761 408.507 291.87C408.61 292.048 407.885 293.063 406.821 294.213ZM415.513 305.757C415.475 305.898 413.992 307.767 412.204 309.931C409.238 313.668 404.603 321.944 405.138 322.767C405.241 322.946 407.424 321.567 409.969 319.68L414.612 316.166L413.971 321.659C413.406 326.871 413.128 327.627 408.29 336.377C405.497 341.445 401.254 348.541 398.857 352.129C394.77 358.36 394.256 359.431 389.902 373.145C387.308 381.136 384.294 389.846 383.167 392.641C381.287 397.122 381.187 397.775 382.018 398.904C382.59 399.586 383.515 400.363 384.079 400.514C385.982 401.024 389.412 406.551 388.579 407.687C388.127 408.246 386.012 411.909 383.822 415.854L379.79 423.007L378.607 413.324C375.975 392.98 375.779 367.774 378.023 338.539C379.754 316.57 379.741 316.339 382.427 314.491L384.666 312.9L383.988 317.402C383.268 322.345 383.431 331.604 384.207 331.812C384.7 331.944 390.352 322.128 394.583 313.669C396.25 310.264 396.34 310.212 401.986 309.157C405.164 308.573 409.236 307.474 411.108 306.691C414.244 305.417 415.702 305.052 415.513 305.757ZM233.567 267.277C233.261 267.573 232.673 267.793 232.25 267.68C231.898 267.585 231.711 267.157 231.805 266.805C231.918 266.382 232.487 266.233 233.121 266.403C233.685 266.554 233.892 266.911 233.567 267.277ZM472.061 351.274C472.251 353.666 472.114 357.557 471.773 359.959C471.163 363.647 471.288 364.587 472.814 366.507C473.766 367.744 475.405 369.24 476.387 369.806L478.299 370.847L476.336 377.043L474.425 383.329L478.396 384.016C480.548 384.441 483.058 384.661 483.909 384.586C485.399 384.382 485.38 384.452 483.983 385.437C481.208 387.337 477.88 391.582 475.157 396.668L472.453 401.685L472.374 396.905C472.311 390.09 469.386 359.848 468.046 352.162L466.845 345.646L469.242 346.288C471.497 346.893 471.652 347.161 472.061 351.274ZM310.094 342.545C309.578 345.881 309.172 346.83 307.54 348.13C303.465 351.495 303.08 351.241 305.164 346.285C306.144 343.753 307.582 340.361 308.265 338.656C309.284 335.983 309.5 335.739 310.044 337.093C310.348 337.93 310.378 340.355 310.094 342.545ZM440.307 381.817C438.277 385.729 437.943 385.564 439.058 381.406C439.813 378.587 440.213 377.939 440.913 378.429C441.613 378.918 441.494 379.642 440.307 381.817ZM390.981 435.372C389.521 438.002 385.416 443.172 384.852 443.021C384.429 442.907 381.655 432.118 381.862 431.342C381.919 431.131 384.231 431.524 386.98 432.26L391.984 433.601L390.981 435.372Z" fill="black"/>
</svg>
