<svg width="467" height="820" viewBox="0 0 467 820" fill="none" xmlns="http://www.w3.org/2000/svg">
<path d="M127.489 22.6556C127.48 23.1867 127.414 26.6035 127.244 30.1991C127.145 33.7758 127.205 37.3852 127.432 38.2309C127.715 39.288 129.451 40.4092 133.157 41.8334L138.414 43.9748L134.053 44.6146C128.667 45.3779 129.025 45.5842 142.612 48.364C148.366 49.5413 153.289 50.7149 153.717 50.9024C154.074 51.1088 152.472 51.6136 150.179 52.077C142.999 53.4722 143.079 54.0549 150.525 54.779C154.479 55.1548 157.586 55.7573 157.502 56.0065C157.436 56.3262 154.294 57.8481 150.479 59.399C146.735 60.931 143.733 62.4151 143.789 62.6266C143.846 62.838 146.489 64.2447 149.523 65.6979C152.627 67.1323 155.18 68.4874 155.237 68.6988C155.294 68.9103 152.667 69.5386 149.439 70.177C146.14 70.8343 143.424 71.411 143.302 71.5193C143.025 71.8956 153.231 73.6173 161.105 74.5289C166.798 75.194 168.185 75.5777 167.74 76.4524C167.468 77.1295 167.388 77.6795 167.657 77.8342C167.835 77.9374 170.627 77.6426 173.733 77.1124C177.864 76.4588 179.598 76.4472 179.768 77.0815C179.919 77.6453 178.799 80.5136 177.346 83.5468L174.711 88.936L165.074 84.2668C149.404 76.5312 141.17 73.148 128.86 69.4972C120.392 66.9321 105.869 64.3274 98.4472 63.9746C84.3644 63.2915 61.6826 64.9126 48.0266 67.5142L41.5699 68.7911L37.5236 73.4254C29.3468 82.9432 27.751 84.8815 29.0285 84.0104C35.1666 79.571 42.9585 74.5373 43.3348 74.8141C43.6734 74.95 41.5326 77.1098 38.7058 79.529C34.5173 83.0684 33.9447 83.7506 35.6551 83.3678C36.8533 83.0468 40.5926 81.214 44.0122 79.3157C47.4129 77.347 50.3442 75.8818 50.5041 75.9145C50.6123 76.0366 48.6691 78.3701 46.2376 81.1365C43.7545 83.9924 42.0743 86.1799 42.5677 86.0477C43.0611 85.9155 46.8557 83.1614 51.1386 79.9744C55.3322 76.7358 59.0941 74.1415 59.4843 74.1881C60.1753 74.2295 53.5403 83.8629 48.6169 90.0163C46.9695 92.044 45.6178 93.7658 45.6367 93.8363C45.6745 93.9772 50.2444 91.0154 55.8476 87.3991C69.2755 78.5892 70.8022 77.8025 66.4312 82.0706C62.4969 85.9951 58.0102 91.8049 58.1852 92.7399C58.2796 93.0923 58.6836 92.9085 59.0637 92.3535C59.8944 91.2245 66.3056 87.2406 68.1381 86.7495C69.2659 86.4474 69.1866 86.9973 67.4889 90.247C63.4227 97.908 64.0621 98.0388 72.2088 90.9462C76.3973 87.4068 80.4827 84.0461 81.4128 83.5703L83.0615 82.6753L81.6771 84.5569C80.8981 85.5965 78.7674 88.358 77.0357 90.6348L73.7974 94.9015L82.5838 92.1696C87.3904 90.655 91.3186 89.5269 91.3752 89.7384C91.4319 89.9498 89.4647 91.912 87.0747 93.9876C82.3979 97.96 79.7927 100.924 81.1507 100.636C81.5736 100.522 85.5948 98.6141 90.1233 96.3432C94.6517 94.0723 98.6729 92.1639 99.0958 92.0506C99.5187 91.9373 97.5516 93.8996 94.7437 96.3892C91.9358 98.8789 90.0065 100.982 90.4671 101.01C90.9983 101.018 94.9679 99.1995 99.3554 96.9664C109.323 91.8783 109.817 91.7461 106.018 95.332C102.554 98.7531 98.8082 103.382 99.016 104.158C99.0915 104.439 102.94 103.861 107.597 102.916C120.825 100.127 120.379 99.8686 116.011 107.535C113.948 111.109 112.283 114.199 112.339 114.41C112.396 114.622 113.556 114.16 114.942 113.411C117.713 111.913 131.81 108.136 135.1 108.01L137.257 107.885L134.829 109.819C133.538 110.921 131.313 113.33 129.929 115.211C127.887 118.024 127.789 118.504 129.104 117.774C134.384 114.924 140.135 112.703 144.773 111.687L150.045 110.501L143.628 117.281C140.116 121.092 137.511 124.057 137.793 123.981C138.921 123.679 156.19 115.955 157.505 115.225C159.957 113.661 157.821 116.122 155.177 117.812C152.218 119.738 146.757 124.449 146.908 125.013C146.965 125.225 147.228 125.079 147.594 124.754C147.89 124.448 151.705 122.897 155.98 121.374C160.326 119.832 164.423 118.205 165.052 117.734C166.227 117.042 166.175 117.131 165.171 118.458C162.866 121.417 154.797 134.154 154.858 134.666C154.863 134.967 155.69 134.67 156.583 134.053C160.377 131.299 177.468 123.472 177.713 124.388C177.732 124.458 176.31 126.199 174.573 128.175C172.836 130.151 171.414 131.892 171.433 131.962C171.471 132.103 174.398 131.47 177.923 130.526C184.567 128.821 187.871 128.464 188.116 129.381C188.399 130.438 186.264 132.898 184.643 133.333C183.092 133.748 183.111 133.819 184.578 134.785C185.689 135.545 186.018 136.212 185.884 137.683C185.716 139.314 185.036 139.874 180.573 141.826C175.776 143.942 174.911 144.098 166.296 144.367C133.691 145.323 113.281 148.375 79.9948 157.219C63.5724 161.619 58.6953 163.152 53.199 165.758C34.831 174.457 25.1033 180.16 13.8516 188.915C6.79353 194.432 6.02832 195.242 2.97521 201.045C1.08494 204.422 -0.176042 207.328 0.021574 207.501C0.270788 207.586 1.54825 206.715 2.96163 205.505C4.28564 204.244 5.52533 203.232 5.73678 203.175C5.94823 203.119 5.89795 204.341 5.69288 205.831C5.55829 207.302 5.40482 208.703 5.46147 208.914C5.63142 209.548 9.16673 206.108 13.5603 201.079C15.8182 198.51 18.7707 195.151 20.2495 193.622L22.822 190.817L22.0821 193.13C21.6794 194.447 20.991 196.671 20.5745 198.218L19.788 200.921L21.2682 200.524C22.0435 200.317 24.1994 199.059 25.9652 197.755C27.7121 196.381 29.342 195.415 29.5207 195.518C29.6995 195.621 29.7777 198.169 29.5978 201.163C29.4369 204.227 29.4773 206.633 29.7593 206.558C30.0412 206.482 30.7309 205.391 31.4532 204.14C32.7054 201.765 39.075 194.242 39.9912 193.997C40.2732 193.921 40.4596 196.591 40.4447 199.918C40.4298 203.246 40.4048 205.972 40.4752 205.953C40.5457 205.934 42.0836 202.651 43.8744 198.621C45.5947 194.61 47.203 191.309 47.2735 191.29C47.4145 191.252 47.3467 193.537 47.0397 196.338C46.3705 202.862 46.6298 203.548 48.4219 200.651C50.9226 196.733 53.5656 193.91 53.8488 194.967C53.981 195.46 53.4488 198.549 52.6724 201.854C51.896 205.158 51.4481 207.998 51.6269 208.101C51.8056 208.204 53.6078 205.908 55.6819 202.936C58.9994 198.119 59.8917 197.502 58.0115 201.48C57.6176 202.266 57.454 203.065 57.7221 203.22C57.9198 203.393 59.956 200.28 62.0854 196.385C64.2853 192.473 66.2133 189.237 66.3543 189.199C66.5657 189.142 66.5243 189.833 66.3091 190.722C65.9442 192.179 66.4784 202.913 66.9253 203.171C67.104 203.274 67.7836 201.581 68.4719 199.357C69.2496 197.185 70.5244 194.049 71.3638 192.389C72.7331 189.605 72.8552 189.496 72.8666 191.231C72.849 192.293 72.3822 195.062 71.821 197.478C71.2598 199.894 70.905 201.953 71.0648 201.986C71.3518 202.211 79.0844 194.701 81.9149 191.45L83.6001 189.563L83.4895 191.406C83.4719 192.468 83.2115 194.879 82.9599 196.759C82.6378 198.659 82.6303 200.322 82.828 200.496C83.0772 200.58 84.527 198.379 86.1782 195.519L89.011 190.304L87.8849 195.969L86.7071 201.723L82.7513 203.311C76.4042 205.843 69.0855 209.541 64.8679 212.409C61.0167 214.951 60.9651 215.041 61.1994 218.452L61.4337 221.864L49.9769 232.11C43.6992 237.72 38.0369 243.089 37.3095 244.039C36.0988 245.723 36.1692 245.704 40.0734 244.205C42.2017 243.408 44.072 243.058 44.1476 243.34C44.242 243.692 42.6198 247.224 40.5282 251.259C38.5071 255.275 36.6785 259.164 36.5149 259.963C36.1638 261.19 36.3753 261.134 38.8081 259.5C40.2782 258.502 42.7211 257.47 44.3095 257.195L47.115 256.67L44.9302 261.485C42.7455 266.301 42.27 269.6 44.2031 266.665C45.118 265.287 52.5939 259.356 53.8626 259.016C54.7084 258.79 52.0694 265.011 48.7205 271.12C45.7467 276.373 45.8047 277.717 49.0697 280.317C50.4341 281.462 50.5046 281.443 53.4157 278.775C55.0028 277.368 56.5193 275.979 56.7635 275.763C57.0077 275.546 57.7516 276.631 58.4489 278.106C59.811 281.216 60.0413 281.23 65.8522 278.388C69.258 276.721 69.8219 276.569 72.3845 277.393C73.9314 277.81 75.3889 278.175 75.6003 278.118C75.8118 278.061 76.6411 275.8 77.4981 273.077C78.2846 270.374 79.0623 268.202 79.1516 268.253C79.3304 268.357 79.5532 270.034 79.8001 272.083C80.0141 274.292 80.4812 275.753 80.9418 275.78C81.332 275.827 81.3472 276.729 81.0288 277.796C80.4059 279.701 80.4953 279.752 83.0289 279.904C84.4814 279.968 85.779 280.3 85.8357 280.512C85.9112 280.794 84.7534 283.521 83.2999 286.554C80.5476 292.352 80.4596 293.434 82.7602 291.306C84.38 289.739 87.7618 287.7 87.8751 288.123C87.9318 288.334 86.3487 293.14 84.4095 298.871C82.4514 304.532 80.9715 309.159 81.1829 309.102C81.3944 309.045 83.0431 308.15 84.8656 307.058C86.7585 305.946 89.1259 304.632 90.1076 304.067L92.0383 303.096L90.8994 305.894C90.2525 307.427 89.2937 311.461 88.696 314.869L87.7021 321.027L91.3443 316.576C94.8317 312.394 101.123 306.554 101.819 306.896C101.928 307.018 101.582 308.546 100.972 310.22C100.012 313.121 99.3444 320.778 100.059 321.19C100.168 321.312 102.865 316.435 105.932 310.402C108.998 304.368 111.625 299.51 111.804 299.613C111.964 299.646 112.111 301.041 112.174 302.686C112.237 304.331 113.15 309.147 114.264 313.305L116.303 320.917L120.227 312.161C122.36 307.435 124.597 302.53 125.108 301.336L126.116 299.177L127.327 301.723C128.024 303.198 130.03 306.739 131.886 309.717L135.215 315.094L140.868 306.026C143.988 301.035 146.541 297.028 146.63 297.079C146.719 297.131 147.083 298.771 147.363 300.66C147.841 303.855 147.672 304.354 145.353 306.41C144.01 307.601 140.667 310.914 138.024 313.737L133.278 318.861L136.328 322.349L139.449 325.818L135.192 327.412C129.935 329.501 125.322 332.021 125.511 332.725C125.586 333.007 126.25 333.509 127.035 333.903C127.731 334.245 129.077 335.32 130.032 336.348L131.726 338.16L129 342.365C127.499 344.656 124.796 348.1 122.969 350.024L119.613 353.567L121.244 357.964L122.876 362.361L120.068 369.081C118.573 372.805 117.515 376.185 117.84 376.551C118.183 376.988 119.396 377.569 120.675 377.831C121.954 378.093 123.073 378.322 123.233 378.354C123.802 378.504 122.103 384.851 120.856 387.527C120.209 389.06 119.896 390.428 120.183 390.653C120.54 390.859 124.121 390.126 128.087 389.139C134.571 387.402 135.756 387.311 139.258 388.261L143.222 389.238L145.957 384.502C147.453 381.911 148.771 379.216 148.793 378.455C148.852 376.701 149.909 376.418 154.098 377.109L157.507 377.706L160.117 375.043C162.38 372.775 163.451 372.261 168.333 371.028L174.009 369.659L180.978 359.86C184.835 354.521 191.001 345.391 194.726 339.559L201.435 329.075L200.708 338.485C199.241 357.535 200.123 376.333 204.173 415.13C207.058 442.531 207.606 448.805 209.01 472.373C209.6 482.186 210.867 500.73 211.738 513.564C217.649 596.805 218.937 649.258 215.82 688.087C212.817 725.375 205.356 759.552 194.686 784.014C193.393 787.08 192.151 790.056 192.001 790.625C191.35 792.99 221.179 821.707 222.225 819.689C222.309 819.44 222.62 815.807 222.85 811.591C223.604 797.49 225.618 779.351 229.549 752.012C235.535 710.073 237.79 685.222 238.502 650.663C239.76 596.999 237.133 561.824 222.288 431.426C220.065 411.854 218.307 395.707 218.41 395.528C218.528 395.119 227.646 395.32 227.76 395.743C227.816 395.954 226.236 398.795 224.185 402.139C222.225 405.534 220.63 408.605 220.744 409.028C221.027 410.085 227.428 405.5 234.823 398.986C239.584 394.765 244.992 389.01 252.906 379.638C254.174 378.166 254.211 378.307 252.894 381.001C249.025 388.836 248.922 389.015 250.194 387.843C252.302 385.843 261.763 372.658 267.003 364.304L272.159 356.2L274.068 360.221C276.028 364.152 276.136 364.274 277.855 363.36C278.837 362.795 281.528 360.715 283.918 358.639C286.256 356.653 288.318 355.043 288.407 355.095C288.675 355.249 280.758 365.453 279.19 366.931C278.424 367.74 278.538 368.163 280.472 370.59C281.701 372.074 283.498 373.707 284.533 374.185C286.282 375.076 286.423 375.038 289.147 372.798C290.701 371.551 292.049 370.661 292.068 370.731C292.106 370.872 291.694 372.72 291.128 374.835L290.202 378.709L292.111 379.633C293.217 380.092 294.707 380.297 295.412 380.108C296.539 379.806 296.685 380.069 296.537 381.77C296.378 382.87 296.61 384.017 296.935 384.383C297.744 385.148 305.36 386.506 306.84 386.11C307.616 385.902 308.22 383.927 308.596 379.974C308.949 376.783 309.364 374.103 309.576 374.047C309.787 373.99 311.612 375.163 313.532 376.688C316.096 378.644 317.235 380.077 317.745 381.979C318.123 383.389 319.15 385.531 320.072 386.719L321.772 388.831L326.797 385.597C329.582 383.868 332.419 382.051 333.138 381.632C333.857 381.212 334.818 379.444 335.338 377.719C335.768 375.941 336.692 374.032 337.354 373.402C338.382 372.446 338.65 372.601 339.743 374.423C340.435 375.597 341.143 377.674 341.29 379.07L341.65 381.541L343.743 378.639C346.254 375.322 352.183 364.745 353.574 361.2C354.662 358.491 355.076 358.909 354.784 362.613C354.095 372.164 358.782 353.006 360.267 340.221C362.03 325.095 362.103 310.422 360.401 298.716C359.875 294.779 359.692 291.277 360.04 290.882C360.805 290.073 368.078 287.897 368.23 288.461C368.267 288.602 367.734 290.558 367.097 292.692C365.922 296.482 364.845 304.022 365.298 305.713C365.694 307.193 372.857 294.17 376.17 285.956C383.477 267.834 384.52 251.994 379.777 230.907L377.329 220.081L380.613 222.752C382.354 224.173 385.262 226.567 386.951 228.078C389.355 230.002 390.907 230.719 393.191 230.787C394.874 230.865 397.925 231.256 399.951 231.77L403.666 232.663L404.994 239.03C405.778 242.521 406.534 245.34 406.815 245.265C407.097 245.189 408.458 242.936 409.865 240.293C414.132 231.974 413.864 231.819 417.26 245.336C418.856 251.858 420.65 258.553 421.263 260.277L422.305 263.321L425.753 253.635C427.646 248.294 429.291 244.001 429.47 244.104C429.648 244.207 430.003 246.378 430.241 248.958C430.675 253.676 436.259 278.466 436.535 276.957C436.563 276.496 436.557 271.966 436.453 266.782L436.207 257.406L438.309 266.662C439.509 271.703 441.395 280.715 442.52 286.608L444.559 297.316L447.001 299.381C452.369 303.91 466.555 312.874 466.822 311.896C467.44 309.691 465.579 293.723 463.66 284.871C460.551 270.446 453.868 255.091 443.065 237.893C433.171 222.114 425.57 213.198 415.606 205.897C390.64 187.434 354.446 169.638 325.816 161.749C321.904 160.682 318.773 159.708 318.806 159.549C318.928 159.44 321.64 159.695 324.992 160.081C330.953 160.901 330.953 160.901 332.126 159.076C332.783 158.145 333.626 155.653 333.981 153.594L334.644 149.866L337.254 151.433C338.703 152.329 343.476 154.071 347.816 155.325L355.837 157.633L359.575 154.667L363.313 151.702L369.128 152.259C372.282 152.471 375.079 152.477 375.323 152.26C375.619 151.955 376.297 149.129 376.862 145.881C377.446 142.703 377.983 139.915 378.016 139.755C378.269 139.008 381.223 141.011 384.121 143.936C387.778 147.714 388.299 147.122 387.196 140.468C386.064 133.142 380.404 123.858 375.145 120.584L372.713 119.12L374.68 117.158C376.436 115.252 377.822 114.503 380.326 113.983C381.736 113.606 379.544 108.528 376.476 104.969C375.068 103.382 371.587 100.538 368.689 98.7467L363.341 95.4211L356.673 96.7546C353.092 97.4874 346.495 98.8021 342.138 99.7427L334.131 101.435L331.566 98.3457C328.803 95.0827 324.668 92.3383 322.224 92.2379C321.232 92.2015 320.185 93.0864 318.825 95.3393C317.793 97.1265 314.658 101.214 311.757 104.484L306.565 110.483L302.59 107.771C300.191 106.148 297.981 105.23 297.135 105.456C296.289 105.683 293.896 108.59 291.686 111.902C289.565 115.265 287.556 117.918 287.359 117.744C286.752 117.454 286.395 105.69 286.664 94.2883C286.96 78.1957 286.733 68.8903 285.959 66.0008C285.298 63.5342 285.1 63.3606 282.59 63.5798C279.409 63.8281 280.234 62.3984 283.829 61.4352C285.661 60.9442 286.009 60.5489 285.65 59.2099C284.895 56.3909 280.686 47.1703 280.193 47.3025C279.911 47.378 278.422 48.3057 276.952 49.3039C275.412 50.321 274.026 51.0699 273.847 50.9668C273.668 50.8636 274.996 48.7705 276.85 46.3854C278.755 43.911 280.444 41.1924 280.66 40.3039C281.3 37.3375 275.608 25.1155 268.026 13.173C265.3 8.91833 262.371 4.18917 261.532 2.75205L259.964 -0.00013943L256.991 2.15603L254 4.24172L250.224 2.83639C242.582 -0.0258523 241.68 -0.0106474 237.693 2.87054C235.786 4.21233 234.307 5.74159 234.42 6.16444C234.553 6.65776 236.152 8.11745 237.926 9.37954C243.392 13.4288 243.397 13.7296 238.964 20.5827L235.084 26.6831L239.897 30.8319L244.691 34.9102L242.684 38.696C241.497 40.7513 239.805 44.3018 238.815 46.5307L237.043 50.6311L238.944 52.0858C239.932 52.954 243.05 54.1581 245.876 54.8361C248.631 55.533 250.784 56.24 250.681 56.4187C250.578 56.5975 248.708 56.9475 246.55 57.0724C239.656 57.5602 238.655 58.0549 239.072 60.738C239.465 63.0499 239.356 62.9278 235.107 58.6279C222.513 45.4603 197.928 30.6718 180.785 25.899C177.442 24.9819 174.456 24.2712 174.245 24.3278C173.963 24.4034 175.375 26.291 177.343 28.5586C183.57 35.7276 183.687 35.3186 176.436 36.7327L170.209 38.0234L161.561 34.2224C153.411 30.5901 138.895 25.1889 130.996 22.7735C128.522 22.001 127.531 21.9646 127.489 22.6556ZM178.476 89.7398C178.167 90.2759 177.429 90.6246 176.842 90.4045C176.113 90.2221 176.108 89.9213 177.071 89.2856C178.522 88.217 179.199 88.4887 178.476 89.7398ZM249.484 73.6592C250.57 74.048 250.608 74.1889 249.843 74.9983C248.871 76.165 247.823 75.9172 247.445 74.5077C247.143 73.3801 247.739 73.0692 249.484 73.6592ZM194.394 99.5242C194.572 99.6273 194.577 99.9281 194.442 100.267C194.029 100.982 188.851 98.2902 188.567 97.2331C188.473 96.8807 189.681 97.1612 191.2 98.0382C192.771 98.8259 194.234 99.4915 194.394 99.5242ZM199.6 101.755C200.263 102.257 200.663 102.905 200.438 103.192C200.044 103.977 197.59 103.275 196.865 102.261C196.191 101.157 198.202 100.77 199.6 101.755ZM208.914 108.323C208.332 109.537 208.032 109.542 205.746 108.341C204.405 107.567 203.187 106.685 203.111 106.403C202.772 105.135 205.455 104.718 207.402 105.783C209.241 106.725 209.425 107.129 208.914 108.323ZM213.163 108.393C213.488 108.759 213.536 109.502 213.226 110.038C212.297 111.647 212.909 112.238 214.233 110.977C215.332 110.003 215.863 110.011 217.829 111.146C220.063 112.436 220.171 112.558 219.275 114.007C218.469 115.507 218.149 115.442 214.217 113.172C210.642 111.108 210.12 110.568 210.65 109.444C211.418 107.803 212.175 107.525 213.163 108.393ZM225.138 115.306C227.659 116.821 228.111 117.38 227.835 118.889C227.617 120.609 227.527 120.558 223.741 118.551C220.402 116.802 219.969 116.314 220.48 115.119C221.333 113.229 221.634 113.224 225.138 115.306ZM234.521 120.723C234.846 121.089 234.583 121.235 233.963 121.175C232.562 121.021 232.218 120.585 233.205 120.32C233.628 120.207 234.197 120.357 234.521 120.723ZM98.5347 182.993C95.5145 192.867 94.1504 195.951 92.4638 196.705C91.5337 197.181 90.7584 197.389 90.7207 197.248C90.6262 196.896 99.0103 179.693 99.3627 179.599C99.5036 179.561 99.0871 181.108 98.5347 182.993ZM118.529 178.391C117.996 180.347 117.059 183.619 116.493 185.735C115.913 188.081 115.003 189.76 114.298 189.949C113.593 190.137 112.992 190.148 112.935 189.936C112.822 189.513 119.005 175.091 119.287 175.016C119.428 174.978 119.082 176.506 118.529 178.391ZM103.918 184.195C102.972 186.865 102.068 189.978 101.858 191.167C101.62 192.817 101.048 193.499 99.5674 193.896C98.5102 194.179 97.0867 194.787 96.4385 195.187C95.7903 195.588 97.5396 192.249 100.261 187.743C102.981 183.237 105.327 179.587 105.449 179.479C105.52 179.46 104.883 181.594 103.918 184.195ZM121.393 187.67C121.544 188.234 121.183 188.859 120.619 189.01C118.786 189.501 118.973 187.941 120.988 186.721C121.039 186.632 121.242 187.106 121.393 187.67ZM90.7145 200.045C90.8089 200.397 90.269 200.919 89.4232 201.146C88.6479 201.354 88.1306 201.115 88.2476 200.706C88.3458 200.226 88.9751 199.755 89.5389 199.604C90.1028 199.453 90.6012 199.622 90.7145 200.045ZM212.643 178.628C212.265 180.316 211.228 181.802 211.001 180.957C210.85 180.393 212.285 177.289 212.778 177.157C212.919 177.119 212.878 177.81 212.643 178.628ZM289.932 216.156C294.357 229.851 296.585 238.167 299.803 252.713C303.956 271.315 304.932 277.776 302.005 266.852C301.193 263.822 298.764 256.164 296.622 249.864C291.505 234.996 280.336 193.876 281.177 193.349C282.121 192.643 283.785 196.88 289.932 216.156ZM314.154 189.271C313.502 190.504 312.701 192.305 312.382 193.372L311.689 195.295L308.649 192.408L305.628 189.592L310.491 188.289L315.303 187.075L314.154 189.271ZM305.94 207.108C304.743 208.562 304.066 208.29 302.695 205.711L301.654 203.8L304.344 204.816C306.855 205.73 306.963 205.852 305.94 207.108ZM252.147 224.845C250.565 226.553 249.427 226.254 250.69 224.48C251.469 223.441 252.239 222.932 252.493 223.317C252.747 223.702 252.546 224.361 252.147 224.845ZM269.223 220.345C269.135 221.426 268.624 222.621 268.046 223.002C267.295 223.581 267.303 223.05 268.011 220.897C269.055 217.747 269.53 217.544 269.223 220.345ZM333.751 214.763C331.194 222.699 331.194 222.699 330.229 221.07C328.933 218.773 328.829 217.819 329.816 217.555C330.239 217.441 331.441 216.288 332.304 215C334.467 212.078 334.608 212.041 333.751 214.763ZM242.225 241.1C242.961 243.849 242.929 244.008 239.524 246.809C237.674 248.362 235.941 249.506 235.762 249.403C235.405 249.197 240.605 238.437 241.169 238.286C241.31 238.248 241.791 239.479 242.225 241.1ZM259.985 246.765C261.385 246.918 261.301 247.168 259.418 248.881C258.268 249.944 255.207 253.182 252.673 256.127L248.073 261.514L252.182 254.294C256.239 247.164 256.953 246.445 259.985 246.765ZM157.12 284.072C156.367 287.748 155.683 289.14 154.091 290.246C149.296 293.495 149.139 292.63 152.966 285.487C155.025 281.611 157.029 278.657 157.386 278.864C157.814 279.051 157.695 281.425 157.12 284.072ZM346.32 234.886C345.264 236.302 343.847 238.344 343.317 239.468C342.337 241.165 342.074 241.311 341.457 240.419C339.663 237.954 339.963 236.816 342.856 235.21C344.364 234.353 345.923 233.406 346.238 233.171C348.023 231.937 348.033 232.539 346.32 234.886ZM233.534 269.564C232.149 274.542 231.129 282.294 231.764 283.256C232.019 283.641 234.863 280.16 238.167 275.574C241.419 271.077 244.671 266.58 245.379 265.559C246.538 263.964 247.032 263.832 250.623 263.701C252.799 263.646 257.198 263.147 260.426 262.509L266.178 261.421L262.732 264.913C260.816 266.785 257.888 270.516 256.269 273.216L253.253 278.027L258.18 275.272C260.862 273.722 263.216 272.638 263.395 272.742C263.573 272.845 263.205 275.134 262.578 277.87C261.638 281.974 260.437 284.26 255.608 290.766C252.408 295.173 247.555 301.308 244.847 304.451C239.223 311.094 234.392 319.564 229.03 332.256C227.005 337.104 224.196 342.69 222.83 344.643C220.634 347.724 220.452 348.452 221.309 349.96C221.804 350.96 222.74 351.918 223.347 352.209C224.363 352.616 227.871 358.097 227.472 358.581C227.369 358.76 226.153 360.143 224.712 361.813C223.271 363.484 220.83 366.781 219.277 369.161C217.795 371.522 216.387 373.033 216.235 372.469C215.877 371.13 215.909 358.281 216.319 351.071C216.801 341.877 218.49 326.469 220.309 314.651C221.666 305.903 228.923 268.986 229.472 267.933C229.626 267.665 233.027 265.696 234.451 265.088C234.643 264.961 234.288 267.02 233.534 269.564ZM348.662 252.085C348.719 252.296 348.531 252.724 348.165 253.049C347.869 253.355 347.479 253.308 347.385 252.956C347.271 252.533 347.529 252.086 347.882 251.992C348.305 251.878 348.624 251.944 348.662 252.085ZM352.313 262.89C352.407 263.242 352.22 263.67 351.797 263.784C351.444 263.878 350.997 263.62 350.903 263.268C350.79 262.845 351.067 262.469 351.419 262.374C351.842 262.261 352.199 262.467 352.313 262.89ZM359.638 269.085C359.052 269.997 357.813 272.142 357.012 273.943L355.403 277.244L354.591 274.214C353.798 271.254 353.85 271.165 356.879 269.22C360.345 266.931 361.177 266.935 359.638 269.085ZM362.639 279.158C362.536 279.336 361.344 281.091 360.139 283.076L357.793 286.726L357.527 284.606C357.234 282.948 357.628 282.162 359.412 280.929C361.39 279.568 363.301 278.527 362.639 279.158ZM314.886 308.722C316.24 309.265 316.405 309.599 316.419 313.598C316.481 318.34 316.108 320.329 314.833 323.465C313.605 326.211 314.369 328.499 317.63 331.931L320.439 334.804L317.612 340.32C316.088 343.372 314.911 346.029 314.986 346.311C315.043 346.522 317.197 347.229 319.825 347.734L324.46 348.682L321.004 351.572C319.084 353.144 315.99 356.541 314.122 359.157L310.697 363.851L311.231 358.798C311.997 350.662 312.753 321.907 312.388 314.905C312.116 311.352 312.296 308.358 312.719 308.245C313.071 308.151 314.12 308.398 314.886 308.722ZM282.394 337.445C282.564 338.079 279.082 343.695 278.378 343.884C278.166 343.94 278.743 342.426 279.525 340.555C280.974 337.221 282.035 336.106 282.394 337.445ZM222.251 383.925L226.709 385.902L224.02 389.116C221.349 392.399 219.184 394.188 218.451 393.705C217.825 393.344 216.755 382.3 217.318 382.149C217.6 382.074 219.862 382.903 222.251 383.925Z" fill="black"/>
</svg>
