<svg width="699" height="1687" viewBox="0 0 699 1687" fill="none" xmlns="http://www.w3.org/2000/svg">
<path d="M335.756 3.60108C334.956 5.73442 332.823 13.3344 330.823 20.6678C328.956 28.0011 325.623 37.2011 323.489 41.2011C318.689 50.2678 318.423 53.8678 322.689 52.6678C324.289 52.1344 326.823 50.5344 328.156 48.9344C330.556 46.1344 330.689 46.1344 329.756 48.6678C329.223 50.1344 326.556 55.0678 323.889 59.6011C320.289 65.6011 317.889 68.1344 314.956 68.9344C311.756 69.8678 310.956 70.9344 310.823 74.0011C310.689 76.2678 310.156 79.0678 309.623 80.2678C308.289 83.7344 309.756 84.9344 314.289 84.2678L318.423 83.7344L312.956 94.6678C309.889 100.668 307.756 105.868 308.156 106.268C308.556 106.668 310.689 106.401 312.823 105.601C316.689 104.268 316.956 104.401 316.956 107.334C316.956 112.268 319.756 112.801 323.223 108.534C325.756 105.334 326.556 105.068 327.623 106.668C328.956 108.934 326.156 112.801 322.023 114.134C319.623 114.801 319.623 115.068 321.756 116.668C323.089 117.601 325.223 118.001 326.556 117.601C330.156 116.668 329.889 123.468 326.289 124.668C324.823 125.201 324.023 126.134 324.423 126.934C324.956 127.601 324.556 129.734 323.489 131.468C321.356 135.601 322.556 136.668 327.356 134.934C333.889 132.668 335.089 134.934 330.689 141.468C327.356 146.534 324.823 148.268 308.023 156.268C297.623 161.201 287.756 165.334 286.023 165.468C283.623 165.468 284.023 166.001 288.289 167.868C291.223 169.201 295.889 170.668 298.689 171.201L303.623 172.134L300.156 178.401C298.156 181.868 294.956 186.268 292.823 188.134C287.889 192.401 288.023 194.001 292.956 196.801L296.956 199.201L294.156 202.268C292.423 204.001 291.623 206.001 292.156 207.468C292.823 209.201 292.423 209.468 290.289 208.934C288.689 208.534 284.823 209.068 281.489 210.268C276.156 212.134 275.089 212.001 270.289 210.134C263.356 207.334 263.623 207.334 263.623 212.001C263.623 214.668 262.956 216.001 261.623 216.001C260.556 216.001 259.623 216.534 259.623 217.334C259.623 218.001 261.089 218.668 262.689 218.668C264.423 218.668 266.823 219.734 268.023 221.068C270.023 223.201 270.023 223.601 267.889 224.934C266.689 225.734 264.556 228.268 263.223 230.534C260.823 234.668 260.823 234.668 263.623 234.668C265.223 234.668 266.023 235.201 265.623 236.001C265.223 236.668 266.423 239.601 268.423 242.668C271.356 247.068 271.756 248.934 271.089 253.334L270.289 258.668L276.289 260.134L282.156 261.601L280.156 265.601C276.823 271.868 278.289 273.334 288.156 273.334C296.689 273.334 296.956 273.468 299.089 277.601C302.023 283.468 303.223 284.001 309.889 283.068C315.356 282.401 315.623 282.401 315.623 285.868C315.623 289.868 319.223 290.534 324.023 287.334C326.823 285.601 327.356 285.734 330.823 289.468L334.689 293.468L333.756 315.734C333.356 328.001 332.556 344.534 332.023 352.401L331.223 366.801L326.689 368.668C319.089 371.868 299.756 374.934 288.289 374.934C276.823 374.801 262.289 372.268 248.823 367.868C238.556 364.534 214.289 353.334 214.289 352.001C214.289 351.468 212.823 350.668 211.223 350.134C207.223 349.201 186.289 333.734 178.023 325.734L171.756 319.601L170.156 323.068C168.689 326.401 169.356 329.734 174.023 340.268C174.289 340.934 173.223 341.334 171.756 341.334C170.156 341.334 168.956 341.868 168.956 342.534C168.956 343.201 167.623 344.001 166.023 344.268C163.089 344.668 163.089 344.801 167.356 349.068C169.623 351.601 171.623 353.868 171.623 354.268C171.623 354.534 172.956 356.001 174.423 357.201C177.223 359.468 177.223 359.601 167.889 364.134C162.689 366.668 158.289 369.068 158.289 369.468C158.289 370.001 160.689 370.668 163.623 371.068C166.689 371.468 171.089 373.334 173.623 375.201C176.023 377.068 179.089 378.668 180.156 378.668C181.356 378.668 182.289 379.201 182.289 380.001C182.289 382.134 186.289 381.601 187.089 379.334C187.756 377.734 188.289 377.601 189.756 378.801C191.356 380.134 191.356 380.801 188.956 382.934C185.356 386.401 185.623 388.268 190.423 391.868C193.889 394.401 194.289 395.468 193.623 398.801C192.823 402.268 193.089 402.668 196.023 402.668C197.756 402.668 200.023 401.734 200.956 400.668C201.889 399.468 203.356 398.801 204.156 399.068C204.956 399.334 206.956 399.068 208.689 398.534C211.356 397.468 211.623 397.734 211.623 402.668C211.623 407.734 211.889 408.001 215.756 408.001C218.023 408.001 219.489 408.534 218.956 409.334C218.556 410.001 216.956 410.668 215.489 410.668C214.156 410.668 212.956 411.201 212.956 412.001C212.956 414.134 220.556 413.468 222.956 411.201C226.156 408.001 230.956 409.868 233.623 415.334C235.623 419.868 235.623 420.401 233.623 423.601L231.356 427.068L235.089 426.134C237.223 425.601 240.023 423.868 241.356 422.401C243.356 420.001 244.023 419.868 244.956 421.334C245.623 422.401 245.489 424.268 244.689 425.734C243.756 427.601 243.756 428.001 244.823 427.334C247.223 425.868 254.289 428.001 254.289 430.134C254.289 431.734 258.956 442.134 260.289 443.734C261.223 444.801 265.223 441.601 267.623 438.134C270.289 433.868 283.623 428.401 283.623 431.334C283.623 432.268 282.156 434.001 280.289 435.201C276.156 437.868 275.623 444.001 279.356 444.001C280.823 444.001 282.956 442.801 284.156 441.468C286.289 439.201 286.823 439.068 290.423 440.934C293.756 442.534 294.289 443.601 294.289 448.001C294.289 453.068 294.556 453.334 300.023 454.801C303.089 455.601 306.423 456.534 307.356 456.801C308.423 457.068 308.956 460.534 308.956 468.001V478.668H312.689C314.689 478.668 318.823 477.468 322.023 476.001L327.623 473.468V487.468C327.623 495.201 327.089 502.668 326.289 504.001C323.223 509.734 317.089 511.601 296.289 513.068C253.223 516.268 248.823 516.401 238.956 514.001C219.623 509.601 210.556 505.601 176.689 487.068C162.956 479.468 151.356 473.334 150.956 473.334C149.889 473.334 154.156 481.334 158.023 486.534L161.356 491.068L157.889 490.134C154.956 489.468 154.556 489.734 155.223 491.601C156.823 495.868 152.689 491.734 150.823 487.201C149.089 483.068 140.956 477.068 140.956 479.868C140.956 480.534 143.623 485.068 146.956 489.868L152.823 498.534L147.889 498.934L142.956 499.334L148.023 502.534C150.823 504.268 152.823 506.268 152.556 507.201C152.156 508.001 152.823 509.734 154.023 510.934C155.889 513.201 155.756 513.334 151.889 513.334C147.356 513.334 146.423 514.268 146.023 519.201C145.756 521.868 144.689 522.934 140.956 524.134C138.423 524.934 135.756 526.134 135.223 526.668C133.756 528.001 139.489 532.001 142.956 532.001C144.423 532.001 146.423 532.534 147.356 533.201C148.823 534.134 148.556 534.934 146.289 537.068C142.823 540.268 143.489 543.601 148.023 544.668C152.289 545.734 154.956 550.268 152.823 552.801C150.556 555.601 152.289 558.268 157.223 559.334C163.489 560.668 164.023 561.334 161.489 564.134C158.689 567.334 159.356 568.001 166.156 568.934C170.823 569.601 172.556 570.801 177.089 576.534C182.689 583.601 192.423 591.068 194.823 590.268C195.623 590.001 196.423 588.401 196.689 586.801C196.956 584.801 197.889 584.001 199.356 584.268C201.223 584.668 201.489 586.001 201.223 590.801L200.823 596.934L205.089 596.268C208.823 595.734 210.023 596.268 213.223 600.134C215.889 603.334 216.956 603.868 216.956 602.268C216.956 601.068 219.089 597.601 221.756 594.668C225.489 590.668 227.089 589.601 228.289 590.668C229.623 591.734 231.489 591.601 235.089 590.001C237.756 588.934 240.289 588.268 240.689 588.668C241.089 589.068 240.823 592.001 240.023 595.334C238.956 600.268 238.956 601.334 240.556 601.334C242.423 601.334 242.823 600.534 244.289 594.134C245.089 590.534 245.356 590.401 250.423 591.068C256.556 591.868 260.956 595.201 260.956 599.068C260.956 601.601 261.089 601.601 263.489 599.468C264.956 598.134 266.423 595.468 266.956 593.601L267.889 590.001L269.889 593.868C271.356 596.534 271.756 599.734 271.223 604.268C270.423 610.268 270.556 610.668 272.956 609.334C276.423 607.468 278.289 603.734 278.289 598.801C278.289 594.001 280.289 593.601 286.423 596.801C292.423 599.868 293.756 598.534 294.689 589.601C295.089 585.068 295.756 580.934 296.156 580.134C297.623 577.734 300.556 580.001 302.956 585.468C304.289 588.268 305.889 590.668 306.423 590.668C309.623 590.668 311.623 579.734 308.956 578.001C306.956 576.801 309.889 573.334 312.823 573.334C314.023 573.334 316.423 574.401 318.156 575.601L321.356 577.734L320.556 571.734C319.756 566.001 320.689 564.001 324.289 564.001C324.556 564.001 324.556 566.801 324.156 570.268C323.756 573.868 324.023 589.868 324.823 606.001C325.756 622.134 326.689 642.934 327.223 652.134L328.023 668.934L315.489 673.068C295.356 679.601 275.623 684.268 272.023 683.334C270.156 682.934 267.889 683.201 266.823 684.134C265.356 685.334 260.156 685.468 247.756 684.801C201.223 682.401 154.023 670.134 127.356 653.734C122.156 650.534 117.756 648.134 117.489 648.401C117.223 648.534 119.756 652.268 123.089 656.668C126.289 661.068 128.956 665.201 128.956 665.868C128.956 666.534 130.289 669.734 131.756 672.934C134.823 679.334 134.289 681.468 130.156 678.934C128.423 677.868 125.756 677.468 123.223 678.134C119.223 678.934 119.089 679.068 122.023 680.134C126.289 681.734 125.623 683.601 120.956 682.934C118.156 682.534 116.956 682.934 116.956 684.134C116.956 687.734 122.289 694.668 125.489 695.468C127.356 695.868 129.756 697.734 130.956 699.468C132.023 701.201 133.889 702.668 134.956 702.668C137.489 702.668 137.489 704.001 134.823 707.734C133.756 709.334 133.489 710.668 134.156 710.668C134.956 710.668 135.623 711.201 135.623 711.868C135.623 712.534 125.756 713.334 113.756 713.601C101.756 713.734 91.3558 714.401 90.8225 715.068C88.0225 717.868 98.9558 730.001 106.423 732.134C110.556 733.468 111.356 734.134 110.156 735.601C109.356 736.534 107.489 737.334 106.023 737.334C104.423 737.334 103.623 738.001 104.156 738.934C104.423 739.868 105.489 742.934 106.423 745.601C107.889 750.268 108.423 750.668 113.223 750.668C118.023 750.668 118.156 750.801 116.689 753.334C115.356 755.468 115.489 756.668 117.356 760.001C118.823 762.401 119.489 765.201 118.956 766.668C118.156 768.934 118.689 769.334 122.956 769.334C125.623 769.334 132.023 770.268 137.089 771.468C146.023 773.468 148.156 773.468 153.089 771.468C154.423 770.801 155.623 771.601 156.689 774.001C158.689 778.268 159.889 778.268 166.956 773.334C170.156 771.068 173.223 769.334 173.756 769.334C174.156 769.334 176.956 771.468 179.756 774.001C182.689 776.534 186.156 778.668 187.623 778.668C190.689 778.668 194.823 774.534 196.956 769.201C198.689 765.068 200.423 764.268 201.223 766.934C201.889 768.668 208.423 766.534 217.489 761.601C220.023 760.401 221.623 760.134 221.889 760.934C222.156 761.734 223.223 763.334 224.156 764.668C225.756 766.934 226.289 766.934 233.489 763.601C242.556 759.468 243.889 760.668 240.423 770.001C238.156 775.734 237.889 775.868 229.223 777.868C203.889 783.601 188.289 785.201 183.356 782.534C180.956 781.201 180.823 781.468 181.623 784.134L182.556 787.068L164.423 786.268C154.423 785.868 146.023 786.134 145.623 786.668C145.223 787.334 147.489 789.601 150.556 791.734C153.756 794.001 158.423 797.868 160.823 800.534C163.356 803.201 166.556 805.334 167.889 805.334C170.956 805.334 170.956 807.068 167.623 810.001C164.689 812.668 165.223 814.401 169.489 816.001C172.023 816.934 171.756 817.201 166.556 819.334C162.023 821.201 161.223 822.001 162.423 823.468C164.289 825.734 176.023 829.334 181.756 829.334C187.356 829.334 189.756 832.134 186.556 834.934C185.356 836.134 182.956 837.468 181.223 837.868C179.623 838.401 177.623 840.001 176.956 841.468C175.356 844.268 174.823 844.001 192.289 850.134C211.223 856.801 219.356 856.801 227.489 849.868C232.156 846.001 233.756 846.401 234.956 851.868L235.756 855.734L240.556 853.868C243.089 852.801 247.889 852.001 251.223 852.268L257.356 852.668L251.223 860.134C243.623 869.468 238.423 872.001 216.956 877.334C183.223 885.468 174.023 886.001 147.356 881.334C142.423 880.401 137.623 880.001 136.823 880.268C135.756 880.668 137.356 883.068 140.689 886.401C145.623 891.334 145.889 892.001 143.489 892.668C141.356 893.334 134.289 901.068 134.289 902.801C134.289 903.068 137.623 903.068 141.623 902.934C147.356 902.534 148.956 902.801 148.956 904.401C148.956 906.534 144.289 912.934 140.289 916.134C138.156 918.001 137.889 919.068 139.089 922.134C140.423 926.268 143.223 926.801 150.556 924.934C153.623 924.134 154.023 924.401 153.356 926.134C152.556 928.134 153.756 928.268 165.356 927.334L178.289 926.401V930.534C178.289 933.734 179.089 935.068 181.489 936.001C183.223 936.668 185.756 936.934 187.089 936.668C198.289 934.401 198.289 934.401 198.289 938.934V943.068L208.956 942.268C217.756 941.601 219.623 941.734 219.623 943.334C219.623 945.868 220.289 945.868 231.756 943.201L240.956 941.068L246.823 944.534C250.689 946.801 254.823 948.001 258.556 948.001C265.489 948.001 266.956 948.934 268.156 953.601C268.823 956.534 269.756 957.334 272.689 957.334C276.423 957.334 290.156 955.201 294.556 953.868C296.289 953.334 296.689 953.734 296.156 955.201C295.756 956.401 295.756 957.334 296.289 957.334C297.756 957.334 305.223 952.001 310.023 947.468L314.289 943.468V958.934V974.268L306.956 972.668C298.023 970.534 294.556 971.334 293.489 975.601C292.689 978.668 292.289 978.801 284.423 978.001C280.023 977.601 263.756 976.668 248.423 976.001C233.089 975.201 220.156 974.401 219.623 974.001C219.089 973.734 210.023 972.801 199.356 972.134C188.556 971.334 176.689 970.001 172.689 969.201C151.889 965.068 124.156 958.268 123.489 957.201C122.423 955.334 97.8892 947.068 86.2892 944.668C80.8225 943.468 71.7558 942.001 66.2892 941.468C60.8225 940.934 55.2225 940.001 54.0225 939.334C52.1558 938.668 51.6225 939.068 51.6225 941.201C51.6225 943.068 50.9558 943.734 49.6225 943.201C48.5558 942.668 47.6225 943.068 47.6225 943.868C47.6225 944.668 48.5558 945.334 49.6225 945.334C50.9558 945.334 51.6225 946.268 51.3558 947.601C50.9558 949.601 52.4225 950.134 60.6892 950.801C73.2225 951.734 75.4892 953.601 72.0225 960.401C70.0225 964.401 68.8225 965.334 65.6225 965.334C63.4892 965.334 60.6892 965.868 59.7558 966.534C58.1558 967.601 58.4225 968.134 61.0892 969.068C62.8225 969.868 66.9558 970.934 70.2892 971.601L76.2892 972.801L70.6892 976.534L64.9558 980.268L67.7558 983.868L70.5558 987.334L62.5558 987.734C56.6892 988.001 54.0225 988.801 52.2892 990.668C50.0225 993.201 50.0225 993.334 54.6892 995.334C57.3558 996.401 62.6892 997.334 66.5558 997.334L73.6225 997.468L69.7558 1000.8C65.0892 1004.93 66.5558 1006.67 74.6892 1006.67C79.8892 1006.67 80.6892 1007.73 78.0225 1010.4C75.8892 1012.53 77.2225 1012.4 88.8225 1009.33C99.0892 1006.53 102.023 1006.67 96.8225 1009.33C91.7558 1012.13 71.8892 1028.13 71.0892 1030.13C70.1558 1032.67 74.8225 1032.67 76.8225 1030.13C80.0225 1026.27 96.8225 1015.73 99.0892 1016.27C104.023 1017.2 102.156 1020.13 93.0892 1026C84.4225 1031.6 78.2892 1037.47 78.2892 1040.13C78.2892 1040.8 80.1558 1041.33 82.2892 1041.33C87.3558 1041.33 87.3558 1042.67 82.2892 1046.4C76.2892 1050.93 77.4892 1052.53 84.0225 1048.67C87.2225 1046.8 91.3558 1045.33 93.0892 1045.33C97.2225 1045.33 107.889 1048.53 106.956 1049.47C106.556 1049.87 107.089 1052.53 108.023 1055.33L109.756 1060.4L114.023 1055.2C117.889 1050.53 126.289 1032.93 126.289 1029.47C126.289 1027.2 129.623 1027.73 133.356 1030.8C138.289 1034.53 140.423 1042.27 138.289 1048.53C137.356 1051.33 136.956 1053.73 137.223 1054C138.689 1055.47 149.489 1048.4 155.623 1041.87C162.289 1034.8 162.556 1034.67 170.023 1034.67C174.156 1034.67 178.556 1035.33 179.623 1036C181.356 1037.07 181.356 1037.33 179.489 1037.33C178.289 1037.33 176.289 1038.53 174.956 1040C173.489 1041.6 170.823 1042.67 168.289 1042.67C163.356 1042.67 161.756 1043.73 163.623 1046C164.689 1047.33 162.956 1048.13 156.289 1049.33C151.489 1050.27 147.223 1051.6 146.823 1052.27C146.423 1052.93 144.423 1054.13 142.556 1054.93C139.223 1056.27 139.089 1056.4 141.623 1057.33C143.089 1058 148.023 1058.53 152.556 1058.53C157.089 1058.67 161.223 1059.33 161.623 1060C162.156 1060.93 164.689 1059.47 167.889 1056.67C171.889 1052.93 173.623 1052.13 174.956 1053.33C175.889 1054.13 176.423 1056 176.023 1057.33C175.623 1059.07 176.023 1060 177.089 1060C178.156 1060 176.289 1062.53 172.956 1065.47L166.956 1070.8L173.623 1070C184.556 1068.67 186.689 1068.27 191.623 1066.8C194.156 1066 197.756 1065.33 199.623 1065.33C204.023 1065.33 212.289 1060.93 218.689 1055.07C223.623 1050.67 223.889 1050.53 225.756 1052.93C227.489 1055.2 227.756 1055.2 231.089 1051.47C233.623 1048.53 234.823 1048 235.623 1049.33C236.156 1050.27 237.223 1050.67 237.889 1050.27C238.689 1049.73 241.089 1051.2 243.223 1053.33C245.489 1055.6 248.823 1058.13 250.823 1059.2L254.289 1060.93L250.289 1062.67C248.156 1063.6 246.289 1065.2 246.289 1066.13C246.289 1069.6 248.956 1068 256.689 1060C261.089 1055.6 265.489 1052 266.689 1052C268.023 1052 268.956 1051.07 268.956 1050C268.956 1048.93 269.889 1048 270.956 1048C272.156 1048 272.956 1049.2 272.956 1051.33V1054.8L278.023 1050.93C281.756 1048 284.956 1046.8 290.956 1046.13C295.356 1045.73 300.289 1044.93 301.889 1044.53C304.556 1043.73 304.689 1044.13 304.023 1049.2C303.356 1054.13 303.623 1054.67 306.023 1054.67C307.623 1054.67 309.756 1053.33 310.823 1051.73C312.689 1049.2 312.956 1049.07 313.756 1051.2C314.289 1052.4 314.023 1061.47 313.089 1071.07C312.289 1080.8 311.623 1091.73 311.623 1095.6C311.623 1100.93 311.223 1102.4 309.756 1101.87C308.423 1101.33 307.756 1103.07 307.089 1108.27C305.089 1126.27 305.889 1124.93 293.756 1128.8C258.823 1139.87 226.556 1144.27 180.289 1144.27C156.423 1144.27 145.889 1143.6 124.289 1140.8C109.623 1138.8 92.5558 1136.13 86.4225 1134.8C80.1558 1133.33 74.6892 1132.4 74.2892 1132.67C73.4892 1133.2 66.1558 1131.47 46.2892 1126C31.0892 1122 0.822505 1115.73 0.0225045 1116.53C-0.244162 1116.8 1.88917 1118.4 4.8225 1120C7.62251 1121.73 9.75584 1123.73 9.48917 1124.53C9.08917 1125.47 10.4225 1126.93 12.1558 1128C14.8225 1129.33 15.3558 1130.4 14.8225 1132.93C14.1558 1135.6 14.6892 1136.4 19.4892 1138.4C22.4225 1139.6 24.9558 1141.07 24.9558 1141.47C24.9558 1142.27 17.8892 1146 13.8892 1147.2C11.7558 1147.87 11.8892 1148.27 14.5558 1151.47C16.2892 1153.33 17.7558 1155.6 17.7558 1156.4C17.8892 1157.33 18.0225 1158.67 18.1558 1159.6C18.1558 1160.4 19.7558 1162.93 21.6225 1165.07L24.9558 1169.07L20.5558 1170.8L16.2892 1172.67L23.6225 1173.33L30.9558 1174L24.2892 1177.07C16.2892 1180.8 17.7558 1182.53 28.9558 1182.8C32.9558 1182.8 35.3558 1183.2 34.2892 1183.6C25.0892 1187.07 25.3558 1186.93 28.2892 1188C29.7558 1188.67 33.6225 1189.2 36.9558 1189.33C42.0225 1189.33 42.5558 1189.6 40.4225 1190.93C38.0225 1192.27 38.0225 1192.4 41.0892 1194.13C42.8225 1195.07 47.3558 1196 50.9558 1196C56.0225 1196 57.0892 1196.4 55.6225 1197.47C54.1558 1198.53 54.9558 1198.67 58.6892 1198C64.1558 1197.2 64.4225 1197.73 61.6225 1202.67C58.2892 1208.67 58.9558 1209.6 66.2892 1209.07C70.0225 1208.93 72.9558 1209.07 72.9558 1209.47C72.9558 1210 70.8225 1212.27 68.2892 1214.53C65.7558 1216.8 63.6225 1219.6 63.6225 1220.8C63.6225 1222.8 64.6892 1222.93 72.2892 1222.13C81.4892 1221.2 96.6892 1223.07 101.889 1225.73L105.089 1227.47L102.023 1230.27C100.289 1231.87 96.0225 1234.8 92.4225 1236.93C88.8225 1239.07 85.6225 1241.47 85.2225 1242.4C84.9558 1243.2 86.5558 1245.87 88.9558 1248.13C92.8225 1252.13 93.4892 1252.27 101.623 1251.73C106.423 1251.47 110.289 1251.33 110.289 1251.33C110.289 1251.47 107.356 1255.33 103.623 1260.13C98.0225 1267.47 97.3558 1268.67 99.4892 1269.07C100.823 1269.33 106.023 1267.6 111.089 1265.33C116.023 1263.2 120.289 1261.6 120.689 1261.87C120.956 1262.27 120.556 1264.4 119.756 1266.8C116.689 1275.87 117.756 1276.27 130.023 1271.33C134.556 1269.47 138.556 1268 139.089 1268C139.489 1268 139.623 1271.33 139.356 1275.33C138.956 1283.2 139.889 1284.13 144.156 1280.13C145.756 1278.67 148.156 1277.33 149.623 1277.07C151.889 1276.67 152.156 1277.33 151.889 1281.07C151.489 1285.2 151.623 1285.47 154.556 1284.67C161.089 1282.67 173.223 1275.47 175.489 1272.13C176.823 1270.27 178.556 1266.8 179.223 1264.67C180.556 1260.53 181.223 1260.4 188.556 1262C192.289 1262.93 193.489 1262.4 196.956 1258.67C199.089 1256.27 200.956 1254.93 200.956 1255.6C200.956 1256.27 201.756 1257.87 202.689 1259.2C204.289 1261.47 204.823 1261.47 208.423 1259.6C210.556 1258.53 213.089 1256.13 214.023 1254.4C216.289 1250.4 222.956 1249.73 224.956 1253.33C226.956 1257.2 229.889 1256.67 232.289 1252C234.689 1247.33 234.556 1247.33 239.623 1250C243.223 1251.87 244.023 1251.87 247.623 1250C250.023 1248.8 252.956 1248.27 254.556 1248.67C258.023 1249.87 256.823 1250.67 245.889 1255.2C239.089 1258.13 237.089 1259.47 237.489 1261.2C237.889 1262.4 238.556 1265.07 238.956 1267.33C240.689 1274.93 241.089 1276 243.089 1276C244.156 1276 245.356 1275.07 245.756 1274C246.156 1272.93 247.756 1271.73 249.356 1271.2C250.956 1270.67 254.423 1268.67 256.956 1266.67C261.623 1263.07 274.289 1259.87 274.289 1262.4C274.289 1264.27 264.289 1271.73 260.423 1272.8C254.289 1274.27 256.556 1276.4 263.623 1275.73C270.156 1275.07 270.289 1275.07 270.289 1278.8C270.289 1280.93 270.823 1282.67 271.489 1282.67C272.289 1282.67 272.956 1284.93 273.223 1287.6C273.623 1293.33 273.356 1293.47 282.289 1282.67C284.689 1279.87 286.289 1278.8 286.289 1280C286.289 1283.07 269.756 1297.73 255.756 1307.2C222.689 1329.33 181.756 1345.87 122.156 1361.07C110.823 1364 98.2892 1366.8 94.2892 1367.33C90.2892 1367.73 80.6892 1370.13 72.9558 1372.53C65.2225 1374.93 53.6225 1378.27 46.9558 1379.87C25.8892 1385.07 24.8225 1385.33 25.7558 1386.93C26.4225 1388 34.2892 1388.13 52.5558 1387.47C77.8892 1386.53 78.4225 1386.53 77.0892 1389.07C76.0225 1390.93 73.6225 1392 68.2892 1392.67C64.2892 1393.07 60.4225 1393.2 59.6225 1392.67C57.4892 1391.33 58.0225 1393.6 60.9558 1398.4C62.4225 1400.8 65.7558 1404 68.2892 1405.47C74.0225 1408.93 74.1558 1410.13 68.9558 1413.07C64.2892 1415.73 64.0225 1417.33 67.6225 1420.67C69.0892 1422 70.2892 1424.27 70.2892 1425.73C70.2892 1428.13 70.9558 1428.27 78.2892 1427.6L86.2892 1426.93L83.4892 1431.47C80.2892 1436.67 80.6892 1438.27 84.6892 1436.13C90.0225 1433.33 92.0225 1434.27 91.0892 1439.2L90.2892 1443.6L96.5558 1442.53C102.023 1441.47 142.423 1437.33 147.223 1437.33C148.823 1437.33 148.023 1442.27 146.023 1444.93C144.289 1447.07 149.356 1450.13 157.623 1452C171.356 1454.93 171.489 1455.33 163.356 1463.6C158.556 1468.53 158.023 1469.47 159.623 1471.47C161.223 1473.2 162.956 1473.47 168.956 1472.8C175.356 1472 177.089 1472.4 179.889 1474.53L183.356 1477.33L193.756 1473.07C204.823 1468.67 208.956 1465.87 209.489 1462.13C209.623 1460.93 210.156 1460 210.689 1460C211.223 1460 212.156 1460 212.689 1460C213.356 1460 214.556 1461.47 215.356 1463.33L216.823 1466.67L221.623 1463.33C227.089 1459.73 228.423 1459.2 237.356 1458C244.556 1457.07 245.223 1455.33 240.823 1449.33C238.023 1445.73 238.023 1445.33 240.156 1442.13C241.356 1440.27 243.356 1438.13 244.556 1437.47C245.889 1436.8 248.423 1433.47 250.289 1430.13C252.023 1426.8 253.889 1424 254.289 1424C256.423 1424 262.556 1431.47 263.223 1434.8C264.689 1442.27 269.223 1437.73 268.689 1429.33L268.289 1423.6L276.289 1420.67C283.623 1417.87 284.556 1417.73 287.356 1419.6C291.223 1422 291.889 1421.33 293.623 1414.27C294.689 1410.13 295.756 1408.67 297.623 1408.67C300.156 1408.67 300.289 1409.6 300.289 1422C300.156 1429.33 299.889 1441.6 299.623 1449.33C299.223 1458.13 299.756 1466.53 300.823 1472C302.289 1479.07 302.423 1491.6 301.223 1542.4C300.156 1585.33 300.156 1607.6 301.089 1615.73C302.289 1625.87 302.156 1628.27 300.289 1632.8C296.289 1642 295.623 1645.47 295.489 1659.6C295.223 1672 294.956 1673.6 292.423 1675.33L289.756 1677.33H292.689C294.289 1677.33 298.023 1678.8 300.956 1680.67C303.889 1682.53 307.623 1684 309.223 1684C310.956 1684 316.556 1684.8 321.756 1685.87C332.956 1688 371.489 1686.4 380.289 1683.47C383.223 1682.4 390.023 1681.2 395.489 1680.67C400.956 1680.13 408.423 1678.67 412.023 1677.47L418.689 1675.2L413.089 1673.47L407.489 1671.87L410.289 1668.4C414.956 1662.4 413.623 1659.33 406.423 1659.73C404.823 1659.73 404.689 1654.53 405.356 1625.6C405.889 1602.4 405.489 1584 404.289 1568.67C402.823 1549.47 402.823 1545.6 404.423 1543.33C405.489 1541.87 406.289 1539.33 406.289 1537.6C406.289 1535.87 407.223 1531.2 408.289 1527.33C410.156 1521.2 410.289 1516 409.089 1489.07C407.223 1448.8 405.223 1412.13 404.156 1401.6C403.623 1397.07 403.756 1393.33 404.156 1393.33C405.889 1393.33 411.489 1407.2 412.023 1412.67C412.289 1415.6 412.956 1418.93 413.356 1420C413.889 1421.07 414.423 1424.67 414.556 1428C414.823 1432.8 415.489 1434 417.623 1434.4C424.156 1435.33 426.023 1437.73 431.089 1450.53C433.756 1457.6 436.423 1463.87 436.956 1464.4C438.423 1466 445.489 1462.13 449.356 1457.47C452.423 1453.73 452.823 1453.6 454.689 1455.73C455.756 1456.93 457.889 1460.4 459.356 1463.33C462.556 1469.6 466.823 1474 468.823 1472.67C469.623 1472.27 470.289 1468.4 470.289 1464.27C470.289 1454.93 471.489 1452.93 476.423 1453.6C479.889 1454 480.289 1454.67 481.756 1461.73C482.556 1466 485.356 1474.27 487.756 1480.13C492.823 1491.87 495.356 1493.33 500.956 1487.33C504.423 1483.6 506.289 1483.07 506.289 1485.73C506.289 1486.8 508.423 1489.73 510.956 1492.4L515.756 1497.33L516.956 1493.87C517.756 1492 518.823 1490.8 519.489 1491.2C520.156 1491.73 523.489 1496.4 526.956 1501.73C534.023 1512.53 542.556 1522 547.756 1524.67C552.156 1527.07 552.956 1526.27 552.956 1519.87C552.956 1514.8 553.089 1514.8 556.556 1516.13C558.423 1516.8 562.423 1519.6 565.356 1522.13C568.156 1524.8 570.956 1526.53 571.356 1526C571.889 1525.47 572.556 1520.93 572.956 1515.87L573.623 1506.67L580.156 1512C584.956 1516 587.756 1517.33 591.223 1517.33H596.023L595.089 1510C594.689 1506 594.689 1502.67 595.089 1502.67C595.623 1502.67 597.889 1504.13 600.156 1505.87C605.356 1509.87 614.956 1514.67 617.489 1514.67C620.423 1514.67 618.023 1508.8 611.623 1500.27C608.689 1496.4 606.289 1492.93 606.289 1492.53C606.289 1491.07 622.956 1493.47 623.889 1495.07C624.689 1496.27 624.956 1496.13 624.956 1494.93C624.956 1494 626.423 1491.2 628.156 1488.93C629.889 1486.53 631.756 1483.33 632.289 1481.6C633.489 1477.6 637.356 1475.73 644.023 1476.13C649.623 1476.53 649.623 1476.53 649.356 1472.13L649.223 1467.6L659.089 1468.4C664.423 1468.93 671.623 1468.93 674.956 1468.4L680.956 1467.6L671.756 1464.53C666.689 1462.8 658.423 1460.4 653.489 1459.2L644.423 1456.93L648.956 1455.33C651.356 1454.53 653.756 1453.07 654.023 1452.27C654.289 1451.33 651.489 1448.8 647.756 1446.53L640.956 1442.27L644.689 1440C646.689 1438.67 650.023 1435.73 652.156 1433.2L655.889 1428.8L652.956 1427.73L649.889 1426.67L652.823 1424.13C657.223 1420.27 654.023 1419.6 645.356 1422.53C631.756 1427.07 606.956 1432 597.623 1432C586.023 1432 569.889 1427.33 549.089 1417.73C545.889 1416.27 544.289 1416.13 543.223 1417.2C541.223 1419.2 537.889 1419.07 538.689 1416.93C539.756 1414.27 538.823 1413.33 526.289 1404.67C497.756 1385.07 476.823 1367.73 466.823 1355.87C461.356 1349.2 456.956 1343.6 456.956 1343.2C456.956 1342.93 459.889 1344.13 463.489 1345.87C466.956 1347.73 471.089 1348.93 472.423 1348.53C474.289 1348.13 479.089 1351.73 489.623 1361.6C514.156 1384.53 520.556 1388.67 527.623 1386.67C531.489 1385.6 532.289 1385.87 536.689 1390.53L541.623 1395.6L561.623 1396.27C578.689 1396.93 582.823 1396.67 589.623 1394.53C598.423 1391.73 606.956 1391.2 608.289 1393.33C610.023 1396.27 611.623 1394.4 611.623 1389.47C611.623 1384.13 613.756 1382 617.623 1383.47C620.289 1384.53 620.156 1381.47 617.489 1377.6C614.689 1373.47 615.889 1372.53 621.756 1374.4C625.889 1375.6 626.823 1375.47 629.089 1373.2C630.423 1371.87 631.623 1369.87 631.623 1368.8C631.623 1367.87 632.956 1365.47 634.423 1363.47C637.223 1360 637.223 1359.73 634.823 1358C633.356 1356.93 631.489 1356 630.689 1356C627.356 1356 629.089 1353.87 637.089 1348.67C641.356 1345.73 647.756 1340.53 651.089 1337.2L657.223 1331.07L626.689 1331.73C592.423 1332.4 568.956 1330.4 542.289 1324.4C512.823 1317.87 474.556 1303.2 478.023 1299.73C479.089 1298.67 480.423 1298.53 482.823 1299.73C487.089 1301.6 487.889 1300.53 485.623 1296C484.023 1292.93 484.023 1292 485.489 1290.8C487.223 1289.33 488.023 1289.73 500.289 1296.4C505.889 1299.47 512.556 1299.33 514.556 1296C516.823 1292.4 517.889 1292.67 518.956 1296.93C521.889 1309.2 524.023 1314.67 525.756 1314.67C526.956 1314.67 527.623 1313.2 527.623 1310.67C527.623 1305.6 528.956 1305.6 541.089 1311.2C554.156 1317.2 558.289 1318.13 558.289 1315.07C558.289 1313.87 557.223 1311.73 556.023 1310.27C554.023 1308 553.889 1307.47 555.489 1306.93C556.556 1306.53 558.823 1304.93 560.423 1303.2C562.956 1300.8 563.756 1300.53 564.956 1302C565.756 1303.07 568.423 1304.27 570.689 1304.8C573.089 1305.33 576.689 1307.73 579.089 1310.4L583.089 1315.07L586.023 1310.13C588.956 1305.2 589.223 1305.07 594.956 1306L600.956 1306.8V1302C600.956 1296 603.089 1295.07 610.956 1297.73C616.289 1299.6 619.223 1298.93 615.623 1296.67C614.956 1296.27 614.289 1295.07 614.289 1294.13C614.289 1292.67 615.489 1292.67 621.089 1294.27C624.823 1295.33 629.356 1295.87 631.356 1295.33L634.956 1294.4L630.956 1292.27L626.956 1290.13L635.623 1288.53C649.889 1285.73 651.623 1285.2 654.289 1281.33L656.823 1277.73L653.489 1276C649.223 1273.6 651.623 1272 659.356 1272C665.356 1272 670.823 1270 669.756 1268.13C668.956 1266.93 678.689 1258.67 680.823 1258.67C683.889 1258.67 682.156 1256.13 678.156 1254.8C675.489 1253.87 673.223 1253.87 671.623 1254.67C669.089 1256 661.356 1255.07 660.289 1253.33C659.489 1252 670.823 1244.8 676.956 1242.8C679.489 1241.87 685.489 1239.2 690.289 1236.67L698.956 1232.13L686.956 1233.07C680.423 1233.6 658.823 1234 638.956 1233.87C609.623 1233.73 599.489 1233.2 584.023 1230.93C551.223 1226 520.689 1218.27 490.289 1207.2C470.956 1200 434.023 1181.2 416.956 1169.6L401.623 1159.2V1131.87C401.623 1099.6 402.689 1088.93 406.023 1089.87C422.423 1094.13 423.889 1095.07 416.956 1096.67C414.823 1097.2 412.956 1098.13 412.956 1098.93C412.956 1102.4 430.823 1134.93 434.423 1138C441.756 1144.13 448.156 1144 455.623 1137.73C459.756 1134.4 459.889 1134.27 464.423 1136.4C469.756 1138.93 478.289 1139.47 478.289 1137.2C478.289 1136.27 473.223 1130.27 466.956 1123.87C454.823 1111.33 452.156 1106.13 459.756 1110.13C463.756 1112.13 464.023 1112.13 463.089 1109.87C461.356 1105.47 460.556 1098.67 461.756 1098.67C463.889 1098.67 469.889 1103.2 473.623 1107.73C475.623 1110.13 479.089 1113.07 481.223 1114.13C484.556 1115.87 485.489 1115.87 488.956 1114.13L492.823 1112.27L497.089 1124.13C501.089 1135.47 501.489 1136 503.756 1133.87C507.356 1130.67 511.356 1132.27 522.156 1141.33C531.623 1149.2 535.223 1151.2 533.889 1147.47C530.156 1138 529.889 1134.53 532.156 1129.87L534.289 1125.07L538.556 1127.6C540.823 1128.93 546.689 1135.6 551.356 1142.53C558.556 1152.8 560.289 1154.53 561.356 1152.67C562.023 1151.47 562.289 1148.67 562.023 1146.4C561.356 1142.27 561.889 1142.13 568.023 1144.67C569.889 1145.47 570.289 1144.93 570.289 1142.13C570.289 1138.8 570.556 1138.67 578.423 1138.67H586.689L583.356 1134.4C581.623 1132.13 575.489 1127.47 569.889 1124.13C561.089 1118.8 559.889 1117.73 561.756 1116.4C564.423 1114.4 574.689 1112.8 578.289 1113.73C581.756 1114.67 581.756 1112 578.289 1107.6C576.823 1105.73 575.623 1104 575.623 1103.73C575.623 1103.6 582.023 1103.33 590.023 1103.33C603.623 1103.33 615.089 1101.07 613.623 1098.8C613.356 1098.27 604.423 1095.2 594.023 1092C583.489 1088.8 574.023 1085.6 572.956 1084.67C571.889 1083.73 567.489 1081.07 563.356 1078.67C559.089 1076.4 555.623 1073.87 555.623 1073.2C555.623 1071.33 557.356 1071.73 566.689 1076C573.089 1078.93 577.623 1080 582.956 1080C590.823 1080 591.489 1079.47 588.023 1075.73C584.956 1072.27 587.223 1070.4 595.489 1069.6C602.956 1068.93 603.756 1067.47 600.156 1062C597.223 1057.6 598.689 1056 605.623 1056C608.823 1056 612.956 1055.47 614.823 1054.67L618.289 1053.33L613.356 1048.67C609.089 1044.8 608.689 1043.87 610.289 1042.67C611.356 1042 614.689 1041.33 617.623 1041.33C624.689 1041.33 629.223 1040 628.556 1038.13C628.289 1037.33 624.423 1035.33 619.889 1033.6C615.356 1031.87 611.623 1030 611.623 1029.33C611.623 1028.8 613.756 1027.87 616.423 1027.47C622.423 1026.27 626.289 1022.4 626.289 1017.33C626.289 1015.07 627.223 1011.07 628.289 1008.53L630.289 1003.73L623.489 1004.67C614.689 1005.87 615.756 1004 625.889 1000.27C630.156 998.668 634.823 996.534 636.289 995.468C638.689 993.601 638.156 993.468 628.689 993.334H618.556L622.556 989.201C625.623 986.134 626.289 984.801 625.089 983.601C623.889 982.401 622.956 982.401 620.956 983.734C616.823 986.268 578.423 998.268 568.956 1000C564.156 1000.8 554.023 1002.93 546.289 1004.67C493.089 1017.07 484.956 1018 466.956 1013.33C461.223 1011.87 454.689 1010.67 452.289 1010.67C449.489 1010.67 446.956 1009.47 444.423 1006.8C441.889 1004.13 438.823 1002.67 434.689 1002C431.356 1001.47 427.623 1000.53 426.423 999.868C425.223 999.201 419.223 997.468 412.956 996.134C404.423 994.134 402.423 993.334 404.689 992.668C408.689 991.334 408.423 989.334 404.289 989.334H400.956V974.668V960.001L406.023 959.868C408.689 959.868 412.156 959.334 413.623 958.801C416.689 957.601 420.156 961.334 421.623 967.068C422.823 971.601 424.156 971.601 429.889 967.201C432.956 964.934 434.956 964.268 436.289 965.068C438.156 966.001 438.156 966.401 436.023 968.268C434.689 969.334 431.223 971.068 428.423 972.001C424.689 973.201 423.756 974.001 425.089 974.668C427.489 976.001 446.956 981.334 452.689 982.268C455.623 982.801 457.489 984.001 458.289 985.868C458.823 987.468 460.289 989.601 461.623 990.668C463.489 992.268 464.156 992.001 466.823 988.668L470.023 984.801L475.089 989.201C480.023 993.601 480.156 993.734 490.023 992.801C496.823 992.268 500.556 992.534 501.889 993.601C503.356 994.801 504.823 994.134 508.823 990.134L514.023 985.068L520.289 989.868C526.956 995.068 530.023 994.934 532.956 989.334C533.889 987.601 535.756 986.668 538.289 986.668C542.289 986.668 546.289 983.734 546.289 980.668C546.289 979.601 550.423 978.001 557.356 976.401L568.289 973.868L561.623 970.401L555.089 966.934L560.956 966.001C573.223 964.001 572.423 962.934 557.223 960.668L551.356 959.734L554.289 956.668C555.756 955.068 557.356 951.468 557.889 948.801C558.289 946.134 559.223 944.001 560.023 944.001C562.423 944.001 557.756 939.601 553.356 937.734C550.956 936.801 544.689 936.001 539.356 936.001C508.423 936.001 476.289 925.334 449.356 906.134C435.089 896.001 415.756 877.334 405.756 863.734L398.156 853.468L396.823 835.068C396.156 824.934 394.956 811.601 394.289 805.334C392.689 791.468 392.689 790.801 394.289 793.334C395.356 795.068 395.756 794.801 396.423 792.401C397.756 787.601 399.223 790.001 400.156 798.534C400.689 803.468 402.156 807.734 403.889 810.001C407.623 814.801 409.089 812.134 407.489 803.334C406.289 797.334 406.556 796.401 409.089 794.401C410.556 793.068 412.423 792.401 413.089 792.668C413.756 793.068 415.889 796.934 417.756 801.201C421.223 808.801 421.489 809.068 425.089 807.734C430.023 806.001 433.756 808.134 436.289 814.001C438.023 818.534 441.223 820.134 442.956 817.334C443.356 816.668 445.489 816.401 447.489 816.801C450.823 817.468 451.489 817.068 452.823 813.201L454.423 808.801L456.823 812.801C459.756 817.734 466.289 823.334 473.089 826.668C479.489 830.001 480.956 830.001 480.956 826.934C480.956 825.468 482.556 822.268 484.689 819.601C487.489 815.601 489.089 814.668 492.289 814.934C497.623 815.201 504.556 813.601 510.556 810.534C516.023 807.734 521.623 807.201 522.956 809.334C524.556 812.001 534.289 816.001 538.823 816.001C542.156 816.001 543.889 815.201 544.956 813.468C547.489 808.534 550.423 806.668 555.756 806.668H560.956L560.423 800.268L559.889 793.734L567.089 794.401C574.023 794.934 574.289 794.934 574.289 791.601C574.289 789.734 573.756 787.734 572.956 787.334C572.289 786.934 571.623 785.334 571.623 783.868C571.623 781.334 572.289 781.334 581.623 782.134C590.156 782.934 591.623 782.801 591.623 780.934C591.623 778.001 585.489 773.601 580.156 772.534C574.156 771.468 574.423 770.134 581.089 768.001C589.223 765.334 592.956 761.868 592.956 757.201C592.956 753.868 592.156 752.801 588.289 751.201C585.756 750.268 582.556 749.334 581.089 749.334C579.623 749.334 578.023 748.134 577.623 746.534C576.556 743.334 580.023 739.068 588.556 733.201C591.756 730.934 594.956 728.001 595.756 726.401C597.089 723.868 596.956 723.734 592.823 724.534C590.289 724.934 584.956 725.601 580.956 726.001L573.623 726.801L577.356 724.001C584.689 718.134 581.756 717.468 566.689 721.601C558.956 723.734 551.756 725.201 550.823 724.801C550.023 724.534 548.023 725.068 546.556 726.001C542.423 728.934 512.689 734.401 492.956 736.001C473.223 737.468 454.156 736.268 442.956 732.668C439.356 731.601 432.689 730.001 428.023 729.334C423.356 728.534 416.156 726.401 411.889 724.534C401.756 720.134 387.623 710.534 387.623 708.001C387.623 706.934 387.223 704.534 386.689 702.668C385.889 699.868 386.156 699.601 387.889 700.934C389.489 702.401 390.289 701.468 392.823 695.201C394.556 691.201 396.289 688.134 396.823 688.401C397.223 688.668 400.156 690.001 403.223 691.468C406.956 693.068 408.956 694.801 408.956 696.534C408.956 698.534 409.756 698.801 413.223 698.401C415.623 698.001 421.223 698.801 425.756 700.001C430.156 701.334 438.289 703.068 443.756 703.868C449.223 704.801 455.356 705.868 457.489 706.268L461.356 706.934L460.423 701.334L459.623 695.868L464.289 699.468L468.956 703.068L474.423 696.801C483.223 686.801 487.489 685.868 490.156 693.468C491.089 696.001 492.423 697.334 494.156 697.334C497.889 697.334 497.623 695.468 492.956 688.668C490.823 685.468 488.956 682.268 488.956 681.468C488.956 678.801 491.889 680.001 495.356 684.001C499.223 688.401 502.956 689.334 501.756 685.601C501.089 683.868 502.156 682.934 505.889 681.734C512.023 679.868 512.956 680.268 516.956 686.668C518.689 689.601 521.089 692.268 522.023 692.668C524.423 693.468 527.223 691.334 528.289 687.868C528.823 686.134 530.423 685.334 532.956 685.334C535.889 685.334 537.356 684.268 539.489 680.534C541.756 676.801 542.956 675.868 545.223 676.401C549.089 677.468 552.156 675.601 555.623 670.001C558.023 666.134 559.089 665.468 561.756 666.134C564.156 666.801 565.623 666.134 567.623 663.601C569.356 661.468 572.689 659.734 576.956 658.668C582.423 657.334 583.623 656.534 583.623 654.134C583.623 649.734 587.089 645.601 591.756 644.668C596.423 643.601 598.023 640.934 595.623 638.001C594.689 636.934 594.423 635.068 594.823 633.868C595.489 632.134 594.956 632.001 591.356 632.668C587.756 633.468 587.356 633.334 588.156 631.334C588.689 629.601 588.423 629.201 586.956 629.868C585.889 630.268 584.956 630.134 584.956 629.468C584.956 628.801 586.556 627.868 588.556 627.334C595.089 625.734 610.289 619.468 610.289 618.401C610.289 616.668 603.756 617.201 600.556 619.201C598.956 620.134 595.089 621.334 592.023 621.868C587.356 622.534 586.289 622.268 586.289 620.668C586.289 619.068 585.756 618.801 583.756 620.001C580.689 621.601 574.289 621.734 571.889 620.134C570.689 619.468 572.156 618.401 576.556 616.668C596.023 609.334 615.623 596.668 603.356 599.334C600.956 599.868 584.956 605.068 567.623 610.668C531.756 622.668 516.423 626.268 494.556 628.001C485.889 628.668 473.756 629.868 467.356 630.668C454.956 632.268 447.756 631.601 420.956 626.668C400.556 622.934 394.156 620.801 388.689 615.468L384.023 610.934L383.223 593.868C381.623 562.934 382.023 538.801 384.423 528.668C386.556 519.334 386.823 519.201 393.356 515.601C400.689 511.734 402.689 512.268 404.156 518.001C404.823 520.801 405.889 521.334 409.756 521.334C413.356 521.334 415.356 520.268 418.289 517.201C421.223 513.868 422.823 513.201 425.356 513.868C429.356 514.801 431.089 513.068 432.289 506.268C433.223 501.468 433.356 501.334 439.089 501.334C443.756 501.334 445.356 500.668 447.089 498.001C448.156 496.268 448.823 494.134 448.289 493.334C447.489 492.001 448.289 491.468 454.689 490.134C457.356 489.468 458.289 489.734 458.289 491.334C458.289 493.868 460.156 493.868 462.289 491.334C463.223 490.268 466.289 488.668 469.089 487.868C474.289 486.268 478.956 482.801 479.889 479.868C480.289 478.801 481.089 478.668 482.956 479.601C486.423 481.468 504.956 482.668 504.956 481.068C504.956 480.401 504.023 479.601 502.956 479.201C498.956 477.601 501.089 474.001 508.023 470.534C511.889 468.668 518.689 465.068 523.356 462.668C531.223 458.401 531.623 457.868 530.956 454.401C530.289 451.468 530.556 450.668 532.156 450.668C534.156 450.668 534.156 450.401 532.156 447.334C529.756 443.734 530.556 441.334 534.289 441.334C535.623 441.334 537.356 440.534 537.889 439.601C538.423 438.668 541.756 435.868 545.356 433.468C554.423 427.334 553.756 425.201 542.956 426.268C538.023 426.668 534.289 426.534 534.289 425.868C534.289 422.934 538.556 419.068 543.489 417.334C546.423 416.401 551.623 413.334 554.956 410.534C558.423 407.601 561.756 405.334 562.423 405.334C563.089 405.334 563.623 404.668 563.623 404.001C563.623 403.068 562.823 403.068 561.356 403.868C557.089 406.001 537.889 412.134 526.423 414.801C508.689 419.068 488.556 421.334 467.489 421.334C448.556 421.334 447.489 421.201 435.356 416.801C428.423 414.268 418.956 411.601 414.156 410.668C409.489 409.868 404.289 408.934 402.823 408.534C398.023 407.601 383.623 396.001 383.623 393.201C383.623 388.401 378.423 380.134 375.489 380.001C375.089 380.001 374.156 383.201 373.356 386.934C372.423 392.668 372.023 387.468 371.089 359.734C370.423 336.268 370.556 324.801 371.489 323.068C372.823 320.801 372.823 320.801 372.956 323.068C372.956 324.401 373.623 325.068 374.289 324.668C375.089 324.268 375.623 321.734 375.623 319.201C375.623 316.001 376.289 314.668 377.623 314.668C378.956 314.668 379.623 316.001 379.623 318.401C379.623 320.534 380.689 325.201 381.889 328.801C383.889 334.668 384.156 334.934 384.956 332.001C386.289 326.534 391.756 327.468 394.689 333.601C397.756 340.401 399.623 340.001 399.623 332.534C399.623 327.068 399.889 326.534 402.689 326.934C404.823 327.201 406.556 329.468 409.089 334.668L412.556 342.001L415.489 336.268C417.089 333.201 418.823 330.668 419.356 330.668C419.889 330.668 422.023 332.401 424.023 334.668C426.156 336.801 428.689 338.668 429.756 338.668C432.156 338.668 432.023 334.668 429.623 331.468C428.556 330.001 427.623 327.068 427.623 324.934C427.623 321.068 427.756 321.068 430.023 323.068C433.489 326.268 435.623 325.868 435.623 322.134C435.623 313.068 438.956 312.534 444.689 320.668C448.823 326.534 454.689 330.668 456.423 328.934C456.956 328.401 456.289 324.534 455.089 320.268C452.423 310.534 452.289 311.201 456.689 311.334C461.489 311.334 462.156 306.801 458.289 301.334C456.689 299.201 456.023 297.334 456.823 297.334C458.423 297.334 462.289 301.068 462.289 302.668C462.289 304.268 467.623 307.068 468.556 306.134C469.089 305.734 469.756 303.068 470.156 300.401C470.823 296.668 471.756 295.334 473.356 295.468C476.156 295.734 476.423 291.601 473.623 289.334C472.556 288.401 471.623 286.401 471.623 284.934C471.623 282.801 472.023 282.534 473.223 283.734C476.023 286.534 479.489 285.468 481.623 281.468C482.689 279.201 484.689 276.668 486.023 275.734C490.289 272.668 490.689 270.668 487.356 268.001C485.623 266.534 482.156 264.934 479.623 264.401L474.956 263.468L480.289 262.668C484.423 262.134 485.756 261.334 486.823 258.534C488.556 253.601 486.823 248.001 483.623 248.001C482.156 248.001 480.956 248.668 480.956 249.468C480.956 250.534 480.289 250.534 478.956 249.334C477.889 248.401 476.156 248.001 475.089 248.401C473.756 248.934 473.889 247.868 475.756 244.001C477.223 241.068 478.289 237.601 478.289 236.001C478.289 234.534 478.956 233.334 479.623 233.334C480.423 233.334 480.956 232.268 480.956 231.068C480.956 229.334 480.156 229.601 477.223 232.401C475.089 234.401 472.023 236.001 470.023 236.001C468.023 236.001 461.489 237.201 455.356 238.668C439.889 242.401 439.089 242.268 440.156 237.068C441.223 231.868 443.223 229.334 446.423 229.334C449.623 229.334 449.623 228.668 446.156 223.734L443.223 219.734L446.289 213.201C448.023 209.601 449.489 205.068 449.623 203.068C449.889 200.934 450.423 198.001 450.956 196.401C452.556 191.334 448.556 191.468 436.689 196.801C427.889 200.801 423.356 202.001 414.289 202.668C408.023 203.201 401.223 204.268 399.089 205.201C396.423 206.268 394.023 206.268 390.423 205.334C387.756 204.534 382.423 203.334 378.423 202.668C374.423 202.001 370.823 200.934 370.423 200.401C370.023 199.734 366.956 198.401 363.756 197.334C357.623 195.334 354.156 191.601 359.756 192.934C362.156 193.601 362.423 193.334 361.756 190.934C361.089 188.934 361.889 186.668 364.556 183.468C367.889 179.201 368.556 178.934 370.956 180.534C372.423 181.468 376.289 183.734 379.623 185.734L385.623 189.201L391.889 185.334C395.223 183.201 400.023 180.934 402.556 180.134C405.356 179.334 406.023 178.801 404.289 178.801C400.289 178.534 379.223 172.134 377.889 170.801C375.889 168.801 380.023 165.601 384.956 165.068C388.689 164.801 389.489 164.001 389.889 160.934C390.289 157.734 389.889 157.201 386.156 156.401C382.423 155.734 382.156 155.334 384.156 154.001C386.023 152.534 385.356 152.268 380.023 151.468C375.623 150.934 371.756 149.201 367.756 146.001C362.556 141.868 355.223 138.668 350.689 138.668C349.756 138.668 348.956 137.468 348.956 136.134C348.956 134.001 350.289 133.468 356.956 132.801C361.356 132.401 368.556 131.601 372.956 131.201C381.756 130.268 383.356 129.068 384.556 122.268C385.089 118.801 384.289 115.601 381.623 109.734C375.489 96.5344 366.289 75.6011 366.289 74.8011C366.289 74.4011 368.956 78.5344 372.156 84.0011C375.356 89.4678 379.223 95.0678 380.689 96.4011C383.356 98.9344 383.489 98.8011 384.289 93.7344C385.356 86.9344 385.756 85.0678 386.956 82.2678C387.756 80.4011 386.156 78.1344 380.156 72.6678L372.289 65.3344L378.689 67.4678C384.823 69.4678 391.623 69.2011 391.623 66.8011C391.623 64.4011 378.556 45.7344 375.356 43.7344C373.356 42.4011 369.089 40.8011 365.756 39.8678L359.756 38.4011L349.489 19.2011C343.889 8.66775 338.823 0.0010839 338.289 0.0010839C337.756 0.0010839 336.556 1.60108 335.756 3.60108ZM327.356 191.601C326.956 193.468 325.356 194.001 319.089 194.268C314.289 194.534 310.289 195.468 308.956 196.668C307.356 198.134 306.423 198.268 305.223 197.068C300.423 192.268 305.356 189.468 318.023 189.334C326.689 189.334 327.756 189.601 327.356 191.601ZM335.223 192.668C334.689 193.734 333.356 194.668 332.156 194.668C330.023 194.668 330.023 194.401 332.289 192.001C334.956 189.068 336.423 189.334 335.223 192.668ZM320.423 210.134L323.756 212.401L318.289 214.801C312.289 217.468 311.223 220.001 316.289 220.001C318.289 220.001 319.489 220.668 319.356 221.601C319.089 222.801 320.556 223.201 324.289 222.934L329.623 222.668L323.623 225.868C314.289 231.068 300.023 230.001 307.089 224.668C311.356 221.601 308.556 221.334 302.289 224.134C295.623 227.201 294.023 226.801 286.023 220.268L281.089 216.401L289.356 214.268C294.956 212.934 298.423 212.668 300.023 213.601C303.223 215.334 309.623 214.401 309.623 212.268C309.623 210.401 312.689 208.001 315.356 208.001C316.289 208.001 318.556 208.934 320.423 210.134ZM335.623 211.334C335.623 213.334 334.823 214.668 333.756 214.668C330.823 214.668 329.756 212.134 331.623 210.001C334.023 207.068 335.623 207.601 335.623 211.334ZM335.623 224.668C335.623 227.068 334.956 228.001 332.956 228.001C330.289 228.001 330.289 227.868 332.423 224.668C333.623 222.801 334.823 221.334 335.089 221.334C335.356 221.334 335.623 222.801 335.623 224.668ZM390.289 285.334C390.289 286.134 386.156 286.668 380.289 286.668H370.289V274.934L370.423 263.334L380.289 273.601C385.756 279.334 390.289 284.534 390.289 285.334ZM335.623 281.334C335.623 282.001 335.356 282.668 335.089 282.668C334.689 282.668 334.023 282.001 333.623 281.334C333.223 280.534 333.489 280.001 334.156 280.001C334.956 280.001 335.623 280.534 335.623 281.334ZM171.089 497.601C176.423 501.468 178.423 504.001 176.023 504.001C174.556 503.868 162.689 493.468 164.023 493.334C164.689 493.334 167.889 495.201 171.089 497.601ZM194.823 507.334C193.889 509.468 188.289 510.134 186.956 508.134C186.556 507.468 187.889 506.534 189.889 506.268C192.023 506.001 194.023 505.601 194.556 505.468C195.089 505.468 195.223 506.268 194.823 507.334ZM170.289 555.868C170.289 557.468 167.623 559.201 166.689 558.268C165.756 557.334 167.489 554.668 169.089 554.668C169.756 554.668 170.289 555.201 170.289 555.868ZM580.956 653.334C577.756 655.334 576.023 654.801 578.823 652.668C580.289 651.601 581.756 651.068 582.156 651.468C582.556 651.868 582.023 652.668 580.956 653.334ZM144.956 674.934C144.956 676.668 141.889 675.601 141.223 673.601C140.956 672.668 141.489 672.268 142.823 672.801C144.023 673.201 144.956 674.268 144.956 674.934ZM269.489 837.601C267.756 840.668 264.556 844.001 263.356 844.001C260.956 844.001 262.423 838.534 265.356 837.334C269.489 835.734 270.556 835.734 269.489 837.601ZM408.023 946.668L412.289 946.801L407.889 950.668C402.023 956.134 399.623 955.868 399.623 949.868C399.623 946.001 400.023 945.201 401.756 945.868C402.956 946.268 405.756 946.668 408.023 946.668ZM259.089 1050.93C257.756 1051.73 256.423 1051.87 255.889 1051.33C254.689 1050.27 258.556 1048 260.023 1048.93C260.689 1049.33 260.289 1050.27 259.089 1050.93ZM645.623 1246.67C645.223 1247.33 644.289 1248 643.489 1248C642.823 1248 642.289 1247.33 642.289 1246.67C642.289 1245.87 643.223 1245.33 644.423 1245.33C645.489 1245.33 646.023 1245.87 645.623 1246.67ZM405.889 1665.6C405.489 1666.53 405.223 1665.87 405.223 1664C405.223 1662.13 405.489 1661.47 405.889 1662.27C406.156 1663.2 406.156 1664.8 405.889 1665.6Z" fill="#0F1613"/>
<path d="M239.221 434.401C237.221 436.401 235.621 438.667 235.621 439.201C235.621 440.801 244.021 438.534 246.688 436.267C248.954 434.134 248.954 434.001 246.821 432.401C243.621 430.001 243.354 430.134 239.221 434.401Z" fill="#0F1613"/>
</svg>
