<svg width="993" height="1706" viewBox="0 0 993 1706" fill="none" xmlns="http://www.w3.org/2000/svg">
<path d="M451.6 10.2682C451.067 15.8682 450.667 30.5349 450.667 42.8015C450.667 55.0682 450.267 67.7349 449.867 70.9349L449.067 76.8015L433.467 61.0682C424.933 52.5349 416.933 45.4682 415.733 45.4682C413.2 45.4682 411.6 50.8015 412.8 55.7349C414.4 62.5349 418.533 69.2015 430 83.6015C436.267 91.4682 442.4 100.002 443.6 102.668C445.067 105.868 445.867 112.935 446.4 124.402C446.933 141.602 446.4 148.135 444 148.135C442.267 148.135 438.667 140.935 438.667 137.602C438.667 136.268 437.067 133.868 435.2 132.535C432.133 130.268 431.6 128.535 430.133 116.002C429.2 108.268 427.333 99.7349 426 96.9349C423.467 91.6015 418.933 88.5349 415.333 90.0015C412.4 91.0682 408.933 99.7349 409.867 103.602C410.267 105.202 410.133 106.935 409.333 107.468C407.333 108.668 398.8 104.535 391.2 98.6682C385.467 94.2682 383.333 93.3349 379.2 93.7349C376.4 94.0015 373.733 95.0682 372.933 96.4015C370.667 99.7349 373.867 108.268 380.667 117.068C384 121.335 389.467 128.402 392.8 132.668C396 137.068 398.667 141.468 398.4 142.668C398.133 143.868 395.333 146.135 392 147.735C384.533 151.602 383.467 153.602 385.333 159.468C388.133 168.002 397.6 169.468 406 162.802C408.8 160.535 411.6 159.202 412.133 159.735C412.8 160.402 413.6 165.735 414.133 171.602C414.8 179.602 414.533 182.668 413.333 183.468C412.4 184.002 406.133 181.735 398.4 178.002C385.6 171.868 384.933 171.735 383.2 174.135C382.133 175.468 381.333 178.002 381.333 179.468C381.333 183.468 388.133 192.535 397.867 201.868L406 209.468L401.067 208.668C394.267 207.602 391.467 208.802 388.533 214.268C386.133 218.668 385.6 218.935 380.933 218.402C377.867 218.002 369.733 213.735 358.933 207.068C336.133 192.802 325.867 187.735 321.867 188.668C317.6 189.735 316.667 194.535 319.333 200.935C322.267 207.868 327.2 212.802 336.267 217.868L344 222.135L334.8 223.602C324.133 225.468 318.667 228.535 318.667 232.802C318.667 238.268 326.4 242.535 332.267 240.268C335.2 239.202 336 239.602 338.533 242.935C340.533 245.735 342.533 246.802 345.333 246.802C349.867 246.802 350.667 248.802 346.667 250.135C345.2 250.535 344 251.468 344 252.135C344 253.468 357.467 265.468 358.933 265.468C359.6 265.468 360 266.002 360 266.668C360 267.468 357.2 268.402 353.733 268.802C343.867 270.135 331.6 273.468 328.4 275.602C322.533 279.335 326.133 288.535 334.667 292.135C338 293.468 339.467 293.468 344 291.602C346.933 290.402 352.4 289.468 356.133 289.468C362.267 289.468 363.467 290.002 367.2 294.135C370.8 298.135 372.4 298.802 377.2 298.802C381.867 298.802 383.6 298.002 386.667 294.802C390 291.202 391.2 290.802 398.133 290.802H406L400.667 295.068C387.067 306.135 385.333 309.868 392.533 313.202C397.333 315.602 406.267 313.335 411.467 308.535C413.333 306.802 415.333 305.602 415.6 306.002C416 306.402 415.733 309.868 414.933 313.735C413.2 322.935 414.533 325.468 421.2 325.468C426.4 325.468 430.533 322.535 430.8 318.668C430.8 317.602 431.467 318.135 432.267 319.868C434.533 324.535 437.6 322.935 442 314.535C444.267 310.268 446.4 306.802 446.8 306.802C448.133 306.802 454.8 324.535 455.067 328.802C455.333 332.135 454.667 332.935 450.667 334.268C445.2 336.135 417.467 338.802 404.4 338.802C391.733 338.802 383.467 336.268 369.067 327.868C349.067 316.135 337.867 313.335 334.133 319.068C332.267 322.135 338 328.135 348.667 334.268C353.067 336.668 356.267 338.802 355.733 338.802C352.133 338.802 334.133 334.135 325.6 330.802C316.4 327.202 298.267 316.268 287.867 308.002C283.733 304.668 274.8 303.335 270.8 305.335C267.333 307.202 267.067 312.802 270.133 317.335C271.467 319.202 271.867 320.802 271.067 321.602C270.4 322.268 264.533 323.468 257.867 324.268C233.733 326.935 227.733 328.002 225.867 329.468C218.267 335.868 234.533 346.535 256.8 349.602C263.6 350.535 269.733 350.535 276.8 349.602C290.667 347.602 290.933 347.735 283.067 352.268C276 356.402 268 364.268 268 367.202C268 371.468 272.133 374.802 277.467 374.802C284.933 374.802 290.133 372.268 300 363.868C310.133 355.335 313.333 353.468 317.867 353.468C324.133 353.468 322.8 356.002 314.4 360.268C305.2 364.802 300 368.935 300 371.602C300 372.535 302.133 374.935 304.667 376.935C308.4 379.735 309.333 381.335 309.333 384.802C309.333 387.335 310.267 390.268 311.467 391.335C314 394.002 319.467 394.135 320.4 391.468C321.467 388.802 330.533 384.402 339.867 382.268C349.067 380.135 348.933 380.135 358.8 372.535C366.667 366.402 368 365.868 368 368.535C368 371.068 359.067 379.335 349.333 385.868C338.667 392.935 336.533 395.868 339.467 399.868C340.933 402.135 342.8 402.802 347.067 402.802C352.267 402.802 355.333 401.468 363.6 395.335L366.533 393.202L365.733 400.535C365.333 404.535 365.6 408.135 366.267 408.535C368.667 410.002 374 406.002 379.733 398.402C386 390.135 389.2 389.068 392.4 393.735L394.4 396.802L398.933 392.668C402.8 388.935 404.4 388.402 413.6 387.735C433.2 386.402 452 372.268 452 358.802C452 352.668 454.267 354.002 456 361.335C457.333 367.068 457.2 368.668 455.333 372.802C450.533 382.802 426.533 400.535 393.867 418.002C383.6 423.602 374.533 428.135 373.733 428.135C372.933 428.135 363.067 423.602 351.6 418.002C329.467 407.335 322 405.068 320.533 408.535C319.733 410.935 323.733 419.468 328.667 425.335C332.667 430.002 332 430.668 327.067 426.802C324.667 424.935 321.6 424.135 317.067 424.135C312.4 424.135 306.933 422.535 297.733 418.668C283.333 412.535 282 412.802 282 421.868V427.468L272.667 427.868C266.4 428.135 261.6 427.602 257.6 426.135C250.8 423.468 246.133 424.268 241.067 429.202C238.267 431.735 237.333 433.868 237.333 437.602C237.333 443.468 239.467 444.668 247.067 442.935C249.733 442.268 252 442.268 252 442.802C252 443.468 249.867 446.402 247.333 449.468C244.8 452.535 242.667 455.468 242.667 456.135C242.667 457.735 247.6 458.668 253.2 457.868C256.133 457.468 260.133 457.468 262 458.002C265.333 458.802 265.467 459.202 264.533 464.935L263.733 470.935L272.8 470.535L282 470.135L281.6 476.268C281.333 479.735 281.733 482.935 282.4 483.335C283.067 483.735 286.8 482.802 290.533 481.335C296.4 478.802 297.867 478.668 301.333 480.135C310.8 484.002 313.867 495.335 307.2 501.602L303.733 504.802L300.933 501.335C297.067 496.668 293.867 495.202 285.6 494.002C276.8 492.935 269.333 494.268 269.333 497.068C269.333 498.802 268.267 498.935 262.667 498.268C257.067 497.468 255.867 497.735 255.067 499.602C254.4 501.202 256.133 503.602 261.067 508.002C264.8 511.335 268.267 515.735 268.8 517.735C269.733 521.735 267.2 534.402 265.2 535.468C263.6 536.535 259.2 534.002 250 526.535C237.067 516.002 226.267 512.002 224.4 516.935C224 518.002 225.067 522.002 226.8 525.602C229.467 531.335 229.6 532.535 228 533.602C225.333 535.202 225.6 535.202 208 532.135C188.933 528.802 180 528.668 180 531.468C180 536.802 198.933 547.868 210 549.202C217.467 550.002 218.4 551.335 214.8 556.268C213.333 558.268 212 560.935 212 562.002C212 564.668 219.067 566.802 227.6 566.802C236 566.802 240 568.535 240 572.001C240 575.868 243.2 577.601 251.6 578.401C255.867 578.801 260 579.735 260.8 580.401C261.733 581.068 262.8 584.401 263.333 587.735L264.267 594.001L271.733 586.135L279.2 578.268L280.667 582.935C281.867 586.268 282.933 587.335 284.933 587.068C288.133 586.668 290 588.801 295.333 598.668C297.6 602.801 301.333 607.468 304 609.201C306.533 610.935 309.867 614.802 311.333 617.868C313.6 622.402 314.933 623.602 320 625.068C323.467 626.135 328 628.935 331.333 632.135C334.267 635.068 337.333 637.468 338.133 637.468C338.933 637.468 342.133 635.202 345.467 632.535C355.733 624.002 356.8 623.335 351.333 629.335C342.133 639.202 328 644.935 296.267 651.468C270.933 656.668 262.8 655.868 246.8 646.268C232.667 637.868 228.4 638.935 230 650.668C230.8 656.668 230.533 657.468 227.867 658.802C223.733 661.068 210 659.468 204.267 656.002C201.333 654.402 198.4 653.602 196.533 654.002C192.8 654.935 185.333 661.202 185.333 663.335C185.333 664.268 189.867 667.868 195.333 671.335C206.8 678.535 208.267 680.802 207.733 688.535L207.333 694.135L216.667 694.802L226 695.468V701.735C226 710.268 228.667 712.802 237.867 712.802C243.333 712.802 246.133 712.002 250.4 709.068C253.467 707.068 256.267 705.468 256.667 705.468C257.067 705.468 256.133 707.602 254.8 710.268C252.133 715.335 252.267 717.868 255.867 721.868C257.6 724.002 259.2 724.135 269.6 723.335C279.733 722.535 281.333 722.802 281.333 724.535C281.333 729.735 269.333 734.935 251.2 737.602C238.8 739.468 229.333 737.602 220.8 731.468C209.867 723.735 201.467 724.002 203.2 732.268C204.133 736.935 201.2 738.135 191.867 736.802C181.867 735.468 169.2 735.735 167.6 737.335C165.333 739.602 170 743.735 179.067 747.068C189.333 751.068 195.2 756.268 194.267 760.935C192.8 769.068 203.2 773.468 214.533 769.335C222.4 766.668 222.933 767.068 224 776.802L224.667 783.468H232.667C240 783.468 240.667 783.735 240.133 786.135C239.867 787.602 239.467 790.268 239.467 792.135C239.333 795.335 239.6 795.468 246.4 795.068C252.667 794.535 253.6 794.802 254.267 797.335C255.2 801.068 259.867 800.935 264.8 797.202C266.933 795.602 273.333 789.868 278.933 784.668C290.4 773.735 296.133 771.335 304.4 773.602C310.4 775.202 316.8 780.402 315.467 782.535C314.8 783.602 310.4 784.135 303.467 784.135C287.067 784.135 285.6 787.868 296 803.468C298.8 807.735 300.933 811.735 300.533 812.402C300.133 812.935 298 813.468 295.867 813.468C290.667 813.468 283.867 816.402 277.733 821.335C274.933 823.468 269.733 826.002 266.267 826.802C262.667 827.602 258.133 829.468 256 830.935C252.933 833.202 249.333 834.002 236.4 834.935C227.733 835.468 218 836.935 214.667 838.135C211.2 839.335 203.6 840.402 196.533 840.535C189.067 840.802 183.6 841.468 182.267 842.535C181.2 843.468 179.6 846.802 178.8 850.002C178 853.202 176.4 856.535 175.2 857.468C172.933 859.468 150.533 862.668 139.067 862.802C132.933 862.802 132 863.202 132 865.335C132 870.668 152.533 882.135 164.667 883.602C175.467 884.802 175.467 884.802 169.467 892.002C166.4 895.602 164 899.202 164 900.002C164 900.935 166.8 901.468 171.067 901.468C180 901.468 181.867 902.668 181.067 908.135C180.267 913.735 181.733 914.135 194.4 911.602C206.533 909.202 213.067 908.935 218 910.802C221.333 912.002 221.467 912.535 220.533 918.135C219.867 922.935 220.133 924.268 221.867 924.935C225.067 926.135 230.267 922.135 234.8 914.802C237.067 911.068 239.467 908.135 240.133 908.135C240.8 908.135 241.333 910.668 241.333 913.868C241.333 923.335 242.933 924.402 258.4 925.202C271.867 925.868 271.867 925.868 275.733 922.002C277.867 919.868 280.933 914.402 282.8 909.735C284.533 905.202 286.267 901.468 286.667 901.468C287.2 901.468 288.8 905.602 290.533 910.802C292.133 915.868 294 920.135 294.533 920.135C295.067 920.135 298.4 916.268 302 911.468C305.6 906.668 309.067 902.802 309.467 902.802C310 902.802 310.8 905.735 311.333 909.202C313.067 922.135 317.067 921.868 322.667 908.535C326.8 898.668 327.6 897.468 330.133 897.468C331.733 897.468 332 898.402 331.333 901.602C330.4 905.868 330.4 905.868 334.8 904.935C337.333 904.402 342.8 903.735 347.067 903.202C353.733 902.535 354.667 902.668 354.667 904.802C354.667 912.268 324.4 928.135 310.133 928.135C306 928.135 300.8 930.535 294.133 935.335C291.333 937.335 287.067 938.002 273.333 938.802C263.733 939.335 255.6 940.135 255.067 940.668C252.8 942.935 257.2 949.068 264 953.068C270.267 956.935 272.4 957.468 280.133 957.468C295.867 957.468 300.267 961.602 289.2 966.002C280.533 969.468 255.333 972.002 201.333 974.802C128.8 978.535 114.533 980.135 109.2 984.802C107.2 986.668 105.333 987.068 99.4667 986.268C91.0667 985.335 88 986.135 88 989.468C88 994.935 103.2 1002.8 113.6 1002.8C118.533 1002.8 122.667 1004.93 122.667 1007.6C122.667 1008.67 120 1010.67 116.8 1012.13C113.467 1013.47 107.2 1018 102.667 1022.13L94.5333 1029.73L105.2 1028.8C117.733 1027.6 122.133 1028.4 123.067 1032.13C123.6 1034.4 124.8 1034.8 131.2 1034.8C138 1034.8 138.8 1035.2 140 1038C142.267 1044.27 148.533 1043.2 158.533 1034.8C164.267 1030 169.333 1027.87 169.333 1030.4C169.333 1031.07 166.533 1035.07 163.333 1039.33C156.533 1048.4 156.933 1050.8 165.6 1050.8C171.467 1050.8 175.467 1049.07 178.667 1045.07C182.4 1040.53 186.933 1042.93 190.667 1051.07C195.6 1061.6 198.933 1061.47 215.733 1050.13C221.733 1046.13 226.8 1042.8 227.067 1042.8C227.333 1042.8 226.8 1047.2 225.733 1052.53C221.867 1072.67 228.933 1073.47 252.667 1055.33C255.467 1053.2 257.467 1052.13 257.2 1052.8C250 1070 250.267 1070.8 261.6 1070.4C268.533 1070.13 270.8 1070.67 274.4 1073.33C276.8 1075.07 279.067 1076.27 279.2 1076C279.467 1075.73 280.267 1074.13 281.067 1072.67C284.133 1066.67 292.533 1068 294 1074.67C295.067 1079.73 298.4 1080.8 309.2 1079.6C317.333 1078.67 323.2 1079.87 321.6 1082.27C317.067 1088.93 277.6 1102.53 244.667 1108.67C209.867 1115.2 202 1114.93 188.4 1106.93C177.333 1100.4 168.533 1098.4 167.2 1102.13C166.267 1104.53 171.733 1110.67 178 1114.27C180 1115.33 178.4 1115.47 172 1114.67C167.2 1114 154.133 1112.93 142.8 1112.13C127.467 1111.07 117.867 1109.47 104.267 1106C78.5333 1099.47 75.3333 1100 84.9333 1108.93C92.9333 1116.13 112.267 1125.07 124.667 1127.07L135.333 1128.8L123.067 1129.73C108.8 1130.8 105.333 1132.27 105.333 1136.8C105.333 1141.47 109.6 1143.73 122 1145.33C140.8 1148 140 1147.47 133.6 1153.87C128 1159.6 126.4 1164.13 129.867 1164.13C130.933 1164.13 135.2 1162.8 139.333 1161.2C147.333 1158.13 149.2 1158.8 149.333 1164.27C149.333 1168.4 152.933 1169.87 161.067 1168.93C168.133 1168.13 184 1164.4 190 1162.13C191.6 1161.47 190.4 1163.47 186.8 1167.2C180.133 1174.13 180.4 1174.53 191.867 1175.07C199.467 1175.47 200.533 1176.4 202 1183.2C202.4 1185.2 203.467 1186.8 204.267 1186.8C205.2 1186.8 209.733 1183.07 214.4 1178.4L222.8 1170.13L216.533 1182.13C208.533 1197.33 208.933 1199.47 219.2 1198.4C227.2 1197.6 237.6 1192.8 244.667 1186.67C250.267 1181.73 250.667 1183.2 246.533 1194C241.733 1206.93 234.667 1210.67 191.6 1223.47C166.133 1231.07 160.8 1231.2 140.8 1224.67C125.733 1219.73 107.2 1217.33 99.4667 1219.33C95.2 1220.4 95.2 1221.2 99.2 1227.2C100.933 1229.73 102.133 1232.13 101.867 1232.53C101.067 1233.33 93.8667 1231.87 80.6667 1228.27C66.6667 1224.53 55.8667 1223.33 52.2667 1225.33C50.6667 1226.13 49.3333 1227.47 49.3333 1228.13C49.3333 1228.8 53.0667 1233.73 57.6 1238.93C62.2667 1244.27 65.0667 1248.27 64 1247.87C49.3333 1242.27 20.2667 1239.07 10.2667 1241.87C4.8 1243.33 5.86667 1247.87 12.6667 1251.73C22.8 1257.47 34.6667 1260.67 49.3333 1261.33L63.3333 1262.13L54.9333 1268.67C45.3333 1276.27 40.9333 1282.53 41.6 1287.73C42 1291.2 42.4 1291.47 48.6667 1291.47H55.3333L56.6667 1299.2C58.1333 1307.6 60.8 1310.8 66.2667 1310.8C70 1310.8 76.5333 1314 81.7333 1318.27C83.8667 1320 86.5333 1321.47 87.7333 1321.47C90.5333 1321.47 98.1333 1316.93 102.933 1312.4L106.533 1309.07L111.2 1312.53C116.267 1316.4 121.867 1326.67 120.667 1329.87C120.133 1330.93 118.667 1332.13 117.333 1332.53C115.6 1332.93 115.2 1334 115.6 1336.67L116.4 1340.27L104.4 1339.33C94.1333 1338.53 92.2667 1338.8 91.6 1340.53C90.5333 1343.33 82.5333 1345.47 72.6667 1345.47C64.9333 1345.47 55.2 1347.2 53.7333 1348.67C52 1350.4 55.0667 1356.13 59.3333 1358.8C65.4667 1362.67 75.2 1363.33 91.7333 1361.07C99.2 1360.13 105.333 1359.47 105.333 1359.6C105.333 1359.73 100.933 1362.27 95.4667 1365.33C78.2667 1374.67 73.8667 1380.53 79.4667 1386C82 1388.67 81.6 1388.67 91.7333 1385.47C101.733 1382.27 104.8 1382.13 99.6 1384.93C97.3333 1386.13 96 1387.87 96.2667 1389.2C96.6667 1391.07 98.4 1391.47 106.4 1391.33H116L112.667 1394.8C110.8 1396.67 109.333 1398.67 109.333 1399.2C109.333 1401.33 117.733 1399.87 127.067 1396.13C132.667 1394 137.733 1392.13 138.533 1392.13C141.467 1392.13 139.867 1396 136 1398.8C126.933 1405.33 133.867 1408.53 147.867 1404.27C159.867 1400.67 160.133 1400.67 159.067 1405.6L158.267 1409.73L164.8 1408.67L171.333 1407.73L168.8 1410.67C164 1416 158.933 1416.4 97.3333 1417.33C64.6667 1417.73 37.2 1418.67 36.2667 1419.2C33.2 1421.2 34.6667 1422.8 42.1333 1424.93C50.1333 1427.2 59.7333 1434.67 58.1333 1437.2C56.6667 1439.6 48.5333 1441.33 34.1333 1442.27C18.4 1443.33 10 1446.8 10 1452C10 1454.4 11.3333 1456.13 14.6667 1458C18.5333 1460.4 21.4667 1460.8 32 1460.67C42.4 1460.53 46.9333 1459.73 57.4667 1456.4C75.0667 1450.53 78.4 1450.8 71.3333 1457.47C66.1333 1462.4 57.7333 1473.73 56.9333 1477.07C55.3333 1484 64.8 1484.53 80.5333 1478.13C91.0667 1473.87 91.4667 1474.13 92.6667 1485.47C93.0667 1489.47 94.2667 1494.93 95.2 1497.47C96.6667 1501.6 97.3333 1502.13 100.8 1501.73C106.8 1501.07 119.733 1493.47 124.667 1487.87C128.667 1483.07 129.2 1482.8 131.2 1484.8C134 1487.6 134 1488 129.867 1501.87C128 1508.4 126.667 1513.87 127.067 1514.27C129.333 1516.67 145.2 1505.07 165.067 1486.53C182.933 1469.87 185.467 1469.07 174.4 1483.73C171.067 1488 168.8 1492.67 168.4 1495.87C167.733 1501.07 169.6 1506.8 172 1506.8C172.667 1506.8 177.867 1502.8 183.467 1497.87L193.733 1488.93L192.8 1495.33C190.8 1508.8 188.267 1510.4 163.733 1514.8C130.133 1520.67 122.533 1520.67 104.667 1514.4C94.1333 1510.67 82.8 1508.93 80.2667 1510.53C78 1512 79.4667 1515.47 83.0667 1517.33C85.3333 1518.53 82.6667 1518.67 70.5333 1518.13C62.1333 1517.73 54.8 1517.73 54.2667 1518.27C53.8667 1518.8 54.9333 1521.07 56.6667 1523.47C62.8 1531.33 61.7333 1532.27 47.6 1531.33C20 1529.33 7.46667 1540.8 34 1543.73C38.9333 1544.4 43.3333 1545.47 43.6 1546.4C44.4 1548.8 36.4 1554 22.6667 1560C10.6667 1565.2 0 1572.13 0 1574.8C0 1575.47 1.33333 1576.67 2.8 1577.6C6.4 1579.47 15.8667 1577.73 37.7333 1571.2C56 1565.73 60.4 1566.53 49.4667 1573.2C41.6 1578 37.8667 1584.13 40 1588.13C41.6 1591.2 44.4 1591.47 52.8 1589.33C56.1333 1588.53 59.0667 1588.13 59.4667 1588.53C59.8667 1588.93 58.4 1591.73 56.1333 1594.93C51.0667 1601.73 50.9333 1604.13 55.3333 1604.13C59.3333 1604.13 66.8 1600.53 76.9333 1593.73C80.8 1591.2 84.4 1589.47 84.8 1589.87C85.3333 1590.27 84.9333 1593.47 84.1333 1596.93C83.2 1600.27 82.9333 1603.47 83.3333 1603.87C83.6 1604.27 86.2667 1602.93 88.9333 1601.07C91.6 1599.07 94.1333 1597.73 94.4 1598.13C94.6667 1598.4 94.2667 1600.53 93.4667 1602.93C92.6667 1605.33 92.2667 1607.47 92.5333 1607.73C92.8 1608.13 96.8 1605.33 101.467 1601.6C106.267 1597.73 111.2 1594.8 113.067 1594.8C116 1594.8 116.133 1595.2 115.733 1601.73L115.333 1608.8L120 1608.53C122.533 1608.27 129.867 1605.47 136.267 1602.13C147.467 1596.4 153.333 1594.67 153.333 1597.33C153.333 1599.6 158 1600.13 165.333 1598.8C169.2 1598 172.667 1597.73 173.067 1598C174.533 1599.47 164 1603.07 141.733 1608.53C114.267 1615.47 106.667 1618.67 106.667 1623.2C106.667 1630.27 113.2 1631.2 132.133 1626.67C138.667 1625.2 144.667 1624.13 145.6 1624.4C146.4 1624.67 141.6 1630.8 134.8 1637.87C123.067 1650.27 121.333 1653.47 126.533 1653.47C131.467 1653.47 149.733 1648 160 1643.47C171.067 1638.67 174.667 1637.87 174.667 1640.13C174.667 1640.8 172 1645.6 168.667 1650.8C165.333 1656 162.667 1661.47 162.667 1662.93C162.667 1665.33 163.333 1665.73 169.067 1665.47C178.267 1664.93 178.533 1665.07 179.733 1669.73C180.267 1672.13 181.733 1674.27 182.933 1674.53C184 1674.8 188.267 1672.13 192.4 1668.8C196.533 1665.47 200.133 1662.8 200.533 1662.8C200.933 1662.8 201.333 1665.47 201.333 1668.53C201.333 1673.33 201.867 1674.67 204.4 1675.73C212.4 1679.47 228.8 1671.73 238.933 1659.47L245.733 1651.47L244.533 1658.13C240 1684.8 246.667 1686.53 268.933 1665.07C276.933 1657.33 281.467 1653.73 281.867 1654.93C282.133 1656 283.067 1661.2 283.867 1666.53C286 1682.8 290.8 1685.2 301.2 1675.47C304.667 1672.13 308.267 1669.47 309.067 1669.47C309.867 1669.47 312.133 1671.6 314.133 1674.13C318.4 1679.73 320.8 1680 322 1675.07C323.467 1668.8 326.4 1665.47 330.533 1665.47C335.2 1665.47 338.133 1662.4 340.8 1654.4C343.067 1647.87 345.067 1646.67 348.133 1650.27C350.8 1653.47 356.8 1656.13 361.333 1656.13C366.933 1656.13 371.067 1651.6 378.4 1637.6C381.6 1631.6 385.733 1624.93 387.6 1622.8C391.2 1618.4 395.6 1617.33 394.133 1621.07C393.6 1622.27 392.8 1625.87 392.4 1629.07C391.733 1634.13 392 1634.8 394.133 1634.8C398.133 1634.67 410.933 1625.2 413.867 1620.27C415.333 1617.73 416.933 1613.6 417.333 1610.93L418.133 1606.13L420.4 1611.2C424.533 1620.8 428.8 1614.67 430.133 1597.07C430.667 1590.67 431.333 1585.47 431.733 1585.47C432 1585.47 433.467 1586.93 434.933 1588.8C438.133 1592.93 444.133 1596.13 448.533 1596.13C450.267 1596.13 452.8 1597.2 454.133 1598.4C456.133 1600.4 456.267 1602.53 455.467 1615.73C453.733 1647.2 449.6 1665.73 439.2 1688.67C435.2 1697.33 432 1704.8 432 1705.07C432 1705.33 456.8 1705.33 487.067 1705.2L542 1704.8L542.4 1700.4C542.667 1697.87 541.067 1690.8 538.8 1684.27C533.067 1667.6 530.267 1651.2 530.933 1637.33C531.067 1630.93 531.733 1625.33 532.267 1624.8C534.4 1622.67 538.8 1626.27 545.333 1635.47C555.6 1650 562.4 1653.33 558.667 1642C557.733 1639.47 557.467 1636.93 558 1636.4C559.2 1635.07 562.133 1639.2 568.133 1651.07C570.933 1656.8 574.4 1661.87 575.6 1662.53C576.933 1663.2 581.733 1664.13 586.267 1664.53C590.8 1665.07 597.2 1666.8 600.667 1668.4C606.533 1671.2 606.933 1671.33 608.133 1669.07C610.267 1665.47 613.2 1666.27 621.067 1672.8C628.133 1678.67 633.2 1680.4 633.467 1677.07C633.6 1676.27 633.6 1672.8 633.333 1669.47C633.067 1663.6 633.067 1663.6 635.6 1665.73C636.933 1667.07 640.933 1669.33 644.533 1670.8C650.667 1673.6 650.933 1673.6 653.6 1671.2C658.133 1667.07 673.2 1668.27 694.533 1674.27C697.467 1675.2 697.6 1674.93 696.667 1669.87C695.867 1665.07 696.267 1664 699.333 1661.2L702.8 1657.87L699.6 1654C697.867 1651.87 695.733 1648.8 694.8 1647.07C692.533 1642.67 695.467 1643.2 709.6 1649.47C727.333 1657.33 731.467 1656.53 724.8 1646.67L721.467 1641.87L726.267 1644.27C729.733 1646 732.667 1646.53 736 1646C740.667 1645.2 741.067 1645.47 742.4 1649.33C744.667 1655.73 751.867 1665.47 754.4 1665.47C755.733 1665.47 758.933 1664 761.6 1662.13C764.267 1660.27 767.067 1658.8 767.733 1658.8C769.333 1658.8 776.267 1666.53 779.467 1672C780.8 1674.27 782.267 1676.13 782.667 1676.13C783.067 1676.13 784.8 1672.27 786.4 1667.47C788.133 1662.67 790.4 1658.8 791.333 1658.8C792.267 1658.8 794.667 1660.93 796.533 1663.47C803.067 1672 806.667 1672.13 815.067 1664.4C819.333 1660.27 819.733 1655.73 816 1650.13C814.533 1647.87 813.733 1645.07 814.133 1643.87C814.533 1642.53 813.6 1638.8 812.133 1635.47C810.667 1632.13 810 1629.47 810.667 1629.47C811.2 1629.47 817.333 1634.4 824.267 1640.53C840.133 1654.67 847.6 1660.13 851.333 1660.13C853.2 1660.13 856.133 1658.13 858.667 1655.33C862 1651.47 862.8 1649.47 862.4 1646C862.133 1643.47 862.133 1641.47 862.4 1641.47C862.667 1641.47 866.533 1644.13 871.067 1647.33C885.333 1657.33 898.8 1662.8 902.267 1660C904.267 1658.27 903.067 1655.47 896.933 1647.87C894.8 1645.2 893.467 1642.4 893.867 1641.73C894.267 1640.93 898.933 1639.2 904 1638C909.2 1636.67 913.333 1635.2 913.333 1634.8C913.333 1634.4 908.8 1630.27 903.333 1625.73C886.133 1611.33 890.667 1611.07 918.133 1624.53C939.6 1635.2 943.733 1636.67 946.667 1634.8C949.733 1632.93 946.4 1627.73 939.467 1624C936.133 1622.27 933.333 1620.4 933.333 1620C933.333 1619.6 938.933 1618.8 945.867 1618.4C953.2 1617.87 961.2 1616.53 965.333 1614.93C972 1612.4 977.333 1608.8 977.333 1606.8C977.333 1606.27 972.133 1605.47 965.733 1604.93C939.067 1602.93 880 1591.87 868.267 1586.8C859.867 1583.07 854.667 1578.93 854.667 1576C854.667 1572.93 856 1572.93 864.533 1575.47C868.133 1576.53 873.333 1577.47 876.267 1577.47C880.4 1577.47 881.333 1576.93 881.333 1574.8C881.333 1573.33 879.467 1570.93 877.333 1569.2C875.2 1567.6 873.333 1565.87 873.333 1565.2C873.333 1564.67 880.533 1564.27 889.2 1564.53C900.8 1564.67 905.6 1564.27 906.933 1563.07C909.333 1560.67 907.067 1557.47 900.133 1553.6C897.067 1551.87 894.8 1550.13 895.2 1549.73C895.733 1549.33 903.067 1548.93 911.733 1548.8C928.133 1548.67 933.867 1547.2 933.067 1543.07C932.8 1541.6 929.333 1539.73 922.667 1537.6C917.2 1535.87 911.733 1534.27 910.667 1533.87C909.6 1533.47 913.733 1532.4 919.867 1531.47C936.667 1528.93 938.533 1525.33 926.4 1518.53C921.467 1515.73 921.333 1515.47 924.267 1514.67C926 1514.27 933.333 1514.4 940.667 1514.93C959.2 1516.4 968 1516.4 968 1514.8C968 1512.53 956 1505.6 950.8 1504.8C942.933 1503.47 937.067 1500.4 937.6 1497.73C938 1495.73 940 1495.47 954.133 1495.47C965.6 1495.47 970.933 1494.93 972.533 1493.6C973.733 1492.67 974.4 1491.33 974 1490.8C973.067 1489.2 962.267 1486.8 946.267 1484.8C927.6 1482.27 917.6 1480.27 916.667 1478.8C915.333 1476.8 922.933 1473.73 941.467 1468.93C951.333 1466.4 962.8 1463.07 967.067 1461.47C979.067 1456.93 986.133 1449.73 980.667 1447.6C976.933 1446.27 958.933 1449.2 931.6 1455.73C923.733 1457.6 916.8 1458.8 916.4 1458.4C916 1457.87 920.533 1452.93 926.533 1447.2C946.267 1428.27 938.933 1427.2 904.267 1443.87C892 1449.87 878.667 1455.6 874.667 1456.67C865.2 1459.47 845.733 1459.6 834.533 1456.93C807.2 1450.53 749.6 1425.2 718.8 1406.13C705.733 1398 702 1394.4 700.533 1388.93L699.6 1384.93L703.467 1387.73C705.6 1389.33 709.733 1393.07 712.667 1396C716.267 1399.73 718.667 1401.2 720.267 1400.67C721.6 1400.27 724.4 1401.2 726.533 1402.67C732 1406.53 733.333 1406.13 733.333 1400.8C733.333 1398.27 733.867 1396.13 734.533 1396.13C736.267 1396.13 742.533 1401.2 751.867 1410L760.267 1418.13L759.467 1412.8C757.067 1399.07 756.933 1392.13 758.8 1392.13C762 1392.13 780 1401.33 788.533 1407.2C802.667 1417.07 804 1416.53 801.6 1401.87C800.8 1396.93 800.4 1392.53 800.8 1392C801.067 1391.47 803.467 1392.27 806 1394C811.467 1397.73 818 1399.2 823.2 1397.73C827.333 1396.67 828.4 1395.2 830.667 1389.07C832.533 1383.87 835.467 1384.53 842.4 1392C849.733 1399.73 863.333 1409.47 866.933 1409.47C870.933 1409.47 869.867 1403.6 864.667 1397.2C850.533 1379.73 849.467 1377.47 855.467 1377.47C857.333 1377.47 861.6 1375.47 864.933 1373.07L871.067 1368.8L886.133 1369.2L901.333 1369.47L905.467 1365.47C910.4 1360.8 911.867 1360.67 926 1364C941.6 1367.73 948.4 1368.4 952.533 1366.8C961.067 1363.6 953.333 1357.33 927.733 1346.8C918.267 1342.93 910.667 1339.33 910.667 1338.53C910.667 1337.87 911.733 1337.6 913.067 1338C927.467 1342.4 940.8 1344.53 955.333 1344.53C973.733 1344.53 981.733 1342.53 982.4 1337.87C983.2 1332.27 973.6 1329.2 950.267 1327.33L938.533 1326.53L947.6 1323.47C952.533 1321.73 957.6 1319.07 959.067 1317.33C961.467 1314.4 961.467 1314.13 959.067 1312.4C956.533 1310.4 957.733 1310.4 899.867 1313.07C889.067 1313.47 879.333 1313.47 878.133 1313.07C876.133 1312.27 876.267 1311.47 879.333 1305.6C883.867 1296.4 882.8 1294.27 874.133 1295.33C870.4 1295.73 863.6 1297.33 859.067 1298.8C834.4 1306.53 816.667 1304.67 768.4 1289.33C724.133 1275.33 701.6 1265.33 696.4 1257.6C692.4 1251.6 693.6 1250.27 702.133 1251.33C708.4 1252 709.467 1251.87 710.667 1249.47C712.667 1245.73 715.2 1246 732.933 1252.67C742.4 1256.27 752.933 1259.07 759.333 1260C773.867 1261.87 809.067 1262.93 809.867 1261.6C810.267 1260.93 809.2 1258.4 807.6 1256C801.867 1247.6 802.133 1247.47 810.133 1254.27C824.267 1266.27 829.333 1268.53 829.333 1262.4C829.333 1255.87 831.467 1255.2 838.933 1259.33C850.533 1265.6 852.267 1265.73 858.933 1260.93C862.267 1258.67 868.533 1255.07 873.067 1252.93C877.6 1250.8 881.333 1248.4 881.333 1247.73C881.333 1247.07 878.8 1244.13 875.733 1241.33C872.533 1238.53 870.667 1236.27 871.333 1236.27C872.133 1236.13 877.2 1237.6 882.667 1239.47L892.667 1242.67L896 1238.8C900.667 1233.6 902.667 1232.8 925.333 1226.8C944.933 1221.6 953.333 1218.53 953.333 1216.27C953.333 1215.6 956 1215.47 959.067 1215.73C964.8 1216.4 973.333 1213.47 973.333 1210.93C973.333 1210.27 969.333 1208.4 964.4 1206.67L955.333 1203.47V1196.8C955.333 1190 954.267 1188.67 946 1186.13C943.6 1185.33 943.6 1185.07 947.2 1183.2C949.333 1182.13 957.6 1178.8 965.6 1176C996.667 1164.93 1001.07 1159.07 975.067 1163.47C961.333 1165.73 901.867 1167.87 895.467 1166.27C891.067 1165.2 891.067 1163.47 895.6 1161.2C897.467 1160.27 899.333 1158.8 899.6 1157.87C900.667 1154.67 893.867 1153.2 872.267 1152.13C848.4 1150.8 838.8 1149.6 822.133 1145.33C807.6 1141.6 801.067 1138.13 801.6 1134.4C802 1131.87 803.2 1131.33 810 1130.4C815.333 1129.73 818.8 1128.53 820.267 1126.8C821.733 1124.93 824.133 1124.13 827.867 1124.13C831.6 1124.13 833.733 1123.47 834.133 1122.13C835.333 1119.33 836.4 1119.6 847.2 1124.8C854.8 1128.53 858.4 1129.6 865.733 1129.87C870.667 1130 874.667 1129.87 874.667 1129.47C874.667 1129.07 870.667 1125.6 865.867 1121.6C859.867 1116.53 857.733 1114 858.933 1113.33C859.867 1112.8 869.067 1112 879.333 1111.47L898 1110.4L882.667 1102.93L867.467 1095.47L878.667 1094.8C891.867 1093.87 895.733 1092.13 906.667 1082.13C910.933 1078.27 917.067 1073.87 920.267 1072.4C930 1068.13 935.333 1056.67 929.2 1053.33C925.333 1051.33 919.067 1052.4 896.933 1058.93C884.933 1062.53 877.467 1064.13 875.2 1063.6C871.867 1062.67 871.733 1062.4 872.667 1055.47C873.867 1045.73 873.2 1045.73 849.6 1053.07C827.733 1059.73 824 1059.87 802.667 1054.4C772.933 1046.67 749.2 1036.93 748.267 1032C747.733 1029.2 751.6 1028.13 762.933 1028.13C770.4 1028.13 772.4 1027.6 775.733 1024.8C778 1022.93 780.533 1021.47 781.6 1021.47C782.533 1021.47 786.533 1023.87 790.533 1026.8C796.933 1031.6 798.4 1032.13 805.6 1032.13C816.133 1032.13 832 1028.53 832.933 1025.87C833.467 1024.4 831.867 1021.87 828.133 1018.4C825.067 1015.6 822.667 1013.07 822.933 1012.8C823.2 1012.53 828.4 1014.13 834.533 1016.27C840.667 1018.4 846 1020.13 846.267 1020.13C846.667 1020.13 846.533 1017.73 846 1014.93C845.333 1010.53 845.6 1009.47 847.867 1008.27C849.333 1007.47 852 1006.8 853.867 1006.8C857.867 1006.8 859.333 1004.8 858.8 999.468C858.667 996.668 859.467 994.535 861.2 992.935C864.8 989.602 864.667 988.802 860.533 985.068C853.733 979.202 853.867 978.268 862.533 969.068C879.867 950.402 877.333 949.735 835.333 962.135C811.6 969.202 802 971.068 788 971.202C777.467 971.335 774.4 970.935 770 968.535C763.867 965.335 758.667 960.802 755.333 955.735C750.4 948.002 759.2 945.868 775.333 950.935C780.133 952.402 786.133 953.468 788.4 953.202C795.6 952.535 794.533 948.935 784.133 939.068C778.933 934.135 774.667 929.602 774.667 928.935C774.667 928.268 778.133 928.135 782.4 928.535C791.333 929.468 801.2 927.868 802.8 925.335C804.267 922.802 801.333 920.135 795.867 918.935L791.333 918.002L796.667 915.202C804.533 911.068 812.133 902.002 809.733 899.602C809.333 899.202 806.8 900.002 804 901.468C794.533 906.268 782.533 907.468 744 907.335C704.4 907.335 687.333 905.468 674.533 900.002C664.8 895.735 664 894.002 671.467 893.068C679.6 892.135 680.533 891.068 678.933 883.602C677.467 876.402 678.4 875.868 684.267 880.935C689.467 885.202 700.4 890.802 703.867 890.802C705.2 890.802 706.8 889.868 707.2 888.668C707.867 886.802 709.333 886.535 714.667 887.202C721.333 888.002 721.6 887.868 726.4 882.135C727.333 880.935 730.267 880.135 733.333 880.135C739.867 880.135 745.333 878.135 745.333 875.735C745.333 873.868 735.2 863.735 724.667 854.935L719.333 850.535L726 851.335C729.733 851.868 739.333 853.068 747.333 854.135C756.4 855.335 763.6 855.735 766 854.935C769.733 854.002 770 853.468 769.6 848.135C768.933 838.802 775.867 833.202 790 831.468C798.933 830.402 802.667 828.802 802.667 826.268C802.667 824.535 797.2 821.468 794 821.468C792.933 821.468 792 820.802 792 820.135C792 819.335 795.733 818.802 800.533 818.802C811.333 818.802 813.333 818.002 813.333 813.868C813.333 811.602 814.267 810.268 816.133 809.868C820.133 808.802 818.8 804.135 813.333 800.402C809.333 797.602 807.6 797.335 800.667 797.868C793.2 798.535 792.8 798.402 795.733 796.535C799.2 794.135 799.6 789.602 796.4 789.202C795.067 789.202 790.533 789.202 786.133 789.468C777.733 789.735 777.867 790.002 780.933 781.735C781.867 779.602 779.867 779.735 773.733 782.002C770.933 783.068 763.867 784.668 758 785.468C748 786.935 735.2 789.735 729.733 791.735C728.4 792.135 732.667 787.468 739.2 781.202C751.6 769.335 753.467 764.935 744.267 768.935C727.867 776.135 722.533 775.468 729.333 767.068C733.467 762.002 734.267 757.602 731.2 756.535C730.533 756.268 725.333 759.468 719.867 763.468C704.4 775.202 695.467 778.935 680.933 779.735C654.133 781.335 616.267 771.335 605.6 759.735C603.867 757.868 601.867 753.735 601.2 750.668C600.4 747.468 598.4 742.935 596.533 740.535C592.533 735.335 592.533 734.535 596.267 735.068C598 735.335 600.533 737.335 602 739.735C605.467 745.202 608.8 746.402 622.667 747.335C628.933 747.602 638.133 748.668 643.067 749.602C648 750.535 652.267 750.935 652.667 750.535C653.067 750.135 653.733 746.802 654.267 742.935C654.667 739.202 655.333 736.135 655.6 736.135C655.867 736.135 660.8 738.802 666.4 742.002C678.4 748.935 683.2 750.402 686 748.135C688.533 746.002 688.533 742.268 686 740.135C680.667 735.735 686 735.335 721.333 738.135C730.267 738.802 742.667 735.868 743.6 732.668C743.867 731.868 742.267 728.935 740 726.135C737.867 723.335 736 720.268 736 719.335C736 718.268 739.067 716.668 743.2 715.468C750.933 713.202 755.467 709.468 754.267 706.135C753.733 705.068 752 704.135 750.133 704.135C743.6 704.135 745.467 701.602 756.533 695.468C767.067 689.468 790.533 672.402 790.667 670.668C790.667 670.135 786.933 669.068 782.4 668.268C769.6 665.868 761.467 662.802 760 660.002C758.4 657.202 753.333 656.802 744.667 658.802C741.733 659.468 739.2 659.735 738.8 659.335C738.4 659.068 739.467 656.535 740.933 653.735C742.4 651.068 743.333 648.002 743.067 647.068C742 644.135 733.2 645.335 723.733 650.002C711.733 656.002 703.333 657.602 687.867 657.202L675.333 656.802L681.2 653.068L687.067 649.202L686.4 640.002C686 634.935 685.333 630.402 684.933 630.002C684.533 629.602 680 631.735 674.667 634.802C651.067 648.535 634 649.468 601.2 638.668C586.267 633.735 567.467 625.468 555.467 618.535C532.267 605.202 519.333 592.268 538.933 602.268C545.467 605.601 545.867 605.601 547.6 603.335C548.533 602.001 549.333 599.468 549.333 597.601C549.333 594.268 549.6 594.401 554.133 599.868C558.267 604.801 559.6 605.468 562.667 604.801C565.333 604.268 568.8 605.468 576.267 609.335C581.867 612.268 586.667 614.268 587.2 613.868C587.6 613.335 588 610.001 588 606.268C588 596.001 589.467 594.801 595.333 599.868C601.6 605.468 612.267 610.801 617.067 610.801C621.333 610.801 623.467 607.335 624.267 599.468C624.667 595.868 624.933 596.401 627.733 603.601C630.4 611.068 631.067 611.868 635.067 612.401C637.333 612.801 642.133 614.268 645.6 615.602L652 618.002L658.4 611.735C661.867 608.268 665.867 605.468 667.2 605.468C669.467 605.468 669.6 604.668 668.8 596.135C668.267 590.801 668.4 586.801 669.067 586.801C669.733 586.801 673.733 588.001 678 589.468C691.867 594.268 695.867 592.535 690.133 584.268C688.267 581.601 686.667 578.668 686.667 577.868C686.667 576.935 689.067 576.135 692.133 575.868L697.6 575.468L692.8 569.468C683.6 558.002 688.267 553.202 699.333 562.802C702.667 565.735 706.933 568.535 708.8 568.935C712.267 569.868 726.4 568.802 727.6 567.602C727.867 567.335 726.8 564.535 725.067 561.602C720.933 554.402 722.533 552.002 732.4 550.002C740.533 548.268 748.533 544.135 756.667 536.935L762 532.268L739.733 532.135C724.933 532.135 717.333 531.602 717.333 530.668C717.333 530.002 718.8 527.068 720.667 524.402C727.467 514.535 723.867 515.068 704 526.935C692.933 533.468 687.2 536.268 684.8 535.868L681.333 535.468L684.8 530.268L688.267 525.202L682.933 526.135C679.733 526.668 677.333 526.402 676.8 525.602C675.867 524.135 678.4 518.802 682.933 513.202C690.533 503.602 678.133 508.802 661.333 522.135C647.6 533.068 638.8 537.468 630.4 537.468C622.8 537.468 596.8 530.135 581.067 523.468C561.6 515.202 547.6 504.935 543.867 495.735C541.6 490.402 543.6 488.935 551.467 490.135C556.667 490.935 558.933 492.135 564.133 497.602C569.867 503.602 570.933 504.135 576.667 504.135H583.067L582.267 497.468C581.867 493.735 582 490.802 582.533 490.802C583.2 490.802 585.333 492.935 587.333 495.602C594.933 505.602 608.133 512.268 615.2 509.602C618.533 508.268 618.533 508.135 617.733 497.068C617.067 486.535 617.2 485.735 620 483.735C624 480.935 628 482.535 636 490.002C642.8 496.402 652.267 500.535 660.4 500.668C669.333 500.802 668.267 497.868 654.667 484.668C642.4 472.802 641.2 469.735 649.333 471.468C652 472.002 654.533 474.002 656.4 476.935C658.667 480.402 660.267 481.468 663.2 481.468C665.467 481.468 668.533 482.802 670.267 484.402C672.8 486.802 675.467 487.468 682.667 487.868C687.867 488.268 692 487.868 692 487.202C692 486.535 689.6 484.268 686.667 482.002C683.733 479.868 681.333 477.468 681.333 476.668C681.333 474.668 693.067 469.735 702.133 467.735C706.133 466.935 709.333 465.868 709.333 465.335C709.333 464.802 706.4 462.535 702.667 460.268C699.067 458.002 696 455.735 696 455.335C696 454.802 700.4 454.802 705.733 455.335C719.067 456.535 728.267 454.402 732.667 449.202C736.667 444.402 736.8 442.668 733.467 439.602C731.467 437.868 727.067 436.935 715.733 436.002C696.667 434.402 695.6 434.135 696.533 430.002C697.2 427.468 696.667 426.402 694.133 425.202C689.2 423.068 678.933 425.468 663.2 432.535C655.867 435.868 648.4 438.802 646.667 439.068C643.6 439.468 643.333 439.068 643.333 433.468C643.333 427.868 643.067 427.468 639.333 426.802C635.6 426.135 635.333 425.735 635.333 420.135C635.333 413.202 634.933 413.068 622.267 417.735C618 419.202 614.267 420.135 613.733 419.602C613.333 419.202 612.8 416.002 612.8 412.535C612.667 404.002 609.867 403.602 601.733 410.802C592.4 419.068 570.667 429.468 562.933 429.468C556.133 429.468 546.4 427.202 538.133 423.602L532.8 421.335L538.4 415.735C544.133 409.868 545.333 405.602 542.133 402.935C541.067 402.002 533.733 401.335 523.867 401.068C506 400.668 502.4 399.602 495.733 392.535C486.933 383.335 477.467 349.335 482.8 346.002C485.733 344.268 487.333 348.535 488 359.868C488.667 371.068 489.067 372.002 494.933 380.802C501.733 390.935 505.467 394.002 509.467 392.802C512.933 391.602 517.067 383.202 518.4 374.535L519.467 367.468L521.733 374.135C526 386.802 537.333 396.135 548.133 396.135C555.467 396.135 556.4 394.135 552.533 386.668C549.6 380.668 548.267 374.802 550.133 374.802C550.533 374.802 552 375.468 553.467 376.135C555.6 377.335 556.267 377.068 557.2 374.268C559.867 367.468 564.267 368.402 566.667 376.535C568.667 383.202 582.267 396.935 590.533 400.802C595.6 403.068 596.267 403.068 598.133 401.202C599.333 400.135 600.533 396.535 600.933 393.335C601.867 386.135 603.467 382.802 606 382.802C607.2 382.802 608 381.602 608 380.002C608 377.468 608.933 378.002 614.667 383.335C621.333 389.602 623.733 390.535 626.267 388.002C626.933 387.335 632.4 385.468 638.133 384.002C649.867 381.202 665.067 374.268 666.267 371.335C667.333 368.668 664.667 366.002 657.6 362.668C649.467 358.802 642.667 353.735 642.667 351.602C642.667 348.268 638.933 346.668 627.733 344.802C614.933 342.668 606 339.735 601.333 336.135L598 333.602L601.733 330.268C606.4 326.002 606.533 321.068 602 319.068C596.4 316.535 584 317.068 578.667 320.135C569.6 325.335 562.4 328.135 557.867 328.135C549.067 328.135 553.867 322.668 566 318.802C572.933 316.535 573.733 315.068 570.533 310.668C569.2 308.668 568 306.535 568 305.868C568 305.202 571.6 303.868 576 303.068C584.4 301.335 594.933 294.535 595.733 290.402C596.4 287.202 592.267 285.868 572.8 282.935C562.933 281.468 555.2 279.602 554.533 278.668C553.2 276.535 559.333 264.268 562.267 263.202C563.6 262.668 567.6 264.135 572.133 266.535C576.4 268.935 580.667 270.802 581.6 270.802C582.667 270.802 584.8 267.735 586.4 264.002C588.933 257.735 589.6 257.202 592.667 258.002C595.467 258.668 596.267 258.268 597.2 255.735C598.4 252.535 602 250.802 607.467 250.802C608.933 250.802 611.333 249.602 612.667 248.135C618 242.268 609.867 235.202 596.133 233.868C592 233.468 587.6 232.535 586.4 231.868C582.4 229.868 583.6 225.735 589.333 222.135C592.667 220.002 594.667 217.735 594.667 216.135C594.667 214.402 596.933 211.868 600.933 209.068C618.4 197.068 616.267 192.135 593.333 192.135C586.667 192.135 581.333 191.868 581.333 191.468C581.333 191.068 584.8 186.135 589.067 180.402C593.333 174.668 597.6 168.002 598.533 165.602C600.133 161.868 600.133 161.068 598 158.802C593.467 153.735 589.867 155.335 577.067 168.135C570.533 174.668 564.4 180.135 563.467 180.135C562.4 180.135 559.467 177.468 556.8 174.135C554 170.802 550.667 168.135 549.333 168.135C544 168.135 532.133 187.602 527.067 204.535C522.8 219.068 483.333 253.335 477.6 247.468C477.067 247.068 476.4 236.268 476 223.602C475.333 203.468 474.933 200.268 472.8 198.135C470.667 196.002 470.4 194.002 470.933 184.002C471.733 167.468 474.667 163.868 488.8 161.868L494.533 161.068L493.733 168.002C492.267 180.668 497.867 182.268 508.667 172.002L515.867 165.202L521.2 167.202C527.333 169.735 534.933 168.935 538.133 165.335C540.133 163.068 540 162.668 536.667 158.135C531.867 151.868 517.867 140.268 514.267 139.602C512.667 139.202 509.2 138.668 506.533 138.135C504 137.735 500.667 136.535 499.2 135.468C494.933 132.268 499.2 130.535 510 131.335C539.2 133.602 546.533 133.735 551.2 132.135C558 129.868 557.467 125.468 550.133 123.068C547.2 122.135 542.533 119.335 539.733 116.668C535.333 112.802 533.867 112.135 530.533 112.802C522.933 114.535 526.267 109.735 540.933 98.2682C555.333 87.0682 556.4 82.5349 544.4 84.8015C537.733 86.0015 513.467 97.6015 509.6 101.468C507.867 103.068 506.267 104.135 506 103.868C505.733 103.602 506 101.068 506.667 98.1349C508.133 91.7349 507.067 86.8015 504.4 86.8015C498.933 86.8015 484.533 110.002 483.067 121.335C482.4 126.135 481.867 126.935 479.733 126.402C478 125.868 475.333 127.202 471.867 130.402L466.667 135.068V126.668C466.667 115.068 469.733 101.468 474.133 93.4682C476.133 89.8682 482.267 81.3349 487.733 74.6682C498.667 61.2015 509.333 45.7349 509.333 43.6015C509.2 39.0682 504.533 37.2015 498 38.9349C491.6 40.6682 484.4 47.3349 481.067 54.2682C477.467 62.1349 475.2 63.8682 472.267 60.9349C470.4 59.0682 469.867 55.0682 469.333 39.0682C468.533 17.0682 467.733 14.9349 457.6 5.0682L452.4 0.00153393L451.6 10.2682ZM432.133 161.335C440.667 170.002 444.533 176.802 446.667 186.268C448.133 192.802 447.2 206.802 445.333 206.802C444 206.802 438.133 192.402 435.467 182.668C434.267 178.668 431.6 172.935 429.467 169.868C417.333 153.202 419.067 147.868 432.133 161.335ZM420.933 221.468C435.467 228.802 443.6 237.735 446 249.068C447.333 255.735 443.2 254.802 435.467 246.935C431.867 243.202 427.067 239.602 424.8 238.668C419.2 236.402 413.6 231.202 410.533 225.068C406 216.402 408.8 215.468 420.933 221.468ZM536.533 254.268C539.867 255.602 539.067 257.868 533.733 263.068C521.867 274.135 502.933 286.002 494.267 287.602C491.067 288.135 488.4 289.602 487.067 291.602C486 293.335 484.267 294.802 483.2 294.802C480.4 294.802 478.4 289.602 479.2 284.668C480.667 276.935 482.667 276.002 497.2 276.402C511.2 276.802 513.333 276.135 513.333 271.602C513.333 268.002 516.667 264.802 521.6 263.602C523.733 263.202 525.6 261.602 526.133 259.735C527.867 253.868 531.067 252.135 536.533 254.268ZM506.933 323.468C520.8 323.468 524.4 324.802 520.8 328.535C519.6 329.735 514.933 330.935 510 331.468C500.4 332.535 497.6 331.335 486.667 321.602L482 317.335L488 320.402C493.067 322.935 496.133 323.468 506.933 323.468ZM536.4 332.268C538.4 333.468 538.933 333.202 539.6 330.935C540.4 327.602 545.067 327.202 546.267 330.268C547.2 332.935 542.533 337.868 536 340.802C529.2 343.868 526.667 342.135 526.667 334.135C526.667 327.335 527.6 326.135 531.2 328.802C532.8 329.868 535.067 331.468 536.4 332.268ZM598.667 348.135C596.8 351.602 592.133 352.802 589.733 350.402C587.333 348.002 588.4 345.735 592.533 344.135C596.667 342.535 600.4 344.935 598.667 348.135ZM494.8 421.735C496.133 428.535 496.133 450.135 494.8 454.802L493.867 458.002L491.2 455.335C489.2 453.335 488.133 450.002 487.6 444.002C486.667 435.468 488.133 417.735 490 414.802C491.467 412.402 493.467 415.202 494.8 421.735ZM460.933 474.402C461.467 475.868 457.867 480.135 456.267 480.135C455.733 480.135 454.4 479.468 453.333 478.802C451.6 477.602 451.867 477.068 454.533 474.668C457.867 472.002 460.133 471.868 460.933 474.402ZM494.933 493.335C494.533 496.402 494 497.202 493.2 496.002C491.733 493.735 491.6 484.935 492.933 483.602C494.4 482.135 495.733 488.268 494.933 493.335ZM442.667 485.868C442.667 488.402 439.867 490.802 437.067 490.802C434.667 490.802 433.733 486.935 435.6 485.068C437.2 483.468 442.667 484.135 442.667 485.868ZM335.733 499.335C342.667 505.868 347.333 508.135 353.467 508.135C358.4 508.135 361.733 506.535 368.533 500.535C371.467 498.135 375.2 496.135 376.933 496.135C379.733 496.135 380.133 496.668 379.733 500.402C379.333 504.402 379.6 504.802 383.6 505.202C386.667 505.468 388.933 504.535 392.4 501.602C397.467 497.068 401.867 496.268 403.2 499.735C404.533 502.935 399.333 507.735 391.467 510.668C381.6 514.268 359.333 517.735 343.867 517.868C330.8 518.135 330.4 518.002 327.2 514.402C323.733 510.402 319.333 497.068 320.667 494.802C322.667 491.468 329.467 493.468 335.733 499.335ZM421.333 494.802C421.333 495.468 419.867 497.068 417.867 498.268C414.133 500.802 411.333 499.335 412.8 495.735C413.733 493.335 421.333 492.535 421.333 494.802ZM732.4 728.268C734.133 731.068 732.667 734.935 730.267 734.002C728 733.202 725.2 727.468 726.4 726.268C727.733 724.802 730.933 726.002 732.4 728.268ZM360.133 780.668C357.867 783.335 334.8 794.668 329.733 795.602C321.467 797.202 324.8 792.802 335.733 787.735C353.467 779.335 363.6 776.402 360.133 780.668ZM752.933 968.402C756.667 969.868 756.533 970.002 750 970.802C737.867 972.535 719.2 970.002 727.733 967.735C732.533 966.402 749.333 966.935 752.933 968.402ZM845.333 992.135C845.333 992.802 843.333 993.468 840.8 993.468C838.267 993.468 835.733 992.802 835.333 992.135C834.8 991.335 836.667 990.802 839.867 990.802C842.933 990.802 845.333 991.335 845.333 992.135ZM849.333 1102.8C855.067 1105.73 856.667 1108.93 851.733 1107.33C847.2 1106 841.6 1103.07 840.667 1101.47C839.333 1099.2 843.733 1100 849.333 1102.8ZM76 1280.13C74.4 1283.2 68.4 1285.07 66.4 1283.07C64.9333 1281.6 70.9333 1277.6 75.0667 1277.47C77.0667 1277.47 77.2 1277.87 76 1280.13ZM157.333 1327.6C162 1332.4 165.733 1336.13 166 1335.87C166.133 1335.6 168.667 1331.87 171.6 1327.47C179.733 1315.33 180.133 1315.2 185.2 1321.6L189.6 1326.93L192.667 1324.13C196 1321.07 196.933 1321.73 200 1329.2C202.133 1334.8 206.4 1338 208.933 1335.87C209.867 1335.07 210.667 1333.6 210.667 1332.67C210.667 1329.87 216.533 1328.13 225.733 1328.27L234 1328.4L222.667 1333.87C210.667 1339.73 209.333 1340 176.8 1340.13C174 1340.13 173.2 1340.67 173.867 1342.13C175.333 1346.13 170.8 1345.6 160 1340.93C147.733 1335.47 146.533 1335.33 142.133 1338.27C139.2 1340 138.4 1340 134.133 1338.27C131.467 1337.2 129.333 1335.47 129.333 1334.53C129.333 1333.6 133.067 1328.67 137.6 1323.6C144.933 1315.47 146 1314.8 147.467 1316.8C148.4 1318 152.8 1322.93 157.333 1327.6ZM252 1321.33C252 1322.8 244.8 1325.47 240.933 1325.47C238.4 1325.47 238.267 1325.33 240.667 1322.8C243.067 1320.13 252 1318.93 252 1321.33ZM205.733 1502.27C207.2 1503.73 204 1508.13 201.467 1508.13C197.867 1508.13 197.067 1506.53 199.6 1503.87C201.733 1501.47 204.267 1500.8 205.733 1502.27Z" fill="#0F1613"/>
</svg>
