<svg width="336" height="1000" viewBox="0 0 336 1000" fill="none" xmlns="http://www.w3.org/2000/svg">
<path d="M262.136 14.9268C263.472 15.5668 263.472 15.5668 264.835 16.2197C272.651 20.1999 279.35 25.4302 286.136 30.9268C286.669 31.3487 287.202 31.7706 287.751 32.2053C290.691 34.5733 293.041 36.853 295.136 39.9893C298.781 45.0005 302.575 47.5287 308.511 49.2393C317.07 51.9193 321.936 58.359 326.136 65.9268C327.642 68.4609 329.167 70.9768 330.741 73.4697C334.977 80.5508 336.481 86.0961 334.609 94.2119C334.453 94.7778 334.297 95.3437 334.136 95.9268C333.476 95.9268 332.816 95.9268 332.136 95.9268C328.513 104.834 328.062 113.25 330.144 122.642C331.3 128.148 331.397 133.442 331.323 139.052C331.323 139.989 331.322 140.926 331.321 141.892C331.287 147.322 330.926 152.554 330.136 157.927C329.476 157.927 328.816 157.927 328.136 157.927C328.098 158.518 328.061 159.11 328.023 159.72C327.924 160.905 327.924 160.905 327.823 162.114C327.765 162.892 327.707 163.669 327.648 164.47C327.136 166.927 327.136 166.927 325.707 169.235C320.348 178.415 320.697 189.45 320.609 199.747C320.439 207.793 319.956 216 314.448 222.302C310.803 226.932 311.668 232.332 312.136 237.927C312.511 240.737 312.511 240.737 312.905 243.544C314.853 263.675 309.434 277.388 299.183 294.204C295.651 300.016 292.692 305.276 291.136 311.927C290.476 311.927 289.816 311.927 289.136 311.927C289.194 312.659 289.252 313.391 289.312 314.146C289.975 330.06 286.748 346.409 278.947 360.324C275.774 366.124 274.77 371.633 273.788 378.13C272.846 383.615 271.077 388.725 269.136 393.927C268.476 393.927 267.816 393.927 267.136 393.927C266.909 394.772 266.682 395.618 266.448 396.489C265.101 400.018 263.457 402.462 261.159 405.411C259.949 406.898 259.949 406.898 260.136 408.927C260.734 409.463 261.332 409.999 261.948 410.552C269.591 418.849 269.485 433.12 269.386 443.739C269.38 444.788 269.374 445.837 269.368 446.918C269.246 456.472 268.519 465.515 265.694 474.692C264.423 478.835 263.432 482.968 262.551 487.208C259.513 501.794 254.87 515.817 250.136 529.927C249.469 531.927 248.802 533.927 248.136 535.927C244.204 534.243 241.109 531.601 237.823 528.927C214.087 509.297 214.087 506.796 186.136 497.426C186.136 496.766 186.136 498.607 186.136 497.927C184.156 498.257 182.176 498.587 180.136 498.927C180.136 499.587 180.136 500.247 180.136 500.927C180.796 501.257 181.456 501.587 182.136 501.927C181.476 502.917 180.816 503.907 180.136 504.927C181.126 504.927 182.116 504.927 183.136 504.927C183.095 506.041 183.053 507.154 183.011 508.302C182.725 511.97 182.725 511.97 185.136 513.927C184.476 513.927 183.816 513.927 183.136 513.927C183.136 514.587 183.136 515.247 183.136 515.927C184.126 516.257 185.116 516.587 186.136 516.927C185.806 517.917 185.476 518.907 185.136 519.927C185.796 519.927 186.456 519.927 187.136 519.927C187.095 520.937 187.053 521.948 187.011 522.989C187.001 526.844 187.499 530.473 188.101 534.278C189.479 543.867 189.601 553.491 189.769 563.162C189.824 566.251 189.894 569.34 189.966 572.429C190.007 574.424 190.046 576.42 190.085 578.415C190.116 579.776 190.116 579.776 190.148 581.165C190.231 586.476 189.964 591.635 189.356 596.914C189.1 598.921 189.1 598.921 189.136 600.927C188.476 600.927 187.816 600.927 187.136 600.927C187.486 602.164 187.837 603.402 188.198 604.677C189.092 607.83 189.145 609.794 188.136 612.927C187.476 612.927 186.816 612.927 186.136 612.927C186.301 613.876 186.466 614.824 186.636 615.802C187.136 618.927 187.136 618.927 187.136 620.927C186.476 620.927 185.816 620.927 185.136 620.927C185.301 621.876 185.466 622.824 185.636 623.802C186.136 626.927 186.136 626.927 186.136 628.927C185.476 628.927 184.816 628.927 184.136 628.927C184.136 629.587 184.136 630.247 184.136 630.927C183.456 630.927 184.796 630.927 184.136 630.927C184.136 631.587 184.286 632.746 184.286 633.426C183.626 633.426 184.816 632.927 184.136 632.927C184.321 633.546 184.507 634.164 184.698 634.802C185.136 636.927 185.136 636.927 184.136 638.927C184.796 638.927 185.456 638.927 186.136 638.927C185.806 639.917 185.476 640.907 185.136 641.927C186.119 645.859 187.152 648.214 190.136 650.927C190.136 651.587 190.136 652.247 190.136 652.927C198.184 656.263 206.467 658.942 215.136 659.927C216.136 660.927 216.136 660.927 216.136 667.927C221.746 667.927 227.356 667.927 233.136 667.927C233.159 677.882 233.177 687.837 233.188 697.792C233.193 702.416 233.2 707.041 233.211 711.666C233.222 716.146 233.228 720.626 233.231 725.107C233.233 726.798 233.236 728.49 233.242 730.182C233.273 740.153 233.072 750.07 232.476 760.025C232.171 765.259 232.134 770.437 232.261 775.677C232.368 784.013 230.97 791.816 229.136 799.927C228.456 799.927 229.796 799.927 229.136 799.927V801.927C229.816 801.927 227.136 801.927 229.136 801.927C229.136 806.217 229.136 810.507 229.136 814.927L228.5 820.926C227.82 820.926 229.16 820.926 228.5 820.926C228.83 826.206 223.796 831.487 224.136 836.927C226.516 836.927 221.826 836.927 224.136 836.927C224.062 838 224.062 838 223.987 839.095C223.411 846.783 222.389 854.323 221.136 861.927C220.886 863.549 220.886 863.549 220.632 865.204C220.468 866.247 220.305 867.29 220.136 868.364C219.991 869.291 219.847 870.218 219.698 871.173C219.136 873.927 219.136 873.927 218.186 876.738C217.205 879.718 216.449 882.647 215.769 885.708C215.403 887.332 215.403 887.332 215.03 888.988C214.776 890.123 214.523 891.258 214.261 892.427C211.181 905.928 207.695 918.956 202.687 931.876C201.675 934.488 200.714 937.109 199.804 939.759C192.512 960.711 180.476 985.476 163.136 999.927C161.816 999.927 160.496 999.927 159.136 999.927C156.124 992.941 153.747 986.047 152.128 978.626C151.958 977.85 151.787 977.073 151.612 976.273C149.938 968.397 148.806 960.473 147.808 952.487C147.512 950.124 147.204 947.763 146.894 945.401C144.109 923.942 142.628 902.514 141.667 880.901C141.572 878.78 141.475 876.659 141.377 874.538C140.542 856.463 139.776 838.389 139.427 820.297C139.4 819.054 139.374 817.81 139.347 816.528C139.329 815.48 139.312 814.431 139.294 813.351C139.293 810.917 139.136 799.927 139.136 799.927C139.136 795.637 139.136 791.347 139.136 786.927C140.836 786.927 137.486 786.927 139.136 786.927C139.136 779.007 139.136 771.087 139.136 762.927C137.436 762.927 140.786 762.927 139.136 762.927C139.052 751.096 138.957 739.266 138.848 727.436C138.798 721.943 138.752 716.45 138.714 710.957C138.677 705.66 138.631 700.362 138.578 695.065C138.559 693.04 138.544 691.016 138.533 688.991C138.516 686.163 138.487 683.335 138.455 680.507C138.453 679.664 138.45 678.82 138.448 677.951C138.571 673.466 138.571 673.466 136.136 669.927C136.011 667.302 136.011 667.302 136.136 664.927C135.476 664.927 134.816 664.927 134.136 664.927C134.116 664.299 134.096 663.672 134.076 663.025C133.727 652.457 133.356 641.934 132.136 631.427C129.378 607.463 129.978 583.206 130.005 559.123C130.011 554.085 130.008 549.046 130.002 544.008C129.998 540.081 129.999 536.155 130.002 532.228C130.003 530.37 130.002 528.512 130 526.654C129.99 517.364 129.987 508.163 131.136 498.927C111.791 508.248 94.103 518.764 77.7726 532.813C75.1359 534.927 75.1359 534.927 73.1359 534.927C42.9125 449.271 42.9125 449.271 56.1359 413.927C58.8453 408.443 58.8453 408.443 62.174 407.111C64.1383 406.614 66.1373 406.26 68.1359 405.927C70.6389 386.977 70.6389 386.977 72.1359 367.927C71.53 367.889 70.9241 367.852 70.2999 367.814C63.3268 367.266 56.4493 366.084 50.1359 362.927C50.1359 362.267 50.1359 361.607 50.1359 360.927C49.579 360.679 49.0221 360.432 48.4484 360.177C45.7118 358.698 43.4594 356.992 41.1359 354.927C41.1359 354.267 41.1359 353.607 41.1359 352.927C40.4759 352.927 39.8159 352.927 39.1359 352.927C30.6146 333.452 30.6146 333.452 28.7062 324.958C28.1685 322.641 28.1685 322.641 26.1359 319.927C25.5967 317.267 25.4022 314.634 25.1359 311.927C24.4759 311.927 23.8159 311.927 23.1359 311.927C22.6641 310.732 22.6641 310.732 22.1827 309.513C21.7548 308.453 21.3268 307.394 20.8859 306.302C20.2594 304.736 20.2594 304.736 19.6202 303.138C18.238 299.9 18.238 299.9 16.2045 297.165C8.5704 285.215 7.82999 269.976 6.44836 256.239C6.15045 253.42 5.84795 250.602 5.54443 247.784C5.34941 245.972 5.15627 244.159 4.96521 242.347C4.3279 236.385 3.49858 230.477 2.53552 224.558C2.01212 221.112 1.75985 217.719 1.57336 214.239C1.46277 209.922 1.46277 209.922 0.135862 205.927C-0.109901 201.265 0.0329064 196.593 0.135862 191.927C0.153748 191.1 0.171634 190.273 0.190062 189.421C0.520434 176.409 1.3954 164.45 6.32336 152.259C7.46046 148.995 8.25669 145.656 9.07336 142.302C12.8039 127.083 17.2835 114.382 25.4874 100.981C28.5086 95.383 30.3485 89.3751 32.2765 83.3308C33.2835 80.2057 34.3443 77.1006 35.42 73.9986C36.0108 72.2887 36.5801 70.5715 37.1437 68.8526C40.8408 59.5807 50.5281 55.0482 59.1359 50.9268C59.1359 50.2668 59.1359 49.6068 59.1359 48.9268C60.4692 47.5934 61.8025 46.2601 63.1359 44.9268C63.6515 44.0399 64.1671 43.153 64.6984 42.2393C68.022 37.0851 73.3386 33.6127 78.1359 29.9268C79.0176 29.2423 79.8993 28.5578 80.8077 27.8526C100.657 12.9068 122.431 6.59614 146.761 3.17677C147.899 3.01568 147.899 3.01568 149.06 2.85133C185.763 -2.20338 228.296 -1.86328 262.136 14.9268Z" fill="#981E24"/>
<path d="M256.387 407.551C260.422 408.101 261.636 409.768 264.137 412.926C268.677 422.68 269.486 433.1 269.387 443.738C269.381 444.787 269.375 445.836 269.368 446.917C269.247 456.471 268.519 465.514 265.695 474.691C264.424 478.834 263.433 482.967 262.552 487.207C259.514 501.793 254.871 515.816 250.137 529.926C249.47 531.926 248.803 533.926 248.137 535.926C244.205 534.242 241.11 531.6 237.824 528.926C225.709 519.265 212.78 511.241 199.137 503.926C198.063 503.347 196.989 502.768 195.883 502.172C190.034 499.129 184.205 496.782 177.918 494.805C174.266 493.651 170.711 492.3 167.137 490.926C167.137 490.266 167.137 489.606 167.137 488.926C167.924 488.646 168.712 488.366 169.523 488.078C187.834 481.339 202.955 471.187 217.137 457.926C218.465 456.753 219.798 455.586 221.137 454.426C225.025 451.039 228.852 447.588 232.676 444.129C234.929 442.112 237.214 440.141 239.512 438.176C248.116 430.608 251.227 422.545 252.742 411.332C253.252 408.224 253.299 408.065 256.387 407.551Z" fill="#FCFCFB"/>
<path d="M62.2768 407.34C62.9729 407.409 63.669 407.479 64.3862 407.551C65.6237 407.675 66.8612 407.798 68.1362 407.926C68.2947 408.748 68.4533 409.571 68.6166 410.418C71.9083 426.167 78.626 435.881 91.3158 445.641C94.6645 448.354 97.7615 451.273 100.886 454.238C116.361 468.798 134.808 483.744 156.136 487.926C156.136 488.586 156.136 489.246 156.136 489.926C155.283 490.09 155.283 490.09 154.414 490.258C149.327 491.302 144.87 492.728 140.136 494.926C139.519 495.19 138.901 495.454 138.265 495.727C116.228 505.183 95.9716 517.156 77.7729 532.812C75.1362 534.926 75.1362 534.926 73.1362 534.926C42.9128 449.27 42.9128 449.27 56.1362 413.926C59.2981 408.155 59.2981 408.155 62.2768 407.34Z" fill="#FCFBFA"/>
</svg>
