<svg width="865" height="1028" viewBox="0 0 865 1028" fill="none" xmlns="http://www.w3.org/2000/svg">
<path d="M485.074 0C485.734 0 486.394 0 487.074 0C485.677 5.05001 483.474 8.69594 480.449 12.875C479.818 13.7645 479.818 13.7645 479.175 14.6719C478.148 16.1193 477.112 17.5603 476.074 19C476.851 18.2021 477.628 17.4041 478.429 16.582C480.677 14.3874 482.22 13.1625 485.074 12C484.744 14.31 484.414 16.62 484.074 19C485.724 18.34 487.374 17.68 489.074 17C489.074 17.66 489.074 18.32 489.074 19C494.024 19 498.974 19 504.074 19C504.074 19.66 504.074 20.32 504.074 21C504.919 21.2269 505.765 21.4537 506.636 21.6875C510.074 23 510.074 23 513.074 25.625C519.282 30.2336 528.135 28.389 535.374 27.4766C547.916 26.0217 547.916 26.0217 553.824 30.3125C555.595 31.8505 557.344 33.4147 559.074 35C561.209 36.7082 563.392 38.351 565.574 40C566.673 40.8482 567.772 41.6971 568.87 42.5469C575.085 47.3256 581.376 51.947 588.011 56.125C591.783 58.573 593.597 61.2427 596.074 65C598.772 66.2345 598.772 66.2345 602.074 67C603.873 67.6894 605.664 68.3991 607.449 69.125C608.323 69.4782 609.197 69.8314 610.097 70.1953C610.749 70.4609 611.402 70.7264 612.074 71C612.074 71.66 612.074 72.32 612.074 73C612.789 73.2372 613.504 73.4744 614.242 73.7188C624.627 78.417 632.384 89.5432 638.636 98.75C640.794 101.847 643.326 104.027 646.245 106.395C648.929 108.751 651.136 111.463 653.445 114.18C655.45 116.42 657.68 118.189 660.074 120C662.386 122.125 662.386 122.125 664.074 124C664.074 124.66 664.074 125.32 664.074 126C664.709 126.086 665.344 126.171 665.998 126.26C668.898 126.651 671.798 127.044 674.699 127.438C676.197 127.64 676.197 127.64 677.726 127.846C685.535 128.906 685.535 128.906 689.382 129.578C695.771 130.579 703.279 131.417 709.199 128.375C712.305 125.809 713.631 123.733 715.074 120C715.734 120.33 716.394 120.66 717.074 121C718.017 130.033 715.898 135.449 711.074 143C710.496 144.134 709.919 145.269 709.324 146.438C706.503 149.65 703.925 150.586 699.945 151.988C695.754 153.465 691.716 155.282 687.64 157.047C685.074 158 685.074 158 682.074 158C683.699 159.73 685.35 161.37 687.074 163C687.67 163.577 688.267 164.155 688.882 164.75C694.546 169.718 700.217 171.476 707.425 173.078C711.197 174.031 714.512 175.453 718.074 177C725.917 179.06 731.818 177.154 739.074 174C740.387 173.557 740.387 173.557 741.726 173.105C744.471 171.813 745.315 170.721 746.824 168.125C747.231 167.447 747.638 166.769 748.058 166.07C752.16 157.708 750.547 146.664 748.074 138C744.997 130.155 739.065 124.77 732.71 119.48C731.074 118 731.074 118 730.074 116C732.054 116.33 734.034 116.66 736.074 117C736.074 117.66 736.074 118.32 736.074 119C736.589 119.083 737.105 119.165 737.636 119.25C744.696 121.422 748.659 125.343 753.074 131C753.734 131.743 754.394 132.485 755.074 133.25C762.57 143.558 767.647 155.207 768.074 168C768.12 168.957 768.12 168.957 768.168 169.933C768.72 181.995 768.097 190.636 759.886 200.125C744.423 216.244 731.149 222.902 708.853 223.391C707.075 223.414 707.075 223.414 705.261 223.438C704.129 223.46 702.996 223.482 701.829 223.506C693.054 223.481 685.454 221.92 678.074 217C682.912 227.024 687.968 236.675 694.074 246C694.808 247.174 694.808 247.174 695.558 248.371C699.34 253.991 704.12 256.915 710.074 260C710.944 260.565 710.944 260.565 711.831 261.141C715.428 262.519 719.005 262.369 722.824 262.375C723.597 262.399 724.37 262.424 725.167 262.449C733.686 262.492 740.068 258.866 746.074 253C747.134 251.031 748.148 249.036 749.074 247C749.734 246.67 750.394 246.34 751.074 246C751.532 251.445 749.483 253.675 746.124 257.727C740.252 264.237 734.152 268.571 726.074 272C725.179 272.394 725.179 272.394 724.266 272.796C719.459 274.783 715.158 275.441 709.949 275.312C709.196 275.304 708.443 275.296 707.668 275.287C697.77 275.086 687.912 274.042 678.074 273C683.707 285.164 688.682 291.975 701.136 297.312C702.095 297.653 702.095 297.653 703.074 298C703.074 298.33 703.074 298.66 703.074 299C697.576 299.421 693.206 299.311 688.136 297C682.742 294.564 677.905 294.601 672.074 295C672.404 297.31 672.734 299.62 673.074 302C673.734 302 674.394 302 675.074 302C675.452 308.425 675.452 308.425 673.511 311.375C671.368 315.289 672.211 318.736 673.074 323C673.404 323.99 673.734 324.98 674.074 326C675.112 326.004 675.112 326.004 676.171 326.008C688.73 326.504 699.32 330.5 708.277 339.367C711.881 342.76 715.752 345.706 719.699 348.688C720.404 349.222 721.109 349.756 721.835 350.307C723.911 351.876 725.992 353.438 728.074 355C728.8 355.549 729.527 356.098 730.276 356.663C730.983 357.196 731.689 357.728 732.417 358.277C733.051 358.756 733.685 359.234 734.337 359.726C740.105 363.957 745.055 364.879 752.074 364C755.76 362.387 756.827 361.37 759.074 358C759.829 355.259 759.829 355.259 759.074 352C757.39 349.506 755.563 347.238 753.605 344.953C752.074 343 752.074 343 752.074 341C756.363 341.548 759.332 344.178 762.636 346.75C763.213 347.181 763.79 347.611 764.384 348.055C768.845 351.492 771.712 354.294 772.472 359.98C772.419 367.2 771.561 373.234 769.074 380C768.403 381.999 767.736 383.999 767.074 386C776.951 384.07 776.951 384.07 786.074 380C786.846 379.615 787.618 379.229 788.413 378.832C791.872 376.45 793.802 373.632 796.136 370.188C796.767 369.282 796.767 369.282 797.411 368.357C798.645 366.58 799.86 364.791 801.074 363C801.799 361.952 802.525 360.904 803.273 359.824C804.811 357.412 805.897 355.312 806.824 352.625C807.442 350.831 807.442 350.831 808.074 349C808.404 349 808.734 349 809.074 349C810.025 359.85 806.255 370.166 800.074 379C799.07 380.757 798.09 382.528 797.136 384.312C796.622 385.263 796.107 386.213 795.578 387.191C794.639 388.944 793.708 390.702 792.788 392.465C784.62 407.83 769.317 417.246 752.967 422.486C752.136 422.738 751.305 422.99 750.449 423.25C749.581 423.514 748.714 423.778 747.821 424.049C740.421 426.162 733.775 426.689 726.074 426C730.477 435.484 734.941 444.881 739.949 454.062C744.203 461.935 747.301 468.892 747.074 478C747.734 478.66 748.394 479.32 749.074 480C751.839 486.043 752.503 491.772 752.402 498.34C752.4 499.188 752.398 500.036 752.396 500.91C752.389 502.684 752.376 504.458 752.355 506.232C752.323 508.955 752.314 511.677 752.308 514.4C752.299 516.13 752.288 517.86 752.277 519.59C752.272 520.404 752.268 521.219 752.264 522.058C752.191 527.765 752.191 527.765 751.074 530C750.405 541.701 751.693 550.679 756.734 561.184C757.602 563.008 758.425 564.854 759.195 566.723C762.384 574.392 766.909 580.532 772.074 587C772.516 587.608 772.958 588.217 773.413 588.844C778.457 595.592 785.898 600.304 794.074 602C797.912 602.249 801.729 602.234 805.574 602.188C806.58 602.187 807.587 602.186 808.624 602.186C813.875 602.155 818.901 601.908 824.074 601C823.744 601.99 823.414 602.98 823.074 604C819.891 605.447 816.459 606.154 813.074 607C812.341 607.209 811.609 607.418 810.855 607.633C790.299 612.772 769.082 607.64 751.107 597.288C741.546 591.458 733.785 582.587 728.074 573C728.074 572.01 728.074 571.02 728.074 570C713.872 583.007 713.872 583.007 704.074 599C711.155 597.418 716.277 594.832 722.042 590.426C724.074 589 724.074 589 726.074 589C724.692 593.12 722.556 596.43 720.188 600.027C712.497 611.828 707.117 624.551 709.074 639C710.646 645.481 713.738 650.936 718.761 655.375C723.12 657.513 726.31 657.877 731.074 657C736.078 655.273 739.972 653.155 743.636 649.312C745.557 644.887 746.291 640.825 746.074 636C744.834 633.087 743.638 631.543 741.386 629.375C740.074 628 740.074 628 740.074 625C748.108 625 753.286 628.601 759.074 634C766.308 643.363 767.878 652.371 767.074 664C765.891 671.286 763.66 677.57 760.074 684C762.714 684 765.354 684 768.074 684C768.074 683.34 768.074 682.68 768.074 682C811.67 681.08 811.67 681.08 828.074 694C829.62 694.619 829.62 694.619 831.199 695.25C836.337 697.358 840.634 700.713 845.074 704C845.841 704.559 846.608 705.119 847.398 705.695C863.135 717.505 863.135 717.505 864.074 724C860.713 722.475 857.995 720.493 855.074 718.25C849.399 714.067 843.493 710.888 837.074 708C836.318 707.657 835.563 707.314 834.785 706.961C817.097 700.691 795.768 702.585 778.074 708C777.215 708.263 776.356 708.525 775.471 708.796C770.804 710.241 766.154 711.735 761.511 713.254C756.397 714.916 751.254 716.436 746.074 717.875C744.989 718.179 744.989 718.179 743.882 718.49C737.872 720.139 732.256 721.13 726.019 721.098C724.91 721.094 723.802 721.091 722.66 721.088C721.517 721.08 720.375 721.071 719.199 721.062C718.033 721.058 716.868 721.053 715.667 721.049C712.803 721.037 709.938 721.021 707.074 721C711.61 730.853 717.068 741.073 724.874 748.777C726.074 750 726.074 750 726.074 752C726.775 752.248 727.476 752.495 728.199 752.75C731.074 754 731.074 754 733.574 755.75C743.909 762.693 752.68 764.951 765.074 764C766.194 763.919 767.314 763.838 768.468 763.754C771.01 763.542 773.54 763.295 776.074 763C776.074 762.34 776.074 761.68 776.074 761C781.824 758 781.824 758 784.074 758C784.074 757.34 784.074 756.68 784.074 756C785.287 754.936 786.546 753.924 787.824 752.938C796.204 745.712 796.93 736.582 798.074 726C798.734 726.33 799.394 726.66 800.074 727C805.445 746.358 801.401 770.136 791.824 787.5C787.891 794.213 783.217 800.168 778.074 806C777.524 806.704 776.975 807.408 776.41 808.133C771.347 814.492 764.832 818.651 758.074 823C757.202 823.57 756.331 824.14 755.433 824.727C740.691 834 740.691 834 734.074 834C734.074 834.66 734.074 835.32 734.074 836C734.687 836.009 735.3 836.019 735.931 836.028C748.858 836.275 760.696 837.025 773.074 841C773.772 841.213 774.47 841.426 775.189 841.645C788.475 845.727 803.139 851.012 810.074 864C810.819 866.487 811.018 868.381 811.074 871C809.3 869.315 807.861 867.698 806.449 865.688C800.611 859.082 791.625 853.912 782.828 852.688C776.862 852.517 770.854 853.586 765.074 855C764.744 855.33 764.414 855.66 764.074 856C762.061 856.475 760.038 856.903 758.011 857.312C752.56 858.447 747.158 859.694 741.761 861.062C741.077 861.233 740.392 861.404 739.687 861.58C736.989 862.254 734.298 862.936 731.624 863.699C718.549 867.211 706.422 864.861 693.918 860.611C691.496 859.809 689.038 859.16 686.574 858.5C681.665 857.041 677.443 854.625 673.074 852C673.784 859.938 675.473 867.445 677.345 875.18C677.566 876.116 677.787 877.051 678.015 878.016C678.218 878.854 678.421 879.692 678.63 880.556C679.09 883.089 679.151 885.431 679.074 888C679.734 888 680.394 888 681.074 888C681.933 893.906 682.21 899.728 682.261 905.688C682.274 906.412 682.287 907.136 682.3 907.883C682.308 912.37 681.603 915.813 680.074 920C679.381 922.902 678.801 925.828 678.199 928.75C676.333 937.449 674.009 945.489 669.074 953C668.558 953.928 668.042 954.856 667.511 955.812C667.037 956.534 666.562 957.256 666.074 958C665.414 958 664.754 958 664.074 958C663.949 952.25 663.949 952.25 665.074 950C666.378 941.504 666.291 932.825 666.314 924.248C666.324 922.004 666.355 919.76 666.386 917.516C666.477 905.682 665.04 895.93 658.386 885.938C657.944 885.253 657.502 884.569 657.047 883.865C653.389 878.286 649.363 873.105 645.074 868C644.296 866.993 643.519 865.986 642.718 864.949C641.928 863.935 641.138 862.92 640.324 861.875C639.607 860.944 638.89 860.014 638.152 859.055C636.087 856.531 636.087 856.531 632.074 857C631.744 858.65 631.414 860.3 631.074 862C630.414 862 629.754 862 629.074 862C628.95 863.918 628.95 863.918 628.824 865.875C628.329 870.384 627.029 874.116 625.206 878.25C624.258 880.553 623.452 882.826 622.679 885.191C619.075 896.16 615.13 907.425 608.773 917.109C605.699 922.338 603.275 927.912 600.764 933.427C598.298 938.754 595.593 943.306 592.074 948C591.312 949.315 590.577 950.646 589.886 952C587.24 956.878 584.206 961.453 581.085 966.035C578.787 969.411 576.562 972.805 574.449 976.301C574.019 976.993 573.589 977.686 573.147 978.4C572.323 979.731 571.519 981.073 570.737 982.428C569.593 984.246 569.593 984.246 567.074 987C562.777 987.557 559.753 987.355 556.074 985C556.572 981.265 556.949 979.188 559.074 976C561.456 975.707 561.456 975.707 564.199 975.812C565.807 975.874 567.416 975.936 569.074 976C568.744 972.7 568.414 969.4 568.074 966C567.231 965.662 566.388 965.325 565.519 964.977C564.423 964.531 563.328 964.085 562.199 963.625C561.108 963.184 560.018 962.743 558.894 962.289C556.074 961 556.074 961 554.074 959C553.761 956 553.761 956 554.074 953C557.509 950.71 559.059 950.822 563.074 951C563.074 951.66 563.074 952.32 563.074 953C565.054 953 567.034 953 569.074 953C569.074 949.37 569.074 945.74 569.074 942C568.063 941.732 567.052 941.464 566.011 941.188C556.569 938.495 556.569 938.495 554.074 936C554.033 934 554.031 932 554.074 930C558.816 927.097 562.73 928.297 568.074 929C568.074 925.37 568.074 921.74 568.074 918C567.231 917.818 566.388 917.636 565.519 917.449C563.875 917.072 563.875 917.072 562.199 916.688C561.108 916.444 560.018 916.2 558.894 915.949C556.074 915 556.074 915 554.074 912C553.824 909.438 553.824 909.438 554.074 907C556.887 904.187 559.169 904.331 563.074 904C564.724 904.33 566.374 904.66 568.074 905C568.074 901.37 568.074 897.74 568.074 894C567.022 893.876 565.97 893.752 564.886 893.625C560.452 892.898 557.279 892.206 554.074 889C553.824 886 553.824 886 554.074 883C556.074 881 556.074 881 559.886 880.812C563.046 880.887 565.997 881.231 569.074 882C568.888 880.113 568.888 880.113 568.699 878.188C568.594 877.126 568.594 877.126 568.488 876.043C568.147 873.7 568.147 873.7 566.074 871C563.731 869.879 563.731 869.879 561.074 869C556.296 867.333 556.296 867.333 554.074 864C554.261 861.438 554.261 861.438 555.074 859C558.509 856.71 560.059 856.822 564.074 857C564.074 857.66 564.074 858.32 564.074 859C566.054 859 568.034 859 570.074 859C569.414 855.04 568.754 851.08 568.074 847C566.506 846.732 564.939 846.464 563.324 846.188C559.486 845.531 556.917 844.738 554.074 842C553.824 838.812 553.824 838.812 554.074 836C557.846 834.248 560.74 833.775 564.886 833.875C565.862 833.893 566.838 833.911 567.843 833.93C568.947 833.964 568.947 833.964 570.074 834C570.074 831.69 570.074 829.38 570.074 827C569.414 827 568.754 827 568.074 827C567.744 826.01 567.414 825.02 567.074 824C564.288 822.747 564.288 822.747 561.011 821.812C559.906 821.468 558.802 821.124 557.663 820.77C556.809 820.516 555.954 820.262 555.074 820C555.074 817.36 555.074 814.72 555.074 812C559.448 809.813 564.476 811.081 569.074 812C568.744 808.37 568.414 804.74 568.074 801C567.414 801 566.754 801 566.074 801C566.074 800.34 566.074 799.68 566.074 799C565.375 798.879 564.676 798.758 563.956 798.633C563.046 798.465 562.136 798.298 561.199 798.125C560.294 797.963 559.389 797.8 558.456 797.633C556.074 797 556.074 797 554.074 795C553.949 792.375 553.949 792.375 554.074 790C558.897 787.083 563.575 787.869 569.074 788C568.744 784.37 568.414 780.74 568.074 777C567.063 776.897 566.052 776.794 565.011 776.688C560.861 775.963 557.86 774.777 554.074 773C554.074 770.69 554.074 768.38 554.074 766C554.734 766 555.394 766 556.074 766C556.074 765.34 556.074 764.68 556.074 764C557.899 763.938 557.899 763.938 559.761 763.875C560.788 763.84 560.788 763.84 561.835 763.805C564.074 764 564.074 764 569.074 766C568.414 762.04 567.754 758.08 567.074 754C564.753 753.319 564.753 753.319 562.386 752.625C558.869 751.572 555.446 750.462 552.074 749C551.744 746.69 551.414 744.38 551.074 742C555.253 739.214 557.22 740.204 562.074 741C561.47 734.426 561.47 734.426 558.074 729.125C557.084 728.754 556.094 728.382 555.074 728C553.364 727.315 551.656 726.627 549.949 725.938C549.1 725.617 548.252 725.296 547.378 724.965C545.074 724 545.074 724 542.074 722C542.824 716.25 542.824 716.25 545.074 714C547.456 713.805 547.456 713.805 550.199 713.875C551.109 713.893 552.019 713.911 552.956 713.93C554.004 713.964 554.004 713.964 555.074 714C554.117 707.626 554.117 707.626 550.374 702.773C548.291 702.028 546.229 701.498 544.074 701C536.501 698.427 536.501 698.427 534.074 696C533.886 692.938 533.886 692.938 534.074 690C535.074 689 535.074 689 537.796 688.902C539.449 688.92 539.449 688.92 541.136 688.938C542.241 688.947 543.346 688.956 544.484 688.965C545.766 688.982 545.766 688.982 547.074 689C546.241 684.465 545.427 680.338 542.074 677C539.004 675.681 535.987 674.76 532.753 673.922C530.074 673 530.074 673 528.074 670C527.949 667.312 527.949 667.312 528.074 665C530.598 663.738 532.386 663.901 535.199 663.938C536.109 663.947 537.019 663.956 537.956 663.965C539.004 663.982 539.004 663.982 540.074 664C539.759 661.664 539.423 659.331 539.074 657C539.043 655.979 539.043 655.979 539.011 654.938C538.134 652.591 538.134 652.591 534.695 651.516C533.305 651.077 531.91 650.656 530.511 650.25C529.8 650.03 529.089 649.809 528.357 649.582C526.6 649.04 524.837 648.518 523.074 648C521.949 641.25 521.949 641.25 523.074 639C527.364 639 531.654 639 536.074 639C535.857 638.047 535.64 637.095 535.417 636.113C535 634.232 535 634.232 534.574 632.312C534.295 631.071 534.017 629.83 533.73 628.551C533.18 625.576 532.936 623.006 533.074 620C532.414 620 531.754 620 531.074 620C530.515 616.003 529.965 612.005 529.42 608.007C529.144 605.998 528.864 603.99 528.583 601.982C527.363 592.993 526.561 584.061 526.074 575C525.414 575 524.754 575 524.074 575C521.578 546.017 519.361 517.063 518.074 488C513.967 488.82 512.319 490.496 509.449 493.562C508.027 495.077 506.575 496.565 505.074 498C504.414 498 503.754 498 503.074 498C503.074 498.99 503.074 499.98 503.074 501C502.414 501 501.754 501 501.074 501C501.074 501.66 501.074 502.32 501.074 503C500.414 503 499.754 503 499.074 503C498.733 503.866 498.733 503.866 498.386 504.75C497.074 507 497.074 507 494.699 508.875C491.745 511.266 490.138 513.835 488.074 517C487.084 517.66 486.094 518.32 485.074 519C484.744 519.99 484.414 520.98 484.074 522C482.408 523.334 480.741 524.668 479.074 526C474.103 531.943 469.789 538.209 466.074 545C464.521 547.313 462.943 549.606 461.343 551.887C460.1 553.957 459.516 555.641 459.074 558C458.414 558 457.754 558 457.074 558C456.991 558.66 456.909 559.32 456.824 560C455.985 563.354 454.589 566.015 452.995 569.062C451.913 571.337 451.386 573.505 451.074 576C450.414 576 449.754 576 449.074 576C448.95 576.99 448.826 577.98 448.699 579C448.122 583.089 447.124 587.009 446.074 591C445.414 591 444.754 591 444.074 591C443.952 591.788 443.831 592.575 443.706 593.387C443.539 594.476 443.371 595.565 443.199 596.688C443.017 597.873 442.835 599.059 442.648 600.281C442.281 602.657 441.909 605.032 441.531 607.406C440.498 613.926 439.638 620.423 439.074 627C438.414 627 437.754 627 437.074 627C437.085 627.724 437.097 628.449 437.109 629.195C437.156 634.248 437.147 639.034 436.074 644C436.734 644 437.394 644 438.074 644C438.321 643.154 438.569 642.309 438.824 641.438C441.854 633.105 445.322 629.254 453.074 625C459.2 622.958 464.893 624.077 471.027 625.43C475.626 626.291 480.266 626.752 484.921 627.214C489.488 627.699 493.67 628.625 498.074 630C498.981 630.248 499.889 630.495 500.824 630.75C503.977 632.502 504.622 634.767 506.074 638C506.553 638.471 507.033 638.941 507.527 639.426C512.071 644.05 513.358 650.796 514.074 657C514.424 657.804 514.775 658.609 515.136 659.438C517 664.532 516.963 668.073 514.718 672.938C511.392 678.811 507.795 684.168 503.074 689C502.414 689 501.754 689 501.074 689C501.404 688.01 501.734 687.02 502.074 686C502.734 686 503.394 686 504.074 686C505.844 682.08 506.756 678.18 507.609 673.988C508.074 672 508.074 672 509.074 670C506.765 670.868 506.765 670.868 506.074 673.75C505.744 674.822 505.414 675.895 505.074 677C503.299 682.733 499.934 684.846 494.949 687.938C491.937 690.098 490.804 691.786 489.074 695C488.558 695.474 488.042 695.949 487.511 696.438C485.458 698.669 484.904 701.125 484.074 704C483.084 704 482.094 704 481.074 704C481.074 704.99 481.074 705.98 481.074 707C482.064 707.33 483.054 707.66 484.074 708C485.444 709.636 486.774 711.307 488.074 713C488.754 713.66 489.435 714.32 490.136 715C492.074 717 492.074 717 493.261 719.438C495.214 722.198 496.371 722.823 499.324 724.312C504.468 726.947 507.518 730.539 511.074 735C511.734 735.66 512.394 736.32 513.074 737C513.074 737.99 513.074 738.98 513.074 740C513.734 740 514.394 740 515.074 740C516.773 746.796 517.43 753.464 517.824 760.438C517.88 761.326 517.937 762.214 517.995 763.13C518.037 763.973 518.078 764.815 518.12 765.684C518.16 766.442 518.2 767.201 518.241 767.982C518.074 770 518.074 770 516.074 773C515.441 775.14 515.441 775.14 515.011 777.438C514.084 781.967 514.084 781.967 513.539 783.747C512.937 786.662 513.051 789.33 513.16 792.305C513.225 794.14 513.225 794.14 513.292 796.012C513.344 797.287 513.395 798.561 513.449 799.875C513.514 801.776 513.514 801.776 513.581 803.715C513.799 810.443 513.799 810.443 514.603 817.116C515.037 819.773 515.086 822.039 514.953 824.715C514.894 830.375 516.271 835.216 518.011 840.562C518.289 841.463 518.567 842.363 518.853 843.291C519.887 847.463 519.887 847.463 522.074 851C522.2 853.43 522.262 855.83 522.277 858.262C522.282 859.004 522.288 859.746 522.294 860.511C522.303 862.094 522.31 863.677 522.314 865.26C522.323 867.633 522.354 870.004 522.386 872.377C522.444 880.785 521.781 888.253 519.777 896.465C518.437 903.2 518.494 910.029 518.386 916.875C518.353 918.353 518.318 919.831 518.283 921.309C518.199 924.872 518.132 928.436 518.074 932C519.394 932 520.714 932 522.074 932C522.074 936.62 522.074 941.24 522.074 946C521.084 946.33 520.094 946.66 519.074 947C519.015 950.895 519.023 954.785 519.066 958.68C519.071 960.302 519.057 961.925 519.027 963.547C518.47 976.56 518.47 976.56 523.949 987.875C524.756 988.681 525.563 989.486 526.394 990.316C529.631 993.558 532.178 997.086 534.824 1000.81C535.712 1002.05 536.602 1003.29 537.495 1004.52C538.127 1005.4 538.127 1005.4 538.771 1006.3C540.081 1008.01 541.5 1009.55 542.964 1011.14C545.074 1014 545.074 1014 545.171 1016.57C543.772 1019.67 541.975 1021.49 539.511 1023.81C538.685 1024.6 537.859 1025.39 537.007 1026.21C536.369 1026.8 535.731 1027.39 535.074 1028C531.237 1026.51 529.612 1024.36 527.324 1021C526.71 1020.11 526.096 1019.23 525.464 1018.31C524.074 1016 524.074 1016 524.074 1014C523.414 1014 522.754 1014 522.074 1014C521.093 1012.61 520.124 1011.22 519.222 1009.78C518.026 1007.93 516.72 1006.2 515.386 1004.44C513.385 1001.68 512.388 999.462 512.074 996C511.084 995.67 510.094 995.34 509.074 995C509.074 994.01 509.074 993.02 509.074 992C508.063 991.897 507.052 991.794 506.011 991.688C496.891 990.095 496.891 990.095 493.745 986.469C492.78 985.027 491.916 983.517 491.074 982C486.531 988.814 485.482 994.913 484.503 1002.99C484.074 1006 484.074 1006 483.074 1008C482.929 1011.89 483.064 1015.25 484.074 1019C483.074 1020 483.074 1020 480.511 1020.06C479.707 1020.04 478.902 1020.02 478.074 1020C477.9 1010.93 477.841 1002.36 481.374 993.895C482.456 990.964 482.751 988.098 483.074 985C484.064 985 485.054 985 486.074 985C487.248 977.662 487.167 970.418 487.074 963C486.414 963 485.754 963 485.074 963C485.683 959.442 486.652 956.317 488.074 953C489.064 953 490.054 953 491.074 953C491.074 952.34 491.074 951.68 491.074 951C493.054 950.67 495.034 950.34 497.074 950C497.404 948.02 497.734 946.04 498.074 944C496.754 943.34 495.434 942.68 494.074 942C493.976 935.848 493.976 935.848 494.074 934C494.404 933.67 494.734 933.34 495.074 933C494.977 922.162 490.311 911.337 484.968 902.086C481.604 896.234 480.772 889.991 479.687 883.414C479.266 880.15 479.266 880.15 478.074 878C477.971 875.773 477.944 873.542 477.949 871.312C477.95 870.629 477.951 869.945 477.952 869.24C478.006 861.638 478.391 854.047 478.806 846.456C478.854 845.503 478.903 844.549 478.952 843.566C479.023 842.282 479.023 842.282 479.095 840.971C479.303 838.997 479.303 838.997 478.074 838C476.273 830.783 475.259 823.338 474.074 816C473.414 816 472.754 816 472.074 816C472.074 814.35 472.074 812.7 472.074 811C471.084 811.33 470.094 811.66 469.074 812C468.007 814.304 467.009 816.64 466.074 819C465.414 819.99 464.754 820.98 464.074 822C463.414 822 462.754 822 462.074 822C462.054 823.306 462.034 824.611 462.014 825.956C461.937 830.845 461.848 835.733 461.756 840.622C461.718 842.729 461.683 844.837 461.652 846.944C461.606 849.99 461.548 853.036 461.488 856.082C461.476 857.01 461.465 857.937 461.453 858.893C461.327 864.562 460.679 869.901 459.532 875.457C459.057 878.092 458.85 880.66 458.706 883.332C458.153 890.097 456.059 896.268 453.949 902.688C453.334 904.602 452.723 906.518 452.113 908.434C451.702 909.728 451.289 911.021 450.874 912.314C448.873 918.574 447.019 924.873 445.199 931.188C444.788 932.609 444.788 932.609 444.37 934.059C444.11 934.961 443.85 935.864 443.581 936.793C443.079 938.529 442.577 940.264 442.074 942C441.824 942.862 441.575 943.724 441.319 944.612C441.07 945.458 440.822 946.304 440.566 947.176C440.35 947.914 440.135 948.651 439.913 949.411C439.074 952 439.074 952 437.499 955.446C435.274 961.355 435.703 967.459 435.781 973.688C435.785 974.986 435.789 976.284 435.793 977.622C435.805 981.048 435.834 984.473 435.868 987.899C435.898 991.406 435.912 994.912 435.927 998.418C435.959 1005.28 436.01 1012.14 436.074 1019C433.003 1018.28 430.645 1017.33 427.913 1015.74C427.125 1015.29 426.337 1014.83 425.525 1014.36C424.696 1013.87 423.866 1013.38 423.011 1012.88C422.156 1012.37 421.3 1011.87 420.419 1011.36C411.945 1006.37 403.729 1001.36 396.011 995.25C390.252 990.694 384.171 986.883 377.879 983.109C365.698 975.798 354.209 967.815 343.074 959C342.166 958.299 341.259 957.598 340.324 956.875C335.492 953.104 331.141 949.137 326.874 944.742C324.5 942.445 321.854 940.774 319.074 939C311.564 933.102 311.564 933.102 309.074 929C309.074 928.34 309.074 927.68 309.074 927C308.199 926.621 308.199 926.621 307.306 926.234C304.813 924.856 303.286 923.353 301.359 921.262C300.672 920.524 299.986 919.786 299.279 919.025C298.572 918.254 297.865 917.482 297.136 916.688C295.732 915.17 294.327 913.653 292.921 912.137C291.925 911.059 291.925 911.059 290.909 909.96C288.685 907.585 286.385 905.291 284.074 903C276.236 894.63 269.423 885.315 262.761 876C260.107 872.314 257.332 869.172 254.074 866C250.069 861.351 247.952 858.152 247.074 852C245.741 851.331 244.408 850.665 243.074 850C237.028 843.61 233.137 836.169 230.074 828C229.414 828 228.754 828 228.074 828C227.638 826.938 227.202 825.876 226.753 824.781C222.55 814.606 222.55 814.606 216.335 805.578C214.933 803.825 214.015 802.032 213.074 800C212.084 800 211.094 800 210.074 800C209.807 800.576 209.54 801.152 209.265 801.746C207.081 805.877 203.985 809.363 201.074 813C200.401 813.861 199.728 814.722 199.035 815.609C194.899 820.813 190.559 825.717 185.886 830.438C185.399 830.934 184.912 831.43 184.411 831.941C181.213 835.112 177.858 837.576 174.074 840C172.941 840.908 171.816 841.824 170.699 842.75C161.602 849.62 150.515 854.1 139.843 857.895C137.079 858.896 137.079 858.896 134.828 860.441C131.676 862.225 128.731 863.106 125.234 864.043C124.267 864.303 124.267 864.303 123.28 864.568C121.924 864.931 120.567 865.289 119.209 865.644C117.143 866.186 115.082 866.743 113.021 867.303C111.696 867.655 110.371 868.006 109.046 868.355C107.853 868.672 106.659 868.988 105.429 869.313C102.203 869.973 99.3548 870.132 96.0736 870C98.2965 867.777 99.5562 867.385 102.519 866.477C116.37 861.992 127.675 856.398 138.074 846C132.29 846.708 126.957 847.984 121.48 849.914C97.2424 858.097 67.5622 859.784 43.0736 852C42.4136 851.34 41.7536 850.68 41.0736 850C39.5886 849.412 39.5886 849.412 38.0736 848.812C21.6595 841.865 11.6568 825.241 4.94859 809.332C4.23604 807.235 3.64178 805.14 3.07359 803C2.79902 802.181 2.52445 801.363 2.24156 800.52C0.453378 795.122 -0.242036 790.681 0.0735916 785C0.733592 785 1.39359 785 2.07359 785C2.3675 786.216 2.3675 786.216 2.66734 787.457C5.65286 798.511 10.9345 806.072 19.0736 814C19.8896 814.813 20.7055 815.627 21.5462 816.465C34.0834 828.435 46.2346 832.538 63.2298 832.203C67.7597 831.964 71.7219 831.243 76.0736 830C76.0736 828.68 76.0736 827.36 76.0736 826C74.1864 826.124 74.1864 826.124 72.2611 826.25C61.3424 826.216 53.2425 820.677 45.4486 813.625C40.9366 808.638 36.5179 803.326 34.0736 797C34.5072 794.828 34.5072 794.828 35.0736 793C35.4513 793.531 35.829 794.062 36.2181 794.609C40.9642 800.7 45.474 803.545 53.0736 805C63.6836 806.268 72.5806 805.233 82.0736 800C82.9334 799.529 83.7932 799.059 84.6791 798.574C92.9378 793.145 96.0601 784.275 98.0736 775C100.019 764.987 100.454 755.159 100.636 745C100.68 742.785 100.727 740.57 100.779 738.355C100.825 736.367 100.863 734.379 100.9 732.391C101.049 729.472 101.402 726.836 102.074 724C102.734 724 103.394 724 104.074 724C104.03 722.992 103.986 721.984 103.941 720.945C104.08 716.818 104.861 713.77 106.199 709.875C106.418 709.236 106.637 708.596 106.863 707.937C109.162 701.422 112.031 695.201 115.074 689C108.975 691.18 102.922 693.432 96.9252 695.879C94.0795 696.998 91.2086 698.031 88.3304 699.063C72.6031 704.761 57.6555 711.999 48.9642 726.902C46.7144 732.201 46.4593 738.157 48.2611 743.562C50.2131 746.188 51.0771 746.855 54.0736 748C59.9432 748.712 65.2866 749.287 70.1986 745.75C71.1267 744.389 71.1267 744.389 72.0736 743C72.5931 742.423 73.1126 741.845 73.6478 741.25C75.5639 738.226 75.5835 735.802 75.7611 732.25C75.8268 731.08 75.8926 729.909 75.9603 728.703C75.9977 727.811 76.0351 726.919 76.0736 726C79.8481 727.735 82.208 729.984 85.0736 733C85.7336 733.66 86.3936 734.32 87.0736 735C87.5825 737.392 87.8651 739.576 88.0736 742C88.2592 743.265 88.2592 743.265 88.4486 744.555C88.8698 749.202 88.7614 751.96 86.1361 755.93C83.8883 758.473 81.6827 760.829 79.0736 763C78.4136 763 77.7536 763 77.0736 763C77.0736 763.66 77.0736 764.32 77.0736 765C66.2217 770.827 58.2877 772.181 46.0736 772C46.0736 771.34 46.0736 770.68 46.0736 770C44.867 770.155 44.867 770.155 43.6361 770.312C34.519 769.513 26.8213 762.382 21.0892 755.68C13.3686 745.503 12.6841 733.425 14.0736 721C16.1094 711.948 19.7863 704.777 26.0736 698C26.8741 697.099 26.8741 697.099 27.6908 696.18C32.5463 690.999 38.2925 687.076 44.0736 683C48.7901 679.6 53.005 676.176 57.0736 672C58.0211 671.247 58.9685 670.494 59.9447 669.719C75.9676 656.452 81.85 633.805 84.6791 614.16C85.0736 612 85.0736 612 86.0736 611C86.7664 603.006 85.7932 595.433 84.2882 587.619C82.7905 579.794 81.916 571.919 81.0736 564C80.0836 564 79.0936 564 78.0736 564C77.2459 573.015 76.6076 581.173 79.0736 590C79.4501 591.541 79.8252 593.083 80.1986 594.625C80.4873 595.739 80.7761 596.852 81.0736 598C77.0628 596.456 75.1275 593.896 72.5111 590.562C69.0004 586.094 69.0004 586.094 65.0736 582C67.3079 596.547 69.7742 608.405 77.4291 621.094C79.0736 624 79.0736 624 79.0736 626C69.9836 624.296 64.6314 617.987 59.0736 611C58.5812 610.533 58.0887 610.067 57.5814 609.586C55.885 607.802 54.8984 606.056 53.7611 603.875C52.1003 600.757 50.3341 597.995 48.1986 595.188C43.4362 588.285 41.2995 579.827 38.7345 571.92C38.1037 569.95 38.1037 569.95 37.0736 568C32.1665 537.659 37.1312 508.026 54.7704 482.549C57.7884 478.685 61.1098 475.159 64.5301 471.652C67.1493 468.849 69.4381 465.799 71.7611 462.75C76.5313 456.577 81.434 450.408 87.0736 445C87.7336 445 88.3936 445 89.0736 445C89.1561 444.423 89.2386 443.845 89.3236 443.25C90.6078 439.397 93.2623 437.454 96.7377 435.508C97.7148 435.051 98.6919 434.595 99.6986 434.125C105.371 431.393 110.735 428.331 116.074 425C115.381 424.986 114.689 424.972 113.976 424.957C103.295 424.436 93.2102 421.664 84.0736 416C81.8493 414.927 79.6197 413.866 77.3861 412.812C65.4111 406.899 58.0818 399.2 51.0736 388C50.3981 386.96 49.7227 385.919 49.0267 384.848C42.1311 373.778 40.1848 362.307 43.1361 349.5C46.9691 337.021 54.7122 329.489 65.8236 323.25C66.5687 322.859 67.3137 322.469 68.0814 322.066C70.2324 320.963 70.2324 320.963 72.6986 319.188C75.8983 317.588 78.5508 317.793 82.0736 318C79.7878 319.846 77.784 321.127 75.0736 322.312C71.2891 324.441 70.105 326.156 68.0736 330C67.4811 333.223 67.4554 336.354 67.5111 339.625C67.5199 340.51 67.5287 341.395 67.5377 342.307C67.8048 350.934 69.8759 357.862 75.1986 364.75C81.5681 369.735 87.736 374.52 95.0736 378C95.4036 377.67 95.7336 377.34 96.0736 377C94.9715 375.249 93.8668 373.499 92.7611 371.75C92.1462 370.775 91.5313 369.801 90.8978 368.797C89.1739 366.061 89.1739 366.061 87.4056 363.891C84.1767 359.308 84.5789 353.384 85.0736 348C85.8499 345.45 86.8333 343.377 88.0736 341C88.7336 341 89.3936 341 90.0736 341C90.1948 341.843 90.3159 342.686 90.4408 343.555C90.6084 344.65 90.7759 345.746 90.9486 346.875C91.111 347.966 91.2734 349.056 91.4408 350.18C91.8362 353.119 91.8362 353.119 94.0736 355C94.0736 355.99 94.0736 356.98 94.0736 358C95.3936 358 96.7136 358 98.0736 358C98.0736 357.34 98.0736 356.68 98.0736 356C98.6679 355.997 99.2621 355.995 99.8744 355.992C107.902 355.618 114.69 352.757 120.824 347.5C122.668 345.287 123.189 342.714 124.074 340C124.734 339.67 125.394 339.34 126.074 339C126.161 335.625 126.214 332.251 126.261 328.875C126.286 327.924 126.311 326.972 126.337 325.992C126.396 320.322 125.712 317.084 123.074 312C123.218 308.582 123.218 308.582 123.886 304.812C126.352 288.116 125.901 275.954 117.987 260.78C116.166 257.232 115.111 254.424 114.761 250.438C114.376 246.891 114.376 246.891 111.824 244.688C109.28 243.127 106.891 241.966 104.074 241C104.074 240.34 104.074 239.68 104.074 239C103.195 238.869 102.317 238.738 101.412 238.602C80.991 234.918 62.603 226.799 49.0736 211C49.0736 210.34 49.0736 209.68 49.0736 209C51.7523 210.179 53.8257 211.557 56.1986 213.312C62.7509 218.082 69.9785 222.023 78.1996 222.205C79.0001 222.225 79.8006 222.245 80.6254 222.266C81.4797 222.282 82.334 222.299 83.2142 222.316C84.0964 222.337 84.9786 222.358 85.8875 222.379C88.6995 222.445 91.5115 222.504 94.3236 222.562C96.2325 222.606 98.1413 222.649 100.05 222.693C104.725 222.8 109.399 222.902 114.074 223C114.124 222.324 114.174 221.648 114.226 220.951C114.34 219.612 114.34 219.612 114.456 218.246C114.527 217.364 114.599 216.481 114.672 215.572C115.185 212.29 116.435 209.958 118.07 207.109C119.228 204.676 119.555 202.464 120.011 199.812C121.895 192.148 127.933 187.474 133.584 182.365C134.864 181.192 136.09 179.96 137.304 178.719C139.074 177 139.074 177 141.949 175.438C148.136 170.611 151.531 162.586 153.074 155C153.164 154.018 153.254 153.035 153.347 152.023C154.873 137.001 162.181 122.448 173.859 112.684C179.731 108.22 186.156 104.927 192.761 101.688C201.4 97.4439 209.595 92.4954 217.706 87.3203C220.111 85.9791 222.223 85.2876 224.886 84.625C234.978 81.7138 242.277 74.9041 249.507 67.5117C266.287 51.0895 288.041 39.7197 310.502 33.6931C312.258 33.2199 314.007 32.7208 315.749 32.1995C324.628 29.6938 333.351 29.3033 342.511 28.9375C345.531 28.8095 348.551 28.6734 351.57 28.5273C352.3 28.4921 353.031 28.4568 353.783 28.4205C359.327 28.1186 364.726 27.3632 370.202 26.4431C385.089 24.1457 398.826 26.73 413.074 31C414.373 31.3733 415.672 31.7457 416.972 32.1172C422.528 33.7573 427.778 35.6702 433.074 38C434.29 38.2681 435.507 38.5362 436.761 38.8125C440.926 40.3057 442.001 42.1861 444.074 46C447.283 42.9186 450.182 39.6169 453.097 36.2617C457.51 31.2119 462.013 26.2394 466.554 21.3047C471.654 15.7541 476.54 10.0915 481.261 4.21484C483.074 2 483.074 2 485.074 0Z" fill="#24242A"/>
<path d="M647.075 325.998C648.466 329.994 649.584 333.941 650.477 338.076C650.851 339.806 650.851 339.806 651.232 341.57C651.49 342.784 651.747 343.998 652.013 345.248C652.278 346.493 652.544 347.737 652.818 349.02C654.613 357.534 656.204 366.055 657.532 374.654C657.978 377.808 657.978 377.808 658.661 380.061C660.775 389.954 657.498 402.203 656.013 411.998C654.115 424.716 653.175 436.384 655.075 449.186C658.1 469.905 657.662 494.569 651.45 514.561C646.643 530.224 648.862 547.344 649.709 563.495C651.18 591.745 651.18 591.745 645.645 604.221C643.819 608.438 642.544 612.778 641.263 617.186C640.739 618.955 640.216 620.725 639.692 622.494C639.153 624.329 638.614 626.164 638.075 627.998C637.017 631.583 635.954 635.166 634.888 638.748C634.65 639.557 634.412 640.365 634.168 641.198C632.873 645.55 631.432 649.795 629.805 654.033C628.572 657.354 627.547 660.736 626.513 664.123C624.132 671.86 624.132 671.86 623.036 674.494C621.636 679.599 621.64 684.601 621.513 689.874C621.476 691.067 621.44 692.26 621.403 693.489C621.306 696.76 621.216 700.03 621.13 703.301C621.037 706.763 620.932 710.224 620.829 713.686C620.611 721.026 620.404 728.366 620.2 735.706C619.837 748.735 619.461 761.763 619.075 774.791C619.044 775.835 619.044 775.835 619.013 776.901C618.517 793.582 618.002 810.26 617.075 826.924C617.039 827.603 617.003 828.282 616.966 828.982C616.379 839.832 614.792 850.131 611.763 860.561C611.322 862.111 610.882 863.662 610.442 865.213C610.218 865.998 609.993 866.783 609.762 867.591C608.619 871.597 607.503 875.61 606.388 879.623C606.185 880.345 605.983 881.066 605.775 881.809C604.806 885.284 603.884 888.76 603.04 892.268C602.307 895.101 601.586 897.456 600.325 900.061C598.418 904.175 596.69 908.349 595.013 912.561C594.751 913.217 594.489 913.874 594.219 914.55C592.941 917.768 591.694 920.993 590.513 924.248C586.132 936.066 580.607 947.884 573.075 957.998C572.745 958.988 572.415 959.978 572.075 960.998C571.415 960.998 570.755 960.998 570.075 960.998C570.075 965.948 570.075 970.898 570.075 975.998C569.745 975.998 569.415 975.998 569.075 975.998C568.745 972.698 568.415 969.398 568.075 965.998C567.232 965.66 566.389 965.323 565.52 964.975C564.425 964.529 563.329 964.083 562.2 963.623C561.109 963.182 560.019 962.742 558.895 962.287C556.075 960.998 556.075 960.998 554.075 958.998C553.763 955.998 553.763 955.998 554.075 952.998C557.51 950.708 559.06 950.82 563.075 950.998C563.075 951.658 563.075 952.318 563.075 952.998C565.055 952.998 567.035 952.998 569.075 952.998C569.075 949.368 569.075 945.738 569.075 941.998C568.064 941.73 567.054 941.462 566.013 941.186C556.57 938.493 556.57 938.493 554.075 935.998C554.034 933.999 554.032 931.998 554.075 929.998C558.817 927.095 562.732 928.295 568.075 928.998C568.075 925.368 568.075 921.738 568.075 917.998C567.232 917.816 566.389 917.635 565.52 917.447C563.877 917.07 563.877 917.07 562.2 916.686C560.564 916.32 560.564 916.32 558.895 915.947C556.075 914.998 556.075 914.998 554.075 911.998C553.825 909.436 553.825 909.436 554.075 906.998C556.888 904.185 559.171 904.329 563.075 903.998C564.725 904.328 566.375 904.658 568.075 904.998C568.075 901.368 568.075 897.738 568.075 893.998C567.023 893.874 565.971 893.751 564.888 893.623C560.453 892.896 557.281 892.204 554.075 888.998C553.825 885.998 553.825 885.998 554.075 882.998C556.075 880.998 556.075 880.998 559.888 880.811C563.048 880.886 565.998 881.229 569.075 881.998C568.951 880.74 568.828 879.482 568.7 878.186C568.63 877.478 568.561 876.77 568.489 876.041C568.148 873.698 568.148 873.698 566.075 870.998C563.732 869.877 563.732 869.877 561.075 868.998C556.297 867.332 556.297 867.332 554.075 863.998C554.263 861.436 554.263 861.436 555.075 858.998C558.51 856.708 560.06 856.82 564.075 856.998C564.075 857.658 564.075 858.318 564.075 858.998C566.055 858.998 568.035 858.998 570.075 858.998C569.415 855.038 568.755 851.078 568.075 846.998C566.508 846.73 564.94 846.462 563.325 846.186C559.487 845.529 556.918 844.736 554.075 841.998C553.825 838.811 553.825 838.811 554.075 835.998C557.847 834.247 560.742 833.773 564.888 833.873C565.863 833.891 566.839 833.909 567.845 833.928C568.949 833.963 568.949 833.963 570.075 833.998C570.075 831.688 570.075 829.378 570.075 826.998C569.415 826.998 568.755 826.998 568.075 826.998C567.745 826.008 567.415 825.018 567.075 823.998C564.29 822.745 564.29 822.745 561.013 821.811C559.355 821.294 559.355 821.294 557.665 820.768C556.81 820.514 555.956 820.26 555.075 819.998C555.075 817.358 555.075 814.718 555.075 811.998C559.45 809.811 564.478 811.079 569.075 811.998C568.745 808.368 568.415 804.738 568.075 800.998C567.415 800.998 566.755 800.998 566.075 800.998C566.075 800.338 566.075 799.678 566.075 798.998C565.376 798.877 564.678 798.756 563.958 798.631C563.048 798.463 562.138 798.296 561.2 798.123C559.843 797.88 559.843 797.88 558.458 797.631C556.075 796.998 556.075 796.998 554.075 794.998C553.95 792.373 553.95 792.373 554.075 789.998C558.898 787.081 563.577 787.867 569.075 787.998C568.745 784.368 568.415 780.738 568.075 776.998C567.064 776.895 566.054 776.792 565.013 776.686C560.863 775.961 557.861 774.776 554.075 772.998C554.075 770.688 554.075 768.378 554.075 765.998C554.735 765.998 555.395 765.998 556.075 765.998C556.075 765.338 556.075 764.678 556.075 763.998C557.9 763.936 557.9 763.936 559.763 763.873C560.447 763.85 561.131 763.827 561.837 763.803C564.075 763.998 564.075 763.998 569.075 765.998C568.415 762.038 567.755 758.078 567.075 753.998C564.755 753.318 564.755 753.318 562.388 752.623C558.871 751.571 555.448 750.46 552.075 748.998C551.745 746.688 551.415 744.378 551.075 741.998C555.255 739.212 557.222 740.203 562.075 740.998C561.471 734.424 561.471 734.424 558.075 729.123C557.085 728.752 556.095 728.381 555.075 727.998C553.366 727.313 551.658 726.625 549.95 725.936C549.102 725.615 548.254 725.294 547.38 724.963C545.075 723.998 545.075 723.998 542.075 721.998C542.825 716.248 542.825 716.248 545.075 713.998C547.458 713.803 547.458 713.803 550.2 713.873C551.11 713.891 552.02 713.909 552.958 713.928C554.006 713.963 554.006 713.963 555.075 713.998C554.119 707.624 554.119 707.624 550.376 702.772C548.292 702.027 546.231 701.496 544.075 700.998C536.502 698.425 536.502 698.425 534.075 695.998C533.888 692.936 533.888 692.936 534.075 689.998C535.075 688.998 535.075 688.998 537.798 688.901C539.451 688.918 539.451 688.918 541.138 688.936C542.242 688.945 543.347 688.954 544.485 688.963C545.767 688.98 545.767 688.98 547.075 688.998C546.243 684.463 545.429 680.336 542.075 676.998C539.005 675.679 535.988 674.758 532.755 673.92C530.075 672.998 530.075 672.998 528.075 669.998C527.95 667.311 527.95 667.311 528.075 664.998C530.6 663.736 532.387 663.9 535.2 663.936C536.11 663.945 537.02 663.954 537.958 663.963C539.006 663.98 539.006 663.98 540.075 663.998C539.761 661.662 539.425 659.329 539.075 656.998C539.054 656.318 539.034 655.637 539.013 654.936C538.136 652.589 538.136 652.589 534.696 651.514C533.307 651.075 531.912 650.654 530.513 650.248C529.802 650.028 529.091 649.807 528.358 649.58C526.602 649.038 524.839 648.516 523.075 647.998C521.95 641.248 521.95 641.248 523.075 638.998C527.365 638.998 531.655 638.998 536.075 638.998C535.858 638.046 535.642 637.093 535.419 636.111C535.001 634.23 535.001 634.23 534.575 632.311C534.297 631.069 534.018 629.828 533.731 628.549C533.181 625.574 532.937 623.005 533.075 619.998C532.415 619.998 531.755 619.998 531.075 619.998C530.517 616.001 529.966 612.003 529.421 608.005C529.146 605.996 528.865 603.988 528.585 601.981C527.364 592.991 526.562 584.059 526.075 574.998C525.415 574.998 524.755 574.998 524.075 574.998C521.579 546.015 519.363 517.062 518.075 487.998C513.968 488.818 512.32 490.494 509.45 493.561C508.028 495.075 506.577 496.563 505.075 497.998C504.415 497.998 503.755 497.998 503.075 497.998C503.075 498.988 503.075 499.978 503.075 500.998C502.415 500.998 501.755 500.998 501.075 500.998C501.075 501.658 501.075 502.318 501.075 502.998C500.415 502.998 499.755 502.998 499.075 502.998C498.848 503.576 498.621 504.153 498.388 504.748C497.075 506.998 497.075 506.998 494.7 508.873C491.747 511.264 490.139 513.833 488.075 516.998C487.085 517.658 486.095 518.318 485.075 518.998C484.745 519.988 484.415 520.978 484.075 521.998C482.409 523.333 480.742 524.666 479.075 525.998C474.104 531.941 469.791 538.207 466.075 544.998C464.522 547.311 462.945 549.604 461.345 551.885C460.101 553.955 459.517 555.639 459.075 557.998C458.415 557.998 457.755 557.998 457.075 557.998C456.992 558.658 456.91 559.318 456.825 559.998C455.986 563.352 454.59 566.013 452.997 569.061C451.915 571.335 451.387 573.503 451.075 575.998C450.415 575.998 449.755 575.998 449.075 575.998C448.951 576.988 448.827 577.978 448.7 578.998C448.123 583.087 447.125 587.007 446.075 590.998C445.415 590.998 444.755 590.998 444.075 590.998C443.954 591.786 443.833 592.573 443.708 593.385C443.456 595.019 443.456 595.019 443.2 596.686C443.018 597.872 442.836 599.058 442.649 600.279C442.282 602.655 441.91 605.03 441.532 607.404C440.5 613.924 439.639 620.421 439.075 626.998C438.415 626.998 437.755 626.998 437.075 626.998C437.092 628.085 437.092 628.085 437.11 629.194C437.157 634.246 437.149 639.032 436.075 643.998C436.735 643.998 437.395 643.998 438.075 643.998C438.322 643.153 438.57 642.307 438.825 641.436C441.855 633.103 445.323 629.253 453.075 624.998C459.202 622.956 464.894 624.075 471.028 625.428C475.628 626.289 480.267 626.751 484.922 627.213C489.49 627.697 493.671 628.623 498.075 629.998C498.983 630.246 499.89 630.493 500.825 630.748C503.978 632.5 504.623 634.765 506.075 637.998C506.555 638.469 507.034 638.939 507.528 639.424C512.072 644.048 513.359 650.795 514.075 656.998C514.426 657.803 514.776 658.607 515.138 659.436C517.001 664.53 516.964 668.071 514.72 672.936C511.393 678.81 507.797 684.167 503.075 688.998C502.415 688.998 501.755 688.998 501.075 688.998C501.405 688.008 501.735 687.018 502.075 685.998C502.735 685.998 503.395 685.998 504.075 685.998C505.845 682.078 506.758 678.178 507.61 673.986C508.075 671.998 508.075 671.998 509.075 669.998C506.766 670.866 506.766 670.866 506.075 673.748C505.745 674.821 505.415 675.893 505.075 676.998C503.301 682.731 499.936 684.844 494.95 687.936C491.939 690.096 490.805 691.784 489.075 694.998C488.559 695.473 488.044 695.947 487.512 696.436C485.459 698.667 484.905 701.123 484.075 703.998C483.085 703.998 482.095 703.998 481.075 703.998C481.075 704.988 481.075 705.978 481.075 706.998C482.065 707.328 483.055 707.658 484.075 707.998C485.446 709.634 486.776 711.305 488.075 712.998C488.756 713.658 489.436 714.318 490.137 714.998C492.075 716.998 492.075 716.998 493.262 719.436C495.215 722.197 496.372 722.822 499.325 724.311C504.469 726.946 507.52 730.537 511.075 734.998C511.735 735.658 512.395 736.318 513.075 736.998C513.075 737.988 513.075 738.978 513.075 739.998C513.735 739.998 514.395 739.998 515.075 739.998C516.774 746.794 517.431 753.462 517.825 760.436C517.91 761.768 517.91 761.768 517.997 763.128C518.038 763.971 518.079 764.814 518.122 765.682C518.162 766.44 518.201 767.199 518.242 767.98C518.075 769.998 518.075 769.998 516.075 772.998C515.443 775.138 515.443 775.138 515.013 777.436C514.085 781.965 514.085 781.965 513.541 783.745C512.938 786.66 513.052 789.328 513.161 792.303C513.205 793.526 513.249 794.75 513.294 796.01C513.371 797.922 513.371 797.922 513.45 799.873C513.494 801.14 513.538 802.407 513.583 803.713C513.8 810.441 513.8 810.441 514.605 817.114C515.038 819.771 515.088 822.037 514.954 824.713C514.896 830.373 516.273 835.214 518.013 840.561C518.29 841.461 518.568 842.362 518.854 843.289C519.889 847.461 519.889 847.461 522.075 850.998C522.201 853.428 522.264 855.828 522.278 858.26C522.284 859.002 522.29 859.744 522.295 860.509C522.305 862.092 522.311 863.675 522.315 865.258C522.325 867.631 522.356 870.003 522.388 872.375C522.445 880.783 521.783 888.251 519.779 896.463C518.438 903.198 518.496 910.027 518.388 916.873C518.354 918.351 518.32 919.829 518.284 921.307C518.2 924.87 518.133 928.434 518.075 931.998C519.395 931.998 520.715 931.998 522.075 931.998C522.075 936.618 522.075 941.238 522.075 945.998C521.085 946.328 520.095 946.658 519.075 946.998C519.016 950.893 519.025 954.783 519.067 958.678C519.073 960.3 519.058 961.923 519.028 963.545C518.471 976.558 518.471 976.558 523.95 987.873C524.757 988.679 525.564 989.485 526.395 990.315C529.632 993.556 532.179 997.084 534.825 1000.81C535.713 1002.05 536.604 1003.28 537.497 1004.52C537.918 1005.1 538.339 1005.69 538.772 1006.29C540.082 1008.01 541.501 1009.55 542.966 1011.13C545.075 1014 545.075 1014 545.173 1016.57C543.774 1019.66 541.977 1021.49 539.513 1023.81C538.686 1024.6 537.86 1025.39 537.009 1026.21C536.371 1026.8 535.732 1027.39 535.075 1028C531.238 1026.5 529.613 1024.36 527.325 1021C526.711 1020.11 526.098 1019.22 525.466 1018.31C524.075 1016 524.075 1016 524.075 1014C523.415 1014 522.755 1014 522.075 1014C521.095 1012.61 520.125 1011.22 519.223 1009.78C518.028 1007.92 516.721 1006.19 515.388 1004.44C513.386 1001.67 512.39 999.461 512.075 995.998C511.085 995.668 510.095 995.338 509.075 994.998C509.075 994.008 509.075 993.018 509.075 991.998C508.064 991.895 507.054 991.792 506.013 991.686C496.892 990.093 496.892 990.093 493.747 986.467C492.781 985.025 491.918 983.515 491.075 981.998C486.532 988.812 485.483 994.911 484.505 1002.99C484.075 1006 484.075 1006 483.075 1008C482.931 1011.89 483.065 1015.25 484.075 1019C483.075 1020 483.075 1020 480.512 1020.06C479.708 1020.04 478.904 1020.02 478.075 1020C477.901 1010.93 477.842 1002.36 481.376 993.893C482.457 990.963 482.752 988.096 483.075 984.998C484.065 984.998 485.055 984.998 486.075 984.998C487.249 977.661 487.169 970.417 487.075 962.998C486.415 962.998 485.755 962.998 485.075 962.998C485.685 959.44 486.653 956.315 488.075 952.998C489.065 952.998 490.055 952.998 491.075 952.998C491.075 952.338 491.075 951.678 491.075 950.998C493.055 950.668 495.035 950.338 497.075 949.998C497.405 948.018 497.735 946.038 498.075 943.998C496.755 943.338 495.435 942.678 494.075 941.998C493.977 935.846 493.977 935.846 494.075 933.998C494.405 933.668 494.735 933.338 495.075 932.998C494.978 922.16 490.313 911.335 484.97 902.084C481.605 896.232 480.774 889.989 479.688 883.412C479.268 880.149 479.268 880.149 478.075 877.998C477.973 875.771 477.945 873.54 477.95 871.311C477.951 870.627 477.952 869.943 477.954 869.238C478.008 861.636 478.393 854.045 478.807 846.455C478.855 845.501 478.904 844.547 478.954 843.565C479.001 842.708 479.048 841.852 479.097 840.969C479.305 838.995 479.305 838.995 478.075 837.998C476.274 830.781 475.26 823.336 474.075 815.998C473.415 815.998 472.755 815.998 472.075 815.998C472.075 814.348 472.075 812.698 472.075 810.998C471.085 811.328 470.095 811.658 469.075 811.998C468.008 814.302 467.011 816.638 466.075 818.998C465.415 819.988 464.755 820.978 464.075 821.998C463.415 821.998 462.755 821.998 462.075 821.998C462.055 823.304 462.035 824.609 462.015 825.954C461.938 830.843 461.85 835.732 461.758 840.62C461.72 842.727 461.685 844.835 461.653 846.942C461.607 849.989 461.549 853.034 461.489 856.08C461.478 857.008 461.466 857.935 461.454 858.891C461.329 864.56 460.68 869.9 459.534 875.455C459.058 878.09 458.852 880.658 458.708 883.33C458.154 890.095 456.06 896.266 453.95 902.686C453.335 904.6 452.725 906.516 452.115 908.432C451.703 909.726 451.29 911.019 450.876 912.312C448.875 918.572 447.021 924.871 445.2 931.186C444.79 932.607 444.79 932.607 444.371 934.058C444.111 934.96 443.851 935.862 443.583 936.791C443.081 938.527 442.578 940.263 442.075 941.998C441.826 942.86 441.577 943.722 441.32 944.61C441.072 945.456 440.823 946.302 440.567 947.174C440.352 947.912 440.136 948.65 439.914 949.41C439.075 951.998 439.075 951.998 438.332 953.752C436.135 959.03 435.608 963.624 435.563 969.311C435.545 970.165 435.527 971.019 435.509 971.9C435.455 974.599 435.421 977.298 435.387 979.998C435.354 981.841 435.32 983.683 435.284 985.526C435.199 990.016 435.132 994.507 435.075 998.998C425.526 996.086 425.526 996.086 422.083 993.194C417.87 989.815 413.457 986.845 408.95 983.873C408.178 983.361 407.406 982.85 406.61 982.322C405.853 981.821 405.097 981.32 404.317 980.803C403.595 980.323 402.873 979.843 402.129 979.349C400.823 978.49 399.509 977.643 398.185 976.812C396.783 975.923 395.423 974.967 394.075 973.998C394.075 973.338 394.075 972.678 394.075 971.998C393.291 971.813 392.507 971.627 391.7 971.436C386.569 969.401 382.512 966.248 378.075 962.998C375.829 961.367 373.579 959.743 371.325 958.123C370.73 957.696 370.136 957.268 369.523 956.828C364.963 953.574 360.294 950.535 355.557 947.547C349.849 943.917 344.344 940.012 338.847 936.071C335.967 934.011 333.151 932.042 330.079 930.272C329.418 929.851 328.756 929.431 328.075 928.998C328.075 928.338 328.075 927.678 328.075 926.998C327.361 926.784 326.647 926.57 325.911 926.35C322.381 924.668 320.217 922.272 317.7 919.373C317.219 918.833 316.738 918.294 316.242 917.737C314.844 916.165 313.458 914.583 312.075 912.998C311.407 912.243 310.74 911.487 310.052 910.709C307.846 908.204 305.664 905.679 303.481 903.154C300.015 899.165 296.475 895.254 292.888 891.373C288.321 886.428 283.924 881.357 279.57 876.224C275.396 871.323 271.06 866.597 266.645 861.912C260.933 855.436 256.896 849.136 253.513 841.186C252.738 839.406 251.964 837.626 251.188 835.846C250.824 835.003 250.46 834.16 250.085 833.292C248.868 830.529 247.535 827.83 246.2 825.123C235.335 800.93 237.365 770.023 246.271 745.718C248.149 740.788 250.09 735.886 252.075 730.998C252.633 729.615 253.19 728.233 253.747 726.85C254.703 724.479 255.662 722.109 256.622 719.74C258.697 714.495 260.492 709.15 262.332 703.819C265.383 695.022 268.706 686.336 272.054 677.648C273.757 673.226 275.448 668.8 277.138 664.373C277.429 663.612 277.721 662.851 278.022 662.067C278.652 660.418 279.272 658.765 279.885 657.11C280.814 654.682 281.789 652.295 282.798 649.9C287.849 637.571 289.525 626.041 290.388 612.811C290.538 610.811 290.69 608.812 290.846 606.813C291.144 602.932 291.428 599.05 291.7 595.166C292.078 589.837 292.556 584.521 293.058 579.202C293.772 571.479 294.293 563.753 294.45 555.998C294.476 555.297 294.502 554.597 294.529 553.874C294.545 549.101 293.329 545.93 291.091 541.855C289.761 539.425 288.819 536.916 287.888 534.311C287.564 533.42 287.24 532.529 286.907 531.611C286.102 529.084 285.574 526.601 285.075 523.998C316.107 512.145 316.107 512.145 327.075 509.998C327.22 506.228 327.309 502.458 327.388 498.686C327.429 497.614 327.471 496.542 327.514 495.438C327.531 494.41 327.547 493.382 327.563 492.322C327.603 490.901 327.603 490.901 327.643 489.45C327.302 486.793 327.302 486.793 324.826 485.278C322.423 484.16 320.049 483.119 317.567 482.194C311.286 479.746 305.261 476.818 299.2 473.873C297.529 473.067 297.529 473.067 295.825 472.244C292.906 470.834 289.988 469.421 287.075 467.998C286.321 467.669 285.567 467.339 284.79 466.999C283.075 465.998 283.075 465.998 282.134 463.303C281.929 462.171 281.724 461.039 281.513 459.873C281.275 458.62 281.038 457.367 280.794 456.076C280.554 454.717 280.314 453.358 280.075 451.998C279.687 449.898 279.295 447.799 278.901 445.7C278.642 444.319 278.388 442.937 278.136 441.554C277.52 438.195 276.827 434.906 275.888 431.623C274.014 423.266 275.283 414.96 276.763 406.623C276.94 405.615 277.117 404.607 277.299 403.569C278.673 396.214 280.495 389.619 284.075 382.998C284.698 381.844 284.698 381.844 285.333 380.666C287.73 376.995 290.52 373.746 293.388 370.436C294.222 369.447 294.222 369.447 295.073 368.438C300.284 362.402 305.115 358.951 312.95 356.936C317.337 355.792 321.545 354.489 325.777 352.861C330.583 351.056 335.459 349.447 340.325 347.811C341.4 347.443 342.475 347.075 343.583 346.695C344.617 346.348 345.65 346.001 346.716 345.643C347.649 345.327 348.583 345.011 349.545 344.685C352.075 343.998 352.075 343.998 356.075 343.998C356.61 348.447 356.863 352.571 356.075 356.998C353.518 359.961 350.721 361.619 347.075 362.998C346.085 362.998 345.095 362.998 344.075 362.998C342.721 355.737 342.721 355.737 344.513 351.998C345.028 351.338 345.544 350.678 346.075 349.998C344.471 350.477 342.867 350.956 341.263 351.436C340.369 351.703 339.476 351.969 338.555 352.244C336.72 352.802 334.895 353.392 333.075 353.998C330.629 361.592 330.872 369.084 331.075 376.998C333.043 378.004 335.015 378.997 337.001 379.967C338.511 380.718 339.991 381.528 341.45 382.373C348.211 383.983 355.442 380.886 361.372 377.744C365.823 374.869 369.745 371.421 373.704 367.912C387.06 356.18 402.051 345.572 417.95 337.615C420.595 336.246 422.909 334.785 425.325 333.061C429.245 330.479 433.145 330.319 437.755 330.139C440.1 330.149 440.1 330.149 442.075 328.998C456.908 326.02 471.429 325.587 486.512 325.748C488.728 325.762 490.944 325.775 493.16 325.788C499.465 325.831 505.77 325.909 512.075 325.998C513.337 326.014 513.337 326.014 514.625 326.031C519.359 326.092 524.092 326.186 528.825 326.311C529.897 326.333 530.969 326.355 532.073 326.378C541.331 326.707 550.123 328.724 559.075 330.998C558.897 332.563 558.698 334.126 558.434 335.678C558.027 338.073 558.027 338.073 557.903 340.819C557.359 345.073 556.832 348.54 553.383 351.403C548.84 354.386 543.983 356.687 539.075 358.998C538.745 359.328 538.415 359.658 538.075 359.998C536.467 359.934 534.862 359.797 533.263 359.623C532.39 359.533 531.517 359.443 530.618 359.35C524.498 358.504 524.498 358.504 521.825 355.311C519.946 351.755 519.637 349.944 520.075 345.998C520.405 345.008 520.735 344.018 521.075 342.998C520.449 343.504 519.822 344.009 519.177 344.529C518.359 345.179 517.542 345.829 516.7 346.498C515.888 347.148 515.076 347.798 514.239 348.467C512.075 349.998 512.075 349.998 510.075 349.998C509.54 351.723 509.023 353.453 508.513 355.186C508.222 356.149 507.932 357.112 507.634 358.104C507.003 361.37 506.907 362.881 508.075 365.998C509.928 368.549 512.011 370.86 514.138 373.186C515.258 374.425 516.374 375.669 517.485 376.916C517.982 377.46 518.478 378.005 518.989 378.565C520.075 379.998 520.075 379.998 520.075 381.998C535.956 383.132 535.956 383.132 549.763 377.186C550.907 375.823 552.018 374.43 553.075 372.998C557.775 368.998 557.775 368.998 560.075 368.998C561.811 365.588 563.356 362.117 564.88 358.608C565.547 357.151 566.239 355.704 567.02 354.305C570.077 348.71 571.273 343.253 572.325 336.998C572.584 335.55 572.584 335.55 572.848 334.072C573.268 331.716 573.677 329.358 574.075 326.998C624.444 321.936 624.444 321.936 647.075 325.998Z" fill="#747374"/>
<path d="M670.074 315C670.404 315 670.734 315 671.074 315C672.064 318.63 673.054 322.26 674.074 326C675.745 326.041 677.415 326.082 679.137 326.125C690.569 327.124 700.126 331.298 708.277 339.367C711.882 342.76 715.753 345.706 719.699 348.688C720.404 349.222 721.109 349.756 721.835 350.307C723.912 351.876 725.993 353.438 728.074 355C728.801 355.549 729.528 356.098 730.277 356.663C731.337 357.462 731.337 357.462 732.418 358.277C733.052 358.756 733.685 359.234 734.338 359.726C740.105 363.957 745.056 364.879 752.074 364C755.76 362.387 756.828 361.37 759.074 358C759.83 355.259 759.83 355.259 759.074 352C757.39 349.506 755.564 347.238 753.605 344.953C752.074 343 752.074 343 752.074 341C756.364 341.548 759.333 344.178 762.637 346.75C763.214 347.181 763.79 347.611 764.385 348.055C768.846 351.492 771.712 354.294 772.473 359.98C772.42 367.2 771.562 373.234 769.074 380C768.404 381.999 767.737 383.999 767.074 386C776.952 384.07 776.952 384.07 786.074 380C786.846 379.615 787.619 379.229 788.414 378.832C791.873 376.45 793.803 373.632 796.137 370.188C796.558 369.584 796.978 368.98 797.412 368.357C798.646 366.58 799.861 364.791 801.074 363C802.163 361.428 802.163 361.428 803.273 359.824C804.812 357.412 805.898 355.312 806.824 352.625C807.237 351.429 807.649 350.232 808.074 349C808.404 349 808.734 349 809.074 349C810.026 359.85 806.255 370.166 800.074 379C799.071 380.757 798.091 382.528 797.137 384.312C796.622 385.263 796.108 386.213 795.578 387.191C794.639 388.944 793.708 390.702 792.789 392.465C784.62 407.83 769.317 417.246 752.968 422.486C752.137 422.738 751.306 422.99 750.449 423.25C749.582 423.514 748.715 423.778 747.821 424.049C740.421 426.162 733.776 426.689 726.074 426C730.478 435.484 734.942 444.881 739.949 454.062C744.203 461.935 747.302 468.892 747.074 478C747.734 478.66 748.394 479.32 749.074 480C751.839 486.043 752.504 491.772 752.402 498.34C752.4 499.188 752.399 500.036 752.397 500.91C752.39 502.684 752.376 504.458 752.355 506.232C752.324 508.955 752.314 511.677 752.309 514.4C752.299 516.13 752.289 517.86 752.277 519.59C752.273 520.404 752.269 521.219 752.264 522.058C752.192 527.765 752.192 527.765 751.074 530C750.406 541.701 751.694 550.679 756.734 561.184C757.602 563.008 758.426 564.854 759.195 566.723C762.385 574.392 766.91 580.532 772.074 587C772.516 587.608 772.959 588.217 773.414 588.844C778.457 595.592 785.898 600.304 794.074 602C797.912 602.249 801.73 602.234 805.574 602.188C806.581 602.187 807.588 602.186 808.625 602.186C813.876 602.155 818.901 601.908 824.074 601C823.744 601.99 823.414 602.98 823.074 604C819.891 605.447 816.46 606.154 813.074 607C812.342 607.209 811.61 607.418 810.855 607.633C790.3 612.772 769.082 607.64 751.108 597.288C741.547 591.458 733.785 582.587 728.074 573C728.074 572.01 728.074 571.02 728.074 570C713.872 583.007 713.872 583.007 704.074 599C711.156 597.418 716.277 594.832 722.043 590.426C724.074 589 724.074 589 726.074 589C724.693 593.12 722.557 596.43 720.189 600.027C712.497 611.828 707.118 624.551 709.074 639C710.646 645.481 713.739 650.936 718.762 655.375C723.121 657.513 726.31 657.877 731.074 657C736.078 655.273 739.973 653.155 743.637 649.312C745.557 644.887 746.292 640.825 746.074 636C744.835 633.087 743.638 631.543 741.387 629.375C740.074 628 740.074 628 740.074 625C748.109 625 753.286 628.601 759.074 634C766.309 643.363 767.878 652.371 767.074 664C765.892 671.286 763.66 677.57 760.074 684C762.714 684 765.354 684 768.074 684C768.074 683.34 768.074 682.68 768.074 682C811.67 681.08 811.67 681.08 828.074 694C829.105 694.412 830.137 694.825 831.199 695.25C836.338 697.358 840.635 700.713 845.074 704C845.841 704.559 846.608 705.119 847.398 705.695C863.136 717.505 863.136 717.505 864.074 724C860.714 722.475 857.996 720.493 855.074 718.25C849.4 714.067 843.494 710.888 837.074 708C836.319 707.657 835.563 707.314 834.785 706.961C817.098 700.691 795.768 702.585 778.074 708C777.215 708.263 776.356 708.525 775.471 708.796C770.804 710.241 766.155 711.735 761.512 713.254C756.398 714.916 751.255 716.436 746.074 717.875C745.351 718.078 744.628 718.281 743.883 718.49C737.872 720.139 732.256 721.13 726.02 721.098C724.911 721.094 723.802 721.091 722.66 721.088C721.518 721.08 720.376 721.071 719.199 721.062C718.034 721.058 716.869 721.053 715.668 721.049C712.803 721.037 709.939 721.021 707.074 721C711.61 730.853 717.069 741.073 724.875 748.777C726.074 750 726.074 750 726.074 752C726.775 752.248 727.477 752.495 728.199 752.75C731.074 754 731.074 754 733.574 755.75C743.91 762.693 752.681 764.951 765.074 764C766.194 763.919 767.315 763.838 768.469 763.754C771.01 763.542 773.541 763.295 776.074 763C776.074 762.34 776.074 761.68 776.074 761C781.824 758 781.824 758 784.074 758C784.074 757.34 784.074 756.68 784.074 756C785.288 754.936 786.547 753.924 787.824 752.938C796.205 745.712 796.93 736.582 798.074 726C798.734 726.33 799.394 726.66 800.074 727C805.446 746.358 801.402 770.136 791.824 787.5C787.892 794.213 783.218 800.168 778.074 806C777.525 806.704 776.976 807.408 776.41 808.133C771.347 814.492 764.833 818.651 758.074 823C756.767 823.855 756.767 823.855 755.434 824.727C740.691 834 740.691 834 734.074 834C734.074 834.66 734.074 835.32 734.074 836C734.687 836.009 735.3 836.019 735.932 836.028C748.859 836.275 760.696 837.025 773.074 841C773.772 841.213 774.471 841.426 775.19 841.645C788.475 845.727 803.14 851.012 810.074 864C810.819 866.487 811.018 868.381 811.074 871C809.3 869.315 807.862 867.698 806.449 865.688C800.612 859.082 791.626 853.912 782.828 852.688C776.862 852.517 770.855 853.586 765.074 855C764.744 855.33 764.414 855.66 764.074 856C762.062 856.475 760.039 856.903 758.012 857.312C752.56 858.447 747.159 859.694 741.762 861.062C741.077 861.233 740.393 861.404 739.687 861.58C736.99 862.254 734.299 862.936 731.625 863.699C718.55 867.211 706.423 864.861 693.919 860.611C691.496 859.809 689.039 859.16 686.574 858.5C681.665 857.041 677.443 854.625 673.074 852C673.785 859.938 675.474 867.445 677.346 875.18C677.567 876.116 677.788 877.051 678.016 878.016C678.219 878.854 678.422 879.692 678.631 880.556C679.09 883.089 679.152 885.431 679.074 888C679.734 888 680.394 888 681.074 888C681.933 893.906 682.21 899.728 682.262 905.688C682.281 906.774 682.281 906.774 682.301 907.883C682.309 912.37 681.603 915.813 680.074 920C679.381 922.902 678.802 925.828 678.199 928.75C676.334 937.449 674.01 945.489 669.074 953C668.559 953.928 668.043 954.856 667.512 955.812C667.037 956.534 666.563 957.256 666.074 958C665.414 958 664.754 958 664.074 958C663.949 952.25 663.949 952.25 665.074 950C666.379 941.504 666.292 932.825 666.314 924.248C666.324 922.004 666.355 919.76 666.387 917.516C666.477 905.682 665.041 895.93 658.387 885.938C657.945 885.253 657.503 884.569 657.047 883.865C653.39 878.286 649.363 873.105 645.074 868C644.297 866.993 643.52 865.986 642.719 864.949C641.929 863.935 641.138 862.92 640.324 861.875C639.608 860.944 638.891 860.014 638.152 859.055C636.087 856.531 636.087 856.531 632.074 857C631.579 859.475 631.579 859.475 631.074 862C630.414 862 629.754 862 629.074 862C628.992 863.279 628.909 864.558 628.824 865.875C628.33 870.384 627.03 874.116 625.207 878.25C624.258 880.553 623.452 882.826 622.68 885.191C619.076 896.16 615.131 907.425 608.773 917.109C605.7 922.338 603.276 927.912 600.764 933.427C598.298 938.754 595.594 943.306 592.074 948C591.313 949.315 590.578 950.646 589.887 952C587.241 956.878 584.206 961.453 581.086 966.035C578.788 969.411 576.563 972.805 574.449 976.301C574.02 976.993 573.59 977.686 573.147 978.4C572.324 979.731 571.52 981.073 570.738 982.428C569.594 984.246 569.594 984.246 567.074 987C562.777 987.557 559.754 987.355 556.074 985C556.572 981.265 556.949 979.188 559.074 976C561.676 975.707 561.676 975.707 564.699 975.812C565.702 975.84 566.705 975.867 567.738 975.895C568.895 975.947 568.895 975.947 570.074 976C569.99 975.085 569.907 974.17 569.82 973.227C569.718 972.038 569.617 970.85 569.512 969.625C569.407 968.442 569.303 967.258 569.195 966.039C569.074 963 569.074 963 570.074 961C570.734 961 571.394 961 572.074 961C572.175 960.437 572.275 959.873 572.379 959.293C573.217 956.53 574.543 954.678 576.199 952.312C579.83 946.776 582.294 941.071 584.676 934.927C585.83 931.963 586.925 929.243 588.59 926.523C590.646 923.027 591.801 919.339 593.074 915.5C594.684 910.645 596.284 906.329 599.074 902C602.07 895.096 603.691 887.846 605.455 880.552C606.684 875.488 607.942 870.432 609.199 865.375C609.453 864.344 609.707 863.312 609.968 862.25C610.935 858.356 611.895 854.525 613.191 850.727C615.629 843.198 615.57 834.969 616.027 827.129C616.07 826.402 616.113 825.674 616.157 824.925C617.067 809.06 617.477 793.181 617.88 777.296C617.97 773.808 618.062 770.319 618.155 766.831C618.23 763.988 618.304 761.145 618.379 758.303C618.398 757.593 618.416 756.883 618.435 756.152C618.645 748.142 618.845 740.133 619.022 732.123C619.166 725.65 619.329 719.178 619.515 712.706C619.611 709.317 619.695 705.929 619.76 702.538C620.059 687.197 621.303 674.248 627.074 660C627.896 657.228 628.632 654.456 629.336 651.652C630.178 648.629 631.169 645.674 632.171 642.701C634.02 637.171 635.79 631.614 637.574 626.062C637.965 624.851 638.355 623.64 638.758 622.393C640.705 616.337 642.621 610.277 644.417 604.175C645.551 600.422 646.814 596.712 648.074 593C649.347 589.182 649.222 585.602 649.199 581.625C649.197 580.781 649.195 579.938 649.193 579.069C649.153 573.012 648.904 566.984 648.574 560.938C646.827 526.219 646.827 526.219 651.144 512.327C657.219 491.911 656.793 466.798 653.554 445.815C651.925 432.858 653.594 420.301 655.574 407.5C655.935 405.123 656.293 402.745 656.644 400.366C656.86 398.905 657.083 397.444 657.312 395.985C658.321 389.247 658.41 382.847 657.199 376.125C657.037 375.199 656.874 374.274 656.707 373.32C654.767 363.141 652.606 353.01 650.449 342.875C650.121 341.331 649.793 339.786 649.465 338.242C648.669 334.495 647.872 330.747 647.074 327C637.367 325.587 627.882 324.67 618.07 324.434C617.2 324.404 616.33 324.374 615.434 324.344C614.665 324.325 613.896 324.306 613.104 324.287C611.074 324 611.074 324 608.074 322C608.734 322 609.394 322 610.074 322C610.074 321.34 610.074 320.68 610.074 320C612.054 320 614.034 320 616.074 320C616.569 320.99 616.569 320.99 617.074 322C619.66 322.468 619.66 322.468 622.637 322.625C623.649 322.7 624.661 322.775 625.703 322.852C626.486 322.901 627.268 322.95 628.074 323C628.074 322.34 628.074 321.68 628.074 321C626.754 320.67 625.434 320.34 624.074 320C627.118 319.918 629.146 320.024 632.074 321C633.25 320.979 634.425 320.959 635.637 320.938C643.784 320.878 651.893 322.319 658.074 328C659.074 330.812 659.074 330.812 659.074 333C660.394 333 661.714 333 663.074 333C664.064 330.69 665.054 328.38 666.074 326C666.734 326 667.394 326 668.074 326C668.135 325.29 668.195 324.579 668.258 323.848C668.383 322.469 668.383 322.469 668.512 321.062C668.634 319.688 668.634 319.688 668.758 318.285C669.074 316 669.074 316 670.074 315Z" fill="#242429"/>
<path d="M431.073 186.998C431.093 187.653 431.113 188.308 431.134 188.983C431.574 196.676 433.604 202.93 436.573 209.998C437.396 212.019 438.219 214.04 439.042 216.061C439.407 216.939 439.773 217.816 440.149 218.721C440.853 220.456 441.481 222.222 442.073 223.998C443.063 224.328 444.053 224.658 445.073 224.998C446.503 226.74 446.503 226.74 447.948 228.873C450.332 232.211 452.41 234.059 456.073 235.998C456.073 236.658 456.073 237.318 456.073 237.998C456.609 238.246 457.146 238.493 457.698 238.748C460.655 240.305 463.37 242.033 466.073 243.998C466.073 244.658 466.073 245.318 466.073 245.998C466.692 246.308 467.311 246.617 467.948 246.936C469.323 247.623 470.698 248.311 472.073 248.998C472.073 249.658 472.073 250.318 472.073 250.998C472.651 251.287 473.228 251.576 473.823 251.873C474.566 252.245 475.308 252.616 476.073 252.998C476.733 253.287 477.393 253.576 478.073 253.873C480.073 254.998 480.073 254.998 481.823 256.873C484.863 259.745 488.295 261.274 492.073 262.998C492.073 263.658 492.073 264.318 492.073 264.998C492.736 265.228 493.398 265.457 494.081 265.694C497.962 267.386 501.39 269.592 504.948 271.873C510.803 275.603 510.803 275.603 516.788 279.119C533.085 288.441 551.944 300.578 558.073 318.998C558.073 319.658 558.073 320.318 558.073 320.998C551.024 321.097 544.071 321.044 537.042 320.502C526.228 319.758 515.407 319.844 504.573 319.873C503.507 319.875 502.441 319.877 501.343 319.879C479.019 319.925 457.216 320.542 435.073 323.591C431.077 324.134 427.075 324.632 423.073 325.127C421.074 325.374 419.075 325.625 417.077 325.879C412.057 326.517 407.036 327.116 402.003 327.643C387.283 329.235 371.424 331.18 358.073 337.998C353.463 339.334 348.893 340.309 344.073 339.998C344.073 340.658 344.073 341.318 344.073 341.998C332.037 346.506 319.879 347.035 307.168 347.793C304.158 347.993 301.162 348.257 298.159 348.545C294.387 348.902 290.678 349.11 286.886 349.061C285.964 349.052 285.042 349.043 284.093 349.033C283.093 349.016 283.093 349.016 282.073 348.998C282.073 348.338 282.073 347.678 282.073 346.998C282.754 346.462 283.434 345.926 284.136 345.373C287.271 342.839 289.667 340.092 292.229 336.998C299.495 329.117 312.094 322.21 322.878 321.416C326.633 321.346 330.339 321.581 334.073 321.998C331.56 318.229 329.205 317.651 325.073 315.998C324.743 315.668 324.413 315.338 324.073 314.998C320.894 314.745 317.699 314.813 314.511 314.811C313.628 314.799 312.746 314.786 311.837 314.774C306.194 314.761 301.506 315.516 296.073 316.998C293.846 317.229 291.617 317.438 289.386 317.623C282.463 318.549 277.859 321.104 272.12 324.967C268.64 327.287 265.063 329.104 261.292 330.893C258.994 331.999 258.994 331.999 256.596 333.498C243.3 341.402 228.844 339.216 214.073 337.998C213.743 332.388 213.413 326.778 213.073 320.998C212.413 320.998 211.753 320.998 211.073 320.998C209.688 315.544 208.833 310.631 209.073 304.998C207.959 306.174 207.959 306.174 206.823 307.373C204.479 309.611 202.93 310.692 200.073 311.998C198.801 310.895 197.53 309.791 196.261 308.686C195.553 308.071 194.845 307.456 194.116 306.823C193.105 305.92 193.105 305.92 192.073 304.998C191.538 304.576 191.003 304.154 190.452 303.72C188.506 301.29 188.799 299.706 188.964 296.631C189.014 295.581 189.064 294.53 189.116 293.448C189.184 292.351 189.253 291.254 189.323 290.123C189.376 289.034 189.429 287.945 189.483 286.823C189.731 282.113 190.056 277.612 191.073 272.998C194.688 274.47 196.479 276.413 198.823 279.498C199.437 280.292 200.05 281.086 200.682 281.905C202.073 283.998 202.073 283.998 202.073 285.998C202.659 286.122 203.246 286.246 203.85 286.374C206.073 286.998 207.676 287.796 209.639 288.994C210.29 289.388 210.94 289.782 211.61 290.188C212.279 290.6 212.947 291.011 213.636 291.436C214.308 291.844 214.98 292.252 215.673 292.672C218.511 294.4 221.308 296.155 224.073 297.998C226.827 298.299 229.499 298.508 232.261 298.623C233.01 298.662 233.76 298.701 234.532 298.74C236.379 298.835 238.226 298.918 240.073 298.998C240.073 298.338 240.073 297.678 240.073 296.998C239.238 296.596 239.238 296.596 238.386 296.186C234.797 294.343 231.428 292.235 228.073 289.998C228.073 289.338 228.073 288.678 228.073 287.998C227.497 287.881 226.921 287.764 226.327 287.643C223.916 286.953 222.136 286.009 220.011 284.686C219.003 284.073 219.003 284.073 217.975 283.448C212.332 279.148 211.255 272.758 209.386 266.248C209.065 265.189 208.745 264.129 208.415 263.037C206.198 255.418 204.459 248.63 207.823 241.061C208.31 239.934 208.31 239.934 208.807 238.783C209.225 237.864 209.643 236.945 210.073 235.998C210.291 235.264 210.508 234.529 210.733 233.772C212.799 227.647 212.799 227.647 216.225 225.903C219.044 225.173 221.813 224.71 224.698 224.311C226.858 223.939 229.016 223.564 231.175 223.186C232.863 222.905 232.863 222.905 234.586 222.619C240.466 221.572 246.263 220.185 252.073 218.811C253.691 218.435 253.691 218.435 255.341 218.052C259.544 217.076 263.739 216.082 267.923 215.028C271.966 214.014 276.026 213.091 280.096 212.194C281.214 211.946 281.214 211.946 282.354 211.693C284.719 211.169 287.083 210.646 289.448 210.123C290.994 209.781 292.539 209.438 294.085 209.096C296.406 208.582 298.726 208.067 301.048 207.554C304.999 206.68 308.949 205.803 312.898 204.919C327.155 201.73 327.155 201.73 333.826 200.437C335.407 200.128 336.986 199.806 338.562 199.474C356.491 195.727 373.861 195.546 392.073 195.998C392.073 195.338 392.073 194.678 392.073 193.998C394.713 193.668 397.353 193.338 400.073 192.998C400.073 192.338 400.073 191.678 400.073 190.998C401.775 190.565 401.775 190.565 403.511 190.123C404.686 189.752 405.862 189.381 407.073 188.998C407.403 188.338 407.733 187.678 408.073 186.998C410.969 186.803 413.864 186.617 416.761 186.436C417.577 186.38 418.394 186.324 419.235 186.266C420.031 186.218 420.827 186.169 421.647 186.119C422.375 186.072 423.103 186.025 423.853 185.977C426.363 186.001 428.631 186.441 431.073 186.998Z" fill="#A02D41"/>
<path d="M515.074 487C517.184 487.406 517.184 487.406 519.074 488C519.107 488.583 519.141 489.167 519.175 489.768C519.528 495.984 519.886 502.2 520.246 508.416C520.379 510.719 520.511 513.022 520.642 515.324C521.404 528.74 522.248 542.136 523.446 555.52C524.005 562.031 524.177 568.467 524.074 575C524.734 575 525.394 575 526.074 575C526.79 580.605 527.502 586.21 528.21 591.815C528.452 593.721 528.694 595.627 528.938 597.533C529.288 600.276 529.635 603.019 529.98 605.762C530.09 606.611 530.199 607.46 530.312 608.335C530.801 612.249 531.215 616.045 531.074 620C531.734 620 532.394 620 533.074 620C533.578 622.604 534.077 625.208 534.574 627.812C534.717 628.55 534.86 629.288 535.008 630.049C535.583 633.078 536.074 635.909 536.074 639C531.784 639 527.494 639 523.074 639C523.074 641.97 523.074 644.94 523.074 648C523.978 648.193 524.881 648.387 525.812 648.586C526.992 648.846 528.171 649.107 529.387 649.375C530.558 649.63 531.73 649.885 532.938 650.148C536.074 651 536.074 651 539.074 653C540.884 657.797 541.105 659.844 540.074 665C536.114 665 532.154 665 528.074 665C528.343 668.791 528.343 668.791 530.074 672C533.083 673.354 536.025 674.191 539.227 674.98C543.551 676.529 544.584 679.159 546.824 683C548.074 686 548.074 686 547.074 690C543.114 690 539.154 690 535.074 690C535.074 691.98 535.074 693.96 535.074 696C538.587 699.161 543.29 700.049 547.77 701.254C550.074 702 550.074 702 553.074 704C554.084 707.293 554.506 710.592 555.074 714C551.774 714.33 548.474 714.66 545.074 715C544.084 717.31 543.094 719.62 542.074 722C546.277 724.279 550.741 725.511 555.297 726.902C558.011 727.975 559.324 728.71 561.074 731C562.232 734.473 562.143 737.361 562.074 741C560.056 740.967 558.038 740.935 556.02 740.902C553.992 740.874 553.992 740.874 552.074 742C552.569 745.465 552.569 745.465 553.074 749C553.833 749.193 554.593 749.387 555.375 749.586C556.866 749.977 556.866 749.977 558.387 750.375C559.373 750.63 560.359 750.885 561.375 751.148C564.654 752.183 566.592 753.111 568.262 756.188C569.233 759.551 569.211 762.516 569.074 766C568.414 765.856 567.754 765.711 567.074 765.562C563.418 764.877 559.768 764.438 556.074 764C556.074 764.66 556.074 765.32 556.074 766C555.414 766 554.754 766 554.074 766C554.074 768.31 554.074 770.62 554.074 773C559.991 775.082 559.991 775.082 566.074 776.562C566.734 776.707 567.394 776.851 568.074 777C569.277 779.405 569.175 780.95 569.137 783.625C569.128 784.442 569.119 785.26 569.109 786.102C569.092 787.041 569.092 787.041 569.074 788C568.315 788.061 567.556 788.121 566.773 788.184C565.283 788.309 565.283 788.309 563.762 788.438C562.776 788.519 561.789 788.6 560.773 788.684C557.98 788.918 557.98 788.918 555.074 790C555.074 791.65 555.074 793.3 555.074 795C556.345 795.48 557.616 795.959 558.887 796.438C559.948 796.838 559.948 796.838 561.031 797.246C562.701 797.862 564.386 798.437 566.074 799C566.074 799.66 566.074 800.32 566.074 801C566.734 801 567.394 801 568.074 801C568.404 804.63 568.734 808.26 569.074 812C564.454 812 559.834 812 555.074 812C555.074 814.64 555.074 817.28 555.074 820C555.678 820.121 556.281 820.242 556.902 820.367C557.702 820.535 558.501 820.702 559.324 820.875C560.508 821.119 560.508 821.119 561.715 821.367C564.043 821.992 565.965 822.848 568.074 824C568.074 824.99 568.074 825.98 568.074 827C568.734 827 569.394 827 570.074 827C570.074 829.31 570.074 831.62 570.074 834C567.72 835.177 566.375 835.07 563.762 835C560.385 834.956 557.365 835.151 554.074 836C554.339 839.793 554.339 839.793 556.074 843C559.122 844.315 562.094 845.13 565.324 845.883C568.074 847 568.074 847 569.441 849.379C570.23 852.644 570.205 855.654 570.074 859C568.094 859 566.114 859 564.074 859C564.074 858.34 564.074 857.68 564.074 857C561.104 857.66 558.134 858.32 555.074 859C554.689 862.344 554.689 862.344 556.074 866C558.804 867.644 561.522 868.754 564.508 869.859C567.074 871 567.074 871 569.074 874C569.332 876.695 569.163 879.285 569.074 882C568.147 881.988 567.221 881.977 566.266 881.965C564.469 881.951 564.469 881.951 562.637 881.938C560.844 881.92 560.844 881.92 559.016 881.902C556.185 881.661 556.185 881.661 555.074 883C554.824 885.958 554.824 885.958 555.074 889C558.06 891.986 561.608 892.254 565.641 893.219C566.444 893.477 567.247 893.734 568.074 894C569.277 896.405 569.175 897.95 569.137 900.625C569.128 901.442 569.119 902.26 569.109 903.102C569.092 904.041 569.092 904.041 569.074 905C566.533 905.736 565.269 906.045 562.637 905.438C559.502 904.902 557.891 905.632 555.074 907C555.569 910.465 555.569 910.465 556.074 914C557.652 914.433 557.652 914.433 559.262 914.875C562.313 915.775 565.199 916.647 568.074 918C569.277 920.405 569.175 921.95 569.137 924.625C569.128 925.442 569.119 926.26 569.109 927.102C569.092 928.041 569.092 928.041 569.074 929C565.579 930.165 563.559 929.747 560.012 929.156C557.856 928.855 557.856 928.855 555.074 930C555.074 931.98 555.074 933.96 555.074 936C559.656 938.395 564.102 940.508 569.074 942C569.074 945.63 569.074 949.26 569.074 953C567.094 953 565.114 953 563.074 953C563.074 952.34 563.074 951.68 563.074 951C560.104 951.66 557.134 952.32 554.074 953C554.366 956.774 554.366 956.774 556.074 960C559.916 962.14 563.942 963.527 568.074 965C569.074 966 569.074 966 569.172 968.285C569.154 969.66 569.154 969.66 569.137 971.062C569.128 971.982 569.119 972.901 569.109 973.848C569.092 974.913 569.092 974.913 569.074 976C567.953 975.983 567.953 975.983 566.809 975.965C565.824 975.956 564.839 975.947 563.824 975.938C562.85 975.926 561.875 975.914 560.871 975.902C558.417 975.988 556.413 976.293 554.074 977C554.095 978.031 554.115 979.062 554.137 980.125C554.081 983.552 553.729 986.646 553.074 990C554.27 989.67 555.467 989.34 556.699 989C560.232 988.107 563.415 987.817 567.074 988C566.455 988.846 565.837 989.691 565.199 990.562C563.58 992.957 562.997 994.333 562.324 997.25C560.754 1001.96 558.152 1004.93 554.949 1008.67C553.283 1010.74 552.232 1012.63 551.074 1015C549.262 1016.06 549.262 1016.06 547.074 1016C545.157 1014.39 543.691 1012.88 542.074 1011C541.268 1010.13 541.268 1010.13 540.445 1009.23C536.579 1004.98 533.253 1000.53 530.072 995.74C528.149 992.964 528.149 992.964 525.791 990.667C518.192 982.789 517.777 975.822 517.949 965.5C517.938 964.034 517.922 962.568 517.902 961.102C517.822 950.757 517.822 950.757 519.074 947C519.734 946.67 520.394 946.34 521.074 946C521.544 942.724 521.544 942.724 521.699 938.938C521.774 937.647 521.849 936.357 521.926 935.027C521.999 933.529 521.999 933.529 522.074 932C520.754 932 519.434 932 518.074 932C517.999 927.699 517.945 923.399 517.909 919.097C517.895 917.641 517.874 916.184 517.848 914.728C517.717 907.274 517.798 900.348 519.559 893.055C521.376 885.508 521.564 878.261 521.52 870.54C521.512 868.238 521.541 865.938 521.572 863.637C521.611 855.329 520.887 848.521 517.074 841C514.367 833.525 513.806 826.811 514.066 818.871C514.289 816.055 514.289 816.055 513.074 814C512.673 809.427 512.558 804.837 512.387 800.25C512.327 798.974 512.267 797.698 512.205 796.383C512.158 795.148 512.111 793.913 512.062 792.641C511.993 790.947 511.993 790.947 511.923 789.22C512.084 785.796 512.864 783.191 514.074 780C514.455 778.486 514.812 776.965 515.137 775.438C515.293 774.714 515.449 773.991 515.609 773.246C515.839 772.134 515.839 772.134 516.074 771C516.266 770.251 516.458 769.502 516.656 768.73C517.216 765.074 516.967 761.544 516.699 757.875C516.655 757.16 516.612 756.444 516.566 755.707C516.358 752.612 516.06 749.956 515.074 747C515.035 744.667 515.03 742.333 515.074 740C514.414 740 513.754 740 513.074 740C512.074 738.333 511.074 736.667 510.074 735C509.208 734.134 508.342 733.267 507.449 732.375C505.074 730 505.074 730 504.074 727C503.187 726.711 502.3 726.423 501.387 726.125C497.353 724.755 495.08 723.006 492.074 720C491.373 718.012 490.7 716.013 490.074 714C488.241 712.875 488.241 712.875 486.074 712C483.324 709.562 483.324 709.562 481.074 707C481.074 706.01 481.074 705.02 481.074 704C482.064 703.67 483.054 703.34 484.074 703C484.384 702.072 484.693 701.144 485.012 700.188C486.179 696.686 487.433 695.482 490.074 693C490.466 692.216 490.858 691.433 491.262 690.625C493.614 687.218 496.465 685.677 500.016 683.625C503.344 680.997 503.869 677.71 505.012 673.75C505.362 672.842 505.713 671.935 506.074 671C507.064 670.67 508.054 670.34 509.074 670C507.939 677.623 507.008 683.631 501.074 689C505.254 686.033 507.784 682.752 510.324 678.375C510.675 677.79 511.025 677.205 511.387 676.602C514.463 671.443 515.557 668.054 515.074 662C514.468 660.311 513.796 658.644 513.074 657C512.764 655.566 512.475 654.128 512.199 652.688C510.935 646.754 508.611 641.921 504.824 637.188C503.074 635 503.074 635 503.074 632C502.015 631.797 502.015 631.797 500.934 631.59C499.061 631.204 497.195 630.78 495.34 630.316C488.187 628.528 481.131 627.406 473.812 626.647C470.481 626.3 467.308 625.865 464.074 625C457.489 624.451 453.731 625.744 448.074 629C447.358 629.318 446.641 629.637 445.902 629.965C443.067 631.57 442.995 633.95 442.074 637C440.834 639.399 439.465 641.682 438.074 644C437.414 644 436.754 644 436.074 644C436.404 638.39 436.734 632.78 437.074 627C437.734 627 438.394 627 439.074 627C439.058 626.397 439.042 625.794 439.026 625.173C438.933 618.898 439.465 612.941 440.449 606.75C440.639 605.462 440.639 605.462 440.832 604.148C441.535 599.582 442.441 595.346 444.074 591C444.734 591 445.394 591 446.074 591C446.198 589.824 446.322 588.649 446.449 587.438C446.939 583.459 447.88 579.822 449.074 576C449.734 576 450.394 576 451.074 576C450.992 575.34 450.909 574.68 450.824 574C451.125 570.391 452.364 568.095 454.051 564.938C455.239 562.687 456.181 560.381 457.074 558C457.734 558 458.394 558 459.074 558C459.173 557.283 459.273 556.567 459.375 555.828C460.171 552.607 461.433 550.511 463.262 547.75C463.896 546.787 464.53 545.824 465.184 544.832C465.808 543.897 466.431 542.963 467.074 542C467.824 540.83 467.824 540.83 468.59 539.637C478.871 523.734 478.871 523.734 484.074 522C484.322 521.01 484.322 521.01 484.574 520C484.822 519.01 484.822 519.01 485.074 518C486.064 517.67 487.054 517.34 488.074 517C488.778 515.686 489.438 514.348 490.074 513C492.785 509.355 495.732 506.079 499.074 503C499.734 503 500.394 503 501.074 503C501.074 502.34 501.074 501.68 501.074 501C501.734 501 502.394 501 503.074 501C503.074 500.01 503.074 499.02 503.074 498C504.684 496.316 504.684 496.316 506.824 494.562C509.181 492.608 511.27 490.782 513.324 488.5C513.902 488.005 514.479 487.51 515.074 487Z" fill="#CECFC9"/>
<path d="M563.889 171.501C572.492 173.759 579.546 173.42 588.201 171.501C600.06 168.941 612.071 169.549 624.076 171.001C624.076 171.661 624.076 172.321 624.076 173.001C624.702 173.125 625.329 173.248 625.974 173.376C628.553 174.027 630.735 174.734 633.076 176.001C635.781 182.06 635.321 188.456 635.076 195.001C635.104 195.731 635.133 196.46 635.162 197.212C635.099 202.826 632.738 206.8 629.826 211.438C629.443 212.054 629.06 212.67 628.666 213.305C626.239 216.951 624.341 218.859 620.076 220.001C620.076 220.661 620.076 221.321 620.076 222.001C619.457 222.083 618.838 222.166 618.201 222.251C615.896 222.795 615.896 222.795 615.013 225.001C614.704 225.661 614.395 226.321 614.076 227.001C612.591 227.496 612.591 227.496 611.076 228.001C611.076 228.661 611.076 229.321 611.076 230.001C609.502 231.552 609.502 231.552 607.388 233.313C605.939 234.528 604.502 235.759 603.076 237.001C602.179 237.689 601.282 238.378 600.357 239.087C597.043 243.321 597.297 247.075 597.263 252.313C597.238 253.245 597.213 254.176 597.187 255.136C597.129 257.425 597.092 259.711 597.076 262.001C597.736 262.001 598.396 262.001 599.076 262.001C600.392 265.621 601.076 268.097 601.076 272.001C601.736 272.001 602.396 272.001 603.076 272.001C603.318 272.676 603.561 273.352 603.81 274.048C606.274 280.786 606.274 280.786 611.076 286.001C610.581 284.733 610.581 284.733 610.076 283.438C608.226 277.08 608.574 270.165 611.076 264.001C613.127 261.308 615.343 259.005 618.076 257.001C618.736 257.001 619.396 257.001 620.076 257.001C620.076 256.341 620.076 255.681 620.076 255.001C630.763 245.965 642.49 241.865 656.076 239.001C656.212 239.998 656.348 240.996 656.487 242.023C657.001 245.782 657.523 249.539 658.047 253.295C658.272 254.911 658.494 256.526 658.713 258.142C659.884 266.743 661.183 275.146 663.427 283.546C665.926 292.996 666.265 302.658 666.326 312.376C666.335 313.291 666.345 314.206 666.354 315.149C666.327 321.051 665.544 326.282 664.076 332.001C662.756 331.671 661.436 331.341 660.076 331.001C660.014 330.382 659.952 329.763 659.889 329.126C659.247 326.723 659.247 326.723 656.514 325.751C655.307 325.38 655.307 325.38 654.076 325.001C654.076 324.341 654.076 323.681 654.076 323.001C647.113 320.751 640.506 319.735 633.232 319.438C631.946 319.38 631.946 319.38 630.635 319.321C619.204 318.835 607.764 318.645 596.326 318.438C594.056 318.395 591.787 318.351 589.517 318.308C584.037 318.202 578.557 318.1 573.076 318.001C572.83 317.219 572.584 316.437 572.331 315.631C570.415 309.689 568.415 304.208 565.389 298.751C565.052 298.135 564.715 297.52 564.368 296.885C562.508 293.501 560.591 290.151 558.662 286.806C554.746 279.993 551.126 273.653 549.076 266.001C548.416 266.001 547.756 266.001 547.076 266.001C546.238 264.044 545.406 262.086 544.576 260.126C544.112 259.035 543.648 257.945 543.17 256.821C542.076 254.001 542.076 254.001 542.076 252.001C541.416 252.001 540.756 252.001 540.076 252.001C539.746 250.021 539.416 248.041 539.076 246.001C538.416 246.001 537.756 246.001 537.076 246.001C536.746 244.021 536.416 242.041 536.076 240.001C535.416 240.001 534.756 240.001 534.076 240.001C533.62 238.015 533.165 236.03 532.709 234.044C532.096 231.724 532.096 231.724 530.076 229.001C529.555 227.641 529.079 226.264 528.638 224.876C528.258 223.689 528.258 223.689 527.869 222.477C527.607 221.66 527.346 220.843 527.076 220.001C526.535 218.417 525.994 216.834 525.451 215.251C524.427 212.19 523.591 209.196 523.076 206.001C522.416 206.001 521.756 206.001 521.076 206.001C519.757 202.044 519.849 198.112 520.076 194.001C520.131 192.945 520.187 191.889 520.244 190.802C521.204 180.899 521.204 180.899 525.201 177.438C531.418 173.63 539.032 172.488 546.076 171.001C546.824 170.806 547.571 170.612 548.342 170.411C553.798 169.121 558.597 170.046 563.889 171.501Z" fill="#A52F43"/>
</svg>
