<svg width="261" height="861" viewBox="0 0 261 861" fill="none" xmlns="http://www.w3.org/2000/svg">
<path d="M169.715 0.257515C167.982 0.524178 166.648 1.19084 166.648 1.72418C166.648 2.25751 163.715 2.79085 160.115 2.92418C151.315 3.32418 146.915 5.32418 145.048 9.32418C143.715 12.1242 143.982 13.1908 146.382 15.7242C148.915 18.3908 149.048 19.4575 147.982 23.3242C146.115 29.8575 147.315 32.1242 153.982 34.7908C157.315 35.9908 159.582 37.4575 159.182 38.1242C158.782 38.7908 159.315 38.9242 160.382 38.5242C161.448 38.1242 162.648 35.3242 163.048 32.3908C163.448 29.4575 164.782 25.9908 165.982 24.7908C167.982 22.7908 167.982 23.0575 165.982 27.5908C162.382 36.2575 164.515 44.5242 168.915 38.6575C169.848 37.1908 170.648 36.5242 170.648 37.0575C170.648 37.7242 169.448 39.7242 167.982 41.7242C166.382 43.7242 164.382 48.3908 163.315 51.8575C161.315 58.2575 161.315 58.2575 164.382 57.5908C165.982 57.1908 169.448 56.3908 172.115 55.9908L176.782 55.0575L177.182 61.1908C177.315 64.5242 176.782 68.6575 175.848 70.2575C174.248 73.1908 174.382 73.3242 176.915 70.9242C181.048 67.3242 194.382 65.4575 202.782 67.1908C211.315 69.0575 212.248 68.3908 205.848 65.3242C202.248 63.5908 199.048 63.1908 193.715 63.7242C189.848 64.1242 186.648 63.9908 186.648 63.3242C186.648 62.6575 190.382 61.9908 195.048 61.7242C204.782 61.1908 205.582 59.0575 196.382 57.8575L189.982 57.0575L195.582 56.9242C202.648 56.6575 204.115 54.5242 198.382 52.7908C193.982 51.5908 193.982 51.5908 197.715 51.4575C203.848 51.1908 200.648 49.0575 192.648 48.1242C187.182 47.4575 184.248 47.8575 181.315 49.3242C179.048 50.5242 177.315 50.7908 177.315 50.1242C177.315 48.1242 194.115 31.3242 196.115 31.3242C197.048 31.3242 198.915 32.3908 200.382 33.5908C202.782 35.8575 203.048 35.8575 204.782 33.3242C208.248 28.5242 208.515 24.6575 205.448 20.6575C203.982 18.5242 202.648 16.1242 202.648 15.4575C202.648 14.7908 201.448 13.7242 199.982 13.3242C198.382 12.7908 195.715 10.1242 193.982 7.32418C191.315 3.19084 189.582 1.99084 185.715 1.32418C177.048 -0.00915527 172.782 -0.275818 169.715 0.257515ZM181.982 20.3908C180.515 21.5908 177.982 24.3908 176.248 26.5242C174.648 28.6575 173.315 29.5908 173.315 28.6575C173.315 26.7908 181.848 17.9908 183.582 17.9908C184.115 18.1242 183.448 19.0575 181.982 20.3908Z" fill="black"/>
<path d="M181.313 70.9253C175.713 73.0586 174.646 75.4586 174.646 86.6586C174.646 93.7253 173.846 99.4586 172.513 102.792C171.313 105.592 170.246 112.259 169.98 117.592C169.713 125.992 169.046 128.392 165.313 134.392C162.646 138.792 160.646 144.125 159.98 148.792C159.18 153.859 157.58 158.125 154.78 161.992C149.446 169.459 149.58 170.659 155.313 166.792C157.846 165.059 162.78 163.192 166.246 162.659C169.713 162.125 177.046 159.992 182.38 157.992C191.046 154.659 191.98 154.525 189.846 156.792C185.846 161.192 179.713 164.259 170.646 166.659C154.38 170.792 150.113 173.325 146.913 180.659C139.846 196.792 141.313 198.925 162.913 205.459C174.913 208.925 177.713 214.792 165.98 211.592C158.78 209.725 145.446 209.459 140.78 211.325C138.913 211.992 135.846 214.925 134.113 217.859C132.246 220.792 128.913 225.059 126.646 227.325C122.646 231.459 122.513 231.725 124.913 234.259C126.246 235.725 130.113 238.392 133.446 239.992C139.98 243.325 173.313 253.992 177.046 253.992C178.38 253.992 181.58 255.192 184.246 256.525L189.046 259.192L189.713 255.592C190.646 250.925 188.38 233.725 185.98 226.125C182.78 216.525 183.846 216.659 187.713 226.259C189.713 231.059 191.846 235.592 192.513 236.259C194.38 237.992 192.113 208.125 189.846 200.525C188.78 196.792 188.113 192.792 188.38 191.592C188.913 188.792 195.313 201.592 197.446 209.992C198.78 215.459 199.046 215.725 200.113 212.792C200.913 210.925 200.646 205.059 199.713 197.859C198.246 186.525 198.78 181.992 201.18 185.859C203.18 189.059 204.246 182.525 203.446 172.259C202.913 166.925 202.38 158.392 201.98 153.325C201.713 148.125 200.246 140.792 198.78 136.925C193.98 125.059 195.713 120.392 202.513 126.525C204.113 127.992 206.113 128.659 207.446 128.125C209.846 127.192 209.846 127.192 206.646 105.992C205.18 96.9253 205.313 95.9919 207.446 94.392C209.58 92.9253 209.58 92.1253 208.246 89.9919C207.446 88.5253 206.646 86.1253 206.646 84.6586C206.646 80.2586 202.513 73.0586 199.046 71.4586C195.713 69.9919 184.913 69.5919 181.313 70.9253ZM177.846 103.059C178.113 103.592 177.98 104.925 177.313 105.859C175.98 108.125 173.18 106.525 174.246 103.992C175.046 101.859 176.78 101.325 177.846 103.059ZM175.98 130.659C175.98 131.725 175.446 132.659 174.646 132.659C173.98 132.659 173.313 131.725 173.313 130.659C173.313 129.592 173.98 128.659 174.646 128.659C175.446 128.659 175.98 129.592 175.98 130.659ZM167.313 148.525C168.246 150.125 165.713 151.725 163.98 150.659C162.513 149.725 163.446 147.325 165.313 147.325C165.98 147.325 166.78 147.859 167.313 148.525ZM176.646 203.325C177.98 204.792 178.78 205.992 178.38 205.992C177.98 205.992 176.646 204.792 175.313 203.325C173.98 201.859 173.18 200.659 173.58 200.659C173.98 200.659 175.313 201.859 176.646 203.325Z" fill="black"/>
<path d="M203.98 135.323C203.98 135.99 204.647 139.723 205.58 143.59L207.047 150.657L208.247 145.723C209.314 140.523 207.714 133.99 205.314 133.99C204.647 133.99 203.98 134.523 203.98 135.323Z" fill="black"/>
<path d="M41.1817 187.189C31.4484 189.189 21.7151 195.056 16.6484 202.256C13.3151 206.789 12.2484 209.456 13.0484 210.256C15.0484 212.256 13.4484 215.323 10.6484 215.323C6.24842 215.323 5.44842 225.056 9.04842 236.389C11.4484 243.856 28.6484 268.523 31.5817 268.656C33.3151 268.656 35.1817 273.323 34.1151 275.189C33.7151 275.856 34.1151 276.656 35.0484 277.056C35.9817 277.456 42.2484 273.856 48.7817 269.056C55.3151 264.389 64.9151 257.589 69.9817 254.123C89.4484 240.923 91.4484 239.456 94.2484 236.389C97.4484 233.056 97.5817 234.256 91.4484 220.123C87.8484 211.989 77.3151 197.989 71.7151 193.989C64.6484 188.789 49.7151 185.589 41.1817 187.189ZM41.5817 192.656C42.3817 192.656 42.3817 193.456 41.3151 194.656C38.9151 197.589 35.9817 197.056 35.9817 193.856C35.9817 191.856 36.5151 191.323 38.1151 191.856C39.3151 192.256 40.7817 192.656 41.5817 192.656ZM58.6484 200.656C58.6484 201.323 58.1151 201.989 57.3151 201.989C56.6484 201.989 55.9817 201.323 55.9817 200.656C55.9817 199.856 56.6484 199.323 57.3151 199.323C58.1151 199.323 58.6484 199.856 58.6484 200.656ZM73.8484 203.989C74.2484 205.056 73.9817 205.989 73.3151 205.989C72.5151 205.989 71.9817 205.056 71.9817 203.989C71.9817 202.923 72.2484 201.989 72.5151 201.989C72.7817 201.989 73.3151 202.923 73.8484 203.989ZM26.6484 209.056C26.6484 211.189 23.9817 213.989 21.8484 213.989C19.4484 213.989 18.2484 209.723 20.2484 208.389C22.9151 206.789 26.6484 207.189 26.6484 209.056ZM13.3151 219.323C13.3151 219.989 12.6484 220.656 11.8484 220.656C11.1817 220.656 10.9151 219.989 11.3151 219.323C11.7151 218.523 12.3817 217.989 12.7817 217.989C13.0484 217.989 13.3151 218.523 13.3151 219.323ZM73.3151 221.056C74.3817 221.456 72.1151 221.856 68.3817 221.856C64.5151 221.989 61.3151 221.456 61.3151 220.789C61.3151 219.189 68.1151 218.256 69.9817 219.456C70.7817 219.856 72.2484 220.656 73.3151 221.056ZM54.6484 228.656C57.7151 229.589 57.5817 229.723 53.3151 229.723C50.7817 229.723 47.1817 229.189 45.3151 228.656C42.2484 227.723 42.3817 227.589 46.6484 227.589C49.1817 227.589 52.7817 228.123 54.6484 228.656Z" fill="black"/>
<path d="M111.314 235.325C110.914 236.125 111.314 236.925 112.247 237.325C113.314 237.858 114.114 240.925 114.247 246.391C114.514 254.125 114.114 255.191 109.181 262.658C102.514 272.391 95.714 277.991 90.114 277.991C87.8473 277.991 84.7807 278.925 83.4473 279.991C81.9807 281.058 79.9807 281.991 78.914 281.991C77.8473 281.991 81.714 277.325 87.5807 271.591C95.5807 263.858 99.714 258.525 103.314 251.458C108.381 241.325 108.914 237.325 104.247 244.925C102.647 247.325 100.114 250.658 98.3807 252.391C95.5807 254.925 94.6473 255.058 91.1806 253.725C87.8473 252.525 85.9807 252.658 80.6473 254.658C77.0473 256.125 73.9807 258.258 73.5807 259.591C73.0473 261.591 72.7807 261.591 71.0473 259.991C69.4473 258.258 68.6473 258.391 65.5807 260.525C63.5807 261.858 58.514 265.191 54.3806 267.991C43.5807 274.925 36.7807 283.325 41.8473 283.325C45.1806 283.325 45.5807 288.125 42.6473 292.925C41.1806 295.325 39.9806 297.858 39.9806 298.525C39.9806 300.791 50.114 297.725 59.714 292.525C65.1806 289.725 69.8473 287.325 70.3807 287.325C72.2473 287.325 64.2473 294.525 59.8473 296.658C57.1807 298.125 53.9807 300.791 52.7807 302.658C51.4473 304.658 48.3806 307.058 45.8473 308.125C41.8473 309.858 41.4473 310.391 42.114 313.858C42.914 317.325 42.114 318.658 35.9806 324.258C27.714 331.858 19.9806 345.058 19.9806 351.591C19.9806 354.258 19.0473 359.325 17.8473 363.058C15.314 370.791 16.114 375.325 19.314 372.658C20.7806 371.458 21.1806 368.658 21.0473 362.791C20.7806 348.125 25.1806 336.658 34.514 328.258C39.4473 323.858 40.7807 323.325 47.1806 323.325C53.1806 323.325 55.4473 324.125 61.8473 328.258C68.6473 332.791 71.0473 335.325 68.2473 335.325C67.5807 335.325 61.314 333.325 54.2473 330.791C47.1806 328.258 41.314 326.258 41.1806 326.391C41.1806 326.525 40.914 327.991 40.7807 329.725C40.2473 333.858 38.2473 335.591 34.114 335.591C30.7806 335.591 30.114 336.658 30.6473 340.525C30.7806 341.458 29.5806 343.725 27.9806 345.325C25.1806 348.391 25.0473 348.658 26.514 374.258C27.314 388.391 27.4473 401.725 26.914 403.858C25.8473 407.725 22.6473 410.391 22.6473 407.458C22.6473 406.658 21.5806 405.991 20.114 405.991C17.4473 405.991 14.2473 403.058 14.914 401.191C15.1806 400.525 14.6473 399.725 13.9806 399.325C13.1806 398.925 12.6473 400.258 12.514 402.258C12.3806 404.258 11.5806 406.925 10.6473 408.125C8.91398 409.991 8.64731 409.991 7.04731 407.858C5.04731 405.058 4.64731 400.125 6.64731 401.325C7.44731 401.725 8.11398 401.325 8.11398 400.391C8.78065 393.725 8.38065 390.791 6.91398 390.391C4.51398 389.458 1.44731 397.858 2.24731 402.658C3.18065 406.925 14.914 419.325 18.114 419.325C19.1806 419.325 19.9806 419.858 19.9806 420.525C19.9806 423.458 11.8473 421.458 8.78065 417.991C7.18065 415.991 4.38065 413.591 2.64731 412.658C-0.286021 411.058 -0.419354 411.191 0.513979 415.458C0.913979 417.858 2.24731 420.791 3.31398 421.991C5.84731 424.791 5.84731 426.525 3.31398 425.458C-0.952687 423.858 1.71398 427.725 10.914 436.658C18.2473 443.858 22.2473 446.525 27.5806 448.258C35.9806 450.925 39.5807 449.725 49.714 441.058C57.0473 434.925 59.1807 434.125 60.514 437.458C61.5807 440.391 61.5807 442.258 60.2473 441.458C58.2473 440.258 58.7807 455.058 60.7807 456.791C64.7807 460.125 62.7807 464.125 57.4473 463.325C56.2473 463.191 55.8473 463.858 56.514 465.325C56.914 466.525 57.314 468.125 57.314 468.791C57.314 471.991 70.514 468.125 85.4473 460.658C102.781 451.991 106.647 451.858 92.3807 460.391C79.1806 468.391 70.914 471.591 62.6473 472.125C58.6473 472.391 55.0473 472.658 54.6473 472.658C54.2473 472.658 55.4473 473.858 57.314 475.325C60.2473 477.591 60.3806 477.991 58.3806 478.658C56.6473 479.325 56.3806 480.258 57.1807 481.725C57.714 483.058 57.9807 496.258 57.5807 511.325C56.514 548.525 56.514 553.325 57.8473 573.991C58.914 589.058 59.5807 592.925 62.2473 597.725C64.914 602.525 65.314 604.791 65.0473 613.725L64.6473 623.991L62.7807 615.725C61.714 611.191 60.3806 607.725 59.714 608.125C59.1807 608.525 58.6473 615.325 58.6473 623.191C58.6473 636.125 58.914 637.858 61.8473 641.858C64.7807 645.725 65.1806 647.991 65.9807 666.125C66.914 683.325 67.314 686.125 69.1806 685.858C70.3807 685.725 73.8473 685.725 77.0473 685.858C82.2473 685.991 82.6473 686.125 80.7807 688.125C77.5807 691.325 78.114 692.258 83.8473 693.191C88.2473 693.858 89.0473 694.391 88.6473 696.791C87.8473 700.658 90.914 701.325 98.2473 698.791C101.581 697.591 104.781 697.058 105.181 697.458C106.514 698.658 99.5807 703.191 94.2473 704.791C89.4473 706.125 89.1806 706.258 91.1806 708.525C92.3807 709.858 93.314 711.991 93.314 713.191C93.314 715.191 94.114 715.458 98.114 714.791C100.647 714.258 103.714 713.458 104.781 713.058C107.714 711.991 107.181 717.725 104.114 719.591C102.781 720.391 101.847 721.991 102.247 722.925C102.647 723.858 102.247 724.658 101.447 724.658C100.647 724.658 99.9807 724.258 99.9807 723.591C99.9807 723.058 94.114 722.658 86.914 722.791C75.0473 722.791 73.9807 723.058 73.9807 725.458C73.9807 727.325 75.8473 728.658 81.714 730.525C85.8473 731.858 89.314 733.458 89.314 733.991C89.314 734.525 87.8473 735.591 85.9807 736.391C82.914 737.725 82.114 739.858 82.2473 745.591C82.2473 746.391 81.4473 746.791 80.514 746.391C79.0473 745.858 78.6473 747.458 78.6473 753.991C78.6473 766.125 79.714 767.325 89.9807 767.325C102.247 767.325 101.447 769.191 87.314 773.591C83.4473 774.658 83.314 775.058 83.714 781.325C84.114 789.325 85.8473 791.591 90.514 790.525L93.9807 789.858L90.2473 793.191C87.8473 795.458 86.7807 797.458 87.1806 799.591C87.714 802.525 90.514 803.058 92.114 800.525C93.314 798.525 107.047 796.125 111.314 797.325C113.581 797.858 114.514 798.658 113.714 798.925C112.781 799.325 111.981 800.391 111.981 801.458C111.981 802.791 111.181 802.925 108.514 801.991C104.247 800.258 100.514 800.258 94.514 801.991C89.8473 803.325 89.8473 803.325 89.714 810.925C89.714 815.191 89.314 823.591 88.6473 829.591L87.5807 840.658H81.8473C78.6473 840.658 71.714 841.325 66.3807 841.991C61.0473 842.791 46.914 843.858 35.0473 844.391C15.1806 845.325 10.3806 846.125 12.2473 847.991C12.6473 848.391 18.2473 849.058 24.7806 849.458C31.314 849.858 38.514 850.791 40.7807 851.458C42.914 852.125 62.7807 852.925 84.7807 853.325C122.914 853.858 125.047 853.991 131.447 856.925C137.047 859.591 140.381 859.991 155.047 860.258C166.514 860.391 174.381 859.858 179.047 858.525C193.714 854.525 206.781 852.525 230.647 850.658C244.247 849.591 256.647 848.258 258.247 847.858C263.847 846.258 259.847 844.658 250.247 844.658C244.914 844.658 236.914 843.725 232.514 842.658C227.181 841.458 218.514 840.791 208.514 841.058C197.181 841.191 191.714 840.791 189.447 839.458C183.314 835.991 178.647 835.325 177.714 837.591C177.181 838.791 177.581 840.125 178.381 840.391C179.314 840.658 179.981 843.058 179.847 845.725C179.847 848.391 179.447 849.858 179.047 848.925C178.781 848.125 177.981 847.591 177.314 847.991C176.647 848.391 175.447 845.191 174.647 841.058C173.847 836.791 171.981 831.191 170.647 828.525C169.181 825.858 168.114 821.991 168.114 819.858C168.247 817.725 167.847 812.125 167.447 807.325C165.847 791.458 166.514 778.258 168.914 773.591C170.114 771.191 171.581 767.191 171.981 764.658C172.514 762.125 173.047 759.325 173.314 758.658C173.447 757.858 173.581 755.725 173.447 753.725C173.314 750.925 172.514 749.991 169.447 749.325C167.314 748.925 164.514 747.325 163.181 745.858C161.981 744.525 160.247 743.325 159.314 743.325C157.047 743.325 154.781 740.525 155.581 738.525C155.981 737.458 157.847 736.658 159.847 736.658C164.914 736.658 166.114 735.458 169.314 727.325C170.914 723.325 172.781 719.325 173.447 718.525C174.114 717.591 175.047 713.991 175.581 710.258C176.514 702.125 174.381 700.125 171.181 706.258C168.114 712.391 156.114 729.991 152.381 733.991C150.647 735.858 149.314 737.725 149.314 738.258C149.314 738.925 148.114 739.325 146.781 739.325C143.181 739.325 142.114 741.458 145.047 742.658C147.181 743.458 147.047 743.725 144.647 745.458C142.647 746.925 138.514 747.325 128.514 747.191C112.781 746.925 107.981 746.258 107.981 744.125C107.981 743.325 111.714 737.725 116.381 731.591L124.647 720.658L124.514 692.925C124.514 667.858 122.114 619.725 120.647 615.725C119.847 613.325 123.581 590.391 126.114 581.991L128.381 574.658L130.247 585.991C131.314 592.258 132.114 604.525 131.981 613.325C131.847 647.991 131.847 654.925 132.514 663.058C132.781 667.725 133.447 671.858 133.847 672.258C134.247 672.791 135.714 672.125 137.047 670.925C139.714 668.525 149.847 664.658 153.181 664.791C154.381 664.791 152.247 665.991 148.514 667.458C144.647 668.925 139.981 671.591 137.981 673.325C134.514 676.658 134.514 676.791 134.781 694.391C134.914 708.525 134.647 712.791 132.781 715.991C131.581 718.125 130.647 720.791 130.647 721.858C130.647 722.925 129.714 723.325 127.981 722.925C124.781 722.125 123.181 724.125 125.047 726.391C126.381 727.991 126.647 735.325 125.314 734.925C123.847 734.525 116.114 741.191 116.781 742.258C117.181 742.791 122.114 743.325 127.714 743.325H137.981L147.714 731.591C159.047 717.991 163.047 711.725 161.847 709.725C161.314 708.925 161.447 708.658 162.381 709.058C163.181 709.591 165.047 707.325 166.781 703.725C168.514 700.125 171.447 694.658 173.447 691.325C177.181 685.191 179.447 677.725 178.781 673.725C178.647 672.391 179.181 670.258 179.981 668.658C181.181 666.391 182.247 666.125 186.381 666.791L191.314 667.591L195.047 659.458C197.047 654.925 198.647 650.658 198.647 649.858C198.647 648.791 195.981 648.525 189.714 649.191C183.447 649.725 181.314 649.591 182.647 648.658C183.714 647.991 186.247 647.325 188.114 647.325C190.114 647.325 192.381 646.391 193.314 645.325C195.314 642.925 198.114 642.791 199.181 644.925C199.581 645.858 199.581 632.791 199.181 615.991C198.114 566.125 198.114 563.058 199.981 552.258C201.581 543.458 201.581 540.391 199.981 530.925C198.114 520.525 197.714 491.725 199.181 480.658C199.847 476.258 199.714 476.125 198.647 479.991C198.114 482.125 196.914 488.925 196.114 495.058C195.314 501.058 194.114 507.058 193.314 508.391C191.714 510.925 192.247 503.325 195.447 477.991C197.714 459.458 197.847 452.391 195.714 450.258C194.914 449.458 194.514 448.391 194.914 447.991C195.314 447.591 196.914 449.191 198.647 451.591L201.581 455.991L200.647 450.658C200.114 447.725 199.714 444.258 199.847 442.925C199.847 440.658 199.581 440.658 195.581 442.925C193.314 444.258 190.514 445.991 189.581 446.925C188.647 447.858 183.581 449.858 178.381 451.325C173.181 452.925 164.514 455.991 159.047 458.125C153.581 460.391 148.247 461.991 147.047 461.725C143.181 460.925 157.847 454.391 170.514 451.325C177.314 449.591 183.714 447.325 184.781 446.391C185.714 445.458 187.047 444.658 187.581 444.791C190.381 445.325 190.647 444.391 188.781 441.725C187.581 440.125 186.647 438.125 186.647 437.325C186.647 436.658 187.314 436.925 187.981 437.991C188.647 439.058 189.314 439.458 189.314 438.791C189.314 437.991 190.114 438.658 191.181 440.125C193.047 442.525 193.181 442.525 194.114 438.658C194.647 436.391 195.581 433.858 196.381 432.925C197.314 431.725 197.181 430.658 195.981 429.591C194.781 428.391 194.514 428.391 195.181 429.591C195.581 430.391 195.447 431.458 194.781 431.858C193.581 432.658 191.981 425.325 191.981 418.258C191.981 415.991 191.447 413.991 190.647 413.991C189.981 413.991 189.314 414.525 189.314 415.191C189.314 416.525 174.114 428.658 172.381 428.658C171.714 428.658 168.914 430.258 166.114 432.125C161.314 435.458 160.514 433.858 165.314 430.391C166.514 429.591 171.981 422.925 177.314 415.725C182.781 408.525 188.914 400.658 191.047 398.125C194.914 393.591 197.847 387.458 196.781 386.391C196.381 385.991 194.647 388.791 192.781 392.525C190.781 396.258 189.047 399.325 188.647 399.325C188.381 399.325 189.847 394.125 192.114 387.725C195.847 376.391 197.447 361.991 194.781 361.991C194.114 361.991 193.181 364.391 192.647 367.325C191.581 373.858 183.181 393.858 178.247 401.591C174.647 407.325 171.981 409.591 174.647 404.791C176.381 401.325 176.381 400.258 174.381 401.458C173.314 402.125 173.181 401.591 173.847 399.858C174.914 397.058 174.781 397.058 166.781 407.058C163.581 410.925 160.781 413.858 160.514 413.591C160.114 413.325 162.647 409.058 165.847 404.125C169.181 399.325 172.247 393.058 172.781 390.391C173.314 387.725 175.181 381.858 176.914 377.458C184.114 359.058 193.447 321.858 193.181 312.258L193.047 306.658L191.447 313.991C185.981 338.525 171.047 374.258 162.114 383.991L157.314 389.325L160.514 380.391C162.381 375.458 164.514 367.591 165.314 363.058C167.447 351.725 172.647 337.991 182.781 317.058C186.781 308.791 190.781 291.858 190.514 284.258C190.381 281.591 189.714 283.591 188.647 289.325C186.247 302.258 184.247 309.591 180.781 317.325C179.047 320.925 177.047 325.458 176.247 327.325C174.914 330.258 174.781 330.391 174.781 327.858C174.647 326.391 175.581 321.991 176.781 317.991C177.981 313.991 178.514 309.058 178.114 306.791C177.581 304.525 177.181 301.458 177.181 300.125C177.181 298.658 176.114 295.725 174.914 293.591C172.381 289.325 153.447 269.991 151.714 269.991C151.181 269.991 150.647 269.325 150.647 268.658C150.647 266.791 152.781 266.925 154.914 269.058C159.314 273.325 172.514 280.925 176.514 281.591C181.714 282.391 187.181 279.991 185.714 277.591C185.181 276.658 184.647 272.125 184.647 267.325V258.658L179.314 257.458C169.447 255.458 136.914 244.525 129.181 240.791C124.114 238.391 121.181 237.591 120.781 238.525C120.381 239.458 119.047 238.791 117.581 236.925C114.647 233.725 112.647 233.191 111.314 235.325ZM144.381 260.925C147.447 263.591 149.581 266.125 149.047 266.658C148.647 267.191 144.247 264.258 139.447 260.125C134.514 255.991 129.981 252.658 129.314 252.658C128.514 252.658 127.981 251.991 127.981 251.325C127.981 249.325 137.581 255.058 144.381 260.925ZM121.714 261.325C121.447 264.125 120.247 267.725 118.781 269.191C117.447 270.791 115.314 273.858 114.247 276.125C111.981 280.525 105.314 286.258 99.0473 288.925C97.0473 289.858 94.7807 291.325 94.2473 292.258C93.714 293.191 92.3807 293.991 91.314 293.991C90.3807 293.991 88.2473 295.725 86.7807 297.858C83.4473 302.525 76.3807 307.991 71.9807 309.191C68.7807 310.125 68.914 309.991 72.6473 307.058C74.914 305.458 80.2473 300.658 84.6473 296.525C89.0473 292.258 96.514 285.725 101.314 281.725C109.447 274.925 115.581 266.125 117.714 258.125C119.047 253.058 121.981 255.591 121.714 261.325ZM147.447 278.525C158.247 292.791 161.314 295.725 168.514 298.658C174.781 301.325 174.647 303.325 168.114 303.325C163.981 303.325 162.114 302.391 158.247 298.525C155.714 295.858 152.381 291.458 151.047 288.925C148.247 283.325 138.381 269.858 135.314 267.325C134.114 266.391 132.514 264.391 131.714 262.925C128.247 256.391 137.847 265.991 147.447 278.525ZM123.847 281.591C123.847 287.325 123.181 294.125 122.514 296.658C120.514 303.458 112.514 313.991 109.314 313.991C105.447 313.991 104.914 311.591 107.847 307.858C109.447 305.858 110.647 303.725 110.647 303.058C110.647 302.391 113.047 297.991 115.847 293.191C119.047 287.858 121.447 281.991 121.981 277.991C122.514 274.258 123.047 271.325 123.314 271.325C123.581 271.325 123.847 275.991 123.847 281.591ZM169.314 333.325C169.314 334.391 168.514 335.325 167.447 335.325C164.781 335.325 163.581 333.058 165.581 332.258C168.514 331.058 169.314 331.325 169.314 333.325ZM158.514 345.991C150.381 360.258 137.314 368.925 122.381 369.725C103.847 370.791 101.447 366.791 118.514 363.191C130.381 360.525 151.447 350.125 157.314 344.125C161.714 339.325 161.981 339.858 158.514 345.991ZM78.2473 396.525C77.8473 398.525 78.514 399.325 81.1806 399.991C85.8473 401.191 89.314 404.525 89.314 407.725C89.314 409.725 88.914 409.991 87.5807 408.791C86.514 407.991 85.4473 407.591 85.1806 407.858C84.914 408.258 80.7807 407.991 75.9807 407.325C68.2473 406.391 67.0473 406.658 64.3807 409.058C61.714 411.458 61.314 411.458 61.314 409.591C61.314 406.391 66.114 401.991 70.7807 401.058C73.8473 400.525 74.514 399.725 73.9807 397.991C73.4473 396.391 73.9807 395.325 75.5807 394.925C76.914 394.525 78.2473 394.258 78.514 394.125C78.7807 394.125 78.6473 395.191 78.2473 396.525ZM124.647 407.591C123.447 409.991 120.381 414.391 117.847 417.325L113.181 422.658L118.647 412.658C121.714 407.191 124.514 401.458 125.047 399.991C125.847 397.458 125.981 397.458 126.381 400.258C126.647 401.858 125.847 405.191 124.647 407.591ZM171.447 405.725C169.047 407.858 169.047 407.858 170.647 404.925C171.447 403.191 172.514 402.125 173.047 402.525C173.447 403.058 172.781 404.391 171.447 405.725ZM66.6473 419.858C66.6473 422.925 61.0473 428.258 56.914 429.191C53.314 429.991 53.314 429.858 58.914 423.991C64.914 417.725 66.6473 416.791 66.6473 419.858ZM108.114 426.125C106.381 427.591 104.514 428.391 104.114 427.858C103.181 426.925 107.847 423.325 109.847 423.325C110.647 423.458 109.847 424.658 108.114 426.125ZM150.114 433.591C145.981 439.858 123.981 460.391 118.114 463.591C110.647 467.458 111.714 464.658 119.714 459.325C127.981 453.725 141.847 439.858 148.647 430.391C153.581 423.458 154.914 426.391 150.114 433.591ZM193.314 436.791C193.314 437.591 192.781 437.725 191.981 437.325C191.314 436.925 190.647 435.858 190.647 435.191C190.647 434.391 191.314 434.258 191.981 434.658C192.781 435.058 193.314 436.125 193.314 436.791ZM34.3806 440.925C37.8473 440.125 41.714 439.058 43.1806 438.525C45.314 437.725 45.4473 437.991 44.114 440.391C41.0473 446.125 27.714 447.458 20.514 442.658C15.4473 439.458 16.7806 437.991 22.6473 440.258C27.0473 441.991 29.1806 442.125 34.3806 440.925ZM163.047 447.991C162.647 449.191 161.981 449.858 161.714 449.458C161.314 449.058 161.447 448.258 161.981 447.458C163.181 445.325 163.981 445.725 163.047 447.991ZM111.981 451.325C110.514 453.991 107.847 454.791 106.247 453.058C104.781 451.725 107.981 448.658 110.914 448.658C113.047 448.658 113.181 449.058 111.981 451.325ZM143.181 461.725C141.314 464.525 134.647 465.591 134.647 463.058C134.647 460.525 141.714 456.525 143.314 458.125C144.114 458.925 144.114 460.258 143.181 461.725ZM101.981 464.658C101.581 465.325 100.247 465.991 99.1807 465.991C98.114 465.991 97.5807 465.325 97.9807 464.658C98.3807 463.858 99.714 463.325 100.781 463.325C101.847 463.325 102.381 463.858 101.981 464.658ZM146.647 470.525L152.647 472.525H147.314C144.381 472.525 139.847 471.591 137.314 470.658L132.647 468.925L136.647 468.791C138.914 468.791 143.314 469.591 146.647 470.525ZM188.914 479.591C188.514 480.658 188.114 480.258 188.114 478.791C187.981 477.325 188.381 476.525 188.781 477.058C189.181 477.458 189.314 478.658 188.914 479.591ZM187.447 491.858C186.247 504.658 179.981 519.325 175.847 519.325C174.247 519.325 175.181 515.858 179.314 506.658C183.047 498.525 186.647 487.858 186.647 485.325C186.647 484.258 187.047 483.325 187.447 483.325C187.981 483.325 187.981 487.191 187.447 491.858ZM192.647 561.325C189.581 585.725 187.181 595.858 181.581 607.325C177.047 616.391 176.647 616.925 176.247 613.325C175.981 611.058 177.447 604.258 179.314 597.991C187.581 570.525 192.247 550.391 192.647 539.325C193.314 524.525 193.714 523.191 194.247 534.658C194.514 539.725 193.847 551.725 192.647 561.325ZM74.6473 608.658C76.914 614.125 79.0473 621.591 79.4473 625.325L80.114 631.991L75.8473 621.325C71.0473 608.925 64.114 584.125 64.114 579.325C64.114 577.458 65.5807 581.058 67.314 587.325C69.0473 593.591 72.2473 603.191 74.6473 608.658ZM193.314 657.591C193.181 660.125 190.781 662.258 189.314 661.325C187.981 660.525 188.114 659.858 189.981 658.391C192.914 656.391 193.314 656.258 193.314 657.591ZM152.381 673.591C153.047 674.925 150.247 691.058 148.781 694.391C148.114 695.591 147.981 698.525 148.247 700.658C148.647 703.058 148.114 705.325 147.047 706.125C145.714 707.325 145.314 706.525 145.047 701.858C144.647 692.791 144.781 691.058 145.581 685.591C146.514 680.791 146.381 680.658 142.514 680.658C138.647 680.658 137.847 679.858 139.714 677.191C142.114 673.591 150.914 671.191 152.381 673.591ZM72.6473 675.325C73.0473 675.991 72.7807 676.658 72.114 676.658C71.314 676.658 70.6473 675.991 70.6473 675.325C70.6473 674.525 70.914 673.991 71.1806 673.991C71.5807 673.991 72.2473 674.525 72.6473 675.325ZM138.381 753.058C139.314 753.058 139.847 753.858 139.447 754.791C138.247 757.991 140.381 757.858 144.381 754.525C147.981 751.458 149.047 751.325 155.847 752.125C165.314 753.191 167.314 754.391 169.047 759.325C171.047 764.791 168.914 765.591 163.581 761.458C157.047 756.391 151.714 755.725 146.247 759.191C142.381 761.591 141.447 763.058 140.647 768.391C140.114 771.858 138.914 776.658 137.847 779.191C135.581 784.658 136.381 786.391 140.781 784.391C143.314 783.191 145.314 783.191 149.047 784.525C157.047 787.325 160.114 789.858 162.914 796.258C166.381 804.258 164.514 806.258 158.514 800.658C155.981 798.258 153.047 795.591 151.847 794.525C150.647 793.458 146.914 792.525 143.447 792.391C138.647 792.391 136.381 793.058 133.847 795.458C130.781 798.258 130.514 799.458 131.181 804.658C131.581 807.991 134.114 814.658 136.647 819.591C143.047 831.858 142.914 833.191 135.314 832.125C129.581 831.191 129.314 831.325 129.314 834.525C129.314 837.858 122.914 845.191 116.381 849.591C114.647 850.658 108.781 851.858 102.914 852.258C93.314 852.925 92.114 852.791 89.4473 850.125C83.5807 844.258 85.1806 843.325 103.047 843.325C114.114 843.191 119.981 842.658 121.581 841.591C127.047 837.325 124.647 826.791 118.914 829.858C115.181 831.858 113.047 828.925 112.247 820.658C111.714 815.191 112.114 813.858 113.981 813.191C116.381 812.258 118.647 814.525 118.647 818.258C118.647 821.191 121.181 827.858 121.981 827.058C122.381 826.658 121.847 822.525 120.781 817.858C117.447 803.058 117.047 789.191 119.181 772.258C121.981 751.591 122.381 750.791 130.381 751.991C133.847 752.525 137.447 753.058 138.381 753.058ZM139.181 850.658L141.447 854.658L138.781 851.458C137.181 849.725 135.981 847.725 135.981 846.925C135.981 845.325 135.981 845.458 139.181 850.658Z" fill="black"/>
<path d="M13.0468 349.323C8.38015 354.79 7.18015 357.99 6.11349 368.923C5.58015 373.856 4.91349 378.923 4.51349 379.99C2.78015 384.256 6.11349 381.59 9.98015 375.59C12.9135 370.923 14.2468 366.39 15.5802 357.456C16.5135 350.79 17.1802 345.456 16.9135 345.323C16.7802 345.19 15.0468 346.923 13.0468 349.323Z" fill="black"/>
<path d="M13.1789 378.258C12.2456 379.858 10.6456 382.658 9.57891 384.258C8.37891 386.258 8.24557 387.325 9.17891 387.325C10.7789 387.325 16.5122 376.791 15.5789 375.725C15.1789 375.325 14.1122 376.525 13.1789 378.258Z" fill="black"/>
</svg>
