<svg width="275" height="80" viewBox="0 0 275 80" fill="none" xmlns="http://www.w3.org/2000/svg"><path d="M61.9 64.3C60.4 63.7 58.9 62.7 57.4 62.7C48 62.3 38.6 62.1 28.8 62C23.1 61.9 17.8 62.8 13.2 58.9C11.7 57.7 8.5 58.7 5.9 58.7C7.3 52.5 -0.4 44.7 11.3 40.8C7.2 37.5 4.1 35.1 0 31.9C5.1 31.3 9.2 30.9 14.1 30.4C17.7 30.1 20.5 29.8 23.2 29.6C23.2 29.6 23.7 29.6 24.3 29.5C25.4 29.4 26 29.3 26.7 29.4C28.4 29.9 29.8 30.5 31.2 30.4C42.1 29.7 53.1 29 64 28C67.9 27.7 72.2 27.3 75.5 25.5C78.8 23.6 81.2 23.5 84.1 25.3C84.8 25.3 85.5 25.24 87 25.4C97.3 24.8 106.9 23.8 116.5 23.1C121 22.8 122.3 19.9 123.9 16.3C125.4 12.7 123 12.1 121.1 10.5C120.4 9.9 120.4 8.4 120.1 7.4C120.1 7.4 120.1 7.2 120.5 7.1C121.8 6.3 122.7 5.5 123.6 4.7C123.7 4.8 123.9 4.9 124.1 4.8C130.6 -0.8 133.7 -0.7 136.2 5.5C135.6 9.1 134.9 12.2 134.3 15.4C134.8 15.6 135.3 15.8 135.9 16C136.4 15.1 137 14.2 137.9 13.2C139.41 8.6 140.7 4.4 141.9 0.1C141.9 0.1 142 0.1 142.4 0.1C147.7 -0.5 151.4 1.3 153.5 4.5C152.6 7.6 151.9 9.9 151.2 12.5C151.2 13.2 151.2 13.6 151.32 14.2C152.9 15.2 154.5 15.8 156.4 16.4C157.5 16.3 158.3 16.2 159.4 16.1C160.9 16.1 162 16.1 163.1 16.1C163.5 16.1 164 16.1 165.1 16.4C168.7 16.5 171.7 16.8 174.59 16.3C175.9 16.1 177.9 14.4 177.9 13.3C178 11.6 177.2 9.3 175.9 8.2C174.3 6.8 171.9 6.4 169.8 5.5C169.8 5.5 169.9 5.4 169.7 5.2C169.2 4.9 168.9 4.8 168.6 4.6C168.6 4.6 168.7 4.6 168.6 4.3C168.2 1.2 168.7 -0.3 171.9 1.5C173.27 2.2 174.9 2.3 176.5 2.7C176.5 2.7 176.4 2.7 176.5 2.9C177.2 3.4 177.8 3.7 178.3 3.9C178.3 3.9 178.2 4 178.4 4.1C178.9 4.4 179.2 4.5 179.5 4.6C179.5 4.6 179.6 4.8 179.6 5C183 7.7 186.1 10.4 189.6 12.4C197.9 17.1 206.8 14 215.5 13.9C230.6 13.8 245.7 13.4 260.7 13.4C263.6 13.4 266.4 15.1 269.2 16.1C269.9 19.5 270.6 22.9 271.5 27.1C271.7 27.1 272.9 27.6 274.29 28.5C273.82 29.4 272.8 29.8 272.6 30.4C269.9 38.3 264 41.6 256 41.5C256 54.2 251.3 61.3 241.8 63.2C232 65.2 225.6 60.5 220 46.96C179.2 51.1 138.3 55.2 98.4 59.3C96.7 64.5 95.3 68.7 93.9 72.9C93.9 72.9 94 72.9 93.7 73C93.3 73.5 93.1 73.8 92.79 74.4C91.4 75.6 90.2 76.4 88.6 77.3C83.4 79.7 78.4 80.4 73.2 78.9C73.2 79 73.3 79 73.1 78.7C71.8 77.8 70.6 77.2 69.4 76.8C69.3 77 69.5 76.6 69.3 76.4C68.5 75.7 67.9 75.3 67.2 74.7C66.9 74.2 66.6 74 66.2 73.6C64.8 70.9 63.4 68.6 62.1 65.9C62.1 65.1 62 64.7 61.9 64.3Z" fill="#251F20"/></svg>