<svg width="866" height="1477" viewBox="0 0 866 1477" fill="none" xmlns="http://www.w3.org/2000/svg"><path d="M480.3 0.5C470.1 1.6 455.7 6.2 446.6 11.4C436.1 17.4 416.7 36.5 408.5 49C396.2 67.6 391.7 83.7 391.7 108.5C391.7 117 391 120.6 388.2 126.8C386.2 131.3 384.5 138.1 384.1 143.2C383.5 150.8 383.8 152.4 386.6 156.5C388.6 159.6 391.7 161.8 395.4 163.2C400.7 165 401.7 164.9 409.7 162.1C423.3 157.4 424.2 157.7 426.9 167.4C428.1 172.1 431.3 182.4 433.8 190.4C436.3 198.2 438.3 204.9 438.1 205.2C432.2 210.1 406.3 224.1 396.3 227.8C369.1 238 357.1 245.6 340.2 263.6C322.6 282.2 293.5 323.6 276.6 354C267.5 370.1 253.9 410.9 242.3 456.5C239.3 468.6 235.1 482.6 233.1 487.8C229.9 496.4 229.7 498.6 229.9 515.8C230.1 527.4 231.1 540.8 232.9 551.2C236.1 570.1 240.1 601.8 239.4 602.5C239.1 602.8 226.7 605.4 211.8 608.5C183.3 614.2 178.3 615.7 176.7 618.2C175.9 619.4 175 619 173.3 617C172.1 615.6 165.1 609.4 158.1 603.3C144.2 591.7 137.9 588.9 134.5 593C133 594.9 133.3 598.8 136.3 617.8C138.6 631.6 139.7 641 138.9 641.7C138.2 642.4 129.5 644.2 119.7 645.7C109.8 647.2 87.9 650.9 71 653.7C52.6 656.9 39.8 658.5 38.9 657.7C38.1 657.2 35.4 656.9 32.9 657.3C30.3 657.7 27.1 658.2 25.7 658.4C24.2 658.5 21.4 659.3 19.5 660.1C17.7 660.9 12.7 662 8.6 662.5C4.3 663 0.6 664 0.2 664.6C-0.6 666.1 1 678.2 2.3 680.4C3 681.7 4.6 681.7 9 680.5C12.2 679.7 17.9 678.9 21.9 678.8C25.8 678.6 29 678.2 29 677.7C29 677.3 30.5 677.2 32.3 677.6C34.5 678 35.7 677.6 35.7 676.4C35.7 675 36.1 675 37.3 676.2C38.6 677.6 39.4 677.4 41 675.4C42.6 673.4 51.7 671.4 89.4 665.3C114.9 661 136.5 658 137.4 658.2C138.6 658.8 138.6 659 137.4 659C135 659.2 135.3 663.8 137.7 666.2C138.7 667.4 140.9 668 142.3 667.6C143.8 667.2 145 667.6 145 668.4C145 669.3 146.3 669.6 148.7 669C153.7 667.8 153.5 668 153.1 661.2C152.9 654.6 152.2 655 165.9 652.8C172.6 651.6 172.9 651.7 175.7 655.4C177.1 657.6 179 658.9 179.5 658.6C180.2 658.2 181.8 659.2 183.1 660.6C185.1 662.9 186.6 663.3 191 662.5C213.1 658.9 246.7 653.8 248.2 653.8C249.1 653.8 250.6 655.2 251.3 656.9C253.3 661.2 269.4 672 278.7 675.2C283 676.6 289.9 678.2 294.1 678.6L301.8 679.4L305.9 674.4C308.1 671.4 313.7 663 318.5 655.4C323.7 646.9 327.9 641.6 329.7 641.2C336.2 639.6 407 628.9 407.5 629.3C407.8 629.6 406.2 631.8 403.9 634.4C388.2 652.4 383.1 666.8 379 706.6C377.5 720.6 376.1 728.4 374.3 732C369.8 740.8 370.6 744.1 379.8 753.3L387.8 761.4L384.6 770C379.5 783.2 366.5 811 361.5 819.2C355.4 829.3 354.3 835.4 355.7 853C357.3 874.2 360.9 888.5 366.3 896.5C368.5 899.4 368.9 904.2 369.4 933.2C370.1 968.9 371.1 976.2 381.4 1010.77L384.7 1021.83L378.1 1026.77C370.7 1032.37 361.1 1044.37 356.2 1054.23C351.9 1062.37 349.5 1080.5 351.9 1084.5C352.9 1085.97 357.5 1090.37 362.3 1094.1C367.1 1097.97 373.5 1103.03 376.7 1105.57C379.9 1108.1 383.7 1112.77 385.4 1116.37C389.7 1125.43 399.5 1134.37 412.1 1140.37C421.1 1144.77 423.7 1146.77 427.3 1152.1C433 1160.63 436.5 1169.03 439.7 1182.23C445.8 1207.57 460.2 1226.23 481.1 1236.23C487.3 1239.3 496.2 1242.37 501 1243.17C514.3 1245.57 515 1245.83 528.5 1255.83C539.4 1263.97 541 1265.7 541 1269.17C541.1 1275.43 543.3 1283.7 549.3 1299.43L554.6 1313.97L551.8 1328.23C548.3 1345.97 546.3 1372.1 546.3 1398.63C546.3 1422.37 548.1 1437.57 551.8 1445.3C557.7 1457.7 572.6 1470.1 587.1 1474.77L594.2 1476.9L603.3 1472.5C616.2 1466.23 632.3 1449.7 638.7 1436.37C645.1 1422.77 650.1 1406.5 652.6 1389.97C655.3 1373.03 653.8 1358.1 648.2 1345.7C644.7 1338.1 644.6 1336.77 644.5 1313.97C644.3 1300.77 644.6 1289.83 645 1289.43C645.4 1289.03 648.6 1289.43 652.2 1290.23C658.2 1291.57 658.9 1291.43 661.1 1288.77C667.5 1280.77 673.4 1258.23 673.5 1241.17C673.7 1226.63 671.9 1218.63 666.2 1207.03C657.8 1190.1 635.8 1178.63 616.2 1181.17L609 1181.97V1177.3C609 1171.97 609.5 1171.7 615.9 1174.37C623.7 1177.7 623.8 1177.17 622.3 1149.03C617.1 1049.03 614.1 1025.03 605.5 1014.77C602.1 1010.63 601.5 1005.43 604.1 1001.03C605 999.6 609.9 994.6 615 990.2C632.5 975.2 644.7 960.9 651 948.5C659.7 931.3 686.3 820.9 692.6 776L695 759.3L699 760.2C706.7 762 747.9 761.3 753.7 759.3C764.2 755.6 770.9 748.2 773.7 737.2C776.2 727 773.8 626.9 770.9 617.4C770.3 615.6 771.8 614.4 777.8 611.7L785.5 608.2L807.5 611.8C819.8 613.8 834.2 615.7 839.7 616.1C849.1 616.8 849.9 616.6 854.1 613.2C858.1 609.8 858.3 609 858.3 601.4C858.2 596.9 857.4 586.6 856.5 578.6L854.6 564.1L859.1 557.6C861.5 554 864.1 548.8 864.6 546.1C866.6 536.6 865.7 492.8 863 477.8C855.1 431.2 830.9 378.5 796.9 333.7C786.7 320.2 766.1 298.6 755 289.8C746.3 282.9 723.3 269.7 689.7 252.2L668.3 241.2L662.3 231.2C655 219.2 652.3 218 632.7 217.2C618.3 216.6 613.9 215 603 207C593.3 200 578.6 191.6 567 186.5C561.4 184.1 556.6 181.8 556.2 181.4C555.8 181 557.3 177.8 559.5 174.4C561.7 170.8 564.2 165.3 565.3 162.1C566.5 158 567.7 156.5 569.7 156.5C571.8 156.5 587.5 160.5 599.9 164.1C605 165.6 606.6 144.6 601.7 139.3C600.5 137.8 597.8 136.1 595.8 135.2L591.9 133.7L591.1 116.1C588.7 70.6 575.7 40.9 549 20.4C529.4 5.2 504.6 -2 480.3 0.5ZM711.3 449.8C712.2 467.7 714.3 473.2 726.9 489.8C735.7 501.4 736.2 504.9 730.1 510.8C719.8 520.5 703.3 532.5 700.2 532.5C697 532.5 697 532.4 697 520.1C697 499.3 703.1 434.8 705.9 425.2C707.4 420.1 710.5 434 711.3 449.8ZM389.8 484.4C386.6 489.7 382.9 497.7 381.7 502.4L379.4 510.8L384.9 528.8C387.9 538.6 392.2 552 394.3 558.5C396.5 565 398.1 570.5 397.8 570.8C397.1 571.4 357.9 579.3 357.5 578.9C357.4 578.6 358.3 574.2 359.7 569.2C362.6 558.4 362.9 548.5 360.6 541.8C359.1 537.6 359.3 536.6 363.3 530.8C365.5 527.2 369 519 371 512.8C372.9 506.4 375.8 498.5 377.4 495.2C380.2 489.6 394.1 473.2 395.3 474.2C395.5 474.5 393.1 479.2 389.8 484.4ZM159.8 612.1C171.8 621.7 171.8 624.4 160.3 626.8C147.8 629.3 145.1 629 143.7 625C141.8 620.1 142.1 616.5 144.3 616.5C145.8 616.5 146.3 615 146.3 611.4C146.3 602.2 147.8 602.4 159.8 612.1ZM168.3 635.2C168.7 635.8 168.1 636.5 166.7 636.6C165.4 636.6 161.4 637.2 157.9 637.7C153.5 638.5 151.7 638.4 152.1 637.3C152.9 634.8 167 632.9 168.3 635.2Z" fill="black"/></svg>