<svg width="736" height="538" viewBox="0 0 736 538" fill="none" xmlns="http://www.w3.org/2000/svg"><path d="M5e-06 384.6C10.3 375.9 19.9 366.7 31 359.9C38.8 355.2 40.7 349.42 41.4 341.4C42.7 324.4 49.6 309.8 63.5 299.4C69.2 295 75.9 293.87 83 298C89.3 301.7 96.3 304.1 102.7 307.6C107.6 310.2 112 313.8 116.8 316.67C118.2 317.5 120.4 318.3 121.8 317.8C130.5 314.7 139.3 311.8 147.57 307.7C151.68 305.7 154.52 301.2 158.2 298.13C161.5 295.33 165.2 292.9 168.8 290.4C170.5 289.1 172.3 288 173.9 286.6C179.1 281.8 184.3 277.4 191.82 276.6C196.4 276.2 198.38 272.7 198.8 268.17C200.8 246 202.4 223.8 205.1 201.7C207.2 184.3 211.5 167.3 219.1 151.4C222.71 143.7 222.9 136.9 217.1 130.2C211.4 123.5 205.7 116.8 198.06 112.1C189.3 106.8 179.5 104.9 169.7 103.38C163.1 102.4 156.4 102.31 149.8 101.9C135.5 101 130.2 94.6 130.7 80.2C131.2 65.7 135.5 52.8 144.8 41.6C151.6 33.4 161.5 32.4 169.2 39.7C173.6 43.9 177.61 48.7 180.9 53.8C188.7 66.1 195.9 78.8 207.9 87.5C215.2 92.8 223.1 97.6 231.1 101.9C236.2 104.5 242.9 101.2 244.9 95.7C248.6 86.1 251.94 76.4 255.7 66.8C258 60.8 260.1 54.6 263.6 49.2C268.7 41.5 277.3 38 285.4 34.2C290.3 31.9 295.7 30.2 300.1 27.2C319.2 14.1 340.1 4.6 362.9 1.4C387.5 -2.1 411.7 0.8 434.4 12.3C449.6 20 464 28.7 476.6 40.4C480.8 44.3 487.6 45.3 493.2 47.6C494.2 48.1 495.6 48.2 496.3 49C504.9 58 513.7 66.8 516.9 79.4C519.5 89.4 521.59 99.4 523.9 109.5C524.2 110.6 524.4 111.8 524.8 112.86C526.4 117.9 529.2 119.8 533.7 117.2C542.8 112.1 551.7 106.6 560.1 100.4C571.4 92 577.8 79.4 585.9 68.2C588.8 64.2 592.2 60.4 596 57.3C602.4 52.1 611 53.3 616.5 59.5C627.5 71.8 631.5 86.8 632.1 102.7C632.4 112 626.9 117.8 617.8 118.9C607 120.2 596.3 121.1 585.5 122.2C567.4 123.9 554 134.18 542.8 147.4C539.2 151.7 537.9 157.4 540.6 163.8C550 185.3 552.5 208.3 553 231.5C553.4 243.8 552.5 256.1 551.89 268.4C551.7 272.4 553 274.4 556.6 276C567.9 280.8 579.2 285.8 590.2 291.1C597.9 294.8 605.4 299.1 612.9 303.4C617.2 305.9 620.7 305.4 623.3 301.4C624.3 299.9 625.8 298.8 627.2 297.6C628 296.8 629.5 296.5 630 295.6C633.2 288.8 639.86 286.3 645.4 282.3C650.5 278.5 655.9 274.05 662.06 276.6C669.3 279.5 673.3 286.1 674.9 293.91C675.8 298 677.3 302 678.21 306.2C679.4 311.3 679.8 316.7 681.28 321.7C681.8 323.7 684 326.2 685.9 326.7C703.7 331.2 719.8 339.4 735.68 349C736 411.8 736 474.4 736 537C490.7 537 245.3 537 0 537C0 486.34 6.8e-09 435.7 5e-06 384.6Z" fill="#A2A24A"/></svg>