<svg width="403" height="403" viewBox="0 0 403 403" fill="none" xmlns="http://www.w3.org/2000/svg"><path d="M162.5 374.2H330.7C343.5 374.2 368.7 364.7 369.8 351.8L391 175.9C392.7 160.8 381 147.4 365.9 147.4H272C283.8 101 278.2 60.2 271.5 34.5C267.6 18.9 252.5 8.8 236.3 11.6H235.7C221.8 13.9 211.7 25.6 210.6 39.6C203.9 134 123.4 179.8 123.4 179.8V354.6H124.6L162.5 374.2Z" stroke="white" stroke-width="22.3" stroke-miterlimit="10" stroke-linecap="round" stroke-linejoin="round"/><path d="M11.2 145.1H123.4V391.5H11.2V145.1Z" stroke="white" stroke-width="22.3" stroke-miterlimit="10" stroke-linecap="round" stroke-linejoin="round"/><path d="M67.6 340.6C76.8 340.6 84.3 333.1 84.3 323.9C84.3 314.6 76.8 307.1 67.6 307.1C58.3 307.1 50.8 314.6 50.8 323.9C50.8 333.1 58.3 340.6 67.6 340.6Z" fill="white"/></svg>