<svg width="119" height="302" viewBox="0 0 119 302" fill="none" xmlns="http://www.w3.org/2000/svg"><path d="M1.7 301.6C0.8 281.9 0.4 262.3 0 242.6C-0.2 230.3 2.9 219 10 208.7C13.7 203.3 17 197.35 19.3 191.2C25.1 175.1 25.3 158.2 24.5 141.3C24.3 137.9 22.2 134.5 20.7 131.2C19 127.6 17 124.16 15.4 120.5C11.3 110.92 13.5 102.3 19.8 94.4C28.9 82.8 29.1 77.9 21.5 65.1C11.1 47.6 6.3 29 10.5 8.6C11.3 4.9 12.3 0.2 16.7 0C21.7 -0.2 23.1 4.5 24.3 8.6C27.6 20.7 31 32.7 34.5 44.7C35.2 46.9 36.6 49 37.1 50.1C41.8 47.8 45.5 45.1 49.6 44.1C55.5 42.8 58.3 46.1 57.6 52C57.2 54.9 57 57.8 57.8 61.2C58.9 59.9 60.1 58.7 60.9 57.2C68.2 45.3 75.5 33.3 82.8 21.4C84.5 18.6 86.2 15.5 88.6 13.3C90.1 11.8 93.1 10.7 95.1 11.2C96.5 11.5 98.1 14.8 98 16.7C96.7 37 92 55.8 75.1 69.5C73.4 70.9 72.9 73.8 72 76.1C71.7 76.8 72.2 77.9 71.9 78.5C68 86.4 71.9 91.8 76.8 97.6C86.2 108.9 86.2 114.8 78.2 127.3C77.7 128.2 77.2 129.1 76.6 129.9C67.4 141 65 153.3 66.9 167.68C68.3 178.8 71.5 188.4 78.1 197.4C85 206.6 87.8 217.63 87.8 228.9C87.9 239.5 89.3 249.5 94.3 258.9C94.9 260 95.3 261.3 95.6 262.61C97.6 269.5 99.7 275.3 107.4 279C115.4 282.9 118 291.9 118.46 301.2C107.3 301.7 96.2 301.9 85 301.9C57.4 301.88 29.8 301.8 1.7 301.6Z" fill="#CBDC55"/></svg>