<svg width="196" height="383" viewBox="0 0 196 383" fill="none" xmlns="http://www.w3.org/2000/svg"><path d="M38.5 278.2C40.2 273 42.4 268.21 40.6 262.5C43.33 259.2 45.2 260.8 46.9 263.3C50.1 268 51.9 268 56 263.8C58.6 261.2 61.9 259.6 65.3 258.4C68.1 257.5 70.3 259 70.6 262.1C70.9 264 71.5 266.4 70.7 268C68.5 272.3 71.1 275.7 72.1 279.3C73 282.6 75.9 283.3 78.6 281.6C82.3 279.3 85.22 278.4 89 281.8C91.5 284 96.7 280 95.4 276C93.2 268.9 99.1 266.3 101.9 262.1C104.1 258.8 110.7 260.8 111.9 264.7C112.6 267.2 113.5 269.5 115.7 270.91C117.9 272.3 117.7 274.5 118 276.7C118.22 279.1 119 281.4 121.9 281.7C124.8 281.9 126.2 279.9 126.6 277.4C127.3 273.6 129 270.8 132.1 268.3C135 266 134.7 261.6 136.65 258.5C137.9 256.5 138.9 254.3 142.2 255C145.3 260.4 149 265.3 149 271.8C145.8 274.2 144.4 276.9 147.3 279.9C150.2 283 156.9 283.3 158.5 280.6C159.6 278.8 160.53 278.4 161.9 279.8C164 282 166.3 281.8 168.8 280.9C169.7 280.5 170.8 280.4 171.7 280.5C173.6 280.8 175.3 281.7 175.3 283.96C175.4 286.1 173.8 286.8 172 286.9C169.2 287.1 166.43 287.7 162.8 286.8C165.8 292.1 168.9 296.4 172.8 300C174.8 301.86 176.5 303.8 177.6 306.7C179.3 310.2 177.6 312.1 175 313.3C172.4 314.6 170.3 313.8 168.5 311.5C164.9 306.9 164.8 307 161.1 310.9C160.3 311.81 159.3 312.5 158.2 312.8C155.2 313.5 153.5 315.5 152 318.1C149.1 323.1 144.8 324.42 139.5 321.9C137.4 320.9 135.33 319.88 133.1 319.08C129.4 317.7 127.39 318.5 127.1 322.7C126.9 325.1 126.3 327.6 123.2 327.5C119.8 327.4 116.6 326.4 114.69 323.3C113.6 321.5 114.77 319.9 116.1 318.9C111.2 323.1 109.3 322.8 104.9 317.3C103.43 315.3 102.1 312.2 98.4 315.3C94.2 316 90.2 315.8 86.1 317.6C85 317.5 84.2 317.5 83.1 317.4C79.5 313.7 73.6 313.5 71.6 308.4C72.7 311.2 71.8 313.6 68.8 313.2C65.7 312.7 62.3 311.6 60.1 308.9C58.8 307.4 58.6 305.6 59.7 303.8C60.4 302.7 61.3 301.7 62.2 300.7C63.9 298.6 63.3 296.3 62.4 294.1C61.5 292.1 59.5 292.5 57.8 292.6C54.2 292.7 50.7 293.3 48.8 297.1C48.2 298.3 47.1 299.2 45.6 299C43.8 298.7 43 297.27 42.8 295.8C42.3 292.6 42.2 289.4 45.7 288.4C41.6 291 40.8 294.2 44.2 298.3C46.3 300.83 47.1 303.9 48.4 306.7C49.2 308.4 48.8 310.3 47.2 311.7C45.7 312.98 43.9 313.2 42.2 312C40.4 310.8 38.2 310.2 36.7 308.7C35 307 33.8 306.7 32.5 309.11C31.6 310.8 29.9 311.7 27.9 311.3C25.5 310.9 24.7 308.95 24.3 307C24 305.2 23.5 303.37 24.5 301.3C28.8 295.6 32.9 290.1 35.5 283.3C37.6 282.1 38.6 280.6 38.5 278.2Z" fill="#1a0300"/><path d="M97.7 314.3C100 310.4 102.5 310.1 104.9 313.1C105.2 313.5 105.4 314 105.64 314.4C107 316.6 107.5 319.9 110.9 319.63C114.4 319.3 115.1 316.3 115.7 313.5C116.04 312.2 116.5 310.2 118.1 311C120.2 312.1 121.2 314.4 120.7 316.9C120.6 317.8 119.5 318.4 118.95 319.2C118.07 320.5 115.5 321.1 117.1 323.2C118.2 324.8 120.3 325.73 122.3 325.6C124.9 325.4 124.6 323.1 124.7 321.3C124.7 319.1 125.2 317.1 126.6 315.3C127.48 314.1 128.8 313 129.9 314.2C132.7 317.2 136.9 316.9 140.1 319.2C144.8 322.5 149.5 320.4 150.7 314.7C151.1 312.6 151.8 311.2 154 311.1C157.3 311.01 159 309.4 160.4 306.5C162.4 302.2 164.9 302.2 167.7 306C168.1 306.5 168.5 307.1 168.9 307.6C172.6 312.9 173.2 312.9 177.5 307.3C182.8 309.6 184.4 314.7 185.4 319.64C186.6 325.2 188.6 330.5 191.8 335.1C193.5 337.6 193.8 340.3 193.7 343.6C192.8 344.8 192.16 345.8 191.4 347.1C187.88 348.9 184.4 349.5 180.7 349C181.9 349.7 183.3 349.8 184.6 351C186.1 354 185.9 356.7 184.2 359.1C182.1 361.9 181.27 365.2 179.9 368.7C177.4 369.75 176.6 371 177.8 373.4C180.7 379.2 180.5 379.5 174 382.9C172.5 383 171.3 383 170 382.2C167.4 381.7 165.1 381.34 162.8 381.2C159.2 380.9 157.3 379.5 158.2 375.5C158.8 373.1 156.5 371.7 155.8 369.4C155.3 368.4 155.1 367.67 155.5 367.2C158.3 363.8 157.83 360.3 156 356.7C155.7 356 155.8 355.1 156.1 354C156.7 352.9 157.4 352.2 157.8 350.9C158.6 349.4 161.2 348.9 159 346.8C157.8 346.4 157 346.1 155.7 346C153.3 345.6 151.1 344.31 149.06 347C146.4 347.8 145.3 346.1 143.9 344.8C141.69 342.8 140.7 339.2 136.6 339.1C133.7 338.8 131.7 337.4 129.67 335.9C125.5 332.9 120.5 331.63 115.9 329.6C108.9 326.5 101.8 322.1 97.7 314.3Z" fill="#1a0300"/><path d="M24.5 301.2C25.4 302.7 26.3 304.2 26.1 306.2C26 307.6 26.7 308.9 28.2 309.2C30 309.5 30.4 307.9 30.7 306.6C31.1 304.6 31.5 302.6 34 302.3C36.6 302 37.3 304.02 38.1 305.9C38.3 306.4 38.6 306.9 38.9 307.1C41.1 308.1 43.1 311.3 45.3 310.1C48.2 308.4 44.9 306.1 44.5 304C43.9 300.5 42.8 297.41 38.1 298.6C37 298.8 35.8 298.1 35.4 296.8C35 295.4 36.14 294.9 37.2 294.2C40.9 291.8 43.5 288.5 44 283.9C44.3 281.2 45.8 280.7 47.7 282C49.5 283.22 51.6 284.7 51.8 286.8C51.9 289.4 49.2 289.5 47.4 290C45.2 290.7 44.7 292.3 44.8 294.24C44.8 295.2 44.6 296.4 45.8 296.8C47 297.2 47.2 295.9 47.9 295.2C50 293.1 51.9 290.2 54.4 289.4C57.5 288.3 60.5 291.1 63.3 292.5C65.4 293.6 66 295.9 65.3 298.2C65 299.3 64.5 300.4 63.9 301.4C60.7 306.73 62.1 309.7 68.5 311C69.2 311.1 69.9 311.2 70.1 310.4C70.2 309.8 69.9 309.1 69.6 308.6C68.9 307.3 67.4 307.26 66.3 306.6C64.8 305.7 64.7 304.5 65.8 303.2C66.6 302.2 68.2 301.9 68.8 303C71.5 307.8 76.2 309.9 80.5 312.6C81.4 313.1 81.9 314.4 82.6 315.69C83 316.4 83.3 316.8 83.4 317.6C82.1 320 78.4 320 78.7 323.7C75.9 328.9 70.9 331.1 66.6 334.06C62.2 337 57.2 338.9 53.7 343.2C53.1 344 52 344.1 50.6 344.2C47 343.1 44.8 343.5 43.2 347.2C42.2 349.7 39.8 351.7 37 353.2C30.7 353 29.2 351.4 30 345.9C30.5 342.5 30.5 339.7 25.7 340.6C24.9 340.8 23.9 340.6 23.4 340C20.13 336.3 16.6 336.4 12.1 337.9C8.4 339.2 6.1 337.3 5 333.2C3.6 328.03 4.5 323.1 7.4 318.3C9.1 312.4 14.4 310.7 18.4 307.2C21 306.3 22.2 304.5 23.5 302.2C23.9 301.7 24.1 301.5 24.5 301.2Z" fill="#1a0300"/><path d="M7.4 318C7.1 321.6 6.3 325.2 6 328.8C5.5 334.5 8.7 336.7 14 334.6C19.4 332.4 22.5 333.5 25.2 338.7C26.8 336.4 28.9 335.1 31.4 336.9C33.7 338.6 33.7 341.1 33 343.7C32.3 347 30.5 350.8 36.3 352C38.7 351.8 40.7 351.8 42.7 353.5C43.7 354.9 43.7 356.1 43.5 357.7C43.2 358.7 43.1 359.3 42.7 360.2C41.6 361.5 40.5 361.92 38.9 361.9C37 361.5 36.5 360.2 35.3 359.3C34.5 360.2 34.9 361 34.8 362.1C29.8 367.3 23.7 367.74 17.4 367C15.9 366.8 14.9 366.5 13.9 368.28C13.5 368.8 13.3 368.9 12.8 369.3C11.5 370 10.4 370.1 9 370.1C7.4 369.5 6.2 368.7 4.6 368.2C-0.4 363.3 -0.4 357.82 1.1 351.65C-0.5 348.9 0.3 346.27 0.1 343.4C0 342.72 0 342.5 0 341.82C0.4 339.9 1.4 338.7 1.5 336.7C3.6 333 1.2 329 3.4 325.3C3.7 324.6 3.7 324.1 3.7 323.4C2.3 321 3.1 319.49 5.3 318.2C6.1 318 6.6 318 7.4 318Z" fill="#1a0300"/><path d="M137.9 221.8C132.4 226.5 135.7 231.5 138.2 234.85C143.2 241.3 143 248 141.7 255.6C138.6 258 137.7 261.4 137.05 264.5C136.4 267.5 135.5 269.9 132.75 271.3C129.4 273.1 129.2 276.6 129 279.6C128.6 284.2 125.7 284.7 122.1 284.8C118.5 285 115.7 282.9 115.9 279.8C116.4 273.2 109.8 270.5 108.8 264.6C108.4 262.19 104.6 262.31 102.9 265C101.9 266.8 100.8 268.4 99 269.4C98.1 269.9 97.1 270.7 97.5 271.7C98.9 275.4 99.8 278.8 96.5 282.2C95.8 282.93 97.8 285.7 94.9 285.9C92.5 286 89.6 286.9 88 284.4C85.9 281.3 84 281.5 80.9 283C76.1 285.4 72.4 283.8 69.8 279C69.1 277.5 68.1 276.2 67.1 274.8C65.9 273.2 65.4 271.38 66.9 269.8C69.1 267.5 67.7 264.7 68.2 262.2C68.4 261 67.2 260.1 66.3 260.6C63.3 262.6 58.7 262.6 58.2 267.5C58.1 268.1 47.2 272.2 46.7 271.7C45.7 270.69 45.8 269.29 45.7 268C45.4 265.2 44.7 262.6 41 262.1C38.2 260 37.4 257.8 38.9 254.6C40.4 251.5 39.3 247.7 41.4 244.3C42.7 243.1 43.4 242.1 42.8 240.3C43.2 237.2 44.9 234.9 46.4 232.2C46 227.5 45.1 223 45.2 218.5C45.4 214.2 44.9 210 43.6 205.8C42.4 202.5 42.3 199 43 195.17C43.1 191.4 41.8 188.8 39.5 186.3C35.6 182.02 34.2 177.4 37.7 171.8C40.8 166.7 38.1 161.1 37.8 155.7C37.5 151 35.3 146.9 32.2 143.2C25.5 135.1 19.8 126.3 15.1 116.8C14.4 115.4 13.6 114.3 12.2 113C9.7 106.5 7.4 100.3 4.6 94C4.1 93.2 3.8 92.8 3.3 92.1C2.9 91.3 2.8 90.7 2.9 89.8C3.4 78.2 6.4 67.4 9.4 56.6C10.8 51.3 11.9 46 13.2 40.3C13.6 38.8 13.9 37.8 14.7 36.5C15.1 35.9 15.3 35.7 15.8 35.3C20.6 30.4 20.3 24.6 20.1 18.9C19.8 12.3 22.2 6.9 28.4 3.3C30.1 2.3 31.5 1.7 33.2 0.8C36.1 0 38.6 -0.9 40.7 2C42.7 4.9 42.4 7.5 40.5 10.3C39.4 11.9 38.3 13.6 37.6 15.5C36.1 19.7 37.3 22.5 41.5 23.5C44.4 24.1 47.3 24.6 47.5 28.3C47.6 30.3 42.8 35.1 40.2 35.6C39.2 35.8 38.1 35.5 36.7 36.2C36.3 36.7 36.2 36.9 35.8 37.4C35.6 38 35.5 38.2 35.3 38.8C33.9 41.8 33.4 44.5 33.1 47.3C31.8 59.5 30.7 71.6 29.3 83.8C29.1 85.9 28.4 88.6 32.1 89.6C32.7 89.9 32.9 90.1 33.4 90.5C33.8 91 34 91.2 34.6 92C35.5 93.9 35.6 95.3 36.7 96.2C41.7 100.6 44.3 106.5 47.3 112.2C48.1 113.8 49.5 114.7 50.8 115.7C53.8 118.1 57 120 60.1 122.3C66.8 127.4 75.9 125.1 78.3 115.3C78.7 113.8 79.2 112.4 79.7 110.6C79.8 110.1 79.8 109.8 79.8 109.3C80.1 108 80.5 107.2 80.9 106C81.2 105.4 81.3 105.2 81.6 104.7C82 104.2 82.2 104.1 82.6 103.6C83.1 103.2 83.3 103.1 83.8 102.8C85.2 102.4 86.2 102.1 87 100.8C87.3 100.4 87.5 100.2 87.8 99.8C88.6 99.1 89.1 98.71 89.7 97.9C90.1 97.5 90.3 97.3 90.7 96.9C92 96.2 93 95.7 94.1 94.6C95.5 93.9 96.9 93.6 97.8 94.27C104.1 99.2 112.6 101.5 116.2 109.6C118.2 114.13 122 117.3 125 121C126.6 123.1 128.9 123.5 131.2 122.11C137.1 118.6 142.94 115.2 146.3 108.7C149.6 102.3 154.8 97.4 160.2 92.7C162 91.1 163.9 89.8 166.8 90.1C172.5 84.6 172.4 77.3 173.5 70.5C174.1 67.3 173.6 63.9 174.57 60.3C172.7 56.5 173.7 52.6 173.7 49.2C173.8 43.6 173.69 38.1 172.7 32.2C172.7 29.9 172.3 28 174.4 26.3C174.8 26 174.7 26 174.7 26C174.8 25.9 174.9 25.8 175.17 25.5C180.51 24.1 181.3 19.2 183 15.5C184.9 11.2 183.7 7.3 179.3 4.9C178.5 4.4 178.1 3.7 178.43 2.8C178.9 1.5 180 1.2 181.2 1C184.9 0.5 192.4 4.6 193.3 8.4C194.8 14.7 197.8 21.2 192.3 27.3C191.2 28.5 190.8 30.3 190.84 32C191 42.1 189.9 52.3 191.78 62.8C192.2 63.6 192.5 63.9 193.1 64.5C194 66.3 193.4 67.5 192.5 69.1C192.25 69.6 192.1 69.8 191.8 70.3C191 71.7 190.9 72.8 192 74C194 81.8 193.8 89.1 190.6 96.3C189.3 99.5 187.2 102.3 185.9 105.92C181.1 110.9 180.1 117.6 175.6 122.7C173.4 124.4 171.7 126 171.1 128.5C170.1 132.1 166.1 133.6 164.7 137.45C160.3 141.6 157 146.2 153 150.2C151.19 152.1 151 154.5 150.78 156.7C150.3 162.1 147.2 167.6 150.4 173.5C150.8 176.57 152.7 178.6 153.2 181.2C153.9 184.8 151.4 187.4 151 191C146.7 194.3 145.2 198.4 145.1 203.4C144.9 210.2 141.8 216.11 137.9 221.8Z" fill="#1a0300"/></svg>