<svg width="452" height="434" viewBox="0 0 452 434" fill="none" xmlns="http://www.w3.org/2000/svg"><path d="M3 15.5C2 13.5 0.6 12 2.2 9.9C3.7 8 5.2 8.2 7.3 9.2C9 9.9 10.5 9.5 12.1 10.2C16.3 13 19.6 16.1 21.8 19.1C19.6 16.4 16.6 13.4 13.5 9.9C13.1 9.5 12.9 9.3 12.6 8.9C12.3 7.9 12.4 7.2 12.1 6.2C11.6 3.7 11.1 1.3 13.8 0.3C16.9 -0.8 18.9 1.4 20.6 3.3C27.3 10.6 34.8 17.3 40.7 25.3C42.5 27.8 45 29.3 48.4 30.4C48.4 26.3 47.9 22.6 46.8 19.1C45.8 16 45.6 12.8 46.3 9.7C46.9 7.4 48.5 6 51 6.1C53.5 6.3 53.3 8.3 53.9 10.1C55.6 15.2 57.5 20.3 59.6 25.3C63 33.7 62.6 42.33 61.1 50.9C60.6 53.9 60.6 56.3 61.8 59C67.4 71.1 74.4 82.4 82.4 93.1C87.2 99.4 92.5 105.5 97.7 111.9C99.3 112.51 100.1 113.4 100.7 115C106.6 123.8 109.1 133.7 113.8 143.2C114.9 143.7 115.2 144 115.7 144.6C116.4 146.2 117 147.4 117.6 148.99C129.7 165.4 143.7 178.8 162.7 186.2C166.7 187.7 170 190.6 172.3 193.9C177.7 201.5 185.7 203.8 193.9 206.1C195.5 206.5 197.2 206.6 198.7 207.3C201.8 208.6 202.8 207.7 202.9 204.45C203 196.8 208.8 192 212.5 186.2C213.1 185.3 213.9 184.4 214.73 183.1C219.2 175.8 223.5 168.8 232.3 166.2C232.9 166.5 233 166.7 233.4 167.1C234.3 170.2 231.5 171.8 231.4 174.4C233.5 168.3 235.9 166.8 241.6 168.3C243.2 168.7 244.8 169 246.5 168.9C248.2 168.8 250 168.9 250.5 171C250.9 173.05 249.4 173.9 247.7 174.4C246.9 174.6 246.18 175.1 245.4 175.4C247.4 174.3 249.5 173.7 251.5 172.5C256.9 169.3 262.6 171.7 264.9 178.1C264.8 178.7 264.7 178.9 264.4 179.4C263.8 180.51 262.1 180.6 262.4 180.8C266.9 184.2 264.25 189.73 266.45 194.1C266.3 195 266.2 195.6 266.2 196.6C266.2 197.08 266.2 197.3 266.2 197.8C266.11 198.4 266 198.6 265.8 199.1C264.3 203.6 263.3 208 259.8 211.2C258.3 212.5 259.1 214.1 260 215.7C261.5 218.1 264 220.3 263.1 224C262.9 224.3 262.9 224.3 262.9 224.2C262.8 224.3 262.6 224.4 262.1 224.7C259.95 225.3 258.5 226.6 257.5 228C255.7 230.8 253.5 232.51 250.01 232.9C248.4 233.1 246.43 233.84 246 236.1C245.6 238.5 247.4 239.29 248.8 240.4C255.5 245.4 261.6 251 267.3 257.1C268.2 258 269 259 270.5 259.3C279.8 260.63 286.5 266.2 292.6 272.8C296.1 276.6 299.7 279.9 305.7 279.7C310.3 279.6 314.1 283.7 319.5 283.1C320 282.8 320.2 282.7 320.6 282.7C333.9 277.9 346.5 278.9 359.1 284.42C365.3 287.1 372.2 286.3 378.9 286.2C380.55 286.2 381.9 285.6 382.6 284.2C387 275.9 394.94 272.1 402.7 268.4C408.1 265.8 413.4 263.3 417.82 259.1C419.7 257.3 422.7 254.1 425.5 257.5C428.3 260.8 425.9 264.2 423.4 266.6C419.98 270 415.5 271.9 412 275.4C409.33 278 409.7 279.4 412.2 281.2C415.9 284 420.2 285.2 424.8 285.3C430.8 285.4 436.8 285.3 442.8 285.5C445.3 285.6 448.8 285.5 448.8 289.2C448.8 292.5 445.8 293 443 293.4C437.2 294.2 431.5 295.2 425.6 295.3C425.9 298.4 428.2 298.1 430.1 298.2C435.2 298.6 440.4 298.8 445.5 299.2C447.8 299.4 451.2 298.6 451.4 302.1C451.7 305.3 449 306.6 446.2 307C445.3 307.14 444.5 307.2 443.3 307.3C438.5 309.8 434.2 306.3 430.3 307.2C433.7 307.01 437.5 308.14 441.5 308.99C441.9 309.9 442.2 310.5 442.6 311.5C442.8 311.9 442.5 312.2 442.7 312.4C442.5 313 442.3 313.4 441.8 314.2C438.2 317 434.4 316.9 430.6 316.5C427.7 316.2 424.8 315.6 422.4 314.9C424 315.31 426.1 315.8 428.3 316.2C430.3 316.5 431.2 317.6 430.4 319.9C427.8 323.91 424 323.4 420.4 323.4C414.7 323.3 409.9 320.3 404.3 319.14C403.7 319.4 403.5 319.5 403.16 319.41C395.4 319.1 388.7 316.5 382.5 312.3C381 311.3 379.5 310.3 377.5 311.25C369.6 314.9 361.2 315.4 352.31 316.4C342.22 318.7 332.5 319.9 322.3 317C321.8 316.68 321.6 316.6 321.1 316.38C318.6 316.4 316.7 315.1 314.2 314.5C313.4 314.3 313 314.2 312.2 314.21C305.3 316.6 299.5 313.1 294 311C290.1 309.6 285.2 310.3 282.2 306C281.9 305.4 281.6 305.3 281.2 305.2C277 304 272.8 303.6 269.7 300C268 298 264.8 298.8 261.9 299.8C261.6 299.9 261.6 300.1 261.7 300C261.7 300.3 261.5 300.6 261 301C260.8 301.1 260.8 300.9 260.7 300.89C259.8 302.8 258.2 303.5 255.99 304C252.7 304.9 251.5 307.6 249.8 309.8C247.3 313 244.6 316.1 241.2 318.9C246.5 332.5 240.04 348.8 226.3 356.5C225 357.3 223.6 357.9 222 358.8C221.1 359.1 220.6 359.3 219.7 359.5C219.1 359.69 218.8 359.77 218.2 360C217.6 360.3 217.4 360.4 216.8 360.57C212.5 361.2 208.7 361.5 204.4 361.7C203.8 361.7 203.5 361.77 202.8 361.9C199.2 362.5 195.9 362.7 192.4 361.1C191.46 361 190.9 361 190 361C186.2 361.7 183 360.7 179.4 359.7C164.5 357.2 154.2 349.3 149 335.4C147.4 331 145.2 326.9 143.3 322.7C140 314.7 138.5 306.6 142.9 298.01C144.62 293.5 143.9 289.09 143.8 284.8C143.2 272.2 144.3 259.9 149.4 248.2C150.8 245 150.4 241.66 149.6 238.4C148.3 233.5 146.6 228.6 145.3 223.6C144.2 219.7 142 216.8 138.2 214.6C137.1 214.6 136.7 214.2 136.1 213.4C118.4 199.5 103.3 183.3 89.3 166.2C82.5 157.98 77.7 148.4 72.7 139C62.6 120 53.2 100.7 46.1 80.5C45.2 78 43.8 75.7 42.1 73.02C41.3 72.6 41.2 72.5 41 71.7C40.8 69.1 39 69.1 37.7 68.5C29.5 65 22.3 60.1 17.1 52.7C15.3 50.2 12.7 48.6 10.3 46.8C4.8 42.7 3.7 39.7 5.9 33.1C6.7 30.9 5.4 30.21 4.5 28.9C2.9 26.5 -0.2 25 0 21.1C2.4 17.8 4.8 17.9 7.3 20.6C8.7 22.1 10.1 23.4 11.5 24.8C9.1 21.4 4.8 19.9 3 15.5Z" fill="#C4C5F7"/><path d="M219.7 357.5C231.9 352.1 239.1 343.17 241.7 330.4C242.4 326.8 240.4 323.56 241 319.66C247.2 326 249 333.7 246 342.8C245.2 343.9 244.5 343.8 243.7 343.2C246.2 347.1 246.4 352.1 249 356.6C249.3 357.09 249.3 357.31 249.5 357.9C249.8 361.4 250 364.6 252 367.7C252.3 368.2 252.3 368.5 252.4 369C252.5 370.7 252.3 372.1 252.7 373.81C254.1 377.8 250.3 378.9 249.1 381.7C249.7 383.5 250.24 385 250.9 386.8C250.9 395.2 252.1 403.3 248.1 410.8C246.9 412.9 245.8 414.9 242.9 415.51C242.3 415.5 242 415.3 242 415.1C243.5 415.9 243.5 417.2 243 418.9C242.1 419.8 241.3 420.36 240.2 421.09C239.4 421.6 239.41 422.3 238.8 422.9C238.5 423 238.2 423.1 237.99 423.2C237.3 424 237 424.8 236.7 426C236.3 426.62 235.9 426.84 235.1 426.9C232 429.6 228.4 430.5 224.3 431.1C221.4 430.87 221.4 428.7 220.9 427.1C217.7 416 214.5 404.8 211.5 393.6C210.8 391.3 210.4 388.8 208.7 386.4C208.4 385.8 208.3 385.6 208 385C207.7 383.7 207.5 382.74 207.2 381.5C207.1 380.9 207 380.64 207 380.1C207 376.9 206.5 374.3 204.8 371.7C204.5 371.1 204.4 370.9 204.3 370.3C204.06 368.2 204.2 366.2 202.7 364.4C202.53 363.8 202.5 363.6 202.5 363C202.6 361.8 202.9 361.2 203.5 360.2C207.8 359.3 212 358.7 216.5 358.1C217.06 358.4 217.3 358.5 217.7 358.1C217.9 357.8 218.1 357.77 218.57 357.7C219.6 361.5 220.9 365.3 221.6 369.6C222.8 371.7 222.94 373.8 223.8 376C227.1 389.07 230.96 401.6 233.7 412.3C231.1 401.6 226.9 389.3 224 376.3C222.9 374.2 222.82 372.1 221.7 370C221.3 365.6 219.06 362 219.7 357.5Z" fill="#1D3B6A"/><path d="M142.8 297.9C142.9 300.6 142.5 303.6 142.4 306.6C142.1 313.5 142.7 320.1 147 326.03C148.6 328.1 149.8 330.6 150.6 333.11C154.9 346.9 165 354.1 178.6 357.91C179.1 358.2 179.2 358.4 179.4 358.8C179.4 359.4 179.5 359.7 179.8 360.3C180.1 360.7 180.1 360.8 180.3 361.3C180.6 363.1 181 364.5 182.1 366C182.3 366.5 182.4 366.7 182.5 367.3C182.5 369.8 183.2 371.8 184.6 373.9C184.8 374.5 184.8 374.8 184.9 375.4C184.34 378.7 185.82 381.2 186.3 383.9C186.6 385.6 187.5 387.3 186.2 389.4C184.1 390.7 182.6 390.2 181.3 388.2C176.4 383.37 171.4 382.8 165.7 385.9C160.2 388.9 154.8 386 149.6 384.6C147.4 384 145.6 381.9 143.35 380.3C142.1 379.5 141.4 378.7 140.6 377.5C140.4 377 140.3 376.7 140.2 376.2C140.2 374.36 139.9 372.9 138.7 371.5C138.5 371 138.4 370.8 138.2 370.3C137.9 369.2 137.7 368.4 137.16 367.4C136.1 365.4 135.6 363.6 135.7 361.3C136 358.7 134.9 356.8 134 354.5C134.9 349.7 133 346.6 128.8 344.4C127.8 334 129.05 323.9 132.5 314C134.7 316.9 134.8 320.5 135.9 323.3C135.16 320 133.6 316.5 133.2 312.44C133 312.13 132.9 312.1 132.9 312.1C132.2 311 132.4 309.7 133 308.4C137 305.3 138.7 300.8 142.8 297.9Z" fill="#1D3B6A"/><path d="M183 375C182.9 374.7 182.89 374.7 182.9 374.7C182.2 372.43 181.4 370.2 181.1 367.5C180.9 367.16 180.89 367.2 180.9 367.2C180 365.4 179.7 363.4 179 361.1C178.9 360.8 178.9 360.7 178.9 360.6C178.8 360.3 178.6 360.1 178.7 359.4C178.9 359.1 178.9 358.6 178.9 358.35C182.3 358.5 185.6 358.84 189.4 359.28C190.3 359.7 190.8 360 191.7 359.6C195.4 359.6 198.8 359.7 202.6 359.9C203.57 360.8 203.3 361.8 203.7 363C203.9 363.2 203.9 363.2 203.9 363.2C204.8 365.2 205.33 367.4 205.7 369.9C205.9 370.2 205.9 370.2 205.9 370.2C207.1 373.2 207.6 376.4 208.7 379.9C208.9 380.2 208.9 380.2 208.9 380.2C209.8 381.2 209.19 382.5 209.7 383.9C209.9 384.2 209.9 384.2 209.9 384.2C213.6 398.2 217.5 412.24 221.6 426.2C222 427.8 222.76 429.34 221.93 431.3C221.6 431.5 221.2 431.7 221 431.82C220.6 432.4 220.3 432.6 219.7 432.2C216.4 432.1 213.2 432.15 210.15 432.7C203.8 433.7 201.2 432.6 197.9 426.39C196.8 424.8 196.8 423.3 196.6 421.5C197.3 414.58 198.1 408.1 197.2 401.5C196.9 399.6 196.6 397.7 197.5 395.4C198.6 394.2 200.5 394.2 199.58 391.9C198.4 389 197.8 386 197.2 383.5C197.5 386.7 199.9 390 198.9 394.1C194.2 395 190.19 394.28 187 390.3C185.8 385 184.1 380.3 183 375Z" fill="#1D3B6A"/><path d="M264.21 178.8C260.3 172.53 257 171.5 250.1 174.7C246.2 176.5 242.4 177.6 237.7 175.6C242.1 173.8 247.4 175.3 250.6 170.8C248.4 169.46 246.8 171.29 245.1 171C243.6 170.7 241.1 173.4 240.2 169.4C240.1 168.72 235 168.7 233.5 172.1C232.1 175.4 232.1 178.9 231.4 183.1C228.67 177.2 230 172.5 232.9 167.7C233 167.1 233 166.9 232.7 166.6C225.5 170.5 220.2 176.25 215.2 182.7C214.5 180.5 215.3 178.6 216.8 176.9C222.4 170.6 227.7 164 236.2 161.4C237.3 161 238.3 160.3 239.5 159.5C240.4 158.5 240.9 157.6 242.5 157.9C248.6 158.6 254.4 158.4 260 161.3C264.3 163.5 265.8 167.4 268.7 170.9C271.6 176.5 273.4 182.1 273.6 188.5C274.45 189.6 274.3 190.7 274.7 191.9C275.71 193.6 275.3 195.4 276.1 196.9C275.4 195.5 275.6 193.9 274.9 192.1C274.2 191 274.6 189.9 273.7 188.8C273.4 187.5 273.24 186.4 274.7 185.8C277.6 190.01 280.7 193.84 279.2 199.37C278.9 200.8 276.9 203 279.7 204.9C279.74 207.7 280.2 210.3 277.1 212C276.6 212.4 276.3 212.6 275.98 213.1C275.3 213.8 275 214.6 274 215C273.8 215.2 273.9 215.2 273.9 215.1C273.8 215.3 273.6 215.4 273.3 215.8C271.7 218.3 270.33 220.4 268.9 222.86C266.8 222.1 264.6 220.6 262.7 223.8C263.1 223.4 264 222.47 262.6 221.7C261.7 221.3 260.6 220.9 260.2 220.1C259.6 218.8 259.9 217 259.1 215.9C257.5 213.39 257.83 218.1 257.2 216.7C256.13 214.7 255.7 211.5 257.5 210.15C262.1 206.6 263 201.8 264.2 196.9C265.3 197.6 265.4 198.3 265.4 199.3C265.3 199.5 265.7 199.8 265.5 199.6C265.43 198.8 265.4 198.1 264.9 197.3C264.5 197.4 264.2 197.7 263.6 197.7C263.67 196.6 263.8 195.8 263.8 194.6C265.4 192.9 266.3 191.9 263.5 190.8C262.4 190.3 258 189 263.1 186.8C265 186 263.42 183.9 262.2 182.77C260.5 181.1 258.3 179.8 257.1 177.5C259.7 176.7 260.7 179.5 263.08 180C263.38 179.6 264.6 179.8 264.21 178.8Z" fill="#0F1D40"/><path d="M241.7 413.26C242.1 414.3 242.8 414.6 243.6 413.9C246.8 411 249.6 407.5 248.7 403.18C247.5 397.7 249.1 392.8 250.7 387.5C254.5 390.6 254.5 395.1 253.6 399.3C252.4 405.75 250.1 412 245.3 417.3C244.5 417.3 244.3 417.5 244.1 418.13C243.8 418.6 243.6 418.9 243.2 419.1C242.5 417.3 240.29 415.7 241.7 413.26Z" fill="#1D3B6A"/><path d="M135.4 361.3C137 362.6 138.3 364.1 139.8 366C139.04 367.4 139.5 368.5 139.7 369.9C139.9 370.2 139.9 370.2 139.9 370.2C140.7 371.9 141 373.8 141.7 375.9C141.9 376.22 141.9 376.2 141.89 376.2C142.7 377.2 142.3 378.3 142.1 379.8C141.1 380.22 140.4 380.25 139.3 380.25C138.7 380.4 138.5 380.5 138.1 380.4C133.5 377.1 131.8 371.8 133.4 366.2C133.81 364.6 134.6 363.1 135.4 361.3Z" fill="#1D3B6A"/><path d="M247.6 347.8C252.7 355.5 254.3 363.8 254 372.8C251 373.5 251.6 371.3 251.1 369.46C250.9 369.16 250.9 369.2 250.9 369.2C249.6 365.8 248.8 362.4 248.1 358.5C247.9 358.16 247.9 358.2 247.9 358.2C246.7 355.5 246.5 352.6 245.5 349.81C245.1 348.51 244.7 346.5 247.6 347.8Z" fill="#1D3B6A"/><path d="M221.8 431.8C220.3 422.7 217 414.3 214.9 405.7C213.3 398.8 210.6 392.1 209.9 384.6C214.4 395.1 216.5 406.7 220 418C221.3 422.1 222.4 426.29 223.7 430.8C223.5 431.9 223.1 432.79 221.8 431.8Z" fill="#1D3B6A"/><path d="M430.5 320.1C429.9 316.9 427.5 316.3 424.9 316.4C421.1 316.4 417.78 315.3 414.9 312.4C423.4 314.42 431.9 316.8 441.1 314.7C441.1 315.6 441.8 317.3 439.5 317.1C436.2 316.8 433.6 318.6 430.5 320.1Z" fill="#6385B3"/><path d="M128.59 344.6C128.8 344.3 129.2 344.25 129.4 344.4C131.28 345.1 131.8 339 134 343.3C135.6 346.6 137.7 350.3 134.2 354.1C132.1 351.1 130.4 348.03 128.59 344.6Z" fill="#1D3B6A"/><path d="M16.8 29.8C12.6 29 10.9 25.5 8.3 23C6.2 21 4.2 18.5 0.4 20.6C0.8 19.1 1.7 17.5 2.7 15.5C7.5 19.6 12.1 24 16.9 28.7C17.1 29.3 17.1 29.5 16.8 29.8Z" fill="#597398"/><path d="M441.9 309.1C435.6 307.4 428.8 309.2 423 305.5C429.4 305.52 435.6 307.7 442.44 307.3C442.6 307.9 442.38 308.4 441.9 309.1Z" fill="#5A779F"/><path d="M247.8 347.9C246.2 347.5 245.8 348.3 246.2 349.8C246.9 352.3 248 354.7 247.92 357.8C244.8 352.9 243.8 346.9 242.9 340.6C244 340.9 243.8 342.7 245.5 343.08C245.8 344.9 246.9 346.1 247.8 347.9Z" fill="#1D3B6A"/><path d="M133 312.4C135.6 317.5 136.6 323.2 137.5 329C135.2 324.5 134 319.7 132.9 314.3C132.9 313.5 132.9 313.1 133 312.4Z" fill="#1D3B6A"/><path d="M11.7 11.8C10.2 11.2 9.1 10.5 7.9 9.6C9.1 8.5 11 8.4 11.9 6.2C12.4 6.2 12.8 6.6 13.3 7.2C13.4 8.5 13.7 9.6 13 11C12.6 11.5 12.3 11.6 11.7 11.8Z" fill="#597398"/><path d="M253.9 374C253.5 374.3 253 374.2 252.3 374.2C250.8 373 250.8 371.5 250.85 369.5C251.7 370.4 252.5 371.6 253.6 373C253.9 373.3 253.9 373.5 253.9 374Z" fill="#1D3B6A"/><path d="M142.2 380.2C141.86 379.1 141.8 378 141.8 376.6C142.8 377 142.9 378.2 143 379.7C142.9 380.1 142.7 380.1 142.2 380.2Z" fill="#1D3B6A"/><path d="M244.2 418.3C244.3 418 243.1 416.6 244.9 417.2C244.8 417.7 244.61 418 244.2 418.3Z" fill="#1D3B6A"/><path d="M274.1 215.1C274.3 214.6 274.9 214.1 275.7 213.48C275.4 213.9 274.88 214.46 274.1 215.1Z" fill="#0F1D40"/><path d="M261.8 224.6C262.1 224.7 262.4 224.4 262.78 224.2C262.4 223.7 262.04 223.9 261.8 224.6Z" fill="#0F1D40"/><path d="M442.8 312.5C442.82 312.5 442.7 312.08 442.8 312C442.8 312.1 442.8 312.2 442.8 312.5Z" fill="#5A779F"/><path d="M273.2 215.9C273 215.7 273.14 215.5 273.7 215.2C273.7 215.3 273.5 215.6 273.2 215.9Z" fill="#0F1D40"/><path d="M261 301C260.9 300.79 261.1 300.5 261.5 300.1C261.6 300.3 261.4 300.5 261 301Z" fill="#5173A3"/><path d="M268.9 223.2C268.8 223.2 268.9 223.2 268.9 223.2C268.9 223.1 268.9 223.2 268.9 223.2Z" fill="#0F1D40"/><path d="M220.5 204.2C217.1 205.4 215.3 203.4 214.2 200.9C213.4 198.9 213.9 197 215.8 195.6C218.2 194 220.6 192.4 223.6 193.8C230.3 197.11 232.7 201.6 231.9 208.8C231.7 210.8 231.28 211.9 228.9 211.2C225.4 210.2 220.9 210.9 220.5 205.1C223.4 203 224.98 206.2 227.6 206.5C229.7 205.6 228.7 204.5 228.1 203.6C226.4 201.3 223.8 200.09 221.6 198.5C220.6 197.8 219.22 198 219.9 200.2C220.52 201.6 221 202.7 220.5 204.2Z" fill="#B6B2E4"/><path d="M13.7 8.2C19.8 12.8 24.1 18.6 25.8 24.3C19.8 21.1 16.8 15.5 11.5 12.1C11.3 11.8 11.6 11.5 11.7 11.3C12.7 10.4 13.1 9.4 13.7 8.2Z" fill="#597398"/><path d="M221.9 369.8C219.9 366.5 219.1 362.6 218.9 358C219 357.3 219.2 357.2 219.7 357.18C219.6 361.4 222.1 365.2 221.9 369.8Z" fill="#1D3B6A"/><path d="M191.65 359.4C192 361 192 362.6 192 364.4C190.3 363.2 190.6 361.4 189.9 359.7C190.3 359.3 190.8 359.3 191.65 359.4Z" fill="#1D3B6A"/><path d="M13.8 7.7C13.8 9.1 13.8 10.3 12.2 11.1C12.3 10.2 12.6 9.2 13.2 7.81C13.4 7.5 13.7 7.6 13.8 7.7Z" fill="#5174A7"/><path d="M264.7 197.1C265.7 198 265.9 199.2 265.91 200.8C265.5 200.1 265.2 199.05 264.7 197.55C264.64 197.1 264.7 197.2 264.7 197.1Z" fill="#0F1D40"/><path d="M203.9 362.8C203.2 362.5 203 361.7 203 360.3C203 360 203.3 359.8 203.5 359.9C203.75 360.8 203.8 361.6 203.9 362.8Z" fill="#1D3B6A"/><path d="M113.8 143.6C114.1 143.8 114.5 144.4 114.8 145.4C114.5 145.1 114.12 144.5 113.8 143.6Z" fill="#5174A7"/><path d="M42.1 72.8C41.6 72.7 41.3 72.2 40.9 71.4C41.3 71.6 41.7 72 42.1 72.8Z" fill="#5174A7"/><path d="M217.5 357.8C217.6 358.1 217.4 358.2 217 358.1C216.9 358 217.3 357.8 217.5 357.8Z" fill="#4B668E"/><path d="M16.9 29.2C17.7 29.5 18.2 29.9 16.7 30C16.5 29.7 16.6 29.6 16.9 29.2Z" fill="#597398"/><path d="M223.9 376.6C228.3 387.2 230.5 398.8 233.9 410.1C234.97 413.7 235.9 417.4 236.21 421.2C231.6 406.6 226.8 392.1 223.9 376.6Z" fill="#1D3B6A"/><path d="M247.8 358.6C249.9 361.3 250.4 364.9 250.9 368.8C248.5 366.2 248.2 362.6 247.8 358.6Z" fill="#1D3B6A"/><path d="M208.9 379.8C206.5 377.6 206.5 374.2 205.9 370.6C208.1 372.8 208.3 376.2 208.9 379.8Z" fill="#1D3B6A"/><path d="M205.9 369.8C204.6 368.3 204.2 366.14 203.9 363.5C205.5 364.9 205.8 367.2 205.9 369.8Z" fill="#1D3B6A"/><path d="M223.89 376.2C222.4 374.7 222 372.88 221.9 370.5C221.9 370.16 221.9 370.2 221.9 370.2C223.5 371.58 223.8 373.5 223.9 375.8C223.9 376.2 223.9 376.2 223.89 376.2Z" fill="#1D3B6A"/><path d="M209.9 383.8C208.83 383.3 208.9 382.1 208.8 380.5C209.8 381.1 209.9 382.29 209.9 383.8Z" fill="#1D3B6A"/><path d="M242.9 340.2C242.6 339.7 242.3 339.22 242.1 338.7C242.1 338.71 242.4 338.5 242.6 338.4C242.7 338.8 242.8 339.2 242.9 339.9C242.9 340.2 242.9 340.2 242.9 340.2Z" fill="#1D3B6A"/><path d="M241.9 413.2C241.9 413.2 242 413.1 241.95 413.15C241.9 413.2 241.9 413.2 241.9 413.2Z" fill="#1D3B6A"/><path d="M187.5 388.9C187.5 389.3 187.16 389.3 187.16 389.3C187.16 389.3 186.8 389.3 186.6 389.3C184.7 384.9 183.2 380.4 182.9 375.1C185.6 378.9 185.6 384 187.5 388.9Z" fill="#1D3B6A"/><path d="M142.9 326.8C141 324 140.4 320.5 140.3 316.9C142.2 319.7 143 322.9 142.9 326.8Z" fill="#1D3B6A"/><path d="M138.9 337.1C138.5 335.38 138.2 334 137.9 332.6C138.2 332.5 138.6 332.4 138.9 332.3C139.8 335.2 140.65 338 141.8 341.8C139.4 340.5 139.5 338.8 138.9 337.1Z" fill="#1D3B6A"/><path d="M180.8 367.6C182.4 369.1 182.7 371.4 182.9 374.3C181.41 372.7 180.7 370.4 180.8 367.6Z" fill="#1D3B6A"/><path d="M141.9 375.8C140.2 374.8 140.1 372.86 139.9 370.5C141.4 371.6 141.8 373.49 141.9 375.8Z" fill="#1D3B6A"/><path d="M178.9 361.2C180.2 362.4 180.9 364.3 180.9 366.8C179.2 365.73 179 363.7 178.9 361.2Z" fill="#1D3B6A"/><path d="M142.9 327.2C144.2 328.5 145 329.94 144.5 332.1C142.8 330.9 143.1 329.3 142.88 327.6C142.9 327.2 142.9 327.2 142.9 327.2Z" fill="#1D3B6A"/><path d="M147.1 339.9C147.6 341 148.1 341.8 147.4 342.9C145.9 342.3 146 341 146.1 339.8C146.2 339.7 146.4 339.53 146.5 339.51C146.6 339.49 146.79 339.6 147.1 339.9Z" fill="#1D3B6A"/><path d="M148.9 348.5C149.2 348.8 149.5 349.5 149.7 350.3C149.7 350.3 149.36 350.5 149.2 350.6C149 350.02 148.9 349.4 148.9 348.5Z" fill="#1D3B6A"/><path d="M139.91 369.8C138.9 369.2 138.8 368 139.6 366.6C139.9 367.4 139.9 368.41 139.91 369.8Z" fill="#1D3B6A"/><path d="M148.9 348.2C148.6 347.7 148.38 347.2 148.2 346.7C148.2 346.6 148.4 346.5 148.5 346.4C148.66 346.8 148.8 347.2 148.95 347.9C149 348.1 148.9 348.2 148.9 348.2Z" fill="#1D3B6A"/><path d="M144.1 353.58C144.3 353.6 144.6 353.8 144.6 353.8C144.4 354.2 144.2 354.2 144.1 353.58Z" fill="#324F7C"/><path d="M145.47 336C145.3 335.8 145.3 335.6 145.3 335.32C145.4 335.5 145.5 335.7 145.47 336Z" fill="#324F7C"/><path d="M146.1 360.8C146.2 360.2 146.42 360.2 146.6 360.6C146.6 360.61 146.3 360.8 146.1 360.8Z" fill="#324F7C"/><path d="M147.66 364.8C147.5 364.8 147.1 364.6 147.2 364.5C147.3 364.2 147.5 364.2 147.66 364.8Z" fill="#324F7C"/><path d="M145.4 357.3C145.4 357.3 145.3 357 145.3 357C145.3 357 145.5 357.3 145.4 357.3Z" fill="#324F7C"/><path d="M178.75 359.2C178.9 359.3 178.9 359.56 178.9 360.2C178.8 360.2 178.7 359.8 178.75 359.2Z" fill="#4B668E"/><path d="M198.9 394.2C197.6 388.6 196.3 383.1 195 377.5C198.3 384.4 200.4 391.5 202 399.4C199.7 398 200.3 396 199.1 394.4C198.9 394.2 198.91 394.2 198.9 394.2Z" fill="#1D3B6A"/><path d="M202 403.1C202.3 402.2 203 402.2 203.1 402.6C204.8 408.4 206.4 414.2 208.1 420C207.6 420.1 207.1 420.2 206.6 420.35C205.1 414.71 203.5 409.07 202 403.1Z" fill="#1D3B6A"/><path d="M215.9 420.8C214.5 419.7 213.6 418 214.3 415.4C215.6 417.1 215.8 418.7 215.9 420.8Z" fill="#1D3B6A"/><path d="M193.9 371.8C192.9 371.1 192.4 369.8 192.7 368.1C194.5 368.8 193.7 370.3 193.9 371.8Z" fill="#1D3B6A"/><path d="M217.6 426.7C217.9 427.55 218.1 428.3 218.3 429.1C217.98 429.1 217.5 429.3 217.5 429.2C216.9 428.35 216.6 427.47 217.6 426.7Z" fill="#1D3B6A"/><path d="M215.9 421.2C216.1 421.6 216.4 422.01 216.6 422.4C216.6 422.5 216.5 422.7 216.4 422.8C216.2 422.4 216.1 422.1 215.9 421.4C215.88 421.2 215.9 421.2 215.9 421.2Z" fill="#1D3B6A"/><path d="M193.9 372.1C194.5 372.7 195.2 373.2 194.3 374.1C194.1 373.6 194 373.2 193.8 372.5C193.8 372.3 193.9 372.2 193.9 372.1Z" fill="#1D3B6A"/><path d="M276.9 199.8C275.4 198.1 274.8 195.6 274.9 192.6C276.4 194.3 276.8 196.7 276.9 199.8Z" fill="#0F1D40"/><path d="M268.2 210.7C267.6 209.2 266.6 208 267.4 206C268.5 207.7 269.5 209.1 268.2 210.7Z" fill="#0F1D40"/><path d="M272.09 197C272.1 196.2 271.7 195.1 272.81 195.7C273.3 195.9 273.7 197.4 273.4 197.8C272.8 198.66 272.5 197.7 272.09 197Z" fill="#0F1D40"/><path d="M269.1 184.6C269.3 184.6 269.6 184.8 269.6 184.8C269.43 185.24 269.2 185.2 269.1 184.6Z" fill="#0F1D40"/><path d="M270.9 190C270.6 189.7 270.4 189.2 270.18 188.7C270.17 188.6 270.4 188.5 270.5 188.4C270.7 188.84 270.8 189.3 270.9 190Z" fill="#0F1D40"/><path d="M273.9 189.2C274.3 189.9 274.6 190.7 274.9 191.8C274.9 192.1 274.9 192.18 274.9 192.2C274.5 191.45 274.2 190.7 273.8 189.6C273.8 189.3 273.9 189.2 273.9 189.2Z" fill="#0F1D40"/><path d="M265.9 201.2C266.14 201.7 266.4 202.3 266.6 202.8C266.6 202.9 266.4 203 266.2 203.1C266.1 202.62 266 202.2 265.9 201.4C265.9 201.2 265.9 201.2 265.9 201.2Z" fill="#0F1D40"/><path d="M270.9 190.2C271.2 190.67 271.4 191.18 271.6 191.7C271.6 191.7 271.4 191.85 271.3 191.9C271.1 191.5 271 191.1 270.9 190.5C270.8 190.2 270.9 190.2 270.9 190.2Z" fill="#0F1D40"/><path d="M277 200.1C277.2 200.4 277.3 200.8 277.4 201.15C277.2 201 277 200.8 276.8 200.5C276.7 200.33 276.9 200.2 277 200.1Z" fill="#0F1D40"/><path d="M269.3 214C269.4 214 269.4 214.3 269.4 214.3C269.4 214.3 269.3 214.1 269.3 214Z" fill="#0F1D40"/><path d="M264.2 179.01C264.8 179.4 265 180 263.7 180.1C263.6 179.8 263.8 179.6 264.2 179.01Z" fill="#C4C5F7"/><path d="M232.6 166.7C232.9 166.2 233.4 166 233.9 165.9C233.8 166.2 233.8 166.6 233.4 167.2C232.9 167.2 232.8 167.03 232.6 166.7Z" fill="#C4C5F7"/><path d="M270.9 306.2C270.9 306.2 271.1 306.3 271.1 306.3C271.1 306.3 271 306.3 270.9 306.3C270.9 306.2 270.89 306.2 270.9 306.2Z" fill="#5174A7"/><path d="M285.5 309.2C285.5 309.3 285.2 309.2 285.2 309.2C285.2 309.2 285.5 309.1 285.5 309.2Z" fill="#6B8EBD"/><path d="M219 201.2C217.2 200.9 215.3 200.2 216.2 198.5C217 196.9 218.6 195.2 220.9 195.5C223.9 195.9 230.7 203.4 230.7 206.5C230.79 207.9 231.4 210.2 228.1 209.2C226.1 205.3 222.23 203.8 219 201.2Z" fill="#CBDEEC"/><path d="M218.6 201.5C222.5 200.3 227.3 204.1 227.8 208.7C225.5 207.8 223.3 206.5 220.8 205C220.6 204.8 220.5 204.59 220.46 204.6C219.8 203.6 219.2 202.7 218.6 201.5Z" fill="#19315E"/></svg>