<svg width="98" height="1040" viewBox="0 0 98 1040" fill="none" xmlns="http://www.w3.org/2000/svg"><path d="M97.6 449.4C97.6 449.4 97.5 449.8 97.6 450.4C97.6 645.67 97.6 840.3 97.7 1035.02C97.7 1036.68 97.8 1038.34 97.9 1040C65.5 1040 33.2 1040 0.5 1039.56C0.3 1037.79 0.3 1036.46 0.3 1035.13C0.3 848.1 0.3 661.1 0.3 474.1C0.3 466.1 0.1 458.1 0.2 450C0.6 449.6 0.8 449.3 1.3 449.09C13.1 449.1 24.4 449.1 35.7 449.1C56.3 449.2 77 449.3 97.6 449.4Z" fill="#030201"/><path d="M0.9 0C32.6 0 64.2 0 96.7 0.4C97.4 2.6 97.5 4.5 97.5 6.3C97.5 67.4 97.5 128.5 97.5 189.6C97.5 191.5 97.7 193.3 97.7 195.4C97.7 196.5 97.8 197.2 97.7 198.3C95.9 199.11 94.2 199.9 92.6 199.9C63.6 199.99 34.7 200 5.7 200C4.1 200 2.5 200 0.5 200C0.5 197.8 0.5 196.32 0.5 194.8C0.5 131.4 0.5 67.9 0.5 4.4C0.5 3 0.7 1.5 0.9 0ZM70 26.4C71.5 25.5 72.9 24.7 74.7 23.5C66.4 18.8 58.8 14.5 51.1 10.2C50.2 9.7 48.5 9.4 47.6 9.9C39.5 14.2 31.6 18.8 22.8 23.7C27.6 26.3 31.5 28.4 35.8 31C39.3 32.9 42.7 35.1 46.3 36.7C47.8 37.4 50.2 37.4 51.6 36.7C57.7 33.5 63.5 30 70 26.4ZM36.8 68C36.8 68 36.7 68 37.1 68.6C40.1 70.3 43.1 72.1 46.2 73.8C47.3 74.3 49 75.1 49.8 74.6C58.1 70.2 66.2 65.6 75 60.6C66.3 55.7 58.5 51.3 50.6 47C49.8 46.5 48.3 46.4 47.5 46.8C39.5 51.2 31.5 55.8 22.7 60.7C28 63.5 32.4 65.8 36.8 68ZM53.7 146.5C60.6 142.6 67.5 138.8 75 134.6C66.4 129.8 58.7 125.3 50.8 120.97C49.9 120.5 48.4 120.2 47.6 120.7C39.5 125.1 31.5 129.7 22.9 134.6C31 139.1 38.4 143.1 45.7 147.52C48.7 149.3 50.8 149 52.9 146.4C52.9 146.4 52.9 146.5 53.7 146.5ZM38.8 180C38.8 180 38.7 180.1 39.1 180.6C41.5 182 43.9 183.6 46.5 184.7C47.8 185.3 49.8 185.6 50.9 185C58.8 180.8 66.5 176.29 74.9 171.5C66.4 166.7 58.5 162.2 50.6 157.9C49.6 157.4 47.9 157.4 47 157.9C39.1 162.3 31.3 166.81 22.8 171.7C28.5 174.7 33.6 177.4 38.8 180ZM33.6 103.7C37.8 106.1 42 108.5 46.2 110.7C47.4 111.3 49.3 111.94 50.2 111.4C58.4 107.1 66.3 102.46 74.9 97.6C66.4 92.8 58.7 88.3 50.8 84C49.9 83.5 48.2 83.4 47.3 83.9C39.3 88.3 31.4 92.8 23 97.6C26.7 99.7 29.8 101.5 33.6 103.7Z" fill="#050403"/><path d="M0.6 246.41C0.3 244.9 0.4 243.8 0.4 242.1C0.3 241.3 0.3 241.2 0.2 241.04C0.3 230.4 0.3 219.8 0.3 208.8C1.2 207.3 2.3 205.2 3.4 205.2C34.3 205.1 65.3 205.2 96.3 205.2C96.4 205.2 96.5 205.4 97 205.8C97 219.4 97 233.3 97 247.4C95.3 247.5 93.9 247.71 92.4 247.7C63.4 247.7 34.5 247.7 5.5 247.7C3.9 247.7 2.4 247.14 0.6 246.41Z" fill="#030201"/><path d="M1.9 380C1.4 378.2 0.8 376.3 0.2 374.1C0.3 373.4 0.3 373.2 0.3 372.4C0.2 370.4 0.1 369 0 367.5C0.1 361.2 0.3 354.9 0.3 348.6C0.3 318.1 0.3 287.6 0.2 256.7B1 255.1 2 252.9 3 252.8C17.4 252.6 31.9 252.7 46.8 252.7C46.8 295.1 46.8 337 46.7 379.4C46.6 379.9 46.2 379.8 45.6 379.9C30.6 379.9 16.2 380 1.9 380Z" fill="#050403"/><path d="M51 379.9C51 348.1 50.9 316.5 50.9 284.9C50.9 274.4 50.9 264 50.9 253.1C66.4 253.1 81.6 253.1 97.2 253.1C97.2 295.1 97.2 337.1 97.2 379.78C82 379.78 67 379.78 51.5 379.8C51.1 379.8 50.9 380 51 379.9Z" fill="#030201"/><path d="M97.6 389.88C97.6 404.8 97.6 419.3 97.5 434.5C97.5 436.3 97.6 437.3 97.7 438.3C97.7 439.6 97.6 440.9 97.6 442.5C96 443.4 94.4 444.2 92.7 444.2C63.5 444.3 34.2 444.3 5 444.3C2.8 444.3 0.4 444.81 0.3 441C0.2 424.4 0.3 408.1 0.4 391.2C0.4 390.3 0.3 390.2 0.25 390C0.3 388.5 0.4 387 1 385C2.3 384.6 3.1 384.5 3.8 384.4C4.2 384.44 4.7 384.5 5.5 384.51C31.5 384.6 57.1 384.7 82.8 384.7C87.4 384.7 92.1 384.7 97 384.7C97.2 386.6 97.3 388 97.6 389.88Z" fill="#030201"/></svg>