<svg width="1060" height="482" viewBox="0 0 1060 482" fill="none" xmlns="http://www.w3.org/2000/svg"><path d="M161 0C161.66 0 162.32 0 163 0C163 15.84 163 31.68 163 48C164.98 48 166.96 48 169 48C169 63.84 169 79.68 169 96C170.65 96 172.3 96 174 96C174 100.62 174 105.24 174 110C174.99 110 175.98 110 177 110C177 112.31 177 114.62 177 117C178.65 117 180.3 117 182 117C182 119.64 182 122.28 182 125C183.32 125 184.64 125 186 125C186 126.98 186 128.96 186 131C187.98 131 189.96 131 192 131C192 144.53 192 158.06 192 172C193.98 172 195.96 172 198 172C198 240.31 198 308.62 198 379C202.29 379 206.58 379 211 379C211.33 334.78 211.66 290.56 212 245C213.98 244.67 215.96 244.34 218 244C218.33 238.72 218.66 233.44 219 228C222.63 228 226.26 228 230 228C230 197.31 230 166.62 230 135C244.85 135 259.7 135 275 135C275 183.51 275 232.02 275 282C278.3 282 281.6 282 285 282C285 235.47 285 188.94 285 141C287.64 141 290.28 141 293 141C293 134.4 293 127.8 293 121C303.56 121 314.12 121 325 121C325 126.94 325 132.88 325 139C328.3 139 331.6 139 335 139C335 187.84 335 236.68 335 287C343.58 287 352.16 287 361 287C361 290.63 361 294.26 361 298C368.92 298 376.84 298 385 298C385 320.44 385 342.88 385 366C386.32 366 387.64 366 389 366C389 355.44 389 344.88 389 334C397.91 334 406.82 334 416 334C416 344.56 416 355.12 416 366C417.65 366.33 419.3 366.66 421 367C421 390.76 421 414.52 421 439C415.72 439 410.44 439 405 439C405 453.19 405 467.38 405 482C308.64 482 212.28 482 113 482C113 448.01 113 414.02 113 379C113.99 379 114.98 379 116 379C116 368.11 116 357.22 116 346C119.3 346 122.6 346 126 346C126 288.91 126 231.82 126 173C127.98 173 129.96 173 132 173C132 159.14 132 145.28 132 131C133.98 131 135.96 131 138 131C138 129.35 138 127.7 138 126C139.32 126 140.64 126 142 126C142 123.03 142 120.06 142 117C143.32 117 144.64 117 146 117C146 114.69 146 112.38 146 110C147.32 110 148.64 110 150 110C150 105.38 150 100.76 150 96C151.65 96 153.3 96 155 96C155 80.16 155 64.32 155 48C156.98 48 158.96 48 161 48C161 32.16 161 16.32 161 0Z" fill="#DBBF8F"/><path d="M685 76C685.99 76 686.98 76 688 76C688 102.4 688 128.8 688 156C692.29 156 696.58 156 701 156C701 160.62 701 165.24 701 170C704.96 170 708.92 170 713 170C713 202.01 713 234.02 713 267C716.3 267 719.6 267 723 267C723 282.18 723 297.36 723 313C714.75 313 706.5 313 698 313C698 368.77 698 424.54 698 482C631.01 482 564.02 482 495 482C495 442.4 495 402.8 495 362C484.77 362 474.54 362 464 362C464 350.78 464 339.56 464 328C462.02 328 460.04 328 458 328C458 290.38 458 252.76 458 214C468.23 214 478.46 214 489 214C489 231.16 489 248.32 489 266C493.62 266 498.24 266 503 266C503 289.76 503 313.52 503 338C506.63 338 510.26 338 514 338C514 287.51 514 237.02 514 185C521.59 185 529.18 185 537 185C537 210.74 537 236.48 537 263C548.55 263 560.1 263 572 263C572 273.89 572 284.78 572 296C573.98 296 575.96 296 578 296C578 296.66 578 297.32 578 298C578.66 298 579.32 298 580 298C580 271.93 580 245.86 580 219C598.81 219 617.62 219 637 219C637.7 249.7 638.1 280.3 638.1 310.9C638.1 311.7 638.1 312.4 638.06 313.2C638 322.5 638 331.7 638 341C639.1 341 640.3 341 641.5 341C643 341 644.4 340.9 645.9 340.9C646.7 340.9 647.4 340.9 648.2 340.9C650.15 340.9 652.1 340.9 654 341C655.64 342.64 655.2 344.5 655.2 346.8C655.2 347.8 655.2 348.8 655.3 349.9C655.3 351.6 655.3 351.6 655.3 353.3C655.3 354.4 655.4 355.5 655.4 356.68C655.4 360.3 655.5 363.9 655.6 367.6C655.6 370 655.6 372.5 655.7 374.92C655.8 380.9 655.9 387 656 393C657.32 393 658.64 393 660 393C660 319.41 660 245.82 660 170C663.96 170 667.92 170 672 170C672 165.38 672 160.76 672 156C676.29 156 680.58 156 685 156C685 129.6 685 103.2 685 76Z" fill="#DABF8F"/><path d="M1012 87C1013.32 87 1014.64 87 1016 87C1016 133.86 1016 180.72 1016 229C1021.28 229 1026.56 229 1032 229C1032 235.93 1032 242.86 1032 250C1032.99 250 1033.98 250 1035 250C1035.33 256.6 1035.66 263.2 1036 270C1043.92 270.33 1051.84 270.66 1060 271C1060 340.63 1060 410.26 1060 482C1023.04 482 986.08 482 948 482C948 461.21 948 440.42 948 419C944.7 419 941.4 419 938 419C938 402.5 938 386 938 369C935.03 369 932.06 369 929 369C929 365.7 929 362.4 929 359C929.66 359 930.32 359 931 359C931 349.43 931 339.86 931 330C935.95 330 940.9 330 946 330C946 319.44 946 308.88 946 298C951.94 298 957.88 298 964 298C964 278.53 964 259.06 964 239C970.6 239 977.2 239 984 239C984 211.94 984 184.88 984 157C993.24 157 1002.48 157 1012 157C1012 133.9 1012 110.8 1012 87Z" fill="#CDA27F"/><path d="M294 121C304.23 121 314.46 121 325 121C325 126.94 325 132.88 325 139C328.3 139 331.6 139 335 139C335 187.84 335 236.68 335 287C343.58 287 352.16 287 361 287C361 290.63 361 294.26 361 298C368.92 298 376.84 298 385 298C385 320.44 385 342.88 385 366C386.32 366 387.64 366 389 366C389 355.44 389 344.88 389 334C397.91 334 406.82 334 416 334C416 344.56 416 355.12 416 366C417.65 366.33 419.3 366.66 421 367C421 390.76 421 414.52 421 439C415.72 439 410.44 439 405 439C405 453.19 405 467.38 405 482C397.08 482 389.16 482 381 482C381 462.2 381 442.4 381 422C373.08 422 365.16 422 357 422C357 410.78 357 399.56 357 388C355.02 388 353.04 388 351 388C351 367.21 351 346.42 351 325C346.38 325 341.76 325 337 325C337 318.4 337 311.8 337 305C335.02 305 333.04 305 331 305C331 290.15 331 275.3 331 260C328.69 260 326.38 260 324 260C324 274.85 324 289.7 324 305C321.69 305 319.38 305 317 305C317 311.6 317 318.2 317 325C312.71 325 308.42 325 304 325C304 345.79 304 366.58 304 388C302.02 388 300.04 388 298 388C298 399.22 298 410.44 298 422C294.7 422 291.4 422 288 422C288 388.01 288 354.02 288 319C283.71 319 279.42 319 275 319C275 307.12 275 295.24 275 283C278.63 283 282.26 283 286 283C286 236.47 286 189.94 286 142C288.64 142 291.28 142 294 142C294 135.07 294 128.14 294 121Z" fill="#CDA27F"/><path d="M685 76C685.99 76 686.98 76 688 76C688 102.4 688 128.8 688 156C692.29 156 696.58 156 701 156C701 160.62 701 165.24 701 170C704.96 170 708.92 170 713 170C713 202.01 713 234.02 713 267C716.3 267 719.6 267 723 267C723 282.18 723 297.36 723 313C714.75 313 706.5 313 698 313C698 368.77 698 424.54 698 482C682.16 482 666.32 482 650 482C650 476.06 650 470.12 650 464C646.37 464 642.74 464 639 464C639 424.07 639 384.14 639 343C632.07 343 625.14 343 618 343C618 332.11 618 321.22 618 310C612.06 310 606.12 310 600 310C600 298.45 600 286.9 600 275C612.54 274.67 625.08 274.34 638 274C638 296.11 638 318.22 638 341C643.28 341 648.56 341 654 341C655.64 342.64 655.2 344.5 655.2 346.8C655.2 348.3 655.2 348.3 655.3 349.9C655.3 351 655.3 352.11 655.3 353.3C655.3 354.4 655.4 355.5 655.4 356.68C655.4 360.3 655.5 363.9 655.6 367.6C655.6 370 655.6 372.5 655.7 374.92C655.8 380.9 655.9 387 656 393C657.32 393 658.64 393 660 393C660 319.41 660 245.82 660 170C663.96 170 667.92 170 672 170C672 165.38 672 160.76 672 156C676.29 156 680.58 156 685 156C685 129.6 685 103.2 685 76Z" fill="#DBBF8F"/><path d="M161 0C161.66 0 162.32 0 163 0C163 15.84 163 31.68 163 48C164.98 48 166.96 48 169 48C169 63.84 169 79.68 169 96C170.65 96 172.3 96 174 96C174 100.62 174 105.24 174 110C174.99 110 175.98 110 177 110C177 112.31 177 114.62 177 117C178.65 117 180.3 117 182 117C182 119.64 182 122.28 182 125C183.32 125 184.64 125 186 125C186 126.98 186 128.96 186 131C187.98 131 189.96 131 192 131C192 144.53 192 158.06 192 172C193.98 172 195.96 172 198 172C198 240.64 198 309.28 198 380C201.96 380 205.92 380 210 380C210 381.7 210 381.7 210 383.5C210.1 394.3 210.2 405 210.3 415.8C210.4 421.4 210.4 426.9 210.5 432.5C210.5 437.8 210.6 443.2 210.7 448.5C210.7 450.6 210.7 452.6 210.7 454.6C210.7 457.5 210.8 460.4 210.8 463.2C210.8 464.1 210.8 464.9 210.8 465.8C210.9 469.1 210.9 471.8 212 475C208.7 475 205.4 475 202 475C200.8 464.4 200.9 453.9 200.9 443.3C200.9 441.4 200.9 439.6 201 437.7C201 433.1 201 428.6 201 424C199.02 424 197.04 424 195 424C195 398.26 195 372.52 195 346C172.7 346.04 172.7 346.04 150.3 346.09C146.02 346.1 146.02 346.1 144 346.1C142.6 346.1 141.2 346.1 139.8 346.1C137.6 346.1 135.5 346.1 133.4 346.1C131.5 346.1 131.5 346.1 129.7 346.12C127 346 127 346 126 345C125.9 342.8 125.9 340.6 125.88 338.35C125.9 337.6 125.9 336.9 125.9 336.2C125.9 333.8 125.9 331.5 125.9 329.1C125.9 327.4 125.9 325.7 125.9 324C125.9 319.4 125.9 314.8 125.9 310.2C125.9 305.3 125.9 300.5 125.9 295.7C125.91 286.6 125.9 277.5 125.9 268.3C125.9 257.9 125.9 247.5 125.95 237.1C125.96 215.8 126 194.4 126 173C127.98 173 129.96 173 132 173C132 159.14 132 145.28 132 131C133.98 131 135.96 131 138 131C138 129.35 138 127.7 138 126C139.32 126 140.64 126 142 126C142 123.03 142 120.06 142 117C143.32 117 144.64 117 146 117C146 114.69 146 112.38 146 110C147.32 110 148.64 110 150 110C150 105.38 150 100.76 150 96C151.65 96 153.3 96 155 96C155 80.16 155 64.32 155 48C156.98 48 158.96 48 161 48C161 32.16 161 16.32 161 0Z" fill="#CDA27F"/><path d="M805 195C805.99 195 806.98 195 808 195C808 211.17 808 227.34 808 244C815.92 244 823.84 244 832 244C832 276.01 832 308.02 832 341C839.26 341 846.52 341 854 341C854 366.41 854 391.82 854 418C860.27 418 866.54 418 873 418C873 399.52 873 381.04 873 362C875.97 362 878.94 362 882 362C882 352.76 882 343.52 882 334C896.52 334 911.04 334 926 334C926 336.64 926 339.28 926 342C916.76 342 907.52 342 898 342C898 351.24 898 360.48 898 370C893.05 370 888.1 370 883 370C883 406.96 883 443.92 883 482C860.23 482 837.46 482 814 482C814 462.53 814 443.06 814 423C804.76 423 795.52 423 786 423C786 414.42 786 405.84 786 397C783.03 397 780.06 397 777 397C777 372.58 777 348.16 777 323C770.4 323 763.8 323 757 323C757 319.7 757 316.4 757 313C753.37 313 749.74 313 746 313C746 309.37 746 305.74 746 302C750.95 302 755.9 302 761 302C761 299.69 761 297.38 761 295C761.66 295 762.32 295 763 295C763 297.31 763 299.62 763 302C768.28 302 773.56 302 779 302C779 282.86 779 263.72 779 244C787.58 244 796.16 244 805 244C805 227.83 805 211.66 805 195Z" fill="#DABF8F"/><path d="M723 267C723.33 267 723.66 267 724 267C724.33 282.18 724.66 297.36 725 313C728.7 314.4 728.7 314.4 731 313C733 312.9 735 312.87 737 312.9C738.6 312.9 738.6 312.9 740.25 312.9C743 313 743 313 745 314C745 310.04 745 306.08 745 302C745.33 302 745.66 302 746 302C746 305.63 746 309.26 746 313C749.63 313 753.26 313 757 313C757 316.3 757 319.6 757 323C763.6 323 770.2 323 777 323C777 347.42 777 371.84 777 397C779.97 397 782.94 397 786 397C786 405.58 786 414.16 786 423C795.24 423 804.48 423 814 423C814 442.47 814 461.94 814 482C775.72 482 737.44 482 698 482C698 426.23 698 370.46 698 313C706.25 313 714.5 313 723 313C723 297.82 723 282.64 723 267Z" fill="#F2E5B5"/><path d="M548 310C571.1 310 594.2 310 618 310C618 320.89 618 331.78 618 343C624.93 343 631.86 343 639 343C639 382.93 639 422.86 639 464C642.63 464 646.26 464 650 464C650 469.94 650 475.88 650 482C616.34 482 582.68 482 548 482C548 425.24 548 368.48 548 310Z" fill="#F2E5B5"/><path d="M324 260C326.31 260 328.62 260 331 260C331 274.85 331 289.7 331 305C332.98 305 334.96 305 337 305C337 311.6 337 318.2 337 325C341.62 325 346.24 325 351 325C351 345.79 351 366.58 351 388C352.98 388 354.96 388 357 388C357 399.22 357 410.44 357 422C364.92 422 372.84 422 381 422C381 441.8 381 461.6 381 482C330.18 482 279.36 482 227 482C227 462.2 227 442.4 227 422C242.51 422 258.02 422 274 422C274 416.72 274 411.44 274 406C277.3 406 280.6 406 284 406C284 411.28 284 416.56 284 422C288.62 422 293.24 422 298 422C298 410.78 298 399.56 298 388C299.98 388 301.96 388 304 388C304 367.21 304 346.42 304 325C308.29 325 312.58 325 317 325C317 318.4 317 311.8 317 305C319.31 305 321.62 305 324 305C324 290.15 324 275.3 324 260Z" fill="#F2E5B5"/><path d="M19 159C32.86 159 46.72 159 61 159C61 162.63 61 166.26 61 170C63.97 170 66.94 170 70 170C70 223.13 70 276.26 70 331C76.6 331 83.2 331 90 331C90 365.65 90 400.3 90 436C91.98 436 93.96 436 96 436C96 438.64 96 441.28 96 444C97.32 444 98.64 444 100 444C100 446.97 100 449.94 100 453C96.04 453 92.08 453 88 453C88 437.16 88 421.32 88 405C77.77 405 67.54 405 57 405C57 430.41 57 455.82 57 482C53.04 482 49.08 482 45 482C45 436.46 45 390.92 45 344C33.45 344 21.9 344 10 344C10 287.57 10 231.14 10 173C12.97 173 15.94 173 19 173C19 168.38 19 163.76 19 159Z" fill="#CDA27F"/><path d="M1031 229C1031.33 229 1031.66 229 1032 229C1032 235.93 1032 242.86 1032 250C1032.99 250 1033.98 250 1035 250C1035.2 253.5 1035.38 257 1035.56 260.4C1035.65 261.9 1035.65 261.9 1035.73 263.4C1035.78 264.4 1035.83 265.3 1035.88 266.3C1035.93 267.2 1035.97 268.1 1036.02 269C1036 271 1036 271 1035 272C1034.9 274 1034.88 276.1 1034.88 278.1C1034.88 279.1 1034.88 279.1 1034.88 280.1C1034.88 282.3 1034.88 284.4 1034.89 286.6C1034.89 288.2 1034.89 289.7 1034.89 291.3C1034.89 295.5 1034.89 299.8 1034.9 304C1034.9 308.4 1034.91 312.9 1034.91 317.3C1034.91 325.67 1034.92 334.1 1034.93 342.4C1034.94 352 1034.94 361.5 1034.95 371.1C1034.96 390.7 1034.98 410.4 1035 430C1014.21 430 993.42 430 972 430C972 402.94 972 375.88 972 348C977.61 348 983.22 348 989 348C989 315.66 989 283.32 989 250C1002.86 250 1016.72 250 1031 250C1031 243.07 1031 236.14 1031 229Z" fill="#DBBE8F"/><path d="M331 287C340.9 287 350.8 287 361 287C361 290.63 361 294.26 361 298C368.92 298 376.84 298 385 298C385 320.44 385 342.88 385 366C386.32 366 387.64 366 389 366C389 355.44 389 344.88 389 334C397.91 334 406.82 334 416 334C416 344.56 416 355.12 416 366C417.65 366.33 419.3 366.66 421 367C421 390.76 421 414.52 421 439C415.72 439 410.44 439 405 439C405 453.19 405 467.38 405 482C397.08 482 389.16 482 381 482C381 462.2 381 442.4 381 422C373.08 422 365.16 422 357 422C357 410.78 357 399.56 357 388C355.02 388 353.04 388 351 388C351 367.21 351 346.42 351 325C346.38 325 341.76 325 337 325C337 318.4 337 311.8 337 305C335.02 305 333.04 305 331 305C331 299.06 331 293.12 331 287Z" fill="#DABF8F"/><path d="M898 342C908.56 342 919.12 342 930 342C930.5 350.4 930.5 350.4 931 359C930.34 359 929.68 359 929 359C929 362.3 929 365.6 929 369C931.97 369 934.94 369 938 369C938 385.5 938 402 938 419C941.3 419 944.6 419 948 419C948 439.79 948 460.58 948 482C926.55 482 905.1 482 883 482C883 445.04 883 408.08 883 370C887.95 370 892.9 370 898 370C898 360.76 898 351.52 898 342Z" fill="#F2E5B5"/><path d="M9 172C12.3 172 15.6 172 19 172C19 172.33 19 172.66 19 173C16.03 173 13.06 173 10 173C10 229.43 10 285.86 10 344C21.55 344 33.1 344 45 344C45 389.54 45 435.08 45 482C30.15 482 15.3 482 0 482C0 436.13 0 390.26 0 343C7 342 7 342 8 342C8.33 285.9 8.66 229.8 9 172Z" fill="#F1E4B5"/><path d="M133.5 345C134.2 345 134.84 345 135.5 345C137.7 345 139.9 345.08 142.07 345.12C143.43 345.1 144.79 345.2 146.15 345.2C151.1 345.3 156.1 345.3 161.1 345.4C177.9 345.7 177.9 345.7 195 346C195 371.7 195 397.5 195 424C190.38 424 185.76 424 181 424C181 441.5 181 459 181 477C177.7 477 174.4 477 171 477C171 470.4 171 463.8 171 457C164.73 457 158.46 457 152 457C152 430.6 152 404.2 152 377C140.78 377 129.56 377 118 377C118 411.6 118 446.3 118 482C116.35 482 114.7 482 113 482C113 448 113 414 113 379C113.99 379 114.98 379 116 379C116 368.1 116 357.2 116 346C122.1 345.39 127.5 344.9 133.5 345Z" fill="#DABE8F"/><path d="M685 76C685.99 76 686.98 76 688 76C688 102.4 688 128.8 688 156C692.29 156 696.58 156 701 156C701 160.95 701 165.9 701 171C704.63 171 708.26 171 712 171C712 202.68 712 234.36 712 267C704.08 267 696.16 267 688 267C688 258.09 688 249.18 688 240C679.75 240 671.5 240 663 240C662.67 309.96 662.34 379.92 662 452C660.35 452.33 658.7 452.66 657 453C657 433.53 657 414.06 657 394C657.99 394 658.98 394 660 394C660 320.08 660 246.16 660 170C663.96 170 667.92 170 672 170C672 165.38 672 160.76 672 156C676.29 156 680.58 156 685 156C685 129.6 685 103.2 685 76Z" fill="#CDA380"/><path d="M118 377C129.22 377 140.44 377 152 377C152 403.4 152 429.8 152 457C158.27 457 164.54 457 171 457C171 463.6 171 470.2 171 477C174.3 477 177.6 477 181 477C181 459.51 181 442.02 181 424C187.6 424 194.2 424 201 424C201 443.14 201 462.28 201 482C173.61 482 146.22 482 118 482C118 447.35 118 412.7 118 377Z" fill="#F2E5B5"/><path d="M580 219C598.81 219 617.62 219 637 219C637 237.48 637 255.96 637 275C624.79 275 612.58 275 600 275C600 286.55 600 298.1 600 310C592.74 310 585.48 310 578 310C578 306.37 578 302.74 578 299C578.66 299 579.32 299 580 299C580 272.6 580 246.2 580 219Z" fill="#CDA27F"/><path d="M57 405C67.23 405 77.46 405 88 405C88 420.84 88 436.68 88 453C91.96 453 95.92 453 100 453C100.99 453.5 100.99 453.5 102 454C102.5 453.01 102.5 453.01 103 452C103.99 452.33 104.98 452.66 106 453C106 462.57 106 472.14 106 482C89.83 482 73.66 482 57 482C57 456.59 57 431.18 57 405Z" fill="#F2E4B5"/><path d="M805 195C805.99 195 806.98 195 808 195C808 211.17 808 227.34 808 244C815.59 244 823.18 244 831 244C831 276.01 831 308.02 831 341C828.03 341 825.06 341 822 341C822 320.21 822 299.42 822 278C811.11 278 800.22 278 789 278C789 285.92 789 293.84 789 302C785.7 302 782.4 302 779 302C779 282.86 779 263.72 779 244C787.58 244 796.16 244 805 244C805 227.83 805 211.66 805 195Z" fill="#CCA27F"/><path d="M362 298C369.3 298 376.5 298 384 298C384 320.77 384 343.54 384 367C385.6 367 387.3 367 389 367C389 372.61 389 378.22 389 384C379.8 384 370.5 384 361 384C361 372.9 361 361.9 360.9 350.8C360.9 345.7 360.9 340.5 360.9 335.4C360.9 330.4 360.9 325.5 360.9 320.53C360.9 318.6 360.9 316.7 360.9 314.8C360.9 312.2 360.9 309.56 360.9 306.9C360.9 306.1 360.9 305.3 360.9 304.5C360.9 299.1 360.9 299.1 362 298Z" fill="#CDA27F"/><path d="M987 431C1003.5 431 1020 431 1037 431C1037 447.83 1037 464.66 1037 482C1020.5 482 1004 482 987 482C987 465.17 987 448.34 987 431Z" fill="#F1E4B4"/><path d="M45 344C45.33 344 45.66 344 46 344C46 371.39 46 398.78 46 427C49.63 427 53.26 427 57 427C57 445.15 57 463.3 57 482C53.04 482 49.08 482 45 482C45 436.46 45 390.92 45 344Z" fill="#D9BE8F"/><path d="M956 437C966.23 437 976.46 437 987 437C987 451.85 987 466.7 987 482C976.77 482 966.54 482 956 482C956 467.15 956 452.3 956 437Z" fill="#DBBF90"/><path d="M972 415C982.23 415 992.46 415 1003 415C1003 429.85 1003 444.7 1003 460C992.77 460 982.54 460 972 460C972 445.15 972 430.3 972 415Z" fill="#DBBF90"/><path d="M416 367C417.65 367 419.3 367 421 367C421 390.76 421 414.52 421 439C419.35 439 417.7 439 416 439C416 415.24 416 391.48 416 367Z" fill="#CBA780"/><path d="M1012 87C1013.32 87 1014.64 87 1016 87C1016 133.86 1016 180.72 1016 229C1015.67 229 1015.34 229 1015 229C1014.67 205.24 1014.34 181.48 1014 157C1013.34 157 1012.68 157 1012 157C1012 133.9 1012 110.8 1012 87Z" fill="#D1B090"/><path d="M457 214C457.33 214 457.66 214 458 214C458 251.62 458 289.24 458 328C459.98 328 461.96 328 464 328C464 339.22 464 350.44 464 362C474.23 362 484.46 362 495 362C495 401.6 495 441.2 495 482C494.67 482 494.34 482 494 482C494 442.73 494 403.46 494 363C483.77 363 473.54 363 463 363C462.6 351.6 462.6 351.6 462.4 348C462.19 342 461.8 336 461 330C459.68 329.67 458.36 329.34 457 329C457 291.05 457 253.1 457 214Z" fill="#E7D2A3"/><path d="M384 298C384.33 298 384.66 298 385 298C385 320.44 385 342.88 385 366C386.32 366 387.64 366 389 366C389 355.44 389 344.88 389 334C390.65 334 392.3 334 394 334C393.7 334.7 393.3 335.4 393 336.1C391.9 339.4 391.8 341.92 391.8 345.4C391.8 346.6 391.8 347.8 391.8 349C391.8 350.3 391.9 351.5 391.9 352.8C391.9 354.71 391.9 354.71 391.9 356.6C391.9 359.8 392 362.9 392 366C390 367 390 367 384 367C384 344.23 384 321.46 384 298Z" fill="#DEC6A3"/><path d="M89 406C89.33 406 89.66 406 90 406C90 415.9 90 425.8 90 436C91.98 436 93.96 436 96 436C96 438.64 96 441.28 96 444C97.32 444 98.64 444 100 444C100 446.97 100 449.94 100 453C96.04 453 92.08 453 88 453C88 450.03 88 447.06 88 444C90.31 444 92.62 444 95 444C95 441.69 95 439.38 95 437C93.02 437 91.04 437 89 437C89 426.77 89 416.54 89 406Z" fill="#D7BC93"/><path d="M805 195C805.99 195 806.98 195 808 195C808 211.17 808 227.34 808 244C807.01 244 806.02 244 805 244C805 227.83 805 211.66 805 195Z" fill="#CCAE95"/><path d="M457 214C457.33 214 457.66 214 458 214C458 251.62 458 289.24 458 328C459.65 328 461.3 328 463 328C463 331.63 463 335.26 463 339C462.67 339 462.34 339 462 339C461.67 336.03 461.34 333.06 461 330C459.68 329.67 458.36 329.34 457 329C457 291.05 457 253.1 457 214Z" fill="#E8D9BA"/><path d="M1035 431C1036.65 431 1038.3 431 1040 431C1041.4 456 1041.4 456 1040 466C1039.01 466 1038.02 466 1037 466C1036.07 454.5 1036.07 443.5 1037 432C1036.34 431.67 1035.68 431.34 1035 431Z" fill="#CAA380"/><path d="M421 367C421.99 367 422.98 367 424 367C423.8 368.5 423.8 368.5 423.52 370.1C422.7 376.6 422.8 383.2 422.7 389.8C422.7 391.2 422.6 392.6 422.6 394.1C422.6 397.8 422.5 401.5 422.5 405.2C422.4 409 422.4 412.8 422.3 416.6C422.2 424.1 422.1 431.5 422 439C421.67 439 421.34 439 421 439C421 415.24 421 391.48 421 367Z" fill="#F6DFB3"/><path d="M580 219C598.81 219 617.62 219 637 219C636.67 219.66 636.34 220.32 636 221C635.4 221 634.7 221 634.1 220.98C627.37 220.9 620.7 220.9 614 220.8C611.5 220.82 609 220.8 606.5 220.8C602.9 220.7 599.35 220.72 595.8 220.7C594.6 220.7 593.5 220.7 592.4 220.66C591.3 220.66 590.3 220.66 589.2 220.7C587.9 220.6 587.9 220.6 586.5 220.6C583.6 221.1 582.2 222.1 580 224C580 222.35 580 220.7 580 219Z" fill="#C2A384"/><path d="M573 269C573.33 269 573.66 269 574 269C574 277.25 574 285.5 574 294C575.98 294.33 577.96 294.66 580 295C580 295.99 580 296.98 580 298C579.34 298 578.68 298 578 298C578 297.34 578 296.68 578 296C576.02 296 574.04 296 572 296C571.8 277 571.8 277 573 269Z" fill="#F5E3C3"/><path d="M327.6 260.9C328.8 261 328.8 261 330 261C329.67 261.66 329.34 262.32 329 263C328.01 263.33 327.02 263.66 326 264C325.67 275.88 325.34 287.76 325 300C324.67 300 324.34 300 324 300C324 294.6 324 289.2 323.9 283.82C323.94 282 323.9 280.1 323.9 278.3C323.9 275.7 323.9 273 323.9 270.41C323.9 269.6 323.9 268.8 323.9 267.9C323.9 265.9 323.9 264 324 262C325 261 325 261 327.6 260.9Z" fill="#FDE2B8"/><path d="M443 328C439.6 329.8 436.8 330.1 433 330C427.7 329.9 427.7 329.9 423 332C422.1 334.5 422.1 334.5 422 337C421.67 337 421.34 337 421 337C420.9 330.25 420.9 330.25 422 328C425.1 327.8 428.25 327.62 431.4 327.4C432.7 327.4 432.7 327.4 434.07 327.3C435.3 327.2 435.3 327.2 436.6 327.1C437.4 327.1 438.2 327 439 327C441 327 441 327 443 328Z" fill="#F2E5BE"/><path d="M684 151C684.33 151 684.66 151 685 151C685 152.65 685 154.3 685 156C681.37 156 677.74 156 674 156C674 155.34 674 154.68 674 154C677.3 153.67 680.6 153.34 684 153C684 152.34 684 151.68 684 151Z" fill="#FBE4C7"/><path d="M457 326C457.33 326.66 457.66 327.32 458 328C459.65 328 461.3 328 463 328C463 331.63 463 335.26 463 339C462.67 339 462.34 339 462 339C461.67 336.03 461.34 333.06 461 330C459.68 329.67 458.36 329.34 457 329C457 328.01 457 327.02 457 326Z" fill="#F7E3B5"/><path d="M90 432C92.64 432.66 95.28 433.32 98 434C96 436 96 436 92.9 436.1C91.5 436.1 91.5 436.1 90 436C90 434.68 90 433.36 90 432Z" fill="#F9E5C7"/><rect x="405" y="439" width="90" height="43" fill="#F2E5B5"/><rect x="494" y="363" width="76" height="72" transform="rotate(90 494 363)" fill="#F2E5B5"/><rect x="463" y="329" width="34" height="41" transform="rotate(90 463 329)" fill="#F2E5B5"/></svg>