<svg width="205" height="380" viewBox="0 0 205 380" fill="none" xmlns="http://www.w3.org/2000/svg"><path d="M57.1 214.5C55.6 214.5 24.3 214.5 10 214.5C2.4 214.5 0 211.64 0 204.5C0 185.5 0 166 0 147C0 139.3 2.9 137 10 137H57.1C57.1 135.5 57.1 107.96 57.1 95.1C57.1 76.1 60.4 58 69.9 41.4C79.9 24.3 94.2 12.8 112.24 6.2C124.13 1.9 136.02 0 148.9 0H195.5C202.1 0 205 2.9 205 9.5V63.7C205 70.4 202.1 73.2 195.5 73.2C182.6 73.2 169.8 73.2 156.9 73.7C144.1 73.7 137.4 79.9 137.4 93.2C137 107.5 137.4 121.3 137.4 136.02H192.6C200.2 136.02 203.1 138.9 203.1 146.5V204.03C203.1 211.64 200.7 214 192.6 214C175.5 214 138.9 214 137.4 214V369.1C137.4 377.1 135.1 380 126.5 380C106.5 380 87 380 67.1 380C59.9 380 57.1 377.1 57.1 370C57.1 320.1 57.1 215.92 57.1 214.5Z" fill="white"/></svg>