<svg width="426" height="703" viewBox="0 0 426 703" fill="none" xmlns="http://www.w3.org/2000/svg"><path d="M205.9 1.8C190 4.2 172 9 164.8 12.8C147.2 21.6 134.8 39.8 118.5 80.5C102.8 119.7 95.2 145 91.9 169.8C91.1 175.7 90 202 89.6 228.1C88.8 282.2 90 277.3 75.9 283.2C47.6 294.9 32.4 306.5 24.1 322.6C19.3 332 18.8 338.9 21.7 353C24.1 363.7 23.3 366.2 13.3 381.2C1.2 399.3 -0.1 405.2 0 436.4C0.1 464 0.9 470.1 4 469.4C15.7 466.6 20.7 467.7 23.2 473.7C24.8 477.6 24.8 481 23.1 498.6C20.3 527.8 20.3 534 23.3 537.3C26.5 540.9 32 540.1 34.3 535.8C36.1 532.2 35.6 514.5 33.2 504.5C30.5 493.3 32.1 482 38.4 465.2C41.6 456.9 43.5 453.6 44.4 454.5C46 456.2 47.9 486.2 49.2 530.5C50 557.3 50.8 586.1 51.1 594.5C51.7 615.8 49.7 653.8 47.1 668.1C43.5 687.4 46.1 701.8 53.2 701.8C60.4 701.8 62.8 687.7 59.2 664.5C56.8 648.2 54.7 593.8 54.5 543.2C54.5 525.6 53.9 501.8 53.1 490.5C51.5 468.5 52.5 461.2 57.5 458.1C62.7 454.8 77.7 463.2 86 474.1C98 489.8 100.3 510.6 96 564.5C94.4 585 92.1 606.6 90.9 612.5C88.1 627 88.3 637.2 91.3 643.4C96.1 653.2 103.3 648.8 104.9 635.2C105.2 632.1 104.3 620.8 102.7 609.7C99.3 585.3 98.7 571.3 100.1 553.2C102.7 523.3 110.1 504.1 125.7 488.6C135.1 479.3 148.7 470.5 157.9 468C167.1 465.4 176.9 470.1 182.1 479.3C192.8 498.6 192.8 576.2 182 606.4C178.8 615.2 179.2 622 183.2 625.8C187.1 629.8 189.2 630 193.3 626.6C197.3 623.4 197.3 617.4 193.3 602.5L190.1 591.2L192.5 575.2C193.9 565.7 195.2 543.8 195.9 521.8C196.5 499.4 197.6 482.9 198.5 480.5C201.2 473.7 206.4 468 213.3 464.4C226.5 457.8 228 461.3 228.9 499.2C229.5 525.4 229.2 528.4 225.9 546.5C221.7 568.5 221.3 578.5 224.4 585.6C228.3 595 234.4 592.8 237.3 580.9C238.5 575.6 238.5 571.2 237.2 560C235.1 543.4 235.2 522.8 237.2 481.2C238.9 447.2 239.9 442.5 244.8 438.5C249.2 435 252.8 435.4 256 439.8C261.1 446.6 261.5 455.6 260.7 544C259.7 633.3 259.7 634.8 253.3 649.4C247.9 662.2 248.5 670.8 255.5 677.7C259.9 682.1 267.3 682.4 272.4 678.4C281.2 671.4 282.7 658.9 276.3 645C274 640.4 271.5 633.4 270.7 629.6C268.3 619.7 267.1 598.8 268 584C268.7 572.4 269.1 571.2 272.4 568.2C279.3 562.4 283.7 564.5 289.2 576.2C292.9 584.2 295.9 586 301.2 583.2C309.7 578.8 314.1 566.2 315.7 542.4C316.4 532.9 317.2 524.6 317.7 524.1C319.2 522.6 323.1 525.8 324.4 529.6C325.3 532 324.8 541.7 323.2 559C320.5 587 320.8 589.2 327.2 589.2C332.9 589.2 334.9 584.9 334 574.9C330.8 540.8 331.5 534.6 339.2 517.7C343.5 508.4 348.8 502.5 353.3 502.5C357.3 502.5 363.6 508.9 369.1 518.9C384.7 547.2 387.3 581.2 377.1 620.9C371.9 641 372 644.2 377.9 650.1C381.5 653.7 383.1 654.5 385.5 653.8C389.9 652.4 392 650.4 394.1 645.6C396.7 639.4 396.4 635.7 392.3 622.8L388.7 611.3L390.4 586.6C392 563.4 397.5 503.4 399.3 488.5C400.9 475.8 402.3 486.5 403.9 526C406 576.8 404.9 652.6 402 666.5C398 685.4 400.3 701.2 407.3 702.2C411.2 702.8 412.7 700.5 414.7 691C416 684.2 416 679.7 414 662.4C410.8 634 408.9 581.4 409.5 533.2C409.9 487.7 410.3 485.8 420.4 470C425.1 462.8 425.2 462.1 425.2 450.1C425.1 428.5 422.8 399.8 420.5 393C419.3 389.4 414.4 379.7 409.7 371.6C400.4 355.2 399.3 349.8 403.2 339.2C407.6 326.8 405.1 318.4 393.7 307.2C385.6 299.2 373.6 292.5 355.9 285.8C350.4 283.8 344.8 281.2 343.5 279.8C340.8 277.4 341.1 280.8 338.5 210.5C336.4 154.1 334.4 135.8 326.4 104.6C321.3 84.4 314.9 67.3 304.9 46.9C292.4 21.4 278.3 8.1 257.5 2.4C246.9 -0.6 222.7 -0.8 205.9 1.8ZM261.5 30.4C268.9 32.8 277.3 39.8 280.9 46.8C283.3 51.4 285.6 61.4 289.3 84.1C295.9 123 298.3 132.4 305.1 147.2C312.1 162.1 313.7 168.8 312.8 178.2C311.6 189.3 309.6 195.3 305.2 200.4C299.5 206.8 295.3 207.2 277.5 203C271.7 201.8 274.9 205.4 283.3 209.7C289.6 213 291.3 214.6 291.6 217.3C292.8 227.4 276 280.9 263.2 307.8C257.3 320.4 253.5 330.8 250.7 341.8C243.5 370.6 235.7 391 229.5 397.6C225.5 401.7 217.6 404.4 212.5 403C210 402.4 208 400.1 205.3 394.6C199.9 384 198.7 378.8 197.2 358.5C194.7 325.4 190.5 308.6 176.5 272.5C167.6 249.7 155.9 214.6 155.9 211C155.9 207.8 156.9 207.3 165.6 205.7C172.5 204.5 171.7 202.9 163.6 201.8C152.4 200.5 148.4 198.8 143.3 193.2C137.9 187.2 135.9 181.3 134.9 168.5C134.3 160.2 134.9 156.5 139.6 139.2C142.7 128.1 147.2 110.5 149.9 99.8C159.7 60 164.1 48.8 173.2 40C179.5 33.8 185.9 30.6 194.4 29.2C203.6 27.6 255.6 28.5 261.5 30.4Z" fill="black"/><path d="M196.9 100.8C194.3 103.6 189.5 110.6 186.4 116.5C180.8 126.9 178 130.1 157.3 149.4C147.7 158.5 145.6 163 149.6 166.1C152.3 168.2 166.4 173.2 169.9 173.2C176.5 173.2 185.7 167.7 195.2 158.1C210.7 142.4 217.9 124.4 214.8 109.6C211.7 94.6 205.7 91.7 196.9 100.8Z" fill="black"/><path d="M241.3 99C240.4 100.1 239.1 104.6 238.3 109.2C234.9 126.8 242.7 148.2 257.7 163.2C271.2 176.5 277.1 178.1 290.4 171.4C302.3 165.6 301.1 162 281.7 143.2C270.8 132.6 268.7 129.7 263.9 119.2C257.6 105.6 255.9 103.2 248.9 99.7C243.1 96.6 243.2 96.6 241.3 99Z" fill="black"/><path d="M219.9 172.8C213.3 177.3 207.9 185.2 207.9 190.1C207.9 194 209.9 194.4 226.9 194.4C240.1 194.2 241.2 194.1 241.2 191.7C241.2 187.6 235.1 176.4 231.1 173.3C226.8 170 224.1 169.8 219.9 172.8Z" fill="black"/><path d="M209.7 226.2C199.6 231 196.8 237 194.5 258.5C193.2 270.5 193.5 274.1 200.9 328.4C208.1 381.4 208.9 385.7 211.7 388.1C215.2 390.8 220 391.2 224 389.2C233.5 384 244.5 338.4 249.6 282.1C251.2 265.3 250.8 250.5 248.5 241.6C245.5 228.8 223.1 220 209.7 226.2Z" fill="black"/></svg>