<?xml version="1.0" standalone="no"?><!DOCTYPE svg PUBLIC "-//W3C//DTD SVG 20010904//EN"
 "http://www.w3.org/TR/2001/REC-SVG-20010904/DTD/svg10.dtd"><svg version="1.0" xmlns="http://www.w3.org/2000/svg"
 width="1264pt" height="1280pt" viewBox="0 0 1264 1280"
 preserveAspectRatio="xMidYMid meet"><metadata>
Created by potrace 1.15, written by Peter Selinger 2001-2017
</metadata><g transform="translate(0,1280) scale(0.1,-0.1)"
fill="#000000" stroke="none"><path d="M2407 12785 c-336 -57 -545 -227 -673 -549 -68 -168 -103 -364 -104
-564 l0 -113 -42 -18 c-24 -10 -74 -31 -113 -47 -251 -104 -607 -364 -815
-596 -99 -110 -149 -191 -175 -283 -9 -33 -34 -114 -56 -180 -60 -185 -78
-277 -90 -445 -12 -173 -6 -328 17 -409 24 -86 95 -243 125 -278 15 -18 36
-57 45 -88 17 -54 17 -57 -4 -118 -60 -173 -94 -402 -112 -747 -5 -91 -13
-217 -19 -280 -6 -63 -14 -142 -17 -175 l-5 -61 -44 -13 c-58 -17 -65 -39 -71
-241 -6 -178 -19 -230 -75 -311 -77 -113 -164 -324 -171 -419 l-3 -35 78 -3
c52 -2 77 -7 77 -15 0 -7 9 -88 20 -182 23 -196 55 -393 111 -690 22 -115 46
-246 54 -291 18 -112 55 -186 131 -261 l63 -62 -15 -43 c-71 -200 -148 -586
-159 -793 -3 -66 -16 -201 -27 -300 -20 -162 -20 -195 -10 -330 14 -179 50
-400 96 -585 22 -88 30 -141 25 -152 -17 -32 -8 -74 37 -183 25 -60 54 -131
64 -157 13 -32 21 -85 26 -170 4 -68 16 -157 26 -198 24 -95 24 -84 3 -220
-24 -159 -23 -301 4 -427 11 -55 21 -134 21 -175 1 -109 13 -155 50 -193 56
-57 120 -80 230 -80 124 0 185 21 252 85 l49 48 -2 153 c-2 133 1 166 21 242
21 83 25 90 66 118 38 26 44 35 44 64 0 23 5 35 14 35 20 0 26 33 26 161 0
226 -44 374 -137 460 l-47 43 -17 120 c-13 94 -15 132 -7 171 6 27 8 84 5 125
-5 64 -2 86 18 142 35 95 53 213 66 433 9 148 9 223 1 321 -18 189 -16 231 7
239 34 10 89 82 105 135 19 62 36 199 33 255 -2 37 1 41 36 58 105 50 213 249
231 428 10 97 -29 257 -116 471 -39 96 -39 97 -21 124 l18 28 7 -30 c97 -391
241 -702 435 -940 39 -48 51 -74 80 -172 24 -86 33 -136 33 -192 0 -71 3 -80
43 -151 l43 -76 -23 -21 c-28 -25 -29 -56 -4 -113 28 -62 61 -235 61 -314 l0
-68 33 6 c17 3 40 8 50 12 15 6 17 1 17 -43 0 -28 -9 -97 -20 -154 -27 -144
-90 -584 -90 -638 -1 -25 -7 -79 -15 -120 -37 -194 -47 -304 -42 -455 4 -109
12 -170 27 -225 12 -41 23 -106 24 -145 2 -38 8 -131 14 -205 22 -272 18 -310
-55 -473 l-35 -78 26 -52 c26 -51 26 -55 23 -227 -2 -132 -7 -191 -21 -239
-16 -57 -17 -76 -7 -152 6 -48 22 -121 35 -161 14 -40 27 -111 31 -158 3 -47
8 -107 11 -134 l6 -48 47 6 c122 16 392 38 536 44 l160 7 3 78 c2 42 6 77 11
77 14 0 147 -47 179 -64 27 -14 32 -22 32 -51 l0 -35 53 0 c46 0 56 3 65 23 8
16 11 17 11 6 2 -35 25 -39 76 -15 87 41 92 52 94 196 1 149 -12 208 -57 260
-38 45 -128 91 -213 109 -49 10 -61 18 -104 67 -26 31 -63 63 -81 72 -19 8
-37 25 -40 36 -3 12 -20 44 -36 72 -28 48 -34 52 -75 57 -24 2 -47 8 -50 11
-4 4 1 21 11 38 21 35 24 124 6 158 -8 16 -9 25 -1 29 15 10 41 76 41 106 0
14 11 42 25 63 31 48 52 109 65 189 6 35 28 105 50 156 24 55 40 108 40 131 0
38 25 88 179 361 91 159 106 248 72 410 -14 65 -10 230 8 370 29 217 61 574
61 685 0 76 -5 101 -30 165 -29 74 -30 76 -15 132 19 73 20 199 2 210 -10 6
-17 67 -26 228 -12 219 -17 274 -65 705 -14 124 -36 356 -51 515 -37 424 -43
482 -71 675 -29 206 -56 358 -89 494 -28 116 -23 141 20 96 16 -16 34 -30 41
-30 27 0 154 316 154 382 0 46 -113 175 -138 159 -9 -5 -41 11 -93 46 -44 29
-130 81 -190 114 l-109 61 0 69 0 68 69 -35 c39 -19 102 -46 141 -59 l71 -24
9 25 c29 76 70 353 70 476 0 35 7 86 15 113 19 61 90 411 106 515 6 41 21 148
33 238 l22 163 -29 52 c-17 29 -57 78 -89 109 l-59 56 55 84 c30 46 73 119 96
163 36 70 49 85 103 121 34 22 87 63 117 91 l55 50 75 -69 c91 -84 217 -172
327 -227 45 -23 84 -41 89 -41 4 0 25 -15 48 -34 93 -76 186 -106 329 -106
175 0 317 43 397 122 73 70 75 79 75 298 0 163 -4 214 -23 309 -26 130 -41
163 -109 243 -85 101 -248 225 -362 275 -31 13 -158 74 -283 135 l-226 110 -7
57 c-9 76 -33 167 -55 211 -39 76 -180 192 -286 235 l-39 15 0 248 c0 259 -6
321 -51 499 -56 230 -158 395 -302 495 -172 119 -476 175 -725 133z"/><path d="M9745 11680 c-77 -8 -185 -43 -253 -82 -79 -45 -224 -188 -286 -282
-92 -139 -126 -260 -126 -446 0 -64 -5 -91 -26 -137 -15 -34 -28 -85 -31 -123
-4 -57 -2 -69 19 -100 15 -23 38 -40 66 -50 40 -14 47 -13 107 8 102 35 109
33 129 -40 9 -35 33 -112 52 -172 19 -59 34 -109 32 -111 -44 -37 -238 -142
-313 -170 -204 -76 -294 -133 -421 -268 -132 -140 -350 -450 -477 -678 -68
-121 -170 -427 -257 -769 -23 -91 -54 -196 -69 -235 -24 -64 -26 -81 -24 -210
1 -87 9 -187 22 -265 24 -142 54 -380 49 -385 -2 -2 -95 -22 -207 -45 -214
-43 -251 -54 -263 -73 -6 -9 -13 -6 -26 9 -9 11 -61 57 -114 103 -104 87 -151
108 -177 77 -11 -14 -9 -43 14 -186 17 -103 25 -174 19 -179 -5 -5 -70 -19
-144 -30 -74 -11 -238 -39 -365 -60 -138 -24 -234 -36 -241 -30 -6 4 -26 6
-45 3 -19 -3 -43 -7 -54 -8 -11 -1 -32 -7 -46 -13 -14 -6 -51 -14 -82 -18 -32
-4 -60 -11 -63 -16 -6 -11 6 -102 16 -118 5 -10 17 -10 50 -1 24 6 67 12 97
13 29 1 53 4 53 8 0 3 11 4 25 1 16 -3 25 0 25 9 0 10 3 10 12 1 10 -10 16 -9
28 6 12 15 80 30 363 76 191 32 353 55 360 53 9 -4 9 -6 0 -6 -18 -1 -16 -36
2 -54 8 -9 24 -13 35 -10 11 3 20 0 20 -6 0 -7 10 -9 28 -5 37 9 36 8 33 59
-2 49 -7 46 96 63 50 9 52 8 73 -20 11 -16 25 -26 29 -24 5 3 17 -4 27 -15 15
-17 26 -20 59 -14 166 27 418 65 429 65 7 0 18 -10 23 -23 15 -32 136 -113
206 -137 32 -11 84 -23 115 -26 l58 -6 31 38 c16 22 58 85 94 142 39 64 71
104 84 107 49 12 580 92 584 89 2 -2 -10 -19 -27 -38 -118 -135 -156 -243
-187 -542 -11 -105 -22 -163 -35 -190 -34 -66 -28 -91 41 -160 l60 -61 -24
-64 c-38 -99 -136 -308 -173 -369 -46 -76 -54 -122 -44 -254 12 -159 39 -266
80 -326 16 -22 19 -58 23 -275 5 -268 13 -323 90 -582 l25 -83 -50 -37 c-55
-42 -127 -132 -164 -206 -32 -61 -50 -197 -32 -227 7 -11 42 -44 78 -72 36
-29 84 -67 108 -86 24 -19 52 -54 65 -81 32 -68 106 -135 200 -180 68 -33 87
-48 114 -88 43 -64 69 -127 93 -226 46 -190 154 -330 311 -405 46 -23 113 -46
149 -52 100 -18 105 -20 206 -95 82 -61 94 -74 94 -100 1 -47 17 -109 62 -227
l40 -109 -21 -107 c-26 -133 -41 -329 -41 -528 0 -178 13 -292 41 -350 44 -93
156 -186 265 -221 l53 -16 68 33 c97 47 218 171 266 271 48 102 85 224 104
348 20 127 9 239 -33 332 -26 57 -27 67 -28 238 -1 99 1 181 4 184 3 3 27 0
54 -6 45 -10 50 -9 67 11 48 60 92 229 93 357 1 109 -12 169 -55 256 -63 127
-228 213 -375 194 l-54 -6 0 35 c0 40 4 42 52 22 58 -25 59 -21 48 190 -39
750 -62 930 -126 1007 -26 31 -30 70 -11 103 7 11 44 48 82 81 131 113 223
220 270 313 65 129 265 957 312 1294 l18 125 30 -7 c58 -13 367 -8 410 7 79
28 129 83 150 166 19 76 1 827 -21 898 -4 14 7 23 52 43 l58 26 165 -27 c92
-15 200 -29 241 -32 71 -5 77 -4 108 22 30 25 32 31 32 88 -1 34 -7 111 -14
171 l-14 109 34 49 c18 27 37 66 41 86 15 71 8 400 -12 512 -59 350 -241 745
-496 1081 -76 101 -231 263 -314 329 -65 52 -238 151 -490 282 l-160 83 -45
75 c-55 90 -75 99 -222 105 -108 4 -141 16 -223 76 -73 53 -183 116 -270 154
-42 18 -78 35 -81 38 -3 3 8 27 25 53 16 27 35 68 43 92 9 31 18 42 33 42 16
0 134 -30 227 -57 38 -11 50 146 13 186 -9 11 -29 24 -44 31 l-29 11 -6 132
c-18 341 -116 564 -316 718 -147 114 -333 168 -515 149z m1732 -3370 c7 -134
23 -175 117 -300 66 -87 70 -113 24 -157 -77 -73 -201 -163 -224 -163 -24 0
-24 1 -24 93 0 156 46 640 67 712 11 38 34 -66 40 -185z m-2411 -259 c-24 -40
-52 -100 -61 -135 l-17 -63 41 -135 c23 -74 55 -174 71 -223 16 -49 28 -90 26
-92 -5 -5 -299 -64 -302 -61 -1 2 6 35 16 73 22 81 24 155 7 205 -11 32 -10
39 20 83 17 27 43 88 58 135 14 48 36 107 48 132 21 42 125 165 134 157 2 -2
-16 -37 -41 -76z m-1725 -958 c90 -72 90 -92 4 -110 -94 -19 -114 -17 -125 13
-14 37 -12 64 5 64 11 0 15 11 15 38 0 69 11 68 101 -5z m64 -173 c3 -5 -2
-10 -12 -11 -10 0 -40 -4 -66 -8 -33 -6 -47 -5 -44 3 6 19 112 33 122 16z"/></g></svg>