<svg width="120" height="668" viewBox="0 0 120 668" fill="none" xmlns="http://www.w3.org/2000/svg"><path d="M27.7 531.1L27.7 139.41L91.7 139.41L91.7 531.1L27.7 531.1Z" fill="black"/><path d="M91.8 107.89L91.8 107.3H27.7L27.8 123.3L91.7 123.3L91.8 107.89Z" fill="black"/><path d="M58 665.7C58.21 666.5 58.9 667.07 59.7 667.1C60.6 667.07 61.3 666.5 61.5 665.7L66 643.1L53.5 643.1L58 665.7Z" fill="black"/><path d="M50 627.1L69.5 627.1L89.5 547.1L30 547.1L50 627.1Z" fill="black"/><path d="M75.7 19.3L43.8 19.3C39.3 19.3 35.7 22.9 35.8 27.3L35.8 59.4L83.7 59.4L83.7 27.3C83.7 22.9 80.1 19.3 75.7 19.3Z" fill="black"/><path d="M27.7 91.4L27.7 75.4L91.7 75.4L91.7 91.4L27.7 91.4Z" fill="black"/></svg>