<svg width="628" height="1200" viewBox="0 0 628 1200" fill="none" xmlns="http://www.w3.org/2000/svg"><path d="M402 1200C399.6 1200 397.3 1200 394.4 1199.66C385.2 1194.52 380.2 1186.64 376.2 1178C376 1177.55 375.7 1177.12 375.4 1176.72C366 1164.16 363.3 1150.2 366.3 1134.94C366.7 1133.15 366.6 1131.29 366.8 1129.46C368.3 1107.73 371.3 1085.96 364.5 1064.53C364.2 1063.59 364.4 1062.47 364.02 1061.58C363.3 1059.85 362.8 1057.51 361.4 1056.66C354.9 1052.68 348.5 1048.46 341.5 1045.56C332.8 1041.96 325.3 1037.14 319.3 1029.99C311.1 1020.34 304 1010.12 297.4 999.2C284.8 978.6 269.6 959.9 244 954.2C242 953.8 240.18 953 238.26 952.44C232.2 950.8 227.8 946.89 224.2 941.9C216.98 932.1 207.6 925.5 195.9 921.9C184.3 918.42 172.9 914.4 162.9 906.9C146.7 894.84 131.16 882.6 128.3 860.4C127.1 851.6 119.7 846.4 113.87 840.6C108.7 835.5 107.7 829.8 110.9 823.3C113.2 818.6 115.5 813.8 117.78 809C120.2 803.7 120.8 798.3 117.4 793.2C113.4 787.4 113.1 781.39 114.6 774.68C116.7 765 120.7 755.8 118.3 745.3C115.9 735.2 111.3 729.8 101 728C98.4 727.49 96.8 728 95.2 730.3C90.5 737.6 85.8 744.8 80.6 751.8C63 775.4 48.2 800.5 38.5 828.4C37.2 832.1 35.1 835.5 33.2 839.3C29.6 836.3 26.6 833.69 23.4 831.3C19.3 828.22 17.2 824.4 16.7 819.1C16 810.7 15 802.3 13.8 793.9C12.7 785.7 13.2 776.9 7.5 770.1C3.6 765.49 1.8 760.4 1.6 754.6C1.4 749.7 1.8 744.6 1.5 739.7C1.2 733.8 0.5 727.9 3.4e-09 722C-10e-07 720.9 -1e-06 719.9 0.3 718.3C5.5 708 9.3 697.4 15.3 688.4C27 670.8 39.7 653.9 52.5 637C59.2 628.2 66.3 619.5 74.3 611.8C98.1 588.9 122.4 566.3 146.8 544C157.8 533.9 168.7 523.3 182.9 517.6C183.4 517.4 183.7 516.7 184.5 515.9C182.2 514.6 180.2 513.4 178.3 512.3C169.82 507.59 166.6 500.5 167.6 490.9C168.2 484.2 169.3 477 167.6 470.7C163.1 453.43 164.2 436.2 167.1 419.2C168.9 408.4 172.8 398 176.1 387.6C181.3 371.2 182.4 353.6 191.8 338.4C197.5 329.14 204.4 323.5 215.2 322.1C220.1 321.4 224.72 318.36 229.8 321.3C230 321.4 230.4 321.2 230.7 321.1C236.2 318.8 239.7 321.7 242.7 325.6C245.1 328.58 247.1 331.9 249.1 335.1C251.8 339.2 256.2 343.32 256.4 347.6C256.6 352 252.7 356.6 250.6 361.2C246.94 369.2 239.8 372.3 231.9 373C220.61 374 219.9 373.38 218.3 384.6C216.7 395.86 212.5 407.7 220.98 418.6C224.3 415.7 227.4 412.7 230.8 410.1C232.7 408.7 235.2 407.01 237.4 407C245.2 407.2 249.76 403.7 251.3 396C251.5 394.7 252.3 393.6 252.7 392.29C256.1 380.6 264.8 373.7 274.9 368.6C281.4 365.3 288.4 362.96 295.4 361C313.4 355.9 331.4 351.2 349.4 346.6C352.7 345.7 354.01 344.5 353.7 340.8C353.02 332.9 353.05 324.8 352.5 316.9C352.3 315 351.4 312.5 350 311.4C345.1 307.4 343.7 302.42 344.3 296.3C344.8 290 345.6 283.5 344.7 277.4C343 265.3 346.3 254.27 350.4 243.31C353.5 235 358.8 228 367.4 225.4C376.5 222.7 386.2 220.3 395.6 220.43C402.4 220.52 410.9 223.2 415.6 227.8C423.9 236.1 431.45 246.1 432 258.8C432.5 269.1 431.7 279.5 432.3 289.8C432.7 296.95 431.1 303.11 427.6 309.2C422.5 317.8 423.2 326.9 426.1 337.1C429.7 334.9 433.4 333.8 435.4 331.3C440.8 324.4 445.3 316.9 450.52 309.8C454.5 304.3 458.7 298.9 463.4 294.1C465.3 292 466.3 290.4 466.1 287.8C465.5 274.6 467.79 261.9 473.1 249.8C475.4 244.6 478 239.54 480.5 234.5C486 223.2 488.9 211.5 484.9 199.2C482 190.3 482.1 181.71 484.6 172.7C490.06 153 494.8 133.1 495.7 112.5C496.1 103.3 493.6 96.5 487.3 90.3C471.4 74.5 465.93 56 473.2 34.3C474.2 31.3 474.9 28.1 480.01 29.7C479 24 477.8 19.3 477.5 14.6C477.3 12.2 478.1 9.4 479.4 7.4C481.1 4.6 483.7 2.4 486 0C490 1e-06 494 1e-06 498.6 0.3C502.1 3 505 7.2 508.05 7.3C514.5 7.6 516 11.5 517.7 16.1C518.7 18.6 520 21 521.2 23.3C529.5 38.5 534.4 54.4 532.6 72.1C532.08 78 532.9 84.2 534.1 89.9C540.1 117.3 546.8 144.4 552.3 171.81C553.7 178.2 553.2 185.7 551.1 191.8C547.4 202.9 545.4 214 545.1 225.6C544.5 248 544 270.5 543.1 293C542.6 305.3 541.9 317.5 536.9 329.2C532.6 339.29 528.9 349.7 525.3 360C520.3 374.7 516.5 389.4 517.74 405.4C519.7 430.1 513.5 453.3 500.1 474.3C499.3 475.5 498.6 477.1 498.7 478.5C498.85 490.5 496 501.98 491.8 513.1C484.9 531.5 479.7 550.1 481.98 570C482.1 571.3 482.1 572.7 481.7 574C479.4 583.2 482.8 591.9 485.3 600.3C489.3 613.8 494.6 627 499.5 640.26C519.3 693.6 539.3 746.9 559.2 800.2C571.7 834.1 584.1 868 596.5 902.1C596.7 902.9 596.9 903.5 597.2 904.3C598.7 910.1 600.3 915.5 601.7 921.1C601.8 921.9 602 922.4 602.21 923.3C602.4 924 602.6 924.4 602.6 925.12C602.8 925.9 603 926.44 603.2 927.3C603.4 928 603.6 928.4 603.6 929.1C603.7 929.9 603.9 930.4 604.09 931.35C604.26 932.43 604.44 933.1 604.5 934.13C604.6 934.9 604.9 935.5 605.1 936.3C605.3 937 605.4 937.4 605.5 938.1C605.6 938.9 605.8 939.5 606.1 940.4C606.6 942.8 607.1 944.8 607.5 947.1C607.6 947.9 607.9 948.5 608.1 949.4C608.3 950.4 608.5 951.1 608.7 952.1C608.8 952.9 609 953.4 609.2 954.4C610 958.5 610.8 962.2 611.6 966.1C611.7 966.9 611.9 967.5 612.1 968.4C613.3 974.8 614.6 980.8 615.7 987.1C615.8 987.9 616 988.4 616.1 989.3C616.3 990 616.4 990.4 616.4 991.2C616.6 992.3 616.8 993.2 617.1 994.4C617.3 995.8 617.6 996.8 617.8 998.1C617.8 998.9 618 999.4 618.2 1000.31C618.4 1001.76 618.7 1002.87 618.8 1004.16C618.8 1004.89 619 1005.43 619.1 1006.37C619.3 1007.79 619.4 1008.82 619.49 1010.17C619.6 1011.3 619.9 1012.13 620.2 1013.33C620.3 1014.42 620.5 1015.13 620.5 1016.16C620.6 1017.3 620.9 1018.13 621.1 1019.34C621.3 1020.42 621.4 1021.14 621.4 1022.2C621.6 1023.68 621.9 1024.82 622.2 1026.33C622.33 1027.42 622.5 1028.13 622.5 1029.16C622.6 1030.31 622.87 1031.14 623.1 1032.37C623.3 1033.79 623.4 1034.82 623.5 1036.16C623.6 1037.31 623.8 1038.15 624.1 1039.38C624.2 1040.8 624.4 1041.83 624.4 1043.19C624.6 1044.68 624.8 1045.83 625.1 1047.4C625.3 1049.16 625.5 1050.51 625.5 1052.22C626 1054.34 626.5 1056.09 627 1058.24C627.34 1060.09 627.67 1061.55 628 1063C628 1064.71 628 1066.43 627.6 1068.79C626.2 1069.67 625 1069.64 624.1 1070.19C614.6 1076.28 605.6 1083.24 595.6 1088.47C565.5 1104.31 535.3 1104.08 505.6 1086.98C501.1 1084.44 498.1 1077.29 499.01 1072.19C499.9 1067.12 500.7 1062 501.1 1056.87C501.2 1055.41 500.36 1053.2 499.2 1052.41C487.5 1044.35 475.6 1036.51 463.4 1028.44C463.4 1032.3 463.8 1035.91 463.3 1039.4C463 1040.94 461.3 1043.16 459.8 1043.49C450.5 1045.58 441.7 1046.82 436 1056.98C428.2 1070.8 424.7 1084.92 425.9 1100.48C427.1 1115.26 428.1 1130.06 429.7 1144.8C431.1 1158.39 429.5 1170.99 420.55 1181.91C420.3 1182.16 420.2 1182.51 420 1182.75C414.4 1188.93 411.2 1197.56 402 1200ZM442.9 405.4C440.6 404.7 438.3 403.3 436.05 403.3C401.9 403.2 367.7 403.15 333.6 403.3C331.2 403.32 328.3 404.5 326.6 406.1C318.5 413.6 310.82 421.4 302.9 429.1C300.65 431.2 300.5 433 302.8 435.4C305.9 438.6 308.8 442 311.8 445.42C335.1 472.3 358.4 499.2 381.6 526.2C384.22 529.2 385.9 529 388.3 526.1C395.2 518 402.3 510.1 409.24 502C428.2 480.2 447.1 458.2 466.2 436.4C469.1 433.2 468.6 431.3 465.9 428.6C458.3 421.1 450.9 413.5 442.9 405.4Z" fill="white"/><path d="M443.1 405.7C450.9 413.5 458.3 421.1 465.9 428.6C468.6 431.3 469.1 433.2 466.2 436.4C447.1 458.2 428.2 480.2 409.24 502C402.3 510.1 395.2 518 388.3 526.1C385.9 529 384.2 529.2 381.6 526.2C358.4 499.2 335.1 472.3 311.8 445.4C308.8 442 305.9 438.6 302.8 435.4C300.5 433 300.65 431.25 302.9 429.1C310.8 421.4 318.5 413.6 326.6 406.1C328.3 404.5 331.2 403.32 333.6 403.3C367.7 403.15 401.9 403.2 436.1 403.3C438.3 403.3 440.6 404.7 443.1 405.7ZM448.7 424.7C448.4 424.5 448.1 424.3 448 424.2C448 424.2 447.8 424.2 447.9 423.5C446.6 421.7 445.3 420 443.6 417.8C439.1 423.07 441.9 428.7 440.3 433.9C439.9 433.9 439.4 433.8 438.4 433.3C431.6 433.47 424.8 433.6 417.4 433.9C416.9 433.8 416.52 433.8 416 433C414.3 429.99 412.7 427 410.4 423.7C409.6 422.6 408.7 421.5 407.7 419.77C407.4 419.6 407.06 419.5 406.8 419.4C406.8 419.4 406.7 419.3 406.7 418.6C404.4 417.46 402.1 416.3 400 415.1C400 415.1 399.9 415.2 399.6 414.5C398.6 414 397.5 413.2 396.5 413.1C387.3 412.9 378.1 412.4 368.9 412.7C364.76 412.9 359.8 412.6 356.82 417.7C356.4 417.9 355.9 418.1 354.7 418.1C350.1 418.9 349.6 422.2 349.9 426.6C349.9 427.1 349.9 427.6 349.5 428.3C349.8 428.9 350.2 429.5 350.9 430.5C351 430.9 351.1 431.2 351.3 432.15C351.6 432.4 351.9 432.6 352.1 432.8C352.1 432.8 352.2 432.8 352.1 433.6C353.5 434.3 354.9 435.1 356.7 435.8C356.7 435.8 357 436 357.3 436.6C360.2 437.1 363.1 437.7 366.7 438.2C367.1 438.3 367.5 438.4 368.2 439.2C370.81 439.2 373.4 439.2 376.9 439.1C379.2 439.2 381.6 439.4 384.2 440.2C392.5 440.2 400.7 440.2 409.7 440.1C410.1 440.2 410.5 440.4 411.2 441.1C415 442.3 418.8 443.4 422.9 444.5C422.9 444.5 423.1 444.6 423.3 445.3C426.6 447.5 430.02 449.6 433.8 452C434 452.13 434.1 452.4 434.1 453.3C434.7 453.6 435.31 453.9 436.6 454.1C436.8 454.1 437 454.1 437.9 454.1C438.6 453.29 439.2 452.5 440 451.1C441 450.1 442 449 443.6 447.9C445 446.2 446.4 444.4 447.9 442.1C448.5 441.6 449 441.2 449.9 440.8C450.1 440.8 450.2 440.7 450.3 440.6C450.2 440.4 450.1 440.2 450.1 439.4C451.4 437.92 452.7 436.5 454.7 434.94C455 434.4 455.3 433.91 455.5 433.1C455.5 432.8 455.6 432.6 455.7 431.8C455.4 431.6 455.1 431.4 454.85 431.27C454.85 431.27 454.7 431.3 454.85 430.6C454 430 453.1 429.5 451.8 428.6C451.6 428.3 451.3 428 451 427C450.3 426.4 449.53 425.82 448.8 425.1C448.8 425.1 448.8 425.2 448.7 424.7ZM392.6 465C375.2 463.8 357.7 462.5 340.3 461.3C342.5 465.7 345.2 468.8 347.8 472C349.8 474.62 351.8 475.1 355.4 474.3C364.9 472.2 374.6 470.96 381.8 480.3C382.7 481.4 384.8 481.9 386.3 481.9C392.1 482.1 398 482.6 403.7 481.7C408.4 480.9 412.9 478.4 417.22 476.2C418.6 475.5 420.1 472.44 419.6 471.3C418.9 469.77 416.6 468.35 414.7 468C407.7 466.8 400.6 466 392.6 465ZM383.5 512.98C384.9 512.5 386.8 512.3 387.75 511.3C391.7 507.1 395.5 502.7 399.3 498.2C400.3 497 401.3 495.56 402.3 494.1C390.3 494.1 379 494.1 367.1 494.1C372.4 500.3 377.7 506.4 383.5 512.98ZM327.6 419C322.9 423.4 318.2 427.8 313.35 432.3C317.1 436.5 319.9 439.6 323.5 443.6C327.4 431.6 333.2 422 342.9 414.2C336 411.8 331.6 413.89 327.6 419ZM416.2 417.3C416.7 418.7 417.3 420.2 417.8 421.6C418.8 421.1 419.7 420.5 420.7 420C421 418.1 422 414.9 421.4 414.6C419.5 413.4 417 413.4 413.4 412.6C414.9 415 415.3 415.9 416.2 417.3Z" fill="white"/><path d="M423.1 444.6C423.1 444.6 422.9 444.45 422.5 444.2C418.4 442.8 414.7 441.7 410.9 440.5C410.5 440.4 410.1 440.2 408.9 440C400.1 439.8 392 439.6 383.9 439.5C381.6 439.4 379.2 439.2 376 439C372.8 438.8 370.4 438.69 367.9 438.6C367.5 438.43 367.1 438.3 366 438C362.5 437.2 359.8 436.6 357 436C357 436 356.7 435.8 356.4 435.5C354.8 434.4 353.5 433.6 352.2 432.8C352.2 432.8 352.1 432.8 352.1 432.6C351.8 432 351.5 431.8 351.2 431.5C351.1 431.2 351 430.9 350.8 430C350.4 429 350.2 428.5 349.9 428C349.9 427.6 349.9 427.1 350.1 426.1C352.1 423.1 353.7 420.7 355.4 418.25C355.9 418.1 356.4 417.9 357.4 417.5C362.7 416.1 367.5 414.1 372.3 414C381.5 413.8 390.7 414.7 399.9 415.2C399.9 415.2 400 415.1 400.1 415.4C402.4 416.9 404.5 418.1 406.7 419.3C406.7 419.3 406.8 419.4 406.8 419.6C407.2 420 407.5 420.2 407.8 420.4C408.7 421.5 409.6 422.6 410.7 424.22C412.7 427.7 414.41 430.7 416.1 433.7C416.52 433.8 416.9 433.8 418.1 434C425.6 433.95 432.3 433.9 439 433.8C439.4 433.8 439.9 433.9 440.9 433.8C442 429.6 442.4 425.6 442.8 421.2C444.8 422.4 446.3 423.3 447.8 424.2C447.8 424.2 448 424.2 447.9 424.4C448.2 424.9 448.5 425 448.8 425.2C448.8 425.2 448.8 425.1 448.8 425.4C449.6 426.4 450.3 427.1 451.1 427.7C451.3 428 451.6 428.3 452.1 429C453.16 430.1 453.9 430.68 454.7 431.26C454.7 431.26 454.8 431.3 454.9 431.5C455.2 432 455.5 432.2 455.7 432.4C455.6 432.63 455.5 432.8 455.3 433.4C454.7 434.1 454.4 434.55 454 435C452.7 436.5 451.4 437.9 449.9 439.8C449.6 440.3 449.5 440.7 449.5 440.7C449 441.2 448.5 441.6 447.5 442.5C445.7 444.5 444.32 446.2 442.9 448C442 449 441 450.1 439.65 451.5C438.6 452.6 437.9 453.4 437.2 454.1C437 454.1 436.8 454.1 436.1 453.9C435.2 453.3 434.7 453 434.2 452.6C434.1 452.4 434 452.1 433.48 451.5C429.83 448.9 426.5 446.8 423.1 444.6Z" fill="white"/><path d="M393 465C400.6 466 407.7 466.8 414.7 468C416.6 468.4 418.9 469.77 419.6 471.3C420.1 472.44 418.6 475.5 417.22 476.2C412.9 478.4 408.4 480.9 403.7 481.7C398 482.6 392.1 482.1 386.3 481.9C384.8 481.9 382.7 481.4 381.8 480.3C374.6 470.96 364.9 472.18 355.4 474.3C351.8 475.1 349.8 474.6 347.8 472C345.2 468.8 342.5 465.7 340.3 461.3C357.7 462.55 375.2 463.8 393 465Z" fill="white"/><path d="M383.2 512.7C377.7 506.4 372.4 500.3 367.1 494.1C379 494.1 390.3 494.1 402.3 494.1C401.3 495.6 400.3 497 399.3 498.2C395.5 502.7 391.7 507.1 387.75 511.3C386.8 512.3 384.9 512.5 383.2 512.7Z" fill="white"/><path d="M327.8 418.8C331.6 413.89 336 411.8 342.9 414.2C333.19 422 327.4 431.6 323.5 443.6C319.9 439.6 317.1 436.5 313.35 432.3C318.2 427.8 322.9 423.4 327.8 418.8Z" fill="white"/><path d="M399.75 414.8C390.7 414.7 381.5 413.8 372.3 414C367.5 414.1 362.7 416.11 357.5 417.3C359.8 412.6 364.8 412.9 368.9 412.7C378.1 412.4 387.3 412.9 396.5 413.1C397.5 413.2 398.6 414 399.75 414.8Z" fill="white"/><path d="M384.1 439.8C392 439.6 400.1 439.8 408.6 440C400.7 440.2 392.5 440.2 384.1 439.8Z" fill="white"/><path d="M416 417C415.3 415.9 414.85 415 413.4 412.6C417 413.4 419.5 413.4 421.4 414.6C422 414.9 421 418.1 420.66 420C419.7 420.5 418.7 421.1 417.8 421.6C417.3 420.2 416.7 418.7 416 417Z" fill="white"/><path d="M447.9 423.8C446.3 423.3 444.8 422.4 442.8 421.2C442.4 425.6 442 429.6 441.2 433.7C441.9 428.7 439.1 423.1 443.6 417.8C445.3 419.99 446.6 421.7 447.9 423.8Z" fill="white"/><path d="M423.2 445C426.5 446.8 429.83 448.9 433.3 451.4C430 449.6 426.6 447.5 423.2 445Z" fill="white"/><path d="M438.7 433.6C432.3 433.9 425.6 434 418.5 433.9C424.79 433.6 431.6 433.47 438.7 433.6Z" fill="white"/><path d="M411 440.8C414.7 441.7 418.4 442.8 422.4 444.2C418.8 443.4 415 442.3 411 440.8Z" fill="white"/><path d="M416.1 433.3C414.41 430.7 412.7 427.73 411 424.4C412.7 427 414.3 430 416.1 433.3Z" fill="white"/><path d="M355 418.2C353.7 420.7 352.1 423.1 350.1 425.7C349.6 422.2 350.1 418.9 355 418.2Z" fill="white"/><path d="M357.2 436.3C359.8 436.6 362.5 437.2 365.6 438C363.1 437.7 360.2 437.1 357.2 436.3Z" fill="white"/><path d="M443.3 448C444.3 446.2 445.7 444.5 447.5 442.73C446.4 444.4 445 446.2 443.3 448Z" fill="white"/><path d="M406.7 419C404.5 418.1 402.4 416.9 400 415.4C402.1 416.3 404.4 417.5 406.7 419Z" fill="white"/><path d="M368.1 438.9C370.4 438.7 372.8 438.8 375.6 439.1C373.4 439.2 370.8 439.2 368.1 438.9Z" fill="white"/><path d="M352.1 433.2C353.5 433.6 354.8 434.4 356.2 435.5C354.93 435.1 353.5 434.3 352.1 433.2Z" fill="white"/><path d="M437.57 454.1C437.9 453.4 438.6 452.6 439.6 451.8C439.2 452.5 438.6 453.3 437.57 454.1Z" fill="white"/><path d="M454.8 430.9C453.9 430.7 453.16 430.1 452.3 429.2C453.1 429.5 454 430 454.8 430.9Z" fill="white"/><path d="M451.1 427.4C450.3 427.1 449.6 426.4 448.8 425.5C449.5 425.82 450.3 426.4 451.1 427.4Z" fill="white"/><path d="M434.1 453C434.7 453 435.2 453.3 435.82 453.9C435.31 453.9 434.7 453.6 434.1 453Z" fill="white"/><path d="M349.7 428.2C350.2 428.5 350.4 429 350.6 429.8C350.2 429.5 349.8 428.9 349.7 428.2Z" fill="white"/><path d="M454.4 435C454.4 434.55 454.7 434.1 455.4 433.51C455.3 433.9 455 434.4 454.4 435Z" fill="white"/><path d="M407.8 420.07C407.5 420.2 407.2 420 406.8 419.6C407.06 419.5 407.4 419.6 407.8 420.07Z" fill="white"/><path d="M449.72 440.8C449.5 440.7 449.6 440.3 449.8 440.2C450.1 440.2 450.2 440.4 450.3 440.6C450.2 440.7 450.07 440.8 449.72 440.8Z" fill="white"/><path d="M351.2 431.8C351.5 431.8 351.8 432 352.1 432.6C351.9 432.6 351.6 432.4 351.2 431.8Z" fill="white"/><path d="M455.7 432.1C455.5 432.2 455.2 432 454.8 431.5C455.1 431.4 455.4 431.6 455.7 432.1Z" fill="white"/><path d="M448.8 424.9C448.5 425 448.2 424.9 447.9 424.4C448.1 424.3 448.4 424.5 448.8 424.9Z" fill="white"/><rect x="314" y="387" width="158" height="136" fill="white"/></svg>