<svg width="400" height="234" viewBox="0 0 400 234" fill="none" xmlns="http://www.w3.org/2000/svg"><path d="M142.1 0.6C143.2 0.6 143.2 0.6 144.3 0.6C146.8 0.6 149.2 0.7 151.7 0.7C153.4 0.7 155.2 0.7 156.9 0.7C161.71 0.7 166.5 0.7 171.2 0.7C176.2 0.7 181.2 0.7 186.2 0.8C195.6 0.8 205.1 0.8 214.5 0.8C225.2 0.9 236 0.9 246.7 0.9C268.8 1 290.9 1 313 1.1C315 8.7 315.3 15.7 315.2 23.5C315.2 24.9 315.2 26.2 315.2 27.5C315.2 31.1 315.2 34.7 315.2 38.3C315.2 42.1 315.2 45.8 315.2 49.6C315.18 56.7 315.2 63.8 315.1 70.9C315.1 79 315.11 87.1 315.1 95.2C315.1 111.8 315 128.5 315 145.1C297.5 145.1 280 145.1 262 145.1C262 135 262 135 263 130.9C263.2 130.1 263.4 129.2 263.63 128.3C263.9 127.4 264.08 126.5 264.3 125.6C264.5 124.7 264.7 123.8 265 122.9C266 118.7 267.1 114.7 268.64 110.7C271.7 102.6 269 95.9 266 88.1C265.7 87.5 265.3 86.8 265 86.1C263.7 83.6 263.2 81.1 262.6 78.4C261.7 74.7 260.75 71.3 259.3 67.8C257.94 64 257.9 61.2 258 57.1C256.9 56.9 255.8 56.7 254.71 56.5C253.3 56.3 251.8 56 250.4 55.8C249.7 55.6 248.9 55.5 248.2 55.4C238.2 53.5 238.2 53.5 234.1 50.9C232.3 48 232.7 45.5 233 42.1C233.35 41.1 233.7 40.1 234.1 39.1C235.9 33.2 233.4 28.4 231 23.1C222.8 21.8 222.8 21.8 215 24.1C213 26.4 212.2 28.2 211 31.1C211.6 33.6 211.6 33.6 213 35.1C213.7 35.1 214.3 35.1 215 35.1C215.1 35.7 215.1 36.4 215.2 37C215.8 39.4 215.8 39.4 218.6 40.4C219.4 40.6 220.17 40.9 221 41.1C220.4 43.1 220.4 43.1 219 45.1C216.3 45.9 216.3 45.9 212.9 46.3C211.8 46.4 210.6 46.5 209.39 46.7C208.3 46.8 207.2 47 206 47.1C203 47.7 200 48.3 197 49.1C196.3 49.3 195.6 49.5 194.8 49.7C190.98 50.9 188.8 51.9 186.71 55.4C184.01 59.4 180.9 61.7 176.9 64.2C176.2 64.6 175.5 65 174.9 65.5C171.1 67.9 167.3 70.1 163.3 72.2C157 75.5 151.6 79.8 146 84.1C144.2 85.5 142.4 86.8 140.6 88.1C139.8 88.7 139 89.2 138.3 89.8C135.8 91.2 133.8 91.6 131 92.1C131 82.1 131 72.1 130.9 62.1C130.9 57.4 130.9 52.8 130.9 48.1C130.9 43.6 130.9 39.1 130.9 34.7C130.9 32.9 130.9 31.2 130.9 29.5C130.8 7.5 130.8 7.5 133.1 2.9C136 0.2 138.2 0.6 142.1 0.6Z" fill="#09477A"/><path d="M13.9 0.9C15.1 0.9 15.1 0.9 16.3 0.9C18.8 0.9 21.3 0.9 23.9 0.9C25.4 0.9 27 0.9 28.6 0.9C34.3 0.9 40.1 1 45.9 1C58.8 1 71.7 1.1 85 1.1C85 49 85 96.8 85 146.1C56.95 146.1 28.9 146.1 0 146.1C0 98.9 0 51.7 0 3.1C5.1 1.4 8.7 0.8 13.9 0.9Z" fill="#0D4F84"/><path d="M329 1.1C352.4 1.5 375.9 1.8 400 2.1C400 49.3 400 96.5 400 145.1C375.9 145.1 351.8 145.1 327 145.1C327 116.59 327 116.59 326.9 102.5C326.9 94.9 326.9 87.3 326.9 79.6C326.9 73 326.9 66.3 326.9 59.6C326.9 57.1 326.9 54.5 326.9 52C326.9 48.4 326.9 44.8 326.9 41.3C326.9 40.2 326.9 39.1 326.9 38C326.9 37.1 326.9 36.1 326.9 35.1C326.9 34.3 326.9 33.4 326.9 32.5C327 30 327.5 27.6 328 25.1C328.4 18.5 327.9 11.9 327 5.3C327 4.6 327 3.9 327 3.1C327.7 2.5 328.3 1.8 329 1.1Z" fill="#0D4F84"/><path d="M187 81.1C187.4 96.8 187.2 112.2 181.6 127C180.6 130.5 180.9 134 181.09 137.6C181 140.1 181 140.1 179 145.1C163.16 145.1 147.32 145.1 131 145.1C131 132.9 131 120.7 131 108.1C131.99 108.1 132.98 108.1 134 108.1C134 107.5 134 106.8 134 106.1C134.7 105.8 135.4 105.4 136.16 105C140.8 102.6 145.1 100.3 149 96.8C152 94.1 152 94.1 155 94.1C155 93.5 155 92.8 155 92.1C161.5 89.1 161.5 89.1 166 89.1C166 88.5 166 87.8 166 87.1C168.6 86.1 171.1 85.1 173.7 84.1C174.8 83.7 174.8 83.7 175.9 83.3C179.71 81.8 182.8 80.7 187 81.1Z" fill="#156098"/><path d="M0 212.1C28.05 212.1 56.1 212.1 85 212.1C85 219.1 85 226 85 233.1C56.95 233.1 28.9 233.1 0 233.1C0 226.2 0 219.3 0 212.1Z" fill="#3F71AC"/><path d="M130 213.1C154.42 213.1 178.84 213.1 204 213.1C204 219.7 204 226.3 204 233.1C179.58 233.1 155.16 233.1 130 233.1C130 226.5 130 219.9 130 213.1Z" fill="#4071AC"/><path d="M327 213.1C351.09 213.1 375.18 213.1 400 213.1C400 219.7 400 226.3 400 233.1C375.91 233.1 351.82 233.1 327 233.1C327 226.5 327 219.9 327 213.1Z" fill="#4172AD"/><path d="M254 213.1C274.46 213.1 294.92 213.1 316 213.1C316 219.7 316 226.3 316 233.1C294.55 233.1 273.1 233.1 251 233.1C251 220.1 251 220.1 254 213.1Z" fill="#3F71AC"/><path d="M131 0.1C154.8 0.1 178.7 0.1 202.5 0.1C213.5 0.1 224.6 0.1 235.7 0.1C245.3 0 254.94 0 264.6 0C269.7 0 274.8 0 279.9 0C284.7 0 289.5 0 294.3 0C296.1 0 297.8 0 299.6 0C302 0 304.4 0 306.8 0C307.5 0 308.2 0 309 0C313.8 0 313.8 0 316 1.1C316 48.6 316 96.2 316 145.1C315.7 145.1 315.3 145.1 315 145.1C315 144.4 315 143.8 315 143C314.9 126.3 314.8 109.5 314.66 92.8C314.6 84.7 314.6 76.6 314.5 68.5C314.5 61.4 314.4 54.4 314.4 47.3C314.3 43.6 314.3 39.8 314.29 36.1C314.3 31.9 314.2 27.7 314.2 23.5C314.2 22.3 314.2 21.1 314.2 19.8C314.1 13.5 313.8 7.4 313 1.1C311.9 1.3 310.7 1.5 309.5 1.6C302.2 2.4 294.83 2.3 287.5 2.2C285.8 2.2 284.1 2.2 282.5 2.2C278 2.2 273.5 2.2 269 2.2C264.2 2.2 259.5 2.2 254.8 2.2C245.9 2.2 237 2.2 228.1 2.2C217.9 2.2 207.8 2.2 197.6 2.2C176.7 2.2 155.9 2.2 135 2.1C131.6 8.3 131.9 15.2 131.8 22.1C131.8 22.9 131.8 23.61 131.8 24.4C131.7 26.8 131.7 29.3 131.7 31.8C131.7 33.5 131.6 35.2 131.62 36.9C131.6 41.4 131.5 45.9 131.5 50.4C131.4 55 131.4 59.6 131.3 64.1C131.2 73.1 131.1 82.1 131 91.1C130.7 91.1 130.3 91.1 130 91.1C130 79.9 130 68.6 129.9 57.3C129.9 52.1 129.9 46.8 129.9 41.6C129.9 36.6 129.9 31.5 129.9 26.4C129.9 24.5 129.9 22.6 129.9 20.7C129.9 18 129.9 15.3 129.9 12.6C129.9 11.8 129.9 11 129.9 10.1C129.9 6.6 130.1 3.5 131 0.1Z" fill="#042F58"/><path d="M228 172.1C232.5 178.85 231.1 188.77 231.1 196.6C231.1 197.7 231.1 198.7 231.1 199.8C231.1 203.1 231.1 206.4 231.1 209.8C231.1 212 231.1 214.3 231 216.6C231 222.1 231 227.6 231 233.1C228.7 233.1 226.4 233.1 224 233.1C222.38 225.4 221.2 218.1 222.5 210.2C223.55 203.1 223.4 195.8 223.5 188.6C223.55 187.38 223.6 186.2 223.6 185C223.6 183.9 223.7 182.8 223.7 181.7C224 179.1 224 179.1 226 177.1C226.7 175.5 227.4 173.8 228 172.1Z" fill="#0A375E"/><path d="M83 78.1C83.33 78.1 83.66 78.1 84 78.1C85.3 100.8 85.1 123.4 85 146.1C56.95 146.1 28.9 146.1 0 146.1C0 145.5 0 144.8 0 144.1C1 144.1 2 144.1 3 144.1C12.2 144.1 21.5 144 30.7 143.9C35.5 143.8 40.3 143.8 45 143.8C49.6 143.8 54.2 143.7 58.8 143.7C60.5 143.6 62.3 143.6 64.1 143.6C66.5 143.6 69 143.6 71.4 143.6C72.1 143.6 72.9 143.6 73.6 143.6C76.5 143.5 78.6 143.4 81 141.9C82.2 140.2 82.2 140.2 81.7 138.3C81.5 137.6 81.2 136.9 81 136.1C81 134.2 81 132.3 81.1 130.4C81.1 129.19 81.2 128 81.2 126.8C81.2 125.6 81.3 124.3 81.3 123.1C81.4 121.8 81.4 120.5 81.5 119.2C81.6 115.8 81.7 112.4 81.9 109C82 105.5 82.1 102 82.2 98.6C82.5 91.7 82.7 84.9 83 78.1Z" fill="#205785"/><path d="M270 109.1C271.2 112.6 270.7 114.6 270 118.1C270.66 118.1 271.32 118.1 272 118.1C271.67 120.1 271.34 122.1 271 124.1C270.34 124.1 269.68 124.1 269 124.1C266.9 129.7 266 135.3 265 141.1C267.3 142.3 268.6 142.3 271.1 142.35C272 142.4 272.9 142.4 273.7 142.42C274.7 142.44 275.6 142.46 276.5 142.48C277.5 142.5 278.4 142.5 279.4 142.6C281.4 142.6 283.4 142.6 285.4 142.7C288.5 142.8 291.6 142.8 294.6 142.91C296.6 143 298.5 143 300.5 143C301.4 143.1 302.3 143.1 303.3 143.1C304.55 143.1 304.55 143.1 305.9 143.2C307 143.2 307 143.2 308.1 143.2C310.1 143.25 310.1 143.25 312 142.1C312.3 139.6 312.4 137.2 312.5 134.8C312.7 127.5 312.7 127.5 315 124.1C315 131.1 315 138 315 145.1C297.51 145.1 280.02 145.1 262 145.1C262 135 262 135 263 130.9C263.3 129.53 263.3 129.53 263.6 128.2C263.9 127.3 264.1 126.4 264.3 125.4C264.5 124.5 264.7 123.62 265 122.7C266.1 117.79 267.52 113.5 270 109.1Z" fill="#236696"/><path d="M327 207.1C329 209.1 329 209.1 330 211.1C330.5 211 331.1 210.8 331.6 210.6C334.6 210 337.4 210 340.5 210C341.5 210 341.5 210 342.5 210C344.6 210 346.7 210 348.8 210C350.3 210 351.8 210 353.25 210C357.1 210 361 210 364.87 210.06C368.8 210.07 372.8 210.1 376.7 210.08C384.49 210.1 392.2 210.1 400 210.1C400 211.1 400 212.1 400 213.1C375.91 213.1 351.82 213.1 327 213.1C327 211.1 327 209.2 327 207.1Z" fill="#053C6F"/><path d="M314 205.1C314.33 205.1 314.66 205.1 315 205.1C315 207.8 315 210.4 315 213.1C284.31 213.6 284.31 213.6 253 214.1C253.33 212.1 253.66 210.2 254 208.1C254.66 208.5 255.32 208.8 256 209.1C257.74 209.24 259.5 209.3 261.2 209.3C262.32 209.3 263.4 209.3 264.5 209.3C265.7 209.4 266.9 209.36 268.1 209.4C269.3 209.4 270.5 209.4 271.79 209.4C274.4 209.4 276.92 209.4 279.5 209.4C283.4 209.4 287.35 209.5 291.3 209.5C293.8 209.5 296.3 209.5 298.7 209.6C300.5 209.6 300.5 209.6 302.3 209.6C304 209.6 304 209.6 305.6 209.6C306.6 209.6 307.6 209.6 308.6 209.6C311.2 209.4 311.2 209.4 312.8 207.1C313.2 206.4 313.6 205.8 314 205.1Z" fill="#033A6A"/><path d="M329.89 0C331.2 0 332.5 0 333.8 0C334.9 0 334.9 0 336 0C338.3 0 340.7 0 343.1 0C344.7 0 346.3 0 347.97 0C352.3 0 356.6 0 360.9 0.1C365.3 0.1 369.7 0.1 374.1 0.1C382.7 0.1 391.4 0.1 400 0.1C400 0.8 400 1.4 400 2.1C376.6 2.1 353.1 2.1 329 2.1C327.6 4.9 328.1 6.9 328.4 10C329 16.4 329.1 22.7 329 29.1C328.3 29.5 327.7 29.8 327 30.1C326.8 26 326.67 21.9 326.5 17.8C326.5 16.4 326.4 15 326.35 13.6C326.3 11.6 326.2 9.6 326.1 7.6C326.1 6.4 326 5.2 326 3.9C326 0.1 326.1 0.2 329.89 0Z" fill="#052F58"/><path d="M187 81.1C187 88.1 187 95 187 102.1C186.67 102.1 186.34 102.1 186 102.1C185.8 100.2 185.6 98.3 185.4 96.4C185.3 94.8 185.3 94.8 185.1 93.1C185 90.5 185.2 88.6 186 86.1C185.1 86.1 184.1 86.1 183.2 86.1C181.1 86.1 179.1 86.1 177 86.1C175.9 87.1 175.9 87.1 174.9 88C171.6 90.5 169.1 90.9 165.1 91.6C162.4 92.3 160.4 93.6 158 95.1C157.01 95.4 156.02 95.7 155 96C150.7 97.6 148.4 100.5 145.4 103.9C143.6 105.4 142.4 105.9 140 106.1C139.34 105.5 138.68 104.8 138 104.1C138.5 103.8 139 103.5 139.5 103.2C143 101.1 146.3 99 149.3 96.3C152 94.1 152 94.1 155 94.1C155 93.5 155 92.8 155 92.1C161.5 89.1 161.5 89.1 166 89.1C166 88.5 166 87.8 166 87.1C168.6 86.1 171.1 85.1 173.7 84.1C174.8 83.7 174.8 83.7 175.9 83.3C176.6 83 177.3 82.7 178 82.4C179 82.1 179 82.1 180 81.7C182 81.1 182 81.1 187 81.1Z" fill="#184F7E"/><path d="M82 102.1C82.33 102.1 82.66 102.1 83 102.1C83.9 116.51 84 130.7 84 145.1C56.28 145.1 28.56 145.1 0 145.1C0 144.8 0 144.5 0 144.1C1 144.1 2 144.1 3 144.1C12.2 144.1 21.5 144 30.7 143.9C35.5 143.8 40.3 143.8 45 143.8C49.6 143.8 54.2 143.7 58.8 143.7C60.5 143.6 62.3 143.6 64.1 143.6C66.5 143.6 69 143.6 71.4 143.6C72.1 143.6 72.9 143.6 73.6 143.6C76.6 143.51 78.5 143.5 81 141.7C82.2 140.2 82.2 140.2 81.7 138.4C81.3 137.3 81.3 137.3 81 136.1C81 133.5 81 130.9 81.1 128.3C81.2 127.2 81.2 127.2 81.2 126C81.3 123.6 81.4 121.3 81.4 118.9C81.5 117.3 81.5 115.6 81.6 114.02C81.7 110.1 81.9 106.1 82 102.1Z" fill="#216498"/><path d="M84 1.1C84.33 1.1 84.66 1.1 85 1.1C85 34.5 85 67.8 85 102.1C84.67 102.1 84.34 102.1 84 102.1C84 101.5 84 100.8 84 100.2C83.9 93.5 83.7 86.9 83.6 80.2C83.6 77.7 83.5 75.2 83.5 72.7C83.4 69.1 83.4 65.6 83.3 62C83.3 60.9 83.3 59.8 83.3 58.6C83.2 57.6 83.2 56.5 83.2 55.47C83.2 54.6 83.2 53.6 83.2 52.7C83 50.1 82.5 47.7 82 45.1C81.9 43.6 81.9 42.1 81.9 40.6C81.9 39.8 81.9 38.9 81.9 38.1C81.9 37.2 81.9 36.4 81.9 35.5C81.9 34.6 81.9 33.8 81.9 32.9C81.9 32.1 81.9 31.3 81.9 30.4C81.9 29.7 81.9 28.9 81.9 28.1C82 26.1 82 26.1 83 23.1C83 21.1 83 19 83 17C83 11.6 83.3 6.5 84 1.1Z" fill="#0D3C68"/><path d="M223 214.1C225.3 214.1 227.6 214.1 230 214.1C230 220.4 230 226.7 230 233.1C228 233.1 226 233.1 224 233.1C223.2 228.8 222.9 224.7 222.9 220.3C222.9 219.1 223 217.9 223 216.8C223 215.9 223 215 223 214.1Z" fill="#4572A8"/><path d="M137 105.1C137.33 105.8 137.66 106.4 138 107.1C137.34 107.8 136.68 108.4 136 109.1C134.68 109.1 133.36 109.1 132 109.1C132 120 132 130.9 132 142.1C137.6 143 137.6 143 143 143.29C144.1 143.3 144.1 143.3 145.2 143.3C145.9 143.3 146.7 143.3 147.4 143.3C148.6 143.3 148.6 143.3 149.8 143.3C151.4 143.4 153.1 143.4 154.7 143.4C157.2 143.4 159.7 143.41 162.2 143.4C163.8 143.4 165.4 143.5 166.98 143.5C167.7 143.5 168.47 143.5 169.2 143.5C173.4 143.5 176 143.1 179 140.1C179 141.8 179 143.4 179 145.1C163.16 145.1 147.32 145.1 131 145.1C131 132.9 131 120.7 131 108.1C131.99 108.1 132.98 108.1 134 108.1C134 107.5 134 106.8 134 106.1C134.99 105.8 135.98 105.5 137 105.1Z" fill="#256290"/><path d="M328 110.1C332.9 120 330 132.1 330 143.1C353.1 143.5 376.2 143.8 400 144.1C400 144.5 400 144.8 400 145.1C376.24 145.1 352.48 145.1 328 145.1C328 133.6 328 122 328 110.1Z" fill="#266497"/><path d="M270 109.1C271.2 112.6 270.7 114.6 270 118.1C270.7 118.1 271.3 118.1 272 118.1C271.7 120.1 271.3 122.1 271 124.1C270.3 124.1 269.7 124.1 269 124.1C267.4 128.7 266.3 133.3 265.4 138C265.2 138.7 265.1 139.4 265 140.09C264.6 141.8 264.3 143.4 264 145.1C263.3 145.1 262.7 145.1 262 145.1C261.7 138.2 262.6 132.2 264.3 125.4C264.5 124.5 264.7 123.62 265 122.7C266.1 117.79 267.5 113.5 270 109.1Z" fill="#1F5C8C"/><path d="M263 145.1C280.16 145.1 297.32 145.1 315 145.1C314.01 146.4 313.02 147.8 312 149.1C311.4 149 310.9 148.8 310.3 148.6C307.9 148.1 305.8 148 303.4 147.9C302.1 147.9 302.1 147.9 300.7 147.9C299.24 147.8 299.24 147.8 297.8 147.8C296.8 147.8 295.8 147.8 294.8 147.75C291.6 147.7 288.4 147.6 285.25 147.6C283.1 147.5 281 147.48 278.8 147.4C273.5 147.3 268.3 147.2 263 147.1C263 146.5 263 145.8 263 145.1Z" fill="#002D53"/><path d="M185 53.1C185.5 54.6 185.5 54.6 186 56.1C177.1 65.4 165 72.5 153 77.1C153 74.1 153 74.1 154.25 72.5C156.3 70.9 157.5 70.7 160 70.1C164.61 68.5 164.61 68.5 168.43 65.6C170.9 63.3 173.7 62.9 176.9 62.1C179.6 60.9 179.91 59.7 181 57.1C182.3 55.8 183.6 54.4 185 53.1Z" fill="#144A76"/><path d="M211 33.1C211.66 33.1 212.32 33.1 213 33.1C213 33.8 213 34.4 213 35.1C213.66 35.1 214.32 35.1 215 35.1C215.1 35.7 215.1 36.4 215.2 37C215.8 39.4 215.8 39.4 218.6 40.4C219.4 40.6 220.2 40.9 221 41.1C220.3 43.1 220.3 43.1 219 45.1C216 46 213.1 45.9 210 46.1C210.33 41.8 210.66 37.5 211 33.1Z" fill="#20507E"/><path d="M264 77.1C265.5 78.1 265.5 78.1 267 79.1C267.7 82.8 267.7 82.8 268 86.1C268.7 86.1 269.3 86.1 270 86.1C270.2 88.2 270.5 90.2 270.7 92.3C270.8 94.1 270.8 94.1 272 95.1C272.2 97.3 272.4 99.5 272.6 101.7C272.6 102.9 272.7 104.1 272.8 105.32C272.9 106.2 272.9 107.2 273 108.1C271 109.1 271 109.1 269 110.1C269.3 109.1 269.7 108.1 270 107.1C270.8 99.8 268.3 92.5 264.9 86C263.5 83.1 263.9 80.3 264 77.1Z" fill="#154E7B"/><path d="M84 190.1C84.33 190.1 84.66 190.1 85 190.1C85 196.4 85 202.7 85 209.1C85.66 209.1 86.32 209.1 87 209.1C87 216.1 87 223 87 230.1C86.34 230.1 85.68 230.1 85 230.1C85 224.2 85 218.2 85 212.1C83.35 212.1 81.7 212.1 80 212.1C80.5 211.5 81 210.8 81.5 210.18C83.5 206.2 83.6 202.7 83.7 198.3C83.7 197.5 83.8 196.74 83.8 195.9C83.9 194 83.9 192.1 84 190.1Z" fill="#00234A"/><path d="M131 78.1C134.2 82.3 134.3 83.2 134 88.1C134.66 88.1 135.32 88.1 136 88.1C136 87.5 136 86.8 136 86.1C137.98 85.5 139.96 84.8 142 84.1C142 85.1 142 86.1 142 87.1C140.4 88.5 140.4 88.5 138.2 89.8C137.1 90.5 137.1 90.5 136 91.1C134 92.1 134 92.1 131 92.1C131 87.5 131 82.9 131 78.1Z" fill="#1A5080"/><path d="M130 190.1C130.99 190.6 130.99 190.6 132 191.1C132 197.4 132 203.7 132 210.1C133.32 209.8 134.64 209.5 136 209.1C136 210.4 136 211.8 136 213.1C134.02 213.1 132.04 213.1 130 213.1C130 205.5 130 197.9 130 190.1Z" fill="#05335B"/><path d="M204 199.1C204.33 199.1 204.66 199.1 205 199.1C205 210.3 205 221.6 205 233.1C204.67 233.1 204.34 233.1 204 233.1C204 226.5 204 219.9 204 213.1C203.34 213.1 202.68 213.1 202 213.1C202.66 208.5 203.32 203.9 204 199.1Z" fill="#0C365F"/><path d="M235 39.1C235.7 39.8 236.3 40.4 237 41.1C236.8 43.1 236.8 43.1 236.1 45.3C235.9 46 235.7 46.7 235.5 47.4C235.3 48 235.2 48.6 235 49.1C235.8 49.2 236.6 49.3 237.4 49.4C240 50.1 240 50.1 242 53.1C238.8 53.5 237.4 53.4 234.7 51.6C232.4 48.3 232.6 46.1 233 42.1C233.7 41.1 234.3 40.1 235 39.1Z" fill="#11426D"/><path d="M184 102.1C184.66 102.1 185.32 102.1 186 102.1C186.5 109.8 184.7 116.7 183 124.1C182.34 123.1 181.68 122.1 181 121.1C181.4 119.3 181.9 117.4 182.4 115.5C183.5 111.14 183.7 106.63 184 102.1Z" fill="#1F5886"/><path d="M84 190.1C84.33 190.1 84.66 190.1 85 190.1C85 197.4 85 204.6 85 212.1C83.35 212.1 81.7 212.1 80 212.1C80.5 211.5 81 210.8 81.5 210.18C83.5 206.2 83.6 202.7 83.7 198.3C83.7 197.5 83.8 196.74 83.8 195.9C83.9 194 83.9 192.1 84 190.1Z" fill="#06335C"/><path d="M269 92.1C271.6 94 272 95 272.5 98.3C272.57 99.4 272.6 100.6 272.7 101.8C272.8 103 272.8 104.2 272.9 105.4C272.9 106.3 273 107.2 273 108.1C271.02 109.1 271.02 109.1 269 110.1C269.5 108.6 269.5 108.6 270 107.1C270.2 102 269.7 97.2 269 92.1Z" fill="#1B5485"/><path d="M180 125.1C180.7 125.5 181.3 125.8 182 126.1C181.7 127.1 181.3 128.1 181 129.1C181 131.9 181.1 134.7 181.2 137.4C181 140.2 180.4 141.8 179 144.1C178 137.97 177.9 132.3 179 126.1C179.3 125.8 179.7 125.5 180 125.1Z" fill="#1F5886"/><path d="M250.6 52.4C251.7 52.5 251.7 52.5 252.9 52.6C255 53.1 255 53.1 258 55.1C258 55.8 258 56.4 258 57.1C252.72 56.1 247.44 55.1 242 54.1C245.9 52.2 246.6 51.9 250.6 52.4Z" fill="#10436F"/><path d="M267 90.1C270.1 95.8 271.26 100.64 271 107.1C270.67 107.1 270.34 107.1 270 107.1C269.5 105.1 269.1 103.2 268.6 101.2C268.02 98.9 268.02 98.9 266 96.1C266.4 92.9 266.4 92.9 267 90.1Z" fill="#032B52"/><path d="M262 131.1C262.3 131.1 262.7 131.1 263 131.1C262.7 135.4 262.3 139.7 262 144.1C261.3 144.1 260.7 144.1 260 144.1C258.8 140.38 259.2 138 260 134.1C260.7 133.1 261.3 132.1 262 131.1Z" fill="#01284D"/><path d="M131 1.1C132.32 1.5 133.64 1.8 135 2.1C134.7 2.6 134.4 3.1 134.1 3.6C132.6 7.1 132.4 10.4 132 14.1C131.67 14.1 131.34 14.1 131 14.1C131 9.8 131 5.5 131 1.1Z" fill="#0A325F"/><path d="M258 57.1C260 59.1 261 60.6 261.2 63.4C261.19 65.6 261.1 67.9 261 70.1C258.6 65.37 257.9 62.6 258 57.1Z" fill="#10466D"/><path d="M208 30.1C210 31.1 210 31.1 212 32.1C211.3 34.8 210.7 37.4 210 40.1C207.6 36.5 207.84 34.4 208 30.1Z" fill="#0A3F6F"/><path d="M269 118.1C269.99 118.1 270.98 118.1 272 118.1C271.67 120.1 271.34 122.1 271 124.1C270.01 124.1 269.02 124.1 268 124.1C268.33 122.1 268.66 120.2 269 118.1Z" fill="#19629B"/><path d="M211 33.1C211.33 33.1 211.66 33.1 212 33.1C213.4 42.3 213.4 42.3 212 45.1C211.34 45.1 210.68 45.1 210 45.1C210.33 41.2 210.66 37.2 211 33.1Z" fill="#1F5383"/><path d="M184 114.1C186 117.9 186 117.9 185.8 120.1C185 122.2 184.1 124.2 183 126.1C181.64 123.4 182.3 121.9 182.9 119C183.1 118.1 183.3 117.2 183.5 116.2C183.7 115.5 183.84 114.8 184 114.1Z" fill="#012852"/><path d="M215 39.1C216.98 39.8 218.96 40.4 221 41.1C220.34 42.4 219.68 43.8 219 45.1C218.67 44.5 218.34 43.8 218 43.1C217.01 42.8 216.02 42.5 215 42.1C215 41.1 215 40.1 215 39.1Z" fill="#153F69"/><path d="M223 210.1C225.9 210.5 225.9 210.5 229 211.1C229.33 211.8 229.66 212.4 230 213.1C227.69 213.1 225.38 213.1 223 213.1C223 212.1 223 211.1 223 210.1Z" fill="#093968"/><path d="M220 19.1C222.31 19.1 224.62 19.1 227 19.1C227.33 20.1 227.66 21.1 228 22.1C224.7 22.1 221.4 22.1 218 22.1C218.66 21.8 219.32 21.5 220 21.1C220 20.5 220 19.8 220 19.1Z" fill="#09355D"/></svg>