<svg width="381" height="661" viewBox="0 0 381 661" fill="none" xmlns="http://www.w3.org/2000/svg"><path d="M316.8 660.2C316.4 660.3 316 660.36 315 660C312.65 659.4 310.9 659 309.1 659C289.8 659 270.4 659 251.1 659C231.1 659 211.1 658.9 191.2 659.1C187.4 659.1 185.5 658 185.8 653.9C186 650.3 185.9 646.61 186.1 643C186.37 636.5 186 630.41 180.3 625.9C178.4 624.4 177.1 622.1 175.4 620.3C168.2 612.9 160.8 605.7 153.6 598.14C150.8 595.2 148.04 591.99 146.3 588.4C144.48 584.6 143.9 580.2 143.1 575.8C144.2 573.7 145.01 571.9 145.9 569.8C146.3 569.2 146.5 568.7 147.2 568.3C151.8 568.2 155.8 568.2 160 568.4C160.3 568.8 160.6 568.9 160.9 569.3C165.13 571 163.3 567.6 164.1 565.9C165.2 564.2 166 562.7 167.1 560.97C167.6 560.5 167.8 560.3 168.4 559.9C170.1 557.83 171.5 555.9 173.2 553.86C174.2 553.8 174.94 553.9 176.1 553.9C180.8 554.5 184 553.04 186.1 548.8C186.5 548.09 186.7 547.5 186.9 546.6C186.2 543.2 185.5 540.1 185.1 536.8C184.5 535.7 183.7 534.88 182.43 534C179.62 534.7 177.2 535.4 174.48 536.1C173.4 536.2 172.7 536.2 171.8 536C171 536.2 170.4 536.6 169.5 537.1C165.9 540 164.2 545 158.5 545C157.4 545.3 156.6 545.7 155.47 546C154 546.4 152.9 546.8 151.5 547.16C150.8 547.2 150.4 547.2 149.7 547C146.8 547 144.1 547.18 141.4 547.6C137.2 548.4 133.2 548.6 130.8 543.7C130.4 542.9 130.1 542.5 129.7 541.8C129.69 541.6 129.7 541.2 129.7 540.8C129.2 539.6 128.7 538.8 128.1 537.6C127.9 536.2 127.8 535.2 127.7 533.8C127.2 533 126.6 532.5 126 531.69C125.9 531 125.81 530.6 125.8 529.8C125.1 529 124.5 528.5 123.9 528C123.8 527.9 123.9 527.9 123.9 527.5C123.5 526.1 123.38 524.8 122.68 524.1C119.1 520.5 115.53 517 111.77 513.6C110.8 512.7 109.17 512.5 107.8 512C107.8 512 107.8 512 107.8 511.6C105.3 507.6 103.6 503.14 97.8 503.8C96.9 503.9 95.2 502.5 95.1 501.6C93.9 495.7 89.1 493.8 84.5 492.2C79.5 490.5 77.1 486 79.1 481.1C80.9 476.6 79.6 474.4 75.2 472.9C72 471.7 69.2 469.5 66.2 467.9C64.8 467.2 63.3 466.2 61.8 466.2C57.1 466.1 52.4 466.5 46.8 466.8C46.8 459.3 46.7 452.1 46.9 444.9C47.5 417.5 48.2 390 48.8 362.6C49.2 346.05 49.6 329.5 49.8 312.9C50 300.1 49.8 287.2 49.87 274.4C49.9 271 50.6 267.5 50.6 264C50.6 257.7 49.9 251.4 50.1 245C50.4 236.4 51.6 227.8 51.8 219.2C52.3 197.8 52.6 176.3 52.8 154.8C53 137.7 52.9 120.5 52.8 103.35C52.8 101.6 52.3 99.8 52.1 98C52 97.6 52 97.1 52.4 96.2C53.5 89.5 54.6 83.4 54.8 77.2C55.3 51.5 55.5 25.7 55.8 0C150.9 0 245.88 3e-08 341.4 0.5C342.8 19.5 343.8 38 344.8 56.6C345.5 69 346.2 81.4 346.9 93.9C348.2 115.37 349.6 136.9 350.8 158.4C351.2 164.6 350.8 170.9 351.1 177.1C351.9 192.6 352.9 208.2 353.8 223.7C354 226.2 353.8 228.7 354 231.2C355.2 250.4 356.61 269.6 357.8 288.8C358.4 297.2 357.7 305.9 359.1 314.1C361.9 329.97 359.1 346.1 362.7 361.9C364 367.6 363.51 373.8 363.8 379.7C364.8 399.5 365.83 419.2 366.8 438.91C367.5 451.5 368.1 464.1 368.8 476.68C369.8 494.7 370.9 512.8 371.8 530.8C372.6 544.9 373.1 559 373.9 573.11C374.3 579.7 375.3 586.3 375.6 592.9C376 603.3 375.7 613.79 376.4 624.2C376.8 629.8 378.5 635.4 379.7 641C379.73 641.7 379.8 642.5 379.6 643.9C379.1 645.7 379 646.8 378.9 648.5C378.8 649.9 378.8 650.9 378.8 651.92C378.8 659 378.8 659 371.9 659C358.6 659 345.2 659.1 331.9 658.9C329.3 658.9 326.6 657.6 324 656.5C323.9 643.1 323.8 630.2 323.9 617.2C323.9 601.5 324.1 585.8 324.5 569.9C328.1 564 331.1 558.1 329.3 551.1C328.3 546.93 324.2 545.2 317.43 546.1C313.6 546.6 310.7 549 311 553C311.2 557.3 312.4 561.7 313.4 566C314.2 569.2 316.1 572.2 316.1 575.4C316.2 601.5 316 627.6 315.9 653.7C315.9 655.5 316.5 657.2 316.8 659.2C316.9 659.6 316.9 659.9 316.8 660.2Z" fill="#911D1D"/><path d="M379.7 640.5C378.5 635.4 376.8 629.8 376.4 624.2C375.7 613.79 376 603.3 375.6 592.9C375.3 586.3 374.3 579.7 373.9 573.11C373.1 559 372.6 544.9 371.8 530.8C370.9 512.8 369.8 494.7 368.8 476.68C368.1 464.1 367.5 451.5 366.8 438.91C365.8 419.2 364.8 399.5 363.82 379.7C363.5 373.8 364 367.6 362.7 361.9C359.1 346.1 361.9 329.97 359.1 314.1C357.7 305.9 358.4 297.2 357.8 288.8C356.6 269.6 355.2 250.4 354 231.2C353.8 228.7 354 226.2 353.8 223.7C352.9 208.2 351.9 192.6 351.1 177.1C350.8 170.9 351.2 164.6 350.8 158.4C349.6 136.9 348.2 115.37 346.91 93.9C346.2 81.4 345.5 69 344.8 56.6C343.8 38 342.8 19.5 341.8 0.5C342.3 1e-06 342.7 1e-06 343.5 0C344.9 20.5 346 40.9 347.1 61.4C350.1 114.4 353.03 167.5 356 220.5C359.5 281.4 363.05 342.2 366.5 403.1C370.3 470.9 374.1 538.8 377.9 606.6C378.6 617.8 379.2 628.9 379.7 640.5Z" fill="#911D1D"/><path d="M55.5 0C55.5 25.7 55.3 51.5 54.8 77.2C54.6 83.4 53.5 89.5 52.5 95.9C52.5 74.8 52.8 53.5 53.2 32.3C53.4 21.8 53.6 11.4 53.9 0.5C54.3 -3e-08 54.7 0 55.5 0Z" fill="#911D1D"/><path d="M127.7 534.1C127.8 535.2 127.9 536.2 128 537.9C128.6 539.5 129.1 540.3 129.7 541.2C129.7 541.2 129.7 541.6 129.7 542.1C129.8 543.1 129.8 543.6 129.8 544.4C130.1 549.4 131.9 552 137.1 550.2C138.3 549.8 139.7 550.18 141 549.9C144 549.1 147 548.1 150 547.3C150.4 547.2 150.8 547.2 151.7 547.4C153.5 547.35 154.65 547.1 156.2 546.94C157 546.9 157.4 546.8 158.3 546.8C164.6 546 168.6 542.5 171.22 537C171.65 536.7 171.8 536.5 172 536.3C172.69 536.2 173.4 536.2 174.7 536.3C180.9 535.7 183.4 537.3 184.6 542.5C185.6 547.1 183.3 550.7 178.3 552.1C177.35 552.4 176.5 553.3 175.6 553.9C174.9 553.9 174.2 553.8 173 553.7C167.8 553.6 167.8 556.65 168.1 560C167.9 560.3 167.6 560.5 166.7 560.98C164.1 563.5 162 565.9 159.9 568.2C155.85 568.2 151.8 568.2 146.8 568.2C143.3 568.6 138.2 566.8 139.2 571.2C141.4 580.4 142.9 590.2 149.9 597.5C158.3 606.2 166.5 615 175 623.5C181.6 630.1 185.6 637.3 183.9 647C183.2 651.4 183.11 655.9 182.7 660.3C174.1 660.4 165.5 660.45 156.3 660C155 655.8 155.3 650.6 152.9 648.7C147.3 644.1 140.5 640.9 134 637.4C132.31 636.4 129.9 635.1 128.9 638.5C127.3 644 125.7 649.5 124 655.3C123.9 656.1 123.9 656.56 123.6 657.2C123.19 658.3 123 659.3 122.7 660.2C113.4 660.3 104.1 660.4 94.4 660.1C96.1 656.6 97.8 653.7 95.8 649.63C94.7 647.44 94.4 644.2 95.1 641.91C97 636 97.3 630.2 95.5 624.34C95 622.7 93.4 620.6 91.9 620.27C83.9 618.2 75.8 616.7 67.7 614.99C63.8 614.2 61.5 612.3 61.7 607.9C61.9 602.9 61.7 598 61.7 592.5C61.6 586.8 61.4 581.45 61.6 576C62.7 569 63.55 562.2 64.4 555.4C57 549 54.4 538 44.1 533.6C43.8 532.8 43.2 531.4 42.7 529.7C42.7 528.9 42.7 528.4 43 527.6C43.4 520.2 43.4 513.1 43.6 505.5C43.7 499.4 43.7 493.7 43.7 487.7C43.8 487.5 43.7 487 43.8 486.6C43.8 484.1 43.8 482 44 479.7C44.1 476.3 44 473.1 43.9 470C43.9 470 44 469.5 44.5 469.3C50.6 468.8 56 468.5 61.5 468.4C62.5 468.4 63.7 469.1 64.6 469.7C67.1 471.22 69.4 473.4 72 474.4C76.1 475.9 77.1 477.96 76.5 482.3C76.1 485.5 77.4 489.2 78.8 492.2C79.5 493.5 82.6 493.5 84.4 494.4C87.5 496.04 93 495.7 91.1 502C90.9 502.8 92.5 504.6 93.6 505.2C98.3 507.6 103.1 509.8 107.8 512C107.8 512 107.8 512 107.9 512.3C113.3 517.8 118.6 522.8 123.9 527.9C123.9 527.9 123.84 527.9 123.9 528.3C124.6 529.12 125.2 529.6 125.8 530.1C125.8 530.6 125.9 531 126 532C126.6 533.1 127.2 533.6 127.7 534.1Z" fill="#232020"/><path d="M43.7 480C43.8 482 43.8 484.1 43.6 486.7C43.3 487.5 43.4 487.8 43.7 488C43.7 493.7 43.7 499.4 43.2 505.7C42.8 513.5 42.8 520.7 42.7 527.9C42.7 528.4 42.7 528.9 42.5 530C39.4 537.8 39 538.4 31.5 537.9C27.5 537.6 23.7 536 19.7 535.1C19.4 535.1 19.2 535 18.7 534.3C17.9 533.5 17.3 533.3 16.8 533C16.8 533 16.8 533 16.8 532.7C15.3 531.7 14 531 12.6 530.3C12.6 530.3 12.8 530.1 12.6 529.83C9.2 527.1 8.4 523.7 8.8 519.8C8.9 518.23 8.3 516.6 8 515.1C8 514.28 7.9 513.5 8.1 512.1C8 510.3 7.9 509 7.3 508C5.9 505.7 4.4 503.6 3 501.3C0.7 497.5 2.5 495.5 5.8 493.4C10.3 490.5 11.8 495.1 14.6 496C14.6 496 14.8 496 14.8 496.5C15.3 499.1 15.3 501.4 16.2 503.2C17.31 505.4 19.2 507.1 20.8 509C20.8 509 20.9 509 20.9 509.4C22.6 511.8 24.5 513.8 26.1 515.9C28 518.2 29.4 517.3 30.9 515.1C30.9 514.5 30.9 514.2 31.1 513.7C31.3 512.8 31.3 512.13 31.1 511.5C28 500.6 29.6 490.1 33.9 479.8C35.6 475.8 38.5 473.69 42.7 473.5C43.1 475.9 43.4 477.9 43.7 480Z" fill="#8F2222"/><path d="M107.8 511.6C103.1 509.8 98.3 507.6 93.6 505.2C92.5 504.6 90.9 502.8 91.1 502C93 495.7 87.5 496 84.4 494.4C82.6 493.5 79.5 493.5 78.8 492.2C77.4 489.2 76.1 485.5 76.5 482.3C77.1 478 76.1 475.9 72 474.4C69.4 473.4 67.1 471.2 64.6 469.7C63.6 469.1 62.5 468.4 61.5 468.4C56 468.5 50.6 468.8 44.7 469.1C44.7 443.2 45.3 417.2 45.8 391.24C47.3 319.12 48.7 247 50.2 174.88C50.7 149.6 51.3 124.3 52 98.5C52.3 99.8 52.8 101.6 52.8 103.35C52.9 120.5 53 137.7 52.8 154.8C52.6 176.3 52.3 197.8 51.8 219.2C51.6 227.8 50.4 236.4 50.1 245C49.9 251.4 50.6 257.7 50.6 264C50.6 267.5 49.9 271 49.9 274.4C49.8 287.2 50 300.1 49.8 312.9C49.6 329.5 49.2 346.05 48.8 362.6C48.2 390 47.5 417.5 46.9 444.9C46.7 452.1 46.8 459.3 46.8 466.8C52.4 466.5 57.1 466.1 61.8 466.2C63.3 466.17 64.8 467.2 66.2 467.9C69.2 469.5 72 471.7 75.2 472.9C79.6 474.4 80.9 476.6 79.1 481.1C77.1 486 79.5 490.5 84.5 492.22C89.1 493.8 93.9 495.7 95.1 501.6C95.2 502.5 96.9 503.9 97.8 503.8C103.6 503.1 105.3 507.6 107.8 511.6Z" fill="#911D1D"/><path d="M324.2 570C324.1 585.8 323.9 601.51 323.9 617.2C323.8 630.2 323.9 643.1 323.9 656.8C323.8 658.5 323.8 659.35 323.8 660.2C321.7 660.3 319.7 660.4 317.27 660.32C316.9 659.9 316.87 659.6 317.1 658.9C317.51 656.8 317.8 655.1 317.8 653.5C317.8 627.7 318 602 317.7 576.2C317.58 570.7 316 565.1 314 559.9C312.4 555.5 312.5 551.5 316.1 549.3C318.4 547.9 322.7 548.1 325.3 549.3C329.2 551.3 328.3 555.5 327.3 559.1C326.3 562.8 325.2 566.4 324.2 570Z" fill="#2B1E1C"/><path d="M183.19 660.5C183.1 655.9 183.2 651.4 183.9 647C185.6 637.3 181.6 630.1 175 623.5C166.5 615 158.3 606.2 149.9 597.5C142.9 590.2 141.4 580.4 139.2 571.2C138.2 566.8 143.3 568.6 146.36 568.2C146.5 568.7 146.3 569.2 145.5 569.78C143.7 570.4 142.4 570.9 141.1 571.3C141.7 572.9 142.2 574.4 142.8 576C143.9 580.2 144.5 584.6 146.3 588.4C148 591.99 150.9 595.2 153.6 598.14C160.8 605.7 168.2 612.9 175.39 620.3C177.1 622.1 178.4 624.4 180.32 625.9C186 630.41 186.4 636.5 186.1 643C185.9 646.61 186 650.3 185.8 653.93C185.5 658 187.4 659.1 191.2 659.1C211.15 658.9 231.1 659 251.1 659C270.4 659 289.8 659 309.1 659C310.9 659 312.7 659.4 314.65 659.9C313.4 660.3 311.9 660.57 310.42 660.6C268.2 660.59 225.9 660.6 183.19 660.5Z" fill="#782C2D"/><path d="M61.7 593C61.7 598 61.9 602.9 61.7 607.9C61.5 612.3 63.8 614.2 67.7 614.99C75.8 616.7 83.9 618.2 91.9 620.3C93.4 620.6 95 622.7 95.5 624.34C97.3 630.2 97 636 95.1 641.91C94.4 644.2 94.7 647.44 95.8 649.63C97.8 653.7 96.1 656.6 94 660C76.2 660.3 58.5 660.3 40.2 660.3C40.7 635 41.3 609.9 42.2 584.4C42.5 584 42.9 584 42.9 584.4C42.9 587.2 42.9 589.6 42.9 592.5C42.8 603.3 42.8 613.64 42.8 624C42.8 624 42.8 624 42.6 624.2C42.6 624.9 42.7 625.5 42.8 626.5C42.5 635.9 42.3 644.8 41.8 653.8C41.6 657.6 43 659.11 47 659.1C60.4 658.9 73.9 659 87.4 659C92.9 659 94.7 655.7 93 650.4C92.1 647.8 92.1 644.6 92.2 641.8C92.5 636.6 93.5 631.4 93.6 626.18C93.6 624.83 91.6 622.5 90.1 622.2C83.6 620.8 76.9 619.8 70.2 619C62.3 618 59.8 615.4 59.8 607.5C59.8 603 59.8 598.5 60 593.9C60.5 593.6 60.7 593.3 61 593C61.2 593 61.7 593 61.7 593Z" fill="#911D1D"/><path d="M19.9 535.4C23.7 536 27.5 537.6 31.5 537.9C39 538.4 39.4 537.8 42.5 530.3C43.2 531.4 43.8 532.8 44.1 533.6C54.4 538 57 549 64.4 555.4C63.5 562.2 62.7 569 61.3 575.8C60.4 575.2 60.1 574.6 60.1 573.8C60.5 572.7 60.7 571.9 60.8 570.6C63.5 561.8 61.7 554.7 54.9 548.6C53.52 546.8 52.2 545.41 50.9 543.6C49.5 541.5 48.2 539.8 46.9 538.1C45.9 539.8 44.8 541.4 43.9 543.1C43.7 543.6 43.9 544.3 43.9 545.4C43.9 548.6 43.9 551.3 43.9 554.4C43.8 556.6 43.8 558.3 43.8 560.5C43.8 565.6 43.83 570.31 43.8 575.2C43.8 575.5 43.8 576 43.6 575.98C42.9 576 42.6 576 42.2 576C42.2 563.6 42.2 551.2 42.2 538.2C34.6 539.9 26.8 541.3 19.9 535.4Z" fill="#782C2D"/><path d="M124.1 655C125.7 649.5 127.3 644 128.9 638.5C129.9 635.1 132.3 636.4 134 637.4C140.5 640.9 147.3 644.1 152.94 648.7C155.3 650.6 154.9 655.8 155.9 659.92C145.2 660.4 134.4 660.5 123.2 660.4C123 659.3 123.2 658.3 123.9 657.44C126.1 658 127.8 658.9 129.44 658.9C135.4 659.1 141.4 659.19 147.4 658.9C149.83 658.8 152.2 657.7 154.6 657C152.9 654.5 151.3 651.9 149.4 649.5C148.88 648.8 147.52 648.9 146.7 648.4C143.2 646.5 139.4 645 136.4 642.6C132 639.1 130.7 639.2 129.1 644.6C128.6 646.5 128.6 648.6 127.76 650.4C126.9 652.1 125.3 653.5 124.1 655Z" fill="#782C2D"/><path d="M324.1 660.4C323.8 659.35 323.8 658.5 323.9 657.3C326.6 657.6 329.3 658.9 331.9 658.9C345.2 659.1 358.6 659 371.9 659C378.8 659 378.8 659 378.8 651.9C378.8 650.92 378.85 649.9 379.1 648.5C379.6 648 379.8 648 379.93 648C380.2 650.8 380.47 653.56 380.7 656.4C380.8 657.5 380.7 658.6 380.7 660.5C361.8 660.5 343.1 660.5 324.1 660.4Z" fill="#782C2D"/><path d="M44 479.7C43.4 477.94 43.1 475.9 42.7 473.5C38.5 473.7 35.6 475.8 33.9 479.8C29.6 490.1 28 500.6 31.1 511.5C31.3 512.1 31.3 512.8 30.73 513.5C29.7 513.7 29.2 513.8 28.8 514C28.8 514 28.9 514.03 28.9 514.03C28.8 511.2 29.4 508.2 28.6 505.5C26 496.1 29.7 487.6 32.4 479.1C34 474 38.7 472 43.5 470.1C44 473.1 44.1 476.3 44 479.7Z" fill="#782C2D"/><path d="M14.6 495.68C11.8 495.1 10.3 490.5 5.8 493.4C2.5 495.5 0.7 497.5 3 501.3C4.4 503.6 6 505.7 7.3 508C7.9 509 8 510.3 8.2 511.7C6 509.1 4 506.3 2.1 503.4C-1.5 497.7 -0.5 494.5 5.6 491.9C7.6 491 9.6 490.4 11.7 489.57C12.7 491.7 13.6 493.5 14.6 495.68Z" fill="#782C2D"/><path d="M7.9 515.4C8.3 516.6 8.9 518.23 8.8 519.8C8.4 523.7 9.2 527.1 12.5 529.9C8.1 529.2 6.7 526.1 7.3 521.8C7.6 519.8 7.6 517.8 7.9 515.4Z" fill="#782C2D"/><path d="M20.7 508.63C19.2 507.1 17.3 505.4 16.2 503.2C15.3 501.4 15.3 499.1 14.8 496.6C15.7 496.9 17 497.4 17.3 498.3C18.6 501.6 19.5 505 20.7 508.63Z" fill="#782C2D"/><path d="M30.9 515.5C29.4 517.3 28 518.2 26.1 515.9C24.5 513.79 22.6 511.8 20.9 509.4C23.3 510.8 25.8 512.6 28.6 514.2C28.9 514 28.8 514.01 28.8 514.4C29.5 515 30.2 515.3 30.9 515.5Z" fill="#782C2D"/><path d="M42.1 576.4C42.6 576 42.9 576 43.6 576.4C43.8 577.9 43.8 579 43.7 580.1C43.4 580.54 43.4 580.8 43.8 581.3C43.5 582.4 43.2 583.2 42.9 584C42.9 584 42.5 583.98 42.3 584C42 581.6 42 579.2 42.1 576.4Z" fill="#901E1E"/><path d="M12.7 530.6C14 531 15.3 531.7 16.8 532.7C15.5 532.3 14.2 531.6 12.7 530.6Z" fill="#782C2D"/><path d="M380 647.6C379.75 648 379.6 648 379.1 648C379 646.8 379.1 645.7 379.5 644.27C379.9 645.07 380 646.1 380 647.6Z" fill="#8A2D2E"/><path d="M16.9 533.3C17.3 533.3 17.9 533.5 18.6 534.1C18.2 534.1 17.6 533.8 16.9 533.3Z" fill="#782C2D"/><path d="M324.5 569.9C325.2 566.4 326.28 562.8 327.3 559.1C328.3 555.5 329.2 551.3 325.3 549.3C322.7 548.1 318.4 547.9 316.1 549.3C312.5 551.5 312.4 555.5 314 559.9C316 565.1 317.6 570.7 317.7 576.2C318 602 317.8 627.7 317.8 653.5C317.8 655.1 317.5 656.8 317.1 658.7C316.5 657.2 315.9 655.5 315.9 653.7C316 627.6 316.2 601.5 316.1 575.4C316.1 572.2 314.2 569.2 313.4 566C312.4 561.7 311.2 557.3 311 553C310.7 549 313.6 546.6 317.4 546.1C324.2 545.2 328.3 546.9 329.3 551.1C331.1 558.1 328.1 564 324.5 569.9Z" fill="#782C2D"/><path d="M176.1 553.9C176.5 553.3 177.3 552.4 178.3 552.1C183.25 550.7 185.6 547.1 184.58 542.5C183.4 537.3 180.9 535.7 175.1 536.3C177.2 535.4 179.6 534.7 182.5 534.3C183.56 535.4 184.2 536.2 184.8 537C185.5 540.1 186.2 543.2 186.7 546.8C186.2 547.9 186 548.5 185.9 549C184 553.04 180.8 554.5 176.1 553.9Z" fill="#782C2D"/><path d="M149.7 547C147 548.1 144 549.1 141 549.9C139.7 550.2 138.3 549.75 137.1 550.2C131.9 552 130.1 549.4 130.1 544.4C130.3 544 130.8 544 130.8 544C133.2 548.6 137.2 548.4 141.4 547.6C144.1 547.2 146.8 547 149.7 547Z" fill="#782C2D"/><path d="M123.9 527.5C118.57 522.8 113.26 517.8 107.9 512.3C109.2 512.5 110.8 512.7 111.77 513.6C115.53 517 119.1 520.5 122.68 524.1C123.38 524.8 123.5 526.1 123.9 527.5Z" fill="#85292A"/><path d="M171 537.1C168.6 542.5 164.6 546 158.4 546.6C158.4 545.9 158.6 545.5 158.8 545C164.2 545 165.9 540 169.8 537.2C170.6 537.1 170.83 537.1 171 537.1Z" fill="#782C2D"/><path d="M143.1 575.8C142.2 574.4 141.7 572.9 141.1 571.3C142.4 570.9 143.7 570.4 145.4 570C145 571.9 144.2 573.7 143.1 575.8Z" fill="#8F2222"/><path d="M160 568.4C162 565.9 164.1 563.5 166.5 561.2C166 562.7 165.2 564.2 163.9 566C162.5 567.3 161.7 568.2 160.8 569C160.6 568.9 160.3 568.8 160 568.4Z" fill="#782C2D"/><path d="M168.4 559.9C167.7 556.6 167.8 553.6 172.6 553.7C171.5 555.9 170.1 557.8 168.4 559.9Z" fill="#782C2D"/><path d="M160.9 569.3C161.7 568.2 162.5 567.3 163.6 566.2C163.3 567.6 165.1 571 160.9 569.3Z" fill="#85292A"/><path d="M155.8 546.9C154.6 547.1 153.5 547.35 152 547.3C152.9 546.8 154 546.4 155.47 546.2C155.8 546.5 155.8 546.9 155.8 546.9Z" fill="#782C2D"/><path d="M185.06 536.8C184.2 536.2 183.6 535.4 182.9 534.34C183.7 534.9 184.5 535.7 185.06 536.8Z" fill="#85292A"/><path d="M129.75 540.8C129.1 540.3 128.6 539.5 128.1 538.3C128.68 538.8 129.2 539.6 129.75 540.8Z" fill="#782C2D"/><path d="M156.2 546.94C155.8 546.9 155.8 546.5 155.84 546.2C156.62 545.7 157.4 545.3 158.5 545C158.6 545.5 158.4 545.9 158 546.6C157.4 546.8 157 546.9 156.2 546.94Z" fill="#85292A"/><path d="M125.8 529.8C125.2 529.6 124.6 529.1 123.9 528.3C124.5 528.5 125.1 529 125.8 529.8Z" fill="#782C2D"/><path d="M127.7 533.8C127.2 533.6 126.6 533.1 126.1 532.3C126.6 532.5 127.2 533.01 127.7 533.8Z" fill="#782C2D"/><path d="M171.2 537C170.8 537.1 170.6 537.1 170.1 537C170.4 536.6 171 536.2 171.8 536C171.8 536.5 171.6 536.7 171.2 537Z" fill="#85292A"/><path d="M186.1 548.8C186 548.5 186.2 547.9 186.6 547.2C186.7 547.5 186.5 548.1 186.1 548.8Z" fill="#85292A"/><path d="M130.8 543.7C130.8 544 130.3 544 130.1 544C129.8 543.6 129.76 543.1 129.7 542.3C130.1 542.5 130.4 542.9 130.8 543.7Z" fill="#85292A"/><path d="M42.9 584.4C43.2 583.2 43.5 582.4 43.8 581.1C43.8 580.5 43.8 580 43.8 580C43.8 579 43.8 577.9 43.8 576.4C43.8 576 43.8 575.5 44.2 575.1C45 571.15 45.6 567.5 45.7 563.9C45.8 562.6 44.5 561.3 43.8 560C43.8 558.3 43.8 556.6 44.3 554.43C47.6 554.2 50.2 554 51.7 550.7C52 549.8 53.8 549.5 54.9 549C61.7 554.7 63.5 561.8 60.5 570.64C60.1 572.1 60 573 59.9 574.01C60.1 574.6 60.4 575.2 60.9 576C61.4 581.45 61.6 586.8 61.7 592.5C61.7 593 61.2 593 60.8 593.1C60.1 593.5 60 593.7 59.8 594C59.8 598.5 59.8 603 59.8 607.48C59.8 615.4 62.3 618 70.2 619C76.9 619.8 83.6 620.8 90.1 622.2C91.6 622.5 93.6 624.83 93.6 626.18C93.5 631.4 92.5 636.6 92.2 641.76C92.1 644.6 92.1 647.8 93 650.4C94.7 655.7 92.9 659 87.4 659C73.9 659 60.4 658.9 47 659.1C43 659.11 41.6 657.6 41.8 653.8C42.3 644.8 42.5 635.9 42.8 626.1C42.8 624.9 42.8 624.4 42.83 624C42.83 624 42.8 624 43.2 623.9C44 623.1 44.7 622.5 44.8 621.8C45.2 615.1 45.9 608.3 45.7 601.6C45.6 598.4 43.9 595.2 42.9 592C42.9 589.6 42.9 587.2 42.9 584.4Z" fill="#911D1D"/><path d="M124 655.3C125.3 653.5 126.9 652.1 127.76 650.4C128.6 648.6 128.6 646.51 129.1 644.6C130.7 639.2 132 639.1 136.4 642.6C139.4 645 143.2 646.5 146.7 648.4C147.52 648.87 148.88 648.8 149.4 649.5C151.3 651.9 152.9 654.5 154.6 657C152.2 657.7 149.83 658.8 147.4 658.9C141.4 659.2 135.4 659.1 129.44 658.9C127.8 658.9 126.1 658 124.1 657.25C123.9 656.56 123.9 656.1 124 655.3Z" fill="#911D1D"/><path d="M43 527.6C42.8 520.7 42.8 513.5 43.2 506.1C43.4 513.1 43.4 520.2 43 527.6Z" fill="#782C2D"/><path d="M43.7 487.7C43.4 487.8 43.3 487.5 43.6 487.1C43.7 487 43.8 487.5 43.7 487.7Z" fill="#782C2D"/><path d="M42.9 592.5C43.9 595.2 45.6 598.4 45.7 601.6C45.9 608.3 45.2 615.1 44.8 621.8C44.7 622.5 44 623.1 43.2 623.9C42.8 613.64 42.8 603.3 42.9 592.5Z" fill="#911D1D"/><path d="M42.6 624.15C42.8 624.4 42.8 624.9 42.8 625.7C42.7 625.5 42.6 624.88 42.6 624.15Z" fill="#911D1D"/><path d="M60 593.9C60 593.7 60.1 593.5 60.6 593.1C60.7 593.32 60.5 593.6 60 593.9Z" fill="#901E1E"/><path d="M54.9 548.6C53.8 549.5 52 549.8 51.7 550.7C50.2 554 47.6 554.2 44.3 554C43.9 551.3 43.9 548.6 44.3 545.4C46.7 544.66 48.8 544.3 50.9 544C52.2 545.41 53.5 546.8 54.9 548.6Z" fill="#901E1E"/><path d="M50.9 543.6C48.8 544.32 46.7 544.7 44.3 545C43.9 544.3 43.7 543.6 43.9 543.1C44.8 541.4 45.9 539.75 46.9 538.1C48.2 539.8 49.5 541.5 50.9 543.6Z" fill="#911D1D"/><path d="M43.8 560.5C44.5 561.3 45.8 562.6 45.7 563.9C45.6 567.5 45 571.15 44.2 574.9C43.8 570.3 43.8 565.6 43.8 560.5Z" fill="#901E1E"/><path d="M60.1 573.8C60 573 60.1 572.1 60.5 571.1C60.7 571.9 60.5 572.7 60.1 573.8Z" fill="#901E1E"/><path d="M43.7 580.1C43.8 580 43.8 580.5 43.8 580.7C43.4 580.8 43.4 580.5 43.7 580.1Z" fill="#782C2D"/></svg>