<svg width="162" height="80" viewBox="0 0 162 80" fill="none" xmlns="http://www.w3.org/2000/svg"><path d="M117.1 0.1C117.2 0.1 118.4 0.3 119.8 0.5C122.9 1 124.4 1.4 126.2 2.1C131.3 4.1 134 5.9 135.5 8.4C135.9 9 136.3 9.7 136.5 9.9C137 10.6 138.36 13.5 138.9 15.1C139.7 17.4 141 21.2 141.5 22.5C141.8 23.2 142 23.8 142 24C142 24.4 143 26.1 144 27.3C145.2 29 146.9 30.2 150.2 31.9C152 32.8 154 34 155.1 34.9C155.5 35.2 156.2 35.7 156.6 36C158.12 37.1 160.4 40 161.2 42.1C161.6 42.9 162.1 45.1 162 45.8C161.9 46.3 161.9 46.3 161.2 46.5C160.7 46.6 159.7 46.8 158.8 46.8C158 46.9 156.8 47.1 156.2 47.2C153.3 47.6 147 47.1 144.8 46.4C142.9 45.8 136.7 43 136.47 42.6C136.36 42.4 136.1 42.4 136.1 42.6C136.1 42.7 136.4 43.4 136.8 44.2C137.6 46 138.8 49.1 139 50C139.1 50.4 139.4 51.6 139.7 52.7C140.14 54.5 140.2 55 140.2 56.7C140.14 59 139.89 60.3 139 62.9C138.5 64.6 138.2 65.1 136.6 67.8C134 72 130.9 74.6 126.6 75.9C125.5 76.3 123.77 76.8 122.7 77.2C118.3 78.6 115.9 78.8 107.43 78.9C104.1 79 100 79.1 98.4 79.2C96.73 79.2 93.6 79.3 91.5 79.3C89.3 79.3 86.3 79.4 84.7 79.6C80.7 79.9 56.7 79.8 52.7 79.4C51.3 79.3 48.6 79.1 46.7 79C40.8 78.7 33.3 78.3 31 78.1C25.3 77.5 21.6 76.2 19.1 73.9C17.8 72.8 17.4 72.4 14.3 68.5C13.5 67.5 12.3 66 11.6 65.3C10.3 63.8 6.3 59.7 6.1 59.7C6.1 59.7 5.6 59.3 5 58.8C4.4 58.3 3.4 57.6 2.8 57.3C1 56.1 0.6 55.5 0.1 53.2C-0.1 52.3 -0.1 52.1 0.2 51.7C0.4 51.4 0.6 51.1 0.7 51C1.5 50.3 2.9 49.2 4.2 48.4C5.1 47.8 5.8 47.3 5.9 47.2C6 47 7.1 46.1 9.3 44.6C10.8 43.4 14.4 41.3 17.1 40C18.5 39.3 19.8 38.6 19.9 38.4C20.2 38.1 20.2 38.1 19.1 37.4C17.6 36.4 17.5 36.2 17.4 34.1C17.4 34 17.1 33.7 16.7 33.6C15.7 33.1 15.2 32.5 15 31C14.9 30.3 15 30.2 16.4 29.9C17.5 29.6 18.4 29.6 24.9 29.6C28.9 29.6 32.6 29.5 33.1 29.5C33.6 29.4 35.1 29.3 36.4 29.2C41.5 28.8 42.8 28.7 43.5 28.7C44 28.6 45.2 28.5 46.4 28.4C47.5 28.3 48.6 28.2 48.9 28.1C49.3 28 50.7 27.8 57.4 27.3C60.7 27.1 65.6 26.9 66.9 26.9C75.1 27.4 77.6 27.7 80.7 28.6C82.6 29.2 86.1 30.5 87.8 31.3C89.4 32.1 89.7 32.1 90.1 31.8C90.4 31.5 90.4 29.8 90.2 28.26C90.1 27.7 89.9 26.6 89.9 25.8C89.8 25.1 89.6 23.8 89.5 23.1C89 20.4 88.9 19.7 89 18.2C89 16.9 89.1 16.4 89.5 15.7C90 14.6 91.1 12.7 92 11.6C93.1 10 97.2 6.7 100.1 4.9C100.62 4.6 101.3 4.1 101.7 3.9C102.5 3.3 105.7 1.6 106.93 1.2C107.5 1 108.9 0.6 110 0.4C111.8 0.1 112.5 -0 114.5 0C115.9 0 117 0 117.1 0.1Z" fill="#FDF8DB"/></svg>