<svg width="984" height="815" viewBox="0 0 984 815" fill="none" xmlns="http://www.w3.org/2000/svg"><path d="M0.6 501.1L6.4 498.4C20.9 491.5 56.6 462.6 56.6 457.6C56.6 454.4 62.6 449.2 65.2 450.2C66.4 450.6 67.3 451.5 67.3 452C67.3 453.8 84.4 446.7 93.3 441.2C97.8 438.6 109.3 432.4 118.8 427.6C128.2 422.8 137.7 418 140 416.8C142.1 415.8 148.4 413.8 154 412.6C159.4 411.4 165.8 409.9 168 409.4C171.6 408.7 172.1 407.9 172.6 402.6C173 399.4 173.8 395.9 174.4 395C175 394 175.7 385.6 175.8 376.3C176.2 356.6 176.6 355.8 189.2 341.6C195 335.2 198 330.8 198 328.6C198 326.4 195.6 323 190.9 318.2C184.5 311.6 181.6 307.8 167.6 287.4C165 283.6 159.8 274.4 156.1 266.7L149.3 252.7L149.4 239.4C149.4 228.6 150 225 152.2 220.7C157.2 211.4 164.2 204.4 173.2 200.2C180.5 196.7 181.7 195.6 182.5 191.9C183.7 185.6 188.4 179.4 194.1 176C198.1 173.9 199.3 172.3 200 167.9C201 161.9 206.2 156.2 214.2 152.6C217.2 151.2 219.3 149.4 219.3 148C219.3 146.8 217.2 141.8 214.6 136.6C210.9 129.2 210.1 126.4 210.8 122.7C212 116 214.6 111.4 219.6 107.9C224.1 104.6 229.4 104.2 250.6 105.2C255.8 105.5 268.6 105.1 279.2 104.4L298.4 103.2L303.6 97.4C306.5 94 310.1 89 311.6 86C319 71.4 325 66.8 338.8 65.2C347.7 64.3 349.8 63.5 355.8 59C368.1 49.5 374.2 46.6 378.6 47.9L382.6 49.1L379 49.2C376.9 49.4 373.3 51.2 370.5 53.6C365.7 57.9 354.2 74 352.4 79.4C351.7 81 351.6 79.6 351.8 76.2C352.2 72.8 354.2 67.5 356.5 63.5L360.6 56.7L356.9 61C352.6 65.9 345.3 69.4 339 69.4C331.4 69.4 323.6 74.3 319.3 81.9C314.4 90.4 314.2 91.5 319.2 86.6C321.3 84.4 323.8 82.7 324.9 82.7C325.8 82.7 325 84 323 85.8C319.2 88.8 316.6 94.3 316.6 99.1C316.8 101.6 317 101.5 318.5 98C319.4 95.8 321.6 92.8 323.2 91.4C326 89 326 89.1 322.8 95.6C318.6 103.8 318.4 109.9 322 115.8C325.2 121 325.3 122.3 322.5 120C318.9 117 317.4 113 316 102L314.5 91.4L312.1 100.4C310.1 107.6 309.8 110.4 310.9 114C312.8 119.9 312.1 120 309.2 114.3L306.9 110L305 118.8C303.2 128.2 296.1 146.4 297 139.4C297.8 133.8 301.8 117.9 304.2 110.7C308.6 97.6 309.8 92.7 308.2 95.2C301.8 105.4 300.6 105.8 281.3 107.2C276.9 107.5 269.7 108.4 265.3 109.4C259.4 110.6 254 110.7 244.6 109.8C225 107.8 218.5 110.4 215.3 121.9C214 127 214.1 128.3 216.4 132.8C217.7 135.8 219.7 140.3 220.5 143L222.1 147.9L228.5 144.3L234.9 140.8L229.7 138.4C217 132.8 213.6 127.5 220 124C222.8 122.6 224.2 122.6 228.9 124.2C235.6 126.3 241.7 130.3 244.1 134.2C245.7 136.4 245.7 137.2 244 139.5C242 141.9 242 141.9 242.8 138.6C243.4 135.6 242.8 134.6 239 132.3C233.7 129.1 223.8 126.3 221.8 127.5C218.9 129.2 231.7 138.7 237.3 138.7C240.5 138.7 239.6 141 235.6 142.6C233.6 143.4 229.7 146.2 226.9 148.7C224.1 151.2 220.2 154.2 218.2 155.2L214.8 157.1L220.4 158.7C225.8 160.4 231.3 164.3 231.3 166.6C231.3 167.2 230.4 168 229.4 168.4C228.1 169 227.7 168.6 228.2 167.2C228.8 165.9 226.8 164.4 221.4 162C212 157.9 211.4 157.9 206.2 162.4C201.3 166.7 198.8 174 202.8 172.4C204.2 172 207 170.2 209.2 168.4C212 166 214 165.4 216.5 166C221.6 167.2 222.8 169 218.1 168.3C216 168 213.2 168.4 211.7 169.2C209.8 170.6 211 170.7 217.8 170.3C225 169.9 226 170 223.8 171.6C222.5 172.6 218.6 173.4 215.3 173.4C201.4 173.4 192 179.5 187.4 191.5C185.2 197.2 184 198.4 177.8 201.6C170.4 205.2 166.8 208.6 162.5 215.4C160.1 219.4 160.1 219.4 162.8 217.1C166 214.3 177 210.7 182.2 210.7C184.2 210.7 190.5 209.2 196.2 207.4C210.1 203 211 203.2 200.4 208.7C194.5 211.8 188.1 213.8 181.7 214.7C158.1 218 155.8 220.2 155.4 238.8C155.2 249.1 155.6 251.4 159.3 259.5C168.2 279.5 174.2 288.8 194.4 314.6C199.4 321.2 201.7 325.2 201.3 326.8C200.5 329.1 200.8 329.1 204.9 327.1C211.2 323.9 221.4 323.5 229.3 326C233 327.2 242.5 328.7 250.5 329.4C258.5 330 265.4 331 266.1 331.6C266.6 332.2 261.4 332.8 254.6 333C244.9 333.1 239.6 334 231.8 336.7C224 339.4 220.9 339.9 218.8 339C216.2 337.6 216.2 337.5 219.8 337.5C224.2 337.4 232.6 334.6 232.6 333.2C232.6 331.8 217 329.2 213 330.2C205.8 331.8 198.2 337.4 191.4 345.8C187.7 350.4 184.2 355.8 183.6 357.5C182.9 359.2 182 367 181.4 374.7C180.6 385.2 179.6 390.4 177.2 395.9C174.1 402.7 173 408 174.8 408C175.2 408 179.3 407.1 183.7 405.9C195.8 402.8 212.5 400 219.4 400C225.3 400 225.8 399.8 229.8 393.6C236.8 383.2 243.8 373.5 246 371.5C247 370.4 253.4 366.8 260 363.5C271.2 357.8 271.7 357.6 267.3 361.5C264.8 363.8 259.4 367.4 255.6 369.6C251.3 372 247 375.9 245.2 379C243.3 381.9 239.7 386 237.2 388.3C234.6 390.6 231.4 394 230 396L227.3 399.8L239.7 399.9C246.4 400 253.8 400.7 256.1 401.4C259.6 402.6 261.2 402.3 266.1 399.4C269.3 397.6 274.9 395.6 278.4 395.2C283.6 394.4 284.6 393.9 283.8 392.2C283.3 391 282.8 384.8 282.5 378.3C282.2 369.2 281.6 365.6 279.4 362.2C277.4 359 276.6 355.5 276.6 349.6C276.6 342.4 276.1 341 272.5 336.8C269.2 332.8 268.1 330.2 266.5 319.8C264.1 305 262.6 289.8 263.7 290.7C264.6 291.6 271.3 320.4 271.3 323.8C271.3 325.2 273.4 329.5 276 333.2C280.1 339.2 280.6 341 280.6 348.7C280.6 354.4 281.3 358.6 282.8 360.7C285.2 364.4 287 378.7 284.9 378.7C284.2 378.7 285.7 385.1 288.2 393C291.4 402.4 293.2 410.4 293.3 416.2C293.7 427.2 297.6 434.7 304.5 437.9C307.2 439.2 310.8 441.2 312.6 442.4C315.4 444.3 320.2 444.6 342.2 444.7L368.6 444.8L366 442C364.6 440.6 362.5 437.2 361.4 434.7C360.4 432.2 358.2 428.2 356.6 426C353.6 421.5 353.2 416.2 355.7 413.1C357.6 410.6 368.2 402.4 372.5 400C374.1 399.2 377.4 394.2 380 389C383.8 381 385.8 378.6 392.1 374.2C396.1 371.4 399.8 368.3 400.1 367.4C400.5 366.4 397.6 360.2 393.6 353.5C389.4 346.8 385.8 339 385.3 335.9C384.8 332.8 382.5 328.2 379.8 325C363.8 305 362 301.6 362 291.2C362 288 363.3 282 364.9 277.8C366.9 272.4 367.7 267.5 367.6 262C367.4 257.6 368.4 247.1 369.6 238.7C371 229 372 214.6 372 199.4C372.1 174 373.4 166.6 379.6 156.3C382.4 151.8 395.6 140.6 405.6 134.3C408.9 132.2 411.6 129.4 412.1 127.5C413.2 123.2 416.4 121.2 432.2 114.8C454.5 105.9 460.4 104.7 481.3 105C496.5 105.1 501 105.6 506 107.8C511.2 110 513 110.2 518.8 109C524.2 107.9 526.6 108 530.6 109.6C535.4 111.5 535.2 111.6 520.1 111.4L504.8 111.2L509.7 114C512.4 115.6 516.2 118.3 518 120.2C526.8 128.7 538.8 136.6 542.2 136.2C545.8 135.9 557.6 141 556.1 142.3C555.7 142.7 553.6 142.3 551.2 141.5C548.8 140.7 545.3 140 543.4 139.9C540.4 139.9 540.2 139.8 542.6 138.7C545.2 137.6 545.2 137.5 542.2 137.5C539.4 137.4 539.3 137.8 540.1 145C540.6 150.7 540.5 152.2 539.4 150.7C538.6 149.6 538 147 538 145C538 141 534.4 137 527.2 132.8L522.6 130.3L527.6 135C538 144.8 534 155 522.1 148.8C516.8 146 510 137.8 510 134.2C510 130.2 513.2 127.5 516.9 128.4C519.7 129.1 519.7 129 517.6 127.6C501.4 117.4 494.1 109.9 508.2 118.2C511.6 120 514.5 121.4 514.8 121C516.1 119.6 505 114.3 500 113.8C494.1 113.1 485.6 116.2 475.3 122.7C472 124.8 467.6 126.8 465.3 127.4C462.1 128 462.8 127.4 468.1 124.3C472 122.2 476.8 119.2 478.8 117.8C483.8 114.3 486.5 113.2 496 111.4L504 109.6L496.4 109.5C490.1 109.4 487.6 110.2 481.7 113.5C477.8 115.8 473.2 118.2 471.3 118.8L468 120L471.3 117.4C473.2 115.9 477 113.5 479.8 112.2L485 109.5L481.2 108.6C476 107.2 460.9 110 439.2 116.2C417.8 122.2 414 123.8 414 126.6C414 127.6 412.5 130.8 410.6 133.6C408.8 136.4 405.7 141.1 403.8 143.9C401.2 148 400.6 150 401.3 153.9C402.4 159.2 402.9 159.5 406.6 157C408.1 156 412.4 153.5 416 151.4C424.8 146.4 421.4 150.4 411.2 157.5C406.9 160.3 402.4 164.2 400.9 165.9C399.6 167.8 395 173 390.9 177.6C386.9 182.3 382.4 187.5 380.8 189.4C379.3 191.2 378.1 192 378 191.2C378 189.8 381.8 184.3 395 167.6C400.8 160.3 400.8 160.3 399.2 154C397.7 148.3 397.8 147.5 400.8 143.6C402.5 141.1 399.3 143.5 393.2 149C375.4 165 373.7 170 376 196.4L376.9 206.8L381.6 199.8C390.6 186 397.4 179.4 407.6 174C421.6 166.7 431.7 159.6 437.2 153.2C443.2 146.2 443.3 144 437.6 144C434.6 144 431.2 145.5 427.3 148.3C422.1 152.2 421.7 152.3 423.6 149.5C429.8 140.7 446 137.9 446 145.8C446 150.7 426.6 168 412.9 175.2C404 180 398.5 184 393.3 189.6C380.6 203.2 379 206 377.2 217.1C374 235.2 372.4 249.8 372.5 259.6C372.6 266.7 371.8 271.2 369.8 276.3C366.1 285.4 366 297.6 369.3 304C370.6 306.6 375.4 313 380 318.3C386.6 325.9 388.6 329.2 389.8 334.8C390.8 338.8 394.5 347.1 398.9 354.3L406.4 366.8L403.7 370.4C402.4 372.3 397.7 376 393.4 378.6C387.8 382.2 384.8 385.2 381.8 390.4L378 397.4H380.9C383.3 397.5 382.8 398 378.4 400.2C375.3 401.6 372 404.2 370.9 405.8L369 408.7H383.2C396.9 408.7 397.3 408.8 397.7 411.8C398.2 415 394.8 420 392.2 420C391.4 420 391.8 419 393 417.6C397 413.2 395.8 412 387 412H378.6L378.4 416.3C378.2 418.7 377.8 422.6 377.3 424.8C376.4 428.8 376.6 429.1 382.9 431.2C386.4 432.4 392.9 433.8 397.2 434.3L405 435.1L397.6 421.8L400.1 417.2C402 414 404 412.6 406.5 412.3C411 411.8 416.9 414 420.1 417.5C422.4 420 421 421.1 418.6 418.8C417.8 418.2 415 417 412.2 416C407.6 414.6 406.8 414.7 403.8 417.5C400.2 420.8 399.7 425.6 402.6 428C403.7 429 404.6 430.6 404.6 431.5C404.6 433.9 410.5 436.7 413.2 435.6C414.4 435.1 415.3 433.6 415.3 432.2C415.3 430.7 417.4 427.4 420 424.6C426.6 417.6 426.1 413.2 418.5 410.7C416 409.9 414 408.6 414 407.9C414 407.2 415.4 407.4 417.4 408C419.3 408.8 423 409.4 425.8 409.4C431.4 409.4 433.3 410.8 434.6 416.3C435.4 419.5 434.8 420.3 428 424.6C423 427.8 420 430.8 419 433.4C417.4 438 418.6 437.8 400.8 437.4C386.1 437.1 376.8 435.1 372.6 431.4C371.3 430.2 368.2 428.2 365.8 427C360.9 424.4 360.1 421.8 362.8 416.6C365.3 411.9 364.5 411.2 360.8 415.2L357.8 418.3L361.7 427.8C367.2 441.4 367.3 441.5 378.8 441.2C386.8 441.1 389.6 441.6 394.9 444.3C400.9 447.5 402 447.5 413 446.4C420.9 445.6 426.9 444.3 431 442.2C434.5 440.4 439.6 437.9 442.5 436.6C448.1 434 452.6 427.9 452.6 422.7C452.6 420.8 451.3 417 449.6 414C446.8 409 443.4 406.7 431.3 401.5C428.5 400.3 429.2 400.2 434.6 400.8C445 402 449.6 404.6 454 411.5C462 424.3 457.6 435.2 442 440.7C438.9 441.8 434.8 443.8 432.8 445.2C430.8 446.7 425.4 449 420.9 450.2L412.6 452.4L423.7 457.4C452.4 470.2 478.1 484.2 500.9 499.1C517.4 509.9 519.6 513 525.4 534C527.4 541.4 530.5 551 532.2 555.2C534 559.6 535 563.4 534.8 563.6C533.8 564.7 523.4 542.8 518.6 529.6C514.5 518.2 512.8 515.2 508 511C502.4 506.2 473.8 488.4 459.3 480.8C446.2 474 429.6 464.7 419.3 458.4C410.8 453.2 408.5 452.4 404.2 453L399.3 453.6L413 464.6C420.5 470.4 432.6 479.9 439.7 485.4C446.8 490.8 452.6 495.8 452.6 496.4C452.6 499 426.8 482.4 408 467.9C393.3 456.7 388.2 454.4 371.3 452.2C356.4 450 340.6 449.8 297.3 451.1C268 452 259.7 451.8 252.6 450.3C245.3 448.7 243.3 448.6 238.8 450.2C235.7 451.4 222.6 452.6 206 453.4C171.6 455 162.8 456.2 136 462.8C109.3 469.4 108.4 469.8 99 477C90.4 483.6 78.2 489.5 49.6 501.2C20.9 512.8 10.2 519.9 5.2 530.4C1.8 537.4 1.3 533.8 4.6 526.4C10.2 513.8 19.8 506.7 46.6 495.9C55.8 492.2 58.6 490.2 66.9 481.5C72.2 476 76.4 471.4 76.1 471.1C75.8 470.8 69.4 471.8 62 473.2C49.4 475.8 47.7 476.6 37.6 483.9C25.6 492.6 18.1 496.6 8 500L1.3 502.3M196.1 813.4L197.7 794.3C198.6 783.9 200.2 770.8 201.3 765.4C202.4 759.9 204.8 742.4 206.6 726.7C208.9 707.8 212 691 215.4 677.1C221.8 651.4 227.7 611 224.5 614.3C224 614.8 220.6 620.7 216.9 627.4C213.2 633.9 207.4 644.2 204.1 650C194 667.5 192.2 673.2 191.6 691C191.2 702.2 191.7 710.2 193.3 719.4C195.8 733.5 195.4 748.4 192.2 761.4C190.4 768.4 190.4 767.9 191 749.4C191.4 736.8 191.2 727.5 190.1 722.7C187.6 711 186.8 688 188.5 678.7C190.4 669.4 196.4 655.6 204.8 641.1C218.2 618 226.1 603.1 227.4 598C228.6 593.2 231 585.2 240.8 553.1C243.3 544.4 244 543.6 259.7 529C289.2 501.4 299.7 493.5 324 481.4C339 473.8 352.4 470 368 468.8L378.6 468L364 471.2C329.4 478.7 304.2 493.8 268.2 528.2C248.6 547 248.6 547 245.8 556.4C244.4 561.8 241 572.6 238.5 580.7C233 598.4 231.8 605 230 627.2C228.4 645.6 225.8 659.9 219.6 684.2C217.3 692.6 214.9 705.9 214.1 714C213.3 722 212.2 730.4 211.8 732.7C211.2 736.4 211.2 736.6 213 734C214.1 732.6 219 723.5 224 714C234.1 694.8 247.6 672.6 258.6 657.4C262.6 651.9 269.3 641.6 273.6 634.7L281.3 622L282 606.7L282.8 591.2L293.8 569.4C306.9 543.6 308.8 540.6 320 526.4C331.4 511.8 336.5 502 338.6 489.6L340.5 479.4L340.2 492.2C339.8 503.5 339.4 505.9 335.6 513.5C333.3 518.2 327.7 526.2 323.3 531.4C317.7 538 311.6 548 302.1 566.2C288.8 591.8 286.5 597.6 284.8 610.2L283.8 617L298.5 601.6C333.4 565.2 364.1 544.6 401.6 532C435 520.8 456.9 522.4 489.6 538C500.5 543.4 502.2 545.8 491.8 541.4C467.4 530.8 442.1 527.2 422 531.2C400.4 535.6 371.8 548.2 352.4 561.6C324.4 581.1 298.1 606.6 285 627C272.9 645.9 266.9 654.8 261.3 662.7C254.1 673 258.1 669 269.2 654.8C302.8 612.3 340.8 577 361 569.5C370.5 566 383 565.6 384.2 568.8C385.3 571.6 382.6 579.9 377.2 591.6C374.6 597 371.4 607 370 614.6C366.1 633.4 362.4 643.4 346.9 674C322.5 723.1 315.8 733.9 270.5 799.6C265.8 806.4 262 812.3 262 812.7M371.3 813.4V807C371.3 798.2 374.2 788.8 380.2 779.1C391 761.4 422.2 731.5 438.2 723.4C448.4 718.4 448.2 718.2 433.3 716.2C421.2 714.4 408.4 716.2 399.6 720.6C391.8 724.4 384.1 725 368.2 722.6C356.4 720.7 353.6 719.4 358.8 718.2C360.9 717.6 367.2 715.2 372.6 712.8C378.1 710.4 385.6 707.6 389 706.7C394.6 705.2 395.2 704.7 393 703.5C391.7 702.8 384.1 702.2 376 702C364.1 702 360.4 702.6 356.6 704.6L352 707.1L354.5 704.2C356 702.6 360.4 700.3 364.2 699.2C378.6 695.1 406 697.4 406 702.7C406 706.8 405.2 707.2 374.6 716.6L364 719.8L377.3 719.2C388.5 718.7 391.8 717.9 398.5 714.6C405.2 711.4 408.2 710.7 416.2 710.7C428 710.7 438.4 712.7 444.9 716.4L450 719.1L441.7 724.6C429.3 732.6 399.3 761.6 388.6 775.9C382.1 784.6 374.1 801 373.2 807.6L372.2 813.4M704.6 812.7C704.6 812.3 700.4 803.4 695 793C685 773.2 683.6 772.2 683.4 784.6C683.3 787.5 682.6 793.6 681.8 798.3C680.6 804.8 679.6 807.4 676.8 809.5C673.6 812 672.2 812.2 659.3 811.4C632.9 809.8 624.4 808.3 614 804C604.4 800 603.2 799.9 588 800.2C564.5 800.6 564 800.4 558.9 796C552 790 538.4 766.8 532.6 751.6C529.8 744 525.7 739.2 523.4 740.6C520.9 742.2 518 759 519.3 764.7C520.9 771.8 519.4 805.1 517.6 802C516.9 800.7 515.7 790.2 515 778.4C513.7 755.5 514.1 752.3 520.6 741.8C524.9 734.6 527.8 737.4 542.8 762.4C550.1 774.6 558.1 786.8 560.8 789.6L565.6 794.7H585.7C605.2 794.7 606.2 794.8 616.2 798.8C624.9 802.4 629.3 803.2 643.3 804.2C652.5 804.8 662.5 805.6 665.4 806.2C674.2 807.5 676 804.8 678 786.2C679.4 771.9 679.4 769.5 676.8 754.6C675.2 745.6 674.1 738.2 674.5 737.8C674.8 737.4 676.4 741.5 678 747C679.6 752.3 684.9 764.2 690 773.4C695 782.6 701.7 795.2 704.8 801.8L710.5 813.4H764.1L765.8 805C769.3 787.8 775 779 788.4 770.3C799.8 762.7 805 758.6 820.8 744C832.1 733.6 834.4 730.6 842.2 716.6C847 707.8 852.2 697.8 853.8 694.2C855.4 690.6 856.9 687.9 857.3 688.3C858.6 689.5 852.4 705.4 844.2 721.6C836.2 737.6 835.6 738.3 822.6 749.6C815.3 756.2 804.5 765 798.6 769.4C781.3 782.2 779.3 784.2 776.1 790.6C773.2 796.2 768.6 809.6 768.6 812.3M833.4 813.4L837.7 804.3C840 799.4 845.2 786.3 849.2 775.1C854.6 759.6 858.5 751.5 865.7 739.8C876.1 723.1 883 707.1 884.5 696.4C885.4 689.9 885.3 689.2 882.1 687.2C878.4 684.7 861.8 680 856.5 680C854.6 680 850.2 681.9 846.8 684.2C843.2 686.3 834.6 690.8 827.7 694.2C820.8 697.5 815.3 700.6 815.7 700.8C816.6 701.8 830.8 697.5 839.3 693.8C843.3 691.9 848.8 689.5 851.3 688.6C855.7 686.7 855.8 686.8 853.3 688.7C843.3 696.8 809.7 711.9 801.7 712C797 712 799.3 707.1 806.6 701.2C810.6 698 813.7 695.4 813.6 695.1C813.3 695 808.5 696.6 802.9 698.8C793.7 702.3 783.7 704.8 768.4 707.4C760.9 708.6 762.2 710.7 770.5 710.7C779.7 710.7 782.4 713.2 778 717.9C774.1 722.2 768.1 724.6 764 723.5C760.8 722.7 760.6 722.3 761.4 715.2L762.4 707.9L756.5 708.8C753.3 709.2 745.6 710.4 739.3 711.5C706.9 717.1 695.6 719.1 677.2 722.7C666.2 724.8 652.1 727.2 645.8 727.9C628.5 730 595.6 734.4 586.6 736C569 739 573.7 736.3 594.6 731.4C602 729.6 620.1 726.3 635 724C650 721.8 669.4 718.6 678.4 716.7C704 711.6 746.1 704.4 767.7 701.4C785.6 698.8 812 693.2 824.6 689.2C827.2 688.4 834.8 685.1 841.3 682C848 678.8 856.8 674.7 861 672.7C865.2 670.7 871.6 668.8 875 668.4L881.3 667.9L874.6 670.4C870.9 671.8 866.2 673.9 864.1 675L860.2 677L868.1 677.9C883.8 679.8 889.3 682.8 894.2 692.7C895.7 695.6 898.8 699.9 900.9 702.3C905 706.6 905.4 710.4 902.5 717.9C901.6 720.2 902 720.3 906.8 719.6L912 718.8L908 720.6C905.4 721.8 903.2 722 901.7 721.2C900 720.3 899.3 720.7 898.5 723.1C898.1 724.7 894.6 734.2 891 744C886.4 756.6 883.6 766.7 882 777.4C880.6 785.8 878.6 796.8 877.4 801.8C876.2 806.8 875.3 811.4 875.3 812.2C875.3 812.8 880.2 813.4 886.4 813.4H897.3L900.2 803C905 786.6 907.4 771.4 908.2 751.9C908.9 736.7 908.6 733.1 906.8 729.4C903.8 723.5 904.9 722.8 908.8 728.2C911.3 731.8 911.8 734.6 912.4 746.7C913 762.8 908.9 793.2 904.5 804.3C903.2 807.9 902 811.4 902 812.2C902 813 906.9 813.4 914.9 813.1L927.7 812.7L930.6 802C932.8 794.2 933.8 785.4 934.5 769.4C935.6 743.9 938.1 731.2 946.8 708.8C947.4 707 947.2 706.8 943.8 708.2C941.7 709 935.6 710.4 930.2 711.5C924.9 712.4 918.6 714.3 916.2 715.4L912 717.5L915.8 714.2C918 712.4 922.5 710.2 925.8 709.2C929.2 708.4 936.4 705.9 941.7 703.6C948.9 700.7 951.8 700 953 701.2C954.6 702.8 954.6 702.8 945.4 728.7C940.9 741.4 940.6 743.6 939.3 767.4C938.1 789.5 937.6 793.4 934.8 799.4C932.9 803.1 931 807.8 930.6 809.8C929.7 813.1 930 813.4 933.7 813.4C937.6 813.4 937.7 813.2 938.5 805C940.2 789.8 943 779.5 948.9 766C952.2 758.7 956.2 747.9 958 742C959.6 736.2 962.8 727.8 965 723.4C967.2 719 970.4 710.3 972.1 704.2C973.8 698 976.8 691.1 978.6 688.6L982 684.2L981.7 649.8L981.3 615.4L977 626.2C974.8 632.2 972.1 640.8 971.3 645.5C970.4 650.2 967.8 659.9 965.6 667.2C962.2 678 961.8 680.8 963.2 682.8C964.5 685.1 964.2 686.2 962 689.4C960.4 691.6 957.6 693.8 955.6 694.2C953.6 694.6 947.8 696.3 942.6 698C932.6 701.5 909.7 706.8 908.8 705.9C907.8 705.1 919.6 700.4 927.3 698.6C931.3 697.6 935 696.6 935.6 696.2C936.1 695.6 931.8 693 926 690.2L915.4 685L910.1 687.4C904.9 689.6 904.8 689.6 900 686.7C897.4 685.1 894.4 684 893.4 684.4C890.8 685.5 888.6 682.7 888.6 678C888.6 673.1 886 663.6 881.6 652C878.8 644.8 877.7 643.2 874.9 643C872.5 642.7 871.3 643.4 870.6 645.2C870.2 646.7 867.7 649.8 865.2 651.9C861 655.5 859.6 656 852.2 656C844 656 839.2 657.6 841 659.6C842.8 661.4 852.9 660.3 861.2 657.4C870.2 654.3 878.4 653.9 880.5 656.4C881.3 657.5 882.2 660.3 882.6 662.8L883.4 667.4L881.4 663.1C879 657.9 877 657.6 864 661.4C852.8 664.6 844.9 664.8 840.9 661.9C834.4 657.4 838.6 653.8 852.2 652.4C859.4 651.8 861.8 650.8 865.4 647.6C868 645.5 870 643.4 870 642.8C870 641.5 850.9 632.8 841.3 629.6C836.9 628.2 828.8 625.1 823.3 622.7L813.3 618.3H788.6C745.8 618.2 724.5 620.3 707.7 626.3C699.7 629.1 696.6 629.5 690.4 628.8C686.1 628.3 675.7 627.6 667.2 627.2C653.4 626.4 651 626.7 645.6 629.1C639.8 631.6 639.3 632.3 639.3 636.6C639.3 644.4 637.3 647.5 628.4 652.8C618.8 658.7 597.7 679.1 578.8 701C564.6 717.2 559.8 720.8 540.8 728.6C531.6 732.4 527.7 733.4 526.1 732.4C525 731.8 521.8 727 519 721.9C512.9 710.8 512.5 703.9 517.2 694C521.6 684.7 524.6 682.2 530.6 683.2C542.9 685.6 545.4 682.3 546.6 662.3C547.2 655.5 547.7 648.6 548.1 647C548.5 645.2 548.2 644.2 547.6 644.6C546.9 645 545.6 648.7 544.8 653C544 657.2 542 662.2 540.5 664C538.2 666.7 538 666.8 538.8 664.7C539.3 663.2 540.2 657.9 540.8 653C541.8 643.2 543.3 640.3 551 631.8C557.3 624.8 562.5 622.7 573.2 622.7H581.8L577 614.6C574.4 610 570.6 604.8 568.6 603C564.4 598.6 555.3 586.8 555.3 585.5C555.3 585 561.3 590.3 568.6 597.4C576 604.4 582 610.8 582 611.6C582 612.6 586 617.4 591 622.4C596 627.5 601.4 633.6 603.2 636C606.2 640.2 606.8 640.3 612.5 639.4C629.2 637 629.7 637.1 618.8 641.4C605.6 646.4 604.1 646 592.6 633.2L584.2 623.8L577.4 624.7C568 626 560.6 629.5 554.9 635.5L550 640.7L550.8 656C552.2 683.5 547.6 690 528.9 686C524.8 685.1 524.5 685.2 521.8 691.4C518.2 699.5 518.2 708 522.1 715.1C523.7 718.2 525.7 722 526.5 723.6C527.3 725.4 528.4 726.7 528.8 726.7C530.9 726.7 552.8 717.4 557.4 714.3C560.5 712.4 570 702.8 578.4 693C596.1 672.6 613.7 655.4 624.5 648.3C631.4 643.6 632 643 632.6 637C633.6 629.2 636.8 625.8 645.8 622.7L652.6 620.4L620 588.8C602 571.4 587.3 556.6 587.3 555.8C587.3 553.9 607.3 569.6 619.6 581.1C625.3 586.6 635.7 597.8 642.8 606.2C652.1 617.2 656.2 621.2 658 620.7C660 620 676.8 621.5 691.3 623.5C696.9 624.3 697.7 624 702.6 619.2C707.7 614.4 716 609.4 740.2 596.4C746.6 593 754.6 587.2 759.7 582.3C764.5 577.8 771.4 571.4 775.3 568C779.2 564.8 784.9 558.2 788 553.4C791.2 548.6 796.5 541.6 800 538C806.1 531.4 811.3 523.1 811.3 519.8C811.3 518.8 807.6 511.8 803.2 504C794.2 488.8 790.1 479.5 783.4 460C781 453.1 777.6 444.7 775.7 441.4C774 438 768.5 427 763.7 416.7C755.6 399.1 754.4 397.4 742.8 385.4C723.2 365.2 714.5 354.6 708.5 343.2C705.3 337.5 701.4 331.2 699.8 329.6C695.6 325.2 694.6 317 696.6 300C698.2 285.8 698.2 285.6 694.1 269.2C688.8 248.4 684 238.4 675 228.6C671 224.2 661.7 213.4 654.1 204.3C646.5 195.4 640 188 639.4 188C639 188 632.1 181.9 624 174.4C612 163.4 607 159.9 597.3 155.2C582.1 148 576.8 146.8 558.6 146.6C545.8 146.3 544.9 146.2 551.3 145.4C555.3 144.7 562.5 144.3 567.3 144.2L576 144L570 138.7C566.6 135.8 561.3 131.6 558 129.5C552.1 125.6 531.4 117.1 522 114.7C517.8 113.6 518.1 113.5 524.1 114C532.1 114.8 552.2 121.4 558.5 125.2C560.9 126.7 566.2 131.5 570.4 135.9C576.6 142.4 579.3 144.3 585.6 146C600.5 150.4 610.2 156.6 626.2 171.6L635.2 180.2L638.5 176.7C642.5 172.7 642.8 172.7 652.4 175.6C661.3 178.2 659.4 179.6 650.1 177.4C645.2 176.2 642.8 176.2 640.8 177.4C636.9 179.4 637.3 180.8 642.2 185.8C650.1 193.5 655.4 199.6 677.4 226.7C680.2 230 683.4 235.2 684.9 238.3C686.2 241.4 688 244.3 688.8 244.8C689.6 245.4 691.7 248.8 693.4 252.6C695.7 257.4 696.5 258.2 696 255.4C695.4 253.1 694.8 249.4 694.4 247.1C694 244.7 691.8 241 689.7 238.8C686.6 235.8 685.4 233.2 684.6 227.1C684.1 222.8 682.8 215.9 681.8 211.8L680.1 204.2L676.1 207L672 209.6L676.4 205.5C680.6 201.4 680.8 201 679.8 193.9C679.4 189.9 677.8 185.1 676.4 183.2C674.9 181.4 674 179.5 674.4 179.1C675.8 177.8 682 185.9 683.2 190.7C684.6 197 687.3 220.6 687.3 228.3C687.3 232.4 688 235.2 689.4 236.3C696.4 242 698.9 247.9 700.8 262.7C701.4 268.2 702.2 274.2 702.5 276C702.6 277.9 703 280.7 703 282.3C703.2 284.4 704.1 285.4 706 285.4C709.3 285.4 709.3 284.8 705.7 280C704.1 277.9 703.2 275.8 703.6 275.4C704 274.8 705.7 276.6 707.4 279C709 281.4 712.8 285.5 715.6 288.2C722.4 294.6 722.5 299.5 716 305.2C711 309.5 706 311.5 703 310.3C702.1 309.9 702.5 309.5 704.1 309.5C705.6 309.4 709 307.2 711.7 304.7C719.2 297.5 717.8 291 708.4 288.3L703.6 287L702.8 295.2C702.4 299.6 701.7 307.2 701.2 312L700.5 320.7L709.3 334.7C718.5 349.5 731.6 366.2 744 379.2C748.1 383.6 753.8 390.2 756.6 393.9C764.4 404.3 771 411.1 781.6 419.6C787.4 424.4 795.8 433.5 803.6 443.5C816.1 459.6 816.1 459.6 819.2 457.2C824.2 453.1 836.9 449.1 847.4 448.4C866.4 447.1 901 454.2 918.2 462.8C931.8 469.8 955.6 471 974.4 465.8L982 463.6M450.6 3C448.5 3.8 445.2 5.5 443.3 6.7C439.2 9.6 422.8 32 424.8 32C425.6 32 429.4 28.8 433.3 25C447.7 10.7 454.6 5.8 462.5 3.9C468 2.7 470.4 2.7 471.7 3.8C472.6 4.7 475.6 5 478.2 4.6C480.9 4 484.1 4.4 485.4 5.2C487.7 6.6 487.6 6.7 484.5 6C480.4 5 468 11.2 454.5 21.1C449.3 25 444.6 28 444.1 28C441.8 28 456.5 15.9 464.6 11.1C473 6.2 473.2 6 469 5.6C464 5.1 457.8 8 451 14.2C448.2 16.6 443 20.2 439.4 22C433.4 25 428.8 29.9 430.4 31.5C430.6 31.9 434.1 32.6 437.8 33.2C441.6 33.8 444.9 34.6 445.2 34.8C445.6 35.1 438.8 35.4 430.2 35.5C411.4 35.6 397.4 37.8 387 41.9C377.6 45.8 378 44.4 387.8 39.5C392.5 37.1 399.8 35.1 408.2 33.8L421.3 31.8L428 21C435.7 8.4 444 1.4 450.4 1.5L454.6 1.6L450.6 3ZM501.8 11.2C503 12.6 505.4 13 511 12.4C516.8 11.9 519.2 12.2 520.4 13.6C521.7 15.4 521 15.5 515.3 15C509.6 14.4 507.7 15 501 18.8C492.9 23.6 488.2 25.9 484.1 27.2C481.8 28 482 28.3 485.2 30.8C487 32.3 489.3 34.8 490.1 36.4L491.7 39.4L488.5 36.6C480.2 29.2 474 28.7 462.8 34.6C458.5 36.8 454.2 38.7 453.2 38.7C450.2 38.7 442 46.7 439.2 52.3C436.8 56.8 436.1 57.5 432.9 56.8C430.9 56.4 426.9 55.8 424.1 55.4C421.2 55.1 417 54.2 414.8 53.4C406.6 50.8 403.6 52.2 393 62.7C381.7 74 381.7 73.1 393 58.3C400.9 48.3 401.2 48 406.9 48C410.1 48 414.5 49 416.5 50C418.6 51.1 422.6 52.6 425.4 53.2C428.4 53.9 431.8 54.8 433.3 55.4C435.4 56 436.4 55.1 438.2 50.4C441.7 42.2 446.1 38 458 32C466.2 27.9 470.1 26.7 475.3 26.7C482.4 26.7 489.7 23.8 497.7 17.8C500.1 16 501.6 13.9 501.2 13.1C499.6 10.6 488.2 12.7 482.1 16.8C474.1 22.2 460.4 29.5 459.7 29C459.4 28.6 462.4 26.4 466.2 24C470.1 21.5 474.8 18.3 476.6 16.6C478.5 15 481.8 12.7 484 11.6C489 9 499.7 8.7 501.8 11.2ZM492.6 15.1C492.6 15.4 491.3 16.7 489.7 18.2L486.6 20.7L489.2 17.6C491.6 14.8 492.6 14 492.6 15.1ZM523.3 21.2C524.8 25 525.2 25.2 531.3 24.4C537.4 23.8 546.5 25.6 548 28C548.4 28.7 546.8 28.7 544.4 27.9C538.8 26.3 528.6 26.3 531 27.9C532.4 28.7 531.3 29.6 527.4 31.2C524.4 32.4 520.9 33.4 519.6 33.2C518.4 33.2 520 32.2 523.3 31.1C526.6 29.9 528.6 28.7 527.8 28.4C527 28.2 521.7 29.6 515.8 31.8C510.1 33.9 502.4 36 498.8 36.6C492.2 37.4 492.1 37.4 494.8 35C496.2 33.6 499 31.4 501 30.2C503 28.8 504.2 27.2 503.8 26.6C503.3 25.5 518.2 17.4 520.8 17.4C521.3 17.4 522.4 19.1 523.3 21.2ZM453.3 28.7C448.2 31.9 446 32.7 446 31.5C446 30.4 454.8 25.4 456.6 25.4C457.7 25.5 456.2 27 453.3 28.7ZM554.5 32.8C558.5 34.4 556.6 35.9 552.4 34.6C547.2 33.1 541 34.2 539.6 36.8C538.9 38.2 535.4 39 529.2 39.4L520 40L528.5 38C533.3 37 538.4 35.1 539.8 34C542.8 32.2 550.8 31.4 554.5 32.8ZM488.2 39.2C490.6 40.4 488.4 40.7 476.9 40.7C460.1 40.7 455.2 42.7 450.1 51.9C447.3 57 447.2 58.2 448.5 62.7C449.3 65.5 452.2 71 454.8 74.8C459.3 81.4 470.4 103.6 467.6 100.7C466.9 99.9 462.8 94 458.5 87.5C442 62.7 441.4 61 445.8 51.4C448.9 44.6 454.6 39.2 460.6 37.5C466.1 35.9 484 37 488.2 39.2ZM519 36.7C518 37.8 510 40 510 39.2C510 38.4 515.4 36.2 517.8 36.2C518.9 36 519.4 36.3 519 36.7ZM565.2 44.2C567 46.4 568.6 49.4 568.6 50.7C568.6 52.6 570.2 53.5 575.8 54.7C585.4 56.7 593.2 62.4 595.3 69C596.2 71.8 598.1 75.5 599.3 77.4C600.6 79.2 602.6 83 603.7 85.6C605.4 89.6 606.9 91 612.6 93C618.1 94.8 620.9 97 625.7 103.1C629.2 107.4 633.8 111.9 636.1 113.2C639.2 115.1 640.6 117.2 641.8 121.9C643 127.1 643.8 128 646.6 128C650 128 654 132.4 654 136.2C654 137.4 655.2 139.4 656.6 140.7C658.1 142 659.6 144.3 660.1 145.9C660.6 147.4 663.6 151.1 666.6 154C670.6 158 672.6 161.4 673.8 166C674.6 169.8 675.7 173.9 676.2 175.4C677.7 180.6 674.4 175.4 671.4 167.9C669.4 162.8 666.8 159 663.4 156.3C657.7 151.8 651.3 141.6 650 135.4C649.3 131.8 648.6 131.4 643.3 131C639.7 130.7 638.1 130.2 639.2 129.5C642.4 127.5 639.6 120.2 634.2 116.8C628.5 113.1 623.3 107.8 620 101.9C618 98.4 614.6 96 604.4 91C604 90.7 604.1 92.8 604.8 95.6C606.4 102.7 606.2 105.8 604.4 108.4C602.9 110.4 602.6 109.4 602.5 102.4C602.2 91.9 600.1 83.9 596.1 79.1C594.4 77.1 592.2 73.1 591.3 70.3C589.3 64 581.3 58.4 570.9 55.9C567 55 564.8 54 565.7 53.8C568.2 52.8 567.6 49.9 563.8 45.5C560.6 41.8 560.2 41.5 558.2 43.5C556 45.8 550.5 48.4 544.6 49.9C542.8 50.4 545.6 48.4 550.6 45.6C555.8 42.7 560.4 40.3 560.9 40.2C561.3 40.2 563.3 41.9 565.2 44.2ZM503.4 43.4C506 44.4 509.4 46.4 511.2 47.9L514.5 50.4L509.2 51.9C497.7 55.1 489.8 53.1 490.1 47C490.2 44.2 490.4 44 490.9 46C491.3 47.5 492.2 49.1 493.2 49.6C495 50.8 507.8 51 509 49.8C510 48.8 505.2 46 498 43.4C494.5 42 494.1 41.5 496.1 41.5C497.7 41.4 501 42.3 503.4 43.4ZM544.1 42.4C542.9 44.4 521.2 54.7 516.6 55.4C514.1 55.8 512.9 55.6 514 55.2C515 54.7 522 51.4 529.3 47.9C542.6 41.5 545.4 40.4 544.1 42.4ZM415.7 57.2C429.8 67 434.5 75.8 435.8 94.4C436.4 101.2 437 107.8 437.4 109.1C438.1 111 437.8 111 436.5 108.8C435.7 107.5 433.8 100.2 432.6 92.6C429.4 73.9 425.6 67.5 410.6 56.4C404.6 52 409.3 52.7 415.7 57.2ZM535 57C533.7 57.2 531.3 57.2 529.7 57C528 56.7 529 56.4 532 56.4C534.9 56.3 536.2 56.6 535 57ZM403.4 66.3L396 73.8L402 75.6C405.4 76.7 410.2 77.1 413.6 76.6C418 75.9 419.6 76.3 421.8 78.6C423.4 80.2 424.6 82.3 424.6 83.5C424.6 85.2 424 85 422.1 82.4C419.6 79.4 418.9 79.2 407.7 79.6C401.3 79.8 390 80 382.6 80.2C370.8 80.3 370 80.4 375.3 81.5C378.6 82.2 384.6 83.6 388.8 84.7C392.9 85.9 400.4 86.6 405.4 86.4C410.5 86.3 416 87 417.6 87.8C419.2 88.7 422.1 89.4 424.2 89.4C427.4 89.5 427.6 89.6 425.7 90.8C424.1 91.8 421.6 91.6 418 90.7C414.8 89.9 408.6 89.6 403.6 90C396 90.8 392.8 90.3 382 87C375 84.8 367.2 82.6 364.6 81.9L360 80.8L365.3 79.9C368.2 79.4 375.4 78.3 381.3 77.5C390.5 76.2 392.4 75.4 394.6 72.3C398.9 66.6 407.3 58.7 409.2 58.7C410.1 58.7 407.6 62.2 403.4 66.3ZM540 63.2C542.5 64.3 544.6 65.5 544.6 65.9C544.6 66.4 540.5 65.4 531.3 62.3C530.1 61.9 530.5 61.5 532.4 61.5C534 61.4 537.4 62.3 540 63.2ZM572.1 65.6C582.4 72.4 587 79.1 590.6 92.4L592.5 99.4V92.6C592.6 88.8 591.7 82.8 590.6 79.2C588 70.3 588.2 69 591.4 75.2C595.4 82.8 596.1 92.8 593.2 102.2L590.8 109.9L588.5 98.7C586.1 86.8 582 75.6 579.3 74C578.1 73.2 578.1 73.6 579 75.6C581.6 80.2 583.4 94.7 582.5 101.1C581.4 107.2 581.4 107.2 580 95.2C578 79.5 572.8 68.7 565.6 65C560.8 62.4 560 62.4 553.2 64.3C545 66.6 544 66.3 550.4 63.5C557.8 60.2 564.8 60.8 572.1 65.6ZM492 67.1C498.9 74 501 86.6 496 90.7C494.5 91.9 494.4 91.4 495.6 87.5C497.4 81.6 494.4 72.6 488.4 66.7C486.2 64.4 485.2 62.7 486 62.7C486.9 62.7 489.6 64.7 492 67.1ZM540.6 68.4C545.7 71 547 72.4 549.6 78.7C552.5 86 553.8 101 551.4 99.5C550.8 99 549.8 99.5 549.6 100.3C549.2 101.2 548.8 98.3 548.8 93.6C548.6 81.9 546.2 73.6 542.4 71.1C538 68.2 537.6 69.2 540.8 75.8C542.5 79.1 543.3 82.6 542.8 84.4C542.1 87.4 541.7 87.2 534.5 80.4C530.4 76.6 524.5 72.2 521.4 70.7C517 68.6 516.5 68 519.2 68C523.6 68 530.2 72.4 536.6 79.6C542.9 86.8 543.7 84.4 538 75.8C535.4 72 531.6 68.4 528.2 66.7L522.6 63.8L528.6 64.6C532 65.1 537.3 66.8 540.6 68.4ZM567.4 69.1C572.8 73.9 575.2 83 573.8 93C572.2 104.8 570.4 104 570.9 91.8C571.3 84.7 571 81.4 570.2 82.4C569.3 83.9 568.9 83.6 568.2 81.5C568 80 564.8 77 561.4 74.6C558.1 72.2 555.6 70 555.8 69.6C556.9 68.7 564.5 73.4 567.2 76.8C568.8 78.8 570 79.6 570 78.6C570 76.2 565.7 69.9 562.5 67.4C561.2 66.3 560.8 65.4 561.6 65.4C562.5 65.4 565.2 67.1 567.4 69.1ZM375.7 72.3C376.9 73 378 74 378 74.7C378 75.4 376.4 75 374.4 73.9C372.2 73 369.3 72 367.7 72C366.1 72 364.4 71.4 364 70.6C362.9 69 371.7 70.3 375.7 72.3ZM522.8 75.4C527.7 81.8 526.4 82 520.8 75.8C518.4 73 516.9 70.7 517.7 70.7C518.5 70.7 520.8 72.8 522.8 75.4ZM488 73.5C489.4 75.6 488.1 76 486.2 73.9C485.3 72.8 485.2 72 485.8 72C486.5 72 487.6 72.7 488 73.5ZM475.4 80.7C474.9 84.8 474.2 86.7 473.6 85.6C472.5 84.2 473.4 76.8 474.9 74.3C476.1 72.3 476.2 74 475.4 80.7ZM494 80.4C494 83.6 491.6 88 489.7 88C488.8 88 488.9 87.4 490 86C490.9 85 491.3 81.8 491 78.7C490.6 73.9 490.8 73.5 492.2 75.5C493.2 76.8 494 79 494 80.4ZM512.1 82.6C513.6 91.4 514 92 518 92C520.6 92 522.6 93.1 524.2 95.5C525.6 97.4 527.7 100 529 101.5C532.1 104.8 532 105.8 528.6 104C527.2 103.2 525 100.8 524 98.7C522.6 96.2 520.4 94.3 517.6 93.6C513.7 92.6 513.3 92.8 512.6 95.9C512.1 98.3 511.6 96.4 510.9 90.3C510.4 85.4 509.3 79.8 508.5 77.8C507.4 74.7 507.4 74.6 509.2 76C510.4 76.8 511.6 79.8 512.1 82.6ZM487.2 82.7L487 86L486 82.7C485.4 80.8 484.9 78.4 484.8 77.4C484.6 75.6 484.8 75.6 486 77.4C486.6 78.4 487.2 80.8 487.2 82.7ZM561.6 84.3C562.4 88.4 564 89.1 565.2 85.9C565.7 84.7 566.4 84 566.8 84.4C567.2 84.8 566.5 87 565.4 89.2C564.2 91.4 563.3 95 563.2 97C563 100.6 563 100.6 561.6 96C560.2 91.6 560.1 91.6 559.6 94.7C558.4 102.6 557 99.2 557.2 88C557.3 77.8 557.6 76.3 559 78.3C560 79.6 561.2 82.3 561.6 84.3ZM361.7 90.2C363.3 93.6 364.6 94.7 367.2 94.7C369 94.7 372.6 95.9 375.2 97.5C381.7 101.5 381.6 99.9 374.6 93.5C371.4 90.6 369.6 88 370.6 88C371.6 88 372.9 88.7 373.3 89.4C373.8 90.2 375.4 90.4 376.8 90C380.2 88.8 393 95.1 396.6 99.6C400.1 104 400.1 109.6 396.6 112.7C395.2 114 394.1 115.4 394.4 115.6C394.6 115.8 398 115.1 401.7 114C406.1 112.7 408.6 111.2 408.6 109.9C408.6 108.8 405.4 104.6 401.4 100.6C397.4 96.6 394.6 93.4 395.2 93.4C397.3 93.4 407 101.2 410 105.4C412.2 108.7 413.3 109.1 414.8 107.9C417.6 105.6 417 103.2 412.5 98C410.2 95.5 409 93.4 410 93.4C412.6 93.4 419.3 101 419.3 104.2C419.3 107.4 415.8 112 413.6 112C412.8 112 411.2 112.8 410.1 113.8C408.9 114.8 404 117.2 398.9 119.1C388.8 123.1 382.6 123.8 383.7 120.8C384.2 119.4 383.7 119.1 381.6 119.5C380 119.8 376.9 120.3 374.6 120.7C371.6 121.4 371.2 121.2 372.6 120.2C375.4 118.2 373 118.3 362.6 120.7C353 123 348.5 122.7 354 120.2L357.3 118.7L353.6 119.1C348.8 119.8 350.1 118.6 357 115.8C360.1 114.6 362.5 112.8 362.2 111.9C362 110.7 362.2 110.6 363.6 111.8C364.6 112.6 366.1 112.7 367.2 112.2C368.5 111.2 368.5 110.3 366.8 106.8C365.6 104.6 364.2 102.7 363.7 102.7C363.3 102.7 360.6 105.1 357.7 107.9C354.9 110.8 349.2 114.8 344.9 116.7C340.8 118.7 335.8 121 334.1 121.9C332.4 122.7 329.7 125.1 328.4 127.4C327 129.5 326 130.6 326 129.6C326 126.3 319.8 131.9 316.6 138.3C313.6 144.4 313.6 144.6 315.7 156.6C316.9 163.2 317.6 168.8 317.3 169.1C317 169.4 315.8 166 314.5 161.8C311.2 151.1 311.2 139.8 314.5 136.2C316 134.6 316.8 133 316.4 132.6C315 131.2 310 139 308.1 145.2C307 148.8 306.6 154.4 307 158.7C307.8 167.8 306.5 167 304.6 157.4C303.6 151.8 303.7 148.7 305.3 143.4C307.7 134.8 311.7 130.7 320.4 127.6C324.1 126.3 328.1 124 329.4 122.6C330.8 121.1 336 117.8 341.2 115C352.4 109.1 360.6 101 360.6 95.9C360.6 91.9 356.1 85.4 353.2 85.4C352.1 85.4 351.3 84.8 351.3 84.2C351.3 81 359.6 85.9 361.7 90.2ZM447.3 83.2C447.3 83.5 446.4 84.2 445.2 84.6C444.1 85 443.6 84.8 444 84C444.8 82.7 447.3 82.2 447.3 83.2ZM455.3 86.2C455.3 87.4 446.2 90.7 443 90.6C441.2 90.4 442.9 89.5 447.3 88C451.3 86.7 454.8 85.6 455 85.5C455.2 85.4 455.3 85.6 455.3 86.2ZM470.1 89C468.5 91.6 468.2 90.8 469.4 87.4C470 86.2 470.6 85.5 470.9 85.9C471.3 86.2 470.9 87.6 470.1 89ZM486 92.3C486 93.8 484.9 93.6 481.8 92C478.1 89.9 478.8 88 482.6 89.8C484.5 90.7 486 91.8 486 92.3ZM507.2 94C508 93.6 508.6 93.9 508.6 94.6C508.6 95.4 507.6 96 506.4 96C503.8 96 499.3 92.3 499.3 90.3C499.3 89.5 500.8 90.3 502.5 91.9C504.4 93.6 506.4 94.6 507.2 94ZM331.6 95.5C330 96.6 328.6 98.2 328.6 99.1C328.6 100.2 329 100.2 330.2 99C331.2 98 332.8 97.4 334 97.4C335.2 97.4 334.6 98 332.6 99.1C328.1 101.4 327.4 105.4 331.6 105.4C334 105.4 334.2 105.6 332.6 106.7C330.2 108.3 329.8 108.3 327.4 106.8C326.1 105.9 326 105.1 327.3 102.6C328.6 99.8 328.6 99.6 326.9 101.6C324.2 105 322.9 104.6 324.8 101C327.2 96.3 330.2 93.4 332.5 93.4C334 93.4 333.7 93.9 331.6 95.5ZM425.2 99.2C430 103.8 431 107.1 428.6 110.7C427.7 112.3 427.3 111.8 427.3 108.7C427.3 106 425.8 103.2 422.4 99.8C416.2 93.5 418.6 93 425.2 99.2ZM348.8 101.8C347.3 104.2 344.8 107.4 343.2 108.8C339.8 111.6 340.4 110.3 346.4 101.6C350.9 95 352.9 95 348.8 101.8ZM343.3 102.7C342.5 104.3 341.4 105.2 341 105C340.8 104.6 341.2 103 342 101.4C342.8 99.8 343.8 98.8 344.2 99.1C344.5 99.5 344.1 101.1 343.3 102.7ZM553.6 112C553.7 114.8 553.7 114.8 553.2 112.4C552.8 110.8 551.4 109.2 550.2 108.8C548.6 108.4 548.8 108.3 550.6 108.4C552.5 108.7 553.4 109.8 553.6 112ZM565.4 109.9C566.2 111.9 563.6 118 562.4 117C562.1 116.6 562.4 115.1 563.2 113.6C564.1 111.9 564.1 110.7 563 109.6C561.8 108.4 561.8 108 563 108C564 108 565 108.8 565.4 109.9ZM603.3 117C607.6 122.6 606.4 123.2 601.3 118C598.6 115.5 595.7 113.4 594.6 113.4C593.6 113.4 592.6 112.8 592.6 112.2C592.6 109.9 600.5 113.5 603.3 117ZM231.4 118.2C235.6 122.6 232.9 122 227.4 117.4C224.1 114.6 223.6 113.8 225.7 114.2C227.2 114.6 229.7 116.4 231.4 118.2ZM246 116C250 117.4 252.1 118.6 250.6 118.6C246.9 118.7 238.2 116.2 237.3 114.7C236.1 112.8 237.6 113.1 246 116ZM614.1 120.7C608.5 123.2 607.2 123.2 610.5 120.7C612 119.6 614.4 118.7 615.8 118.7C618 118.8 617.4 119.4 614.1 120.7ZM588.1 125.1C585.7 127.2 585.7 127.2 587.3 124.3C588.1 122.6 589.2 121.5 589.7 121.9C590.1 122.4 589.4 123.8 588.1 125.1ZM624.2 127.6C623.8 129 623.6 128.2 623.6 126C623.6 123.8 623.8 122.8 624.2 123.6C624.5 124.6 624.5 126.4 624.2 127.6ZM372.9 127.5C376.2 129.2 378 129.4 382 128.2C390.6 125.6 392.2 126.7 384.8 129.9C378.2 132.7 376.9 132.8 372.6 131.4C368.4 129.9 367 129.9 361.6 132.3C356.4 134.6 354.1 134.8 347.7 133.9L340 132.8L348 132C352.4 131.5 358.4 129.9 361.3 128.3C367.8 124.8 367.8 124.8 372.9 127.5ZM572 126.7C574.5 127.8 574.5 127.9 571.7 127.9C570.1 128 568.4 127.4 568 126.7C567 125.1 568.2 125.1 572 126.7ZM607.3 125.9C607.3 126.4 598.4 132.7 594 135.4C592.9 135.9 593.4 134.8 595.3 132.7C597.2 130.7 600.5 128.2 602.6 127.2C607.3 125.2 607.3 125.2 607.3 125.9ZM480.1 132.3C478.8 134.2 478 138.2 478 142.8C478 147 477 155.1 475.8 160.8C473.4 172.4 473.8 181 477.2 186C480.2 190.7 483.8 190.2 487.3 184.6C491 178.7 492.2 179.5 489.3 185.8C486.6 191.4 480.9 194.3 476.8 192.2C472.8 189.9 468.6 181.1 468.6 174.4C468.6 171.2 469.8 163.2 471.2 156.7C472.6 150 474.2 142.4 474.6 139.6C475 136.8 476.6 133.4 478.1 131.9C481.6 128.4 482.6 128.7 480.1 132.3ZM268.6 133.9C268.6 135 266.6 138 264.1 140.6C260.9 144 258.5 145.4 255.6 145.4C250.6 145.4 248.8 143.4 253.4 143C258.5 142.6 263.8 139.4 266 135.5C268 131.5 268.6 131.2 268.6 133.9ZM346.2 141C350.5 141.5 353.3 141.1 354.6 140C355.7 139.1 356.6 139 356.6 139.6C356.6 142 350.2 144.3 345.7 143.6C332.2 141.5 330.1 141 330.8 139.8C331.3 139 333.6 138.8 335.8 139.4C338.1 139.8 342.8 140.6 346.2 141ZM496.9 142.3C500 145.1 500 149.6 496.6 160.2C493.2 171.4 488.9 176.7 484.4 175.6C481 174.7 478 169.9 478 165.4C478 161.5 483.2 149.2 486.8 144.3C490.5 139.5 493.2 139 496.9 142.3ZM610 141.4C608.9 142 607 142.7 606 142.7C604.2 142.7 604.2 142.6 606 141.4C607 140.7 608.9 140 610 140C611.7 140 611.7 140.2 610 141.4ZM638 147C641.7 153.1 641.4 159.1 637.2 163.6L633.8 167.4L635.8 163.1C638.6 157.4 638.5 152.3 635.3 147C633.8 144.7 633.3 142.7 634 142.7C634.8 142.7 636.5 144.7 638 147ZM336 149.4C334.6 150.8 332.2 152 330.8 152C328.6 152 329 151.5 332.6 149.5C338.8 146.3 338.8 146.3 336 149.4ZM631 152.8C630.1 154.8 629.2 155.6 628.9 154.8C628.6 153.9 629.2 152.4 630 151.4C632.4 148.4 632.8 149 631 152.8ZM300.6 152C300.6 152.7 298.9 153.4 296.8 153.4C289.7 153.4 289.7 156 296.6 165.4C300.2 170 302.9 174.2 302.6 174.6C302.2 174.8 298.6 172.8 294.4 170L286.8 165L284.8 168C282.1 172 270 207.8 270.1 211.4C270.1 213.9 270.2 213.9 271.7 211.5C272.6 210.2 275.3 206 277.7 202.6C280.1 199 281.7 196 281.2 196C279.7 196 288.9 185.4 291.7 183.8L294.6 182.3L292 185.5C290.5 187.2 288.1 189.6 286.6 191C283 194 285.3 194 289.7 190.8C291.7 189.5 294.8 187.9 296.6 187.4L300 186.4L296.6 188.8C289.7 193.6 282.9 201 279.8 207C278.1 210.4 272 218.7 266.1 225.4C254.6 238.7 250.2 247.6 249 260.3C248.2 267.8 248.4 268 253.2 272.3C258 276.4 263.3 283.8 263.3 286C263.3 286.6 260.8 284.4 257.6 281.2C254.4 278 250.2 273.9 248.2 272.2C245.2 269.6 244.6 268 244.6 262.2C244.6 254.8 248.6 240.4 252.4 234.7C253.4 232.8 257.7 227.9 261.8 223.6C268.9 216.3 269 215.8 268.8 209.2C268.6 205.1 269.8 197.9 272.1 190.3C276.1 176.6 278.4 171.4 282.4 167C284.2 165 285 162.4 284.9 159.4C284.6 155.6 285.2 154.4 288.2 152.8C292.5 150.6 300.6 150 300.6 152ZM458.1 165C456.8 168.4 455.2 175.2 454.8 179.9C453.8 190 449.7 196.4 435.6 209C415.6 226.7 405.8 244.6 401.3 271.2C399.7 281 399 274.8 400.5 263.6C403.7 239.8 409.4 229.5 433.6 205C448.8 189.5 451.3 185.2 451.3 175.4C451.3 173.1 452.8 169 454.5 165.9C456.2 163 458.1 158.7 458.6 156.6C459.7 153.1 459.8 153 460.2 155.6C460.5 157.2 459.6 161.4 458.1 165ZM328 157.4C326.5 158 324.1 158.6 322.6 158.6C320.4 158.7 320.4 158.4 322 157.4C323 156.7 325.4 156.2 327.3 156.2C330.4 156.2 330.4 156.3 328 157.4ZM655.4 161.5C657.7 165.9 656.4 165.4 652 160.3C648.6 156.3 648.5 155.9 650.9 157.2C652.6 158 654.6 160 655.4 161.5ZM533 159.9C530.8 161.4 527.6 164.3 525.8 166.6C524.2 168.7 520.4 172.3 517.3 174.6C514.2 176.7 507.8 184 503.2 190.6C498.5 197.2 493.8 202.7 492.6 202.7C491.2 202.7 491 202.4 492.2 201.6C493.2 201.1 495.4 197.6 497.4 194C505.3 179 507.8 175.8 515.2 170.8C519.3 168 523.8 164.3 525.3 162.7C528.1 159.6 531.8 157.6 535.3 157.5C536.4 157.4 535.4 158.6 533 159.9ZM568.2 164.4C572.5 166.2 579 169.8 582.8 172.4C586.5 175.2 590.2 177.4 590.9 177.4C593 177.4 597 182.4 596.1 183.9C595.6 184.6 594.2 185.2 592.9 185.2C579.7 185.2 548.2 201.5 521 222.4C513 228.6 510 232.6 510 237C510 240.2 506 244 502.6 244C496.9 244 494.6 239.4 494.6 227.9C494.6 221.9 495.3 216.8 496.1 216C497.3 214.8 497.6 216.6 497 223C496.6 229.4 497 232.4 498.9 236C501.8 241.6 505.2 242.7 507.4 238.4C508.9 235.6 508.9 235.5 506.8 237.2C503.7 239.8 503.4 239.1 504.5 231.1C505 227.4 504.9 220.7 504.2 216.4C502.4 205.2 504 195 509 186.6C512.4 181.1 516.1 177.5 525.3 171.1C532 166.6 539.2 162.2 541.3 161.5C547.2 159.5 559.4 160.8 568.2 164.4ZM387.2 169.4C387.2 172.2 386.9 172.3 386.1 170.2C385.3 168.2 384.8 168.7 382.6 173.2C379 181.4 376.4 182.8 379.3 175.1C385 159.9 384.8 160.4 386 163.4C386.6 164.8 387.2 167.5 387.2 169.4ZM320.8 187.2C328.5 195.9 339.3 214.4 339.2 218.6C339.2 221.8 339 221.9 338 219.2C336.8 216.2 328.2 203.4 319.7 191.9C314 184.2 311.2 177.6 311.4 172.2C311.6 169.5 312 170.2 313.4 174.8C314.5 178.3 317.8 183.9 320.8 187.2ZM426.1 181.9C422.9 185.2 410.1 192.7 409.2 191.6C408.6 191.1 427.2 178.7 428.5 178.7C428.9 178.7 427.7 180.2 426.1 181.9ZM667.8 182C669 183.9 669.8 185.4 669.6 185.4C669.3 185.4 667.7 183.9 666 182C664.2 180.2 663.4 178.7 664.2 178.7C665 178.7 666.6 180.2 667.8 182ZM438.9 190.4C439.8 191 436.2 194.4 429.3 199.6C420 206.6 417 209.8 411.3 219C407.6 225.1 403.6 231.4 402.2 233.1L399.8 236.2L399.6 230.4C399.2 220.3 401.8 203.9 404.6 199.5C408.6 192.8 412.5 191.6 435.3 189.6C436.4 189.5 438 189.9 438.9 190.4ZM484.6 200.6C484.6 201.2 483.7 200.7 482.6 199.2C481.6 197.9 480.8 196 480.8 195.4C480.8 194.6 481.6 195.2 482.6 196.6C483.7 198 484.6 199.8 484.6 200.6ZM676.6 198.7C675.2 201.5 667.6 206 666.4 204.8C666 204.6 667.4 203.4 669.6 202.2C671.7 201.1 674.2 199.2 675.2 198.2C677.6 195.2 678.4 195.5 676.6 198.7ZM302.6 205.4C298.8 212.8 300.9 215.1 311.7 215C315.3 214.8 316.5 215.4 315.7 216.2C314.1 217.8 297.8 218.3 295.6 216.8C293.6 215.6 293.4 208.6 295.3 207.4C296.1 206.8 296.6 208.4 296.8 211L296.9 215.4L298 211C298.9 207.2 302.6 201.4 304.2 201.4C304.5 201.4 303.8 203.1 302.6 205.4ZM609.3 203.9C612.2 204.6 610 205.1 600.9 205.8C581.3 207.4 576.4 209.6 556.8 225.6C546.4 234.2 547.8 230.3 559.8 218.3C568.5 209.5 574.1 205.6 581.3 203.9C586.4 202.7 604 202.7 609.3 203.9ZM309.6 205.8C311 205.2 311.4 205.5 310.8 206.4C309.7 208.3 304.6 208.6 304.6 207C304.6 205.1 306.5 203.8 307 205.2C307.3 205.9 308.4 206.2 309.6 205.8ZM396.6 210C396 213 395.3 218.7 395.2 222.7C395 231.9 393.6 237.4 392.1 235C390.6 232.6 392.5 215.1 394.9 209C397.4 202.7 398.2 203.1 396.6 210ZM631.7 208.8C636.9 211.6 644.9 217.5 644.2 218.3C644 218.6 639.7 216 634.8 212.7C625.4 206.4 624.4 205.1 631.7 208.8ZM235.8 217.4C242.4 220.3 248.4 220.4 259.3 218C261.4 217.6 260.6 218.3 257.3 220C248.6 224.3 244.2 224.6 235 221.5C222.6 217.4 216.2 217.9 195.8 224.7C180.5 229.9 176.8 230.7 167.7 230.6L157.3 230.4L167.3 228.7C172.8 227.8 181.6 225.4 186.6 223.4C213.4 212.8 223 211.6 235.8 217.4ZM627.2 220.2C630.9 221 636.2 223.5 639.3 225.8C651.6 235.2 652.9 235.9 660.1 236.6C680.9 238.8 682.6 239.1 680.1 239.9C678.8 240.4 672.4 241 666 241.2C652.2 241.6 647.7 240 637.8 231.8L631 226H616.8C602.5 226 602.4 226 590.6 231.9C576 239.1 564.2 250.6 546.6 274.3C534.9 290.2 530.4 295 537.2 284.2C539 281.2 540.6 278.4 540.6 278C540.6 276.2 552.5 258.3 559.2 250.2C571 235.5 586.2 225.5 603.8 220.7C612.2 218.4 618.5 218.3 627.2 220.2ZM304.6 220.7C304.6 221.1 300.9 223.2 296.2 225.2C290 228 286.8 230.6 283.3 235.4C280.8 238.8 276.6 243.9 274.4 246.7C268.8 253 266 259.8 263.8 270.7C262.5 277.6 262.2 278.4 262 274.7C261.8 272.2 261.8 267.9 262 265.4C262.2 260 267 246.7 268.6 246.7C269.2 246.7 271.8 243.5 274.4 239.6C281 229.6 284.9 226.6 295 223.2C300 221.5 304.1 220.2 304.4 220.2C304.5 220 304.6 220.3 304.6 220.7ZM539.3 228C541.2 229.5 542.1 230.7 541.3 230.7C540.6 230.7 538.5 229.5 536.6 228C534.8 226.6 534 225.4 534.6 225.4C535.4 225.4 537.4 226.6 539.3 228ZM318.9 233.6C321.3 234.3 323.6 235.4 324 236C324.4 236.7 322.8 236.7 320.4 235.9C310.8 233.2 305.2 234.6 293 243C285.6 248 285.7 245.6 293 239.5C303.8 230.7 306.9 229.9 318.9 233.6ZM314.8 242.7C311.8 244.2 308.5 246.2 307.4 247.4C306.2 248.4 303 250.2 300.2 251.4C294.2 253.9 288.8 253.9 294.6 251.4C296.9 250.4 301.8 247.5 305.8 244.8C309.7 242.2 314.5 240 316.5 240C319.7 240.2 319.6 240.3 314.8 242.7ZM300.6 267.2C300.6 268 291.4 273.4 290.2 273.4C288.6 273.2 297.2 266.7 299 266.7C299.8 266.7 300.6 267 300.6 267.2ZM218 345.4C219.4 346.3 217.8 346.6 212.6 346.6C206.5 346.4 206 346.2 209.3 345.4C215 343.9 215.7 343.9 218 345.4ZM529.3 358.3C525.8 365.5 520.8 378.4 518 387C512.1 404.8 510.9 407.4 506.2 412.3C503.3 415.5 501.8 416 496.1 415.9C492.4 415.9 487.2 415 484.6 414C480.1 412.3 480.2 412.3 489.7 412.4C498.9 412.7 499.7 412.4 502.6 409.1C504.4 407.1 508 398.8 510.5 390.8C513 382.8 516.5 373.6 518.1 370.4C521.7 363.2 534.4 344 535 344.7C535.3 345 532.6 351.1 529.3 358.3ZM293.4 355.6C295.2 359.5 295.2 361 293.4 366.8C292.4 370.4 291.7 374.4 292.1 375.8C292.8 377.6 292.6 377.6 291.3 375.6C290.2 373.9 290.1 371.1 290.8 367C292 359.8 291.7 354.6 289.8 352.7C288.1 351 288.4 349 290.1 350.2C290.9 350.6 292.4 353.1 293.4 355.6ZM236 369.2C237.7 369.9 235.2 370.6 228.5 371C222.9 371.5 213.2 373.5 206.5 375.8C191.4 380.7 188.8 381.2 184.6 380C181.4 379 181.6 379 185.6 378.8C188 378.7 193.3 377.1 197.6 375.2C210.6 369.2 228.6 366.4 236 369.2ZM193.3 374.7C191.2 375.2 187.8 375.8 186 375.9C183.3 375.9 183 375.8 184.6 374.7C185.7 374 189 373.5 192 373.5C197.2 373.6 197.2 373.8 193.3 374.7ZM302 409.2C302 421.8 299.7 417.6 299 404C298.5 393.9 298.6 393.1 300.1 396.7C301 398.8 301.8 404.6 302 409.2ZM315.2 407.9L315 415.4L313.4 406.7C312.6 401.9 311.4 397.1 310.9 396C310.2 395 311 395.5 312.5 397.2C314.6 399.6 315.3 402 315.2 407.9ZM443.4 413.5C442.2 416.6 442.1 416.4 442.1 412C442 409 442.4 407.9 443.3 408.8C444.2 409.8 444.2 411.4 443.4 413.5ZM465.4 415.5C474.6 419.9 482.1 430.7 487.4 447.5C491.2 459.2 495.2 467.2 504.2 481C512.2 493.2 517.4 497.9 534 508C548.4 516.8 548.5 516.8 568.4 540.7C590.8 567.4 594.9 576.8 598 606.6C600 627.5 599.4 627.8 595.4 608C591.3 587.8 588.5 578.4 583.8 569.1C578.2 557.9 544.6 519.9 537 516C509.6 502.2 492.6 481 480.8 445.4C474.9 428.2 470 420.8 460.1 415.1C456 412.7 460.1 413 465.4 415.5ZM676.6 419.2C676.6 420.2 659.2 431 653.3 433.5C650 435 646 436 644.5 435.8C642.6 435.5 646.8 432.8 656.8 427.8C665.2 423.6 672.9 419.9 674 419.5C675 419.2 676.1 418.8 676.4 418.8C676.5 418.7 676.6 419 676.6 419.2ZM719.8 479C712.1 488.3 705.8 493.9 700 497C692.4 500.8 692.9 500 709 486.2C720.9 475.9 724.4 473.6 719.8 479ZM53.4 482.3C50.1 485.1 44.6 489.6 41.4 492.6C35.6 497.5 3.4 515.2 2.4 514.2C2.1 513.9 4.1 511.8 6.9 509.4C11.3 505.6 19.3 500.6 49.8 481.8C59.4 475.9 61 476.2 53.4 482.3ZM352.6 496.7C347.4 500.6 347.2 500.7 348.1 498.2C348.5 497.2 350.1 495.8 351.7 495C356.9 492.4 357.3 493.2 352.6 496.7ZM360.6 497.4C360.6 503.9 352.9 517.1 347.2 520C345.2 521.1 345.7 519.8 349.2 515C354.9 507 359.3 497.6 358.4 495.1C358 494.2 358.4 493.4 359.2 493.4C360 493.4 360.6 495.2 360.6 497.4ZM248.6 505.5C235 518 207.7 538.4 201 541C195 543.4 236.2 508.7 248 501.6C258 495.5 258.2 496.6 248.6 505.5ZM434.1 550C436.1 557 434 565.4 428.6 571.8C425.7 575.4 425 577 426.1 578.8C428.1 582.8 427.6 584.7 422 591.8C419 595.4 416.6 598.8 416.6 599.2C416.6 599.6 420.6 597.4 425.7 594.2C434.6 588.4 453 578.7 454.9 578.7C455.6 578.7 450.5 581.9 444 585.8C410.4 605.5 394.2 623.4 375.7 661.4C358.4 697.2 357.6 698.7 358.6 692.7C359.8 686 367.4 666.4 374 653.4C381 639.2 394 621.8 405.4 610.4C410.9 605.1 415.3 600.2 415.3 599.4C415.3 598.7 417 594.7 419.2 590.7L423 583.4L420.4 580.4C417.7 577.6 417.7 577.2 419.8 574.4C428.1 563 429.2 560.8 429.7 554.2C430.2 547.6 430 547 425.8 543.2C417.6 535.9 417.2 534 425 539.4C431.2 543.6 432.9 545.8 434.1 550ZM194 600.8C184.8 610 173.6 620.6 169 624.3C160.9 631 160.8 631.2 163 633.8C165.3 636.3 165.2 636.4 162.2 634.8C159.4 633.4 158.4 633.6 153.7 636.7C148.8 640 148.5 640.3 150.9 642.2C153 643.9 153 643.9 149.8 642.8C147.2 641.9 145.4 642.2 142.5 644.2C140.4 645.6 136.9 647.8 134.6 648.8C130.8 651 130.8 650.8 135.3 646.8C137.8 644.7 140.4 642.8 141 642.7C144.2 642.6 140.4 639.8 128.6 634C121.3 630.4 115.3 627 115.3 626.4C115.3 624.8 128.8 629.4 136.2 633.5C140.1 635.6 144 637.4 145 637.4C146.9 637.4 153.6 631.1 152.5 630.2C152.2 629.9 146.6 626.4 140 622.6C126 614.3 126.6 614.8 127.4 614.2C128.6 612.8 141.7 618.4 149 623.2L156.8 628.4L161 624.4C163.4 622.3 171.3 615 178.6 608C192.1 595.5 206.6 584 209.2 584C210 584 203.2 591.6 194 600.8ZM496.8 603.4C502.9 616 505.4 625.2 506.5 639.5L507.3 650L503.4 636C501.3 628.3 496.8 614.7 493.4 605.6C490.1 596.6 487.3 588.8 487.3 588.3C487.4 586.3 491.7 593.1 496.8 603.4ZM88 625.4C93.2 658.4 96.1 673.8 104.1 707.5C110.9 736.6 112.1 742.6 110.8 741.2C109.7 740.2 92.8 672.2 88.6 652.6C84.9 634.7 81.6 600.7 83.7 602.7C84.1 603.1 86.1 613.4 88 625.4ZM54.4 628.3C54.8 631.5 56 640.6 57.2 648.7C58.2 656.7 59.8 674.7 60.6 688.7C61.4 702.6 62.4 719.1 62.6 725.4C63.4 738.8 61.8 735.5 58.8 716.8C54.8 693.4 49.8 620.3 52.4 621.9C53 622.3 54 625.2 54.4 628.3ZM806.8 641.8C809.8 644.4 810.2 645.5 809.4 649.8C807.6 659.8 796.9 663.2 789.8 656.2C785 651.4 784.9 648.2 789.4 642.8C793.8 637.5 801.3 637.1 806.8 641.8ZM467.3 666C473.7 679.2 475.6 699 471.4 709.6C470.1 713.1 442 743.1 441 742.2C439 740.2 464.9 712 468.6 712C469.4 712 470 707.9 470 702.8C470 689.8 464.8 671 456.8 655C453 647.5 450 641 450 640.4C450 638.8 464.6 660.4 467.3 666ZM142.6 678C140.4 692.7 136.6 732.3 136.5 744.8C136.4 749.9 135.8 755.5 135.2 757.4C133.6 761.9 134.8 707.9 136.6 693.8C138 683.4 142.9 664.6 144 665.6C144.2 665.9 143.7 671.5 142.6 678ZM391.3 726C391.3 726.4 388.8 728.3 385.7 730.2C372.9 738.2 339.7 769.6 312.8 799.4C308.1 804.4 304.8 807.8 305.3 806.7C308 801.8 324.4 781.9 338.8 766.2C357 746.3 374.1 731.9 383.8 728.2C391.8 725.1 391.3 725.2 391.3 726ZM187.3 783.6C183.3 789.4 178.2 796.4 176 799.4C173.6 802.3 170.9 806.2 170.1 807.8C169.2 809.5 168.1 810.7 167.7 810.3C165.6 808.2 191.6 770.8 193.8 772.8C194.1 773.1 191.2 777.9 187.3 783.6Z" stroke="white" stroke-width="3"/></svg>