<?xml version="1.0" standalone="no"?><!DOCTYPE svg PUBLIC "-//W3C//DTD SVG 20010904//EN"
 "http://www.w3.org/TR/2001/REC-SVG-20010904/DTD/svg10.dtd"><svg version="1.0" xmlns="http://www.w3.org/2000/svg"
 width="1280pt" height="640pt" viewBox="0 0 1280 640"
 preserveAspectRatio="xMidYMid meet"><metadata>
Created by potrace 1.15, written by Peter Selinger 2001-2017
</metadata><g transform="translate(0,640) scale(0.1,-0.1)"
fill="#1a0300" stroke="none"><path d="M1815 5505 c-22 -55 -16 -135 12 -173 23 -32 97 -70 207 -107 110
-37 167 -42 216 -20 51 23 85 16 196 -41 121 -61 124 -65 135 -165 10 -84 44
-295 55 -335 12 -45 89 -41 -1026 -53 -1054 -11 -1557 -29 -1602 -57 -14 -9
22 -29 87 -49 38 -11 158 -17 515 -25 256 -6 589 -15 740 -20 151 -5 462 -14
690 -20 228 -6 466 -13 527 -16 l113 -6 9 -36 c5 -21 21 -104 35 -187 25 -141
26 -150 9 -162 -9 -7 -25 -13 -34 -13 -19 0 -34 -33 -24 -50 3 -5 19 -10 34
-10 48 0 63 -20 77 -106 10 -65 10 -93 -2 -158 -16 -92 -6 -181 26 -249 11
-22 17 -43 15 -47 -2 -4 -33 -10 -67 -13 -35 -4 -85 -10 -111 -13 -41 -6 -53
-3 -78 16 -37 27 -48 20 -24 -16 l17 -27 159 6 c87 3 161 2 163 -2 3 -5 -6
-13 -20 -20 -14 -6 -24 -17 -22 -23 7 -20 72 -48 148 -62 40 -8 80 -21 88 -30
15 -15 11 -16 -43 -11 -126 10 -746 27 -753 20 -10 -10 87 -95 133 -116 67
-30 154 -38 520 -50 297 -9 356 -13 390 -28 54 -24 293 -186 589 -400 308
-223 487 -342 600 -400 l91 -47 0 -130 c0 -125 1 -131 32 -197 49 -102 116
-162 267 -238 l125 -63 -70 -37 c-83 -44 -181 -118 -302 -229 -77 -71 -92 -80
-125 -80 -21 0 -47 7 -58 15 -25 19 -54 19 -82 -1 -66 -46 19 -102 195 -128
65 -10 244 -40 398 -68 338 -60 453 -67 524 -29 24 13 66 46 93 73 92 95 96
116 28 147 l-41 18 38 30 c91 71 197 117 300 128 32 3 78 13 101 22 35 12 49
13 70 4 16 -8 45 -10 78 -5 50 6 56 4 89 -25 32 -28 42 -31 99 -31 60 0 68 -3
122 -43 69 -51 144 -130 144 -151 0 -9 -9 -20 -20 -26 -42 -22 -18 -86 46
-118 11 -6 133 -31 270 -57 137 -25 321 -61 410 -80 198 -43 227 -44 285 -7
52 34 149 150 149 181 0 23 -38 47 -85 52 -28 4 -30 2 -36 -43 -16 -105 -97
-159 -163 -107 -14 11 -54 55 -88 97 -34 42 -103 120 -155 173 -51 53 -93 99
-93 101 0 17 42 97 58 112 11 9 63 26 118 37 176 35 247 87 319 231 25 51 45
100 45 110 0 10 -23 79 -50 154 -84 227 -91 263 -99 554 -7 283 -10 296 -79
365 -96 95 -355 171 -802 235 -201 28 -200 28 -200 84 0 25 -5 68 -11 96 -15
71 -54 107 -166 153 -82 34 -183 104 -183 126 0 4 29 7 65 7 l65 -1 0 -48 c0
-35 4 -47 13 -45 16 6 22 165 6 184 -17 21 -50 17 -56 -6 -3 -11 -14 -20 -24
-20 -23 0 -24 9 -2 25 14 11 15 16 4 44 -11 26 -11 37 3 71 9 22 16 49 16 58
0 20 -36 58 -72 76 -20 10 -23 20 -26 86 -3 77 19 214 42 259 8 14 16 59 18
100 3 43 11 76 18 81 7 4 30 5 52 2 22 -2 72 2 111 11 40 9 129 22 200 28 114
11 129 10 145 -5 26 -23 41 -20 101 20 30 19 82 41 115 49 237 55 865 129
2241 265 336 33 678 67 760 75 83 8 340 33 572 55 1484 141 2218 224 2310 261
l28 12 -40 9 c-25 6 -73 5 -130 -1 -522 -61 -2440 -260 -3280 -341 -176 -17
-387 -37 -470 -45 -265 -26 -952 -84 -1235 -105 -578 -42 -839 -50 -914 -29
-34 9 -44 8 -77 -10 -43 -25 -158 -41 -286 -41 l-83 0 -19 38 c-11 21 -38 51
-61 66 -56 37 -200 92 -278 106 -73 13 -247 95 -298 140 -45 39 -59 38 -82 -6
-16 -30 0 -46 57 -55 28 -4 96 -29 151 -55 80 -37 105 -54 117 -78 8 -17 24
-41 35 -53 20 -21 20 -21 -1 -42 -12 -12 -21 -34 -21 -51 0 -49 -57 -63 -160
-39 -25 6 -83 11 -130 11 -47 0 -96 6 -110 13 -14 7 -46 15 -72 19 -40 6 -48
4 -60 -13 -10 -15 -34 -24 -79 -32 -71 -12 -2049 -29 -2158 -18 -42 5 -69 13
-81 25 -10 11 -31 71 -48 134 -16 63 -37 140 -46 170 -9 30 -16 91 -16 135 0
67 -5 89 -29 140 -35 74 -64 105 -97 105 -26 0 -63 34 -64 58 0 20 -69 14
-107 -9 -32 -20 -38 -21 -94 -9 -53 11 -63 11 -92 -5 -33 -17 -33 -17 -105 19
-156 78 -407 166 -477 166 -30 0 -35 -4 -50 -45z m4141 -1161 c-3 -24 -2 -46
3 -48 5 -3 12 -59 15 -123 6 -97 4 -131 -11 -188 l-18 -70 -47 -3 c-46 -3 -48
-4 -48 -34 0 -17 8 -52 17 -78 l17 -47 -29 -38 -29 -37 21 -17 c12 -10 24 -35
28 -59 6 -40 6 -42 -18 -42 -14 0 -65 9 -114 21 -56 14 -105 19 -134 16 -29
-4 -56 -1 -71 7 -14 8 -31 10 -37 6 -17 -10 -96 18 -117 41 -10 11 -19 41 -22
73 -5 62 -38 114 -65 103 -29 -11 -58 -69 -51 -103 4 -21 1 -34 -10 -43 -9 -8
-16 -22 -16 -33 0 -14 -16 -26 -55 -43 -65 -29 -130 -85 -154 -134 -12 -24
-23 -84 -31 -177 l-13 -140 -31 -2 c-17 0 -49 -4 -71 -7 -36 -6 -84 11 -448
155 -259 102 -426 163 -460 167 -44 5 -368 115 -568 193 l-56 22 -37 96 c-58
152 -187 585 -176 596 5 5 366 2 897 -8 488 -9 1055 -16 1258 -17 l370 0 59
30 c64 34 117 39 173 19 28 -10 36 -10 50 5 16 16 18 16 26 1 5 -9 7 -36 3
-60z m-660 -2879 c70 -12 254 -35 427 -52 31 -3 57 -9 57 -13 0 -5 -39 -30
-87 -57 -72 -39 -110 -71 -208 -170 -66 -67 -130 -126 -143 -130 -21 -8 -108
5 -482 71 -47 9 -106 18 -131 22 -73 9 -76 15 -39 68 75 110 265 223 437 260
87 18 78 18 169 1z m1602 -130 c66 -20 161 -65 198 -94 16 -12 55 -40 86 -62
56 -39 188 -198 188 -227 0 -15 2 -15 -180 25 -63 14 -181 40 -262 57 l-147
31 -67 80 c-38 44 -94 106 -126 138 -32 32 -58 60 -58 62 0 7 161 12 241 8 42
-2 99 -10 127 -18z"/></g></svg>