<svg width="520" height="201" viewBox="0 0 520 201" fill="none" xmlns="http://www.w3.org/2000/svg"><path d="M441.1 61C456.9 61 472.6 61 488.7 61C488.7 67 488.7 72.5 488.7 79C473.1 79 457.6 79 441.2 79C433 79.1 425.7 79.2 418 79.1C402.1 79 386.7 79 371 78.7C360 78.6 349.3 78.8 338.2 78.9C337.3 78.9 336.8 79 336 78.8C329 78.7 322.3 78.8 315.2 78.9C314.34 78.9 313.8 79 313 78.8C306 78.7 299.3 78.8 292.1 79C291.3 79.1 290.9 79.2 290.6 79.2C290.54 79.2 290.3 79.1 289.8 79C224.5 79 159.7 79 95 79C93.8 79 92.7 79.2 91 79.2C83.2 79.2 75.9 79.2 68.5 79.2C51.1 79.2 33.7 79.2 15.9 79.2C15.9 73 15.9 67.5 15.9 60.9C33.2 60.9 50.7 60.9 69.2 60.9C77.3 60.8 84.6 60.7 92.2 60.8C93.5 60.9 94.3 61 95.2 61C201.8 61 308.4 61 415 61C416.3 61 417.6 60.8 419.4 60.8C427 60.9 434.05 61 441.1 61Z" fill="#96511C"/><path d="M21.7 56.1C20.1 56.1 18.5 56.1 16.5 56.1C16.5 50.21 16.5 44.8 17 39C34.9 38.5 52.2 38.5 70 38.5C77.7 38.6 85 38.5 92.9 38.4C200.8 38.5 308.35 38.5 415.9 38.5C417 38.5 418.2 38.3 419.7 38.4C426.5 38.5 433 38.3 439.9 38.3C455.7 38.5 471.1 38.6 486.6 38.9C487.3 39.9 487.8 40.7 488.3 41.5C488.3 45.6 488.4 49.6 488.4 54.1C488.3 54.6 488.3 54.6 488.3 54.6C488.3 54.6 488.3 55 488.1 55.2C487.7 55.5 487.6 55.7 487.5 55.8C487.3 55.9 487.17 56 486.4 56.1C470.9 56.1 456.1 56.2 440.8 56.2C433.24 56.2 426.2 56.3 418.7 56.3C417.4 56.2 416.6 56.1 415.7 56.09C309 56.1 202.4 56.1 95.7 56.1C94.4 56.1 93.1 56.3 91.3 56.4C86.9 56 82.9 55.4 78.9 55.4C61.6 55.3 44.3 55.3 27 55.4C25.3 55.4 23.5 55.8 21.7 56.1Z" fill="#95501B"/><path d="M92.5 15.8C94.3 15.8 96.2 15.9 98 15.9C204.6 15.9 311.2 15.9 418.7 16C426 16.1 432.4 16.1 439 16.1C439.2 16.1 439.6 16.1 439.6 16.1L440 16.1C446.53 16.1 453.07 16 460.4 16.1C463.6 18.1 466.3 19.8 468.5 21.9C472.6 25.8 476.5 29.9 480 34.1C466.2 34.2 452.9 34.3 439.1 34.3C432.13 34.3 425.6 34.4 418.9 34.3C418.7 34.3 418.3 34.2 418.3 34.1C417.8 33.8 417.6 33.8 416.93 34.2C383.5 34.2 350.5 34.2 317.5 34.2C242.5 34.2 167.5 34.3 92.1 34.3C84.2 34.2 76.7 34.2 68.8 34.2C51.2 34.2 34 34.2 16.4 34.2C16.4 27.7 16.4 21.9 16.4 16.2C16.4 16.2 16.4 16.1 16.9 16.1C35 16 52.7 15.9 70.8 15.9C78.3 15.9 85.4 15.8 92.5 15.8Z" fill="#954F1A"/><path d="M442.4 107C463.1 107 483.8 107 504.9 107C504.9 110.5 504.9 113.4 504.9 117C488.6 117 472.4 117 455.3 117C442.1 117.1 429.8 117.1 417.5 117.1C399.9 117.1 382.2 117 364.6 117.01C273.8 117 183.05 117 91.4 117.1C78.2 117.1 65.9 117.1 53.7 117.1C35.9 117.1 18.1 117.1 0 117.1C0 113.7 0 110.81 0 107C22.4 107 44.8 107 68.1 107C76.5 107 84 107 91.9 107C157 107.1 221.7 107.1 286.8 107.2C293.2 107.3 299.2 107.3 305.2 107.26C328.3 107.2 351.4 107.1 374.9 107.1C389.6 107 403.9 106.97 418.7 107C426.9 107 434.6 107 442.4 107Z" fill="#6A3B18"/><path d="M53.7 117.5C65.9 117.1 78.2 117.1 90.9 117.1C91.2 133.9 91 150.5 91.1 167.2C91.1 169.3 92.8 171.4 93.6 173.6C94.3 175.6 94.9 177.6 95.3 179.6C96.8 187.6 93.7 192.2 86.5 196.6C77.8 201.8 69.2 200.8 59.6 201C60.3 193.7 58.5 187.1 62.8 180.4C65.5 176.3 66 170.2 66.1 165C66.3 154 65.6 143.1 65.3 132.1C65.2 129 63.9 127.6 60.7 127.72C58.7 127.8 56.8 127.3 54.7 127.08C54.4 123.8 54.1 120.83 53.7 117.5Z" fill="#787675"/><path d="M417.6 117.6C429.8 117.1 442.1 117.1 454.8 117.1C455.3 118.7 455.1 120.2 455.3 121.6C455.9 125.8 454.7 127.9 450 127.5C448.9 127.4 447 129.1 446.4 130.4C441.6 142 442.6 154.2 443.9 166.3C444.5 171.9 447.2 177.2 448.38 182.8C449.5 188.2 449.7 193.6 450.3 199.2C437.8 201.8 426.8 200 418 190.9C416.8 189.7 416.7 187.2 416.7 185.4C417 162.9 417.3 140.5 417.6 117.6Z" fill="#787675"/><path d="M442.2 106.6C434.6 107 426.9 107 418.7 106.5C418.3 97.1 418.37 88.1 418.5 79.2C425.7 79.2 433 79.1 440.7 79.1C441.5 88.2 441.8 97.2 442.2 106.6Z" fill="#787675"/><path d="M91.5 107C84 107 76.5 107 68.5 106.9C68.2 97.9 68.4 89 68.5 79.6C75.9 79.2 83.2 79.2 91.1 79.7C91.5 89.1 91.5 98 91.5 107Z" fill="#787675"/><path d="M480.5 34C476.5 29.9 472.6 25.8 468.5 22C466.3 19.8 463.6 18.1 460.9 16.2C460.2 14.6 459.8 13.1 459.5 11.6C467.2 0 481 -0.5 490.98 4C501.6 8.7 511.2 22.1 508.8 34.1C506.5 33 504.38 32 501.8 30.9C500.7 32.8 499.7 34.7 498.4 37C501 38.8 503.4 40.5 506.1 42.4C505.77 43.4 505.27 44.7 504.6 46.6C509.2 50.9 514.1 55.3 519.2 60C517.9 61.4 516.9 62.4 515.7 63.7C508.15 56.9 500.9 50.3 493.6 43.8C492.3 42.6 490.57 42 488.7 41.3C487.8 40.7 487.3 39.9 486.7 38.5C484.53 36.6 482.5 35.3 480.5 34ZM512.3 56.9L512 56.9C512 56.9 512.3 57.2 512.4 57.4C512.5 57.5 512.6 57.5 512.7 57.5C512.6 57.4 512.5 57.2 512.3 56.9ZM509.5 55.4L509.8 55.4C509.8 55.4 509.41 55.1 509.3 54.9L509 54.9C509 54.9 509.4 55.2 509.5 55.4ZM490.3 5.5C480.66 2.1 471.54 1.6 463.5 9.5C461.5 11.6 461.4 12.8 463.5 14.7C473 23.1 482.3 31.6 491.7 40C494.83 42.8 498.1 45.4 501.4 48.1C503.6 44.8 503.5 42.9 500.3 41.1C496.9 39.3 496.3 36.7 498.1 32.8C500.1 28.4 503.3 29.3 506.6 29.88C508.2 22.4 500 10 490.3 5.5ZM504.2 49.6C504.3 50 504.3 50.3 504.4 50.6C504.5 50.3 504.6 50 504.2 49.6Z" fill="#BC3332"/><path d="M92.5 15.3C85.4 15.8 78.3 15.9 70.8 15.6C70.4 14.9 70.4 14.5 70.4 14.1C70.5 11.2 70.7 8.2 70.7 5.2C70.7 2.6 71.5 1.2 74.4 1.4C80.1 1.8 85.9 2.1 92.4 2.5C92.4 6.8 92.4 10.8 92.5 15.3Z" fill="#787675"/><path d="M438.8 16.2C432.4 16.1 425.99 16.1 419.2 16C419 12.1 419.5 8.1 419.5 4.2C419.6 1.4 420.3 -0.1 423.5 0C428.2 0.2 433 0.1 438.56 0.1C438.56 4.9 438.56 9.7 438.6 15.1C438.7 15.8 438.8 16.2 438.8 16.2Z" fill="#787675"/><path d="M68.5 56.2C69.8 55.9 67.34 55.4 69.1 55.4C69.1 55.4 61.6 55.3 78.9 55.4C82.9 55.4 86.8 56 91.3 56.7C91.7 58.3 91.8 59.5 91.8 60.7C84.6 60.8 77.3 60.8 69.6 60.9C69.1 59.5 69.1 58.2 69.1 56.2C69.1 56.2 68.5 56.2 68.5 56.2Z" fill="#787675"/><path d="M419.1 56.4C426.2 56.3 433.2 56.2 440.7 56.2C441.16 56.3 441 56.3 441 56.3C440.9 57.6 440.8 58.9 440.9 60.7C434 61 427 60.9 419.5 60.4C419 58.8 419.06 57.6 419.1 56.4Z" fill="#787675"/><path d="M441.4 56.2C441 56.3 441.2 56.3 441.2 56.3C456.1 56.2 470.9 56.1 486.1 56C471.59 56.1 456.7 56.1 441.4 56.2Z" fill="#BC3332"/><path d="M439 16.1C438.8 16.2 438.7 15.8 438.6 15.6C438.92 15.5 439.3 15.7 439.84 16C440 16.1 439.6 16.1 439.6 16.1C439.6 16.1 439.2 16.1 439 16.1Z" fill="#BC3332"/><path d="M488.4 54.6C488.3 54.6 488.3 54.6 488.3 54.6C488.3 54.7 488.6 54.7 488.6 54.7C488.6 54.7 488.5 54.5 488.4 54.6Z" fill="#BC3332"/><path d="M487.7 55.9C487.6 55.7 487.7 55.5 488 55.3C488.2 55.6 488.1 55.8 487.7 55.9Z" fill="#BC3332"/><path d="M375.3 88.1C375 89.6 374.8 91.1 374.1 92.9C370.2 92.6 366.8 91.7 363.3 91.7C359.8 91.6 356.2 92.5 352.7 92.7C350 92.9 347.3 92.7 344.7 92.6C340.7 92.4 336.7 92 332.7 91.9C328.7 91.8 324.6 92 320.6 92C317.4 91.9 314.1 91.3 310.9 91.4C307.2 91.6 303 93.7 299.9 92.5C294.9 90.7 291 93.2 286.6 93.5C286.5 92 286.5 90.5 286.8 88.5C289.98 88.4 291.79 87.8 291.3 84.5C291.1 82.8 290.8 81 290.6 79.3C290.9 79.2 291.3 79.1 292.2 79.3C293 79.8 293.1 80 293 80.6C292.9 82.6 292.9 84.1 292.9 85.6C292.9 85.7 293 85.7 292.9 86.1C296.4 88.9 297.6 88.7 298.9 85.1C299 84.7 299 84.5 298.9 84C298.8 82.5 298.8 81.4 298.9 80C299.6 79.9 300.2 80 300.6 80.6C300.5 83.2 300.5 85.3 300.5 87.6C305.3 87.6 309.6 87.6 314.7 87.6C314.1 84.8 313.7 82.4 313.3 79.8C313.3 79.4 313.3 79.2 313.3 79C313.8 78.96 314.3 78.9 315.4 79.2C315.9 79.8 316 80 316 80.6C315.9 83.1 315.9 85.2 315.9 87.4C315.9 87.5 316.3 87.7 316.67 87.8C318.5 87.9 319.9 87.9 321.8 87.9C321.7 85 321.6 82.6 321.6 79.9C322.44 79.9 323 80 323.6 80.6C323.5 83.3 323.5 85.5 323.5 87.6C328.5 87.6 332.7 87.6 337.5 87.6C337.1 84.8 336.7 82.5 336.4 79.9C336.3 79.4 336.3 79.2 336.3 79C336.8 79 337.3 78.9 338.3 79.2C338.87 79.7 339 79.9 338.9 80.6C338.7 83.2 338.7 85.5 338.7 87.7C341 87.7 342.5 87.7 344.4 87.7C344.4 85 344.4 82.6 344.6 79.9C345.4 79.8 346 80 346.57 80.6C346.5 83.2 346.5 85.5 346.5 87.7C348.8 87.7 350.3 87.7 352.2 87.7C352.2 85 352.2 82.6 352.3 79.9C353.1 79.8 353.7 80 354.3 80.6C354.2 83.2 354.2 85.5 354.2 87.7C356.5 87.7 358.1 87.7 359.9 87.7C359.9 85 359.9 82.6 360.1 79.9C360.8 79.8 361.3 80 361.68 80.6C361.6 83.3 361.6 85.5 361.6 88.1C366.7 88.1 371 88.1 375.3 88.1Z" fill="#C6DCF5"/><path d="M354.4 80.1C353.7 80 353.1 79.8 351.9 79.9C349.8 80.1 348.2 80.1 346.7 80.1C346 80 345.4 79.8 344.2 79.9C342.1 80.1 340.6 80.1 339.04 80.1C339 79.9 338.9 79.7 338.68 79.2C349.3 78.8 360 78.65 371 78.7C371.4 79.1 371.4 79.3 371.1 79.8C367.69 80.1 364.7 80.2 361.8 80.2C361.3 80 360.8 79.8 359.7 79.9C357.6 80.1 356 80.1 354.4 80.1Z" fill="#787675"/><path d="M290.6 79.2C290.84 81 291 82.8 291.3 84.5C291.8 87.8 290 88.4 286.9 88C285.4 84.4 286.7 81.7 290 79.4C290.3 79.1 290.5 79.2 290.6 79.2Z" fill="#3E6094"/><path d="M323.6 80.2C323 80 322.4 79.9 321.3 79.9C319.2 80.1 317.6 80.2 316.1 80.2C316 80 315.9 79.8 315.7 79.2C322.3 78.8 329 78.7 336 78.8C336.3 79.2 336.3 79.4 335.9 79.8C331.5 80.1 327.59 80.1 323.6 80.2Z" fill="#787675"/><path d="M293.14 80.2C293.1 80 293 79.8 292.7 79.3C299.3 78.8 306 78.7 313 78.8C313.3 79.2 313.3 79.4 312.8 79.8C308.5 80.1 304.6 80.2 300.68 80.2C300.2 80 299.6 79.9 298.5 80C296.4 80.2 294.8 80.2 293.14 80.2Z" fill="#787675"/><path d="M92.1 34.3C92.5 35.4 92.4 36.5 92.3 38C85 38.5 77.7 38.6 70 38.5C69.6 37.2 69.6 36 69.4 34.5C76.7 34.2 84.2 34.2 92.1 34.3Z" fill="#A78368"/><path d="M439.1 34.3C439.6 35.4 439.5 36.4 439.4 37.8C433 38.3 426.5 38.5 419.7 38.4C419.3 37.2 419.2 36.2 419.1 34.8C425.6 34.4 432.1 34.3 439.1 34.3Z" fill="#A78368"/><path d="M418.3 34.1C418.3 34.2 417.9 34.3 417.6 34.2C417.6 33.8 417.8 33.8 418.3 34.1Z" fill="#A78368"/><path d="M286.5 93.9C291 93.2 294.9 90.7 299.9 92.5C303 93.7 307.2 91.6 310.9 91.4C314.1 91.3 317.4 91.9 320.6 92C324.6 92 328.7 91.81 332.7 91.9C336.7 92 340.7 92.4 344.7 92.6C347.3 92.7 350 92.9 352.7 92.7C356.2 92.5 359.8 91.6 363.3 91.7C366.8 91.7 370.2 92.6 374 93.3C374.3 97.7 374.4 102 374.4 106.6C351.4 107.1 328.3 107.2 305.2 107.3C299.2 107.3 293.2 107.3 286.8 107.2C286.4 102.8 286.4 98.5 286.5 93.9Z" fill="#CBA685"/><path d="M490.6 5.7C500 10 508.2 22.4 506.6 29.9C503.3 29.3 500.1 28.4 498.1 32.8C496.3 36.7 496.9 39.3 500.3 41.1C503.5 42.9 503.6 44.8 501.4 48.1C498.1 45.4 494.83 42.8 491.7 40C482.3 31.6 473 23.1 463.5 14.7C461.4 12.8 461.5 11.6 463.5 9.5C471.54 1.6 480.66 2.1 490.6 5.7Z" fill="#D11417"/><path d="M504.4 49.6C504.6 50 504.5 50.3 504.4 50.6C504.3 50.3 504.3 50 504.4 49.6Z" fill="#D11417"/><path d="M509.4 55.2L509 54.9C509 54.9 509.3 54.9 509.3 55C509.4 55.1 509.4 55.2 509.4 55.2Z" fill="#D11417"/><path d="M512.4 57.1C512.5 57.23 512.61 57.4 512.7 57.5C512.6 57.5 512.5 57.5 512.4 57.3C512.4 57.1 512.4 57.1 512.4 57.1Z" fill="#D11417"/><path d="M509.4 55.1C509.4 55.1 509.8 55.4 509.8 55.4C509.8 55.4 509.5 55.4 509.4 55.3C509.4 55.2 509.4 55.1 509.4 55.1Z" fill="#D11417"/><path d="M512.3 57.2C512.3 57.2 511.9 56.9 511.9 56.9C511.9 56.9 512.3 56.9 512.4 57C512.4 57.1 512.4 57.1 512.3 57.2Z" fill="#D11417"/><path d="M361.7 80.6C364.7 80.2 367.7 80.1 371.1 80C375.5 81.1 376.2 84 375.5 87.8C371 88.1 366.7 88.1 361.6 88.1C361.6 85.5 361.6 83.3 361.7 80.6Z" fill="#3E6094"/><path d="M300.6 80.6C304.6 80.2 308.5 80.1 312.9 80.1C313.7 82.4 314.15 84.8 314.7 87.6C309.6 87.6 305.3 87.6 300.5 87.6C300.5 85.3 300.5 83.2 300.6 80.6Z" fill="#3E6094"/><path d="M323.6 80.6C327.6 80.1 331.5 80.1 335.9 80.1C336.74 82.5 337.1 84.8 337.5 87.6C332.7 87.6 328.5 87.6 323.5 87.6C323.5 85.5 323.5 83.3 323.6 80.6Z" fill="#3E6094"/><path d="M293 80.6C294.8 80.2 296.4 80.2 298.3 80.2C298.8 81.4 298.8 82.5 298.8 84.1C298.6 84.8 298.6 85 298.8 85.2C297.6 88.7 296.4 88.9 293 86.1C293.1 85.7 293 85.6 293 85.6C292.9 84.1 292.9 82.57 293 80.6Z" fill="#3E6094"/><path d="M354.3 80.6C356 80.1 357.6 80.1 359.55 80.2C359.9 82.6 359.9 85.1 359.9 87.7C358.1 87.7 356.5 87.7 354.18 87.7C354.18 85.5 354.18 83.2 354.3 80.6Z" fill="#3E6094"/><path d="M346.6 80.6C348.2 80.1 349.8 80.1 351.8 80.2C352.15 82.6 352.15 85 352.15 87.7C350.3 87.7 348.75 87.7 346.5 87.7C346.5 85.5 346.5 83.2 346.6 80.6Z" fill="#3E6094"/><path d="M316 80.6C317.6 80.2 319.15 80.1 321.1 80.1C321.5 82.6 321.66 85 321.8 87.9C319.9 87.9 318.5 87.9 316.6 87.7C316.2 87.5 316 87.3 316 87.3C315.9 85.2 315.9 83.1 316 80.6Z" fill="#3E6094"/><path d="M338.88 80.6C340.6 80.1 342.1 80.1 344 80.1C344.4 82.6 344.4 85 344.4 87.7C342.5 87.7 341 87.7 338.7 87.7C338.7 85.5 338.7 83.2 338.88 80.6Z" fill="#3E6094"/><path d="M315.9 87.4C316 87.3 316.2 87.5 316.3 87.6C316.3 87.7 315.9 87.5 315.9 87.4Z" fill="#787675"/><path d="M292.9 85.6C293 85.6 293.1 85.7 293 85.7C293 85.7 292.9 85.7 292.9 85.6Z" fill="#787675"/><path d="M298.9 85.1C298.6 85 298.6 84.8 298.7 84.5C299 84.5 299 84.7 298.9 85.1Z" fill="#787675"/></svg>