<?xml version="1.0" encoding="iso-8859-1"?><!DOCTYPE svg PUBLIC "-//W3C//DTD SVG 1.1//EN" "http://www.w3.org/Graphics/SVG/1.1/DTD/svg11.dtd"><svg version="1.1" id="Capa_1" xmlns="http://www.w3.org/2000/svg" xmlns:xlink="http://www.w3.org/1999/xlink" 
	 viewBox="0 0 58 58" xml:space="preserve"><rect x="13" y="3.5" style="fill:#BFA380;" width="32" height="54"/><polygon style="fill:#7A6857;" points="13,57.5 10,57.5 10,0.5 13,3.5 "/><polygon style="fill:#7A6857;" points="45,57.5 48,57.5 48,0.5 45,3.5 "/><polygon style="fill:#6B5B4B;" points="45,3.5 13,3.5 10,0.5 48,0.5 "/><rect y="54.5" style="fill:#DBD6D2;" width="10" height="3"/><rect x="48" y="54.5" style="fill:#DBD6D2;" width="10" height="3"/><path style="fill:#E7ECED;" d="M38,33.5h-4.5c-0.8,0-1.5-0.7-1.5-1.5v0c0-0.8,0.7-1.5,1.5-1.5H38V33.5z"/><path style="fill:#6C797A;" d="M36,28.9V30.5h2v3h-2v1.6c0,0.8,0.6,1.4,1.4,1.4h2.1
	c0.8,0,1.4-0.6,1.4-1.4v-6.1c0-0.8-0.6-1.4-1.4-1.4h-2.1C36.6,27.5,36,28.1,36,28.9z"/></svg>