<svg width="399" height="630" viewBox="0 0 399 630" fill="none" xmlns="http://www.w3.org/2000/svg"><path d="M293.2 630C212.6 630 131.9 630 50.6 629.6C44.8 610.5 39.3 591.69 34.4 572.8C31 560 28.3 546.97 25.3 533.6C23.7 527.4 22.5 521.4 20.5 515.6C16.1 502.56 11.2 489.7 6.9 476.6C2.2 462.64 -0.5 448.3 0.1 433.5C0.2 429.6 1.5 426.7 5.6 425.3C8.4 425.7 10.8 425.9 13.5 426.3C18.2 427.3 16.9 424.2 17 421.6C17.2 419.8 17.3 418.38 17.5 416.6C18.4 412.2 19.1 408.07 20 403.6C21.6 396.8 23.2 390.44 24.8 383.7C25 381.9 25 380.4 25.1 378.6C25.2 377.5 25.2 376.7 25.3 375.5C26.4 369.1 27 362.9 28.6 357C30.5 350.3 32.3 343.2 40.7 341.4C49.2 339.5 54.1 344.5 58.4 350.6C58.4 350.8 58.6 350.9 58.8 351.29C59.4 352.1 59.8 352.6 60.1 353C60 353 60 353.2 60 353.5C60.5 355.2 61 356.6 61.5 358C61.9 357.9 62.2 357.9 62.6 357.8C63 356.2 63.3 354.6 63.6 352.8C63.6 352.6 63.3 352.5 63.5 352.3C64 351.8 64.1 351.36 64.3 351C64.2 351.1 64.3 351.2 64.6 350.89C66.3 345.44 69.2 340.2 69 335.1C68.5 323.7 69.5 313 75.5 302.8C79.5 297.5 86.9 296.3 91.8 300.2C95.4 302.9 98.8 306 102.5 309.2C103.8 310.7 104.8 312.1 105.9 313.6C105.9 313.7 106.1 314 106.13 314.4C106.4 319.2 107.1 323.8 106.6 328.1C105.1 339.4 103.13 350.7 101.3 362.4C100.7 365.6 100.2 368.3 99.8 371.1C99.6 372.6 99.6 374.3 99.9 375.9C100.9 381.6 102.7 387.3 103.1 393C104.1 409.9 105.5 426.8 110 443.3C110.7 445.7 111.1 448.18 112.06 450.4C115.9 458.89 119.9 467.3 123.8 475.69C124.7 477.5 125.4 479.3 126.2 481.2C127.2 474.7 127.5 468.49 127.1 462.4C126.5 450.8 126.5 439 124.4 427.7C122.6 418.6 124.4 411.7 130.2 405.2C135.3 399.5 140.5 393.9 145.9 388C153.6 380.6 161 373.4 168.8 366C170.2 365 171.3 364.1 172.6 363C174.1 361.96 175.3 361.04 176.7 360C178.1 358.8 179.2 357.8 180.6 356.8C184.8 354.5 188.7 352.3 193 350.1C203.4 349.3 213.5 348.6 222.6 342.6C228.3 341.1 233.5 339.6 239.1 338C238 328.4 236.9 318.7 235.9 308.5C235.8 305.7 235.6 303.3 235.6 300.7C235.7 299.5 235.7 298.7 235.8 297.4C235.6 279.6 235.3 262.3 235 244.5C233.75 233.7 232.5 223.4 231.25 212.6C231.2 211.5 231.2 210.7 231.2 209.5C231.1 205.4 231 201.7 231 197.6C231 196.5 230.9 195.7 231 194.5C231.7 186.8 232.3 179.52 233 172.3C233.6 166.9 234.6 161.5 234.8 156C234.9 150.2 234.4 144.4 234.12 138.6C233.6 128.96 233 119.3 227.7 110.8C227.8 110.8 227.8 110.7 227.8 110.3C225.3 104.9 223.1 99.6 220.2 94.8C215.93 87.9 211.1 81.5 206.4 74.5C202.7 70.3 199 66.5 195.8 62.3C193.8 59.8 192.4 56.8 191.1 53.8C187.8 46.1 184.63 38.3 181.4 30.2C181.3 29.3 181.4 28.7 181.7 27.9C187.1 25.2 187.5 21.1 182.8 17C178.99 13.7 176.8 10.1 178.5 4.7C189.4 -3 193.3 -0.7 197.9 7.5C199 6.5 200.2 5.6 201.4 4.6C201.9 4.8 202.4 5 203 5.3C201.9 8.9 201.1 12.6 199.9 16.2C198.71 19.8 200.7 29.5 203.8 30C207.7 30.7 213.5 30.7 215.7 28.4C223.1 20.5 232.1 17.2 242.5 15.7C242.9 15.9 243.1 15.9 243.2 16.3C243.3 17.1 243.3 17.6 243.3 18.4C243 20.3 242.2 22.3 242.8 23.5C245.5 28.3 248.6 33 251.3 37.2C255.6 35.6 259.1 34.3 262.6 32.9C263.9 32.4 265.04 31.7 266.25 31.1C265.57 29.9 264.89 28.6 264 27.1C263.35 24.2 262.9 21.5 262.9 18.8C263.6 18.6 263.93 18.6 264.6 18.6C265.7 18.7 266.5 18.7 267.6 18.8C271.3 19.5 274.5 20.2 278.2 20.9C285.2 20.3 291.7 19.7 298.6 19.1C299.4 18.4 299.9 17.7 300.8 17.1C302.5 16.4 303.94 15.8 305.7 15.1C306.8 15.1 307.5 15 308.5 15C308.9 14.9 309 14.9 309.63 14.8C311.8 14.9 313.5 15 315.3 15.5C317.3 19.4 319.1 23 321.1 26.9C324.2 23.2 326.23 19.5 329.37 17.4C333.7 14.5 334.8 10.3 336.72 5.8C341.8 5.8 346.5 6 351.3 6.5C352 7.8 352.5 8.9 352.8 10.1C352.3 11.1 352.1 12 351.6 12.8C350.6 12.8 350 12.7 349.1 12.5C348 13.8 347.2 15.4 346.2 17.3C345.8 18.4 345.5 19.2 345 20C342.7 19.7 341.2 19.4 341.1 22.4C340.9 25.6 340 28.8 339.3 32.2C339.2 32.4 339.2 32.8 339 32.9C338.6 33.3 338.5 33.6 338.3 34.3C335.4 42 332.7 49.4 330 56.8C330 56.8 330 56.9 330 56.9C329.9 56.8 329.86 56.89 329.6 57.1C324.2 65.7 319.2 74.2 313.8 82.9C311.3 84.3 309.1 85.5 306.8 86.8C304.7 88 301.5 88.7 300.5 90.6C297.7 96.1 295.8 102.1 293.4 108.3C292.7 121.4 292.03 134.21 291.31 147.3C290.8 149.1 290.4 150.5 289.84 152.2C289.97 156.3 289.9 160.1 290.8 163.6C291.2 165 293.7 165.8 295.55 167C301.3 169.8 303 173 302.3 180.37C303 188.5 305.9 195.1 311.8 200.3C314.3 202.5 316.3 205.3 318.3 207.9C323.3 214.7 328 221.8 333.2 228.4C337.8 234.2 342.9 239.6 347.9 245.2C348 245.2 347.9 245.1 347.9 245.4C348.3 246.8 348.8 247.9 349.3 249.3C353.6 256 357.4 262.6 362.2 268.4C369.6 277.6 376.2 287 375.3 299.6C375.2 301.4 375.8 303.2 376.1 305C376.9 309.3 379.6 311.3 383.9 311.1C387.3 310.9 390.8 310.2 394.3 310C398.6 309.68 399.9 311.7 397.76 315.4C396.9 316.9 395 317.9 393.4 318.8C391.03 320.3 388.6 321.5 385.8 322.9C381.7 324.1 378 325.2 374.4 326.59C371.9 327.5 369.6 328.8 367.1 329.9C367 329.88 366.8 329.9 366.7 329.6C366.15 328.8 365.7 328.2 365.3 327.3C363.7 322.7 361.3 318.5 360.7 314C359.5 305.7 355.12 298.9 350.8 292.6C343.5 282.1 334.7 272.7 326.4 262.7C325.9 262.25 325.6 262.1 325.3 261.9C325.3 262 325.3 262 325.4 261.6C325 260.9 324.66 260.4 324.3 259.9C324.3 260 324.4 259.9 324.4 259.5C323.3 250.6 317.2 245.64 311.1 240.9C298.67 231.2 286 221.8 273.4 212.4C272.4 211.7 271.2 211.3 269.7 210.5C267.6 224.4 263.1 237.3 266.4 251.3C266.4 252.1 266.5 252.6 266.5 253.4C266.6 255.9 266.6 257.9 266.6 260.3C265.5 264.8 264.5 268.9 263.3 273.2C261.5 277.9 257.8 282.2 262.1 287.5C261 294.9 259.7 301.9 259 308.88C258.6 312.5 258.5 316.5 259.5 320C261.2 325.5 261.4 330.7 259 336.2C260.1 337.93 261.1 340.3 262.6 340.7C266.2 341.6 268.1 343.5 269.1 346.8C269.8 349.2 270.6 351.6 271.4 354.4C271.7 356.8 272.1 358.8 272.4 361.3C272.9 367.8 273.4 374 274 380.1C275.1 390.1 277.61 399.6 283.5 408.2C287 413.26 291 418.8 292.1 424.6C295.6 444.4 301.3 463.6 309.6 481.8C314.2 492.08 317 502.3 316.4 513.55C316.2 517.3 316.73 521.2 316.8 525.36C315.1 534.1 313.5 542.5 311.8 551.1C311.5 551.9 311.4 552.4 311.2 553.4C311.1 554.3 311.06 554.8 311 555.27C310.99 555.2 310.92 555.3 310.7 555.6C309 562.3 307.5 568.6 305.8 575.3C301.5 593.7 297.4 611.8 293.2 630ZM192.9 395.5C192.3 396.6 191.8 397.7 190.7 399.3C189.7 401.14 188.7 403 187.3 405.2C186.8 406.1 186.3 406.91 185.3 408.2C181.2 414.6 177.26 421.1 172.8 427.2C170.2 430.65 170.06 433.3 173.7 436.6C178.7 443.7 180.1 451.9 181.6 460.4C183 468.2 184.7 476.6 188.8 483.24C195.2 493.5 203.7 502.3 211.2 511.8C214.9 516.6 225.7 518.9 230.2 516.5C238.7 512.1 247.4 507.89 256.2 504.3C260 502.8 262.2 500.8 262.2 496.86C262.3 491.55 262.1 486.2 262 480.4C261.8 479.84 261.63 479.3 261.5 478.2C261.4 477.8 261.4 477.38 261.3 476.2C257.8 464.72 254.3 453.3 250.7 441.1C250.3 439.7 249.9 438.3 249.4 436.3C249 435.8 248.7 435.2 248.3 434.3C248.3 434.3 248.2 433.9 248.3 433.1C246.8 428 245.4 422.8 244.1 417.2C244.1 416.9 244.1 416.6 243.9 415.5C239.1 405.7 239.6 395.2 240.7 384.8C241.2 379.9 243.2 375.1 243.9 370.2C244.3 367.3 243.5 364.3 243.2 361.3C241.4 362.7 239.7 364.1 237.9 365.5C237.6 365.7 237.4 365.9 237.2 366.1C228 375.7 215.9 379.5 203.8 383C198.9 384.4 195.9 386.83 194.7 392.3C194.2 393.2 193.8 394.1 192.9 395.5Z" fill="#000101"/></svg>