<svg width="330" height="804" viewBox="0 0 330 804" fill="none" xmlns="http://www.w3.org/2000/svg"><path d="M165.1 1.6C156.5 4 154.2 5.5 146.9 13.6C140.3 20.7 133.8 32.3 129.8 43.6C126.7 52.6 127.1 75.2 130.6 87C132.2 92.2 134.5 99.9 135.8 104.2L138.1 111.9L128.9 117.9C123.8 121.1 118.9 123.8 117.9 123.8C117 123.8 114.6 125 112.9 126.42C111 127.9 107.9 129.62 106.2 130.3C104.3 131 95.5 137.1 86.6 143.9C66.2 159.4 32.2 193.8 34.6 196.6C35.4 197.62 37 198.42 37.9 198.42C41.4 198.42 39.8 202.2 33.4 208.6C29.8 212.2 26.2 215.62 25.3 216.42C22.9 218.6 14.3 231.8 12.3 236.6C11.3 239 10.5 242.7 10.5 244.82C10.5 249.9 7 263.22 3.8 269.9C2.5 273 0.9 278.42 0.3 282.02C-0.5 288.02 -0.1 289 4.1 294.42C7.3 298.6 9.5 300.3 11.3 300.02C12.6 299.8 15.4 299.22 17.3 298.82C21.8 298.02 23.4 300.6 20.5 303.8C19.1 305.22 18.5 307.22 19 308.42C20.1 311.5 24.3 310.3 24.9 307C25.3 304.42 29.9 301.1 33 301.1C33.7 301.1 34.6 302.6 35 304.42C36.1 308.82 37.3 308.7 40.9 303.8C44.2 299.4 46.7 298.82 53 301.5C58.7 303.9 61.5 309.62 60.5 316.6C59.9 320.6 60.2 322.3 61.5 322.82C62.9 323.4 63.1 325.1 62.6 330.02C61.3 340.3 63.3 373.1 65.5 379.4C66.7 382.3 68.6 391.22 69.7 399.1C70.9 407 72.2 414.02 72.6 414.7C73 415.4 71.8 417.5 69.8 419.5C66.3 423 66.2 423.5 67.1 431.8C67.8 436.6 68.3 443.62 68.6 447.5C68.7 451.4 69.7 455.4 70.5 456.42C73.4 459.9 71 462.2 63.4 463.1C57.5 463.9 55.5 464.7 53.3 467.9C51.8 469.9 50.5 472.2 50.5 473C50.5 473.62 53.8 476.3 57.8 479.1C63.8 483 65.1 484.6 65.1 487.62C65.1 489.9 66.2 492.2 67.7 493.22C69.7 494.7 70.3 497.5 71 505.5C71.9 515.4 71.8 516.02 69.1 516.7C66.9 517.4 66.5 518.2 67 522.3C67.4 525 67.7 527.5 67.7 528.02C67.8 528.7 68.7 529.1 69.8 529.1C70.9 529.1 71.8 530.3 71.8 531.62C71.8 533.5 70.6 534.42 67.7 535.1C65 535.8 63.8 536.7 64.3 537.8C64.7 538.82 65.4 541.9 65.9 544.7C66.9 550.3 69.8 554.42 72.7 554.42C74.3 554.42 74.3 554.7 72.7 556.3C69.1 559.9 67.1 566.42 69 569.22C70.1 571 70.1 572.6 69.3 574.3C68.5 575.62 67.5 583.9 67 592.7L66.1 608.6L69.5 610.82C71.8 612.3 72.7 613.9 72.2 615.5C71.7 617.62 72.5 618.2 76.7 618.82C79.5 619.4 85.9 622.2 91.1 625.1C96.2 628.2 103.1 631.22 106.6 631.9L112.9 633.22L113.8 641.5C114.5 646.02 114.7 650.3 114.5 651.1C112.7 657.1 113 658.42 117.3 662.42C119.9 664.82 122.7 666.3 124.2 665.9C125.8 665.5 126.5 666.2 126.5 667.9C126.5 671.22 131.3 673.5 135.9 672.6C139.1 671.9 139.8 672.3 139.8 674.42C139.8 676.02 138.9 677.1 137.5 677.22C135.5 677.22 135.5 677.5 137.1 678.2C138.2 678.7 139.1 679.9 139.3 680.7C139.4 681.62 139.5 686.42 139.8 691.4L140.2 700.42L141.1 693.1C141.7 688.42 142.1 687.22 142.2 690.02C142.3 692.3 143.1 694.7 143.8 695.1C144.9 695.8 144.9 696.6 143.8 697.62C142.9 698.82 142.6 711.8 142.7 735.8C143 768.02 143.3 772.42 145.4 775.1C146.6 776.7 147.4 779.22 147 780.7C146.6 782.2 147.1 784.2 148.2 785.22C149.1 786.3 149.8 787.9 149.4 788.82C148.6 791.22 155.7 798.42 158.6 798.42C159.8 798.42 161.1 799.62 161.5 801C162.1 803.1 163.4 803.5 170.2 803.62C176.1 803.62 178.5 803.1 179 801.62C179.4 800.7 180.5 799.8 181.5 799.8C182.5 799.8 185.5 796.82 188.2 793.22C193.1 786.82 194.3 784.2 191.8 785.8C191.1 786.2 190.5 785.9 190.5 785.22C190.5 784.42 191.4 783.8 192.6 783.8C194.5 783.8 194.6 782.82 193.9 778.42C193.3 774.2 193.5 773.1 195.1 773.1C196.5 773.1 197.1 771.8 197.1 769.1C197.1 766.82 196.6 765.1 196.1 765.1C195.5 765.1 195 763.9 194.9 762.42C194.7 760.82 195.4 759.8 196.7 759.8C198.3 759.8 198.6 758.2 198.1 750.6C197.5 743.1 197.8 741.5 199.3 742.02C200.7 742.6 201.1 741.22 201.1 736.6C201.1 733.22 200.6 730.42 199.8 730.42C197.3 730.42 198.5 724.82 201.1 724.2C204.3 723.4 204.6 721.4 201.8 720.3C199 719.1 199.3 714.82 202.5 712.2C203.9 710.82 205.8 707.9 206.5 705.62C207.3 703.22 209.1 701.1 210.6 700.7C213.4 699.9 223.1 680.7 221.9 678.6C221.5 677.9 222.3 675.9 223.8 674.02C225.3 672.2 226.5 669.8 226.5 668.7C226.5 667.5 227.1 666.2 227.9 665.62C228.7 665.22 229.1 663.62 228.7 662.3C228.3 660.82 228.9 658.82 229.9 657.9C231.9 655.8 232.5 653.1 230.7 653.1C229.1 653.1 228.9 636.02 230.5 633C231.3 631.62 233 630.42 234.3 630.42C235.7 630.42 238.2 629.22 239.9 627.62C243.1 625 243.1 625 240.2 626.42C237.8 627.5 237.1 627.5 237.1 626.02C237.1 625 238.6 623.8 240.5 623.5C242.3 623.1 243.8 623.4 243.8 624.02C243.8 624.6 246.3 623.9 249.4 622.3C255 619.5 268.1 615.5 277.5 613.9C280.2 613.4 282.5 612.6 282.5 612.02C282.5 610.6 277.3 597 273.8 589.62C272.1 585.9 268.5 580.7 265.8 578.3C261 573.8 261 573.62 263 568.82C264.1 566.3 264.6 563.8 264.2 563.4C263.8 562.82 264.2 561.62 265 560.6C265.9 559.5 266.1 558.3 265.4 557.9C263.8 557 265.1 549.1 267 549.1C267.8 549.1 267.8 548.6 266.6 547.9C265.1 547 265.1 545.5 266.3 539.8C267.4 534.7 267.4 532.3 266.5 531C265.5 530.02 265.4 527.4 265.8 524.7C266.5 521.5 266.1 519.1 264.6 516.82C263.3 514.82 262.5 510.42 262.3 505.1C262.2 494.42 265 467.9 266.6 464.82C267.5 463 267 462.02 263.7 460.42C260.7 458.82 259.8 457.62 260.5 456.02C262.6 450.3 262.7 442.82 260.6 440.82C258.3 438.6 257.7 436.42 259.5 437.62C260.2 438.02 260.5 431.62 260.2 423.4C259.8 407.8 257.1 397.1 253.7 397.1C252.7 397.1 251.5 395.5 251 393.4C250.6 391.4 249.4 386.7 248.3 383.1C247.4 379.4 245.5 371.9 244.5 366.42C240.5 346.82 231.9 323.1 228.2 320.7C227.3 320.2 226.5 317.9 226.5 315.8C226.5 312.42 227.1 311.62 231.7 310.42C234.5 309.8 237.5 308.2 238.5 307.1C240.3 304.82 242.5 304.42 242.5 306.3C242.5 307 239.1 309.4 235.1 311.62C225.3 317.22 225.7 319.5 235.7 314.6C244.1 310.3 249.4 310.02 269.8 312.82C280.9 314.42 283.5 315.22 287.4 318.82C290.5 321.5 293.1 321 293.1 317.5C293.1 316.02 293.9 315.62 296.2 316.3C297.8 316.7 303.4 317.8 308.5 318.6C313.7 319.4 318.9 320.6 320.1 321.22C323.4 323 326.5 322.7 326.5 320.7C326.5 318.02 323.5 315.8 319.9 315.8C316.7 315.8 316.7 315.8 319.3 313C320.9 311.1 322.6 310.6 324.7 311.1C327.3 311.62 327.9 311.1 328.6 308.2C329 306.02 329.5 303.62 329.9 302.7C330.2 301.8 329.5 300.7 328.6 300.3C327.5 299.9 326.5 297.9 325.9 295.62C325.5 293.5 322.7 289.1 319.8 285.9C314.6 280.3 314.2 279.1 312.3 267.1C309.9 250.6 303.8 235.8 296.3 227.62C290.3 221.4 284.6 209.9 285.7 206.82C286.1 205.8 285 202.7 283.4 200.02C281.7 197.4 279.5 193 278.5 190.42C277.5 187.9 275.7 183.9 274.5 181.8C273.1 179.5 271.4 175.4 270.5 172.42C264.9 154.7 252.6 142.02 222.1 122.3C217.5 119.4 215.8 117.4 216.3 115.9C220.1 104.42 221.8 99.5 223.8 94.4C225.1 91.1 226.9 84.2 227.7 79.1C229.7 66 230.7 42.4 229.3 42.4C228.6 42.4 227.4 40.4 226.6 38.2C222.2 25.6 206.1 6 199 4.7C196.9 4.3 192.7 3.1 189.8 1.9C183.4 -0.5 173.4 -0.6 165.1 1.6ZM240.1 204.7C242.1 206.7 243.8 209 243.8 209.9C243.8 210.82 244.9 212.42 246.2 213.4C249.1 215.5 265 239.8 270.3 250.3C272.5 254.42 274.9 260.2 275.7 263.1C276.5 266.02 279.4 271.22 282.3 274.82C287.1 280.6 287.4 281.5 286.1 285C285.3 287.22 284.1 288.6 283.5 288.3C282.9 287.9 281.4 288.3 280.2 289.4C278.5 290.7 277.9 290.7 277.5 289.4C276.9 287.5 269.7 287.22 268.5 289.1C268.1 289.8 268.3 291.8 269.3 293.4L270.9 296.42L267.4 293.22C264.2 290.3 263.8 290.3 261.8 292.3C260.3 293.62 257.3 294.42 253.1 294.42C249.5 294.42 243.8 295.4 240.3 296.6C234.6 298.42 234.1 298.42 231.5 296.2C230.1 294.82 227.5 293.8 226.1 293.8C224.2 293.8 221.9 291.8 219.4 288.2L215.7 282.42L218.9 278.2C224.5 270.7 225.3 268.2 226.5 253.4C227.3 245.5 229 235.22 230.5 230.42C231.9 225.62 233.5 217.1 234.1 211.4C234.5 205.8 235.1 201.1 235.5 201.1C235.9 201.1 238.1 202.7 240.1 204.7ZM76.2 245.5C74.7 248.82 73.9 254.2 73.9 260.6C73.8 270.3 73.8 270.6 70.6 269.8C65.9 268.6 56.3 270.42 53.5 273C48.5 277.8 42.9 274.6 39.7 265.22C38.5 261.9 38.7 260.6 41 257.5C42.5 255.5 44.3 251.1 45.1 247.8C46.5 243.1 48.6 240.2 56.1 233.1C61.3 228.3 68.3 221.62 71.7 218.3L77.8 212.2L78.2 226.3C78.5 237.5 78.1 241.5 76.2 245.5ZM71.7 277.9C72.3 278.6 66.2 283.62 64.7 283.8C63.1 283.8 58.6 278.02 59.3 277C59.8 276.02 70.6 277 71.7 277.9ZM111.7 611.4C111.8 613.8 111.3 615.8 110.6 615.8C108.7 615.8 108.3 613.62 109 607.4C109.4 603 109.7 602.3 110.6 604.42C111.1 605.9 111.7 609.1 111.7 611.4ZM230.1 626.02C229.7 627.4 229.4 626.6 229.4 624.42C229.4 622.2 229.7 621.22 230.1 622.02C230.3 623 230.3 624.82 230.1 626.02ZM100.9 626.02C101.5 628.42 97.8 628.2 95.7 625.62C94.2 623.8 94.3 623.62 97.1 624.02C98.9 624.2 100.5 625.22 100.9 626.02Z" fill="#0e1e0c"/><path d="M202.5 715.8C202.5 716.42 203.1 717.1 203.8 717.1C204.6 717.1 205.1 716.42 205.1 715.8C205.1 715 204.6 714.42 203.8 714.42C203.1 714.42 202.5 715 202.5 715.8Z" fill="#0e1e0c"/></svg>