<svg width="736" height="1424" viewBox="0 0 736 1424" fill="none" xmlns="http://www.w3.org/2000/svg"><g clip-path="url(#clip0_126_3232)"><path d="M309.5 1425C301.5 1417.2 293.3 1410 286.9 1401.44C280.9 1393.55 274.7 1384.7 272.6 1375.37C267.4 1352.84 256.7 1332.2 251.8 1309.73C249.9 1301.16 248.4 1292.4 247.8 1283.66C246.2 1260.92 244.8 1238.16 244 1215.39C243.27 1194.1 246 1172.97 253.5 1153.08C257.3 1143.33 258.05 1134.26 257.1 1124.15C253.1 1081.06 250.2 1037.91 242.96 995.1C238.4 968.4 236.9 941.2 233.8 914.2C233.1 907.7 231.3 901.4 230.02 894.99C224.7 896 223.2 898.6 222.7 902.5C220.6 923.5 218.4 944.6 215.9 965.6C213.2 987.9 210.2 1010.12 206.8 1032.33C206.5 1034.76 203.4 1037.7 200.9 1038.64C198.2 1039.65 195.9 1037.29 196.1 1034C196.45 1027.02 196.7 1020.03 197.4 1013.08C199.9 988.89 202.7 964.7 205 940.5C205.8 933 203.7 926.3 199 919.69C190.8 908.1 183.6 895.6 176.8 883.1C172.5 875.4 169.2 867 166.2 858.6C164.2 852.6 159.9 849.7 154.7 849.2C126.5 846.4 102.6 833.9 80.3 817.6C78.9 816.6 78 814.8 77.1 813.3C67.8 798.1 66.2 781.1 65.3 763.9C64.5 749.1 62.4 734.4 62.8 719.7C63.2 706.5 65.3 693.2 68 680.3C76.5 639.8 94.4 602.7 109.4 564.5C112.64 556.16 117.7 549.2 124.8 543.4C138.4 532.3 150.4 519.7 158.5 503.8C159.3 502.2 159.2 500.1 159.3 498.2C159.7 490.8 160 483.3 160.2 475.81C161.3 444.2 162.2 412.5 163.6 380.9C164.2 365.6 166.43 350.45 172.4 336.11C174.8 330.35 179 326.6 184.6 323.91C208.9 312.09 233.4 300.6 257.1 287.9C269 281.4 279.6 272.5 290.7 264.7C293.9 262.4 297.02 260.2 301.4 257.05C301.7 261.24 302.2 264.6 302 267.8C300.8 284.6 299.6 301.3 297.91 318C297.3 323.9 295.44 329.7 293.72 335.4C289.8 348.4 285.1 361.2 281.6 374.4C276.1 394.79 270.5 415.2 266.4 435.9C260.6 465 255.5 494.2 251.1 523.5C247.5 547.8 245.3 572.4 242.5 596.87C241.88 602 241 607.1 240.9 612.2C240.6 625.5 240.9 625.4 250.5 634.5C257.5 641.2 266 644.9 275.1 647C293.2 651.2 311.4 655.37 329.7 658.5C352 662.3 374.4 665.5 396.9 668.1C408.8 669.5 409 668.8 412.2 657.2C413.38 653.1 414.2 648.8 414.3 644.53C415.3 616.74 416.9 588.9 416.8 561.1C416.6 528.2 415 495.2 414.1 462.25C414 458.7 412.9 457.5 409.4 457.8C406.3 458.04 403.1 458.1 400 457.7C396.1 457.3 395.3 454.9 397.7 451.8C397.9 451.5 398.1 451.26 398.4 451.1C409.5 446.3 407 432.9 414.3 425.7C414.9 425 414.2 422.6 413.6 421.2C410.4 414.6 406.7 408.3 403.9 401.6C399.1 390.4 400.9 378.7 402.1 367.1C403.9 350.1 405.41 333 407.1 316C407.5 311.9 408.3 307.8 409 303C411.9 305.2 414.2 306.9 417.1 309.2C423.1 283.6 421.8 258.1 424.2 232.8C423.5 233.56 422.7 234.3 422.2 235.17C421.2 237.3 420.53 239.5 419.6 241.6C416.02 249.7 414.5 258.7 404 262.2C397.1 264.5 396.8 272.5 395.3 278.66C394.5 281.68 393.2 283.4 390.4 284.9C383.1 288.9 376 293.1 368.9 297.5C364.1 300.5 361.4 305.1 360.8 310.6C359.7 321.7 359.1 332.8 358.2 343.9C357.9 347.16 357.5 350.4 357.06 354.8C351 341.5 345.6 329.2 339.9 317.1C338 313.1 334.6 309.8 333.1 305.7C329.9 297.1 326.7 288.4 325 279.4C322.6 266.7 321.53 253.8 319.8 240.5C317.9 241.5 316.3 242.3 314.8 243C310.1 235.2 308.5 226.7 309.1 217.7C309.4 214.3 307.8 212.4 304.6 211.6C293.8 209 287.9 201.8 284.9 191.3C282.8 183.53 279.2 176.2 276.7 168.5C274.4 161.4 275.5 159.7 281.2 155.2C282.4 154.2 283.2 151.2 282.7 149.7C277.4 133.5 275.7 117 275.81 100.1C275.8 92.1 278 85.1 282.9 78.84C292.9 66.1 303.3 54.1 316.8 44.6C327.3 37.2 338.8 34.9 350.7 35.1C363.8 35.3 376.9 37.1 389.8 39.1C398.6 40.4 405.8 45.3 411.1 52.7C415.92 59.5 420.38 66.5 425.7 72.9C432.1 80.6 432.1 89.9 432.8 98.9C433.7 110 433.4 121.14 433.8 132.3C434 140.6 434.3 148.9 435.1 157.2C436.6 172.3 431.4 185.6 425.7 199C423.6 203.9 422.6 209.5 422.2 214.9C421.36 223.7 428.4 227.1 434.6 230.5C452.3 240.1 470.8 247.7 490.2 253.6C512.6 260.3 534.4 269.09 556.5 276.8C569.5 281.3 582.7 285.4 595.9 289.5C599.2 290.53 600.7 292.3 601.24 295.7C604.4 317.2 607.6 338.77 611 360.3C614.3 380.3 617.5 400.4 621.5 420.3C624.1 433.4 628.1 446.3 631.4 459.4C632.3 463.1 632.3 467 633.4 470.7C636.7 481.1 640.4 491.4 643.8 501.7C644.4 503.3 644.9 504.9 645.1 506.5C647 536.4 648.9 566.3 650.8 596.2C651.44 606.2 652.2 616.2 652.9 626.13C654.3 648.9 651.3 671.3 648.5 693.8C645.4 718.06 641.7 742.3 639.1 766.6C637.4 783.3 636.5 800.2 636.55 816.9C636.6 822.9 635.7 827 631 830.4C625.4 834.3 624.23 840.29 624.3 846.7C624.36 847.7 624.23 848.7 624.4 849.7C626.3 864.2 618.7 873.3 607.2 880.31C595.2 887.7 582.6 893.7 568.3 894.9C565.3 895.1 562.3 894.9 559.7 894.9C560.2 900.8 561.1 907.8 561.1 914.8C561.1 919.6 560.12 924.4 559.2 929.1C558 936 554 940 546.6 941C539 942 538.8 942.6 538.3 950C535.8 988.6 532.7 1027.16 531 1065.76C529.4 1103.97 521.4 1140.92 511.5 1177.59C509.2 1186.07 505.9 1194.27 503.3 1202.68C499.9 1214 492.5 1221.61 481.6 1225.78C477.8 1227.22 476.7 1229.41 476.6 1233.52C476.1 1254.14 474.4 1274.77 474.8 1295.36C474.98 1309.03 477.51 1322.59 482.9 1335.65C486 1343.25 487.03 1351.99 487.5 1360.3C488.22 1373.65 483.5 1386.15 478.9 1398.48C478.11 1400.74 476.2 1403.24 474.1 1404.28C469.8 1406.41 457.11 1406.46 453.3 1400.69C447.9 1392.56 441.8 1384.61 438.1 1375.72C431.2 1359.39 425.9 1342.44 419.9 1325.74C417.9 1320.26 416 1314.78 414.15 1309.27C412.1 1303.11 410.4 1297.03 411.7 1290.27C412.9 1284.07 410.4 1278.22 406.3 1273.75C399.9 1266.67 398.4 1259.07 400.6 1249.89C402.5 1241.48 403.7 1232.83 404.3 1224.22C404.7 1219.37 404 1214.08 402.4 1209.51C393.5 1184.93 394.4 1160.28 400.3 1135.31C403.2 1123.19 405.4 1111.04 403.26 1098.27C402.3 1092.46 404 1085.98 405.4 1080.03C409.3 1063.82 408.4 1047.9 404.9 1031.72C398.9 1003.77 393.6 975.7 387.8 947.6C386.9 943.5 385.2 939.4 383.4 935.5C382.6 933.8 380.7 932.7 379.3 931.4C378.7 931.6 378.2 931.8 377.6 931.9C375.8 947.4 373.7 962.9 372.1 978.3C368.99 1008.65 365.5 1038.94 363.5 1069.33C362.3 1086.4 355.3 1101.39 350.4 1117.2C347.3 1127.37 343.7 1137.47 341.8 1147.87C340.91 1152.87 342.8 1158.71 344.5 1163.82C348.95 1177.21 354 1190.39 358.7 1203.73C359.4 1205.99 359.4 1208.6 359.41 1211.05C360.1 1237.66 355.2 1263.79 352.7 1290.14C351.7 1301.41 350.4 1312.72 350.36 1324.02C350.4 1338.8 347.5 1353.1 345.3 1367.57C343.3 1380.86 342.2 1394.32 341.2 1407.74C340.8 1413.63 340.3 1419.31 336.9 1424.64C328 1425 319 1425 309.5 1425ZM447.9 1318.29C444.9 1314.28 442.17 1309.99 438.8 1306.35C434.7 1301.96 429.9 1298.17 425.6 1294.02C423.6 1292.18 421.9 1290.11 419.1 1287.08C419.1 1293.53 418.1 1298.81 419.3 1303.51C420.6 1308.25 424 1312.43 426.5 1316.85C426.1 1317.13 425.6 1317.4 425.2 1317.68C424.3 1317.37 423.3 1317.07 422.1 1316.71C422.8 1319.56 423.3 1322.03 423.9 1324.83C427.91 1323.97 428.05 1326.72 427.5 1329.57C431.1 1330.15 434.2 1330.66 436.6 1331.06C439.08 1332.19 441 1333.09 443.7 1334.31C449.9 1337.49 456.3 1335.63 464 1335.78C457.9 1329.39 453 1324.19 447.9 1318.29ZM429.7 119.3C428.1 110.7 428.1 101.48 424.6 93.7C421.6 86.7 417.2 80.6 418.8 72.1C413.8 72.7 410.4 71.8 408.4 67.4C408.1 66.7 404.2 66.6 402.9 67.6C397 72.1 391 76.4 383 76.3C382 76.3 380.4 76.8 379.89 77.6C377.42 81.5 374.18 80.4 370.6 79.7C368.9 79.4 366.8 80.4 365 81.2C363.4 82 362 83.4 360.5 84.5C359.6 82.6 358.7 80.7 357.9 78.8C357.5 78 357.2 77.1 356.4 74.9C354 79 352.2 82.1 350.4 85.1C350 85 349.6 84.8 349.3 84.7C349.7 82.7 350.1 80.7 350.5 78.8C350 78.5 349.5 78.3 349 78C346.4 80.8 343.7 83.7 341.1 86.5C335.2 93.1 335.2 93.2 327.2 89.9C323.2 88.2 320.1 89.4 318.6 93.13C317.5 96 317.7 99.2 314.11 100.7C313.5 100.9 313.2 104.6 314.1 105.7C317.8 110.5 316.5 115.9 316.9 121.1C317.2 123.4 318.06 125.6 318.7 127.9C319.3 130.3 320 132.7 320.52 135.1C320.8 136.4 320.7 137.7 320.9 139C321.8 145.4 324.7 151.7 321.6 158.3C321.3 158.9 321.1 159.6 321.3 160.18C323 165.7 324.1 171.6 326.9 176.5C331.1 183.8 330.8 191.8 332 199.5C332.6 203.1 333.5 207.3 332.2 210.46C330.1 215.7 331.96 219.7 334.3 223.6C336.6 227.5 341.4 227.9 344.1 224.28C346.7 220.8 348.76 216.7 349.9 212.5C352.49 203.31 356.5 212 359.8 211.6C361.1 211.41 362.8 213.8 364.3 215C364.46 215.1 364.2 215.7 364.2 216C363.4 218.6 362.6 221.2 361.9 223.9C360.5 229.3 361.4 230.21 367.1 231.8C369.1 232.4 370.71 234.6 372.5 236.1C370.7 237.4 368.9 238.77 367 240C366.2 240.54 365.1 240.7 364 241.2C367 243.6 370 247.85 372.2 247.4C379.5 246.1 385 249.4 391.5 251.48C399.6 254.2 406.8 247.8 414.2 244.7C414.8 244.4 415.2 243.4 415.6 242.7C418.3 236.5 419.8 230.16 419.2 223.3C418.9 219.6 419.1 215.7 419.7 212C422.7 194 425.9 176 428.9 157.9C429.5 154.1 430.3 150.1 429.5 146.5C427.7 137.66 428.2 129 429.7 119.3ZM335.91 782C329.8 783.7 323.7 786.3 317.5 786.8C304 787.7 290.9 790 277.9 793.1C276.2 793.6 274.3 795.1 273.5 796.7C273.1 797.53 274.9 799.5 275.84 800.9C276.5 801.81 277.5 802.5 278.2 803.4C287.7 816.6 296.1 830.4 297.4 847.2C297.5 847.4 297.9 847.58 298.7 848.2C328.4 828.74 358.8 828.5 389.4 847.2C390.1 842.37 390.7 838.5 391 834.5C391.5 830.3 392.3 826 391.8 821.9C391.23 817.1 390.3 812 388 807.8C384.3 800.9 379 794.83 375 788.03C370.7 780.7 367.1 778.7 358.5 779.8C351.3 780.8 344 781.3 335.91 782ZM553.4 717.3C556.7 718.1 560 715.6 560.1 711.4C560.3 701.8 561.2 691.9 559.6 682.6C553.1 646.8 550.2 610.7 546.7 574.6C545.6 563 544 551.5 542.1 540.1C541.6 536.75 539.2 533.7 537.7 530.6C537 530.6 536.3 530.7 535.6 530.7C534.6 534.96 532.9 539.2 532.9 543.4C533.1 570.84 533.3 598.3 534.2 625.73C534.8 647.3 535.4 669 542.92 689.7C546.2 698.7 549.6 707.7 553.4 717.3ZM573.1 842.8C572 842.4 570.2 841.4 570 841.7C569.02 843.1 567.8 844.8 567.8 846.4C567.6 850.81 567.6 855.3 568.2 859.7C568.4 861.6 570.1 863.2 571.2 865C572.4 863.3 574.62 861.5 574.6 859.8C574.6 854.3 573.7 848.9 573.1 842.8Z" fill="black"/><path d="M320.14 355.6C324.6 371.1 331.53 385 339.9 398.3C342.7 402.8 345.9 407.1 348.49 411.8C349.9 414.3 350.2 417.4 351.2 421.1C354.1 421.4 353.98 424.6 354.1 428C354.51 441.3 355 454.6 355.8 467.9C355.9 470.4 356.8 473.1 358.1 475.3C363.3 484.2 369.2 492.7 373.8 501.9C375.7 505.8 375.4 510.9 375.7 515.5C375.7 516.5 374.3 518 373.1 518.6C363.54 524 352.9 525 342.3 525.2C340.6 525.2 337.63 522 337.4 520.1C335.9 506.2 336.1 492.2 339 478.4C339.4 476.9 339.2 474.8 338.3 473.6C335.4 469.8 332 466.4 329.2 462.5C328.3 461.4 328.6 459.3 328.6 459.2C326.1 457.1 323.7 456.01 322.9 454.2C319.95 448.3 317.5 442.1 315 435.9C314.49 434.6 314.5 433 314.6 431.5C315.3 419.2 316.4 406.9 316.8 394.6C317 389.4 315.7 384.1 315 378.9C312.7 361.9 310.14 345 308 328C306.9 319.3 306.23 310.4 306.1 301.6C306 298.6 308.2 295.6 309.4 292.6C310.1 292.6 310.9 292.7 311.7 292.8C312.7 296.8 314.3 300.9 314.77 305C316.72 321.7 318.3 338.4 320.14 355.6Z" fill="black"/><path d="M336.4 782C344 781.3 351.3 780.8 358.5 779.8C367.1 778.7 370.7 780.7 375 788C379 794.8 384.3 800.89 388 807.8C390.3 812 391.23 817.1 391.8 821.86C392.3 826 391.5 830.3 391 834.5C390.7 838.5 390.1 842.4 389.4 847.2C358.8 828.5 328.4 828.7 298.7 848.2C297.9 847.6 297.5 847.4 297.4 847.2C296.1 830.4 287.7 816.6 278.2 803.4C277.5 802.46 276.5 801.8 275.84 800.9C274.9 799.5 273.1 797.5 273.5 796.67C274.3 795.12 276.2 793.6 277.9 793.1C290.9 790 304 787.7 317.5 786.8C323.7 786.3 329.8 783.7 336.4 782Z" fill="black"/><path d="M443 1334C441 1333.09 439.08 1332.19 436.6 1331.06C434.2 1330.66 431.1 1330.15 427.5 1329.57C428.05 1326.72 427.91 1323.97 423.9 1324.83C423.3 1322.03 422.8 1319.57 422.1 1316.71C423.3 1317.07 424.3 1317.37 425.2 1317.68C425.6 1317.4 426.1 1317.13 426.5 1316.85C424 1312.43 420.6 1308.25 419.3 1303.51C418.1 1298.81 419.1 1293.53 419.1 1287.08C421.9 1290.11 423.6 1292.18 425.6 1294.02C429.9 1298.17 434.7 1301.96 438.8 1306.35C442.2 1309.99 444.9 1314.28 447.6 1318.64C444.9 1317.17 442.5 1315.34 439.6 1313.02C437.4 1314.44 436.3 1317.02 438.4 1320.91C440.6 1324.99 444.4 1328.61 443 1334Z" fill="black"/><path d="M443.4 1334.15C444.4 1328.61 440.6 1324.99 438.4 1320.9C436.3 1317.02 437.4 1314.43 439.6 1313.02C442.55 1315.34 444.9 1317.17 447.6 1318.99C453 1324.19 457.9 1329.39 464 1335.78C456.3 1335.63 449.9 1337.49 443.4 1334.15Z" fill="black"/><path d="M389.4 169.9C389.4 174.8 389.4 179.3 389.4 183.9C388.8 183.9 388.1 183.88 387.5 183.9C387.85 180 384.88 177.3 385.4 172.7C385.8 168.1 382.6 163.1 381 158.3C380.7 157.5 380 156.9 379.77 156.14C377.9 151.2 376.6 150.7 371.9 154C366.6 147.16 361 151.3 355.9 154.4C354.5 155.2 355 159.4 354.5 163C351.5 162.7 347.6 162.5 343.8 162.1C340.3 161.7 336.8 161.3 333.4 160.3C332.1 159.9 330.4 157.9 330.3 156.5C330.1 153 330.6 149.5 331.2 146.2C331.39 145.4 333.56 144.7 334.83 144.6C337.5 144.5 340.3 144.9 343 145C345.46 145 348 144.3 350.4 144.6C354.1 145 356.9 145.03 360.3 142.4C368.2 136.3 384.8 142.7 387.1 152.4C388.3 158 388.6 163.8 389.4 169.9Z" fill="black"/><path d="M398 216.4C396.5 217.8 395.1 219.55 393.5 219.8C390 220.5 386.5 220.3 382.3 220.5C385.2 226.1 388.3 228.9 394.14 227.1C396.1 226.5 398.5 227.3 400.7 227.5C400.7 228 400.67 228.5 400.65 228.9C395.4 229.9 390.2 231.5 384.97 231.8C377.9 232.1 374 228.5 372.2 221.8C372 220.8 370.8 220.1 369 218C377.1 216.9 384.3 215.8 391.5 215.1C393.6 214.9 395.8 215.6 398 216.4Z" fill="black"/><path d="M385.6 198.3C381.46 197.4 375.6 197.4 374.6 195.3C373.1 192.16 375.3 187.4 375.9 183.4C376.5 183.4 377.1 183.4 377.7 183.4C378.2 184.67 378.8 185.9 379.1 187.2C380.4 192.6 382 193.4 387.1 190.9C391.9 188.6 400.68 192.8 401.3 198.28C396.2 198.28 391.1 198.28 385.6 198.3Z" fill="black"/><path d="M402 143.9C405 137 410.7 134.75 417.2 134.2C418.8 134 420.7 135.5 422.1 136.7C423.5 138 424.4 139.9 425.6 141.6C424.64 142.6 423.6 143.7 421.2 146.4C419.5 144.5 417.9 142.8 416.3 141.04C414.9 141.2 412.2 141.3 409.7 141.9C408.3 142.2 407.2 143.6 405.8 144.1C404.7 144.46 403.32 144.2 402 143.9Z" fill="black"/></g><defs><clipPath id="clip0_126_3232"><rect width="736" height="1424" fill="white"/></clipPath></defs></svg>