<svg width="516" height="346" viewBox="0 0 516 346" fill="none" xmlns="http://www.w3.org/2000/svg"><path d="M326.4 115.4C327 114.2 327.5 113 328.6 111.37C332.8 110.3 336.6 109.7 340.4 109C340.4 109 340.3 109.1 340.3 109.4C341.9 111.2 343.4 112.8 345.9 115.2C345.9 111.7 345.9 110.1 345.9 108.4C346.4 108 346.98 107.6 347.5 107.2C348.7 108.9 350.3 110.5 351 112.5C352 115.4 353.8 115.3 356.4 114.6C359 114.4 361.3 114.2 363.43 114.4C360.73 120.5 365.7 120.2 368.4 121.7C369.8 120.35 371.1 119.2 372.5 118.4C376.51 124 382.6 121.5 387.5 122.93C387.5 122.93 387.9 123 387.9 123.5C387.1 124.7 386.37 125.4 385.6 126.18C383.7 128 383.4 129.4 386.7 130C387.2 130.2 387.4 130.4 387.54 131C389.6 134.6 390.9 134.5 393.2 130.9C393.3 130.9 393.1 130.8 393.4 131C394.4 132.6 395.1 133.9 396 135.5C396.86 137 397.5 138.3 398.2 139.8C399.3 144.1 401.5 146.8 406.04 148.3C405.3 145.7 404.8 143.9 404.4 142C404.53 141.9 404.8 141.6 405.1 141.8C407.4 143 409.3 144.1 411.3 145.5C412.8 152 419.14 157.1 424 156C425.5 168.42 427.1 171.33 432 170.2C432.8 167.9 425.9 164.2 433.4 163.3C433.5 163.4 433.8 163.6 433.8 163.6L434.21 163.53C434.8 164.8 435.4 166.1 436.2 168C438.2 171.2 440.1 173.6 441.7 175.77C442.5 174.1 443.3 172.5 444.1 171C444.7 170.9 445.3 170.78 445.9 170.7C447.7 173.9 449.5 177.09 451.3 180.3C451.7 181 452.1 182 452.7 182.3C455.4 183.6 455.1 185.5 454 187.6C452.9 190 451.2 192.2 450.4 194.6C449.1 198.4 448.8 202.6 447.3 206.33C444.4 213.3 442.1 220.2 443.5 227.97C444.1 231.3 445.2 235.3 440.9 237.59C440.9 237.59 440.5 237.7 440 237.6C439.1 238 438.7 238.4 438.3 238.8C435.9 240.9 433.4 242.95 430.5 245.4C429.7 246.4 429.4 247.2 429.2 248C428.3 249.9 427.4 251.9 426.1 254.4C425.6 255.6 425.46 256.34 425.3 257.1C424.7 258.5 424.1 260 422.92 261.7C421 265.1 419.5 268 418.3 271.07C416.88 274.84 414.3 275.7 411.8 272.6C410.4 270.9 409.6 268.5 409.3 266.3C408.8 263.3 409.2 260.3 408.91 257.3C407.9 246.9 399.4 242.3 390.8 247.8C386.2 250.7 383.2 255 383.2 261C383.2 264.3 383.3 268 381.9 270.7C378 278.4 372.7 285.4 369.3 293.3C366.5 300.1 361.6 301.6 355.4 302.3C351 302.8 349.9 300.5 349.21 297C348.7 294.5 347.9 292 347 288.8C350.4 284.3 349.7 278.7 343.3 274.2C344.1 277.8 344.6 280.67 345.2 283.6C344.8 283.8 344.3 284 343.9 284.3C343 282.9 342 281.5 341.21 280C340.8 279.2 340.73 277.7 340.2 277.5C335.3 276.2 337.5 274.25 339.5 272.11C341.4 270.1 342.1 267.9 339.1 266.46C332.8 263.5 318.2 268.5 315.5 274.89C314.6 276.8 314.7 280.6 316 281.6C321.6 286.08 321.1 291 318.4 296.7C317.3 299 316.9 301.7 316.2 304.26C315.4 307.2 314.1 309.22 310.58 309.6C306.3 310 302.1 311.3 297.84 311.8C296.8 311.9 294.7 310.46 294.6 309.5C293.6 300.9 287.3 293.6 288.7 284.2C289.01 281.9 287.3 279.2 288.9 276.5C289.4 275.7 288.3 274 287.8 272.8C284.5 264.8 277.3 264.6 270.3 264.4C258.1 264.1 254 269.4 257.6 280.8C258.9 285 260.8 289 262.4 293.1C261.3 294.2 260.2 295.3 258.6 296.6C257.8 297.7 257.6 298.4 257.4 299.2C256.5 301.8 255.7 304.5 254.3 307.6C253.7 308.8 253.7 309.6 253.6 310.4C253.5 310.8 253.5 311.2 253 311.9C252.4 312.8 252.3 313.4 252.23 313.95C248.6 314.4 245 314.9 240.6 315.11C238.2 315 236.7 315.1 235.19 315.2C234.6 313.7 233.9 312.3 233.7 310.3C234.1 309.1 234.1 308.4 234 307.8C234 307.5 233.93 307.2 234.2 306.3C233.99 305.2 233.55 304.5 233.1 303.8C231.7 301.7 230.3 299.6 228.7 296.8C227.7 295.1 226.8 294 225.9 292.8C225.7 292.49 225.5 292.1 225.4 291.2C225.2 290.1 224.9 289.6 224.5 289.1C224.4 286 224.3 282.9 224.69 279.2C224.3 274.5 223.7 270.2 222.3 266.2C219.8 258.7 215 256.8 207.3 259.9C206.7 260 205.97 260.2 204.66 260.1C203.38 260.4 202.7 260.8 202.1 261.2C200.8 262.2 199.5 263.3 197.6 264.7C196.7 267 196.5 269 196.3 271.1C196.5 272.6 196.77 274.1 197 276.2C197.5 277.4 198 277.8 198.5 278.3C198.6 278.5 198.7 278.6 199 279.4C200.1 280.7 201.1 281.5 202.1 282.2C202.9 283.6 203.7 285 204 286.9C203.6 288.1 203.6 288.8 203.7 289.4C203.6 289.8 203.5 290.2 202.9 291C202.5 292 202.5 292.65 202.5 293.3C202.5 293.7 202.44 294.11 202 295C200.6 299.4 199.6 303.4 198.6 307.39C198.6 307.8 198.5 308.16 198.1 308.97C197.5 310.5 197.31 311.7 197.1 312.8C197.1 312.8 197.2 312.9 196.8 312.8C195.03 312.9 193.6 313.1 192.2 313.2C191.8 313.2 191.3 313.16 190.4 312.7C188.3 312 186.7 311.7 185.03 311.4C184.3 311.3 183.7 311.2 182.5 310.7C181 310.2 180.1 310.2 179.2 310.2C178.8 310.1 178.4 310.1 177.5 309.7C176.6 309.5 176 309.54 175.4 309.6C174.2 309.5 173.1 309.3 171.5 308.6C169.1 307.8 167.1 307.5 165.2 307.2C163.4 306.3 161.5 305.5 159.6 304C159.4 302.7 159.2 301.92 158.9 301.2C158.9 300.7 158.8 300.2 159.1 299.2C159.1 298.2 158.8 297.7 158.6 297.1C158.43 296.4 158.3 295.7 158.3 294.37C158.03 293.1 157.6 292.5 157.1 291.82C156 290.12 154.8 288.4 153.6 286.1C153 284.9 152.5 284.4 151.9 283.8C151.9 283.8 151.5 283.5 151.5 283C151 281.9 150.4 281.4 149.8 280.9C147.7 277.9 145.5 274.9 143.4 271.3C142.7 269.1 142.1 267.6 141.5 266.1C141.2 264.4 140.8 262.6 140.5 260.3C140.1 259 139.7 258.4 139.24 257.8C138.4 256.4 137.5 255.1 136.6 253C135.8 251.6 135.1 250.8 134.37 250.1C134.1 250 133.8 249.82 133.4 249.1C132.26 248.8 131.3 249 130.3 249.1C130 249.25 129.6 249.4 128.7 249.32C127.5 249.39 126.9 249.6 126.3 249.9C125.92 250 125.5 250.1 124.4 250C121.6 250.2 119.4 250.7 117.14 250.9C116.3 251.1 115.7 251.5 114.8 252C114.5 252.4 114.26 252.7 114.1 253.1C113.2 253.6 112.4 254.1 111 254.6C109.9 255.2 109.5 255.8 109 256.3C106.4 258.3 107.1 260.5 109 263.2C109.6 264.3 110.2 264.8 110.7 265.3C112.1 267.1 113.5 268.9 114.98 271.2C115.6 272.3 116.2 272.8 116.7 273.3C116.94 273.7 117.2 274 117.3 275C117.6 276.78 117.9 277.9 118.3 279.1C118.3 279.8 118.4 280.6 118 282C117.6 284.2 117.6 285.8 117.6 287.4C117.3 288.2 117.1 288.9 116.2 289.8C113.1 289.3 110.7 288.7 108.2 288.2C107.39 287.6 106.6 287 105.7 285.9C105.2 284.8 104.7 284.3 104.3 283.8C104 282.5 103.6 281.2 103.5 279.4C103.3 278.3 102.9 277.6 102.4 277C102.4 277 102.3 277.1 102.3 276.8C99.5 270.8 96.7 265.1 94.1 259.4C93.3 257.8 92.5 255.8 92.7 254.1C93.5 247.4 91.8 243.2 85.6 240.8C81.5 239.3 76.9 239.02 71.9 238.1C74.6 236.9 76.9 235.9 80.2 234.5C77.8 232.42 76 230.9 74.2 229.3C74.2 229.3 73.8 229.2 73.4 228.8C70.8 228 68.5 227.6 66.2 227.3C65.8 226.9 65.4 226.5 64.9 225.7C64.6 224.5 64.4 223.78 64.3 223.1C64.3 223.1 64.6 222.9 65.1 222.9C66.1 222.63 66.7 222.4 67.6 222.2C68.6 222.7 69.4 223 70.3 223.7C72.5 224.9 74.5 225.9 76.7 227C78.8 222.4 75.9 220.1 73.4 218.6C69.8 216.4 65.7 215.2 61.7 213.2C61.5 212.35 61.4 211.8 61.3 211.2C61.8 211.1 62.2 211 63.1 211.3C65.3 212 67.2 212.3 69 212.52C68.5 210 68 207.5 67.6 205.63C68.5 203.9 69.3 202.4 70.1 200.87C70.1 200.3 70 199.7 70.2 198.3C70.2 196.3 70.2 195 70.1 193.7C70.6 193.09 71.1 192.5 72.2 191.6C72.9 190.7 73.2 189.98 73.5 189.3C73.5 189.1 73.6 188.98 74.2 188.6C75.2 187.3 75.8 186.3 76.4 185.3C77.3 184.4 78.1 183.5 79.5 182.5C80.5 182.24 80.8 182.1 81.6 182C83.4 182.2 84.8 182.3 86.6 182.4C89.1 178.2 91.2 174.2 93.4 170.2C93.8 169.43 94.3 168.69 95.2 167.6C95.9 166.6 96.1 165.9 96.4 165.2C97.3 163.7 98.3 162.24 99.8 160.6C100.8 159.9 101.2 159.26 101.6 158.7C101.9 158.5 102.3 158.2 103.2 158.1C105.1 157.6 106.3 156.9 107.9 156.2C111.1 158.4 113.9 157.5 116.8 156.4C118.6 155.7 120.7 155.7 122.5 154.9C124.9 153.9 127.1 152.5 129.7 151C130.5 150 131.2 149.1 132.1 148.2C133.4 147.15 134.3 146.1 135.3 144.75C135.5 144.1 135.6 143.7 135.8 143.3C136 143.23 136.3 143.1 136.7 143C137.4 141.9 137.8 140.9 138.2 139.6C138.5 138.9 138.6 138.5 138.8 138C138.9 137.9 139 137.8 139.7 137.5C140.6 137.3 140.9 137.2 141.6 137.2C146 138 149.9 138.2 150 132.4C151.36 133.1 152.4 133.6 153.5 134.17C153.6 133.2 153.64 132.2 153.6 131.7C155.1 135.5 156.7 132.7 158.6 132.05C160.79 130.7 162.6 129.5 164.6 127.9C166.2 126.1 167.6 124.4 168.96 122.8C169.3 122.4 169.7 122.1 170.6 121.59C171.9 121.4 172.6 121.2 173.7 121.1C175.3 121 176.5 120.9 177.9 120.7C178.8 120.4 179.4 120 180.3 119.8C181.8 121.2 182.8 122.5 184 123.9C185.1 122.94 185.9 122.2 186.7 121.5C187.5 123 188.09 124.4 188.7 125.7C191.2 123.9 193.2 122.4 195.3 121C193.5 123.8 191.6 126.7 189.2 129.7C188.2 129.8 187.8 129.9 187.1 129.8C186.4 130.1 185.8 130.6 185 131.3C184.2 133.3 183.6 135.1 182.8 137.2C182.63 138.1 182.63 138.7 182.4 139.6C182.3 141 182.3 142 182.3 143.1C182.3 143.1 182.2 143.1 181.9 143C181.5 143.7 181.4 144.4 181.3 145.44C181.2 146.5 181.2 147.2 181.2 147.9C181.2 148.3 181.1 148.6 180.4 149C179.7 149.7 179.5 150.4 179.2 151.5C179.2 152.3 179.4 152.8 179.5 153.2C179.42 153.7 179.36 154.1 178.9 155C178.2 157.8 177.8 160 177.5 162.3C177.5 162.68 177.4 163.1 177 163.7C176.5 164.7 176.4 165.4 176.3 166.5C176.3 170.7 176.3 174.39 176.1 178.3C176.3 179.4 176.7 180.3 177.2 181.1C177.3 182.4 177.4 183.8 177.4 185.9C178.9 193.8 179.3 201.5 182.4 207.9C192.8 230 209.7 246 232.6 254.7C240.2 257.6 249 257.3 257.3 258.54C257.7 258.5 258.2 258.5 259.3 258.8C268.4 258 277.1 258 285 255.6C302.7 250.1 318.5 241.1 330.84 226.8C339.5 216.8 345.6 205.5 348.8 192.7C349.7 189.3 350.66 185.4 347.3 183.8C348 180.5 348.7 177.9 349.2 175.2C349.5 173.3 349.6 171.3 349.7 169.3C350 165.6 351 161.7 350.1 158.3C348.6 152.4 346.6 146.4 343.7 141.1C340.7 135.9 336.3 131.7 332.5 127C332.5 127 332.4 127 332.5 126.6C331.9 125.5 331.2 124.7 330.5 124C329.7 123.1 328.8 122.15 327.6 120.7C327 120.2 326.63 120.2 326.3 120.1C325.4 118.8 324.5 117.4 324.25 116.1C325.4 115.9 325.9 115.65 326.4 115.4Z" fill="#FCFCFA"/><path d="M262.7 293.2C260.8 289 258.9 285 257.6 280.8C254 269.4 258.1 264.1 270.3 264.4C277.3 264.6 284.5 264.8 287.8 272.8C288.3 274 289.4 275.7 288.9 276.5C287.3 279.2 289.01 281.9 288.7 284.2C287.3 293.6 293.6 300.9 294.6 309.5C294.7 310.46 296.8 311.9 297.84 311.8C302.1 311.3 306.3 310 310.6 309.6C314.1 309.22 315.4 307.2 316.2 304.26C316.9 301.7 317.3 299 318.4 296.7C321.1 291 321.6 286.08 316 281.6C314.7 280.6 314.6 276.8 315.5 274.89C318.2 268.5 332.8 263.5 339.1 266.46C342.1 267.9 341.4 270.1 339.5 272.11C337.5 274.25 335.3 276.2 340.2 277.5C340.73 277.7 340.8 279.2 341.21 280C342 281.5 343 282.9 343.9 284.3C344.3 284 344.8 283.8 345.2 283.6C344.6 280.67 344.1 277.8 343.3 274.2C349.7 278.7 350.4 284.3 347 288.8C347.9 292 348.7 294.5 349.21 297C349.9 300.5 351 302.8 355.4 302.3C361.6 301.6 366.5 300.1 369.3 293.3C372.7 285.4 378 278.4 381.9 270.7C383.3 268 383.2 264.3 383.2 261C383.2 255 386.2 250.7 390.8 247.8C399.4 242.3 407.9 246.9 408.91 257.3C409.2 260.3 408.8 263.3 409.3 266.3C409.6 268.5 410.4 270.9 411.8 272.6C414.3 275.66 416.9 274.84 418.3 271.07C419.5 268 421 265.1 422.7 262C421.69 266.1 420.5 270.4 418.8 274.4C418.3 275.4 415.7 276.3 414.4 275.9C409.8 274.6 407.6 271 407.3 266.3C407 263 407.4 259.7 406.8 256.4C406.5 254.2 405.1 252.05 403.73 250C403.3 250.1 403.4 250.1 403.4 249.7C402.7 249.2 402 249.1 401.3 249.1C401.3 249.1 401.35 249.09 401.35 249.09C397.6 245 393.8 247.9 390.9 249.8C386.9 252.3 384.3 256.3 384.7 261.5C385.1 266.87 383.7 271.3 380.5 275.9C376.2 282.1 373.2 289.3 369.6 296C367 300.9 357.8 305.6 352.55 304.4C348.5 303.4 347.8 299.8 347.35 296.3C347.16 294.9 346.4 293.6 345.8 292.3C345.5 291.7 344.4 291.19 344.4 290.9C346.23 285.8 341.2 284.6 339.1 281.7C335.9 277.4 333.8 273.4 339.6 269.6C332.5 265 318.6 269.4 316.3 276.7C315.9 278 316.7 280.4 317.7 281.2C322.7 285.2 323.7 289.8 320.6 295.3C320.4 295.5 320.4 295.9 320.3 296.21C314.8 311.9 314.8 311.8 298.3 313.6C295.1 313.9 293.3 313.3 292.7 309.72C292.3 306.5 291.3 303.2 290.2 300.09C289.2 297.2 288.6 294 284.5 293.4C283.36 293.19 282.3 291 281.7 289.6C280.6 287.2 279.8 284.6 278.7 281.7C279.1 281.43 280.2 280.8 281.6 279.9C276.6 275.4 276.7 272 285.3 270.8C282.7 269.1 281.1 267.3 279.5 267.2C274.1 266.8 268.6 266.3 263.3 267.1C258.54 267.9 256.8 271.53 258.2 276.2C259.6 280.6 261.81 284.68 263.3 289.01C263.8 290.2 263.1 291.8 262.7 293.2ZM283.3 275.6C282.7 275 282 274.5 281.3 274C281.1 274.5 280.8 274.97 280.5 275.5C281.4 275.8 282.37 276.1 283.3 275.6ZM285.3 279.4C284.7 279.1 284.2 278.8 283.6 278.4C283.6 279 283.5 279.6 283.4 280.2C284 280.2 284.5 280.1 285.3 279.4Z" fill="#A1A1A0"/><path d="M332.6 127.31C336.3 131.7 340.7 135.9 343.7 141.1C346.6 146.4 348.6 152.4 350.1 158.3C351 161.7 350 165.6 349.7 169.3C349.6 171.3 349.5 173.3 349.2 175.2C348.7 177.9 348 180.5 347.3 183.8C350.66 185.4 349.7 189.3 348.8 192.7C345.6 205.5 339.5 216.8 330.84 226.8C318.5 241.1 302.7 250.1 285 255.6C277.1 258 268.4 258 259.7 258.8C267.2 257.25 275.3 256.8 282.8 254.5C312.7 245.4 335.3 227.9 345.8 197.3C346.7 194.7 347.1 191.8 347.7 189.1C347.75 188.8 347.9 188.3 347.8 188.1C345 184.8 344 182.1 347.3 177.8C349.6 174.8 349.9 169.6 349.6 165.6C349.2 160.4 348.1 154.9 345.8 150.3C342 142.5 337.08 135.2 332.6 127.31Z" fill="#959595"/><path d="M278.9 140.9C278.9 140.9 278.5 140.7 278.66 140.2C278.4 138.8 278 137.8 277.5 136.9C277.6 135.4 277.7 133.9 278.3 132.3C281.9 132.4 284.79 132.6 288.1 132.9C288.2 131.6 288.3 130.3 288.8 129.1C292.1 128.8 292.4 134.8 296.4 132.4C298.1 134.9 302.5 134.8 301 139.1C299 138.4 297.45 137.9 295.9 137.3C295.6 137.6 295.3 138 295.1 138.4C295.9 139.3 296.74 140.3 297.6 141.3C300.9 144.8 304.1 148.39 307 152C305.9 152.1 305.1 152.1 304.1 151.9C301.1 149.9 298.4 148.2 295.6 146.4C295.3 146.8 295 147.3 294.62 147.8C295.52 149.5 296.42 151.3 297.3 153.1C297.3 153.1 297.3 153.1 297 153.1C294.7 151.8 292.91 150.5 291.1 149.2C287 146.4 282.9 143.6 278.9 140.9Z" fill="#656564"/><path d="M206.4 181.1C205.4 179.7 204.4 178.2 203.2 176.4C204.6 175.6 205.9 174.9 207.4 174C206.8 172.6 206.2 171.2 205.6 169.6C207.2 169.6 208.5 169.6 210.4 169.6C210.4 167.04 210.1 164.7 210.4 162.4C210.64 161.1 212.1 158.6 212.3 158.67C214.6 159.4 216.9 160.5 218.88 161.8C219.1 162 217.6 164.7 216.4 167.4C214.9 164.4 214.2 162.99 213.5 161.6C213.3 161.6 213 161.6 212.8 161.6C212.8 162.8 212.7 163.9 212.8 165C212.88 167.32 213.9 170.1 213 171.8C211.1 175.5 212.1 177.6 214.7 180.4C216 181.8 215.1 185.1 215.27 187.6C223.5 183.2 220.19 192.1 223.3 194.3C212.8 197 210.84 196.2 210.59 188.4C211.4 186.9 212.6 185.3 212.49 185.2C210.5 183.7 208.45 182.4 206.4 181.1Z" fill="#1A1A1A"/><path d="M257 258.3C249 257.3 240.2 257.6 232.6 254.7C209.7 246 192.8 230 182.4 207.9C179.3 201.5 178.9 193.8 177.4 186.3C179 191.3 179.8 196.9 181.9 202C194.6 231.9 215.8 251.6 248.8 256.8C251.4 257.2 254.1 257.6 257 258.3Z" fill="#959595"/><path d="M511.6 243.1C511.3 249.1 518.2 253.8 514.5 259.8C513.7 261.1 510.95 262.5 509.6 262.1C500.6 259.39 498.1 250.5 504.1 243.3C506.3 240.5 508.7 239.5 511.6 243.1ZM506.29 257.6C511.6 260.2 508.9 252.6 512.4 252.9C509.6 253.4 506 252.6 506.29 257.6Z" fill="#CFCFCE"/><path d="M441.3 237.7C445.2 235.3 444.1 231.3 443.5 228C442.1 220.2 444.4 213.3 447.3 206.3C448.8 202.63 449.1 198.4 450.4 194.6C451.2 192.2 452.9 190 454 187.6C455.1 185.5 455.4 183.57 452.7 182.3C452.1 182 451.7 181 451.3 180.3C449.5 177.09 447.7 173.9 445.9 170.7C445.3 170.78 444.7 170.9 444.1 171C443.3 172.5 442.5 174.1 441.7 175.77C440.1 173.6 438.21 171.2 436.4 168.3C437.9 169 439.2 170.1 440.6 171.1C441 170.9 441.4 170.7 441.8 170.53C440.8 168.4 439.8 166.3 438.8 164.1C439.1 163.8 439.5 163.5 439.8 163.2C441.4 164.5 443.1 165.8 444.6 167.3C446.8 169.4 449 171.6 451.1 173.9C452 175 452.5 176.4 453 177.7C453.3 178.6 453 180.1 453.5 180.5C459.8 184.4 455.3 189.2 454.22 193.1C452.5 199.4 449.8 205.6 446.9 211.5C443.8 218 444.49 224.6 445.7 230.9C446.4 235.2 445 236.7 441.3 237.7Z" fill="#656564"/><path d="M129.4 151.18C127.1 152.45 124.9 153.9 122.5 154.9C120.68 155.7 118.6 155.7 116.8 156.4C113.9 157.5 111.1 158.4 107.9 155.8C107.3 155.3 107.3 155.1 107.2 154.9C107.3 154.6 107.4 154.3 108.2 154.1C109.3 153.6 109.9 153.2 110.5 152.7C110.8 152.4 111.1 152.1 112 151.4C113.1 149.7 113.7 148.4 114.3 147.09C115.6 146.07 117 145.05 118.6 144.5C118.4 146.1 117.9 147.2 117.2 148.3C116.9 148.37 116.9 148.5 116.8 148.58C117 148.7 117.2 148.9 117.4 149.26C117.5 149.7 117.5 149.84 117.3 150.3C116.5 151.8 115.9 153.1 115.3 154.3C115.8 154.5 116.3 154.8 116.9 155.1C117.7 153.4 118.5 151.7 119.5 149.8C120.3 147.4 120.9 145.33 121.5 143.3C121.5 143.3 121.4 143.2 121.8 143.2C123.3 142.4 124.45 141.7 125.6 140.9C126.3 140.7 126.92 140.4 128.2 140.2C129.3 139.9 129.8 139.6 130.3 139.2C131.4 139.03 132.42 138.8 133.8 138.7C134.1 138.8 134.3 139.1 134.3 139.5C134 140.9 133.7 141.9 133.4 143.3C134 144.1 134.6 144.57 135.22 145C134.3 146.1 133.4 147.15 131.9 148C130.1 148.3 129 148.9 127.8 149.4C128.4 150 128.9 150.6 129.4 151.18Z" fill="#CFCFCE"/><path d="M430.6 31.4C431 25.4 432 24.7 437.1 26.7C437.5 26.9 438.11 27.2 438.5 27C446.3 24.4 447.5 30.7 449.2 34.1C455.2 34.6 460.6 35 465.9 35.4C466 35.9 466 36.4 466.1 37C464.5 37.9 463 38.9 461.1 40C461.8 41.2 462.8 42.1 462.8 43C462.8 44 461.96 45.1 461.2 45.8C460.91 46 459.2 45.5 459.12 45.1C457.5 39 451.5 39.3 447.4 37.1C445.8 36.3 443.9 36.4 441.68 35.7C439.6 31.8 438.7 26.91 433 31.1C432.4 31.5 431.4 31.3 430.6 31.4Z" fill="#292928"/><path d="M433.2 163.1C425.9 164.2 432.8 167.9 432 170.2C427.1 171.33 425.5 168.4 424 156C419.1 157.1 412.8 152 411.46 145.4C411.6 144.8 411.8 144.6 412.1 144.6C413.4 144.1 414.45 143.5 415.5 142.9C416 143.4 416.6 144 417.3 145.1C419.1 146.5 420.8 147.2 422.5 147.9C423 148.5 423.5 149 424.2 150.2C425.7 152.5 423.7 157.1 428.6 155.7C430 157.3 431.5 159 433.1 161.2C433.2 162.2 433.2 162.7 433.2 163.1Z" fill="#B6B6B6"/><path d="M476.6 270.9C476.3 272.3 476 273.6 475.43 275.8C477.5 275.4 478.9 275.1 480.6 274.7C483.3 278.3 483.3 282.4 481 285.64C480.1 286.91 476 286.8 473.9 286C472.6 285.6 472.07 282.7 472.3 280.4C469.3 277.4 466.25 274.5 463.5 271.28C462.9 270.6 463.4 269.1 463.7 268.2C464.9 269.6 465.4 271 466.37 271.9C470.1 275.2 473.3 271.9 476.6 270.9ZM477.1 282.8C477.7 282.7 478.3 282.5 478.9 282.3C478.7 282 478.5 281.6 478.3 281.2C477.8 281.6 477.2 282 477.1 282.8ZM474.5 283.6C474.7 283.7 474.9 283.8 475.1 283.9C475 283.7 475 283.5 474.5 283.6Z" fill="#959595"/><path d="M299.3 120.1C307.9 122.45 315 130.6 315 138.5C310.26 133.2 303.49 132.8 297.3 130.7C296.6 128.9 296 127.5 295.6 125.9C295.98 123.8 296.09 122.01 296.2 120.1C297.1 120.1 298.2 120.1 299.3 120.1Z" fill="#565656"/><path d="M74.3 229.7C76 230.9 77.8 232.42 80.2 234.5C76.87 235.9 74.6 236.9 71.9 238.1C76.9 239.02 81.5 239.3 85.6 240.8C91.8 243.2 93.5 247.4 92.7 254.1C92.5 255.8 93.3 257.8 94.1 259.4C96.7 265.1 99.5 270.8 102.2 276.8C101 275.5 99.7 273.9 98.7 272.1C97.2 269.2 96.3 265.8 94.4 263.2C91.5 259.1 90.1 255 90.4 249.9C90.5 248.3 88.4 246.6 86.8 245C86.4 245.1 86.4 245.1 86.4 245.1C85.4 241.6 80.9 239.5 76.1 240.3C73.7 240.6 71.4 241 69 241.3C68.7 240.69 68.4 240.1 68.1 239.4C70.6 237.5 73.2 235.6 76.1 233.4C75.6 232.6 75 231.3 74.3 229.7Z" fill="#4A4A4A"/><path d="M453 223.7C455.7 220.1 459.16 221.1 461.8 222.5C463.1 223.1 463 226.2 463.6 228.2C464.1 229.9 464.8 231.5 465.6 234.01C461.56 234.01 457.5 234.01 453.5 234.01C453.7 232.2 453.9 230.5 454.2 227.6C454.03 227.2 453.5 225.6 453 223.7ZM457.6 229.6C458.2 229.1 458.8 228.6 459.4 228.1C459 227.6 458.7 227.2 458.3 226.8C457.8 227.5 457.3 228.1 457.6 229.6Z" fill="#A1A1A0"/><path d="M47.2 279C46.8 279.9 46.4 280.8 45.9 281.9C46.6 282.3 47.6 282.5 48 283.1C48.6 284.08 49.3 285.5 49 286.4C48.7 287.4 47.3 288.6 46.3 288.7C45.3 288.8 44.2 287.6 43.27 286.8C41.9 285.6 40.7 284.2 39.5 282.9C37.9 281.3 36.3 279.6 34.7 278C35 277.65 35.2 277.3 35.5 277C34.1 276.6 32.7 276.2 31.4 275.9C30.5 267.7 34.6 263.5 40.8 265.8C34.9 266.2 32.7 268.5 32.7 273.9C34.5 273.2 36.4 272.5 38.3 271.7C38.7 271.9 39.1 272 39.6 272.2C33.4 278.38 41.7 278.4 42 281.5C44 280.5 45.6 279.79 47.2 279Z" fill="#A1A1A0"/><path d="M445.3 66.2C444.9 66.1 444.4 66.1 443.5 65.9C442.4 65.7 441.8 65.6 441.2 65.6C440.46 65.1 439.7 64.6 439 63.6C439.9 62.1 440.7 61.2 442.2 59.6C439.3 59.8 437.8 60 436.23 60.1C436.23 60.1 436 59.8 436.1 59.2C436.4 55.3 436.7 52 436.9 48.7C437.9 47.6 438.8 46.4 440.3 45.2C442.96 46.29 445 47.4 447.1 48.5C447.1 48.9 447.2 49.2 447.3 50.1C448.2 52.7 449.5 54.8 446.1 56.1C444.9 54.7 444 53.4 442.7 51.2C441.9 51.3 440.1 51.6 437.1 52.1C439.5 53.7 441.5 54.6 441.4 55.2C440.94 58.7 443.4 57.9 445.3 58.4C445.9 59.2 446.4 59.8 447 60.4C447 60.4 447.1 60.5 447.1 60.9C450.1 64.1 446.72 64.8 445.3 66.2Z" fill="#B6B6B6"/><path d="M91.3 302.9C94.7 304.9 99.5 305.4 98.9 311.2C98.8 312.4 100.7 313.7 101.6 315C102.5 316.2 103.3 317.6 104.1 318.9C103.6 319.2 103.2 319.6 102.7 320C101.3 318.4 100.1 316.3 98.4 315.3C96.3 314 92.6 312.1 91.6 312.9C86.5 317.2 85.3 313 83.7 309.4C85.6 308.7 87.3 308.7 88.9 308.2C91.3 307.3 93.3 306 91.3 302.9Z" fill="#7A7A7A"/><path d="M195.4 120.6C193.2 122.4 191.2 123.9 188.7 125.7C188.1 124.4 187.5 123 186.7 121.5C185.9 122.2 185.1 122.94 184 123.9C182.85 122.5 181.8 121.2 180.4 119.54C180.2 118.8 180.2 118.4 180.3 118.1C180.8 117.5 181.3 116.9 182.4 116.1C184.46 115.4 185.9 114.8 187.4 114.2C187.4 114.2 187.3 114.1 187.7 114.1C188.7 114 189.5 113.9 190.27 113.8C192.7 112.7 195.2 111.6 198 111.1C198.4 112.7 198.5 113.6 198.6 114.5C197.6 116.5 196.6 118.4 195.4 120.6Z" fill="#B6B6B6"/><path d="M492.7 131.9C498.93 134.2 499 134.6 496 140C495.4 141.13 495.24 142.5 494.8 143.9C491.6 144.1 488.3 145 487 140.8C485.4 135.8 489.2 134.1 492.7 131.9Z" fill="#B6B6B6"/><path d="M494.6 96.4C495.8 93.9 496.9 91.8 497.8 90C501 92.5 503.6 94.5 505.3 95.9C503.75 99.9 502.64 102.7 501.5 105.7C497.9 105.4 495.1 101.97 494.6 96.4Z" fill="#959595"/><path d="M297.4 131C303.49 132.8 310.3 133.2 315 138.94C315.4 139.8 315.4 140.6 315.1 142C314.7 143.5 314.7 144.5 314.7 145.5C313.8 146.1 313 146.79 311.8 147.1C309.4 142.5 305.9 140 301.3 139.08C301.3 139.1 301.3 139.1 301.3 139.1C302.5 134.8 298.1 134.9 296.4 132.2C296.35 131.4 296.35 131.3 296.6 131.1C297 131.1 297.2 131 297.4 131Z" fill="#7A7A7A"/><path d="M393.3 36.4C392.9 38.8 392.5 40.9 392.1 43C383.6 40.6 383.1 34.7 390.1 25.4C387.7 28.2 387.3 30.5 391 32.5C392.1 33.1 392.5 34.9 393.3 36.4Z" fill="#CFCFCE"/><path d="M15.7 121C14.7 120.8 14 120.7 13.5 120.3C11.9 119.3 10.5 118.2 9 117.1C9.9 115.8 10.7 114 12 113.5C13.8 112.83 16.6 112.4 17.8 113.3C20.5 115.4 22.4 118.4 24.6 121.1C21.5 121.1 18.8 121.1 15.7 121Z" fill="#CFCFCE"/><path d="M86 245C86.4 245.1 86.4 245.1 86.4 245.1C88.4 250.1 86 256.6 81.1 258.3C79.6 258.9 77.6 258.37 75.9 258.1C75.5 258 75.4 256.7 75.1 256C76.5 255.5 78 255 79.4 254.5C80.2 254.2 81 254.1 83.4 253.4C80.8 252.2 79.4 251.8 78.3 250.99C76.9 249.9 75.8 248.5 74.6 247.2C76 246 77.3 244.1 78.9 243.9C81 243.5 83.4 244.5 86 245ZM80.8 245C79.2 245.7 77.5 246.4 75.9 247.1C78.5 249.3 80.6 250.2 82.9 250.8C83.8 251 85.49 250.7 85.9 250.1C86.3 249.4 86 247.71 85.3 247.1C84.4 246.1 82.9 245.7 80.8 245Z" fill="#A1A1A0"/><path d="M167.6 322.2C165.7 321.4 163.5 320 162.3 320.6C158.4 322.48 157.97 319.8 157.33 317.5C156.64 314.9 155.8 311.71 159.4 310.8C162.4 310.1 164.7 311.8 165.6 315C166.6 318.5 167.8 321.8 169.9 325.1C169.2 324.2 168.55 323.3 167.6 322.2Z" fill="#B6B6B6"/><path d="M485.4 208.1C484.6 209.2 483.8 210.4 482.9 211.7C478.9 211.1 477.7 207.8 476.7 204.3C481.5 202.6 486 201.4 490.3 199.99C490.9 199.8 491.1 198.7 491.5 198C492.7 200.1 493.97 202.2 494.9 204.7C491.5 206 488.4 207.1 485.4 208.1Z" fill="#292928"/><path d="M47.4 278.8C45.6 279.79 44 280.5 42 281.5C41.7 278.4 33.4 278.4 39.6 272.2C39.1 272 38.7 271.9 38.3 271.7C36.4 272.5 34.5 273.2 32.7 273.9C32.7 268.5 34.9 266.2 40.9 266.1C41.3 266.1 41.3 266.1 41.3 266.4C43.4 270.6 45.4 274.3 47.47 278.1C47.5 278.3 47.5 278.5 47.4 278.8Z" fill="#D9D9D9"/><path d="M14 153.03C20.1 153.6 21.1 155.2 19.3 160.3C18.8 161.6 19.3 163.4 19.3 166.2C17.3 165.3 15.8 164.5 14.3 163.9C12.6 163.3 10.9 162.7 8.8 161.8C8.1 159.6 7.7 157.8 7.6 157.3C10.2 155.56 12.1 154.3 14 153.03ZM13.1 158.3C13.8 158.4 14.5 158.4 15.2 158.5C15.2 158 15.2 157.63 15.2 157.2C14.5 157.3 13.9 157.4 13.1 158.3Z" fill="#7A7A7A"/><path d="M221.91 327.7C222.1 323.1 225.2 322.7 227.8 324.1C230.9 325.8 233.4 328.7 235.7 331.7C230.3 332.78 225.4 333.1 221.91 327.7Z" fill="#B6B6B6"/><path d="M207.6 260.1C215 256.8 219.8 258.7 222.3 266.2C223.7 270.2 224.3 274.5 224.9 278.9C224.18 278.3 223.9 277.6 223.9 277.7C221.8 277.7 220.1 277.7 218.8 277.4C225.6 274.3 220 270.4 219.5 267.4C219 264.8 216.3 261.3 212.1 264.15C212.3 263.13 212.46 262.1 212.7 260.7C211 260.6 209.44 260.5 207.6 260.1Z" fill="#A1A1A0"/><path d="M387.6 130.6C387.43 130.4 387.2 130.2 386.7 129.7C387.4 127.2 388.3 125.2 389.25 123.2C390.3 124.5 391.3 125.9 392.2 127.1C392.4 126.2 392.7 124.8 393.4 122.4C395.56 124.1 397.2 125.33 399 127.2C399.9 129.6 400.6 131.3 401 133.2C400.6 134 400.3 134.5 399.8 135.3C399.1 136.8 398.7 138.2 398.2 139.51C397.5 138.3 396.86 137 396.1 135.13C395.9 133.1 395.7 131.7 395.5 130.3C394.7 130.4 393.9 130.6 393.1 130.8C393.1 130.8 393.3 130.9 392.8 130.9C390.8 130.8 389.18 130.7 387.6 130.6Z" fill="#656564"/><path d="M476.8 270.6C473.3 271.9 470.1 275.2 466.37 271.9C465.4 271 464.9 269.6 464 268.1C465.5 264.7 467.8 262.6 471.4 263.8C474.4 264.8 477.45 266.1 476.8 270.6Z" fill="#D9D9D9"/><path d="M387.3 122.6C382.6 121.5 376.51 124 372.4 118.1C369.2 116.3 366.3 115.16 363.5 114C361.3 114.2 359 114.4 356.5 114.2C356.5 112.4 356.9 111.1 357.2 109.7C359.6 113.33 363.9 112.1 367 113.7C369.26 114.8 371.7 115.5 374.2 116.4C374.9 116 376.1 115.4 377.3 114.8C377.97 116.5 378.7 118.26 379.4 120.1C381.8 120.8 384.51 121.5 387.3 122.6Z" fill="#959595"/><path d="M296.4 131.1C296.4 131.3 296.35 131.4 296.3 131.8C292.4 134.78 292.1 128.8 288.4 128.9C285.9 127.9 284 126.9 282.2 126C283.2 125 284.3 124 286 123.2C287.8 124.3 289 125.4 290.12 126.4C290.51 126.2 290.9 125.9 291.3 125.6C290.3 124.3 289.3 123.1 288.3 121.9C290.4 120.9 292.5 119.6 294.8 118.9C296.1 118.6 297.7 119.2 299.2 119.7C298.2 120.1 297.08 120.1 296.2 120.1C296.09 122.01 295.98 123.85 295.3 125.9C290.1 129.45 295.78 129.4 296.4 131.1Z" fill="#4A4A4A"/><path d="M485.5 208.45C488.4 207.1 491.5 206.04 494.9 205C498.4 209.3 496.06 212.77 493.8 217.4C492.4 213.4 490.5 213.3 488.6 215.5C485 214.1 491.5 209.1 485.5 208.45ZM492.8 209.3C492.7 209.3 492.6 209.4 492.5 209.5C492.6 209.56 492.6 209.7 492.7 209.71C492.8 209.7 492.9 209.6 492.8 209.3Z" fill="#565656"/><path d="M288.3 5.3C287.4 1.8 289.4 -0.1 292 0C293.4 0.1 294.7 2.8 295.8 4.4C296.1 5 296 6 295.9 6.8C295.7 8.2 295.2 9.5 294.9 10.8C293.5 10.2 291.9 9.8 290.7 8.9C289.7 8.2 289.2 6.8 288.3 5.3Z" fill="#CFCFCE"/><path d="M69.8 201C69.3 202.4 68.5 203.9 67.6 205.63C68 207.5 68.5 210 69 212.5C67.2 212.3 65.3 212 63.4 211.4C64.6 210.9 65.9 210.7 67.5 210.5C66.3 204.9 56.4 208.5 57.3 200C61.4 203.5 65.3 204.2 69.8 201Z" fill="#959595"/><path d="M278.8 141.3C282.9 143.6 287 146.4 291.1 149.2C292.9 150.5 294.7 151.8 297 153.5C297.3 154.6 297.3 155.3 296.9 156.1C296 156.2 295.44 156.3 294.9 156.5C290.5 153.7 285.8 151.2 281.8 148C280.1 146.7 279.6 143.9 278.8 141.3Z" fill="#7A7A7A"/><path d="M399.3 250C399.92 249.9 400.5 249.8 401.2 249.4C401.4 249.09 401.3 249.1 401.2 249.5C401.9 250 402.6 250.1 403.4 250.1C403.4 250.1 403.3 250.1 403.32 250.1C403 253.24 402.9 256.5 402.39 259.6C402.2 261 401.1 263.2 400.3 263.2C398.17 263.3 396 262.5 393.9 262C393.9 261.5 394 261 394.1 260.4C396.2 259.7 398.4 258.9 402 257.6C398.9 256.8 397.2 256.3 395.8 255.5C398.1 255 400 254.9 402.7 254.7C401.2 252.6 400.2 251.3 399.3 250Z" fill="#A1A1A0"/><path d="M430.4 31.7C431.4 31.3 432.4 31.5 433 31.1C438.7 26.9 439.6 31.8 441.3 35.8C441.4 36.1 440.9 36.2 440.3 36.2C437.9 36.1 436.1 36.1 434.3 35.9C434.1 35.7 434 35.6 433.9 35.6C434 35.8 434.1 36 434.2 36.5C434.9 38.6 435.6 40.4 436.3 42.2C430.6 41 428.7 37.9 430.4 31.7Z" fill="#656564"/><path d="M41.9 72.8C42.2 73.2 42.8 73.5 42.7 73.9C42.6 76.4 37.7 79 33.9 78C32.8 77.7 32.1 75.2 31.7 73.6C31 71 30.7 68.1 33.5 66.4C34.5 65.8 36.1 66.2 37.1 66.5C35.6 67.8 34.4 68.7 33.2 69.6C33.4 70 33.6 70.3 33.8 70.7C35.2 70.7 36.5 70.7 37.6 70.7C38 72.4 38.3 73.9 38.6 75.5C39.7 74.6 40.8 73.7 41.9 72.8Z" fill="#7A7A7A"/><path d="M46.3 206C47.4 206.9 48.8 207.7 49.6 208.9C50.7 210.3 51.3 212.1 52.6 214.7C49.7 216.3 46.4 218.3 43 220.2C42.7 219.9 42.3 219.5 42 219.2C42.6 217.3 43.3 215.4 43.8 213C45.2 211.6 46.7 210.7 48.4 209.6C47.6 208.2 47 207.1 46.3 206Z" fill="#A1A1A0"/><path d="M513.5 184.2C513.5 184.2 513.3 184.6 512.8 184.8C510.2 185.6 508.1 186 506 186.5C505.7 186.5 505.3 186.5 504.5 186.1C503.4 185.6 502.8 185.4 502.2 185.2C500 181.89 501.6 179.7 505.2 178C506.5 177.9 507 177.8 507.56 177.7C509.03 177.9 510.5 178.2 512.2 179.1C512.8 181.2 513.1 182.74 513.5 184.2Z" fill="#D9D9D9"/><path d="M326 19.6C325.2 18.4 324.5 17.5 323.9 16.5C325.4 15.7 326.84 14.9 328.8 13.8C330 19.2 330.9 23.7 332.1 29.3C329.5 28.2 328.5 27.7 327.4 27.4C323.6 26.2 321.92 24.7 326 21.6C326.4 21.4 326.2 20.5 326 19.6Z" fill="#565656"/><path d="M24.1 138.6C22.8 139.3 21.7 139.7 21 140C20.3 137.4 19.4 135.37 19.5 133.4C19.5 132.3 21.2 130.2 21.9 130.24C23.5 130.44 26.2 131.6 26.3 132.6C26.4 134.4 25 136.41 24.1 138.6Z" fill="#B6B6B6"/><path d="M135.9 12.4C138.9 8.7 141.1 9.7 142.4 13.4C143.5 16.4 145.9 19.8 140.9 23C139.1 19.5 137.5 16.1 135.9 12.4Z" fill="#6A6A6A"/><path d="M491.2 197.8C491.1 198.7 490.9 199.8 490.3 199.99C486 201.4 481.5 202.6 476.8 204C476.4 203.6 476.4 203.1 476.7 202.3C477 201.2 477.1 200.6 477.3 200.1C478.8 198.9 480.3 197.7 482.4 196.3C483.4 195.7 483.8 195.3 484.3 195C486.5 195.9 488.7 196.7 491.2 197.8Z" fill="#CFCFCE"/><path d="M296.5 323.2C296.5 323.2 296.8 323 297.4 322.9C298.4 322.8 299 322.8 299.5 322.8C301.1 324.9 302.63 327 303.7 329.4C301.8 331 300.4 332.2 298.9 333.3C297.8 333 296.7 332.8 295.5 332C295 331.1 294.7 330.6 294.36 330.1C294.4 329.3 294.4 328.6 294.8 327.3C295.54 325.6 296 324.4 296.5 323.2Z" fill="#CFCFCE"/><path d="M371.3 320.3C372.8 322.6 374.1 324.9 375.3 327.2C373.4 328.1 371.7 329.4 369.7 329.9C369.1 330 367 327.5 367.3 326.8C368.06 324.5 369.6 322.5 371.3 320.3Z" fill="#959595"/><path d="M5.3 242.8C5.6 242.2 5.8 241.7 6 241.7C8.4 241.5 10.8 241.3 13.1 241.4C13.5 241.5 14.3 243.57 14 243.8C12.2 245.3 10.2 246.7 8.2 248.1C7.2 246.4 6.2 244.8 5.3 242.8Z" fill="#B6B6B6"/><path d="M356.88 109.6C356.9 111.1 356.5 112.42 356.1 114.1C353.8 115.3 352 115.4 351 112.5C350.3 110.5 348.71 108.9 347.5 107.2C346.98 107.6 346.4 108 345.9 108.4C345.9 110.1 345.9 111.7 345.9 115.2C343.4 112.8 341.9 111.2 340.4 109.4C341.6 108.9 343.43 109.1 343.77 108.5C345.7 105.1 347.7 105.88 349.4 108.2C351.5 111 354 110.2 356.88 109.6Z" fill="#B6B6B6"/><path d="M13.8 152.9C12.1 154.3 10.2 155.56 7.6 157.3C7.7 157.8 8.1 159.58 8.4 161.8C8 162.6 7.6 163.1 6.7 163.4C5.2 160.9 4.3 158.5 3.3 156.1C3.3 155.6 3.3 155.2 3.6 154.2C5.4 152.1 6.9 150.6 8.4 149.1C8.4 149.1 8.7 149.2 9 149.7C10.2 150.8 11.3 151.4 12.3 152.1C12.7 152.3 13.1 152.5 13.8 152.9Z" fill="#CFCFCE"/><path d="M9.4 80.1C9.2 81.08 9.1 82 9 83C8.8 84.4 8.7 85.8 8.6 87.2C7.5 86.1 6.1 85.3 5.3 84C3.4 81.2 1.6 78.3 0.2 75.3C-0.3 74.1 0.1 71.7 1 71C2.3 69.96 4.4 69.9 6 69.8C4 71 2.3 71.9 0.4 72.9C1.8 74.6 3.4 75.6 3.3 76.4C2.9 81.9 6.3 80.6 9.4 80.1Z" fill="#959595"/><path d="M212 264.5C216.3 261.3 219 264.8 219.5 267.4C220 270.4 225.6 274.3 218.8 277.1C218.3 276.8 218.1 276.5 218.1 275.5C217.1 273.6 216 272.3 214.8 271C213.8 269 212.9 266.9 212 264.5Z" fill="#B6B6B6"/><path d="M411.68 23C412.9 21.9 414.79 20.3 415.1 20.6C416.5 21.8 418 23.4 418.5 25.1C418.9 26.5 418.17 28.3 417.9 30.3C416.5 30.7 415.04 31.2 413.7 31.6C413 28.7 412.3 26 411.68 23Z" fill="#6A6A6A"/><path d="M113.4 31C120.2 35.3 121.4 40.1 116.87 46.7C116.3 45.1 116.4 43.4 115.6 42.3C113.2 38.8 110.8 35.5 113.4 31Z" fill="#292928"/><path d="M25.7 91.7C26.3 92.9 27.2 93.6 27.3 94.5C27.4 95.7 27.3 97.5 26.6 97.9C25.9 98.4 23.6 98.2 23.2 97.5C21.9 95 21.1 92.2 20.04 89.4C20.7 89.1 21.3 88.7 21.9 88.3C23.1 89.3 24.3 90.3 25.7 91.7Z" fill="#A1A1A0"/><path d="M482.5 85.2C481.9 86.5 481.4 87.4 480.9 88.2C480.3 88.2 479.7 88.2 479.2 88.1C479 85.1 478.53 82.1 478.79 79.1C478.8 78.7 482.5 78.7 485.5 78.4C484.1 81.5 483.3 83.2 482.5 85.2Z" fill="#959595"/><path d="M446.9 60.3C446.4 59.8 445.9 59.2 445.5 58.2C445.8 57.1 446.1 56.6 446.4 56.1C449.5 54.8 448.2 52.7 447.5 50.4C450.9 52.4 453.7 56.2 453.1 58C451.8 61.8 451 66.1 445.54 66.4C446.72 64.8 450.1 64.1 447.5 60.7C448.6 59.6 449.4 59 450.1 58.3C449.7 58 449.2 57.6 448.8 57.2C448.14 58.3 447.5 59.3 446.9 60.3Z" fill="#292928"/><path d="M61.8 213.5C65.7 215.2 69.8 216.4 73.4 218.6C75.9 220.1 78.8 222.4 76.7 227C74.5 225.9 72.5 224.9 70.6 223.5C71 223 71.2 223 71.4 222.9C72.25 223.3 73.1 223.7 74.6 224.5C73.7 218.9 69.2 218.8 66.1 217.1C64.7 216.4 63.1 215.9 61.6 214.7C61.7 213.9 61.7 213.7 61.8 213.5Z" fill="#A1A1A0"/><path d="M113.4 31C110.8 35.5 113.2 38.8 115.6 42.3C116.37 43.4 116.3 45.1 116.5 46.8C111.8 46.6 110.4 44.6 110.1 37.3C109.7 35.3 109.3 34.1 108.8 32.9C108.87 32.7 108.9 32.6 109.4 32.1C111.1 31.5 112.2 31.2 113.4 31C113.4 31 113.4 31 113.4 31Z" fill="#6A6A6A"/><path d="M307.4 152C304.1 148.4 300.9 144.8 297.6 141.3C296.74 140.3 295.9 139.3 295.1 138.4C295.3 138 295.6 137.65 295.9 137.29C297.45 137.9 299 138.44 301 139.1C301.3 139.1 301.3 139.1 301.3 139.4C302.1 140.81 302.7 141.9 303.5 142.8C305.8 145.3 308.2 147.72 310.44 150.4C310.4 150.9 310.4 151 310.4 151.2C309.6 151.7 308.8 152.2 307.7 152.46C307.4 152.3 307.4 152 307.4 152Z" fill="#7A7A7A"/><path d="M299.2 333.5C300.4 332.2 301.8 331 303.62 329.78C304.1 330.2 304.2 330.7 304.3 331.2C305.2 333.1 307.2 336.5 306.8 336.8C304.8 338.4 302.1 339.3 299.2 340.63C299.3 337.7 299.4 335.7 299.2 333.5Z" fill="#565656"/><path d="M133.3 273.1C133.3 273.1 133.2 272.7 133.31 272.1C133.4 270.3 133.4 269 133.3 267.76C132.3 268.4 131.3 269 130.3 269.7C129.64 269.4 128.9 269.2 128.2 268.3C130.5 265.8 132.9 263.9 135.3 262.1C135.3 262.1 135.5 262.5 135.5 263.1C135.7 266.8 136 270 136.3 273.1C136.3 273.1 136.3 273.1 135.9 273.1C134.8 273.1 134 273.1 133.3 273.1Z" fill="#CFCFCE"/><path d="M237.9 339.9C240.2 341.62 241.81 343.7 239 345.5C237.8 346.25 235.5 345.2 233.7 345C235 343.3 236.3 341.5 237.9 339.9Z" fill="#B6B6B6"/><path d="M9.4 80.1C6.3 80.6 2.9 81.9 3.3 76.4C3.4 75.6 1.8 74.6 0.4 72.9C2.3 71.9 4 71 6 70.1C6.7 70.2 6.9 70.3 7.2 71.2C8 74.6 8.7 77.4 9.4 80.1C9.4 80.1 9.3 80.1 9.4 80.1Z" fill="#D9D9D9"/><path d="M290.2 225.5C291.8 226 293.3 226.5 294.4 227.4C294.7 227.6 293.9 230 293.4 230.1C291.3 230.59 289 230.5 286.8 230.7C286.7 230.1 286.5 229.6 286.3 229C287.5 227.9 288.7 226.8 290.2 225.5Z" fill="#B6B6B6"/><path d="M506.2 186.9C508.1 186 510.2 185.6 512.7 185C513 186.2 513 187.6 512.9 189C512.73 190.4 512.5 191.8 512.3 193.2C510.5 192.5 508.4 192.1 506.9 191C506.2 190.45 506.5 188.5 506.2 186.9Z" fill="#6A6A6A"/><path d="M113.3 30.6C112.2 31.2 111.06 31.5 109.5 31.8C108.3 30.8 107.2 29.8 106.7 28.6C106 26.8 105.7 24.9 105.6 23C105.6 22.4 107.5 21.2 107.6 21.3C108.8 22.4 109.9 23.6 110.7 24.9C111.7 26.6 112.4 28.5 113.3 30.6Z" fill="#292928"/><path d="M164.4 128.16C162.58 129.5 160.79 130.7 158.7 131.6C159 128.5 159.6 125.7 160.2 123C161.6 121.8 163 120.7 165.1 119.7C165.9 119.9 166.2 120 166.4 120.1C166.4 120.5 166.3 121 165.8 121.9C164.2 124.2 162.9 125.9 161.4 128C162.79 128.1 163.58 128.1 164.4 128.16Z" fill="#B6B6B6"/><path d="M506.1 122.7C504.8 123.5 503.9 124.1 502.7 124.9C501.5 123.5 500.2 122.1 497.87 119.4C500.8 118.77 502.9 117.9 505 118.1C505.5 118.1 505.9 120.97 506.1 122.7Z" fill="#6A6A6A"/><path d="M281.8 126.1C284 126.9 285.89 127.9 288.1 128.9C288.3 130.3 288.2 131.6 288.1 132.9C284.79 132.6 281.9 132.4 278.6 132.03C279.3 130 280.4 128.1 281.8 126.1Z" fill="#292928"/><path d="M153.7 131.3C153.64 132.2 153.6 133.2 153.5 134.17C152.44 133.6 151.4 133.1 150 132.4C149.9 138.2 146.01 138 141.6 136.9C141.34 136.3 141.3 136.1 141.3 135.9C142 135.9 142.6 135.8 144 135.8C145.6 134 146.5 132.13 147.2 130.55C149.6 130.4 152 130.2 154.3 130.4C154 130.9 153.85 131.1 153.7 131.3Z" fill="#959595"/><path d="M25.7 186.1C25.7 186.9 25.8 187.6 25.3 188.9C22.9 189.7 21 190.1 19.2 190.5C18.9 188.3 18.6 186.1 18.3 184C19.4 183.6 20.5 183.2 22.1 183.2C23.6 184.4 24.6 185.3 25.7 186.1ZM20.1 187.3C20.2 187.46 20.2 187.6 20.3 187.8C20.3 187.6 20.4 187.5 20.1 187.3Z" fill="#D9D9D9"/><path d="M404.2 303.7C405 302.6 405.9 301.7 406.7 300.9C408.2 302.5 409.7 304.2 411.3 305.8C410.8 306.4 410.3 307 409.75 307.6C407.9 306.4 406.1 305.19 404.2 303.7Z" fill="#B6B6B6"/><path d="M91 302.8C93.3 306 91.3 307.3 88.9 308.2C87.3 308.7 85.6 308.7 83.6 309C83.3 309.1 83.3 309.1 83.3 308.7C83.3 307.2 83.3 306.1 83.3 305.02C83.3 305.02 83.5 304.6 83.9 304.5C84.7 303.8 85.2 303.3 85.6 302.8C87.3 302.7 88.9 302.7 91 302.8Z" fill="#CFCFCE"/><path d="M467.7 51C467.7 51 467.3 50.7 467.34 50.1C469.9 48.8 472.4 48 474.9 47.2C475.3 47.8 475.8 48.3 476 49.5C475.8 52.1 475.9 54.1 475.9 56C475.4 57 474.9 58 473.74 58.7C472.8 58.32 472.6 58.2 472.3 58.1C472.3 57.9 472.2 57.8 472.44 57.2C472.6 55.3 473 53.3 472.18 52.4C471.2 51.4 469.2 51.4 467.7 51Z" fill="#A1A1A0"/><path d="M153.6 131.7C153.85 131.1 154 130.9 154.3 130.07C154.4 129 154.4 128.6 154.5 127.8C154.5 126.69 154.4 126 154.4 125.2C154.4 125.2 154.4 125.1 154.7 125.1C155.1 124.7 155.3 124.4 155.4 123.73C155.4 123.29 155.4 123.1 155.5 122.94C156.8 122.9 158.2 122.9 159.9 122.9C159.6 125.7 159 128.5 158.4 131.6C156.7 132.7 155.1 135.5 153.6 131.7Z" fill="#4A4A4A"/><path d="M154.4 128.2C154.4 128.6 154.4 129 154.4 129.7C152 130.2 149.6 130.4 147.2 130.55C146.5 132.13 145.6 134 144.3 135.9C144.5 130.9 146.8 127.2 152 125.6C153 126.6 153.7 127.4 154.4 128.2Z" fill="#7A7A7A"/><path d="M135.3 261.8C132.9 263.9 130.5 265.8 128.01 268C126.9 266.1 125.8 263.8 125.2 261.5C128.4 260.6 131 259.8 133.7 258.9C134.2 259.8 134.8 260.6 135.3 261.8Z" fill="#656564"/><path d="M310.5 150.2C308.16 147.72 305.8 145.3 303.5 142.8C302.69 141.9 302.1 140.81 301.3 139.4C305.9 140 309.4 142.5 311.5 147.2C311.6 148.25 311.6 148.9 311.3 149.8C311 150.1 310.5 150.2 310.5 150.2Z" fill="#656564"/><path d="M503.74 67.7C504.5 68.7 505.5 69.9 505.4 71C505.4 72.5 504.6 73.9 503.96 75.9C502.9 75.6 501.4 75.2 499.9 74.8C500.4 73.4 500.7 71.9 501.3 70.5C501.83 69.5 502.7 68.7 503.74 67.7Z" fill="#4A4A4A"/><path d="M133.6 258.6C131 259.8 128.4 260.6 125.4 261.3C125 260.3 125.01 259.6 125.35 258.3C126.6 256.5 127.4 255.2 128.3 253.9C128.76 253.8 129.21 253.77 130.1 254.1C131 254.7 131.5 255 132 255.33C132.54 256.3 133.1 257.3 133.6 258.6Z" fill="#D9D9D9"/><path d="M390 19.9C389.4 18.9 388.8 18.1 388.9 17.4C389.1 15.8 389.7 14.2 390.1 12.6C391 13.5 392.7 14.3 392.9 15.3C393.2 17.3 394.3 20.3 390 19.9Z" fill="#A1A1A0"/><path d="M327.8 110.1C325.4 108.2 323.1 106.3 320.7 104.3C324.6 101.8 324.6 101.8 329.9 108.8C329.1 109.5 328.4 109.8 327.8 110.1Z" fill="#4A4A4A"/><path d="M41.8 72.5C40.8 73.7 39.7 74.6 38.6 75.5C38.3 73.9 38 72.4 37.6 70.7C36.5 70.7 35.2 70.7 33.8 70.7C33.6 70.3 33.4 70 33.2 69.6C34.4 68.7 35.6 67.8 37.2 66.8C38.4 67.3 39.2 67.9 40.2 69C40.7 70.1 41 70.6 41.4 71.1C41.5 71.5 41.6 71.8 41.8 72.5Z" fill="#CFCFCE"/><path d="M206.1 181.3C208.45 182.4 210.5 183.7 212.49 185.2C212.6 185.3 211.4 186.9 210.58 188C207.3 186.9 204.6 185.5 206.1 181.3Z" fill="#292928"/><path d="M183 136.9C183.6 135.1 184.2 133.3 185.4 131.3C186.4 130.65 186.9 130.3 187.3 129.9C187.8 129.9 188.2 129.8 188.9 129.9C188.6 132.7 187.9 135.3 186.7 137.9C185.1 137.5 184.1 137.2 183 136.9Z" fill="#959595"/><path d="M93.1 170.3C91.2 174.2 89.1 178.2 86.5 182C85.1 180.9 84.2 180 83.3 179.1C87.8 177.7 90.4 174.2 93.1 170.3Z" fill="#959595"/><path d="M17.9 184.1C18.6 186.1 18.9 188.3 19.2 190.5C21 190.1 22.9 189.7 25.1 189.2C24.7 193.2 22.1 193.5 19.1 192C15.5 190.2 14.5 187.4 17.9 184.1Z" fill="#A1A1A0"/><path d="M474.9 46.9C472.4 48 469.9 48.8 467.3 49.9C466.1 49.4 465 48.4 463.9 47.5C464 47 464.1 46.5 464.1 45.9C467.7 46.2 471.3 46.4 474.9 46.9Z" fill="#7A7A7A"/><path d="M447.1 48.1C445 47.4 443 46.3 440.59 45C441.09 43.7 441.9 42.5 442.7 41.2C443.81 42.2 445.1 43 445.9 44.2C446.6 45.2 446.8 46.5 447.1 48.1Z" fill="#292928"/><path d="M46 205.9C47 207.1 47.6 208.2 48.4 209.6C46.7 210.7 45.2 211.6 43.5 212.8C42.9 213.2 42.4 213.3 41.6 212.9C42.3 210.3 43.3 208.2 44.3 206.1C44.8 206 45.2 205.88 46 205.9Z" fill="#CFCFCE"/><path d="M403.3 134.1C408 132.7 408.8 135.9 409 139.7C406.9 139 405.2 138 403.3 136.6C403.3 135.5 403.3 134.8 403.3 134.1Z" fill="#656564"/><path d="M398.9 249.9C400.2 251.3 401.2 252.6 402.7 254.7C400 254.9 398.1 255 395.7 255.1C395.3 255.1 395.3 255.1 395.3 254.7C395.4 253.1 395.4 251.8 395.4 250.5C396.5 250.26 397.5 250.02 398.9 249.9Z" fill="#CFCFCE"/><path d="M47.6 277.8C45.4 274.3 43.4 270.6 41.3 266.4C43.5 269.9 45.6 273.8 47.6 277.8Z" fill="#A1A1A0"/><path d="M176.3 178.1C176.3 174.39 176.3 170.7 176.5 166.5C176.8 166.1 177.3 166.1 177.3 166.1C177.4 169.8 177.5 173.6 177.17 177.7C176.8 178.1 176.3 178.1 176.3 178.1Z" fill="#959595"/><path d="M467.7 51.3C469.2 51.4 471.2 51.4 472.18 52.4C473 53.3 472.6 55.3 472.5 56.9C470.7 55.3 469.2 53.46 467.7 51.3Z" fill="#7A7A7A"/><path d="M3.2 156.4C4.3 158.5 5.2 160.91 6.5 163.6C4.6 167 4.1 164.7 3.8 162.8C3.4 160.8 3.2 158.7 3.2 156.4Z" fill="#7A7A7A"/><path d="M44.1 206C43.3 208.2 42.3 210.3 41.3 212.7C40.8 212.2 39.5 210.8 39.8 210.5C40.9 208.8 42.5 207.4 44.1 206Z" fill="#A1A1A0"/><path d="M403.2 133.7C403.3 134.8 403.3 135.5 403.3 137C403.8 139.01 404.3 140.3 404.8 141.6C404.8 141.6 404.53 141.9 404.06 141.9C402.4 139.7 401.26 137.3 400.1 135C400.3 134.5 400.6 134 401.3 133.2C402.2 132.4 402.63 131.8 403 131.18C403.1 131.9 403.1 132.6 403.2 133.7Z" fill="#FCFCFA"/><path d="M405.1 141.8C404.3 140.3 403.8 139.01 403.4 137.3C405.2 138 406.9 139 409 140C409.6 140.3 409.81 140.5 410.1 141.25C410.8 142.7 411.3 143.6 411.8 144.6C411.8 144.6 411.6 144.8 411.4 144.99C409.3 144.1 407.4 143 405.1 141.8Z" fill="#B6B6B6"/><path d="M327.8 110.4C328.4 109.8 329.1 109.5 330 109C332.1 108.6 333.8 108.1 335.6 108.02C337.1 107.9 338.7 108.2 340.3 108.7C336.6 109.7 332.8 110.3 328.6 111C328.1 110.9 327.9 110.8 327.8 110.4Z" fill="#B6B6B6"/><path d="M436.5 42.4C435.6 40.4 434.9 38.6 434.3 36.5C434.3 36.1 434.4 36 434.4 36C436.1 36.1 437.9 36.1 440 36.3C439.2 38.5 437.9 40.5 436.5 42.4Z" fill="#292928"/><path d="M198.9 307.2C199.6 303.4 200.6 299.4 201.9 295.28C201.2 299.1 200.2 303.02 198.9 307.2Z" fill="#A1A1A0"/><path d="M164.6 127.9C163.6 128.1 162.79 128.1 161.4 128C162.9 125.9 164.2 124.2 165.7 122.3C166.7 122.2 167.3 122.4 168.5 122.7C167.6 124.4 166.2 126.1 164.6 127.9Z" fill="#4A4A4A"/><path d="M136.7 273C136 270 135.7 266.8 135.5 263.3C138.9 265.8 138.7 269.2 136.7 273Z" fill="#656564"/><path d="M436.65 48.9C436.7 52 436.4 55.3 436 59C436.1 56 436.2 52.6 436.65 48.9Z" fill="#7A7A7A"/><path d="M69.3 198C68 198.4 66.7 198.9 65.4 199.4C65.1 199 64.8 198.7 64.5 198.4C65.6 197.31 66.6 196.2 68.1 195.4C68.8 196.5 69 197.2 69.3 198Z" fill="#959595"/><path d="M9.7 80.1C8.7 77.4 8 74.6 7.3 71.4C8.2 74 9.1 77 9.7 80.1Z" fill="#959595"/><path d="M117.3 251.1C119.4 250.7 121.6 250.2 124.1 250C121.2 251.2 118 252.3 114.4 253.21C114.26 252.7 114.5 252.4 115.2 252C116.2 251.7 116.8 251.36 117.3 251.1Z" fill="#A1A1A0"/><path d="M117.4 148.3C117.9 147.2 118.4 146.1 119 144.6C119.8 143.8 120.4 143.5 121.2 143.2C120.9 145.33 120.3 147.4 119.2 149.8C118.3 150 117.9 150 117.5 150C117.5 149.84 117.5 149.7 117.4 149.1C117.41 148.6 117.4 148.3 117.4 148.3Z" fill="#7A7A7A"/><path d="M388.98 123.1C388.3 125.2 387.4 127.2 386.5 129.6C383.4 129.4 383.7 128 385.6 126.18C386.37 125.4 387.1 124.7 388 123.6C388.4 123.2 388.6 123.15 388.98 123.1Z" fill="#D9D9D9"/><path d="M403.2 130.8C402.63 131.8 402.2 132.4 401.53 133C400.6 131.3 399.9 129.61 399.3 127.5C400.7 128.2 402.1 129.37 403.2 130.8Z" fill="#D9D9D9"/><path d="M66.3 227.6C68.5 227.6 70.8 228 73.2 228.7C71 228.7 68.6 228.3 66.3 227.6Z" fill="#4A4A4A"/><path d="M8.3 148.8C6.9 150.6 5.4 152.1 3.6 153.9C3.9 149.2 4.5 148.4 8.3 148.8Z" fill="#7A7A7A"/><path d="M108.3 288.48C110.7 288.7 113.1 289.3 115.9 290C113.1 293.1 111 289.4 108.3 288.48Z" fill="#A1A1A0"/><path d="M180 117.9C180.2 118.4 180.2 118.8 180 119.4C179.4 120 178.8 120.4 177.8 120.4C176.7 119.4 176 118.7 175.2 117.9C176.63 114.3 178.2 117.48 180 117.9Z" fill="#4A4A4A"/><path d="M436.2 60.5C437.8 60 439.3 59.8 442.2 59.6C440.7 61.2 439.9 62.1 438.8 63.3C437.7 62.7 437 61.7 436.2 60.5Z" fill="#7A7A7A"/><path d="M307 152C307.4 152 307.4 152.3 307.4 152.4C305.82 153.9 304.3 155.3 302.5 156.2C302.3 155.56 302.4 155.4 302.7 155C303.4 153.9 303.9 153 304.4 152.1C305.1 152.1 305.9 152.1 307 152Z" fill="#565656"/><path d="M412.1 144.6C411.3 143.6 410.8 142.7 410.3 141.4C412 141.48 413.6 141.8 415.4 142.6C414.45 143.5 413.4 144.1 412.1 144.6Z" fill="#656564"/><path d="M205.5 162.8C205.8 161.4 206.2 160.3 206.9 158.5C208.5 163.1 208.5 163.1 205.5 162.8Z" fill="#1A1A1A"/><path d="M83.1 179.2C84.2 180 85.1 180.9 86.2 182.14C84.8 182.3 83.4 182.2 81.7 181.7C81.8 180.96 82 180.5 82.2 180C82.4 179.7 82.6 179.4 83.1 179.2Z" fill="#CFCFCE"/><path d="M428.5 155.4C423.7 157.1 425.7 152.5 424.4 150.4C425.7 151.7 427 153.4 428.5 155.4Z" fill="#656564"/><path d="M177.8 162.1C177.8 160 178.2 157.8 178.8 155.3C178.8 157.4 178.5 159.7 177.8 162.1Z" fill="#959595"/><path d="M128.1 253.67C127.4 255.2 126.6 256.5 125.4 257.9C126.1 256.5 127 255 128.1 253.67Z" fill="#656564"/><path d="M287.9 121.9C289.3 123.1 290.3 124.3 291.3 125.6C290.9 125.9 290.51 126.2 290.1 126.4C289 125.4 287.8 124.3 286.3 123.1C286.5 122.6 287.1 122.3 287.9 121.9Z" fill="#656564"/><path d="M182.6 143C182.3 142 182.3 141 182.8 139.6C184.3 139.1 185.3 139.1 186.28 139.1C185.2 140.4 184.1 141.6 182.6 143Z" fill="#959595"/><path d="M476.2 55.8C475.9 54.1 475.8 52.1 476.1 49.9C476.4 51.5 476.5 53.6 476.2 55.8Z" fill="#7A7A7A"/><path d="M165.3 307.5C167.1 307.5 169.1 307.8 171.1 308.5C169.33 308.5 167.4 308.1 165.3 307.5Z" fill="#A1A1A0"/><path d="M422.4 147.6C420.8 147.2 419.1 146.5 417.43 145.3C419.1 145.7 420.7 146.5 422.4 147.6Z" fill="#656564"/><path d="M513.9 184.2C513.1 182.74 512.8 181.2 512.4 179.3C513 180.69 513.6 182.4 513.9 184.2Z" fill="#6A6A6A"/><path d="M196.5 270.8C196.5 269 196.7 267 197.3 264.9C197.35 266.7 197.1 268.7 196.5 270.8Z" fill="#A1A1A0"/><path d="M117.9 287.2C117.6 285.8 117.6 284.2 117.9 282.3C118.2 283.7 118.2 285.4 117.9 287.2Z" fill="#A1A1A0"/><path d="M175.1 118.1C176 118.7 176.7 119.4 177.6 120.4C176.5 120.9 175.3 121 173.8 120.8C173.7 120 173.9 119.5 174.13 119C174.4 118.7 174.6 118.5 175.1 118.1Z" fill="#B6B6B6"/><path d="M295.1 156.7C295.4 156.3 296 156.2 297.3 156.1C299 156.2 299.9 156.3 300.7 156.4C298.9 156.6 297.1 156.8 295.1 156.7Z" fill="#565656"/><path d="M130.5 270C131.3 269 132.3 268.4 133.3 267.76C133.4 269 133.4 270.3 133.3 271.9C132.25 271.6 131.4 270.92 130.5 270Z" fill="#656564"/><path d="M138.5 137.8C138.6 138.5 138.5 138.9 138 139.7C137.7 139.9 137.2 140 136.9 139.9C135.9 139.6 135.1 139.4 134.3 139.1C134.3 139.1 134.1 138.8 134.2 138.7C135.6 138.2 136.9 137.9 138.5 137.8Z" fill="#7A7A7A"/><path d="M25.8 185.9C24.6 185.3 23.6 184.4 22.5 183.3C23.5 183.9 24.7 184.8 25.8 185.9Z" fill="#A1A1A0"/><path d="M235.3 315.5C236.7 315.1 238.2 315 240.1 315.07C238.8 315.45 237.1 315.6 235.3 315.5Z" fill="#A1A1A0"/><path d="M214.8 271.3C216 272.3 217.1 273.6 218.1 275.3C217 274.3 215.9 272.97 214.8 271.3Z" fill="#A1A1A0"/><path d="M61.7 213.2C61.7 213.7 61.7 213.9 61.6 214.3C61.4 213.3 61.3 211.96 61.3 210.9C61.4 211.8 61.5 212.35 61.7 213.2Z" fill="#959595"/><path d="M187 114.1C185.9 114.8 184.46 115.4 182.6 115.9C183.68 115.3 185.1 114.72 187 114.1Z" fill="#4A4A4A"/><path d="M141.3 266.3C142.1 267.6 142.7 269.1 143.2 270.9C142.45 269.7 141.8 268.1 141.3 266.3Z" fill="#A1A1A0"/><path d="M106.9 155C107.3 155.1 107.3 155.3 107.5 155.9C106.33 156.9 105.09 157.6 103.5 158.1C104.3 157 105.4 156 106.9 155Z" fill="#959595"/><path d="M185.2 311.7C186.7 311.7 188.3 312 190.1 312.6C188.6 312.6 187 312.3 185.2 311.7Z" fill="#A1A1A0"/><path d="M192.3 313.51C193.6 313.1 195.03 312.9 196.8 312.9C195.5 313.2 194 313.5 192.3 313.51Z" fill="#A1A1A0"/><path d="M395.2 250.6C395.4 251.8 395.4 253.1 395.3 254.8C395.1 253.6 395 252.1 395.2 250.6Z" fill="#A1A1A0"/><path d="M225.8 293.2C226.81 294 227.7 295.1 228.5 296.54C227.6 295.74 226.7 294.6 225.8 293.2Z" fill="#A1A1A0"/><path d="M197.4 312.8C197.31 311.7 197.5 310.5 198 309.2C198.1 310.33 197.9 311.57 197.4 312.8Z" fill="#A1A1A0"/><path d="M301 156.4C299.9 156.3 299 156.2 297.7 156.1C297.31 155.3 297.3 154.6 297.32 153.5C297.3 153.1 297.3 153.1 297.6 153.2C299.42 154 300.9 154.6 302.4 155.2C302.4 155.4 302.3 155.56 302.29 156C301.9 156.3 301.6 156.4 301 156.4Z" fill="#656564"/><path d="M83 305.1C83.3 306.1 83.3 307.2 83.3 308.7C83.1 307.8 82.9 306.5 83 305.1Z" fill="#7A7A7A"/><path d="M114.02 147.2C113.7 148.4 113.1 149.7 112.3 151.1C112.6 149.9 113.1 148.6 114.02 147.2Z" fill="#959595"/><path d="M108.55 33C109.3 34.1 109.7 35.3 110.1 36.8C109.5 35.9 108.9 34.5 108.55 33Z" fill="#292928"/><path d="M296.1 323.2C296 324.4 295.54 325.6 294.8 326.9C295 325.8 295.38 324.5 296.1 323.2Z" fill="#565656"/><path d="M118.5 278.9C117.9 277.9 117.6 276.78 117.3 275.3C117.9 276.2 118.3 277.5 118.5 278.9Z" fill="#A1A1A0"/><path d="M125.3 140.8C124.45 141.7 123.3 142.4 121.8 143.2C122.7 142.4 123.8 141.5 125.3 140.8Z" fill="#7A7A7A"/><path d="M186.4 138.9C185.3 139.11 184.3 139.1 182.99 139.2C182.63 138.7 182.6 138.1 182.8 137.23C184.1 137.2 185.1 137.5 186.4 138.1C186.6 138.4 186.6 138.8 186.4 138.9Z" fill="#B6B6B6"/><path d="M202.1 281.9C201.1 281.5 200.09 280.7 199.1 279.6C200.2 280.1 201.1 280.8 202.1 281.9Z" fill="#A1A1A0"/><path d="M76.1 185.3C75.8 186.3 75.2 187.3 74.3 188.3C74.6 187.4 75.2 186.3 76.1 185.3Z" fill="#959595"/><path d="M12.2 151.78C11.27 151.4 10.2 150.8 9.2 149.8C10.1 150.15 11.2 150.8 12.2 151.78Z" fill="#7A7A7A"/><path d="M173.8 119C173.9 119.5 173.7 120 173.4 120.8C172.6 121.2 171.86 121.4 170.8 121.4C171.42 120.5 172.4 119.7 173.8 119Z" fill="#4A4A4A"/><path d="M314.9 145.3C314.7 144.5 314.7 143.5 315.03 142.3C315.3 143.12 315.2 144.2 314.9 145.3Z" fill="#565656"/><path d="M181.5 147.9C181.2 147.2 181.2 146.5 181.5 145.4C182.1 145.1 182.3 145.1 182.4 145.1C182.2 146 182 146.9 181.5 147.9Z" fill="#959595"/><path d="M179.3 310.4C180.1 310.2 181 310.2 182.1 310.5C181.3 310.8 180.31 310.8 179.3 310.4Z" fill="#A1A1A0"/><path d="M277.5 137.2C278 137.8 278.4 138.8 278.6 140C278 139.3 277.7 138.4 277.5 137.2Z" fill="#292928"/><path d="M154.5 127.8C153.7 127.4 153.02 126.6 152.3 125.5C152.33 125.1 152.5 124.9 153.1 124.9C153.9 125.1 154.1 125.16 154.4 125.2C154.4 126 154.5 126.7 154.5 127.8Z" fill="#959595"/><path d="M130.7 249.3C131.3 249 132.3 248.8 133.2 248.9C132.5 249.3 131.7 249.42 130.7 249.3Z" fill="#B6B6B6"/><path d="M158.7 301.29C159.2 301.92 159.4 302.7 159.5 303.7C159.1 303.1 158.7 302.3 158.7 301.29Z" fill="#A1A1A0"/><path d="M176.1 178.3C176.3 178.1 176.8 178.1 177 178.1C177.4 178.9 177.4 179.6 177.3 180.8C176.7 180.3 176.3 179.4 176.1 178.3Z" fill="#B6B6B6"/><path d="M69.4 198.2C69 197.2 68.8 196.5 68.4 195.4C68.7 194.6 69.1 194.2 69.8 193.7C70.2 195 70.2 196.3 70.2 198C69.9 198.5 69.8 198.4 69.4 198.2Z" fill="#CFCFCE"/><path d="M64 223.1C64.4 223.78 64.6 224.5 64.7 225.6C64.2 225 63.9 224 64 223.1Z" fill="#4A4A4A"/><path d="M71.3 222.6C71.2 223 71 223.04 70.5 223.2C69.4 223.03 68.6 222.7 67.6 221.9C67.4 221.4 67.4 221.2 67.4 221C68.7 221.4 69.9 221.9 71.3 222.6Z" fill="#4A4A4A"/><path d="M190.2 113.4C189.5 113.9 188.7 114 187.7 114.2C188.3 113.8 189.2 113.5 190.2 113.4Z" fill="#4A4A4A"/><path d="M133.26 273.5C134 273.1 134.8 273.1 135.95 273.1C135.3 273.3 134.3 273.6 133.26 273.5Z" fill="#656564"/><path d="M198.8 114.4C198.5 113.6 198.4 112.7 198.4 111.3C198.6 112 198.8 113.1 198.8 114.4Z" fill="#959595"/><path d="M330.5 124.3C331.2 124.7 331.9 125.5 332.5 126.6C331.8 126.2 331.2 125.4 330.5 124.3Z" fill="#959595"/><path d="M81.9 180C82 180.5 81.8 181 81.4 181.7C80.8 182.1 80.5 182.24 79.8 182.3C80.2 181.5 80.9 180.7 81.9 180Z" fill="#959595"/><path d="M134.4 250.4C135.1 250.8 135.8 251.6 136.4 252.7C135.7 252.3 135 251.5 134.4 250.4Z" fill="#A1A1A0"/><path d="M507.5 177.5C507 177.8 506.5 177.9 505.5 177.9C505.9 177.6 506.7 177.4 507.5 177.5Z" fill="#6A6A6A"/><path d="M232.98 304.1C233.6 304.5 233.99 305.2 234.2 306.09C233.6 305.7 233.2 305 232.98 304.1Z" fill="#A1A1A0"/><path d="M433.4 163.3C433.2 162.7 433.2 162.2 433.3 161.5C433.8 161.8 434.2 162.4 434.45 163.3C434.21 163.53 433.8 163.6 433.8 163.6C433.8 163.6 433.5 163.4 433.4 163.3Z" fill="#656564"/><path d="M177.4 165.7C177.3 166.1 176.8 166.1 176.6 166.1C176.4 165.4 176.5 164.7 176.9 164C177.3 164.5 177.4 164.9 177.4 165.7Z" fill="#B6B6B6"/><path d="M85.3 302.7C85.2 303.3 84.7 303.8 84 304.3C84.2 303.76 84.6 303.2 85.3 302.7Z" fill="#7A7A7A"/><path d="M96.1 165.2C96.1 165.9 95.9 166.6 95.4 167.3C95.3 166.7 95.5 166 96.1 165.2Z" fill="#959595"/><path d="M166.7 120C166.2 120 165.9 119.9 165.4 119.6C165.6 119.1 166.1 118.9 166.6 118.7C166.7 119.1 166.8 119.5 166.7 120Z" fill="#4A4A4A"/><path d="M257.7 299.1C257.6 298.4 257.8 297.7 258.4 296.9C258.5 297.6 258.2 298.3 257.7 299.1Z" fill="#A1A1A0"/><path d="M158.4 297.25C158.8 297.7 159.1 298.2 159.1 298.9C158.6 298.5 158.4 297.9 158.4 297.25Z" fill="#A1A1A0"/><path d="M157 292.1C157.6 292.5 158.03 293.1 158.3 294C157.7 293.65 157.3 293 157 292.1Z" fill="#A1A1A0"/><path d="M202.8 293.2C202.5 292.7 202.5 292 202.8 291.2C203.1 291.8 203.1 292.5 202.8 293.2Z" fill="#A1A1A0"/><path d="M224.3 289.2C224.9 289.6 225.2 290.1 225.4 290.88C224.9 290.6 224.5 289.9 224.3 289.2Z" fill="#A1A1A0"/><path d="M203.9 289.4C203.6 288.8 203.6 288.1 203.9 287.3C204.18 287.8 204.2 288.6 203.9 289.4Z" fill="#A1A1A0"/><path d="M101.29 158.6C101.2 159.26 100.8 159.9 100.1 160.4C100.2 159.8 100.6 159.2 101.29 158.6Z" fill="#959595"/><path d="M139.1 258.1C139.7 258.4 140.1 259 140.4 259.9C139.8 259.6 139.4 259 139.1 258.1Z" fill="#A1A1A0"/><path d="M233.8 307.87C234.1 308.4 234.1 309.1 233.9 309.9C233.5 309.4 233.5 308.6 233.8 307.87Z" fill="#A1A1A0"/><path d="M253.9 310.2C253.7 309.6 253.7 308.8 254.1 307.9C254.29 308.56 254.2 309.3 253.9 310.2Z" fill="#A1A1A0"/><path d="M175.5 309.86C176 309.54 176.6 309.5 177.2 309.6C176.7 310 176.1 310 175.5 309.86Z" fill="#A1A1A0"/><path d="M110.2 152.7C109.9 153.2 109.3 153.6 108.4 154C108.7 153.5 109.3 153 110.2 152.7Z" fill="#959595"/><path d="M179.7 153.2C179.4 152.8 179.2 152.3 179.4 151.4C179.9 151.1 180.1 151.1 180.3 151.1C180.2 151.8 180.1 152.5 179.7 153.2Z" fill="#959595"/><path d="M180.4 150.8C180.1 151.1 179.9 151.1 179.5 151.1C179.5 150.4 179.7 149.7 180.24 149.1C180.6 149.6 180.6 150.1 180.4 150.8Z" fill="#B6B6B6"/><path d="M252.5 314C252.3 313.4 252.4 312.8 252.86 312.2C253.02 312.8 252.9 313.4 252.5 314Z" fill="#A1A1A0"/><path d="M182.5 144.7C182.3 145.1 182.1 145.1 181.6 145.1C181.4 144.4 181.5 143.7 181.9 143C182.3 143.4 182.49 143.9 182.5 144.7Z" fill="#B6B6B6"/><path d="M299.5 322.5C299 322.8 298.4 322.8 297.5 322.8C297.9 322.6 298.7 322.4 299.5 322.5Z" fill="#565656"/><path d="M130.2 139C129.8 139.6 129.3 139.9 128.5 140.1C128.8 139.62 129.4 139.2 130.2 139Z" fill="#7A7A7A"/><path d="M294.1 330.2C294.7 330.6 295 331.1 295.2 331.9C294.8 331.6 294.3 331 294.1 330.2Z" fill="#565656"/><path d="M141.1 135.8C141.3 136.1 141.34 136.3 141.3 136.8C140.9 137.2 140.6 137.3 139.9 137.4C140 136.8 140.5 136.2 141.1 135.8Z" fill="#7A7A7A"/><path d="M104.1 284.1C104.7 284.3 105.2 284.8 105.6 285.6C105 285.3 104.5 284.85 104.1 284.1Z" fill="#A1A1A0"/><path d="M425.7 257.04C425.5 256.34 425.6 255.6 426 254.7C426.2 255.41 426.1 256.2 425.7 257.04Z" fill="#656564"/><path d="M109.31 256.4C109.5 255.8 109.9 255.2 110.6 254.8C110.5 255.4 110 256 109.31 256.4Z" fill="#A1A1A0"/><path d="M132.1 255.1C131.5 255 131 254.7 130.4 254.1C130.9 254.1 131.6 254.5 132.1 255.1Z" fill="#656564"/><path d="M202.3 261.3C202.7 260.8 203.38 260.38 204.3 260.2C203.9 260.7 203.3 261.1 202.3 261.3Z" fill="#A1A1A0"/><path d="M110.8 265C110.2 264.8 109.6 264.3 109.1 263.5C109.8 263.7 110.3 264.2 110.8 265Z" fill="#A1A1A0"/><path d="M441.3 65.8C441.8 65.6 442.4 65.7 443.1 65.9C442.6 66.1 442 66.1 441.3 65.8Z" fill="#292928"/><path d="M126.5 250.1C126.9 249.6 127.5 249.39 128.41 249.3C128 249.8 127.3 250 126.5 250.1Z" fill="#A1A1A0"/><path d="M429.5 247.9C429.4 247.2 429.7 246.4 430.3 245.6C430.4 246.35 430.1 247.1 429.5 247.9Z" fill="#656564"/><path d="M41.6 70.9C41 70.6 40.7 70.1 40.4 69.3C40.9 69.6 41.3 70.2 41.6 70.9Z" fill="#7A7A7A"/><path d="M438.4 239C438.7 238.4 439.1 238 439.9 237.7C439.6 238.3 439.1 238.8 438.4 239Z" fill="#656564"/><path d="M116.8 273C116.2 272.8 115.6 272.3 115.2 271.5C115.8 271.7 116.3 272.2 116.8 273Z" fill="#A1A1A0"/><path d="M67.4 221.03C67.4 221.2 67.37 221.4 67.3 221.8C66.7 222.4 66.1 222.6 65.2 222.8C65 222.3 65 222 65.5 221.4C66.5 221.2 66.9 221.1 67.4 221C67.4 221 67.4 221 67.4 221.03Z" fill="#A1A1A0"/><path d="M476.96 200.1C477.1 200.6 477 201.2 476.6 201.9C476.4 201.43 476.6 200.8 476.96 200.1Z" fill="#292928"/><path d="M326.2 115.14C325.9 115.65 325.4 115.9 324.6 116.1C324.9 115.6 325.5 115.3 326.2 115.14Z" fill="#4A4A4A"/><path d="M198.64 278.1C198 277.8 197.5 277.4 197.1 276.6C197.7 276.8 198.2 277.3 198.64 278.1Z" fill="#A1A1A0"/><path d="M102.3 277.3C102.9 277.6 103.3 278.25 103.5 279C102.9 278.6 102.6 278.1 102.3 277.3Z" fill="#B6B6B6"/><path d="M484.1 194.8C483.8 195.3 483.4 195.7 482.6 196C482.9 195.52 483.4 195 484.1 194.8Z" fill="#292928"/><path d="M73.2 189.3C73.2 189.98 72.9 190.7 72.4 191.37C72.3 190.72 72.6 190 73.2 189.3Z" fill="#959595"/><path d="M151.8 284.1C152.5 284.4 153 284.9 153.4 285.8C152.8 285.53 152.2 285 151.8 284.1Z" fill="#A1A1A0"/><path d="M67.3 220.7C66.9 221.1 66.5 221.2 65.7 221.2C66 220.9 66.6 220.7 67.3 220.7Z" fill="#4A4A4A"/><path d="M502.2 185.5C502.8 185.4 503.4 185.6 504.2 186.1C503.6 186.18 502.9 186 502.2 185.5Z" fill="#6A6A6A"/><path d="M149.8 281.17C150.4 281.4 151 281.9 151.4 282.7C150.8 282.5 150.2 282 149.8 281.17Z" fill="#A1A1A0"/><path d="M154.4 125.2C154.1 125.2 153.9 125.1 153.2 124.9C153.48 124.2 154.1 123.58 155.1 123C155.4 123.1 155.4 123.29 155.2 123.9C154.7 124.5 154.6 124.8 154.4 125.1C154.4 125.1 154.4 125.2 154.4 125.2Z" fill="#7A7A7A"/><path d="M472.31 58.4C472.6 58.2 472.8 58.3 473.4 58.8C473.2 58.9 472.7 58.8 472.31 58.4Z" fill="#7A7A7A"/><path d="M326.5 120.3C326.6 120.2 327 120.2 327.4 120.5C327.2 120.7 326.9 120.6 326.5 120.3Z" fill="#959595"/><path d="M310.4 150.42C310.5 150.2 311 150.1 311.2 150.1C311.3 150.4 311.1 150.7 310.7 151.12C310.4 151 310.4 150.9 310.4 150.42Z" fill="#565656"/><path d="M363.43 114.4C366.3 115.2 369.19 116.3 372.2 117.8C371.1 119.2 369.8 120.35 368.4 121.7C365.7 120.2 360.7 120.5 363.43 114.4Z" fill="#B6B6B6"/><path d="M399.8 135.3C401.3 137.3 402.4 139.7 403.9 142C404.8 143.9 405.3 145.7 406 148.3C401.5 146.84 399.3 144.1 398.2 139.8C398.7 138.2 399.1 136.8 399.8 135.3Z" fill="#D9D9D9"/><path d="M387.5 131C389.18 130.7 390.8 130.8 392.7 130.9C390.9 134.5 389.6 134.6 387.5 131Z" fill="#D9D9D9"/><path d="M134.3 139.5C135.1 139.4 135.9 139.6 136.8 140.2C136.8 141.4 136.5 142.3 136.3 143.1C136.3 143.1 136 143.23 135.4 143.2C134.4 143.1 133.9 143.1 133.4 143C133.7 141.9 134 140.9 134.3 139.5Z" fill="#959595"/><path d="M393.4 131C393.9 130.6 394.7 130.4 395.5 130.3C395.7 131.7 395.9 133.1 396 134.8C395.1 133.9 394.4 132.6 393.4 131Z" fill="#D9D9D9"/><path d="M129.7 151C128.9 150.6 128.4 150 127.8 149.4C129 148.9 130.1 148.3 131.5 148C131.2 149.1 130.5 150 129.7 151Z" fill="#B6B6B6"/><path d="M136.7 143C136.5 142.3 136.78 141.4 137.1 140.3C137.2 140 137.7 139.9 137.9 139.9C137.76 140.9 137.4 141.9 136.7 143Z" fill="#CFCFCE"/><path d="M133.4 143.3C133.9 143.1 134.4 143.11 135.3 143.3C135.6 143.7 135.5 144.1 135.31 144.7C134.6 144.6 134 144.1 133.4 143.3Z" fill="#B6B6B6"/><path d="M117.14 250.9C116.8 251.4 116.2 251.7 115.4 251.9C115.7 251.5 116.3 251.1 117.14 250.9Z" fill="#B6B6B6"/><path d="M187.1 129.8C186.9 130.3 186.4 130.65 185.6 131C185.8 130.56 186.4 130.1 187.1 129.8Z" fill="#B6B6B6"/><path d="M283.3 276C282.4 276.1 281.44 275.8 280.5 275.5C280.8 275 281.1 274.5 281.3 274C282 274.5 282.7 275 283.3 276Z" fill="#FCFCFA"/><path d="M285.15 279.7C284.5 280.1 284 280.2 283.4 280.2C283.5 279.6 283.6 279.04 283.6 278.4C284.2 278.8 284.7 279.1 285.15 279.7Z" fill="#FCFCFA"/><path d="M403.4 249.7C402.6 250.07 401.9 250 401.2 249.5C402 249.1 402.7 249.2 403.4 249.7Z" fill="#010101"/><path d="M302.7 155C300.9 154.6 299.42 154 297.63 153.2C296.42 151.3 295.52 149.5 294.62 147.8C295 147.3 295.3 146.8 295.6 146.4C298.4 148.2 301.1 149.9 304.1 151.9C303.9 153 303.4 153.9 302.7 155Z" fill="#7A7A7A"/><path d="M506.1 257.3C506 252.6 509.6 253.4 512.4 252.9C508.9 252.6 511.6 260.2 506.1 257.3Z" fill="#F8F8F7"/><path d="M117.3 150.3C117.9 150 118.3 150 119 150.1C118.5 151.7 117.7 153.4 116.9 155.1C116.3 154.8 115.8 154.5 115.3 154.3C115.9 153.1 116.5 151.8 117.3 150.3Z" fill="#959595"/><path d="M117.2 148.3C117.4 148.3 117.41 148.6 117.4 148.8C117.2 148.9 117 148.7 116.8 148.58C116.9 148.5 116.9 148.37 117.2 148.3Z" fill="#959595"/><path d="M476.9 282.6C477.2 282 477.8 281.6 478.3 281.2C478.5 281.6 478.7 282 478.9 282.3C478.3 282.5 477.7 282.7 476.9 282.6Z" fill="#565656"/><path d="M474.7 283.45C475 283.5 475 283.7 475.1 283.9C474.9 283.8 474.7 283.7 474.7 283.45Z" fill="#010101"/><path d="M296.6 131.1C295.78 129.4 290.1 129.45 295 126.1C296 127.5 296.6 128.9 297.3 130.7C297.2 131 297 131.1 296.6 131.1Z" fill="#656564"/><path d="M457.2 229.2C457.3 228.1 457.8 227.45 458.3 226.8C458.7 227.2 459 227.6 459.4 228.1C458.8 228.6 458.2 229.1 457.2 229.2Z" fill="#010101"/><path d="M446.1 56.1C446.1 56.6 445.8 57.1 445.4 57.9C443.4 57.9 440.94 58.7 441.4 55.2C441.5 54.6 439.5 53.7 437.14 52.1C440.1 51.6 441.9 51.3 442.7 51.2C444 53.4 444.9 54.7 446.1 56.1Z" fill="#959595"/><path d="M81.19 245C82.9 245.7 84.4 246.1 85.3 247.1C86 247.71 86.3 249.4 85.9 250.1C85.5 250.7 83.8 251 82.9 250.8C80.6 250.2 78.5 249.3 75.9 247.1C77.5 246.4 79.2 245.7 81.19 245Z" fill="#F5F5F4"/><path d="M13.2 157.9C13.9 157.4 14.5 157.3 15.2 157.2C15.2 157.63 15.2 158 15.2 158.5C14.5 158.4 13.8 158.4 13.2 157.9Z" fill="#010101"/><path d="M492.9 209.4C492.9 209.6 492.81 209.72 492.7 209.7C492.6 209.7 492.6 209.6 492.5 209.5C492.6 209.4 492.7 209.3 492.9 209.4Z" fill="#010101"/><path d="M434.3 36.1C434.1 36 434 35.8 433.9 35.6C434 35.6 434.1 35.7 434.3 35.9C434.4 36 434.3 36.1 434.3 36.1Z" fill="#292928"/><path d="M447 60.4C447.5 59.3 448.14 58.3 448.8 57.2C449.2 57.6 449.7 58 450.1 58.3C449.4 59 448.6 59.6 447.4 60.4C447.1 60.5 447 60.4 447 60.4Z" fill="#010101"/><path d="M20.3 187.3C20.4 187.5 20.3 187.6 20.3 187.8C20.2 187.6 20.2 187.5 20.3 187.3Z" fill="#A1A1A0"/><path d="M154.7 125.1C154.6 124.8 154.7 124.5 155.2 124.1C155.3 124.4 155.1 124.7 154.7 125.1Z" fill="#959595"/></svg>