<svg width="148" height="264" viewBox="0 0 148 264" fill="none" xmlns="http://www.w3.org/2000/svg"><path d="M141.9 1C144.2 2.3 145.4 3.1 147 5.2C147.4 8.4 147.4 8.4 147.4 12.1C147.5 13.4 147.5 14.6 147.5 15.9C147 19.2 147 19.2 145.2 21.6C143 23.2 143 23.2 139.4 23.7C136 23.9 136 23.9 134.3 25.8C132.6 29 132.77 31.5 132.8 35.1C132.47 41.6 132.47 41.6 130.48 44.1C128.4 45.4 126.3 46.3 124 47.2C123.3 47.6 122.6 47.9 121.9 48.3C116.9 50.7 111.9 52.1 106.48 53.4C103.8 54.3 102.2 55.5 100 57.2C99.34 57.2 98.68 57.2 98 57.2C98.6 60.9 99.2 64.6 99.9 68.3C100.1 69.9 100.1 69.9 100.4 71.5C101.3 76.6 102.2 81.4 104 86.2C104.66 85.9 105.32 85.5 106 85.2C106.5 83.7 106.5 83.7 107 82.2C109.4 81.3 109.4 81.3 112.4 80.6C115.9 79.8 118 79.2 121 77.2C121.99 77.2 122.98 77.2 124 77.2C127.5 80.8 130.4 85.2 130.6 90.3C129.6 96.5 126.9 101.2 122 105.2C120.5 105.7 120.5 105.7 118.9 106.2C115.8 107.9 115.8 107.9 115.4 110.4C115.1 112.4 114.9 114.4 114.6 116.4C113.8 121.11 112.5 125.42 110.9 129.89C110.7 130.7 110.4 131.5 110.1 132.3C108.1 138.1 108.1 138.1 107 139.2C106.4 145.97 106.9 151.6 109.3 157.9C110.9 163.1 110.7 169.1 109 174.2C108.31 181.1 109.3 187.9 110.3 194.7C110.43 195.5 110.5 196.2 110.7 197C111.4 201.3 112.3 205.4 113.6 209.6C115.2 215.3 115.4 220.6 115.3 226.5C115.3 227.9 115.3 227.9 115.3 229.5C115 246.9 115 246.9 113 253.2C111 254.5 111 254.5 109 255.2C108.7 255.8 108.4 256.44 108.1 257.1C106.4 260.3 104.2 261.5 101 263.2C97.1 263.5 97.1 263.5 94 263.2C93.34 261.9 92.68 260.6 92 259.2C93.1 257.9 94.3 256.6 95.4 255.3C96.1 254.5 96.7 253.8 97.4 253.05C98.2 252.1 99.1 251.1 100 250.2C102.2 235.1 99.4 220.9 96 206.2C95.9 207 95.8 207.9 95.7 208.75C95.3 211.9 94.9 215.1 94.5 218.3C94.28 219.7 94.1 221 93.9 222.4C93 229.5 92.1 236.5 90.7 243.5C90.5 244.6 90.3 245.6 90.2 246.7C89 249.2 89 249.2 86.1 250.9C83.1 251.9 80.1 252.6 77 253.2C75.3 253.9 73.7 254.5 72 255.2C66.6 255.5 66.6 255.5 64 254.2C64 253.2 64 252.2 64 251.2C64.6 251 65.3 250.9 65.9 250.7C67.1 250.3 67.1 250.3 68.4 250C69.6 249.6 69.6 249.6 70.8 249.2C73.5 247.9 73.9 247 75 244.2C75.4 243.4 75.7 242.6 76.1 241.8C77.1 238.9 77.3 236.3 77.5 233.2C77.8 227.7 77.8 227.7 79 225.1C80.4 221.1 80.3 217.4 80.3 213.3C80.3 212.4 80.4 211.5 80.4 210.6C80.4 208.6 80.4 206.7 80.4 204.8C80.5 201.7 80.5 198.7 80.5 195.6C80.7 186.9 80.8 178.2 80.9 169.5C80.9 164.2 81 158.8 81.1 153.5C81.1 151.5 81.2 149.5 81.2 147.4C81.2 136.5 81.4 127.9 87 118.2C87.6 116.2 87.6 116.2 88.1 114.3C89.1 110.8 90.5 108.8 93 106.2C93.66 106.2 94.32 106.2 95 106.2C94.7 105.2 94.3 104.1 94 103.1C90.9 92.9 88.6 82.8 87 72.2C84.9 76.3 83.5 79.6 83 84.2C80 81.2 80.4 78.4 80 74.2C78.9 74.4 77.8 74.5 76.7 74.7C73 75.2 73 75.2 70 75.2C70.33 72.2 70.66 69.3 71 66.2C69.02 67.2 69.02 67.2 67 68.2C64.7 68.2 64.7 68.2 62.3 68C61.5 67.9 60.7 67.8 59.9 67.7C59.3 67.5 58.7 67.4 58 67.2C57.67 66.5 57.34 65.9 57 65.2C57.66 65.2 58.32 65.2 59 65.2C59 64.5 59 63.9 59 63.2C57.8 63.3 57.8 63.3 56.6 63.3C54 63.2 54 63.2 52 61.2C50.5 57.9 49.1 54.6 48 51.2C48.99 51.2 49.98 51.2 51 51.2C51.33 49.6 51.66 47.9 52 46.2C53.98 45.7 53.98 45.7 56 45.2C56 43.9 56 42.6 56 41.2C54 39.5 52.1 38.1 49.8 36.8C49.2 36.4 48.5 36 47.9 35.6C38.6 30 29.6 27 18.9 25.7C16.4 25.3 14.5 24.7 12.25 23.6C8.2 21.8 4.4 21.5 0 21.2C1.7 17.4 3.1 15.9 7 14.2C10.8 13.9 13.4 14 17 15.2C16.67 13.9 16.34 12.6 16 11.2C17.5 12.1 18.9 13.1 20.4 14C21.2 14.5 22 15.1 22.8 15.6C25 17.2 25 17.2 27 20.2C29.7 20.6 32.3 20.9 35 21.1C41.4 21.7 46.2 22.7 51.8 26C58.9 29.9 66.8 31.4 74.9 31.2C76 31.2 77.1 31.2 78.2 31.2C80.4 31.2 82.7 31.1 85 31.1C86.1 31.1 87.1 31.1 88.3 31C89.2 31 90.2 31 91.2 31C94.2 31.2 96.3 32 99 33.2C102.33 33.6 104.8 33.9 107.7 32.2C109.9 30.4 111.7 28.7 113 26.2C109.37 26.2 105.74 26.2 102 26.2C102 24.9 102 23.6 102 22.2C99.69 21.5 97.38 20.9 95 20.2C95 19.2 95 18.2 95 17.2C101.95 16.9 108.2 17.6 115 19.2C115 17.6 115 15.9 115 14.2C116.32 13.5 117.64 12.9 119 12.2C118.5 10.7 118.5 10.7 118 9.2C125 1.6 131.6 -1.9 141.9 1Z" fill="#060606"/></svg>