<svg width="98" height="1040" viewBox="0 0 98 1040" fill="none" xmlns="http://www.w3.org/2000/svg">
<g clip-path="url(#clip0_229_9355)">
<path d="M97.5999 449.4C97.5999 449.4 97.4999 449.8 97.5999 450.4C97.5999 645.67 97.5999 840.3 97.6999 1035.02C97.6999 1036.68 97.7999 1038.34 97.8999 1040C65.4999 1040 33.1999 1040 0.499875 1039.56C0.299875 1037.79 0.299875 1036.46 0.299875 1035.13C0.299875 848.1 0.299875 661.1 0.299875 474.1C0.299875 466.1 0.099875 458.1 0.199875 450C0.599875 449.6 0.799875 449.3 1.29987 449.09C13.0999 449.1 24.3999 449.1 35.6999 449.1C56.2999 449.2 76.9999 449.3 97.5999 449.4Z" fill="#030201"/>
<path d="M0.9 0C32.6 0 64.2 0 96.7 0.4C97.4 2.6 97.5 4.5 97.5 6.3C97.5 67.4 97.5 128.5 97.5 189.6C97.5 191.5 97.7 193.3 97.7 195.4C97.7 196.5 97.8 197.2 97.7 198.3C95.9 199.11 94.2 199.9 92.6 199.9C63.6 199.99 34.7 200 5.7 200C4.1 200 2.5 200 0.5 200C0.5 197.8 0.5 196.32 0.5 194.8C0.5 131.4 0.5 67.9 0.5 4.4C0.5 3 0.7 1.5 0.9 0ZM70 26.4C71.5 25.5 72.9 24.7 74.7 23.5C66.4 18.8 58.8 14.5 51.1 10.2C50.2 9.7 48.5 9.4 47.6 9.9C39.5 14.2 31.6 18.8 22.8 23.7C27.6 26.3 31.5 28.4 35.8 31C39.3 32.9 42.7 35.1 46.3 36.7C47.8 37.4 50.2 37.4 51.6 36.7C57.7 33.5 63.5 30 70 26.4ZM36.8 68C36.8 68 36.7 68 37.1 68.6C40.1 70.3 43.1 72.1 46.2 73.8C47.3 74.3 49 75.1 49.8 74.6C58.1 70.2 66.2 65.6 75 60.6C66.3 55.7 58.5 51.3 50.6 47C49.8 46.5 48.3 46.4 47.5 46.8C39.5 51.2 31.5 55.8 22.7 60.7C28 63.5 32.4 65.8 36.8 68ZM53.7 146.5C60.6 142.6 67.5 138.8 75 134.6C66.4 129.8 58.7 125.3 50.8 120.97C49.9 120.5 48.4 120.2 47.6 120.7C39.5 125.1 31.5 129.7 22.9 134.6C31 139.1 38.4 143.1 45.7 147.52C48.7 149.3 50.8 149 52.9 146.4C52.9 146.4 52.9 146.5 53.7 146.5ZM38.8 180C38.8 180 38.7 180.1 39.1 180.6C41.5 182 43.9 183.6 46.5 184.7C47.8 185.3 49.8 185.6 50.9 185C58.8 180.8 66.5 176.29 74.9 171.5C66.4 166.7 58.5 162.2 50.6 157.9C49.6 157.4 47.9 157.4 47 157.9C39.1 162.3 31.3 166.81 22.8 171.7C28.5 174.7 33.6 177.4 38.8 180ZM33.6 103.7C37.8 106.1 42 108.5 46.2 110.7C47.4 111.3 49.3 111.94 50.2 111.4C58.4 107.1 66.3 102.46 74.9 97.6C66.4 92.8 58.7 88.3 50.8 84C49.9 83.5 48.2 83.4 47.3 83.9C39.3 88.3 31.4 92.8 23 97.6C26.7 99.7 29.8 101.5 33.6 103.7Z" fill="#050403"/>
<path d="M0.599219 246.411C0.299219 244.901 0.399219 243.801 0.399219 242.101C0.299219 241.301 0.299219 241.201 0.199219 241.041C0.299219 230.401 0.299219 219.801 0.299219 208.801C1.19922 207.301 2.29922 205.201 3.39922 205.201C34.2992 205.101 65.2992 205.201 96.2992 205.201C96.3992 205.201 96.4992 205.401 96.9992 205.801C96.9992 219.401 96.9992 233.301 96.9992 247.401C95.2992 247.501 93.8992 247.711 92.3992 247.701C63.3992 247.701 34.4992 247.701 5.49922 247.701C3.89922 247.701 2.39922 247.141 0.599219 246.411Z" fill="#030201"/>
<path d="M50.9984 379.9C50.9984 348.1 50.8984 316.5 50.8984 284.9C50.8984 274.4 50.8984 264 50.8984 253.1C66.3984 253.1 81.5984 253.1 97.1984 253.1C97.1984 295.1 97.1984 337.1 97.1984 379.78C81.9984 379.78 66.9984 379.78 51.4984 379.8C51.0984 379.8 50.8984 380 50.9984 379.9Z" fill="#030201"/>
<path d="M0.0999985 379.9C0.0999985 348.1 0 316.5 0 284.9C0 274.4 0 264 0 253.1C15.5 253.1 30.7 253.1 46.3 253.1C46.3 295.1 46.3 337.1 46.3 379.78C31.1 379.78 16.1 379.78 0.599998 379.8C0.199998 379.8 -1.52737e-06 380 0.0999985 379.9Z" fill="#030201"/>
<path d="M97.6 389.88C97.6 404.8 97.6 419.3 97.5 434.5C97.5 436.3 97.6 437.3 97.7 438.3C97.7 439.6 97.6 440.9 97.6 442.5C96 443.4 94.4 444.2 92.7 444.2C63.5 444.3 34.2 444.3 5 444.3C2.8 444.3 0.4 444.81 0.3 441C0.2 424.4 0.3 408.1 0.4 391.2C0.4 390.3 0.3 390.2 0.25 390C0.3 388.5 0.4 387 1 385C2.3 384.6 3.1 384.5 3.8 384.4C4.2 384.44 4.7 384.5 5.5 384.51C31.5 384.6 57.1 384.7 82.8 384.7C87.4 384.7 92.1 384.7 97 384.7C97.2 386.6 97.3 388 97.6 389.88Z" fill="#030201"/>
</g>
<defs>
<clipPath id="clip0_229_9355">
<rect width="98" height="1040" fill="white"/>
</clipPath>
</defs>
</svg>
