<svg width="383" height="373" viewBox="0 0 383 373" fill="none" xmlns="http://www.w3.org/2000/svg"><path d="M304.2 31.8C303 39.2 302.13 46.1 300.7 52.9C300.2 55 298.7 57.5 296.88 58.7C263.2 81.7 229.5 104.6 195.8 127.5C193.4 129.2 191.7 129.3 189.3 127.6C154.8 105 120.3 82.4 85.9 59.7C84.2 58.5 82.7 56.3 82.2 54.3C79.6 44.5 77.4 34.6 74.9 23.7C151.6 -6.3 228.2 -9.2 305.6 22.9C305.1 25.9 304.7 28.7 304.2 31.8ZM132.9 44.4C152.4 58 171.9 71.6 191.5 85.3C212.8 70.7 233.9 56.2 255.8 41.2C212.9 41.2 171.1 41.2 128.42 41.2C130.2 42.5 131.3 43.2 132.9 44.4Z" fill="#7F7D80"/><path d="M159.5 241.8C159.5 256.9 159.5 271.6 159.5 286.7C180.4 286.7 201.1 286.7 222.1 286.7C222.1 257.4 222.1 228.1 222.1 198.3C223.7 198.9 224.97 199.2 226.1 199.7C239.4 205.37 252.7 211.1 266.1 216.6C268.7 217.67 269.4 219 269.4 221.7C269.3 263.4 269.3 305 269.2 346.71C269.2 348.5 267.98 350.8 266.6 352.04C259.8 358.5 252.69 364.8 245.2 371.6C240.7 359.5 236.4 348 232.2 336.6C230.4 331.8 228.53 326.95 226.9 322.1C226.2 319.7 225.1 318.6 222.4 318.6C202.4 318.7 182.4 318.7 162.4 318.6C159.7 318.6 158.79 319.7 157.9 322C152.1 336.5 146.2 351 140.4 365.4C139.7 367.1 139 368.7 138.2 370.75C130.1 363.7 122.4 357.16 114.9 350.4C113.9 349.57 113.3 347.9 113.3 346.6C113.1 304.2 113.1 261.9 113 219.6C113 219.3 113.2 218.9 113.4 218.2C128.3 211.7 143.4 205 159.5 198C159.5 212.9 159.5 227.1 159.5 241.8Z" fill="#7F7D80"/><path d="M226.6 165.2C229.5 147.1 232.13 129.5 235.1 112C235.4 110 236.9 107.8 238.5 106.6C259.9 91.9 281.4 77.5 302.8 62.7C304.8 61.3 306.51 58.5 307 56.1C309.1 45.6 310.6 34.9 312.5 23.9C335.65 21.8 358.8 19.6 382.3 17.4C377.8 39 373.4 59.9 368.9 80.8C365.3 97.9 361.7 115 357.8 132C357.3 134.4 355.6 137.2 353.5 138.64C338.3 149.7 322.8 160.2 307.6 171.4C301.9 175.6 295.6 176.6 289.1 177.9C268.6 182.3 248.2 186.7 227.7 191.1C226.4 191.4 225.2 191.6 222.7 192C224 182.8 225.3 174.2 226.6 165.2ZM303.2 123.3C286.6 134.35 270 145.5 253.2 156.3C249.1 158.9 248.5 161.8 249.5 166.4C250.8 165.6 251.8 165 252.7 164.4C278.4 147.5 304 130.56 329.8 113.91C334.2 111.1 336 108.1 334.5 102.7C324.2 109.5 314 116.2 303.2 123.3ZM306.1 94.2C317.6 86.6 329 78.8 340.7 71.5C344.69 69 346.2 66.2 344.8 61.5C343.7 62.1 342.8 62.6 341.8 63.2C316.1 79.8 290.5 96.6 264.7 113C260.4 115.7 259.3 118.6 260.7 123.6C275.7 113.9 290.6 104.2 306.1 94.2Z" fill="#7F7D80"/><path d="M156.2 190.1C132.4 185 108.7 180 85 174.81C82.5 174.3 79.9 173.2 77.8 171.8C60.9 160.6 44.1 149.2 27.3 137.7C25.7 136.62 23.9 134.74 23.6 132.94C15.6 94.6 7.9 56.1 0 17C8.6 18 16.9 18.9 25.2 19.8C38.5 21.3 51.7 23 64.9 24.4C67.5 24.7 68.5 25.7 69.1 28.2C71.3 38.6 73.7 48.9 76.3 59.2C76.8 61 78.5 62.8 80.2 63.9C100.8 77.6 121.4 91.4 142.4 104.5C147.5 107.8 148.6 112.04 149.3 116.9C151.6 133.1 153.56 149.4 155.7 165.7C156.5 171.8 157.2 177.93 158.2 184C158.5 186 159.5 187.9 160.1 190.1C158.7 190.3 157.4 190.2 156.2 190.1ZM38.1 68.7C39.3 69.7 40.3 71 41.7 71.9C62.5 85.6 83.4 99.2 104.33 112.8C110.4 116.7 116.5 120.6 122.5 124.5C124.3 118.7 121.7 115.83 117.2 113C92.8 97.5 68.6 81.6 44.3 65.9C42.4 64.7 40.5 63.6 38 62.1C38 64.5 38 66.2 38.1 68.7ZM80.2 132.2C98 143.96 115.8 155.7 133.6 167.4C134.1 167.1 134.5 166.8 135 166.4C134.07 164 133.8 160.9 132.08 159.4C128.3 155.9 123.9 153.1 119.7 150.3C101.1 138 82.5 125.8 63.9 113.6C59.2 110.5 54.5 107.5 49.7 104.4C48.9 111.9 48.9 111.9 54.5 115.5C62.9 121 71.2 126.4 80.2 132.2Z" fill="#7F7D80"/><path d="M106.3 322.8C106.3 330 106.3 336.77 106.3 344.5C95.6 335.9 85.7 327.9 75.8 319.9C66.2 312.1 56.6 304.5 47.1 296.6C45.65 295.36 44.3 293.2 44.1 291.4C40.7 246.6 37.5 201.8 34.3 157C34.2 155.1 34.3 153.1 34.3 150.6C48.9 160.4 63.1 169.89 77.1 179.6C78.3 180.4 78.8 183.2 78.6 184.9C77.3 192.9 80.3 198.1 87.3 202.3C93.8 206.2 101.9 210.1 105 216.2C108.2 222.4 106.1 231.18 106.1 238.8C106.2 266.6 106.3 294.5 106.3 322.8Z" fill="#7F7D80"/><path d="M340.1 261.75C339.4 271.7 338.7 281.1 337.9 290.6C337.8 292.1 337.1 293.96 336 294.9C316.4 311.6 296.7 328.2 276.4 345.3C276.3 343.75 276.2 342.9 276.2 342C276.1 301.5 276.2 261 276.1 220.54C276.1 217.3 276.97 215.4 279.7 213.7C286.9 209.2 293.8 204.3 301 199.79C303.4 198.3 304.6 196.5 304 193.7C302.1 184.6 306.4 179.3 313.9 174.6C325.7 167.2 336.7 158.7 348.8 150.2C345.9 187.8 343 224.5 340.1 261.75Z" fill="#7F7D80"/><path d="M156.2 120.8C156.1 118.8 156 116.9 155.8 113.7C168.4 122 180.3 129.9 192.49 137.9C203.9 130.2 215.26 122.5 227.5 114.2C225.9 124.83 224.4 134.6 222.9 144.3C220.4 160.5 217.8 176.8 215.3 192.99C215.08 194.1 215.2 195.3 215.2 196.5C215.2 223 215.2 249.4 215.2 275.9C215.2 277.2 215.1 278.5 215 280C198.8 280 182.9 280 165.8 280C168.3 227.3 166.28 175.1 156.61 122.9C156.39 121.9 156.3 121.3 156.2 120.8Z" fill="#7F7D80"/><path d="M155.2 346.9C157.68 340.7 160.2 334.9 162.3 328.9C163.3 326.3 164.6 325.5 167.4 325.6C184 325.7 200.7 325.6 217.3 325.7C218.8 325.8 221.2 327 221.7 328.2C227.4 342.9 232.7 357.7 238.4 372.9C207.1 372.9 176.3 372.9 144.8 372.9C148.4 364.1 151.7 355.7 155.2 346.9Z" fill="#7F7D80"/></svg>