<svg width="248" height="220" viewBox="0 0 248 220" fill="none" xmlns="http://www.w3.org/2000/svg"><path d="M86.1 159.4C82.5 153.8 82.8 153.4 89.2 151.8C91.9 151.1 94.3 149.17 97.3 150.7C98.2 148.6 95 148.5 96.4 146.1C96.1 146.3 96.4 145.8 96.8 145.7C99.8 145.2 102.4 147.3 105.5 146.8C106.7 146.6 107.4 148.2 107.1 149.4C106.3 152.54 104.1 149.4 102.7 150.2C102.2 152.5 106.1 154.7 102.8 156.9C100.8 157.3 100.7 154.3 98.8 154.6C97.7 160.7 100.8 166.3 100.9 172.5C102.6 171.9 103.6 169.5 105.89 170.5C107 172.6 104.7 172.3 104 173.19C104.3 174.6 105.4 175.3 106.53 175.8C107.5 175.8 107.8 175.2 107.8 174.53C107.8 172.13 109.13 171.4 111.3 171.5C114.2 171.6 113.9 173.4 113.7 175.4C113.5 177.4 114.6 178.5 116.6 178.5C121.1 178.6 125.4 178 129.7 176.9C132.6 176.1 134.5 174.11 135.7 170.6C131.6 171.7 128.9 174.9 123.6 174.6C122.6 174.2 123 171.5 121.9 169.7C121 168.2 121.8 165.9 118.8 165.4C117.2 165.1 119.3 158 121.74 157.7C127.8 156.9 126.7 152.7 126.4 148.9C125 150.7 126.4 153.5 124.3 155.15C121.7 157.1 120 155.1 118.1 154C117.7 154.1 117.3 154.2 117.1 154.4C115.09 156.3 113.2 159.3 110 157.48C107.1 155.8 107.8 152.4 108.3 149.7C109 145.5 110.4 141.6 114.7 139.7C118 138.3 117.8 135.1 118.1 132.5C119.4 124.2 122.4 121 130.6 120.5C133 120.3 135.2 119.8 137.3 118.8C138.83 118.11 140.4 117.3 141.8 118.6C143.23 120.3 140.6 121.3 141.4 123C146.4 123.5 151.4 124.7 157.1 124.5C154.4 119 148 113.49 157.4 108.29C154.9 107.7 152.8 109 150.5 109.2C151.2 113.7 149.3 116.1 144.6 116.7C141.9 117 139.2 116.9 136.6 116.7C134.5 116.5 131.82 116.8 131.4 113.9C131 111 134.4 112 136 110.23C116.9 112.11 98.5 110.7 80.1 108C81.3 101.8 86 101.8 90.2 100.8C91.1 103.8 88.5 103.9 87.2 105.4C98.9 106.5 110.4 107.5 122.6 108.7C120.1 106.5 116.7 108.2 114.9 105C119.7 101.8 125.4 104.8 130.5 102.4C126.6 100.7 122.1 102.2 118.3 99.2C125.9 96.2 133.2 99.1 140.2 97.9C129.7 95.2 119 97.6 107.3 97.5C110.8 93 115.3 93.9 118.6 92.2C119.3 91 117.2 90.3 118.4 88.7C124.3 86.7 130.4 91.3 137.2 88.8C134.7 86.5 131.7 86.6 129 86.1C126.1 85.5 123.1 85.2 120.2 84.2C124.01 81.3 128.2 82.8 132.6 82.4C125.21 79.1 118.8 73.9 110.7 71.7C122.9 70.2 134.5 73.3 145.9 76.6C157.9 79.9 167.6 86.5 174.5 98.5C174.18 94.2 173.9 91.1 173.7 88C169.4 87.9 168 83.3 164.2 82.5C156.3 80.7 150.9 74.3 143.8 71C139.2 68.9 134.7 67 129.5 67.7C128.54 67.8 126.99 67.7 126.7 67.1C124.7 63.7 121.6 64.2 118.81 64.8C116.7 63.6 119 61.8 117.7 60.5C115.9 59.7 113.8 59.7 112 60.5C103.93 63.9 94.6 63.9 87.3 69.4C86.1 70.3 84.9 70.7 83.9 69.2C82.7 67.3 83.9 66.4 85.3 65.6C93.4 60.7 102.1 57.6 111.5 56.6C129.2 54.7 145.5 59.5 160.66 68.4C165.3 71.2 169 75 171.6 80C175.2 78.5 176.4 74.3 180.1 73.1C181 75.8 177.4 77.3 179.1 80.1C184.2 78.1 187.26 73.1 192.5 70.1C192.3 75.7 186.8 76.9 186.1 81.9C191 78.5 194.5 74.2 198.4 70.4C199.4 69.5 198.9 68.1 197.9 67.4C195.8 65.8 194 63.4 190.95 64.3C190 64.5 189.2 65 187.8 65.6C189.7 58 181.1 58.9 179.4 53.9C181.4 51.5 183.34 50.6 186.2 53.3C188 54.9 190.4 56 192.7 56.9C200.02 59.9 204.2 66.3 210 71.6C210.2 71.7 210.2 71.7 210.2 71.7C210.7 73.2 209.84 75.7 213 75.3C214.8 75.1 214.4 76.8 214.5 77.9C214.5 79.2 214.2 80.6 212.9 81.3C211.6 82 210.7 81 209.9 80.2C207.9 78.5 206.6 76 203.6 74.4C192.6 85.2 183.5 98.1 170.54 108.3C175.3 110.5 176.4 113.9 176.6 117.85C176.7 118.8 177.1 119.8 177.5 120.7C179.4 125.3 184.8 128.72 181.2 135.2C180.3 136.8 182.8 140.4 182.5 143.3C182.1 146.3 184 148.6 184.6 151.15C183.2 153.1 182.2 150.6 180.8 151.2C180.9 151.6 180.8 152.1 180.9 152.5C183.2 157.3 184.43 162.3 183.2 167.5C182.7 170 184.5 170.71 186 171.7C205.1 184.7 224.1 197.9 243.9 209.9C245 210.5 246.3 211 247.1 213.1C221.6 218.2 203.5 202.6 184.2 191.31C180.9 194.5 184.6 198.6 181.7 201.7C178.8 196.9 181.1 190.6 176.7 186.1C174.8 188.8 175.3 191.2 175.8 193.3C177.1 198 175.6 201.9 173.6 205.9C171.3 210.3 172.8 214.7 174.1 219.3C173.2 219.7 172.1 219.7 170.6 219.7C169.3 211.5 167.9 203.3 167.56 195C167.4 190.3 165.2 186 160 184.1C157.4 183.1 158.7 179.9 157.23 177.7C150.2 188.5 141.6 197.2 130.8 202.9C126.6 194.6 132.2 190.6 137.3 185.8C141.7 182.3 142.4 175.1 149.5 175.93C149.68 175.9 150 174.5 150.5 173.5C154.75 169.9 152.9 162.01 160.4 161.3C157.2 161.4 153.1 159.9 152.8 164.7C152.6 168 151.2 170.8 149.9 173.9C142.4 174.8 138.9 179.3 137.24 185.7C135.3 186.6 133.9 184.9 132.2 184.5C132.2 192.1 129 194.6 121.88 192.55C119.9 192 118 192.2 116 192.7C112.8 193.5 112.7 193.4 109.5 190.6C109.3 188.8 112.5 188.2 111.5 186.3C106.89 185.2 102.9 183.7 100.2 179.9C99.4 178.7 98.9 177.1 97.4 176.6C94.1 175.7 93.2 173.2 92.4 170.4C91.4 167.2 90.1 164.2 87.2 161.3C86.5 160.4 86.3 159.9 86.1 159.4ZM151.6 135.5C148.6 137.98 145.6 140.4 142.6 142.9C145.6 144.6 148.5 141.68 151.39 143.3C151.39 144.1 151.6 144.8 151.4 145.3C150.6 147.1 150.7 148.6 152.1 149.9C153.8 151.5 155.5 150.3 157.1 149.5C159.4 148.41 161.7 147.13 163.9 145.9C163.4 143.8 162 143.2 160.5 143.7C157.82 144.7 156 145.6 154.2 141.9C152.9 139.1 152.7 137 153.99 134.5C155 132.6 155.9 130.6 157.2 127.9C154.1 130.1 153.8 133 151.6 135.5Z" fill="black"/><path d="M85.7 159.6C86.3 159.9 86.5 160.4 86.9 161.1C86.5 167.2 88.6 172.5 90.6 177.7C91.7 180.7 91.2 182.53 88.5 184.4C77.6 192 66.1 198.7 54.5 205.2C44.4 210.9 33.1 212.3 21.8 212.75C19.4 212.9 16.9 212.5 14.7 211.4C14.7 209.4 16.2 209 17.3 208.4C31.9 200.1 46 191 60.1 181.8C61.8 180.7 63.3 178.1 66.1 180.4C67 181.1 68.8 179.6 68.8 178.9C69.2 173.4 74 172 77.4 169.4C80.9 166.8 83.7 163.76 85.7 159.6Z" fill="black"/><path d="M44.5 49.5C48.1 48.8 49.5 45.2 53 43.9C50.5 40.3 54.4 34.5 47.3 33.2C50.6 30.4 53.5 31.4 55.1 33.6C57.1 36.4 59.8 37.5 62.7 38.8C64.5 39.6 66.5 40.7 65.9 43.2C65.3 45.5 63.2 45.8 61.1 46C59 46.2 56.8 45.3 54.9 46.9C54.6 48.8 56.1 49.6 56.8 50.9C57.7 52.2 59.5 53 57.9 55.5C56.8 57.3 59.9 59.4 61 59.6C68.6 60.3 70.2 68 75.3 71.5C76.2 72.1 76.7 73.3 76 74.1C72.1 78.2 71.2 83.9 68 88C65.8 88.2 64.9 86.8 63.9 85.8C56.5 77.9 49.1 70 41.7 62.2C35.9 56.1 35.9 56.1 43.1 50.8C43.9 50.1 44.2 49.8 44.5 49.5Z" fill="black"/><path d="M44.6 49.2C44.2 49.8 43.9 50.1 43.31 50.6C34.6 47 25.8 50.1 16.3 48.8C20.2 52.9 24.3 52.3 28.4 52.4C31 52.6 35.3 51.4 35.2 55.2C35.1 59 30.7 59 27.6 58.9C13.6 58.4 -0.6 43 0 29.1C0.4 20.8 4.8 14.8 11.8 10.6C13.7 9.4 16.2 9 17.4 11.5C18.7 14 16.3 14.9 14.6 15.8C6.1 20.8 3.5 27.2 7.1 34.5C10.5 41.4 19.8 44.1 27.9 40.5C29.2 39.9 30.5 39 32.2 37.9C34.1 37 35.6 36.4 37.1 35.9C39.6 35.4 42.2 34.2 44.8 35.5C46.9 36.5 49.1 37.7 48.9 40.4C48.8 43.6 45.9 42.6 44 43.1C44.2 45.1 45.6 46.8 44.6 49.2Z" fill="black"/><path d="M81.6 139.5C81.8 142.6 84.8 145.1 82.6 148.4C80.1 147.1 81 144.7 80.1 143.1C79.2 141.4 78.8 139.3 78.1 137.3C75.9 139.2 76.8 140.8 78 142.4C79.9 144.9 80.2 147.5 78.5 150.3C76.8 153.2 77.4 156.4 78.3 159.5C79.7 164.4 76.9 168.1 72.3 166.4C69.8 165.5 68.7 166.44 67.2 167.5C65.2 165.4 66.3 163.44 66.7 161.6C67.8 157.1 67.9 152.5 67.2 148C67 146.6 67 145.1 67.9 144.1C74.2 137.4 70.7 130.2 68.9 123.1C68.2 120.3 68.2 118.3 70.8 116.7C74.8 114.2 75.1 109.4 71.6 106.5C66.5 102.1 67.7 88.4 74.4 84.2C73.3 91 71.8 97.2 74.2 103.5C74.2 99.3 73.8 95.1 74.3 91C74.8 87.2 74.6 82.5 79.8 81.1C81.5 83.3 80.4 85.2 79.9 87C78.2 93.2 77.1 99.4 77.5 105.79C77.7 108.1 76.1 111 80.2 112C81.4 112.3 80.7 115.34 80 117.32C76.1 116.7 74 118 74.9 122.1C76.8 123.4 77.4 120.2 79.1 121.5C76.7 127.8 79.8 133.33 81.6 139.5Z" fill="black"/><path d="M218.2 36.8C220.5 34.7 222.2 33 220 29.3C217.87 25.8 220.6 23.3 223.9 21.9C225.4 23.4 223.8 25 225.1 27C225.9 23.3 228 21.56 231.3 22.7C235.26 24.2 237.1 27.5 237.5 31.6C237.8 34.8 236.4 37.4 233.3 38.1C228.7 39.1 226 42.5 223.3 45.7C219.7 50.1 216.5 54.8 212.96 59.1C211 61.5 210.8 63.5 211.9 66.3C212.6 67.9 215.2 70.7 210.6 71.7C210.2 71.7 210.23 71.7 210.2 71.7C207.6 61.4 200.5 55.8 190.2 53.3C194.4 51.2 197.8 54.3 201.4 53.6C205.5 52.8 207.6 49.5 210.2 45.9C213.1 42.5 215.6 39.6 218.2 36.8Z" fill="black"/><path d="M103.9 122.4C103 122.6 102.34 122.7 101.7 122.8C106.8 124.9 106.8 124.8 111.44 123.6C114.6 122.8 114.9 125.8 116.8 126.7C114.9 129.9 112.28 128.66 110.05 129C109 130.8 108.24 132.9 106.95 134.5C105.7 136.1 104.7 138.9 101.8 135.5C100 133.5 97.9 136.1 96.4 137.5C94 139.7 92.5 143.7 87.9 141.3C84.7 139.7 80 131.8 80.3 128.4C80.6 126.4 82.2 125.8 83.7 125.1C87.4 123.44 91.5 123.6 95.4 122.5C95.6 120.7 92.8 120.8 93.2 119C95.7 117.6 103.5 118.2 105.09 120.04C106 121.1 105.2 121.8 103.9 122.4Z" fill="black"/><path d="M37.3 35.6C35.6 36.4 34.1 37 32.4 37.7C30.3 38.3 28.5 39.2 27 36.9C22.8 30.5 18.8 24.1 13.3 18.4C16.5 15.8 20.18 14.3 20.2 10C26.4 12.4 39 24.5 43.4 32.1C42.1 34.3 39 33.4 37.3 35.6Z" fill="black"/><path d="M93.9 82.08C93.2 73.5 95.6 70.2 101.8 70.9C105 71.3 106.6 72.8 104.3 75.8C102.1 78.8 101.3 82 101.5 85.6C101.7 87.7 101.3 89.7 99.2 90.8C96.8 92 94.3 93.4 96.3 96.3C98.5 99.5 99.9 95.1 102.2 95C102.83 97.9 101.5 99.9 99.1 101C97.2 101.9 95.4 101.4 94.1 99.85C92.3 97.8 91.1 95 93 93.1C96.5 89.5 94.6 86.07 93.9 82.08Z" fill="black"/><path d="M95.8 189.1C94.7 187.4 92.7 186.4 93.6 184.2C95.4 184 95.7 185.7 96.7 186.4C97.8 187.2 98.24 189.6 100.5 187.5C101.2 186.9 104.5 186.9 103 190.4C102.2 192.4 104.96 193.5 106.1 193.6C109.2 193.7 110.2 195.3 111.5 197.61C114.3 202.2 122.1 202.2 124.4 197.8C126.1 198.6 127.8 199.3 127.2 201.6C126.7 203.6 125.1 203.9 123.4 204.1C115.8 205.2 109.27 203.2 103.9 197.6C101.3 194.8 98.7 192.1 95.8 189.1Z" fill="black"/><path d="M5.1 6.1C5.2 2.2 7.2 -0.1 10.6 0C15.6 0.2 16.5 4.5 18.3 8.4C14.4 9.1 10.8 9.1 7.6 11.4C6.6 9.4 5.9 7.9 5.1 6.1Z" fill="black"/><path d="M218.3 36.5C215.6 39.6 213.1 42.5 210.3 45.6C207.2 47.8 205.7 51.6 201.1 51.6C204.6 47.8 208 43.9 211.4 40.1C213.1 38.2 214.6 36.2 216.6 34.7C218.6 33 218.6 34.7 218.3 36.5Z" fill="black"/><path d="M86.3 81.7C84.7 81.5 82.9 82 81.9 80.2C84.1 76.7 88 75 92.7 75.9C91.4 78.7 87.9 78.7 86.4 81.4C86.23 81.7 86.3 81.7 86.3 81.7Z" fill="black"/><path d="M86.22 81.7C87.6 81.6 88.9 80.4 90.4 81.5C88.6 85 85.6 87.6 81.3 89.2C79.9 84.9 84.5 84.6 86.1 82C86.3 81.7 86.2 81.7 86.22 81.7Z" fill="black"/><path d="M89.5 145.3C91.3 145.5 92.6 145.9 92.7 147.5C92.9 148.7 91.8 149.14 90.9 149.4C88.1 150.3 86.8 148.4 85.4 146.8C86.2 144.4 87.8 145.3 89.5 145.3Z" fill="black"/><path d="M115.7 161.2C113.3 166.1 111.8 164.04 110.18 160.7C112.2 159.2 114 158.6 115.7 161.2Z" fill="black"/></svg>