<svg width="144" height="183" viewBox="0 0 144 183" fill="none" xmlns="http://www.w3.org/2000/svg"><path d="M48.3 2.6C43.9 6.2 39.8 17.9 42 20.6C43 21.6 44.4 22.6 45.4 22.6C46.4 22.6 48.2 24.43 49.2 26.7C51.2 30.6 51.2 31.1 49 32.7C47.5 33.8 44.8 34.2 41.8 33.6C38.6 33.2 36.7 33.4 36.7 34.3C36.7 35.1 33.9 37.5 30.4 39.8C7.4 54.7 1.4 58.8 0.3 60.6C-1 63.1 2.4 70 6 71.9C7.6 72.7 9.9 73.1 11.2 72.6C15.4 71.2 18.3 73.2 17.5 76.7C16.7 79.5 17 79.8 20.3 79.1C23.4 78.6 24.3 79.1 25.8 82C27.9 86.8 27.8 88.8 25.6 90.2C21.8 92.4 19.5 98.3 18.7 108.6C17.8 118.7 17.9 119.4 21 122.2C22.7 123.8 26.6 125.63 29.4 126.3L34.7 127.4L34.2 148.7L33.8 169.9L38.6 175.5C41.2 178.43 43.7 181.7 43.7 182.2L59.9 182.2H73.2C72.9 182 73.6 180.3 74.8 177.1C76 173.9 77 169.8 77 167.9C77 166.03 77.2 159.63 77.6 153.5L78.3 142.6H82.6C85 142.6 88.7 141.9 90.8 141.23L94.7 139.9V122.2L94.6 104.6L99.8 99.1L105 93.5L117.2 97.4C123.9 99.6 132.3 102.3 135.8 103.5C142.7 105.8 143.9 105.5 142.6 102.03C142 100.6 141.4 100.3 140.8 101.1C140 102.3 135.1 100.43 106.4 87.8L100.7 85.4V77.4C100.7 72.7 99.8 67.1 98.3 63.6C97 60.4 95.1 54.8 94 51.2C93.1 47.5 90.8 42.7 89.2 40.3C87.5 38 86 35.2 86 34.3C85.9 33.2 85.2 33.5 84 35.1C82.3 37.4 82 37.4 81.2 35.5C80.7 34.2 78 33.1 73.2 32.4C65.2 31.5 63.8 30.4 66.8 27.8C68 26.8 69.5 24.7 70 23.1C71.2 20 69.6 10.6 67.2 5.8C64.2 -0.2 54 -2 48.3 2.6ZM68.7 23.8C68.7 24.4 67.8 25.6 66.7 26.6C65 27.9 64.7 27.8 64.7 25.4C64.7 23.8 65.5 22.6 66.7 22.6C67.8 22.6 68.7 23.1 68.7 23.8ZM31.1 80C30.8 80.8 30 81.4 29.4 81.4C28.7 81.4 27.9 80.8 27.6 80C27.4 79.2 28.2 78.6 29.4 78.6C30.6 78.6 31.4 79.2 31.1 80ZM102.6 93.1C103.4 94.3 93.5 103.9 91.5 103.9C88.8 103.9 88.8 97.9 91.6 95C94.4 91.9 101.2 90.8 102.6 93.1ZM59.9 170.6V180.1V182.2L53.3 182.2C53.3 180.2 53.3 174.1 53.3 172.1C54.3 166.6 58.3 166.6 59.9 170.6Z" fill="black"/></svg>