<svg width="210" height="161" viewBox="0 0 210 161" fill="none" xmlns="http://www.w3.org/2000/svg"><path d="M19.7 70.2C19.7 64.9 19.8 59.5 20 53.2C20 48.1 19.9 44 20 39.8C20.1 27.8 20.3 15.9 20.8 4.1C22.7 9.9 24.4 15.5 25.9 21.3C29.6 36.6 33.6 51.6 37.3 66.6C38.2 70 40.4 70.3 43.3 70.3C83.9 70.3 124.6 70.2 165.2 70.4C169.2 70.4 170.9 68.9 171.8 65.3C174 56 176.6 46.9 178.9 37.7C180.1 32.9 181 28 181.9 22.8C183.7 15.8 185.6 9.1 187.6 2.2C187.8 1.9 187.9 1.6 188 1.1C188 0.9 188.13 0.4 188.13 0.4C188.4 0.8 188.7 1.2 189 2.1C188.9 2.8 189 3 189.2 3.2C189.3 3.7 189.5 4.1 189.5 5.2C189.22 21.4 189.1 36.8 189.1 52.2C189 58.3 188.8 64.5 188.8 70.6C188.7 99.5 188.7 128.4 188.2 157.8C131.8 158.3 76 158.3 20.1 158.3C20 157.5 19.9 156.7 19.8 155.1C19.8 126.22 19.7 98.2 19.7 70.2Z" fill="#DDBB61"/><path d="M20.5 3.9C20.3 15.9 20.1 27.8 20 39.8C19.9 44 20 48.1 20 52.8C16.7 54.7 13.4 56 10.2 57.5C7.1 59 4.1 60.7 0 61.6C6.4 41.9 12.9 22.3 19.7 2.3C20.1 2 20.4 2.1 20.4 2.4C20.4 3.1 20.4 3.5 20.5 3.9Z" fill="#A08444"/><path d="M189.4 52.3C189.1 36.8 189.2 21.4 189.51 5.6C190.1 5.8 190.6 6.2 190.8 6.8C196.8 25.2 202.7 43.5 209.1 63.4C201.9 59.3 195.8 55.9 189.4 52.3Z" fill="#A08444"/><path d="M20.1 158.7C76 158.3 131.8 158.3 188.1 158.3C186.83 159 185.1 160.3 183.4 160.3C130.8 160.4 78.2 160.4 25.6 160.3C23.8 160.3 22 159.5 20.1 158.7Z" fill="#E4211D"/><path d="M188 1.4C187.9 1.6 187.8 1.9 187.1 2.2C183.4 2.2 180.4 2.2 177.4 2.2C125.1 2.1 72.7 2.1 20.4 2.1C20.4 2.1 20.1 2 19.9 2.1C20.6 1.5 21.5 0.8 23.1 0.2C73 0.2 122 0.2 171.1 0.2C175.7 0.2 180.4 0.1 185 0C185.2 0.1 185.35 0.1 186 0.5C186.9 0.9 187.4 1.1 188 1.4Z" fill="#F9E5AA"/><path d="M188 1.1C187.4 1.1 186.9 0.9 186.2 0.6C186.5 0.3 187 0.2 187.8 0.3C188.1 0.4 188 0.9 188 1.1Z" fill="#D8C197"/><path d="M189.3 3C189 3 188.9 2.8 189 2.4C189.3 2.3 189.39 2.6 189.3 3Z" fill="#A08444"/><path d="M20.4 2.4C72.7 2.1 125.1 2.1 177.4 2.2C180.4 2.2 183.4 2.2 186.9 2.3C185.6 9.1 183.7 15.8 181.6 22.97C178 32.8 174.6 42.1 171.5 51.6C170.5 54.5 169.1 55.4 166.1 55.4C124.8 55.3 83.6 55.3 42.3 55.4C39.2 55.4 37.9 54.1 37.1 51.4C34.3 42.8 31.5 34.3 28.5 25.8C28 24.2 26.9 22.7 26.1 21.1C24.4 15.5 22.7 9.9 20.8 4.1C20.4 3.5 20.4 3.1 20.4 2.4Z" fill="#EFDAA5"/><path d="M25.9 21.3C26.9 22.7 28 24.2 28.5 25.8C31.5 34.3 34.3 42.8 37.1 51.4C37.9 54.1 39.2 55.4 42.3 55.4C83.6 55.3 124.8 55.3 166.1 55.4C169.1 55.4 170.5 54.5 171.5 51.6C174.6 42.1 178 32.8 181.7 23.3C181 28 180.1 32.9 178.9 37.7C176.6 46.9 174 56 171.8 65.3C170.9 68.9 169.2 70.4 165.2 70.4C124.6 70.2 83.9 70.3 43.3 70.3C40.4 70.3 38.2 70 37.3 66.6C33.6 51.6 29.6 36.6 25.9 21.3Z" fill="#A28645"/></svg>