<svg width="380" height="355" viewBox="0 0 380 355" fill="none" xmlns="http://www.w3.org/2000/svg"><path d="M88.7 354.7C86.8 354.7 84.93 354.2 83.2 353.4C78.8 351.3 76 346.9 76 342V278.7H38C17 278.7 0 261.6 0 240.7V38C0 17 17 0 38 0H342C363 0 380 17 380 38V240.7C380 261.6 363 278.7 342 278.7H188.1L96.6 351.9C94.3 353.7 91.5 354.7 88.7 354.7ZM38 25.3C31 25.3 25.3 31 25.3 38V240.7C25.3 247.6 31 253.3 38 253.3H88.7C95.7 253.3 101.3 259 101.3 266V315.7L175.75 256.1C178 254.3 180.8 253.3 183.7 253.3H342C349 253.3 354.7 247.6 354.7 240.7V38C354.7 31 349 25.3 342 25.3H38Z" fill="white"/><path d="M291.3 126.7H88.7C81.7 126.7 76 121 76 114C76 107 81.7 101.3 88.7 101.3H291.3C298.3 101.3 304 107 304 114C304 121 298.3 126.7 291.3 126.7Z" fill="white"/><path d="M190 177.3H88.7C81.7 177.3 76 171.7 76 164.7C76 157.7 81.7 152 88.7 152H190C197 152 202.7 157.7 202.7 164.7C202.7 171.7 197 177.3 190 177.3Z" fill="white"/></svg>