<svg width="362" height="521" viewBox="0 0 362 521" fill="none" xmlns="http://www.w3.org/2000/svg"><path d="M35.4 15.9C36.2 15.5 36.9 15.1 38.3 14.3C39.5 13.4 40.2 12.8 40.8 12.2C40.8 12.2 41.1 12.2 41.4 11.9C47.2 8.8 52.3 5.3 58.1 3.4C79.9 -3.8 99.8 0.6 117.7 14.9C117.7 14.9 117.8 15 118 15.3C119.8 17 121.3 18.4 122.78 19.9C122.78 19.9 122.8 19.9 123 20.3C132.7 31.6 137.6 44.6 138.3 59C146 60 147.7 62.7 145.3 69.4C145.3 69.4 145.4 69.4 145.1 69.5C144.2 70.2 143.7 70.7 143.1 71.3C143.1 71.3 143.3 71.3 142.9 71.3C141.8 71.4 141 71.5 139.9 71.6C137.1 71.5 134.7 71.6 132 71.6C130.9 71.5 130.1 71.6 128.9 71.6C117.6 71.5 106.85 71.4 96.1 71.5C70.2 71.5 44.2 71.6 18 71.6C13.9 71.5 11.4 69.8 10.7 66.3C10.1 62.8 12.1 60.7 15.2 59.4C16.1 59 17.1 57.6 17.1 56.6C18 41 25.2 28.1 34.9 16.4C34.9 16.4 35.3 16.2 35.4 16C35.5 15.8 35.4 15.9 35.4 15.9Z" fill="#020201"/><path d="M32.5 118C32.4 117.7 32.2 117.4 31.5 116.9C29.6 114.8 28 113.04 26.4 111.3C26.4 111.3 26.4 111.4 26.4 110.92C26.4 108.1 26.4 105.8 26.5 103.1C28.5 97.1 32.6 93.7 38 91.7C45.5 89 52.6 90.4 59.3 94.4C59.3 94.4 59.3 94.4 59.5 94.7C60.6 95.9 61.6 95.7 62.3 97C62.3 97 63.1 97.3 63.3 97.5C64.1 97.9 64.4 98.7 65.3 99.5C65 103.2 64.7 106.4 64.5 110.1C63 112.7 61.6 115 60.1 117.3C60.1 117.3 60.2 117.3 59.9 117.3C58.8 118 58 118.7 57.2 119.3C57.2 119.3 57.3 119.4 56.9 119.4C50.5 120 44.4 120.7 38.4 121.3C38.4 121.3 38.4 121.4 38.2 121.1C36.2 119.8 34.4 118.92 32.5 118Z" fill="#020201"/><path d="M126.2 95.6C126.2 96 126.4 96.2 127 96.8C131.1 102 132 107.2 129.03 112.5C125.2 119.4 118.6 122 111 121.8C103.5 121.6 96.7 119.3 93.3 111.3C93 110.5 92.7 109.9 92.3 109.2C92.2 108.62 92.2 108.3 92.2 107.43C92.3 106.2 92.2 105.6 92.1 104.6C92.1 103.7 92.2 103 92.5 102.21C92.9 101.2 93.1 100.4 93.5 99.4C94 98.6 94.3 98.1 94.5 97.5C94.5 97.5 94.4 97.5 94.8 97.4C104 88.5 114.61 88 126.2 95.6Z" fill="#020201"/><path d="M17.2 448C17.1 447 17 445.9 16.9 444C15.7 433.1 14.5 423 13.4 412.8C13.2 410.6 13.2 408.4 13.4 405.9C16.4 404.8 19.1 403.1 21.8 403.1C63 403.3 104.1 403.7 145.4 404C145.5 403.9 145.76 403.9 145.76 403.9C145.6 407.27 145.5 410.6 145 414.6C144.2 417.2 143.6 419.1 143.37 421.1C141.8 435.22 140.4 449.4 138.9 463.5C137 480.68 135.2 497.8 133.2 515.1C133 515.5 132.93 515.7 132.8 516C132.7 516 132.4 516 131.9 516C98.4 516 65.2 516 32.1 515.9C29.8 515.9 27.5 514.7 25 514C24.9 514 24.6 513.8 24.6 513.6C24.6 512.6 24.4 511.89 24.3 510.7C23.6 504.9 23 499.45 22.3 494C22.3 493.6 22.3 493.1 22.3 491.9C20.6 476.8 18.9 462.4 17.2 448Z" fill="#7A4A04"/><path d="M156.2 304.9C154.4 309.9 153 315 150.64 319.7C145 330.6 139.7 341.7 132.9 351.8C123.3 365.9 104.8 371 90.6 364.1C93.3 358.6 97.3 355.7 103.3 356C108.3 356.2 113.3 356.1 118.3 355.9C119.5 355.9 120.8 355.4 122 355.2C122 354.6 122 354.1 122 353.6C115.95 353 109.9 352.5 103.5 351.8C107.9 345.6 112.9 343.2 119.5 344C121.94 344.3 124.5 344.1 126.96 343.9C128 343.8 128.9 343.02 129.9 342.5C129.8 342.2 129.7 341.9 129.6 341.5C125.5 340.9 121.4 340.4 117.2 339.8C121.8 330.2 131.7 336.6 137.78 331C134.9 330.5 132 330 128.73 329.4C130.1 325.4 133.2 326.3 135.9 326C138.5 325.7 141.2 325.3 143.8 324.9C143.7 324.5 143.7 324 143.6 323.59C141.2 322.4 138.7 321.2 136.3 319.57C136.1 317.2 135.9 315.2 135.7 313.3C135.2 313.2 134.6 313.1 134 313C133.1 315.7 132.2 318.3 131.2 321.3C129.9 323 128.8 324.4 127.7 325.83C127.4 325.7 127 325.5 126.7 325.3C126.7 322.4 126.7 319.6 126.7 315.5C121.64 322.6 123.3 332.51 113.6 335.3C114.2 330.7 114.7 326.4 115.2 322.1C114.6 322.1 114 322 113.5 321.9C112 326.3 110.32 330.6 109.2 335.1C108 339.9 106 343.7 99.9 344.64C100.7 339.14 101.4 333.9 102.2 328.7C101.6 328.6 101 328.4 100.35 328.3C99.3 331.4 98.2 334.5 97.3 337.6C95.1 346 92.7 354.1 82.6 357.2C82.6 351.2 82.6 345.42 82.8 339.4C88.6 324.8 99.4 316.3 114.1 313C128 309.9 142.2 307.6 156.2 304.9Z" fill="#147922"/><path d="M136.3 320C138.75 321.2 141.2 322.4 143.6 323.59C143.7 324 143.7 324.5 143.8 324.9C141.2 325.3 138.5 325.7 135.86 326C133.2 326.3 130.1 325.4 128.7 329.4C132 330 134.87 330.5 137.8 331C131.7 336.6 121.8 330.2 117.2 339.8C121.4 340.4 125.5 340.9 129.6 341.5C129.7 341.9 129.8 342.2 129.9 342.5C128.9 343 128 343.8 127 343.9C124.5 344.1 121.9 344.3 119.5 343.98C112.9 343.2 107.9 345.57 103.5 351.8C109.9 352.5 116 353 122 353.6C122 354.1 122 354.6 122 355.2C120.8 355.43 119.5 355.9 118.3 355.9C113.3 356.1 108.3 356.21 103.3 356C97.3 355.7 93.3 358.6 90.3 363.8C89.9 364.1 89.4 364.1 88.5 363.8C83.8 364.8 82 367.2 82 371.7C82.1 373.42 80 376.3 78.5 376.6C75.2 377.2 75.4 374.1 75.4 371.8C75.3 371.2 75.3 370.51 75.3 369.9C75.5 365.7 73.5 363.7 69.1 363.8C67.7 362.4 66.5 361.23 65.3 359.7C64.2 358.6 63.2 357.8 61.8 357.1C59.7 357 58 357 56.3 356.7C55.6 355.2 55 354.1 54.3 352.7C54.3 351.9 54.3 351.5 54.5 350.9C55.7 349.5 56.5 348.21 57.7 346.9C58.3 345.1 58.9 343.4 58.7 341.85C58.2 337.8 57.4 333.8 56.7 329.7C57.2 329.6 57.7 329.4 58.2 329.3C59 330.8 59.9 332.3 60.4 333.89C62 338.6 63.7 343.3 64.8 348.08C65.9 353.1 69.5 354.7 73.8 356.4C74.4 351.31 74.9 346.6 75.6 341.62C76.4 334.1 77 326.9 77.3 319.72C77.5 315 75.3 312.2 70 311.9C67.2 308.9 64.1 307.8 60.1 307.83C55.9 307.91 51.7 307 47.4 306.5C47.5 306.2 47.5 305.9 47.5 305.6C51 305 54.5 304.5 59.3 303.7C57.2 301.7 56.3 300.8 55.3 299.6C55.7 297.5 56 295.7 56.54 294.3C58.5 296.3 60.2 298.1 62 299.9C62.4 299.7 62.7 299.46 63.1 299.2C62.5 295.1 61.9 291 61.3 286.9C61.8 286.8 62.2 286.7 62.6 286.6C67.7 293.1 64.6 304.8 76.1 307.6C76.1 304.2 76.1 300.92 76.1 297.5C76.1 297.3 76.3 297 76.6 296.7C77.4 292.1 78 287.7 78.7 282.4C79.3 286.3 79.8 289.1 80.4 292.4C81 297.3 81.4 301.8 81.9 306.5C88.4 305.6 89.2 300.21 91.7 295.98C92.8 296 93.5 296 94.3 296.3C94.7 297.1 95 297.6 95.4 298.5C96 299.9 96.7 300.9 97.5 302.4C100.9 303.4 104.15 304.1 107.4 305.2C107.4 306 107.4 306.4 106.9 306.9C102.4 306.96 98.4 307 94.1 306.8C92.8 306.8 91.7 307 90.4 307.5C89.3 309.6 88.3 311.3 86.9 313C83.4 313.7 81.8 315.5 81.9 318.9C82.2 325.8 82.4 332.7 82.6 339.7C82.6 345.42 82.6 351.2 82.6 357.2C92.7 354.1 95.1 346 97.3 337.6C98.2 334.5 99.3 331.4 100.4 328.3C101 328.4 101.6 328.6 102.2 328.7C101.42 333.9 100.7 339.14 99.9 344.6C105.97 343.7 108 339.9 109.2 335.1C110.3 330.6 112 326.3 113.5 321.9C114 322 114.62 322.1 115.2 322.1C114.7 326.4 114.2 330.7 113.6 335.3C123.33 332.5 121.6 322.6 126.7 315.5C126.7 319.6 126.7 322.4 126.7 325.3C127.04 325.5 127.4 325.7 127.7 325.83C128.8 324.4 129.9 323 131.6 321.2C133.5 320.6 134.9 320.3 136.3 320Z" fill="#03491D"/><path d="M87.3 313.1C88.3 311.3 89.3 309.6 90.8 307.47C92.3 307.1 93.3 307 94.4 307C98.4 307 102.4 306.96 107.2 306.92C108.55 306.7 109.1 306.4 109.7 306.2C108.9 305.7 108.2 305.3 107.4 304.9C104.2 304.1 100.9 303.4 97.8 302.2C102.6 295.2 110.4 299.9 116.1 295.7C113.4 295.3 110.7 294.8 107.3 294.2C111.4 288.2 118.56 291.9 122.68 288.8C120.3 287 118.37 285.5 116.8 284.1C120.4 284.1 123.6 284.1 127.1 284.1C124.2 280.49 122.13 277.9 119.5 274.6C118.41 277.7 117.3 280.8 115.9 283.83C115.1 281.7 114.7 279.7 113.98 276.8C110.6 281.6 110.8 288.5 104.5 291.2C104.8 287.8 105 284.8 105.2 281.9C104.8 281.8 104.4 281.7 104 281.5C100.9 287 101.7 294.5 95.4 298.1C95 297.6 94.7 297.1 94.4 295.9C94.9 292.3 95.4 289.4 95.8 286.5C95.2 286.3 94.6 286.2 94 286.1C93.1 289.36 92.2 292.7 91.3 296C89.2 300.21 88.4 305.6 81.9 306.5C81.4 301.8 81 297.3 80.4 292.1C81 290.6 81.6 289.8 82.1 289C82.5 289 83 289.1 83.1 288.9C92.5 274.6 107.91 273 122.7 270.1C126.7 269.2 130.9 268.8 135 268.3C135.4 268.25 135.9 268.9 136.2 270C134.2 275.1 132.3 279.6 130.5 284C130.18 284.5 129.9 285 129.4 286C129.2 286.4 129.18 286.9 129.18 286.9C129.18 286.9 129.3 286.9 129 287.1C126.6 291.1 124.5 294.9 122.4 298.6C115 311.4 104.2 317.1 89.2 314.6C88.5 314.2 88 314.03 87.4 313.7C87.3 313.5 87.3 313.1 87.3 313.1Z" fill="#177924"/><path d="M39.6 250.5C39.6 250.5 39.6 250.16 39.4 249.71C38 246.8 36.8 244.3 35.5 241.8C35.5 241.8 35.5 241.9 35.5 241.5C35.3 240.17 35.1 239.2 34.9 238.2C53.2 236.9 68.4 243.9 77.2 258.1C77.1 260.61 77 262.6 76.8 264.7C76.2 264.9 75.6 265.2 75 265.4C73.32 263.1 71.3 260.9 70.1 258.3C68.8 255.5 68.3 252.3 67.4 249.3C67 249.4 66.6 249.5 66.2 249.6C66.5 252.5 66.9 255.4 67.3 258.7C60.4 257.5 62.4 250.69 58.7 247.2C58.7 249.8 58.7 251.6 58.7 253.9C57.7 253.3 56.9 253.1 56.6 252.6C55.2 250 54 247.4 52.4 244.3C51.6 245.52 51.1 246.5 50.2 248C49 245.8 48.2 244.2 47.4 242.7C45.9 244.7 44.6 246.5 43 248.5C44.9 248.8 46.7 249.2 49.3 249.7C47.8 250.88 46.8 251.69 45.9 252.4C49.6 253.2 53.2 254.1 56.8 254.9C56.7 255.45 56.6 256 56.5 256.5C54.4 256.8 52.3 257.2 48.9 257.74C54.7 260.4 60.9 256.8 64.8 262.6C61.7 262.9 59 263.18 56.4 263.4C56.4 263.9 56.4 264.3 56.37 264.71C62.2 265.8 69.4 263 73 270C64.6 274.6 54.9 272.8 48.9 265.1C45.4 260.52 42.7 255.3 39.6 250.5Z" fill="#177924"/><path d="M96.4 270.2C95.9 270.2 95.5 270.3 94.3 270.4C90.5 269.7 87.4 268.9 84.5 267.9C88.9 261.5 95.7 265.4 101.1 262.72C98.3 262.3 95.6 261.8 92.9 261.4C92.9 260.7 92.8 260 92.8 259.3C97.4 258.6 101.9 258 107.8 257.1C104.9 256.11 103.2 255.5 101.5 255C101.4 254.5 101.4 254.1 101.3 253.6C102.9 253.1 104.3 252.4 105.9 252.1C107.6 251.81 109.3 251.9 112 251.8C109.7 250.7 108.5 250 106.1 248.8C109.7 248.23 112.2 247.8 114.4 247.5C112.8 245.4 111.5 243.5 110.02 241.5C108.9 243.3 107.9 244.97 106.5 247.3C106.2 245.2 106.1 244.1 105.9 242.9C104.2 244.5 103.7 246.4 102.7 248.1C102 249.4 100.74 250.6 99.7 251.9C99.4 251.6 99.08 251.3 98.8 251C98.9 249.1 99.1 247.26 99.3 244.3C95.8 248.9 96.7 254.8 90.4 257.4C90.9 253.9 91.3 251.3 91.8 248.1C87.2 253.1 88.7 261.4 80.6 263.6C80.5 260.7 80.3 258.3 80.2 255.5C80.3 254.7 80.3 254.2 80.6 253.6C84.2 249.87 86.9 245.1 91 242.9C100.7 237.8 111.6 237.4 123.8 236.6C119.2 245 115.2 252.4 111.1 259.8C111.1 259.8 111.3 260 110.9 260.1C107 265.2 102.28 268.5 96.4 270.2Z" fill="#177924"/><path d="M80.2 255.8C80.3 258.3 80.5 260.7 80.6 263.6C88.7 261.4 87.2 253.1 91.8 248.1C91.3 251.3 90.9 253.9 90.4 257.4C96.7 254.8 95.8 248.89 99.3 244.3C99.1 247.26 98.9 249.1 98.8 251C99.1 251.3 99.4 251.6 99.7 251.9C100.74 250.6 102 249.4 102.7 248.1C103.7 246.4 104.2 244.5 105.9 242.9C106.1 244.1 106.2 245.2 106.5 247.3C107.9 245 108.9 243.3 110.02 241.5C111.5 243.5 112.8 245.4 114.4 247.5C112.2 247.8 109.7 248.23 106.1 248.8C108.5 250 109.7 250.7 112 251.8C109.3 251.9 107.6 251.81 105.9 252.1C104.3 252.4 102.9 253.1 101.3 253.6C101.4 254.1 101.4 254.5 101.5 255C103.2 255.5 104.9 256.11 107.8 257.1C101.9 258 97.4 258.6 92.8 259.3C92.8 260 92.9 260.7 92.9 261.4C95.6 261.8 98.3 262.3 101.1 262.72C95.7 265.4 88.9 261.5 84.1 267.9C82.9 269.1 82.1 270 81.41 271C81.6 276.72 81.7 282.5 82 288.6C81.6 289.8 81 290.6 80.4 291.64C79.8 289.1 79.3 286.3 78.7 282.4C78 287.7 77.4 292.1 76.5 296.26C76.3 289.2 76.3 282.4 76.7 275.6C76.8 272.7 76 270.8 73.3 269.8C69.4 263 62.2 265.8 56.4 264.71C56.4 264.3 56.4 263.9 56.4 263.4C59 263.2 61.7 262.9 64.8 262.6C60.9 256.8 54.7 260.4 48.9 257.74C52.3 257.2 54.4 256.8 56.5 256.5C56.6 256 56.7 255.45 56.8 254.9C53.2 254.1 49.6 253.2 45.9 252.4C46.8 251.69 47.8 250.88 49.3 249.7C46.7 249.2 44.9 248.8 43 248.5C44.6 246.5 45.9 244.7 47.4 242.7C48.2 244.2 49 245.8 50.2 248C51.1 246.5 51.6 245.52 52.4 244.3C54 247.4 55.2 250 56.6 252.6C56.9 253.1 57.7 253.3 58.7 253.9C58.7 251.6 58.7 249.8 58.7 247.2C62.4 250.69 60.4 257.5 67.3 258.7C66.9 255.4 66.5 252.5 66.2 249.6C66.6 249.5 67 249.4 67.4 249.3C68.3 252.3 68.8 255.5 70.1 258.3C71.3 260.9 73.3 263.1 75 265.4C75.6 265.2 76.2 264.9 76.8 264.7C77 262.6 77.1 260.61 77.2 257.83C77.3 256.7 77.3 256.26 77.8 255.9C78.8 255.9 79.5 255.9 80.2 255.8Z" fill="#025017"/><path d="M25.2 514.1C27.5 514.7 29.8 515.9 32.1 515.92C65.2 516 98.4 516 131.9 516.3C132.3 517.1 132.3 517.5 132.2 517.9C132.2 517.9 132.3 517.9 131.89 518C129.4 518.8 127.3 520.1 125.1 520.1C94.4 520.2 63.6 520.2 32.9 520.1C30.4 520.1 28 518.7 25.5 517.9C25.4 517.5 25.4 517.1 25.2 516C25.1 514.9 25.2 514.49 25.2 514.1Z" fill="#693A04"/><path d="M83.6 375C83.6 376 83.6 377 83 378.4C79.6 378.8 76.7 378.81 73.7 378.6C73.7 378.4 73.5 377.9 73.5 377.9C73.5 377.9 73.6 377.5 73.6 377.2C73.7 374.9 73.8 372.8 74.1 370.1C74 369 73.7 368.5 73.5 368C72.3 367.1 71.2 366.2 69.8 365C69.4 364.5 69.4 364.2 69.4 364C73.5 363.7 75.5 365.7 75.4 369.9C75.3 370.5 75.3 371.2 75.4 371.83C75.4 374.1 75.2 377.2 78.5 376.62C80 376.3 82.1 373.4 82 371.7C82 367.2 83.8 364.8 88.1 363.8C87.1 365.5 85.7 366.9 84 368.8C83.6 371.2 83.6 373.1 83.6 375Z" fill="#025017"/><path d="M146.4 399.1C146.1 400.5 145.8 401.9 145.4 403.7C104.13 403.7 63 403.3 21.8 403.1C19.1 403.1 16.4 404.8 13.4 405.9C12.7 404.2 12.4 402.15 12.4 399.5C14.5 398.5 16.3 398 18.1 398C58.9 397.99 99.8 398 140.7 398C142.6 398 144.52 398.7 146.4 399.1Z" fill="#693A04"/><path d="M136.3 319.6C134.9 320.3 133.5 320.59 131.7 320.9C132.2 318.3 133.1 315.7 134 313C134.6 313.1 135.17 313.2 135.7 313.3C135.9 315.2 136.1 317.2 136.3 319.6Z" fill="#025017"/><path d="M69.1 363.8C69.4 364.2 69.4 364.5 69.4 365.1C59.7 372.66 49.6 370.6 39.5 366.7C37.6 366 35.9 364.9 33.84 363.9C18.95 351.6 12.1 334.6 4.4 318C3 315.1 1.9 311.9 0 307.4C13.4 309.9 25.8 312 38 314.4C41.3 315 44.4 316.2 47.6 317.1C60.3 320.6 68.6 329.1 74.8 340.9C75.3 341.5 75.4 341.7 75.4 341.9C74.9 346.6 74.4 351.3 73.8 356.4C69.5 354.7 65.9 353.1 64.8 348.1C63.7 343.3 62 338.6 60.4 333.9C59.9 332.29 59 330.8 58.2 329.3C57.7 329.4 57.2 329.6 56.7 329.7C57.4 333.8 58.2 337.8 58.7 341.9C58.9 343.4 58.3 345.1 57.5 346.6C54.5 343.7 51.3 341.3 49.6 338.2C47.8 335 47.4 330.9 46.2 327.3C45.7 325.9 44.5 324.6 43.7 323.3C43.3 323.5 42.9 323.7 42.5 323.9C43.1 328 43.7 332.1 44.4 336.8C34.3 334 36.6 323.67 30.5 318.7C30.8 321.8 31 324.9 31.3 327.99C30.6 328.2 30 328.46 29.3 328.7C27.2 324.21 25.1 319.7 23 315.2C22.5 315.3 22.1 315.4 21.6 315.5C21.9 321 19.7 324.75 14.6 327.1C19 328.1 23.5 329.1 27.9 330C27.8 330.46 27.7 330.9 27.6 331.4C25 332 22.5 332.6 19.9 333.2C19.9 333.8 20 334.5 20 335.1C23.6 335.4 27.23 336 30.8 335.9C35.3 335.9 38.2 337.8 41 341.4C36.2 342.2 32 342.8 27.8 343.5C27.8 344 27.9 344.6 27.9 345.1C29.5 345.4 31.2 345.9 32.9 346C40.4 346.2 48.2 344.7 54.3 351C54.3 351.5 54.3 351.9 53.9 352.7C48.2 353.5 42.9 353.9 37.7 354.4C37.7 355.2 37.7 355.9 37.7 356.7C43.9 357.3 50.1 356.9 56.3 357C58 357 59.7 357 61.9 357.4C63.4 358.5 64.4 359.3 65.3 360C66.5 361.2 67.7 362.4 69.1 363.8Z" fill="#147922"/><path d="M31.1 296.1C30.8 295.7 30.6 295.3 30.3 294.3C28.5 290.5 26.8 287.3 25.1 284.1C25.1 284.1 25.2 284.1 25.2 283.8C24.4 282.1 23.6 280.7 22.9 279.3C22.9 279.3 22.9 279.3 23 278.9C22.5 277.7 21.9 276.9 21.3 276C21.3 276 21.1 275.8 21.3 275.3C23.3 274.2 25.2 273.13 27.2 273.1C30.9 273 34.7 273.5 38.5 273.8C38.5 273.8 38.4 273.7 38.7 274C41.9 274.8 44.9 275.3 48 275.9C48.3 275.8 48.6 275.8 49.2 276.2C52.5 277.5 55.4 278.2 58.3 278.99C58.3 278.99 58.4 279 58.5 279.2C59 279.6 59.3 279.7 59.6 279.7C59.6 279.7 59.6 279.6 59.7 280C61.4 281 63.1 281.8 64.7 282.5C64.7 282.5 64.7 282.6 64.8 282.9C65.3 283.4 65.9 283.7 66.38 283.9C66.38 283.9 66.4 284 66.5 284.2C66.9 284.6 67.1 284.8 67.5 285C70.2 289.1 72.9 293.2 75.9 297.5C76.1 300.92 76.1 304.16 76.1 307.6C64.6 304.8 67.7 293.1 62.6 286.6C62.2 286.7 61.8 286.8 61.3 286.9C61.9 291 62.5 295.1 63.1 299.2C62.7 299.46 62.4 299.7 62 299.9C60.2 298.1 58.5 296.3 56.5 293.9C54.9 289.6 53.5 285.92 52.2 282.24C51.7 282.4 51.2 282.6 50.7 282.7C51.1 285.6 51.4 288.6 51.9 292.3C44.7 289.8 47 281.7 41.6 277.9C41.6 280.7 41.6 282.7 41.6 284.62C41.3 284.7 41 284.8 40.7 284.9C39.2 282 37.6 279.1 36 276.2C35.3 276.1 34.6 276 33.82 275.9C37.4 281.9 31.2 282 29.6 285.4C33 285.9 36 286.3 39 286.8C39 287.2 39 287.6 39 288C37.3 288.6 35.7 289.2 34 289.8C34 290.2 34 290.7 34 291.1C36.5 291.4 39 291.6 41.4 292C43.9 292.5 46.3 293.3 48.7 294C48.6 294.5 48.4 295 48.3 295.4C45.5 296 42.7 296.6 40 297.2C40 297.7 40.1 298.2 40.2 298.8C45.2 299.2 50.3 299.6 55.3 300C56.3 300.8 57.2 301.7 59.3 303.7C54.5 304.5 51 305 47.5 305.6C47.5 305.9 47.5 306.2 47.4 306.52C51.7 307 55.9 307.9 60.1 307.8C64.1 307.8 67.2 308.9 70 312.3C70.4 313.3 70.4 313.8 70.4 314.3C61.1 319.7 52.4 317.7 43.6 311.7C41.9 310.2 40.6 309.1 39.2 308.1C39.2 308.1 39.3 308 39.3 307.7C38.8 304.26 37.9 301.49 34.1 301.2C34.1 301.2 34.2 301.1 34.1 301C33.8 300.5 33.6 300.3 33.4 300C33.4 300 33.3 300 33.3 299.6C32.6 298.2 31.9 297.1 31.1 296.1Z" fill="#147922"/><path d="M54.5 350.9C48.2 344.7 40.4 346.2 32.9 345.95C31.2 345.9 29.6 345.4 27.9 345.1C27.9 344.57 27.8 344 27.8 343.5C32 342.8 36.2 342.15 41 341.41C38.2 337.78 35.3 335.9 30.9 335.9C27.2 336 23.6 335.4 20 335.09C20 334.5 19.9 333.8 19.9 333.2C22.5 332.6 25 332 27.6 331.3C27.7 330.9 27.8 330.5 27.9 330C23.5 329.1 19 328.1 14.6 327.1C19.7 324.7 21.9 321 21.6 315.5C22.1 315.4 22.5 315.3 23 315.24C25.1 319.7 27.2 324.2 29.3 328.7C30 328.5 30.6 328.2 31.3 328C31 324.9 30.8 321.8 30.5 318.7C36.6 323.7 34.3 334 44.4 336.8C43.7 332.1 43.1 328 42.5 323.9C42.9 323.7 43.3 323.5 43.7 323.3C44.5 324.6 45.7 325.87 46.2 327.3C47.4 330.92 47.8 334.95 49.6 338.2C51.3 341.3 54.5 343.7 57.2 346.68C56.5 348.21 55.7 349.5 54.5 350.9Z" fill="#025017"/><path d="M55.3 299.6C50.3 299.6 45.2 299.2 40.2 298.8C40.1 298.2 40 297.7 40 297.2C42.7 296.6 45.5 296 48.3 295.4C48.4 295 48.6 294.5 48.7 294C46.3 293.3 43.9 292.5 41.4 292C39 291.6 36.5 291.4 34 291.1C34 290.7 34 290.2 34 289.8C35.7 289.2 37.3 288.62 39 288C39 287.6 39 287.2 39 286.8C36 286.3 33 285.9 29.6 285.4C31.2 282 37.4 281.9 33.8 275.9C34.6 276 35.3 276.1 36 276.2C37.6 279.1 39.2 282 40.7 284.9C41 284.8 41.3 284.7 41.6 284.62C41.6 282.7 41.6 280.7 41.6 277.9C47 281.7 44.7 289.8 51.9 292.3C51.4 288.6 51.1 285.6 50.7 282.7C51.2 282.6 51.7 282.4 52.2 282.24C53.5 285.92 54.86 289.6 56.3 293.7C56 295.7 55.7 297.5 55.3 299.6Z" fill="#025017"/><path d="M116.4 284.1C118.4 285.5 120.3 287 122.7 288.8C118.6 291.9 111.36 288.2 107.3 294.3C110.7 294.8 113.4 295.3 116.1 295.7C110.4 299.9 102.6 295.2 97.7 301.8C96.7 300.9 96 299.9 95.4 298.5C101.7 294.5 100.9 286.97 104 281.5C104.4 281.7 104.8 281.8 105.2 281.86C105 284.8 104.8 287.8 104.5 291.2C110.8 288.48 110.6 281.6 114 276.8C114.7 279.7 115.1 281.7 116 283.9C116.4 284.01 116.4 284.1 116.4 284.1Z" fill="#025017"/><path d="M56.3 356.7C50.1 356.9 43.9 357.3 37.7 356.7C37.7 355.9 37.7 355.2 37.7 354.4C42.9 353.9 48.2 353.5 53.9 353C54.9 354.1 55.6 355.2 56.3 356.7Z" fill="#025017"/><path d="M70.8 314.1C70.4 313.8 70.4 313.3 70.4 312.4C75.3 312.2 77.5 315 77.3 319.7C77 326.92 76.4 334.1 75.6 341.62C75.4 341.7 75.3 341.5 75.1 341C75.1 333.7 75.2 326.8 75.4 319.9C75.5 316.6 74.7 314.5 70.8 314.1Z" fill="#025017"/><path d="M91.7 296C92.2 292.7 93.1 289.4 94 286.1C94.6 286.2 95.2 286.3 95.8 286.5C95.4 289.4 94.9 292.3 94.3 295.6C93.5 296 92.8 296 91.7 296Z" fill="#025017"/><path d="M65.3 359.7C64.4 359.3 63.4 358.5 62.3 357.4C63.2 357.8 64.2 358.6 65.3 359.7Z" fill="#025017"/><path d="M107.4 305.2C108.2 305.3 108.9 305.7 109.7 306.2C109.1 306.4 108.5 306.7 107.7 306.9C107.4 306.4 107.4 306 107.4 305.2Z" fill="#025017"/><path d="M94.1 306.8C93.3 307 92.3 307.1 90.9 307.1C91.7 307 92.8 306.8 94.1 306.8Z" fill="#025017"/><path d="M116.3 284C117.3 280.8 118.4 277.7 119.5 274.6C122.1 277.9 124.2 280.5 127.1 284.1C123.6 284.1 120.4 284.1 116.81 284.1C116.4 284.1 116.4 284.01 116.3 284Z" fill="#025017"/><path d="M80 241C80 242.7 79.9 244.43 79.7 246.9C79.7 249.1 79.8 250.6 80 252C80.1 252.4 80.2 252.8 80.3 253.5C80.3 254.2 80.3 254.7 80.2 255.5C79.5 255.9 78.8 255.89 77.8 255.9C77.4 251.2 77.4 246.6 77.4 241.3C77.4 240.4 77.5 240.2 77.7 239.9C78.4 239.6 78.9 239.32 79.4 239.3C79.6 240 79.8 240.5 80 241Z" fill="#242F0C"/><path d="M34.2 301.5C37.9 301.49 38.8 304.26 39.3 307.7C37.6 306 35.9 303.9 34.2 301.5Z" fill="#177924"/><path d="M39.3 308.41C40.6 309.1 42 310.2 43.3 311.6C42 310.85 40.7 309.8 39.3 308.41Z" fill="#177924"/><path d="M31.2 296.4C31.9 297.1 32.6 298.2 33.3 299.6C33.3 300 33 299.8 32.8 299.7C32.2 298.7 31.7 297.7 31.2 296.4Z" fill="#177924"/><path d="M33.4 300.3C33.6 300.3 33.8 300.5 34.1 301C34 301 33.7 300.8 33.4 300.3Z" fill="#177924"/><path d="M77.5 240C77.5 240.2 77.4 240.4 77.4 240.9C69.7 239.6 64.6 231.1 66.3 222C67.1 217.83 69 213.9 70.4 209.5C72.8 205.1 75.1 201.1 78 196C83.4 206.5 90.4 215.4 89.7 227.2C89.4 232.6 87 237 82 240.2C81.4 240.6 81 240.7 80.3 240.9C79.8 240.5 79.6 240 79.4 239C81.4 234.6 83.4 230.8 85.6 226.9C85.8 226.53 85.8 226.3 85.9 226.02C85.7 226.3 85.5 226.6 85 227C83.1 228.2 81.6 229.3 80.2 230.4C79.7 230.1 79.2 229.8 78.8 229.5C80.32 226.4 81.9 223.2 83.6 219.9C83.8 219.5 83.8 219.27 83.9 219C83.7 219.3 83.5 219.6 82.9 220C81.6 219.6 79.8 219.1 79.8 218.8C80.1 215.18 80.6 211.6 81.1 208.1C78.9 208.1 76.9 208.1 74.9 208.1C75.1 209.3 75.3 210.6 75.4 211.9C75.4 212 75.3 212.1 75.1 212C74.7 211.9 74.5 211.8 74.3 211.8C74.2 211.8 74 211.9 73.9 211.9C75.1 214.1 76.6 216.3 77.7 218.6C78.2 219.5 78.1 220.8 78.3 222.3C76.4 221.5 75.2 221 73.7 220.3C75.2 223.9 76.5 226.75 77.7 229.6C77.3 229.8 76.9 230 76.5 230.2C75.4 229.4 74.3 228.57 73.1 227.7C74.6 232 76.1 236 77.5 240Z" fill="#177924"/><path d="M64.61 282.3C63.1 281.8 61.4 281 59.7 279.9C60.9 280.1 62.1 280.6 63.7 281.3C64.1 281.7 64.3 281.9 64.61 282.3Z" fill="#177924"/><path d="M66.2 283.7C65.9 283.7 65.3 283.4 64.7 282.9C65.1 282.8 65.6 283.1 66.2 283.7Z" fill="#177924"/><path d="M67.4 284.7C67.1 284.8 66.9 284.6 66.5 284.2C66.7 284.1 67 284.3 67.4 284.7Z" fill="#177924"/><path d="M146.8 399.1C144.5 398.7 142.6 398 140.7 398C99.8 398 58.9 397.99 18.1 398C16.3 398 14.5 398.5 12.4 399.1C10.1 398.7 8.1 398 5.8 397.1C5.1 392.9 4.7 388.9 4.8 384.7C7.3 384.7 9.2 385.05 11.2 385.1C56.6 385.1 102.1 385.1 147.6 385.1C149.5 385.1 151.5 384.9 153.53 384.8C153.7 386.9 153.9 389.1 154 391.8C153.65 392.7 153.6 392.9 153.8 393.2C151.6 395.2 149.4 397.13 146.8 399.1Z" fill="#7B4B07"/><path d="M153.5 384.4C151.5 384.9 149.5 385.1 147.6 385.1C102.1 385.1 56.6 385.1 11.2 385.1C9.2 385.05 7.3 384.7 4.9 384.3C5.6 379.9 8.5 378.8 12.5 378.83C24.8 378.9 37.1 378.8 50.4 378.9C56.6 378.8 62 378.8 67.3 378.75C68.1 378.8 68.9 378.8 70.4 378.8C72.1 378.86 72.9 378.8 73.8 378.8C76.7 378.8 79.6 378.8 83 378.7C83.5 378.7 84 378.6 84.6 378.7C86.2 378.8 87.3 378.8 88.3 378.7C89.1 378.7 89.8 378.8 91.4 378.8C93.2 378.8 94.3 378.79 95.3 378.7C106 378.8 116.7 378.8 128.1 378.83C129 378.8 129.18 378.8 129.3 378.74C134.5 378.8 139.7 378.7 144.8 378.9C146.9 379 149 379.8 151.4 380.4C152.1 381 152.4 381.4 153 382C153.3 382.78 153.4 383.44 153.5 384.4Z" fill="#A66F2E"/><path d="M38.2 273.5C34.7 273.5 30.9 273.04 27.2 273.1C25.2 273.1 23.3 274.2 21.3 275.1C20.6 274.3 20 273 19.4 271.3C25.5 271.7 31.7 272.5 38.2 273.5Z" fill="#177924"/><path d="M58.1 278.7C55.4 278.2 52.5 277.5 49.5 276.34C52.2 276.8 55 277.7 58.1 278.7Z" fill="#177924"/><path d="M47.7 275.6C44.9 275.3 41.9 274.82 38.7 274C41.4 274.2 44.4 274.8 47.7 275.6Z" fill="#177924"/><path d="M59.5 279.5C59.3 279.7 59 279.6 58.5 279.2C58.7 279.1 59 279.2 59.5 279.5Z" fill="#177924"/><path d="M25.1 284.5C26.8 287.29 28.5 290.5 30.2 294C28.5 291.2 26.8 288 25.1 284.5Z" fill="#177924"/><path d="M22.9 279.7C23.6 280.7 24.4 282.1 25.2 283.8C24.4 282.8 23.7 281.4 22.9 279.7Z" fill="#177924"/><path d="M21.3 276.3C21.9 276.9 22.5 277.7 23 278.9C22.4 278.4 21.9 277.5 21.3 276.3Z" fill="#177924"/><path d="M153.9 393C153.6 392.9 153.6 392.7 153.9 392.2C154.2 392.3 154.2 392.6 153.9 393Z" fill="#A66F2E"/><path d="M77.7 239.9C76.1 236 74.6 232 73.1 227.7C74.3 228.57 75.4 229.4 76.5 230.2C76.9 230 77.3 229.8 77.7 229.6C76.5 226.75 75.2 223.9 73.7 220.3C75.2 221 76.4 221.5 78.3 222.3C78.1 220.8 78.2 219.5 77.7 218.6C76.5 216.3 75.1 214.1 73.9 211.9C74 211.9 74.2 211.8 74.3 211.8C74.5 211.8 74.6 211.9 75.2 212.2C76.3 213.1 77.1 213.6 77.8 214.15C78 213.8 78.1 213.4 78.3 213.1C77.4 212.7 76.4 212.3 75.5 211.9C75.3 210.6 75.1 209.3 74.9 208.1C76.9 208.1 78.9 208.1 81.1 208.1C80.6 211.6 80.1 215.18 79.8 218.8C79.8 219.1 81.6 219.6 83 220C83.3 220 83.4 220 83.4 220C81.9 223.2 80.3 226.4 78.8 229.5C79.2 229.8 79.7 230.1 80.2 230.4C81.6 229.3 83.1 228.2 85 227C85.3 226.99 85.4 227 85.4 227C83.4 230.8 81.4 234.6 79.4 238.7C78.9 239.32 78.4 239.6 77.7 239.9Z" fill="#025017"/><path d="M83.3 220C83.5 219.6 83.7 219.3 83.9 219C83.8 219.27 83.8 219.5 83.6 219.9C83.4 220.04 83.3 220 83.3 220Z" fill="#025017"/><path d="M85.3 227C85.5 226.6 85.7 226.3 85.9 226.02C85.8 226.3 85.77 226.5 85.6 226.9C85.4 227 85.3 226.99 85.3 227Z" fill="#025017"/><path d="M69.9 225.5C69.9 225.5 69.8 225.5 69.9 225.5Z" fill="#025017"/><path d="M82.8 211.5C82.8 211.6 82.8 211.5 82.8 211.5Z" fill="#025017"/><path d="M75.4 211.9C76.4 212.3 77.4 212.7 78.3 213.1C78.1 213.4 78 213.8 77.8 214.1C77.1 213.6 76.3 213.1 75.5 212.3C75.3 212.1 75.4 212 75.4 211.9Z" fill="#177924"/><path d="M62.3 105.5L73.5 101.7C76.6 100.59 80.1 100.59 83.2 101.7L94.3 105.5" stroke="#020201" stroke-width="3" stroke-linecap="round"/><path d="M274.3 165.1C274.4 164.3 274.55 163.5 274.7 162C276.6 155.2 278.4 149.3 280.2 143.4C280.2 143.4 280 143.1 280.3 143.05C281.4 141.7 282.2 140.39 282.9 139.1C282.9 139.1 282.8 139.1 283.1 139C283.7 138.5 284 138 284.3 137.6C284.3 137.6 284.2 137.5 284.5 137.3C284.99 137 285.2 136.7 285.2 136.34C285.2 136.34 285.11 136.3 285.4 136.24C286.1 135.6 286.6 135 287.1 134.4C287.1 134.4 287 134.3 287.3 134.2C288.1 133.5 288.7 132.9 289.2 132.2C289.2 132.2 289.6 132.2 290 131.9C291.9 130.5 293.4 129.3 294.9 128.1C294.9 128.1 294.8 128 295.1 128C295.6 127.8 295.9 127.6 296.1 127.33C296.1 127.33 296 127.31 296.4 127.3C307.52 121.4 318.8 120.7 330.5 123.4C330.5 123.4 330.5 123.3 330.7 123.54C332.5 124.3 334 124.8 335.6 125.3C335.6 125.3 335.6 125.2 335.7 125.4C336.5 125.9 337.1 126.1 337.65 126.2C337.65 126.2 337.6 126.1 337.8 126.4C338.8 127.1 339.78 127.54 340.7 128C340.7 128 340.7 128 340.9 128.3C341.6 128.7 342.1 129 342.6 129.3C342.6 129.3 342.6 129.2 342.7 129.4C344.1 130.6 345.3 131.4 346.5 132.3C346.5 132.3 346.55 132.2 346.7 132.5C349.69 136.3 352.6 139.7 355.5 143.2C355.5 143.2 355.6 143.1 355.6 143.4C355.9 144.2 356.28 144.7 356.6 145.2C356.6 145.2 356.6 145.1 356.7 145.5C360.2 153.2 361.26 160.9 361.1 169.1C360.7 185.4 360.8 201.7 360.8 217.9C360.8 217.9 360.45 218.3 360.33 218.5C360.21 218.7 360.2 218.8 360.2 218.8C360.2 218.8 359.9 218.8 359.4 218.9C355.2 219.01 351.6 219.01 347.8 219.01C348.9 200.8 349.9 183.2 350.9 165.5C328.3 165.5 306.2 165.5 283.8 165.5C284.9 182.6 285.9 199.3 286.97 216C286.7 216.9 286.4 218.6 286.2 218.6C282.4 218.4 278.5 218.1 274.6 216.9C274.5 199 274.4 182 274.3 165.1Z" fill="#020201"/><path d="M328.1 208.8C329.2 208.87 330 209.1 330.79 209.3C330.2 210.1 329.74 211.2 328.9 211.8C320.7 217.5 312.3 216.5 304.9 207.9C306 208.06 307.3 207.9 308.2 208.5C314.7 212.8 321.2 213.1 328.1 208.8Z" fill="#020201"/></svg>