<?xml version="1.0" standalone="no"?><!DOCTYPE svg PUBLIC "-//W3C//DTD SVG 20010904//EN"
 "http://www.w3.org/TR/2001/REC-SVG-20010904/DTD/svg10.dtd"><svg version="1.0" xmlns="http://www.w3.org/2000/svg"
 width="1280pt" height="893pt" viewBox="0 0 1280 893"
 preserveAspectRatio="xMidYMid meet"><metadata>
Created by potrace 1.15, written by Peter Selinger 2001-2017
</metadata><g transform="translate(0,893) scale(0.1,-0.1)"
fill="#000000" stroke="none"><path d="M2407 8914 c-32 -7 -91 -30 -130 -50 -286 -143 -518 -489 -829 -1239
-133 -319 -160 -401 -166 -492 -7 -130 22 -176 164 -256 81 -46 246 -109 389
-151 64 -18 123 -39 130 -47 19 -19 445 -602 445 -610 0 -3 -72 -63 -160 -135
-87 -71 -159 -133 -160 -138 0 -17 964 -971 1123 -1111 258 -227 411 -343 866
-659 442 -307 541 -385 698 -556 127 -138 196 -220 191 -225 -10 -10 -788 91
-1243 161 -702 108 -1098 212 -1562 410 -123 52 -123 52 -134 31 -7 -12 -13
-24 -15 -26 -8 -10 -507 315 -649 423 -165 125 -221 199 -351 466 -90 186
-117 307 -95 421 7 34 40 129 73 211 70 173 80 237 53 320 -23 71 -91 172
-178 264 l-72 75 -63 -25 c-85 -34 -121 -57 -175 -115 -103 -110 -136 -219
-222 -726 -89 -522 -102 -579 -226 -988 -114 -378 -132 -516 -80 -600 67 -109
283 -114 674 -16 l160 41 414 -193 c227 -105 413 -196 413 -200 0 -5 -43 -95
-96 -200 -52 -105 -94 -192 -92 -194 4 -3 667 -203 908 -274 492 -143 953
-261 1160 -295 153 -26 370 -45 585 -52 233 -8 299 -21 438 -88 192 -92 633
-411 728 -526 598 -726 906 -1047 1224 -1275 166 -119 375 -213 552 -250 223
-46 564 -21 924 68 96 24 96 24 315 11 1213 -72 2274 -10 2794 163 195 65 335
148 437 256 69 74 102 137 135 258 20 73 23 107 22 264 0 124 -6 220 -20 310
-24 161 -24 238 0 338 17 77 18 79 44 72 159 -40 288 -22 466 66 206 102 393
283 486 469 143 287 132 566 -35 905 -131 266 -301 473 -465 568 -51 30 -62
32 -145 32 -84 0 -94 -2 -154 -34 -35 -20 -106 -75 -160 -126 l-96 -91 -73
-12 c-197 -33 -406 -159 -646 -391 -225 -218 -315 -379 -276 -495 7 -21 46
-73 92 -123 88 -95 102 -122 93 -170 -7 -37 -6 -37 -38 -22 -20 9 -36 5 -101
-25 l-78 -36 -225 68 -226 67 -161 160 c-89 88 -192 198 -229 245 -149 187
-294 430 -502 844 l-109 215 -28 -15 c-23 -12 -29 -12 -33 -2 -2 7 -20 126
-40 263 -44 309 -144 928 -195 1215 -100 560 -102 653 -29 1063 45 255 53 355
35 455 -48 271 -244 418 -453 341 -170 -63 -338 -241 -307 -326 13 -37 46 -58
159 -101 l100 -38 -1 -45 c0 -24 -10 -107 -22 -184 -30 -190 -42 -384 -42
-675 0 -672 80 -1890 148 -2252 5 -26 6 -50 1 -55 -4 -4 -3 -44 1 -88 5 -44 9
-97 9 -118 l1 -38 -127 87 c-345 236 -557 428 -650 589 -28 50 -62 103 -74
119 -53 67 -189 100 -489 118 -231 14 -313 7 -351 -31 -76 -77 -56 -328 34
-421 50 -52 81 -60 226 -60 71 0 142 -5 157 -11 16 -5 80 -61 144 -123 63 -63
129 -120 145 -129 17 -8 66 -24 110 -36 100 -28 177 -69 250 -134 31 -28 148
-152 258 -276 111 -124 271 -302 357 -394 85 -93 156 -172 158 -177 2 -6 -414
-261 -505 -308 -18 -10 -29 -7 -73 23 -64 43 -56 41 -270 65 -96 10 -200 26
-230 35 -158 47 -341 189 -540 420 -42 50 -297 385 -567 745 -520 696 -645
852 -819 1020 -223 216 -333 284 -854 523 -264 121 -444 246 -734 508 -176
159 -599 587 -871 881 l-190 206 -25 -18 -26 -18 -73 131 c-41 73 -127 229
-192 347 l-118 215 -35 195 c-33 192 -34 196 -16 230 18 35 18 38 -6 135 -13
55 -27 145 -30 200 -10 170 23 263 178 503 153 237 174 331 91 423 -59 65
-174 85 -306 53z"/></g></svg>