<svg width="650" height="1707" viewBox="0 0 650 1707" fill="none" xmlns="http://www.w3.org/2000/svg"><path d="M320.3 1.8C275.5 9.4 247.6 32.1 230.5 75C221.5 97.4 216.8 123.6 216.7 150.25V165.3L211.1 167.7C207.9 169.05 201.2 171.85 196 174C162.5 187.85 115.1 222.5 87.3 253.45C74.1 268.1 67.5 278.9 64 291.2C62.8 295.6 59.5 306.4 56.5 315.2C48.5 339.85 46.1 352.1 44.5 374.5C42.9 397.6 43.7 418.25 46.8 429.05C50 440.5 59.5 461.45 63.5 466.1C65.5 468.5 68.3 473.7 69.5 477.85C71.7 485.05 71.7 485.45 68.9 493.6C60.9 516.65 56.4 547.2 54 593.2C53.3 605.3 52.3 622.1 51.5 630.5C50.7 638.9 49.6 649.45 49.2 653.85L48.5 662L42.7 663.7C34.9 666 34 668.9 33.2 695.85C32.4 719.6 30.7 726.5 23.2 737.3C12.9 752.4 1.3 780.5 0.4 793.2L0 797.85L10.4 798.25C17.3 798.5 20.7 799.2 20.7 800.25C20.7 801.2 21.9 812 23.3 824.5C26.4 850.65 30.7 876.9 38.1 916.5C41.1 931.85 44.3 949.3 45.3 955.3C47.7 970.25 52.7 980.1 62.8 990.1L71.2 998.4L69.2 1004.12C59.7 1030.78 49.5 1082.25 48 1109.85C47.6 1118.65 45.9 1136.65 44.4 1149.85C41.7 1171.45 41.7 1175.85 43.1 1193.85C44.9 1217.72 49.7 1247.18 55.9 1271.85C58.8 1283.58 59.9 1290.65 59.2 1292.12C56.9 1296.38 58.1 1301.98 64.1 1316.52C67.5 1324.52 71.3 1333.98 72.7 1337.45C74.4 1341.72 75.5 1348.78 76.1 1360.12C76.7 1369.18 78.3 1381.05 79.6 1386.52C82.8 1399.18 82.8 1397.72 80 1415.85C76.8 1437.05 76.9 1455.98 80.5 1472.78C82 1480.12 83.3 1490.65 83.3 1496.12C83.5 1510.65 85.1 1516.78 90 1521.85C97.5 1529.45 106 1532.52 120.7 1532.52C137.2 1532.52 145.3 1529.72 154.3 1521.18L160.8 1514.78L160.5 1494.38C160.3 1476.65 160.7 1472.25 163.3 1462.12C166.1 1451.05 166.7 1450.12 172.1 1446.38C177.2 1442.92 178 1441.72 178 1437.85C178 1434.78 178.7 1433.18 179.9 1433.18C182.5 1433.18 183.3 1428.78 183.3 1411.72C183.3 1381.58 177.5 1361.85 165.1 1350.38L158.8 1344.65L156.5 1328.65C154.8 1316.12 154.5 1311.05 155.6 1305.85C156.4 1302.25 156.7 1294.65 156.3 1289.18C155.6 1280.65 156 1277.72 158.7 1270.25C163.3 1257.58 165.7 1241.85 167.5 1212.52C168.7 1192.78 168.7 1182.78 167.6 1169.72C165.2 1144.52 165.5 1138.92 168.5 1137.85C173.1 1136.52 180.4 1126.92 182.5 1119.85C185.1 1111.58 187.3 1093.32 186.9 1085.85C186.7 1080.92 187.1 1080.38 191.7 1078.12C205.7 1071.45 220.1 1044.92 222.5 1021.05C223.9 1008.12 218.7 986.8 207.1 958.25C201.9 945.45 201.9 945.3 204.3 941.7L206.7 938L207.6 942C220.5 994.1 239.7 1035.58 265.6 1067.32C270.8 1073.72 272.4 1077.18 276.3 1090.25C279.5 1101.72 280.7 1108.38 280.7 1115.85C280.7 1125.32 281.1 1126.52 286.4 1135.98L292.1 1146.12L289.1 1148.92C285.3 1152.25 285.2 1156.38 288.5 1163.98C292.3 1172.25 296.7 1195.32 296.7 1205.85V1214.92L301.1 1214.12C303.3 1213.72 306.4 1213.05 307.7 1212.52C309.7 1211.72 310 1212.38 310 1218.25C310 1221.98 308.8 1231.18 307.3 1238.78C303.7 1257.98 295.3 1316.65 295.3 1323.85C295.2 1327.18 294.4 1334.38 293.3 1339.85C288.4 1365.72 287.1 1380.38 287.7 1400.52C288.3 1415.05 289.3 1423.18 291.3 1430.52C292.9 1435.98 294.4 1444.65 294.5 1449.85C294.8 1454.92 295.6 1467.32 296.4 1477.18C299.3 1513.45 298.8 1518.52 289.1 1540.25L284.4 1550.65L287.9 1557.58C291.3 1564.38 291.3 1564.92 290.9 1587.85C290.7 1605.45 290 1613.32 288.1 1619.72C286 1627.32 285.9 1629.85 287.2 1639.98C288 1646.38 290.1 1656.12 291.9 1661.45C293.7 1666.78 295.5 1676.25 296 1682.52C296.4 1688.78 297.1 1696.78 297.5 1700.38L298.3 1706.78L304.5 1705.98C320.8 1703.85 356.8 1700.92 376 1700.12L397.3 1699.18L397.7 1688.78C398 1683.18 398.5 1678.52 399.2 1678.52C401.1 1678.52 418.8 1684.78 423.1 1687.05C426.7 1688.92 427.3 1689.98 427.3 1693.85V1698.52H434.4C440.5 1698.52 441.9 1698.12 443.1 1695.45C444.1 1693.32 444.5 1693.18 444.5 1694.65C444.8 1699.32 447.9 1699.85 454.7 1696.65C466.3 1691.18 466.9 1689.72 467.2 1670.52C467.3 1650.65 465.6 1642.78 459.6 1635.85C454.5 1629.85 442.5 1623.72 431.2 1621.32C424.7 1619.98 423.1 1618.92 417.3 1612.38C413.9 1608.25 408.9 1603.98 406.5 1602.78C404 1601.72 401.6 1599.45 401.2 1597.98C400.8 1596.38 398.5 1592.12 396.4 1588.38C392.7 1581.98 391.9 1581.45 386.4 1580.78C383.2 1580.52 380.1 1579.72 379.7 1579.32C379.2 1578.78 379.9 1576.52 381.2 1574.25C384 1569.58 384.4 1557.72 382 1553.18C380.9 1551.05 380.8 1549.85 381.9 1549.32C383.9 1547.98 387.3 1539.18 387.3 1535.18C387.3 1533.32 388.8 1529.58 390.7 1526.78C394.8 1520.38 397.6 1512.25 399.3 1501.58C400.1 1496.92 403.1 1487.58 406 1480.78C409.2 1473.45 411.3 1466.38 411.3 1463.32C411.3 1458.25 414.7 1451.58 435.2 1415.18C447.3 1393.98 449.3 1382.12 444.8 1360.52C442.9 1351.85 443.5 1329.85 445.9 1311.18C449.7 1282.25 454 1234.65 454 1219.85C454 1209.72 453.3 1206.38 450 1197.85C446.1 1187.98 446 1187.72 448 1180.25C450.5 1170.52 450.7 1153.72 448.3 1152.25C446.9 1151.45 446 1143.32 444.8 1121.85C443.2 1092.65 442.5 1085.32 436.1 1027.85C434.3 1011.32 431.3 980.4 429.3 959.2C424.4 902.65 423.6 894.9 419.9 869.2C416 841.7 412.4 821.45 408 803.3C404.3 787.85 404.9 784.5 410.7 790.5C412.8 792.65 415.2 794.5 416.1 794.5C419.7 794.5 436.7 752.4 436.7 743.6C436.7 737.45 421.6 720.25 418.3 722.4C417.1 723.05 412.8 720.9 405.9 716.25C400 712.4 388.5 705.45 380.5 701.05L366 692.9V683.7V674.65L375.2 679.3C380.4 681.85 388.8 685.45 394 687.2L403.5 690.4L404.7 687.05C408.5 676.9 414 640 414 623.6C414 618.9 414.9 612.1 416 608.5C418.5 600.4 428 553.7 430.1 539.85C430.9 534.4 432.9 520.1 434.5 508.1L437.5 486.4L433.6 479.45C431.3 475.6 426 469.05 421.7 464.9L413.9 457.45L421.2 446.25C425.2 440.1 430.9 430.4 434 424.5C438.8 415.2 440.5 413.2 447.7 408.4C452.3 405.45 459.3 400 463.3 396.25L470.7 389.6L480.7 398.8C492.8 410 509.6 421.7 524.3 429.05C530.3 432.1 535.5 434.5 536.1 434.5C536.7 434.5 539.5 436.5 542.5 439.05C554.9 449.2 567.3 453.2 586.4 453.2C609.7 453.2 628.7 447.45 639.3 436.9C649.1 427.6 649.3 426.4 649.3 397.2C649.3 375.45 648.8 368.65 646.3 356C642.8 338.65 640.8 334.25 631.7 323.6C620.4 310.1 598.7 293.6 583.5 286.9C579.3 285.2 562.4 277.05 545.7 268.9L515.6 254.25L514.7 246.65C513.5 236.5 510.3 224.4 507.3 218.5C502.1 208.4 483.3 192.9 469.2 187.2L464 185.2V152.1C464 117.6 463.2 109.3 457.2 85.6C449.7 54.9 436.1 32.9 416.9 19.6C394 3.7 353.5 -3.8 320.3 1.8Z" fill="black"/></svg>