<?xml version="1.0" encoding="utf-8"?><svg width="800px" height="800px" viewBox="0 0 512 512" xmlns="http://www.w3.org/2000/svg"><path fill="#000000" d="M221.3 16a23.7 23.7 0 0 0-23.7 23.7v106.4a23.7 23.7 0 0 0 2.2 9.72 23.7 23.7 0 0 0 3.2 13.81l41.75 71.6-79 55.4 6.1-48.6a23.7 23.7 0 0 0-8.2-20.97l-66.28-81.9a23.7 23.7 0 0 0-33.3-3.5l-9.2 7.4a23.7 23.7 0 0 0-3.53 33.3l59.78 73.9-11.25 89.9a23.7 23.7 0 0 0 12.47 23.9l37.5 53.47a23.7 23.7 1.57 0 0 2.3 2.8 23.7 23.7 0 0 0 13.6 20.1L262 491.53a23.7 23.7 0 0 0 9.97 2.22 23.7 23.7 0 0 0 23.53-2.1l87.2-60.9a23.7 23.7 0 0 0 5.8-33l-6.78-9.7a23.7 23.7 0 0 0-32.97-5.9l-72.4 50.7-59.1-27.6 120.6-84.6a23.7 23.7 1.57 0 0 5.53-5.5 23.7 23.7 0 0 0 14.6-13.6l37.22-91.53 87.8-44.8a23.7 23.7 1.18 0 0 10.3-31.9L488 122.7a23.7 23.7 1.18 0 0-31.9-10.3l-94.7 48.4a23.7 23.7 1.18 0 0-9.8 9.4 23.7 23.7 0 0 0-8.3 10.47l-27.4 67.31-5.22-7.4a23.7 23.7 0 0 0-3-8.8l-50.81-87.1V39.7A23.7 23.7 0 0 0 233.2 16h-11.8zM77.75 376A60 60 0 0 0 16 436a60 60 0 1 0 120 0 60 60 0 0 0-58.25-60z"/></svg>