<svg width="391" height="117" viewBox="0 0 391 117" fill="none" xmlns="http://www.w3.org/2000/svg"><path d="M369.9 111.6C352.6 112 335.2 112.4 317.4 112.2C314.4 104.5 310.4 98.5 304.2 94.1C309.1 86.7 310 95.5 313.9 96.1C314.8 87.4 307.3 83.5 302.8 78C311 76.3 312.7 74.8 313.6 69.3C322.1 69.2 330.1 69.2 338.5 69.5C346.5 69.8 354.1 69.8 361.8 69.8C361.9 70.5 362 71.2 362.1 71.9C359.1 76.9 352 71.8 348.5 76.9C350.4 77 351.9 77.1 353.5 77.2C355.2 77.2 356.9 77.3 359.6 77.5C358.4 78.8 358 79.5 357.4 80C353.7 83 353 91.2 355.53 95.2C357 97.5 357.8 100.5 357.81 103.3C357.9 105.85 356.6 108.47 355.9 110.9C360.3 111.1 365.13 111.4 369.9 111.6Z" fill="#44B79B"/><path d="M370.4 111.7C365.1 111.4 360.3 111.1 355.9 110.9C356.6 108.5 357.9 105.9 357.81 103.3C357.8 100.5 357 97.5 355.5 95.2C353 91.2 353.7 83 357.4 80C358 79.5 358.4 78.9 359.6 77.5C356.9 77.3 355.2 77.2 353.5 77.2C351.9 77.1 350.4 77 348.5 76.9C352 71.8 359.1 76.9 362.1 71.9C362 71.2 361.9 70.5 361.8 69.8C354.1 69.8 346.5 69.8 338.9 69.5C353.2 69.2 367.3 69.2 381.4 69.2C383.3 69.1 385.3 68.6 387.47 68.3C388.1 68.3 388.5 68.3 388.8 68.3C388.9 68.7 388.9 69.1 388.7 69.8C388.5 70.1 388.1 70.2 387.8 70.5C387.4 84.3 387.2 97.9 387.1 111.4C381.7 111.5 376.2 111.7 370.4 111.7Z" fill="#35B494"/><path d="M53.1 116.14C47.5 115.8 41.9 115.3 36.3 115.2C27.2 115.1 18.1 115.3 8.4 114.9C8.4 101.3 13.9 94.6 25.6 93.2C32.4 92.4 38.9 93.2 45 96.3C45.1 96.3 45 96.3 45.2 96.5C45.8 97.1 46.3 97.3 46.9 97.5C46.9 97.4 46.7 97.5 46.8 97.8C47.3 98.4 47.8 98.7 48.2 99.1C48.2 99.1 48.2 99.1 48.4 99.4C49.7 101.6 50.9 103.45 52.1 105.3C52.1 105.2 52 105.26 52 105.65C52.4 108.1 52.8 110.1 53.2 112.43C53.1 112.7 53.2 113.1 53.2 113.4C53.2 113.8 53.2 113.98 53.2 114.5C53.1 115.2 53.1 115.7 53.1 116.14Z" fill="#0E1112"/><path d="M45 96.3C38.9 93.2 32.4 92.4 25.6 93.2C13.9 94.6 8.4 101.27 8 114.9C5.6 115.9 3.2 116.4 0.4 116.8C0 108.8 -0.2 100.8 0.2 92.9C0.5 88.5 0.6 83.7 6.1 81.2C10.6 80.2 14.4 79.1 18.2 78.2C18.2 78.2 18.1 78.2 18.6 78.2C20.8 78 22.6 77.6 24.4 77.6C32 77.4 39.6 77.3 46.8 77.1C37.5 75.3 31.2 79.7 25.4 85.4C24.2 86.6 23.1 87.7 21.5 89.4C27.4 88.4 32.3 87.5 37.3 86.6C37.4 87.1 37.5 87.7 37.6 88.2C36.6 88.9 35.6 89.6 34.1 90.6C36.5 91.4 38.3 91.7 39.9 92.6C41.7 93.6 43.3 95 45 96.3Z" fill="#7BC7D8"/><path d="M303.86 94.4C310.4 98.5 314.4 104.5 317.1 111.9C304 111.4 290.9 110.6 277.7 109.7C274.9 109.6 272.1 109.2 268.9 108.5C268.6 107.66 268.6 107.1 268.6 106.5C268.6 106.5 268.6 106.5 268.8 106.4C269.2 105.9 269.3 105.6 269.6 105C270.8 103.3 271.8 101.8 273.01 100.1C282.1 90.6 292.5 90.1 303.86 94.4Z" fill="#0E1212"/><path d="M53.4 116.4C53.1 115.7 53.1 115.2 53.6 114.5C59.7 114.6 65.4 114.9 71.4 115.2C72.2 115.2 72.7 115.2 73.5 115C81.3 114.3 88.7 113.7 96.6 113.1C100.1 112.8 103.3 112.6 106.4 112.1C114.3 110.9 122.2 109.5 130.6 108.2C133.4 107.8 135.8 107.5 138.4 107.1C138.9 106.76 139.1 106.5 139.4 106.2C139.7 106.2 140.2 106.18 140.5 106.2C142.3 106.5 143.7 106.82 145.6 107.1C152.4 106.5 158.8 105.9 165.2 105.6C165.2 106.3 165.24 106.5 165.3 106.8C140.03 109.6 114.8 112.7 89.6 115.1C77.7 116.3 65.7 116.2 53.4 116.4Z" fill="#84B4B5"/><path d="M165.7 106.78C165.2 106.5 165.2 106.3 165.64 105.6C171.8 104.8 177.5 104.5 183.5 104.1C184.3 104.1 184.7 104.13 185.6 104.1C187.7 104.1 189.4 104.1 191.54 104.1C202.7 103.8 213.4 103.5 224.6 103.16C227.3 103.5 229.5 104 231.8 104.1C244.1 104.99 256.3 105.8 268.6 106.6C268.6 107.1 268.6 107.66 268.5 108.5C258.1 107.8 247.7 106.2 237.3 106.1C213.6 105.9 189.9 106.5 165.7 106.78Z" fill="#71A9A2"/><path d="M388.8 109.1C388.9 109.2 389 109.42 389.1 110.2C389.1 110.9 389.1 111.1 389.1 111.3C388.54 111.4 388 111.5 387.3 111.5C387.2 97.9 387.4 84.3 387.8 70.8C388.15 71.7 388.2 72.4 388.2 73.6C388.2 79.2 388.1 84.3 388.2 89.4C388.3 96 388.61 102.5 388.8 109.1Z" fill="#44B79B"/><path d="M389.4 111.3C389.08 111.1 389.1 110.9 389.1 110.4C389.8 110.3 390.3 110.5 391 110.9C390.7 111.2 390.2 111.3 389.4 111.3Z" fill="#0C0C0E"/><path d="M127.2 3C150.6 2.5 174 2 197.5 1.6C228.1 1.1 258.7 0.8 290.2 0.4C296.8 0.3 302.5 0.2 308.2 0.1C320.9 0.1 333.7 -0.1 346.5 0.1C361.3 0.3 373.1 6.4 380.77 19.3C383.3 23.7 384.7 28.8 386.3 33.9C382.5 32.9 379.1 31.7 375.4 30.3C374 29.4 372.9 27.9 371.8 27.9C362.3 27.7 352.8 27.8 343 27.8C343 35.3 343 42.2 342.6 49.1C341.6 49.1 340.9 49.1 340.1 48.7C340.1 44.1 340.1 40 340.01 35.8C339.9 30.7 337.5 28.1 332.5 28.09C326.4 28 320.3 28.2 313.7 28.1C305.2 28.2 304.4 29 303.5 38C301 36 298.8 34.1 296.4 31.7C295.7 30 295 27.9 294.24 27.9C282.4 27.6 270.5 27.7 258.1 27.7C258.1 31.9 258.1 35.5 257.7 39.1C255.3 39.1 253.3 39.1 251.1 38.7C251 34.8 251 31.4 251 28C237.9 28 225.4 28 212.31 28C212.31 37.7 212.31 46.9 212 55.9C211.36 50.6 211.1 45.5 210.8 40.4C210.2 43.2 210.4 46 210.1 48.8C209.9 51.3 209.2 53.7 208.7 55.7C208.6 46.1 208.6 37.1 208.6 28C201.6 28 195.3 28 188.3 28C188.3 38 188.3 47.5 188.1 57.1C187.4 57.1 187.1 57.1 186.7 56.7C186.7 46.8 186.7 37.4 186.7 28C179.57 28 173.2 28 166.3 28C166.3 32.6 166.3 36.9 165.9 41.2C164.4 41.2 163.2 41.2 162.1 40.7C162 36.2 162 32.1 162 28.1C154.8 28.1 148.4 28.1 141.6 28.1C140.9 28.1 140.6 28.1 139.8 28C133.07 27.8 126.7 27.8 119.9 27.8C119.9 34.6 119.9 40.9 119.5 47C118.8 44.8 118.6 42.8 118.1 40.8C117.6 38.6 116.9 36.4 116.25 34.2C115.2 36.3 115.37 38.2 115.1 40C114.8 42.1 114 44.1 113.4 45.7C113.2 43.9 113.2 42.5 113.2 40.7C113.2 37.9 113.2 35.5 113.2 32.7C113.2 30.8 113.1 29.4 113.1 27.7C105.8 27.7 98.9 27.9 92.1 27.6C85.9 27.4 81.2 28.8 78.7 35C77.4 34.9 76.4 35 75.4 35C78.3 28.2 80.8 21.1 84.1 14.5C87.1 8.3 92.3 4.7 100.3 4.4C109.8 3.9 118.5 3.4 127.2 3ZM148.48 14.8C147.9 15.7 147.4 16.6 146.15 18.7C148.8 17.5 150 16.9 151.2 16.4C151.5 16.6 151.8 16.9 152.1 17.2C150.4 19.9 148.7 22.6 146.9 25.4C149.5 25.4 151.7 25.4 152.9 25.4C153.1 23.3 152.9 21.6 153.4 20.2C155.6 15 154.9 13.8 148.48 14.8ZM139.8 24C140.5 24.2 141.7 24.7 142 24.4C142.9 23.4 143.6 22.1 143.9 21.6C143.1 18.8 142.4 16.4 141.3 12.6C138.4 15.8 136 18.5 133.53 21.3C136.2 22.1 138 22.6 139.8 24ZM133.1 15.2C132.5 14.6 131.9 14 131.2 13.5C130.8 14 130 14.6 130 15.2C129.9 18.4 129.9 21.6 129.9 25.9C134.91 22.9 132.26 19 133.1 15.2Z" fill="#FBFBFB"/><path d="M140.2 28.2C140.6 28.1 140.9 28.1 141.7 28.5C142 38.5 142 48 142 57.4C149.1 57.4 155.4 57.4 162.1 57.4C162.1 51.7 162.1 46.4 162.1 41.2C163.2 41.2 164.4 41.2 166 41.7C166.5 46.4 166.35 50.8 166.1 55.2C165.8 55.4 165.6 55.6 165.6 55.6C165.8 55.8 166 56 166.41 56.5C173.3 57 180 57.1 186.7 57.2C187.1 57.1 187.4 57.1 188.4 57.3C194.8 57.6 200.47 57.8 206.2 57.7C207 57.7 207.8 56.7 208.7 56.1C209.2 53.7 209.9 51.3 210.1 48.8C210.4 46 210.2 43.2 210.8 40.4C211.1 45.5 211.36 50.6 212.2 56.3C214.2 57.2 215.8 57.8 217.3 57.8C224.4 57.9 231.5 57.8 238.6 57.8C242.7 57.8 246.7 57.8 250.7 57.8C250.92 55.4 251.1 53.8 251.6 52.2C254 52.5 256 52.8 258.2 53.6C258.4 55.2 258.53 56.4 258.7 58.1C269.4 58.1 279.8 58.1 290.2 58.3C290.6 58.8 290.9 59 291.4 59.3C292.3 59.9 292.9 60.3 293.5 60.6C293.7 59.8 293.9 58.9 294.4 57.9C295 57.9 295.4 58 296.1 58.1C297 58.9 297.6 59.5 298 60.2C298 60.2 298.1 60.2 298.5 60.2C303 62.7 304.1 57.2 307.6 57.1C309.3 57.5 310.7 57.8 312.2 58.3C312.6 58.3 312.9 58.2 313.6 58C320.1 57.9 326.1 58 332.2 58.3C332.6 58.3 332.9 58.2 333.5 57.9C334.8 57.4 335.9 57.1 337.1 57.1C337.8 57.4 338.3 57.4 338.7 57.5C338.5 57 338.23 56.5 338.1 55.7C338.9 53.3 339.6 51.2 340.2 49.1C340.9 49.1 341.6 49.1 342.7 49.6C343.2 52.4 343.2 54.9 343.2 57.6C356.3 57.6 368.9 57.6 381.8 57.6C381.9 56.2 382.1 54.9 382.8 53.5C385.19 53.3 387 53.3 388.8 53.3C388.9 58 389 62.7 388.9 67.9C388.5 68.3 388.1 68.3 387 68.3C384.1 68.2 381.94 68.2 379.8 68.18C333.9 68.2 288.05 68.3 241.7 68.3C164.21 68.2 87.2 68.2 9.8 68.2C9.2 68.2 9 68.1 8.7 68.1C11.4 66.1 13.7 63.1 16.7 62.2C24.4 60 32.4 58.7 41 57.4C43.5 57.3 45.3 56.9 47.1 56.5C47.6 56.4 48 56.3 48.8 56.6C49.6 58.4 50.1 59.7 50.2 60C53.9 59 56.6 57.5 59.3 57.7C66 58.1 72.7 59.3 79.4 60C79.9 60 80.6 58.7 81.6 58C90.5 57.8 98.9 57.7 107.2 57.8C107.2 57.9 107.2 58.2 107.2 58.4C107.6 58.4 107.9 58.3 108.52 58.1C109.6 58.1 110.4 58.1 111.2 58.3C111.6 58.4 111.9 58.3 112.3 58.1C112.8 57.8 113.1 57.6 113.8 57.2C114.8 55.1 115.5 53.1 116.43 50.7C117.9 53.3 118.9 55.2 120.3 57.4C127.1 57.7 133.5 57.7 140.2 57.7C140.2 47.5 140.2 37.8 140.2 28.2Z" fill="#D0D2D5"/><path d="M388.9 52.8C387.02 53.3 385.2 53.3 382.8 53.1C381.7 44.9 380.8 37 375.8 30.4C379.1 31.7 382.5 32.9 386.3 34.3C387.5 40.3 388.2 46.3 388.9 52.8Z" fill="#EBEBED"/><path d="M388.9 108.6C388.61 102.5 388.3 96 388.2 89.4C388.1 84.3 388.2 79.2 388.3 73.6C388.5 73.1 388.9 73.1 388.9 73.1C389 82.8 389 92.5 389.2 102.7C389.2 104.8 389.1 106.5 388.9 108.6Z" fill="#35B494"/><path d="M389 72.8C388.9 73.1 388.53 73.1 388.3 73.1C388.2 72.4 388.1 71.7 388.1 70.5C388.1 70.2 388.5 70.1 388.69 70.2C389 70.9 389 71.6 389 72.8Z" fill="#6D918D"/><path d="M8.5 68.5C9 68.1 9.2 68.2 10.1 68.5C12.5 68.9 14.3 69.2 16.2 69.2C29.8 69.2 43.5 69.3 57.1 69.7C57.4 73 55.6 73.1 53.4 73.2C50.7 73.4 47.9 73.9 44.7 74.3C39.3 74.6 34.3 74.7 29.4 75.4C25.6 75.9 21.9 77.2 18.1 78.2C18.1 78.2 18.16 78.2 17.7 78.1C14 78.8 10.6 79.5 7.2 80.2C7.6 76.4 8 72.6 8.5 68.5Z" fill="#86CCDB"/><path d="M81.2 58.1C80.6 58.7 79.9 60 79.4 60C72.7 59.3 66 58.1 59.3 57.7C56.6 57.5 53.9 59 50.2 60C50.1 59.7 49.6 58.4 49.2 56.7C56.2 55.8 63.3 55.2 70.4 54.7C72 48.3 73.5 42 75.2 35.3C76.4 35 77.4 34.9 78.7 35.4C76.6 43 75.6 50.2 76.3 57.7C78.2 57.8 79.7 57.9 81.2 58.1Z" fill="#E7E7E9"/><path d="M7 80.3C10.6 79.5 14 78.8 17.7 78.1C14.4 79.1 10.6 80.2 6.4 81.1C6.3 80.8 6.5 80.6 7 80.3Z" fill="#63A4A4"/><path d="M46.7 56.4C45.3 56.9 43.5 57.3 41.4 57.4C42.9 56.9 44.6 56.6 46.7 56.4Z" fill="#E7E7E9"/><path d="M304.2 94.1C292.5 90.1 282.1 90.6 272.6 100.1C266.5 96.9 265.2 94 266.4 87.8C266.7 86.4 266.9 84.9 266.7 83.5C266.3 78.8 265.7 74 265.6 69.3C281.8 69.3 297.5 69.3 313.15 69.3C312.7 74.8 311 76.3 302.8 77.95C307.3 83.5 314.8 87.4 313.9 96.1C310.02 95.5 309.1 86.7 304.2 94.1Z" fill="#4BBAA3"/><path d="M313.6 69.3C297.5 69.3 281.8 69.3 265.2 69.2C256.86 69.2 249.5 69.19 242.2 69C242.2 68.8 242.2 68.3 242.2 68.3C288.1 68.3 333.9 68.2 379.78 68.2C381.94 68.2 384.1 68.2 386.7 68.3C385.3 68.6 383.3 69.1 381.4 69.2C367.3 69.2 353.2 69.2 338.6 69.2C330.1 69.2 322.1 69.2 313.6 69.3Z" fill="#6D918D"/><path d="M71.1 115.2C65.4 114.9 59.7 114.6 53.6 114.2C53.2 113.98 53.2 113.8 53.4 113.3C53.9 112.7 54.1 112.5 54.4 111.9C53.8 109.6 52.9 107.4 52 105.3C52 105.3 52.1 105.2 52.1 104.8C52.6 101.4 51.5 99.5 48.2 99.1C48.2 99.1 48.2 99.1 48.1 98.8C47.6 98.1 47.2 97.8 46.7 97.5C46.7 97.5 46.9 97.4 46.8 97.2C46.2 96.7 45.6 96.5 45 96.3C45 96.3 45.1 96.3 45 96.3C43.3 95 41.7 93.6 39.9 92.6C38.3 91.7 36.5 91.4 34.1 90.6C35.6 89.6 36.6 88.9 37.6 88.2C37.5 87.7 37.4 87.1 37.3 86.6C32.3 87.5 27.4 88.4 21.5 89.4C23.1 87.7 24.2 86.6 25.4 85.4C31.2 79.7 37.5 75.3 47.2 77.1C50.1 77.1 52.1 77.1 54.2 77.2C54.2 77.2 54.1 77.1 54.3 77.4C55.1 77.8 55.7 78 56.7 78.2C62.1 83 68.8 86.4 70.2 94.6C70.5 101.7 70.8 108.4 71.1 115.2Z" fill="#65C3D9"/><path d="M52 105.65C52.9 107.4 53.8 109.6 54.2 111.9C53.7 112.2 53.2 112.2 53.2 112.2C52.8 110.1 52.4 108.1 52 105.65Z" fill="#7BC7D8"/><path d="M48.4 99.4C51.5 99.5 52.6 101.4 52.1 104.9C50.9 103.5 49.7 101.6 48.4 99.4Z" fill="#7BC7D8"/><path d="M45.2 96.5C45.6 96.5 46.2 96.7 46.8 97.3C46.3 97.3 45.8 97.1 45.2 96.5Z" fill="#7BC7D8"/><path d="M46.8 97.8C47.2 97.8 47.6 98.1 48.1 98.8C47.8 98.7 47.3 98.4 46.8 97.8Z" fill="#7BC7D8"/><path d="M53.2 112.43C53.2 112.2 53.7 112.2 53.9 112.2C54.1 112.5 53.9 112.7 53.4 113C53.2 113.1 53.1 112.66 53.2 112.43Z" fill="#84B4B5"/><path d="M54.2 77.2C52.1 77.1 50.1 77.1 47.7 77.1C39.6 77.3 32 77.4 24.4 77.6C22.6 77.6 20.8 78 18.6 78.2C21.9 77.2 25.6 75.9 29.4 75.4C34.3 74.7 39.3 74.6 45 74.5C48.5 75.6 51.3 76.4 54.2 77.2Z" fill="#63A4A4"/><path d="M242.1 69.2C249.5 69.2 256.9 69.2 264.7 69.3C265.7 74 266.3 78.8 266.7 83.5C266.9 84.9 266.7 86.4 266.4 87.8C265.2 94 266.5 96.9 272.4 100.24C271.8 101.8 270.8 103.3 269.4 105.1C268.8 105.8 268.7 106.1 268.6 106.5C268.6 106.5 268.6 106.5 268.6 106.5C256.3 105.8 244.1 105 231.8 104.1C229.5 104 227.3 103.5 224.6 102.77C224.2 96.4 229.2 99.7 233.1 98C231.1 97.1 230.1 96.2 229.1 96.2C225.2 96.1 223.9 94.3 224.08 90.6C224.2 87.3 223.5 84.1 223.5 80.8C223.4 78.2 223.7 75.6 224 73C224.1 71.7 224.7 70.5 225.6 69.3C231.4 69.2 236.8 69.2 242.1 69.2Z" fill="#55BEAD"/><path d="M268.8 106.4C268.7 106.1 268.8 105.8 269.1 105.3C269.3 105.6 269.2 105.9 268.8 106.4Z" fill="#71A9A2"/><path d="M183.1 104.1C177.5 104.5 171.8 104.8 165.6 105.2C158.8 105.9 152.4 106.5 145.6 106.75C143.8 104.6 142.7 102.5 141 101.2C138.5 99.3 134.2 98.5 133.09 96.1C131.6 92.7 132.6 88.3 132.1 84.4C131.6 79.9 133.1 77 137.5 75.6C135.56 75.3 133.6 75 131.75 74.7C133 72.7 134.1 71 135.6 69.3C149.43 69.3 162.8 69.3 176.14 69.7C177.1 72.5 179.1 74.9 179 77.2C178.6 83.7 182.3 91.3 173 96.6C177.9 97 181.3 97.3 184.6 97.6C184.56 98 184.5 98.5 184.5 98.9C180.6 99.1 176.7 99.27 172.8 99.4C172.8 100.02 172.8 100.59 172.8 101.16C174.81 101.16 176.9 100.78 178.8 101.3C180.41 101.7 181.7 103.1 183.1 104.1Z" fill="#6AC5BF"/><path d="M54.2 77.2C51.3 76.4 48.5 75.6 45.4 74.5C47.9 73.9 50.7 73.4 53.4 73.2C55.6 73.1 57.4 73 57.6 69.69C70.8 69.3 83.5 69.3 96.1 69.7C94.4 71.6 92.7 73 90.1 75.3C95.7 75.3 100.6 75.3 105.5 75.3C105.5 75.8 105.5 76.3 105.5 76.9C101.9 77.1 98.2 77.3 94.6 77.5C94.5 77.9 94.5 78.4 94.4 78.9C96.9 80 99.4 81 102.3 82.3C101 89.9 104.6 98.2 99.3 105.6C97.8 107.8 97.2 110.6 96.2 113.1C88.7 113.7 81.3 114.3 73.5 114.5C73.1 107.4 73.9 100.4 70.2 94.1C68.8 86.4 62.1 83 56.5 78C55.3 77.5 54.7 77.3 54.2 77.1C54.2 77.1 54.2 77.2 54.2 77.2Z" fill="#7AC9CF"/><path d="M96.6 113.1C97.2 110.6 97.8 107.8 99.3 105.6C104.65 98.17 101 89.9 102.3 82.3C99.4 81 96.9 80 94.4 78.9C94.5 78.4 94.5 77.9 94.6 77.5C98.2 77.3 101.9 77.1 105.5 76.9C105.53 76.3 105.5 75.8 105.5 75.3C100.6 75.3 95.7 75.3 90.1 75.3C92.7 73 94.4 71.6 96.5 69.7C97.7 69.3 98.4 69.3 99.18 69.7C99.9 70.7 100.6 71.4 101.3 72.1C101.9 71.2 102.5 70.3 103.61 69.3C114.4 69.3 124.8 69.3 135.14 69.3C134.1 71 133 72.7 131.75 74.7C133.6 75 135.56 75.3 137.5 75.6C133.1 77 131.6 79.9 132.1 84.4C132.6 88.3 131.6 92.7 133.09 96.1C134.2 98.5 138.5 99.3 141 101.2C142.7 102.5 143.8 104.6 145.1 106.7C143.7 106.8 142.3 106.5 140.3 105.9C135.3 103.6 131.32 104.7 130.2 108.2C122.24 109.5 114.32 110.9 106.4 112.1C103.3 112.6 100.14 112.8 96.6 113.1ZM127.5 105.6C127.2 105.9 126.9 106.1 126.6 106.4C126.7 106.5 126.9 106.8 126.9 106.7C127.2 106.5 127.5 106.2 127.5 105.6Z" fill="#73C7C9"/><path d="M70.2 94.6C73.9 100.4 73.1 107.4 73.1 114.7C72.7 115.2 72.2 115.2 71.4 115.2C70.8 108.4 70.5 101.7 70.2 94.6Z" fill="#5FA09F"/><path d="M130.6 108.2C131.3 104.7 135.3 103.6 140 105.89C140.2 106.18 139.7 106.2 139.2 106.3C138.5 106.6 138.4 106.9 138.2 107.2C135.8 107.5 133.4 107.8 130.6 108.2Z" fill="#6AC5BF"/><path d="M138.4 107.1C138.4 106.9 138.5 106.6 139 106.3C139.1 106.5 138.9 106.8 138.4 107.1Z" fill="#73C7C9"/><path d="M183.5 104.1C181.7 103.1 180.4 101.7 178.8 101.3C176.9 100.78 174.8 101.2 172.8 101.2C172.8 100.6 172.77 100 172.8 99.5C176.7 99.3 180.6 99.1 184.5 98.9C184.5 98.5 184.6 98 184.6 97.6C181.3 97.3 177.9 97 173 96.6C182.3 91.3 178.6 83.7 179 77.2C179.1 74.9 177.1 72.5 176.6 69.7C193.1 69.3 209.1 69.3 225.1 69.3C224.7 70.5 224.1 71.7 223.98 73C223.67 75.6 223.4 78.2 223.5 80.8C223.5 84.1 224.2 87.3 224.08 90.6C223.9 94.3 225.2 96.1 229.1 96.2C230.1 96.2 231.1 97.1 233.1 98C229.2 99.7 224.2 96.4 224.2 102.8C213.4 103.5 202.7 103.8 191.3 103.8C188.8 103.7 187 103.9 185.2 104.1C184.7 104.13 184.28 104.1 183.5 104.1Z" fill="#60C0B5"/><path d="M185.6 104.1C187 103.9 188.8 103.7 190.9 103.8C189.41 104.1 187.7 104.1 185.6 104.1Z" fill="#6AC5BF"/><path d="M251.2 52.2C251.1 53.8 250.9 55.4 250.7 57.8C246.7 57.8 242.7 57.8 238.6 57.8C231.5 57.8 224.4 57.9 217.3 57.8C215.8 57.8 214.2 57.2 212.5 56.5C212.3 46.9 212.3 37.7 212.3 28C225.4 28 237.9 28 251 28C251 31.4 251 34.8 251 39.2C251.1 44.09 251.1 48.1 251.2 52.2Z" fill="#111213"/><path d="M290.1 58.1C279.8 58.1 269.4 58.1 258.7 58.1C258.5 56.4 258.4 55.2 258.3 53.1C258.17 47.9 258.1 43.5 258.1 39.1C258.1 35.5 258.1 31.9 258.1 27.7C270.5 27.7 282.4 27.6 294.2 27.9C295 27.9 295.7 30 296.3 32.1C296.4 34 296.5 35.1 296.5 36.5C296.5 39.3 296.52 41.7 296.5 44.5C296.41 47 296.5 49.1 296.4 51.5C296.4 52.3 296.5 52.7 296.5 53.6C296.2 55.3 296 56.7 295.8 58C295.4 58 295 57.9 294.1 57.8C292.67 57.9 291.9 58 290.9 58C290.48 58 290.3 58 290.1 58.1Z" fill="#0F1012"/><path d="M375.4 30.3C380.8 37 381.7 44.9 382.2 53.2C382.1 54.9 381.9 56.2 381.8 57.6C368.9 57.6 356.3 57.6 343.2 57.6C343.2 54.9 343.2 52.4 343.1 49.6C343 42.2 343 35.3 343 27.8C352.8 27.8 362.3 27.7 371.82 27.9C372.9 27.9 374 29.4 375.4 30.3Z" fill="#0F0F11"/><path d="M81.6 58C79.7 57.9 78.2 57.8 76.3 57.7C75.6 50.2 76.6 43 79 35.5C81.2 28.8 85.9 27.4 92.1 27.6C98.9 27.9 105.8 27.7 113.1 27.7C113.1 29.4 113.2 30.8 112.8 32.7C110.7 33.7 109.1 34.2 107.5 34.8C108.2 36.3 108.8 37.9 109.8 39.2C110.6 40.1 112 40.5 113.1 41.2C113.2 42.5 113.2 43.9 113.3 46.1C113.2 48.3 113.2 49.7 112.7 51.2C111.3 51.2 110.2 51 109.3 51.3C108.1 51.7 106.9 52.5 105.8 53.2C106.5 54.2 107.3 55.1 107.9 56.1C108.1 56.4 107.5 57.1 107.3 57.7C98.9 57.7 90.5 57.8 81.6 58Z" fill="#0C0D0E"/><path d="M332.1 58.1C326.1 58 320.1 57.9 313.4 57.9C312.5 58 312.3 58 312.1 58.1C310.7 57.8 309.3 57.5 307.4 56.8C305.9 54.4 304.9 52.2 303.9 49.7C304.1 46.9 304.2 44.5 304.7 42.2C306.57 41.8 308.9 41.8 309.4 40.9C311.6 37 315.6 33.6 314.2 28.2C320.3 28.2 326.4 28 332.5 28.1C337.5 28.2 339.9 30.7 340 35.8C340.1 40 340.1 44.1 340.1 48.7C339.6 51.2 338.9 53.3 337.89 55.8C337.2 56.3 337.03 56.5 337 56.8C335.9 57.1 334.8 57.4 333.2 57.8C332.5 58 332.3 58 332.1 58.1Z" fill="#0F0F11"/><path d="M139.8 28C140.2 37.8 140.2 47.5 140.2 57.7C133.5 57.7 127.1 57.7 120.4 57C120 53.2 119.9 50.2 119.9 47.1C119.9 40.9 119.9 34.6 119.9 27.8C126.7 27.8 133.1 27.8 139.8 28Z" fill="#111213"/><path d="M162.1 40.7C162.1 46.4 162.1 51.7 162.1 57.4C155.4 57.4 149.1 57.4 142 57.4C142 48 142 38.5 142 28.6C148.4 28.1 154.8 28.1 162 28.1C162 32.1 162 36.2 162.1 40.7Z" fill="#0F1012"/><path d="M166.2 55.1C166.4 50.8 166.5 46.4 166.4 41.6C166.3 36.9 166.3 32.6 166.3 28C173.2 28 179.6 28 186.7 28C186.7 37.4 186.7 46.8 186.7 56.7C180 57.1 173.3 57 166.5 56.3C166.3 55.5 166.3 55.3 166.2 55.1Z" fill="#111213"/><path d="M208.7 55.7C207.8 56.7 207.01 57.7 206.2 57.7C200.5 57.8 194.8 57.6 188.7 57.3C188.3 47.5 188.3 38 188.3 28C195.3 28 201.6 28 208.64 28C208.64 37.1 208.64 46.1 208.7 55.7Z" fill="#111213"/><path d="M313.7 28.1C315.6 33.6 311.64 37 309.4 40.9C308.9 41.8 306.6 41.8 304.6 41.8C304 40.3 303.9 39.2 303.8 38.1C304.4 29 305.2 28.2 313.7 28.1Z" fill="#212121"/><path d="M257.7 39.1C258.1 43.5 258.17 47.9 258.2 52.7C256 52.8 254 52.5 251.6 52.2C251.1 48.1 251.1 44.1 251.1 39.6C253.3 39.1 255.3 39.1 257.7 39.1Z" fill="#E7E7E9"/><path d="M119.5 47C119.9 50.2 120 53.2 120 56.7C118.9 55.2 117.9 53.3 116.4 50.7C115.5 53.1 114.8 55.1 113.8 56.8C113.3 54.8 113.2 53 113.1 51.1C113.2 49.7 113.2 48.3 113.4 46.5C114 44.1 114.8 42.1 115.1 40C115.4 38.2 115.2 36.3 116.25 34.2C116.9 36.4 117.6 38.6 118.1 40.8C118.6 42.8 118.8 44.8 119.5 47Z" fill="#E7E7E9"/><path d="M148.8 14.5C154.9 13.8 155.6 15 153.4 20.21C152.9 21.6 153.1 23.3 152.9 25.4C151.7 25.4 149.5 25.4 146.9 25.4C148.7 22.6 150.4 19.9 152.1 17.2C151.8 16.9 151.5 16.6 151.2 16.4C150 16.9 148.8 17.5 146.15 18.7C147.4 16.6 147.9 15.7 148.8 14.5Z" fill="#393A3C"/><path d="M139.8 23.6C138 22.6 136.2 22.1 133.5 21.3C136 18.5 138.4 15.8 141.3 12.6C142.4 16.4 143.1 18.8 143.9 21.6C143.6 22.1 142.9 23.4 142 24.4C141.7 24.7 140.5 24.2 139.8 23.6Z" fill="#212121"/><path d="M303.52 38C303.9 39.2 304 40.3 304.2 41.8C304.2 44.5 304.1 46.9 303.5 49.7C302.7 49.3 301.8 48.4 301.9 47.7C302.5 44.6 301.4 43.1 298.2 42.8C297.6 40.3 297.1 38.2 296.6 36.2C296.5 35.1 296.4 34 296.4 32.5C298.76 34.1 301 36 303.52 38Z" fill="#EBEBED"/><path d="M113.2 40.7C112 40.5 110.59 40.1 109.8 39.2C108.8 37.9 108.2 36.3 107.5 34.8C109.1 34.2 110.7 33.7 112.7 33.2C113.2 35.5 113.2 37.9 113.2 40.7Z" fill="#1E1E1F"/><path d="M133.1 15.6C132.3 19 134.9 22.9 129.9 25.9C129.9 21.6 129.9 18.4 130 15.2C130 14.6 130.8 14 131.2 13.5C131.9 14 132.48 14.6 133.1 15.6Z" fill="#212121"/><path d="M225.6 69.3C209.1 69.3 193.1 69.3 176.6 69.28C162.8 69.3 149.4 69.3 135.6 69.3C124.8 69.3 114.4 69.3 103.2 69.3C101.3 69.3 100.23 69.3 99.2 69.4C98.4 69.3 97.7 69.3 96.5 69.3C83.5 69.3 70.8 69.3 57.6 69.3C43.5 69.3 29.8 69.2 16.2 69.2C14.3 69.2 12.5 68.9 10.4 68.5C87.2 68.2 164.2 68.2 241.7 68.3C242.2 68.3 242.2 68.8 242.2 69C236.8 69.2 231.4 69.2 225.6 69.3Z" fill="#7D939B"/><path d="M298.2 43.2C301.4 43.1 302.5 44.6 301.9 47.7C301.8 48.4 302.7 49.3 303.5 50.1C304.89 52.2 305.9 54.4 307.1 56.8C304.1 57.2 303 62.7 298.5 60.2C298.2 60.2 298.2 60.2 298.2 60.2C297.6 59.5 296.98 58.9 296.08 58.1C296 56.7 296.2 55.3 296.72 53.5C296.9 52.4 296.7 51.8 296.5 51.1C296.5 49.1 296.4 47 296.7 44.5C297.4 43.7 297.8 43.5 298.2 43.2Z" fill="#DCDBDC"/><path d="M112.7 51.2C113.2 53 113.3 54.8 113.4 57C113.1 57.6 112.8 57.8 112.06 58C111.5 58.1 111.3 58.1 111.16 58.17C110.4 58.1 109.6 58.1 108.3 58C107.5 58.1 107.3 58.1 107.2 58.2C107.2 58.2 107.2 57.9 107.2 57.8C107.5 57.1 108.1 56.4 107.9 56.1C107.3 55.1 106.5 54.2 105.8 53.2C106.9 52.5 108.1 51.7 109.3 51.3C110.2 51 111.3 51.2 112.7 51.2Z" fill="#393A3C"/><path d="M291.16 58.1C291.9 58 292.67 57.9 293.8 57.9C293.9 58.9 293.7 59.8 293.5 60.6C292.9 60.3 292.3 59.9 291.4 59.1C291.2 58.5 291.2 58.3 291.16 58.1Z" fill="#DCDBDC"/><path d="M337.1 57.1C337.03 56.48 337.2 56.3 337.8 56.1C338.2 56.5 338.5 57 338.7 57.5C338.3 57.4 337.76 57.4 337.1 57.1Z" fill="#E7E7E9"/><path d="M298.2 60.2C298.1 60.2 298 60.2 298 60.2C298.2 60.2 298.2 60.2 298.2 60.2Z" fill="#DCDBDC"/><path d="M332.2 58.3C332.3 58 332.5 58 332.9 58C332.9 58.2 332.6 58.3 332.2 58.3Z" fill="#E7E7E9"/><path d="M312.2 58.3C312.3 58 312.5 58 312.9 58C312.89 58.2 312.6 58.3 312.2 58.3Z" fill="#E7E7E9"/><path d="M290.9 58C291.16 58.3 291.16 58.5 291.2 58.9C290.9 59 290.6 58.8 290.2 58.3C290.3 58 290.5 58 290.9 58Z" fill="#E7E7E9"/><path d="M111.2 58.3C111.3 58.1 111.49 58.1 111.9 58.1C111.9 58.3 111.6 58.4 111.2 58.3Z" fill="#E7E7E9"/><path d="M107.2 58.4C107.3 58.1 107.5 58.1 107.9 58.1C107.9 58.3 107.6 58.4 107.2 58.4Z" fill="#E7E7E9"/><path d="M166.1 55.2C166.3 55.3 166.3 55.5 166.3 55.9C166 56 165.8 55.8 165.64 55.6C165.6 55.6 165.8 55.4 166.1 55.2Z" fill="#FBFBFB"/><path d="M54.3 77.4C54.7 77.3 55.3 77.5 56.1 77.9C55.7 78 55.1 77.8 54.3 77.4Z" fill="#63A4A4"/><path d="M99.2 69.7C100.2 69.3 101.3 69.3 102.7 69.3C102.5 70.3 101.9 71.2 101.3 72.1C100.6 71.4 99.9 70.7 99.2 69.7Z" fill="#7AC9CF"/><path d="M127.6 105.8C127.5 106.2 127.2 106.5 126.9 106.7C126.9 106.8 126.7 106.5 126.6 106.4C126.9 106.1 127.2 105.9 127.6 105.8Z" fill="#6AC5BF"/><path d="M298.2 42.8C297.81 43.5 297.4 43.7 296.8 44C296.52 41.7 296.5 39.3 296.5 36.5C297.1 38.2 297.6 40.3 298.2 42.8Z" fill="#FBFBFB"/><path d="M296.4 51.5C296.7 51.8 296.9 52.4 296.8 53.1C296.5 52.7 296.4 52.3 296.4 51.5Z" fill="#D0D2D5"/></svg>