<svg width="634" height="368" viewBox="0 0 634 368" fill="none" xmlns="http://www.w3.org/2000/svg">
<path d="M385.785 367.562C365.686 367.68 345.587 367.884 325.489 367.897C293.917 367.917 262.346 367.809 230.302 367.205C229.619 363.282 229.408 359.91 229.35 356.218C229.513 355.432 229.524 354.967 229.699 354.148C230.34 351.033 230.818 348.27 231.432 345.153C231.642 344.048 231.715 343.296 232.01 342.353C232.281 341.605 232.33 341.048 232.519 340.136C232.703 339.023 232.748 338.265 233.053 337.246C233.715 334.498 234.118 332.011 234.618 329.16C234.761 328.046 234.808 327.296 235.091 326.286C235.608 324.187 235.889 322.347 236.322 320.131C236.561 318.679 236.649 317.603 236.905 316.247C237.126 315.139 237.18 314.312 237.355 313.168C237.512 312.404 237.547 311.956 237.744 311.143C238.45 306.686 238.994 302.592 239.607 298.174C239.676 297.408 239.676 296.966 239.873 296.163C240.235 292.039 240.4 288.276 240.643 284.08C240.693 281.3 240.665 278.953 240.726 276.19C240.425 273.38 240.035 270.987 239.651 268.258C239.587 267.479 239.517 267.036 239.565 266.192C239.395 263.723 239.106 261.658 238.856 259.174C238.783 257.369 238.671 255.981 238.654 254.213C238.206 251.936 237.663 250.039 237.155 247.779C237.061 246.461 236.933 245.505 236.831 244.135C235.523 238.688 234.19 233.655 232.803 228.249C230.876 222.894 229.19 217.83 227.069 212.956C225.433 209.198 223.012 207.999 218.815 210.468C208.779 216.375 198.45 221.784 188.231 227.379C182.259 230.649 176.471 234.42 169.032 231.65C167.548 231.097 165.447 231.949 163.696 232.404C136.176 239.553 108.684 246.811 81.1437 253.882C72.5722 256.083 69.0237 254.168 65.197 246.184C61.7943 239.084 60.4161 238.596 52.6903 240.679C37.929 244.66 23.1091 244.742 8.29867 240.851C4.17976 239.77 0.714608 237.697 0.095616 233.151C-0.546313 228.437 2.10868 225.04 6.11665 223.164C10.1471 221.278 14.4877 220.029 18.7409 218.651C23.0704 217.247 27.459 216.026 33.1501 214.329C29.3907 211.133 26.6751 208.825 23.261 205.923C26.2828 204.561 28.126 203.223 30.1275 202.915C38.8739 201.572 47.6477 201.793 55.1642 206.974C60.9317 210.949 66.9928 211.456 73.2709 210.151C89.2068 206.838 105.156 203.501 120.914 199.451C132.284 196.529 143.665 193.184 154.46 188.646C163.094 185.017 170.64 179.033 180.102 176.805C184.937 175.666 189.946 173.646 193.893 170.704C200.913 165.472 207.381 159.437 213.661 153.308C215.764 151.256 217.301 148.031 217.865 145.106C219.61 136.047 224.663 130.645 233.608 128.517C240.863 126.791 248.037 124.723 255.581 122.836C257.213 122.486 258.513 122.105 260.193 121.735C262.66 121.003 264.746 120.26 267.13 119.535C267.924 119.274 268.42 118.995 269.258 118.697C270.717 118.015 271.834 117.351 272.894 116.675C272.838 116.662 272.947 116.709 273.316 116.717C276.739 114.673 279.794 112.621 283.157 110.369C286.996 102.441 287.967 94.598 284.371 86.6172C283.35 84.3532 281.712 82.3145 280.996 79.9768C278.618 72.2146 276.233 64.43 274.453 56.5185C273.534 52.4304 273.873 48.0569 273.665 43.8112C273.444 39.2799 273.078 34.746 273.117 30.2161C273.135 28.0348 273.658 25.7508 274.452 23.7072C275.74 20.3891 277.342 17.1792 279.001 14.0235C280.021 12.0841 281.034 9.23697 282.676 8.6962C287.853 6.99069 292.477 3.31833 298.552 4.26443C300.617 4.58584 303.319 3.60074 305.118 2.34024C311.296 -1.98795 317.751 0.649198 323.212 2.60013C331.324 5.49808 336.731 11.7544 339.087 20.8247C340.811 27.4616 344.218 33.7683 347.597 39.8187C349.069 42.4538 349.355 44.3343 348.589 47.1239C346.711 53.9585 344.844 60.8521 343.808 67.8458C342.849 74.321 341.894 80.0591 335.21 83.5853C332.947 84.7796 331.377 88.5571 330.8 91.4181C329.584 97.4539 331.488 102.89 336.03 107.257C343.545 114.48 353.057 117.307 363.102 119.598C363.513 119.692 363.685 119.688 364.144 119.881C365.749 120.368 367.068 120.658 368.688 121.178C376.214 123.376 383.345 125.875 390.687 127.164C398.018 128.45 402.157 132.654 404.771 139.045C406.986 144.462 410.326 148.995 415.56 151.698C428.547 158.403 441.469 165.267 454.716 171.426C489.439 187.569 525.365 199.89 563.656 204.316C569.347 204.974 574.759 205.147 580.181 202.316C582.71 200.996 586.288 200.958 589.253 201.359C594.77 202.103 600.242 203.395 605.61 204.899C607.183 205.34 609.373 207.236 609.41 208.518C609.45 209.923 607.58 211.827 606.072 212.706C604.546 213.595 602.443 213.496 599.691 213.993C608.864 221.45 618.139 225.482 629.23 224.804C630.607 224.72 632.055 225.804 633.469 226.347C632.743 227.754 632.374 229.75 631.219 230.45C628.559 232.061 625.563 233.974 622.624 234.115C611.028 234.673 599.391 234.953 587.79 234.611C581.406 234.422 575.064 232.791 568.912 231.843C567.155 236.53 565.617 241.071 563.747 245.471C562.458 248.501 559.996 250.265 556.544 249.481C547.174 247.354 537.383 246.192 528.593 242.606C515.991 237.464 503.743 232.621 489.721 233.301C485.01 233.529 479.813 231.705 475.454 229.565C466.789 225.312 458.011 222.503 448.261 222.207C442.679 222.038 436.816 221.298 431.657 219.314C424.249 216.464 417.276 212.41 410.28 208.573C397.437 201.529 396.648 201.358 391.746 215.711C386.269 231.748 380.996 247.972 377.439 264.503C375.317 274.366 375.563 285.097 376.686 295.223C378.845 314.704 382.384 334.032 385.208 353.804C385.347 355.975 385.629 357.766 385.889 359.886C385.882 360.656 385.898 361.096 385.858 361.788C385.827 362.21 385.852 362.38 385.839 362.879C385.787 363.647 385.773 364.088 385.541 364.71C385.478 365.782 385.631 366.672 385.785 367.562Z" fill="#020000"/>
</svg>
