<svg width="737" height="747" viewBox="0 0 737 747" fill="none" xmlns="http://www.w3.org/2000/svg">
<path fill-rule="evenodd" clip-rule="evenodd" d="M411 1.5608C409.075 2.6468 407.35 3.93881 407.167 4.43081C406.983 4.92181 406.083 5.33181 405.167 5.33981C401.168 5.37681 400.51 6.90281 402.51 11.4988C403.545 13.8778 405.247 17.0798 406.292 18.6138C408.937 22.4968 414 32.0928 414 33.2228C414 33.7368 411.188 35.5818 407.75 37.3218C399.621 41.4368 389.916 47.1028 387.931 48.8928C387.068 49.6708 377.393 54.8628 366.431 60.4298C355.469 65.9968 344.7 71.5528 342.5 72.7768C340.3 74.0008 335.008 76.9178 330.739 79.2598C326.471 81.6018 322.406 84.3348 321.706 85.3338C321.007 86.3328 319.099 87.3018 317.467 87.4878C314.927 87.7758 314.427 88.3288 313.991 91.3248C313.423 95.2318 316.843 103.743 320.018 106.325C321.538 107.56 321.893 109.414 322.029 116.825C322.119 121.775 322.117 126.05 322.022 126.325C321.928 126.6 321.625 129.75 321.349 133.325C320.782 140.682 319.243 142.683 311.795 145.749C298.498 151.222 299 150.815 299 156.112V160.924L290.053 167.125C281.512 173.043 280.832 173.325 275.102 173.325C268.171 173.325 266.581 174.754 268.337 179.407C269.21 181.719 269.075 182.585 267.588 184.228C265.591 186.434 265.13 186.112 272.5 187.67C273.6 187.903 272.363 188.145 269.75 188.209C267.092 188.274 265 188.8 265 189.403C265 190.041 266.532 190.347 268.748 190.153L272.496 189.825L272.522 195.325C272.536 198.35 272.376 201.388 272.167 202.075C271.686 203.655 267 203.73 267 202.158C267 201.517 266.714 201.277 266.365 201.627C265.794 202.197 265.594 203.267 265.112 208.325C264.993 209.573 264.822 209.593 264.094 208.443C263.413 207.368 262.818 207.701 261.412 209.943C260.418 211.528 259.469 213.012 259.303 213.241C258.709 214.059 248 207.88 248 206.721C248 204.797 245.129 204.273 244.152 206.018C243.465 207.245 242.356 207.482 239.485 207.016C237.414 206.68 234.882 206.853 233.859 207.4C232.422 208.169 232 208.047 232 206.86C232 206.016 232.787 205.311 233.75 205.293C235.362 205.264 235.352 205.15 233.629 203.844C232.293 202.833 231.936 201.714 232.382 199.937C233.383 195.952 231.552 196.076 227.684 200.256C224.62 203.568 224.176 204.633 224.646 207.533C225.149 210.634 224.671 211.475 219.191 217.128C215.574 220.859 212.346 223.325 211.078 223.325C208.599 223.325 206.419 224.508 199.568 229.571C196.781 231.631 193.85 233.318 193.055 233.321C192.26 233.323 190.414 232.18 188.954 230.781C186.44 228.372 186.355 227.985 187.372 223.54C188.003 220.783 189.456 217.977 190.891 216.742C193.678 214.345 193.231 211.325 190.09 211.325C187.786 211.325 186.43 209.553 186.838 207.075C187.001 206.082 186.5 205.325 185.679 205.325C184.884 205.325 183.945 206.113 183.592 207.075C183.239 208.037 182.241 210.107 181.373 211.673C180.225 213.747 180.096 214.821 180.898 215.623C181.504 216.229 182 219.027 182 221.839C182 226.804 181.88 227.018 177.905 229.139C175.654 230.342 172.954 231.325 171.905 231.325C170.857 231.325 170 231.775 170 232.325C170 232.875 169.11 233.325 168.023 233.325C166.936 233.325 165.292 234.476 164.37 235.883C163.449 237.289 160.888 239.362 158.68 240.488C153.315 243.225 143.826 242.761 139.303 239.541C137.592 238.322 134.994 237.325 133.53 237.325C132.066 237.325 130.079 236.903 129.115 236.386C128.15 235.87 124.917 235.403 121.931 235.349C114.335 235.211 113.16 235.314 110.414 236.358C107.259 237.557 103.562 235.881 99.316 231.325C96.155 227.933 96.053 227.555 96.027 219.075C96.011 213.926 95.588 210.325 95 210.325C94.45 210.325 94 209.617 94 208.752C94 207.791 93.319 207.311 92.25 207.518C91.287 207.705 90.496 208.657 90.491 209.633C90.486 210.61 89.873 211.785 89.128 212.246C88.027 212.926 88.019 213.165 89.084 213.52C89.903 213.793 90.454 215.851 90.554 219.005C90.643 221.782 91.022 224.552 91.398 225.16C92.518 226.972 89.2 232.17 85.802 233.928C84.061 234.827 79.819 235.913 76.375 236.34C68.745 237.287 61.363 241.708 61.731 245.111C61.904 246.706 61.556 247.092 60.357 246.632C58.953 246.093 58.973 246.354 60.511 248.701C61.479 250.179 61.952 251.706 61.563 252.096C60.871 252.787 54.755 246.73 48.258 238.919L45.016 235.021L38.022 235.226C34.175 235.338 30.459 234.976 29.764 234.422C28.315 233.267 19.199 225.15 14.774 221.075C13.132 219.563 11.226 218.325 10.539 218.325C9.852 218.325 8.872 216.862 8.363 215.075C7.557 212.249 6.952 211.785 3.718 211.515L0 211.204V247.606V284.008L4.097 285.236C8.833 286.655 8.502 287.835 3.465 287.496L0 287.262V320.712C0 339.109 0.273 354.873 0.607 355.743C0.941 356.613 1.814 357.325 2.548 357.325C3.282 357.325 4.201 357.841 4.59 358.471C5.089 359.277 4.514 359.42 2.649 358.952L0 358.287V552.307V746.328L368.25 746.076L736.5 745.825L736.514 477.825C736.521 330.425 736.399 218.397 736.243 228.873L735.958 247.921L731.465 249.123C728.993 249.784 724.963 250.325 722.509 250.325C718.852 250.325 717.75 250.777 716.408 252.825C715.507 254.2 713.948 255.325 712.944 255.325C711.94 255.325 710.84 255.775 710.5 256.325C710.16 256.875 708.714 257.325 707.287 257.325C704.229 257.325 694.881 253.091 693.039 250.872C692.333 250.021 691 249.325 690.078 249.325C689.155 249.325 687.972 248.921 687.45 248.427C686.928 247.934 684.7 247.298 682.5 247.015C680.3 246.731 676.468 246.216 673.985 245.869C670.416 245.37 669.055 245.617 667.485 247.05C662.927 251.212 655.505 255.324 652.579 255.31C648.975 255.292 642.913 253.328 640.639 251.44C639.762 250.713 636.672 250.052 633.772 249.971C628.527 249.826 623.216 247.212 620.353 243.366C616.207 237.799 614.928 236.889 612.964 238.115C609.034 240.57 608.709 239.808 609.214 229.321C609.582 221.684 609.377 219.053 608.348 218.199C607.607 217.584 607 216.235 607 215.203C607 214.17 606.325 213.325 605.5 213.325C604.514 213.325 604 214.311 604 216.203C604 219.785 601.92 221.812 600.051 220.051C599.013 219.073 598.839 219.129 599.19 220.325C599.432 221.15 600.628 222.275 601.849 222.825C603.926 223.76 604.051 224.375 603.785 232.325L603.5 240.825L595 241.655C589.261 242.216 585.936 242.134 584.764 241.405C583.809 240.811 582.459 240.318 581.764 240.309C581.069 240.3 578.977 238.95 577.114 237.309C575.252 235.668 572.978 234.325 572.061 234.325C571.143 234.325 568.842 232.713 566.946 230.743C561.756 225.348 560.622 224.978 556.044 227.189C552.622 228.843 551.574 228.943 548.551 227.904C546.619 227.239 544.729 226.387 544.352 226.01C543.975 225.633 543.062 225.325 542.323 225.325C541.583 225.325 538.758 223.863 536.043 222.075L531.108 218.825L531.054 210.075C531.019 204.426 531.384 201.325 532.083 201.325C532.679 201.325 532.97 200.763 532.73 200.075C532.489 199.388 531.552 198.957 530.646 199.119C529.559 199.313 529 198.719 529 197.369C529 194.663 528.376 194.788 525.484 198.075C522.736 201.197 522.425 203.965 524.299 208.607C525.582 211.784 525.205 217.893 523.75 217.518C523.337 217.412 521.398 217.325 519.441 217.325C517.448 217.325 516.14 216.907 516.469 216.375C517.261 215.094 513.224 213.025 511.341 213.748C510.514 214.065 508.998 213.736 507.971 213.017C506.508 211.992 504.743 211.939 499.802 212.768C496.336 213.35 493.05 214.111 492.5 214.46C491.95 214.809 489.648 215.401 487.384 215.775C483.652 216.392 483.209 216.239 482.647 214.14C482.306 212.867 482.021 210.399 482.014 208.657C481.994 204.107 481.131 202.444 477.928 200.788C474.114 198.815 470.092 198.921 469.289 201.015C468.927 201.959 469.161 202.879 469.82 203.098C471.865 203.78 471.102 206.321 468.496 207.509C467.118 208.136 465.702 208.36 465.347 208.005C464.755 207.413 463.816 195.871 463.93 190.575C463.99 187.73 461.422 187.603 460.687 190.415C460.252 192.079 459.67 192.355 457.828 191.77C455.817 191.132 455.684 191.239 456.806 192.592C457.674 193.638 457.754 194.359 457.049 194.795C455.935 195.483 455.826 195.249 455.444 191.325C455.206 188.892 455.017 81.8128 455.243 77.8248C455.631 70.9818 454.698 68.1828 448.701 58.1978C445.237 52.4298 441.807 46.2728 441.08 44.5168C440.352 42.7618 439.362 41.3248 438.879 41.3248C438.395 41.3248 438 40.8748 438 40.3248C438 39.7748 438.672 39.3248 439.494 39.3248C441.774 39.3248 459.627 30.3948 461.513 28.3098C463.077 26.5818 462.932 26.0578 459.043 19.3988C456.771 15.5088 454.698 12.3248 454.436 12.3248C454.174 12.3248 452.178 13.4498 450 14.8248C447.822 16.1998 445.86 17.3248 445.641 17.3248C445.422 17.3248 442.627 18.8998 439.43 20.8248C436.233 22.7498 432.691 24.3168 431.559 24.3078C429.43 24.2888 424.44 17.0688 418.815 5.86882C417.338 2.92882 415.763 0.311806 415.315 0.0548064C414.867 -0.203194 412.925 0.474803 411 1.5608ZM411.5 56.0178C405.45 59.1048 397.043 63.3608 392.818 65.4758C388.506 67.6348 384.876 70.1418 384.542 71.1908C383.494 74.4948 383.659 79.7358 384.987 85.2688C386.164 90.1758 386.403 90.4938 387.64 88.8018C388.497 87.6298 389 87.4318 389 88.2658C389 89.6208 394.428 89.3568 398.25 87.8168C399.466 87.3258 400 87.5828 400 88.6568C400 89.7228 398.599 90.4118 395.488 90.8788C390.154 91.6788 389.594 92.3458 390.446 96.8898C390.879 99.1978 391.65 100.33 392.795 100.34C394.242 100.353 394.276 100.497 393.021 101.291C392.088 101.881 391.596 103.629 391.688 106.026L391.834 109.825L391.167 106.404C390.8 104.523 389.89 102.782 389.145 102.536C388.218 102.23 387.964 102.678 388.342 103.957C388.645 104.984 389.169 107.625 389.507 109.825C389.844 112.025 390.514 115.85 390.995 118.325C395.129 139.6 396.437 145.325 397.162 145.325C398.284 145.325 398.186 143.988 396.5 136.325C395.714 132.75 395.103 128.7 395.142 127.325C395.212 124.909 395.805 127.253 398.116 139.075C398.826 142.712 399.619 144.325 400.693 144.325C401.985 144.325 402.028 144.586 400.951 145.884C399.915 147.132 399.891 148.679 400.832 153.634C401.478 157.039 403.156 166.125 404.561 173.825C405.966 181.525 407.989 192.524 409.058 198.268C410.126 204.011 411 209.133 411 209.65C411 210.168 412.793 210.348 415 210.052C417.851 209.669 419 209.881 419 210.787C419 211.487 420.822 213.265 423.049 214.739C426.748 217.187 427.419 217.317 430.799 216.241C440.856 213.039 441.774 212.378 442.288 207.967C442.554 205.689 442.71 200.551 442.635 196.55C442.528 190.759 442.789 189.331 443.918 189.55C444.697 189.701 445.409 190.831 445.499 192.06C445.59 193.29 446.414 195.125 447.332 196.139C449.367 198.388 449.446 199.325 447.601 199.325C446.665 199.325 446.085 200.792 445.849 203.75C445.516 207.944 445.649 208.205 448.409 208.757C450.01 209.077 451.494 209.164 451.708 208.95C452.783 207.876 452.291 200.123 451.102 199.388C450.005 198.71 450.011 198.488 451.137 198.113C453.212 197.421 453.537 71.3248 451.463 71.3248C450.688 71.3248 448.064 72.2908 445.633 73.4728C443.202 74.6538 440.559 75.3698 439.762 75.0638C438.964 74.7578 437.741 72.4728 437.045 69.9868C436.349 67.5008 434.655 64.4218 433.28 63.1458C431.905 61.8688 429.26 58.4618 427.403 55.5748C425.545 52.6878 423.682 50.3428 423.262 50.3648C422.843 50.3858 417.55 52.9298 411.5 56.0178ZM366.5 79.9378C365.4 80.7898 361.835 82.8458 358.577 84.5078C355.319 86.1688 351.953 88.2288 351.098 89.0838C350.242 89.9398 347.733 91.4558 345.521 92.4518C343.309 93.4488 339.539 95.5808 337.143 97.1898C333.162 99.8618 332.771 100.501 332.608 104.582C332.448 108.622 332.697 109.15 335.215 110.1C337.841 111.091 338 111.498 338 117.238C338 120.629 337.557 123.325 337 123.325C336.45 123.325 336 121.541 336 119.36C336 115.028 334.694 113.786 329.5 113.177C326.814 112.862 326.464 113.139 326.16 115.822C325.973 117.47 325.298 119.151 324.66 119.556C323.807 120.099 323.831 120.298 324.75 120.31C325.666 120.321 326 123 326 130.325C326 137.618 326.338 140.346 327.25 140.402C327.938 140.444 329.4 140.654 330.5 140.869C335.191 141.786 336 140.636 336 133.058C336 128.394 336.34 126.265 336.981 126.906C337.55 127.475 338.075 137.697 338.231 151.258L338.5 174.629L346 176.403C350.125 177.379 353.774 177.873 354.109 177.501C354.444 177.129 355.244 173.675 355.888 169.825C356.532 165.975 357.897 158.55 358.921 153.325C359.946 148.1 361.961 137.525 363.399 129.825C364.837 122.125 366.474 113.575 367.037 110.825C367.599 108.075 368.483 103.575 369 100.825C369.517 98.0748 370.376 93.5748 370.91 90.8248C373.304 78.4818 373.302 78.3218 370.795 78.3568C369.533 78.3738 367.6 79.0858 366.5 79.9378ZM377.7 90.3248C377.384 91.1498 376.363 95.8748 375.433 100.825C374.502 105.775 373.408 110.275 373.001 110.825C371.746 112.523 369.786 122.169 370.471 123.278C370.827 123.854 374.016 124.325 377.559 124.325C383.801 124.325 384 124.246 384 121.768C384 120.361 383.585 117.324 383.078 115.018C382.57 112.712 381.608 107.45 380.94 103.325C378.998 91.3398 378.334 88.6758 377.7 90.3248ZM386.802 92.8558C385.963 93.6958 388.093 101.325 389.167 101.325C389.686 101.325 389.799 99.6828 389.424 97.5748C388.726 93.6478 387.756 91.9018 386.802 92.8558ZM324.02 104.313C322.778 105.08 322.824 105.32 324.321 105.895C326.408 106.695 327.77 105.695 326.425 104.35C325.857 103.782 324.903 103.767 324.02 104.313ZM392.106 111.825C392.094 112.925 392.731 116.3 393.522 119.325L394.958 124.825L394.353 119.325C394.019 116.3 393.382 112.925 392.937 111.825L392.127 109.825L392.106 111.825ZM368.64 131.537C368.303 132.795 368.021 135.367 368.014 137.251C368.006 139.135 366.836 147.597 365.414 156.055C363.992 164.514 363.077 172.084 363.383 172.88C363.829 174.044 366.633 174.325 377.802 174.325C385.428 174.325 391.886 174.105 392.155 173.837C392.614 173.378 390.329 157.234 387.908 143.825C387.312 140.525 386.526 136.025 386.162 133.825L385.5 129.825L377.377 129.537C369.644 129.262 369.224 129.358 368.64 131.537ZM397.396 151.933C397.762 154.623 398.463 158.85 398.955 161.325C399.447 163.8 400.331 168.525 400.92 171.825C401.509 175.125 402.637 181.2 403.426 185.325C404.215 189.45 405.621 197.024 406.549 202.156C407.5 207.409 408.616 211.109 409.103 210.622C409.851 209.874 407.056 192.735 401.554 164.325C400.755 160.2 399.815 154.915 399.464 152.58C399.113 150.246 398.354 148.044 397.778 147.688C397.069 147.25 396.946 148.623 397.396 151.933ZM290.739 167.846C287.033 170.333 284 172.794 284 173.316C284 173.837 287.262 172.787 291.25 170.981C296.659 168.532 298.581 167.143 298.82 165.511C298.995 164.309 298.765 163.325 298.309 163.325C297.852 163.325 294.446 165.359 290.739 167.846ZM289.561 173.275C284.632 175.58 283.41 176.668 282.371 179.667C281.683 181.655 281.43 183.466 281.81 183.692C282.189 183.919 286.1 184.041 290.5 183.964L298.5 183.825L298.796 177.075C299.145 169.091 298.804 168.951 289.561 173.275ZM362 180.392C362 180.979 363.627 182.994 365.616 184.869C367.828 186.956 369.009 188.858 368.659 189.77C367.842 191.899 369.386 192.499 372.666 191.326C375.151 190.438 375.284 190.482 373.75 191.679C372.355 192.768 372 194.596 372 200.685C372 204.887 372.21 208.325 372.466 208.325C372.722 208.325 374.522 207.567 376.466 206.64L380 204.955V197.072C380 189.645 379.885 189.227 378 189.825C375.799 190.523 375.187 188.851 377.341 188.025C380.336 186.875 381.498 189.156 381.678 196.538C381.776 200.546 381.888 204.225 381.928 204.713C381.99 205.482 396.94 204.719 397.754 203.905C398.064 203.594 395.286 185.443 394.336 181.575C393.792 179.359 393.541 179.325 377.892 179.325C367.297 179.325 362 179.681 362 180.392ZM291 188.213C293.277 188.62 294.063 189.118 293.25 189.64C292.563 190.082 291.641 190.221 291.202 189.95C290.763 189.679 289.883 189.779 289.246 190.173C288.459 190.659 289.037 191.906 291.047 194.056L294.006 197.223L296.503 194.91C297.949 193.57 299 191.486 299 189.96C299 187.404 298.829 187.329 293.25 187.457C288.427 187.567 288.064 187.689 291 188.213ZM274 196.273C274 200.846 274.42 203.328 275.25 203.663C276.25 204.066 276.25 204.183 275.25 204.246C274.563 204.289 274 205.257 274 206.396C274 211.107 278.503 212.815 283.893 210.148C288.276 207.979 288.795 206.795 286.65 203.861C285.623 202.456 284.488 202.149 281.9 202.574C278.577 203.121 278.563 203.109 281.267 202.03C284.534 200.728 284.516 200.628 280 194.879C274.685 188.113 274 188.272 274 196.273ZM280.195 191.004C281.127 191.249 281.665 192.034 281.391 192.748C280.676 194.611 285.778 200.347 287.547 199.669C288.346 199.362 289 198.717 289 198.236C289 196.508 282.128 190.327 280.333 190.441C278.733 190.542 278.716 190.614 280.195 191.004ZM367.435 197.075C367.074 199.138 365.911 202.342 364.851 204.197C363.212 207.064 363.165 207.476 364.534 206.95C365.42 206.61 367.012 206.796 368.072 207.364C370.127 208.463 370.182 208.279 370.182 200.325C370.182 194.504 369.99 193.325 369.045 193.325C368.52 193.325 367.795 195.013 367.435 197.075ZM456.542 196.671C454.966 197.823 454.779 198.982 455.24 204.727C455.836 212.147 456.04 212.631 458.224 211.792C459.279 211.388 459.896 209.211 460.267 204.588C461 195.453 460.285 193.933 456.542 196.671ZM287.015 201.075C287.05 202.767 288.851 204.535 289.888 203.894C291.738 202.751 291.135 200.325 289 200.325C287.9 200.325 287.007 200.662 287.015 201.075ZM267 206.219C267 207.611 267.662 208.075 269.499 207.969C272.977 207.769 272.977 204.325 269.5 204.325C267.713 204.325 267 204.865 267 206.219ZM477.75 206.905C476.68 207.98 476.82 214.096 477.931 214.782C478.443 215.099 479.069 215.013 479.323 214.591C480.065 213.359 478.575 206.077 477.75 206.905ZM0.453 247.825C0.453 268.175 0.586 276.358 0.749 266.01C0.912 255.661 0.911 239.011 0.748 229.01C0.585 219.008 0.452 227.475 0.453 247.825ZM652 283.768C652 285.54 655.804 288.325 658.223 288.325C660.701 288.325 660.443 285.749 657.777 283.882C654.988 281.928 652 281.869 652 283.768ZM0.45 321.325C0.45 340.3 0.584 348.062 0.748 338.575C0.913 329.088 0.913 313.562 0.748 304.075C0.584 294.588 0.45 302.35 0.45 321.325ZM0.49 552.325C0.49 659.3 0.607 703.062 0.75 649.575C0.893 596.087 0.893 508.562 0.75 455.075C0.607 401.587 0.49 445.35 0.49 552.325Z" fill="#060404"/>
</svg>
